<?xml version="1.0" standalone="no"?>
<!DOCTYPE svg PUBLIC "-//W3C//DTD SVG 20010904//EN"
 "http://www.w3.org/TR/2001/REC-SVG-20010904/DTD/svg10.dtd">
<svg version="1.0" xmlns="http://www.w3.org/2000/svg"
 width="700.000000pt" height="700.000000pt" viewBox="0 0 700.000000 700.000000"
 preserveAspectRatio="xMidYMid meet">
<metadata>
Created by potrace 1.14, written by Peter Selinger 2001-2017
</metadata>
<g transform="translate(0.000000,700.000000) scale(0.100000,-0.100000)"
fill="#000000" stroke="none">
<path d="M439 4435 c-1 -13 -1 -1514 0 -1537 1 -17 27 -18 424 -14 232 2 438
7 457 10 154 31 251 69 361 141 131 88 225 214 282 380 29 85 31 99 31 240 1
126 -3 162 -22 228 -88 308 -323 499 -682 553 -76 12 -850 11 -851 -1z m819
-357 c73 -15 164 -63 211 -110 86 -87 129 -229 110 -362 -14 -89 -20 -109 -47
-160 -62 -114 -173 -185 -317 -203 -41 -5 -297 -8 -355 -4 -13 1 -15 54 -14
424 1 232 2 423 3 425 3 8 368 -2 409 -10z"/>
<path d="M2600 4107 c-78 -10 -187 -45 -255 -83 -27 -15 -82 -60 -121 -98
-115 -115 -169 -248 -173 -426 -7 -298 162 -534 439 -614 85 -24 126 -29 240
-28 291 2 524 156 612 407 26 71 33 126 32 240 -3 270 -153 481 -403 570 -102
36 -247 49 -371 32z m207 -388 c179 -49 215 -337 55 -441 -133 -88 -344 -32
-388 102 -25 78 -23 155 8 222 52 112 178 158 325 117z"/>
<path d="M4820 4113 c-128 -14 -233 -66 -308 -155 l-23 -27 -67 68 c-57 57
-77 70 -135 89 -81 26 -181 29 -256 6 -63 -18 -98 -39 -150 -87 l-40 -37 -3
58 -3 57 -200 0 -200 0 0 -598 c0 -534 2 -598 16 -602 8 -3 99 -5 202 -4 l186
2 0 343 c0 189 4 356 7 371 20 80 86 133 165 133 59 0 96 -26 127 -89 l26 -55
1 -350 0 -351 200 -2 200 -2 0 322 c-1 333 4 397 34 449 51 93 193 105 248 21
40 -61 43 -87 43 -445 l0 -348 200 1 200 1 -1 386 c0 329 -3 399 -18 469 -35
164 -115 278 -232 332 -61 29 -165 49 -219 44z"/>
<path d="M5233 4074 c-10 -27 10 -94 92 -299 47 -121 132 -335 187 -475 55
-140 106 -270 114 -287 29 -64 44 -117 37 -124 -8 -7 -92 -18 -150 -19 l-33 0
0 -193 0 -193 58 2 c301 14 453 100 553 312 52 112 27 47 264 667 114 297 207
551 207 565 0 59 14 55 -193 55 l-192 0 -9 -25 c-10 -25 -70 -193 -173 -485
-66 -186 -65 -185 -75 -185 -5 0 -15 19 -23 43 -8 23 -26 71 -40 107 -56 151
-120 319 -142 375 -13 33 -33 85 -44 115 l-21 55 -206 0 c-142 0 -208 -3 -211
-11z"/>
</g>
</svg>
