<svg width="32" height="32" viewBox="0 0 32 32" fill="none" xmlns="http://www.w3.org/2000/svg">
<rect width="32" height="32" fill="#FFF000"/>
<path d="M2 11.6799H5.22481C7.44186 11.6799 9.14729 13.0133 9.14729 15.2458C9.14729 17.4784 7.44186 18.8272 5.22481 18.8272H2V11.6799ZM3.86047 13.3079V17.1993H5.22481C6.3876 17.1993 7.24031 16.5017 7.24031 15.2458C7.24031 13.99 6.3876 13.3079 5.22481 13.3079H3.86047Z" fill="#1C1C1B"/>
<path d="M9.36436 16.0675C9.36436 14.3156 10.6512 13.1838 12.4031 13.1838C14.1551 13.1838 15.4419 14.3001 15.4419 16.0675C15.4419 17.8195 14.1551 18.9513 12.4031 18.9513C10.6512 18.9513 9.36436 17.835 9.36436 16.0675ZM11.2248 16.0675C11.2248 16.7807 11.6899 17.2148 12.3876 17.2148C13.0853 17.2148 13.5504 16.7807 13.5504 16.0675C13.5504 15.3544 13.0853 14.9203 12.3876 14.9203C11.6899 14.9203 11.2248 15.3544 11.2248 16.0675Z" fill="#1C1C1B"/>
<path d="M15.7054 13.3234H17.5504V13.866C17.907 13.4474 18.3721 13.1993 18.9302 13.1993C19.7054 13.1993 20.2016 13.5404 20.4961 14.0675C20.8837 13.5249 21.4574 13.1993 22.124 13.1993C23.6434 13.1993 24.1861 14.3931 24.1861 15.8195V18.8272H22.3566V15.897C22.3566 15.3544 22.093 14.9358 21.6589 14.9358C21.1628 14.9358 20.8682 15.3079 20.8682 15.9745V18.8272H19.0388V15.897C19.0388 15.3544 18.7752 14.9358 18.3411 14.9358C17.876 14.9358 17.5504 15.2768 17.5504 15.866V18.8272H15.7054V13.3234Z" fill="#1C1C1B"/>
<path d="M25.8295 13.3234L27.0388 16.5172H27.1008L28.2326 13.3234H30V13.68L28.0155 18.8427C27.5814 19.959 27.0078 20.6412 25.0543 20.6412V18.8738C25.4729 18.8738 25.7519 18.8583 25.938 18.7807L23.9225 13.68V13.3234H25.8295Z" fill="#1C1C1B"/>
</svg>
