<svg xmlns="http://www.w3.org/2000/svg" viewBox="0 0 32 32"><path fill="#faf000" d="M0 0h32v32H0z"/><g fill="#1c1c1b"><path d="M3.24 2.34h2.94c2 0 3.58 1.21 3.58 3.25a3.27 3.27 0 0 1-3.58 3.26H3.24Zm1.7 1.48v3.55h1.24A1.7 1.7 0 0 0 8 5.59a1.68 1.68 0 0 0-1.82-1.77ZM10 6.33a2.58 2.58 0 0 1 2.77-2.62 2.56 2.56 0 0 1 2.77 2.62A2.57 2.57 0 0 1 12.72 9 2.57 2.57 0 0 1 10 6.33Zm1.7 0a1 1 0 0 0 1.06 1 1 1 0 0 0 1.06-1 1 1 0 0 0-1.06-1 1 1 0 0 0-1.11 1Zm4.03-2.5h1.68v.5a1.63 1.63 0 0 1 1.26-.61 1.52 1.52 0 0 1 1.43.79 1.8 1.8 0 0 1 1.48-.79c1.38 0 1.88 1.09 1.88 2.39v2.74h-1.67V6.18c0-.5-.24-.88-.63-.88s-.72.34-.72 1v2.6h-1.67V6.18c0-.5-.24-.88-.64-.88s-.72.31-.72.85v2.7h-1.68Z"/><path d="m25 3.83 1.1 2.91h.05l1-2.91h1.62v.33L27 8.86c-.4 1-.92 1.64-2.7 1.64V8.89a2.31 2.31 0 0 0 .8-.08l-1.88-4.65v-.33Z"/></g><path d="M10.14 24.85H8.89v2H6v-2H.36v-2.63l4-7.82h3.02l-4 7.82H6v-2.67h2.89v2.67h1.25Zm.71-4.23c0-3.84 1.84-6.47 5.06-6.47S21 16.78 21 20.62s-1.85 6.47-5.07 6.47-5.08-2.63-5.08-6.47Zm7.28 0c0-2.4-.73-3.7-2.22-3.7s-2.22 1.3-2.22 3.7.73 3.7 2.22 3.7 2.22-1.32 2.22-3.7Zm13.51 4.23H30.4v2h-2.88v-2h-5.66v-2.63l4-7.82h3.05l-4 7.82h2.6v-2.67h2.89v2.67h1.24Z"/></svg>