<svg xmlns="http://www.w3.org/2000/svg" xmlns:xlink="http://www.w3.org/1999/xlink" viewBox="0 0 786 831"><defs><clipPath id="a"><rect width="786" height="831" fill="none"/></clipPath></defs><title>bigbrun-xl</title><rect width="786" height="831" fill="none"/><g clip-path="url(#a)"><path d="M461.679,11.1c67.311,5.428,137.516,6.152,194.694,42.34,56.454,35.465,83.595,99.88,119.421,155.972,37.636,58.625,106.032,112.184,96.261,180.942-10.132,70.567-104.946,93.728-144.391,153.077-36.188,54.283-29.675,129.916-74.91,177.323-50.664,53.2-118.7,89.747-191.075,102.051-78.166,13.028-165.019,10.857-231.967-31.846-65.863-42.34-84.681-127.745-123.4-195.779C67.226,527.143.64,468.156,1,390.351c.362-78.167,64.416-138.6,107.842-203.378,40.893-61.521,72.738-134.259,138.6-167.191C312.583-12.425,389.3,5.307,461.679,11.1Z" fill="none" stroke="#000" stroke-width="0.567"/><path d="M374.1,341.859c5.791.362,11.943.362,17.009,3.619s7.238,8.685,10.5,13.751,9.409,9.771,8.323,15.923c-.724,6.152-9.047,8.324-12.666,13.39-3.257,4.7-2.533,11.218-6.514,15.561A30.356,30.356,0,0,1,374.1,413.15c-6.875,1.086-14.475,1.086-20.265-2.895-5.79-3.619-7.238-11.218-10.857-17.009-3.257-5.79-9.047-11.218-9.047-17.732,0-6.876,5.79-11.942,9.409-17.732,3.619-5.428,6.514-11.581,11.942-14.476C361.076,340.049,367.951,341.5,374.1,341.859Z" fill="none" stroke="#fff000" stroke-width="2"/><path d="M631.4,81.3C579.291,48.371,514.876,47.647,453.356,42.581c-66.225-5.428-136.068-21.713-195.417,7.961C197.5,80.579,168.553,147.165,131.279,202.9,91.834,262.244,33.209,317.613,32.847,388.9s60.8,125.211,95.9,187.094c35.465,62.244,52.473,140.049,112.908,178.77,61.158,39.084,140.049,40.893,211.7,28.951,66.225-10.857,128.469-44.512,174.428-93,41.255-43.064,35.464-112.184,68.4-161.762C732.368,474.67,818.858,453.319,827.906,388.9c9.047-62.968-53.559-111.822-87.938-165.381C707.4,172.5,682.79,113.51,631.4,81.3Z" fill="none" stroke="#fff000" stroke-width="2"/><path d="M618.737,95.054C569.159,63.57,508,63.208,449.375,58.5c-62.967-5.428-129.916-20.628-186.37,7.6C205.828,94.692,177.963,158.022,142.5,211.219c-37.636,56.454-93.366,108.927-94.09,176.961-.361,68.034,57.9,119.06,91.557,178.047,34.017,59.349,49.94,133.535,107.841,170.085,58.264,37.274,133.535,38.722,201.569,27.5,62.968-10.494,122.317-42.34,166.105-88.661C654.564,633.9,649.135,568.4,680.619,520.991,715,469.242,797.508,448.976,806.193,387.818c8.685-59.711-51.026-106.394-83.6-157.419C691.114,181.906,667.591,126.176,618.737,95.054Z" fill="none" stroke="#5a5655" stroke-width="0.567"/><path d="M606.071,109.168c-47.045-29.675-105.308-30.4-161.038-34.741-59.711-5.067-123.041-19.542-176.961,7.237-54.645,27.142-81.062,87.214-114.718,137.878C117.89,273.1,64.693,323.041,64.331,387.456s55.006,113.27,86.852,169.362C183.391,613.272,198.952,683.477,253.6,718.58c55.368,35.464,127.021,36.912,191.437,26.055,60.072-9.77,116.164-40.169,158.143-84.319,37.274-39.083,31.846-101.689,61.882-146.562,32.569-49.217,110.736-68.4,119.422-126.66,8.323-56.815-48.493-101.327-79.615-149.458C674.829,191.315,652.754,138.48,606.071,109.168Z" fill="none" stroke="#5a5655" stroke-width="0.567"/><path d="M593.405,122.919c-44.873-28.227-99.88-28.589-152.353-32.931-56.816-4.7-116.888-18.456-167.552,6.876-51.749,25.693-77.081,82.509-108.927,130.64-34.017,51.025-83.957,98.07-84.319,159.228s52.111,107.48,82.148,160.315c30.4,53.559,45.235,120.145,96.984,153.077,52.112,33.293,120.146,35.1,181.3,24.97,56.816-9.409,110.013-38,149.82-79.615,35.1-36.912,30.4-96.261,58.625-138.6C679.9,460.2,754.081,442.1,762.043,387.094c7.6-53.92-45.959-95.9-75.272-141.5C658.906,201.086,637.555,150.784,593.405,122.919Z" fill="none" stroke="#5a5655" stroke-width="0.567"/><path d="M580.739,137.033c-42.341-26.78-94.09-27.142-144.03-31.122-53.559-4.343-110.374-17.371-158.5,6.513-48.854,24.247-72.377,78.167-102.413,123.4-31.846,48.13-79.253,92.642-79.614,150.182s49.216,101.327,77.8,151.629c28.95,50.3,42.7,113.269,91.556,144.753,49.216,31.484,113.632,32.932,171.171,23.523a255.957,255.957,0,0,0,141.5-75.272c33.293-35.1,28.589-90.833,55.368-131,29.312-44.15,99.156-61.158,106.756-113.27,7.237-50.663-43.426-90.471-71.291-133.9C642.621,210.5,622.355,163.088,580.739,137.033Z" fill="none" stroke="#5a5655" stroke-width="0.567"/><path d="M568.073,150.784c-39.807-24.97-88.661-25.694-135.706-29.312-50.3-3.981-103.861-16.285-149.1,6.152-45.959,22.8-68.034,73.462-96.623,116.164-30.036,45.236-74.548,87.214-74.91,141.5s46.321,95.537,73.1,142.582c27.142,47.407,40.17,106.756,86.129,136.068,46.321,29.675,106.755,31.122,161.4,22.075,50.3-8.323,97.708-34.017,133.173-70.929,31.484-32.932,26.779-85.4,52.111-123.4,27.5-41.255,93.366-57.54,100.6-106.756,6.876-47.769-40.893-85.043-66.949-125.936C626.336,220.266,607.519,175.392,568.073,150.784Z" fill="none" stroke="#5a5655" stroke-width="0.567"/><path d="M555.407,164.9c-37.274-23.522-83.233-23.884-127.021-27.5-47.407-3.981-97.347-15.561-139.687,5.79-43.064,21.351-64.054,68.758-90.471,108.927C170,294.09,128.023,333.535,127.661,384.561c0,50.663,43.426,89.385,68.758,133.535,25.331,44.511,37.635,100.242,80.7,127.745,43.426,27.865,100.241,29.312,151.267,20.627,47.407-7.961,91.557-31.846,124.85-66.587,29.312-30.76,25.332-80.338,48.854-115.8,25.694-38.722,87.576-53.921,94.09-99.88,6.514-44.874-38.36-79.976-62.606-117.974C610.052,229.674,592.319,188.058,555.407,164.9Z" fill="none" stroke="#5a5655" stroke-width="0.567"/><path d="M542.741,178.649c-34.74-22.075-77.443-22.436-118.7-25.693-44.15-3.619-90.833-14.476-130.279,5.428-40.169,19.9-59.71,64.053-84.318,101.689-26.418,39.445-65.5,76.358-65.5,123.764-.362,47.407,40.531,83.6,64.053,124.85,23.884,41.617,35.1,93.366,75.272,119.06,40.531,26.056,93.366,27.141,141.134,19.18,44.15-7.238,85.405-29.675,116.527-61.882,27.5-28.951,23.522-74.91,45.6-107.842,23.885-36.188,81.786-50.3,87.938-93.366,6.152-41.978-35.826-74.548-58.625-110.374C593.767,239.446,577.12,200.362,542.741,178.649Z" fill="none" stroke="#5a5655" stroke-width="0.567"/><path d="M530.075,192.4c-32.207-20.266-72.015-20.627-110.012-23.884-40.893-3.257-84.319-13.39-121.231,5.066-37.274,18.456-55.369,59.711-78.167,94.452-24.608,36.912-60.8,70.929-61.159,115.079s37.636,77.443,59.349,115.8c22.075,38.722,32.57,86.852,69.844,110.737,37.636,24.246,86.852,25.332,131,18.094a195.8,195.8,0,0,0,108.2-57.54c25.332-26.779,21.713-69.481,42.34-100.241,22.437-33.655,76-46.683,81.786-86.491,5.428-38.721-33.293-69.119-54.282-102.413C577.482,248.855,561.921,212.666,530.075,192.4Z" fill="none" stroke="#5a5655" stroke-width="0.567"/><path d="M517.409,206.514C487.735,187.7,450.823,187.335,415.72,184.44c-37.636-3.257-77.805-12.3-111.822,4.7-34.379,17.009-51.026,55.006-72.377,87.214-22.437,34.017-56.092,65.5-56.454,106.032-.361,40.893,34.741,71.653,55.007,107.118s30.036,79.976,64.777,102.051c34.741,22.436,79.976,23.16,120.869,16.646,38-6.152,73.462-25.331,99.88-53.2,23.522-24.608,20.265-64.053,39.083-92.642,20.628-31.122,70.206-43.064,75.272-79.976,5.067-35.827-30.76-64.053-50.3-94.452C561.2,258.626,547.084,224.971,517.409,206.514Z" fill="none" stroke="#5a5655" stroke-width="0.567"/><path d="M504.743,220.265c-27.5-17.37-60.8-17.732-93.366-20.265-34.74-2.9-71.291-11.218-102.413,4.343-31.484,15.561-47.045,50.663-66.224,79.976-20.628,31.122-51.388,60.073-51.75,97.347s31.846,65.5,50.3,98.07c18.818,32.57,27.5,73.462,59.349,93.728s73.462,21.351,110.736,15.2a163.763,163.763,0,0,0,91.557-48.854c21.713-22.437,18.456-58.625,35.826-84.681,18.818-28.589,64.054-39.445,69.12-73.462,4.705-32.932-27.865-58.626-45.959-86.853C544.912,268.034,531.885,237.274,504.743,220.265Z" fill="none" stroke="#5a5655" stroke-width="0.567"/><path d="M492.44,234.379c-24.97-15.561-55.369-15.923-84.681-18.456-31.484-2.533-64.777-10.133-93,3.981-28.589,14.113-42.7,45.959-60.435,72.738-19.18,27.866-47.045,54.283-47.045,88.3-.362,34.017,28.951,59.711,45.6,89.024,17.008,29.674,24.97,66.586,53.92,85.042s66.949,19.542,100.966,13.752c31.484-5.067,61.158-21.351,83.233-44.15,19.542-20.627,16.647-53.559,32.57-77.081,17.008-26.056,58.263-35.827,62.967-66.587,4.343-30.036-25.693-53.2-41.978-78.891C528.628,277.805,516.686,249.94,492.44,234.379Z" fill="none" stroke="#5a5655" stroke-width="0.567"/><path d="M479.774,248.131c-22.437-14.114-49.94-14.476-76.358-16.647-28.227-2.171-58.263-9.409-83.957,3.619s-38.359,41.255-54.282,65.5c-17.009,25.332-41.979,49.216-42.341,79.614s26.056,53.559,41.255,80.338,22.437,60.073,48.492,76.72,60.073,17.37,90.833,12.3c28.227-4.705,55.007-19.18,74.91-39.807,17.732-18.457,15.2-48.131,29.313-69.482,15.561-23.161,52.473-32.208,56.454-60.073,3.98-26.779-23.161-47.769-37.636-70.929C512.343,287.214,501.487,262.244,479.774,248.131Z" fill="none" stroke="#5a5655" stroke-width="0.567"/><path d="M467.108,262.244c-19.9-12.666-44.512-12.666-67.672-14.837-25.332-2.171-51.75-8.323-74.549,2.895-23.16,11.58-34.378,36.912-48.492,58.263-15.2,22.8-37.274,43.788-37.636,70.929,0,27.142,23.161,47.769,36.55,71.291,13.39,23.885,19.9,53.559,43.065,68.035,23.16,14.837,53.558,15.561,80.7,10.856a121.358,121.358,0,0,0,66.586-35.464c15.561-16.285,13.39-42.7,26.056-61.883,13.751-20.627,46.683-28.588,50.3-53.2,3.619-23.885-20.266-42.7-33.655-62.968C496.058,296.985,486.65,274.548,467.108,262.244Z" fill="none" stroke="#5a5655" stroke-width="0.567"/><path d="M454.441,276c-17.37-10.857-38.721-11.219-59.348-13.028-22.075-1.809-45.236-7.238-65.14,2.533-19.9,10.133-29.674,32.208-42.34,51.026-13.028,19.9-32.569,38.359-32.931,61.882,0,23.884,20.265,41.617,31.845,62.606,11.943,20.627,17.371,46.683,37.636,59.711s46.683,13.751,70.568,9.77a104.789,104.789,0,0,0,58.263-31.122c13.751-14.475,11.942-37.274,22.8-53.92,11.942-18.094,40.892-25.332,43.788-46.683,2.895-20.989-17.733-37.274-29.313-55.007C479.773,306.394,471.45,286.852,454.441,276Z" fill="none" stroke="#5a5655" stroke-width="0.567"/><path d="M441.776,290.109c-14.837-9.409-33.294-9.77-51.026-10.856-18.818-1.448-39.083-6.152-56.092,2.171-17.37,8.685-25.694,27.5-36.188,43.426-11.219,17.009-27.865,32.57-28.227,53.2,0,20.266,17.37,35.827,27.5,53.559s15.2,40.169,32.208,51.025c17.37,11.219,40.169,11.581,60.434,8.324a90.489,90.489,0,0,0,49.94-26.78c11.581-12.3,10.133-32.207,19.542-46.321,10.133-15.561,35.1-21.713,37.636-40.169,2.533-18.094-15.2-31.846-24.97-47.407C463.489,316.165,456.251,299.156,441.776,290.109Z" fill="none" stroke="#5a5655" stroke-width="0.567"/><path d="M429.11,303.861c-12.3-7.962-27.865-7.962-42.341-9.047-15.923-1.448-32.569-5.067-46.683,1.809-14.475,7.238-21.351,23.161-30.036,36.188-9.409,14.114-23.522,27.142-23.522,44.15s14.475,29.675,22.8,44.512,12.666,33.293,26.78,42.7c14.475,9.409,33.293,9.771,50.3,6.876a73.3,73.3,0,0,0,41.617-22.075c9.771-10.133,8.323-26.779,16.285-38.721,8.685-13.028,29.312-18.095,31.484-33.294,2.171-14.837-12.666-26.779-20.99-39.445C447.2,325.574,441.414,311.822,429.11,303.861Z" fill="none" stroke="#5a5655" stroke-width="0.567"/><path d="M416.444,317.974c-10.133-6.152-22.075-6.514-34.017-7.238-12.666-1.085-26.056-3.98-37.274,1.448-11.58,5.79-17.008,18.456-24.246,28.951-7.6,11.218-18.818,21.713-18.818,35.464s11.58,23.884,18.456,35.827,10.133,26.779,21.713,34.017c11.58,7.6,26.779,7.961,40.531,5.428a58.969,58.969,0,0,0,33.293-17.732c7.962-8.324,6.876-21.351,13.028-30.76,6.876-10.5,23.522-14.476,24.97-26.78,1.809-11.942-10.133-21.351-16.647-31.484C430.919,335.344,426.215,324.126,416.444,317.974Z" fill="none" stroke="#5a5655" stroke-width="0.567"/><path d="M403.778,331.726c-7.6-4.7-16.647-4.7-25.332-5.429-9.409-.723-19.541-3.257-27.865,1.086-8.685,4.343-12.666,13.752-18.094,21.713-5.79,8.323-14.113,16.285-14.113,26.78,0,10.132,8.685,18.094,13.751,26.779,5.066,9.047,7.6,19.9,16.285,25.694,8.685,5.428,19.9,5.79,30.4,3.98a44.651,44.651,0,0,0,24.97-13.389c5.79-6.152,5.066-15.923,9.771-23.161,5.066-7.6,17.37-10.856,18.818-19.9s-7.6-15.923-12.666-23.523S411.016,336.43,403.778,331.726Z" fill="none" stroke="#5a5655" stroke-width="0.567"/></g></svg>