<svg xmlns="http://www.w3.org/2000/svg" viewBox="0 0 210 210"><title>brun3-d</title><path d="M47.272,27.192c13.156-8.88,26.115-19.047,42.17-20.8,15.811-1.784,30.731,6.038,45.954,11.061,15.946,5.222,36.737,5,45.574,19.035,9.049,14.418-4.722,32.571-2.77,49.233,1.765,15.256,14.644,28.16,13.691,43.483a78.343,78.343,0,0,1-19.2,46.732c-12.291,13.854-28.52,26.2-47.369,28.194-18.595,1.9-35.235-10.985-52.834-17.772-17.664-6.733-38.964-7.774-50.92-22.084C9.559,149.894,11.942,129.423,9.88,111.182,7.857,93.91,2.445,75.909,9.41,60.212,16.353,44.754,33.132,36.749,47.272,27.192Z" fill="none" stroke="#fff" stroke-width="1.015"/><path d="M82.308,100.905a8.029,8.029,0,0,1,3.671-1.832c1.431-.147,2.667.529,4.045.98s3.232.41,3.984,1.7c.818,1.233-.37,2.852-.249,4.311.131,1.34,1.27,2.428,1.212,3.807a6.857,6.857,0,0,1-1.648,4.1,6.507,6.507,0,0,1-4.156,2.443c-1.618.186-3.057-.994-4.614-1.524-1.491-.584-3.389-.729-4.4-1.923-1.062-1.259-.785-3.037-1.018-4.629-.176-1.526-.6-3.078-.051-4.4C79.644,102.484,81.126,101.741,82.308,100.905Z" fill="none" stroke="#fff" stroke-width="1.015"/><path d="M89.313,10.725C74,12.442,61.572,22.184,49,30.705c-13.609,9.132-29.614,16.74-36.2,31.574-6.658,15.007-1.55,32.251.356,48.728,2,17.511-.3,37.027,11.21,50.807C35.824,175.527,56.2,176.529,73.088,183s32.769,18.853,50.62,16.99c18.04-1.9,33.485-13.729,45.292-26.974a74.45,74.45,0,0,0,18.4-44.648c.891-14.607-11.419-26.967-13.113-41.612-1.892-15.933,11.319-33.3,2.65-47.137-8.455-13.45-28.381-13.257-43.549-18.213C118.644,16.552,104.436,9.048,89.313,10.725Z" fill="#e7e4df"/><path d="M89.174,15.183C74.549,16.793,62.65,26.111,50.609,34.207,37.651,42.928,22.354,50.19,16.079,64.334c-6.418,14.37-1.427,30.819.363,46.5,1.952,16.662-.221,35.409,10.729,48.525s30.473,14.026,46.458,20.216c16.108,6.2,31.242,17.965,48.285,16.194,17.23-1.81,31.947-13.052,43.213-25.752a70.7,70.7,0,0,0,17.549-42.631c.9-13.943-10.844-25.76-12.479-39.676-1.765-15.256,10.763-31.856,2.465-44.987-8.074-12.866-27.079-12.634-41.646-17.4C117.172,20.745,103.554,13.546,89.174,15.183Z" fill="none" stroke="#fff" stroke-width="1.015"/><path d="M88.979,19.572c-13.937,1.5-25.185,10.41-36.64,18.149C39.977,45.964,25.377,53,19.408,66.454c-6.046,13.627-1.359,29.32.371,44.271,1.836,15.866-.255,33.658,10.125,46.231C40.351,169.476,58.9,170.279,74.17,176.15c15.4,5.886,29.773,17.144,46.016,15.347,16.422-1.717,30.42-12.494,41.136-24.531a67.475,67.475,0,0,0,16.7-40.615c.777-13.293-10.337-24.5-11.9-37.806-1.7-14.526,10.263-30.344,2.4-42.825C160.883,33.5,142.743,33.709,128.9,29.137,115.644,24.87,102.728,18.108,88.979,19.572Z" fill="none" stroke="#fff" stroke-width="1.015"/><path d="M88.839,24.028C75.645,25.491,64.871,33.906,54,41.286c-11.71,7.832-25.535,14.47-31.265,27.287-5.806,12.991-1.358,27.874.312,42.1,1.786,15.018-.232,31.973,9.655,43.83s27.568,12.687,42.063,18.293c14.617,5.62,28.313,16.2,43.736,14.618,15.612-1.624,28.948-11.87,39.059-23.31a63.96,63.96,0,0,0,15.91-38.651c.782-12.63-9.885-23.306-11.322-35.935-1.645-13.8,9.7-28.779,2.282-40.73-7.256-11.632-24.531-11.454-37.663-15.708C114.115,28.994,101.912,22.55,88.839,24.028Z" fill="none" stroke="#fff" stroke-width="1.015"/><path d="M88.644,28.419c-12.573,1.411-22.7,9.414-32.968,16.316C44.552,52.208,31.434,58.5,26.077,70.576c-5.5,12.3-1.356,26.427.253,39.919,1.66,14.34-.21,30.287,9.174,41.547s26.143,12.051,39.8,17.326c13.838,5.355,26.842,15.38,41.4,13.823,14.68-1.544,27.41-11.194,37.036-22.023A61.106,61.106,0,0,0,168.859,124.6c.72-11.913-9.311-22.1-10.688-34-1.584-13.067,9.2-27.266,2.153-38.514C153.383,41.093,137.1,41.257,124.686,37.2,112.709,33.134,101.029,27.048,88.644,28.419Z" fill="none" stroke="#fff" stroke-width="1.015"/><path d="M88.505,32.874C76.619,34.179,67.093,41.7,57.339,48.3c-10.472,7.062-22.882,13.009-28,24.447-5.194,11.61-1.167,24.942.327,37.637,1.609,13.492-.188,28.6,8.636,39.2s24.664,11.348,37.668,16.371c13.07,4.971,25.316,14.492,39.121,13.094,13.871-1.451,25.883-10.636,34.958-20.8A57.872,57.872,0,0,0,164.313,123.7c.668-11.317-8.8-20.839-10.11-32.128-1.458-12.391,8.695-25.754,2.033-36.418-6.5-10.346-21.926-10.208-33.735-14.077C111.18,37.258,100.147,31.544,88.505,32.874Z" fill="none" stroke="#fff" stroke-width="1.015"/><path d="M88.31,37.265c-11.143,1.264-20.2,8.3-29.364,14.537-9.82,6.65-21.522,12.253-26.333,23-4.887,10.92-1.1,23.442.268,35.462,1.493,12.695-.166,26.918,8.155,36.918s23.239,10.711,35.409,15.4c12.292,4.706,23.847,13.67,36.786,12.3,13.062-1.358,24.345-9.958,32.947-19.633a54.638,54.638,0,0,0,13.41-32.534c.673-10.654-8.3-19.579-9.531-30.258-1.342-11.595,8.194-24.241,1.914-34.322-6.123-9.762-20.624-9.585-31.711-13.256C109.708,41.45,99.33,35.988,88.31,37.265Z" fill="none" stroke="#fff" stroke-width="1.015"/><path d="M88.171,41.722c-10.456,1.158-18.922,7.834-27.5,13.594-9.29,6.226-20.218,11.43-24.667,21.554-4.582,10.23-1.1,22,.275,33.233,1.321,11.833-.265,25.22,7.553,34.623,7.828,9.284,21.758,10.009,33.216,14.383,11.513,4.44,22.376,12.847,34.506,11.57,12.253-1.265,22.874-9.335,30.869-18.412a51.131,51.131,0,0,0,12.558-30.518c.611-9.937-7.778-18.438-8.953-28.387-1.282-10.865,7.694-22.729,1.784-32.106-5.741-9.179-19.377-9.028-29.685-12.434C108.18,45.575,98.5,40.551,88.171,41.722Z" fill="none" stroke="#fff" stroke-width="1.015"/><path d="M87.976,46.112c-9.768,1.051-17.639,7.249-25.691,12.7-8.639,5.814-18.859,10.673-23,20.107-4.275,9.54-1.029,20.5.283,31,1.261,11.1-.188,23.6,7.137,32.288,7.259,8.74,20.334,9.373,31.013,13.481,10.8,4.123,20.851,11.96,32.172,10.775,11.443-1.171,21.279-8.724,28.79-17.19a47.774,47.774,0,0,0,11.762-28.435c.56-9.34-7.27-17.177-8.319-26.45-1.221-10.136,7.194-21.216,1.665-30.01-5.36-8.595-18.075-8.405-27.783-11.625C106.708,49.767,97.622,45.047,87.976,46.112Z" fill="none" stroke="#fff" stroke-width="1.015"/><path d="M87.78,50.5c-9.025,1.011-16.365,6.785-23.822,11.762-7.986,5.4-17.5,9.917-21.4,18.714-3.969,8.85-.9,19.064.291,28.775,1.2,10.374-.166,21.916,6.59,30.059s18.853,8.67,28.754,12.514c10.022,3.857,19.38,11.137,29.891,10.045,10.634-1.078,19.808-8.1,26.769-15.9a44.275,44.275,0,0,0,10.91-26.418c.5-8.623-6.763-15.917-7.741-24.58-1.095-9.459,6.693-19.7,1.6-27.847-4.99-7.892-16.773-7.781-25.758-10.8C105.179,53.893,96.739,49.545,87.78,50.5Z" fill="none" stroke="#fff" stroke-width="1.015"/><path d="M87.641,54.96c-8.338.905-15.149,6.253-22.02,10.873-7.39,4.924-16.139,9.159-19.736,17.266-3.663,8.161-.838,17.566.232,26.6,1.15,9.525-.144,20.231,6.053,27.712,6.252,7.546,17.429,8.033,26.617,11.559s17.854,10.249,27.623,9.2c9.824-.985,18.214-7.489,24.69-14.681a40.268,40.268,0,0,0,10.058-24.4c.5-7.96-6.189-14.711-7.163-22.71-1.034-8.729,6.193-18.191,1.417-25.7-4.609-7.308-15.526-7.225-23.8-9.928C103.706,58.085,95.923,53.988,87.641,54.96Z" fill="none" stroke="#fff" stroke-width="1.015"/><path d="M87.446,59.35c-7.717.852-13.866,5.67-20.217,9.983-6.8,4.567-14.779,8.4-18.07,15.82-3.357,7.471-.781,16.186.239,24.371,1.034,8.729-.122,18.547,5.572,25.43s15.948,7.331,24.358,10.591c8.476,3.208,16.384,9.427,25.343,8.469s16.743-6.865,22.613-13.46a37.031,37.031,0,0,0,9.206-22.384c.506-7.3-5.682-13.45-6.529-20.773-.974-8,5.626-16.625,1.3-23.6-4.227-6.724-14.157-6.655-21.83-9.173C102.178,62.21,95.041,58.485,87.446,59.35Z" fill="none" stroke="#fff" stroke-width="1.015"/><path d="M87.374,63.751c-6.974.812-12.593,5.205-18.348,9.041-6.153,4.155-13.42,7.647-16.4,14.374-3.051,6.78-.713,14.687.18,22.2.8,7.92-.221,16.849,5.035,23.083,5.19,6.286,14.525,6.694,22.1,9.624,7.7,2.942,14.859,8.538,23.008,7.673s15.271-6.241,20.6-12.292a34.183,34.183,0,0,0,8.409-20.3c.389-6.647-5.23-12.257-5.95-18.9-.914-7.27,5.126-15.113,1.234-21.44-3.847-6.141-12.922-5.979-19.872-8.3C100.706,66.4,94.215,63.046,87.374,63.751Z" fill="none" stroke="#fff" stroke-width="1.015"/><path d="M87.178,68.143c-6.287.7-11.376,4.674-16.545,8.152-5.5,3.743-12.116,6.823-14.8,12.979s-.645,13.188.188,19.966c.8,7.138-.077,15.177,4.553,20.8s13.044,5.992,19.963,8.669,13.389,7.717,20.729,6.945,13.677-5.63,18.523-11.071a30.949,30.949,0,0,0,7.557-18.284c.393-5.983-4.656-11.049-5.372-17.032-.731-6.527,4.626-13.6,1.049-19.29-3.41-5.491-11.62-5.356-17.847-7.476C99.177,70.527,93.332,67.544,87.178,68.143Z" fill="none" stroke="#fff" stroke-width="1.015"/><path d="M87.039,72.6c-5.6.6-10.1,4.209-14.677,7.209-4.971,3.318-10.756,6.066-13.194,11.467-2.449,5.519-.588,11.807.129,17.79.741,6.408-.055,13.492,4.072,18.519,4.194,4.973,11.62,5.356,17.7,7.7,6.14,2.412,11.918,6.894,18.393,6.149,6.53-.679,12.2-5.006,16.445-9.85a27.44,27.44,0,0,0,6.7-16.267c.331-5.267-4.148-9.789-4.794-15.162-.671-5.8,4.125-12.087.985-17.127-3.028-4.908-10.307-4.852-15.888-6.6C97.705,74.719,92.516,71.988,87.039,72.6Z" fill="none" stroke="#fff" stroke-width="1.015"/><path d="M86.844,76.991c-4.857.559-8.82,3.625-12.874,6.319-4.319,2.907-9.4,5.31-11.528,10.02-2.077,4.777-.454,10.255.136,15.561.691,5.559-.033,11.807,3.535,16.171,3.691,4.376,10.139,4.653,15.5,6.8,5.373,2.028,10.392,6.006,16.114,5.42s10.667-4.328,14.423-8.561A23.7,23.7,0,0,0,118,114.471c.279-4.67-3.574-8.583-4.16-13.225-.61-5.068,3.569-10.641.8-14.978-2.714-4.271-9.005-4.229-13.864-5.78C96.176,78.845,91.633,76.485,86.844,76.991Z" fill="none" stroke="#fff" stroke-width="1.015"/><path d="M86.7,81.447c-4.169.452-7.6,3.093-11.015,5.5-3.667,2.5-8.1,4.606-9.929,8.627-1.836,4.139-.452,8.809.088,13.266.575,4.763-.067,10.056,3.054,13.889,3.132,3.714,8.715,4.017,13.309,5.78s8.988,5.131,13.778,4.625c4.913-.493,9.141-3.771,12.346-7.341a20.466,20.466,0,0,0,5-12.233c.218-3.954-3.123-7.389-3.582-11.355-.55-4.338,3.069-9.129.681-12.882-2.333-3.688-7.7-3.606-11.895-5.024C94.7,83.036,90.75,80.981,86.7,81.447Z" fill="none" stroke="#fff" stroke-width="1.015"/><path d="M86.509,85.837c-3.482.346-6.329,2.629-9.146,4.553-3.137,2.071-6.743,3.85-8.263,7.18-1.531,3.45-.328,7.377.095,11.038.459,3.967-.11,8.424,2.518,11.541s7.234,3.314,11.05,4.812,7.462,4.243,11.5,3.9c4.1-.4,7.6-3.093,10.268-6.119a16.576,16.576,0,0,0,4.2-10.151c.223-3.29-2.614-6.128-3-9.484-.423-3.661,2.568-7.616.617-10.72-1.895-3.037-6.455-3.049-9.936-4.149C93.175,87.161,89.991,85.49,86.509,85.837Z" fill="none" stroke="#fff" stroke-width="1.015"/><path d="M86.369,90.292c-2.805.359-5.046,2.045-7.343,3.664-2.486,1.659-5.383,3.093-6.6,5.734-1.224,2.76-.26,5.877.037,8.862.343,3.171-.089,6.74,2.036,9.259s5.81,2.678,8.913,3.858,5.993,3.421,9.23,3.048c3.294-.306,6.131-2.47,8.256-4.951a13.342,13.342,0,0,0,3.353-8.134c.17-2.693-2.041-4.921-2.369-7.548-.364-2.932,2.068-6.1.431-8.57-1.514-2.454-5.153-2.426-7.911-3.328C91.7,91.351,89.108,89.986,86.369,90.292Z" fill="none" stroke="#fff" stroke-width="1.015"/><path d="M86.175,94.682c-2.117.253-3.773,1.58-5.474,2.722-1.834,1.247-4.079,2.27-4.932,4.286-.918,2.07-.193,4.378.044,6.634.227,2.374-.066,5.054,1.555,6.977,1.566,1.857,4.386,2.042,6.655,2.89,2.325.915,4.466,2.533,6.95,2.319a10.995,10.995,0,0,0,8.678-9.846c.109-1.977-1.533-3.661-1.79-5.678-.247-2.136,1.5-4.538.368-6.408s-3.851-1.8-5.953-2.452S88.227,94.482,86.175,94.682Z" fill="none" stroke="#fff" stroke-width="1.015"/></svg>