<svg xmlns="http://www.w3.org/2000/svg" viewBox="0 0 186.937 199.146"><path fill="#fff" d="M115.963 199.145c-11.856 0-23.062-5.545-33.934-10.925-5-2.473-10.164-5.03-15.323-7.014-5.22-1.985-10.858-3.5-16.31-4.958-12.93-3.465-26.3-7.048-34.793-17.221-9.264-11.094-10.04-25.867-10.79-40.155-.229-4.367-.466-8.883-.947-13.184-.427-3.686-1.02-7.477-1.593-11.143C.15 80.972-2.046 66.937 3.505 54.462c5.7-12.657 17.954-20.41 29.804-27.91 2.75-1.74 5.592-3.539 8.285-5.36 1.565-1.056 3.127-2.131 4.692-3.208C57.821 10.052 69.749 1.84 84.029.264c12.35-1.405 24.305 3.047 35.864 7.352 3.37 1.254 6.856 2.552 10.294 3.684a140.438 140.438 0 0 0 14.014 3.488c12.454 2.658 25.332 5.406 31.811 15.709 5.423 8.652 2.867 18.35.159 28.618-1.822 6.907-3.706 14.049-2.92 20.824s3.828 13.2 6.78 19.411c3.639 7.659 7.4 15.578 6.857 24.144a78.875 78.875 0 0 1-19.387 47.049c-10.431 11.748-27.178 26.212-47.74 28.409a36.994 36.994 0 0 1-3.798.193Zm-73.8-177.112c-2.705 1.829-5.555 3.632-8.31 5.376C22.129 34.828 10.005 42.5 4.429 54.876c-5.428 12.2-3.256 26.085-1.156 39.512.576 3.676 1.17 7.477 1.6 11.185.484 4.333.722 8.864.952 13.246.741 14.121 1.507 28.724 10.555 39.558 8.288 9.926 20.911 13.309 34.276 16.891a171.148 171.148 0 0 1 16.41 4.99c5.205 2 10.393 4.569 15.411 7.052 11.9 5.886 24.194 11.977 37.173 10.632 20.236-2.162 36.774-16.459 47.085-28.072a77.855 77.855 0 0 0 19.135-46.44c.527-8.3-3.013-15.755-6.761-23.644-2.988-6.289-6.078-12.791-6.872-19.731-.807-6.965 1.1-14.2 2.946-21.2 2.65-10.049 5.153-19.541-.036-27.819-6.251-9.941-18.916-12.643-31.164-15.256a141.541 141.541 0 0 1-14.117-3.517c-3.459-1.138-6.953-2.439-10.332-3.7-11.45-4.263-23.288-8.67-35.4-7.294-14.024 1.549-25.845 9.682-37.277 17.548-1.568 1.078-3.132 2.155-4.7 3.213Z"/><path fill="#fff" d="M83.301 111.289a6.916 6.916 0 0 1-2.972-.937 12.55 12.55 0 0 0-1.442-.633c-.443-.172-.9-.3-1.383-.435a6.135 6.135 0 0 1-3.235-1.636 5.7 5.7 0 0 1-1.018-3.587c-.024-.435-.047-.872-.108-1.3-.037-.321-.083-.629-.127-.936a7.006 7.006 0 0 1 .114-3.733 6.407 6.407 0 0 1 2.749-2.808c.222-.147.442-.293.652-.441l.344-.244a7.524 7.524 0 0 1 3.571-1.683 7.219 7.219 0 0 1 3.312.662c.309.116.621.232.941.337a11.073 11.073 0 0 0 1.156.281c1.148.24 2.449.51 3.107 1.639a3.475 3.475 0 0 1 .071 2.906 5.007 5.007 0 0 0-.258 1.619 4.8 4.8 0 0 0 .551 1.554 4.771 4.771 0 0 1 .658 2.313 7.364 7.364 0 0 1-1.778 4.413 6.861 6.861 0 0 1-4.506 2.619 3.4 3.4 0 0 1-.399.03Zm-6.182-15.612c-.218.155-.447.306-.678.459a5.572 5.572 0 0 0-2.367 2.339 6.2 6.2 0 0 0-.053 3.208c.047.318.094.637.13.955.063.437.09.9.115 1.371a4.884 4.884 0 0 0 .781 2.987 5.335 5.335 0 0 0 2.733 1.313c.486.136.989.277 1.457.459a13.527 13.527 0 0 1 1.539.674 5.277 5.277 0 0 0 2.83.814 5.926 5.926 0 0 0 3.843-2.283 6.324 6.324 0 0 0 1.523-3.785 3.955 3.955 0 0 0-.557-1.827 5.605 5.605 0 0 1-.649-1.9 5.839 5.839 0 0 1 .288-1.969c.222-.837.414-1.56.049-2.111-.446-.762-1.42-.965-2.452-1.18a12.333 12.333 0 0 1-1.264-.31 24.22 24.22 0 0 1-.983-.352 6.29 6.29 0 0 0-2.852-.6 6.752 6.752 0 0 0-3.086 1.5Z"/><path fill="#e7e4df" d="M83.947 5.103c-15.316 1.733-27.76 11.486-40.343 20.02-13.623 9.145-29.64 16.768-36.242 31.607-6.679 15.012-1.594 32.249.29 48.722 1.979 17.507-.348 37.023 11.144 50.789 11.436 13.7 31.815 14.681 48.694 21.131s32.747 18.818 50.6 16.936c18.045-1.922 33.507-13.762 45.333-27.017a74.611 74.611 0 0 0 18.462-44.662c.911-14.606-11.383-26.952-13.059-41.594-1.87-15.929 11.365-33.311 2.714-47.134-8.438-13.439-28.367-13.226-43.529-18.167C113.273 10.9 99.074 3.411 83.947 5.103Z"/><path fill="#fff" d="M112.819 190.779c-10.847 0-21.058-5.053-30.967-9.954-4.562-2.257-9.279-4.591-14-6.4a150.3 150.3 0 0 0-14.981-4.591c-11.755-3.163-23.912-6.434-31.663-15.724-8.418-10.09-9.155-23.548-9.868-36.561-.221-4.047-.45-8.232-.912-12.213-.384-3.4-.929-6.9-1.455-10.288-1.919-12.333-3.9-25.086 1.2-36.472 5.163-11.614 16.379-18.686 27.226-25.524 2.5-1.574 5.077-3.2 7.525-4.85 1.456-.98 2.909-1.977 4.367-2.976C59.844 17.987 70.758 10.5 83.745 9.057c11.2-1.287 22.071 2.778 32.576 6.709 3.1 1.162 6.31 2.362 9.472 3.4a127.591 127.591 0 0 0 12.807 3.186c11.388 2.424 23.163 4.93 29.093 14.39 4.988 7.9 2.662 16.786.2 26.19-1.65 6.3-3.358 12.821-2.65 19.006.716 6.158 3.493 12.013 6.179 17.676 3.326 7.008 6.763 14.254 6.25 22.073a71.085 71.085 0 0 1-17.734 42.95c-13.878 15.629-28.54 24.364-43.578 25.96a34.316 34.316 0 0 1-3.541.182ZM88.045 9.829a36.552 36.552 0 0 0-4.185.235c-12.734 1.415-23.542 8.828-33.994 16-1.459 1-2.915 2-4.374 2.981-2.46 1.657-5.048 3.288-7.55 4.866-10.72 6.756-21.804 13.741-26.845 25.076-4.977 11.113-3.016 23.715-1.12 35.9.529 3.4 1.075 6.909 1.461 10.329.465 4.009.695 8.21.917 12.272.7 12.849 1.432 26.136 9.634 35.967 7.546 9.044 19.545 12.272 31.148 15.394a151.635 151.635 0 0 1 15.082 4.623c4.761 1.831 9.5 4.174 14.083 6.441 10.849 5.367 22.073 10.913 33.949 9.671 14.779-1.568 29.221-10.189 42.927-25.625a70.076 70.076 0 0 0 17.48-42.338c.5-7.559-2.735-14.367-6.155-21.575-2.721-5.737-5.536-11.669-6.27-17.994-.73-6.375 1-12.986 2.677-19.38 2.406-9.185 4.678-17.861-.076-25.393-5.7-9.1-17.264-11.558-28.446-13.937a128.688 128.688 0 0 1-12.91-3.211c-3.184-1.049-6.4-2.253-9.513-3.417-9.067-3.391-18.404-6.885-27.92-6.885Z"/><path fill="#fff" d="M111.083 186.521c-10.249 0-19.894-4.768-29.254-9.4-4.373-2.162-8.895-4.4-13.428-6.127a143.513 143.513 0 0 0-14.259-4.336c-11.2-2.989-22.788-6.08-30.195-14.961-7.983-9.675-8.666-22.473-9.327-34.849-.2-3.853-.418-7.839-.852-11.633-.366-3.195-.876-6.485-1.371-9.667-1.831-11.808-3.726-24.016 1.1-34.862 4.968-11.167 15.813-17.988 26.3-24.584 2.272-1.429 4.622-2.907 6.853-4.4 1.419-.958 2.836-1.936 4.256-2.916 9.98-6.886 20.3-14.006 32.639-15.35 10.642-1.146 20.913 2.631 30.847 6.281 3.034 1.115 6.172 2.267 9.273 3.263a121.272 121.272 0 0 0 12.25 3.066c10.829 2.317 22.026 4.714 27.629 13.688 4.722 7.507 2.5 15.95.15 24.89-1.583 6.018-3.22 12.241-2.535 18.143s3.334 11.5 5.9 16.91c3.149 6.652 6.4 13.531 5.96 20.968a67.9 67.9 0 0 1-16.88 40.935c-13.288 14.911-27.251 23.234-41.5 24.738a32.012 32.012 0 0 1-3.556.203ZM83.656 14.452c-12.085 1.317-22.3 8.363-32.173 15.177a505.811 505.811 0 0 1-4.266 2.924c-2.245 1.5-4.6 2.979-6.879 4.412-10.359 6.515-21.071 13.252-25.914 24.137-4.7 10.574-2.833 22.632-1.024 34.294.5 3.192 1.008 6.492 1.375 9.707.438 3.826.652 7.827.858 11.7.652 12.208 1.326 24.835 9.096 34.249 7.2 8.631 18.625 11.68 29.675 14.628a144.331 144.331 0 0 1 14.361 4.37c4.576 1.745 9.12 3.992 13.515 6.164 10.777 5.328 20.959 10.366 32.246 9.1 14-1.476 27.738-9.687 40.852-24.4a66.86 66.86 0 0 0 16.625-40.319c.43-7.18-2.627-13.638-5.864-20.475-2.6-5.484-5.28-11.155-5.985-17.227-.707-6.092.955-12.409 2.561-18.519 2.294-8.72 4.461-16.957-.028-24.092-5.376-8.611-16.359-10.962-26.98-13.235a121.56 121.56 0 0 1-12.353-3.095c-3.118-1-6.266-2.157-9.31-3.276-9.825-3.61-19.984-7.343-30.389-6.225Z"/><path fill="#fff" d="M109.768 182.403c-9.845 0-19.113-4.565-28.1-8.995-4.125-2.032-8.391-4.133-12.662-5.771a136.847 136.847 0 0 0-13.57-4.157c-10.654-2.865-21.67-5.829-28.681-14.24-7.581-9.1-8.239-21.21-8.875-32.926-.2-3.7-.409-7.521-.836-11.153-.349-3-.831-6.09-1.3-9.077-1.756-11.259-3.572-22.9 1.081-33.28 4.759-10.617 15-17.069 24.914-23.309 2.179-1.372 4.433-2.791 6.572-4.222 1.228-.833 2.457-1.683 3.689-2.533 9.621-6.646 19.57-13.518 31.4-14.842 10.128-1.149 19.876 2.439 29.3 5.914 2.886 1.064 5.871 2.163 8.831 3.116A116.252 116.252 0 0 0 133 29.752c10.373 2.192 21.1 4.458 26.455 13.057 4.453 7.188 2.253 15.577.126 23.69-1.5 5.721-3.051 11.635-2.39 17.246.631 5.61 3.162 10.932 5.609 16.08 3.007 6.323 6.117 12.863 5.669 19.932a64.518 64.518 0 0 1-16.093 38.968c-12.358 13.972-25.99 22.1-39.418 23.515a31.165 31.165 0 0 1-3.19.163ZM87.429 18.686a34.507 34.507 0 0 0-3.915.22c-11.578 1.3-21.42 8.093-30.938 14.668q-1.851 1.278-3.7 2.54c-2.147 1.438-4.412 2.864-6.597 4.238-9.781 6.159-19.9 12.528-24.529 22.865-4.529 10.106-2.738 21.6-1 32.709.467 3 .951 6.094 1.3 9.115.432 3.663.64 7.5.842 11.217.627 11.549 1.276 23.493 8.642 32.33 6.8 8.165 17.663 11.086 28.165 13.911a137.729 137.729 0 0 1 13.671 4.188c4.313 1.656 8.6 3.767 12.745 5.809 10.28 5.063 19.993 9.848 30.741 8.732 13.172-1.384 26.577-9.4 38.767-23.178a63.525 63.525 0 0 0 15.838-38.359c.43-6.806-2.486-12.939-5.574-19.433-2.482-5.223-5.05-10.622-5.7-16.4-.683-5.8.892-11.808 2.416-17.62 2.168-8.27 4.217-16.081-.007-22.9-5.128-8.232-15.637-10.453-25.8-12.6a117.333 117.333 0 0 1-11.569-2.852c-2.978-.958-5.974-2.062-8.871-3.129-8.452-3.105-16.496-6.071-24.927-6.071Z"/><path fill="#fff" d="M108.055 178.189c-9.3 0-18.083-4.332-26.6-8.536-3.88-1.913-7.891-3.891-11.9-5.44a129.116 129.116 0 0 0-12.761-3.9c-10.109-2.715-20.562-5.523-27.231-13.53-7.237-8.687-7.86-20.211-8.463-31.355-.187-3.456-.38-7.032-.77-10.445-.328-2.773-.771-5.63-1.2-8.393-1.671-10.759-3.4-21.885 1.041-31.786 4.437-9.973 14.116-16.084 23.476-21.994 2.1-1.328 4.278-2.7 6.341-4.087 1.305-.877 2.606-1.771 3.912-2.668 8.949-6.149 18.2-12.506 29.307-13.763 9.829-1.095 19.342 2.49 28.54 5.959 2.524.953 5.134 1.937 7.713 2.81a109.463 109.463 0 0 0 10.877 2.7c9.779 2.082 19.89 4.235 25.01 12.357 4.235 6.769 2.15 14.7.133 22.372-1.426 5.423-2.9 11.031-2.262 16.349.6 5.273 2.983 10.306 5.284 15.174 2.839 6.007 5.776 12.219 5.364 18.9a61.678 61.678 0 0 1-15.293 36.885c-8.182 9.2-21.312 20.517-37.4 22.226a28.924 28.924 0 0 1-3.118.165ZM83.312 23.297c-10.853 1.228-20 7.513-28.847 13.591-1.308.9-2.612 1.8-3.92 2.674-2.076 1.4-4.256 2.772-6.365 4.1-9.232 5.829-18.779 11.857-23.092 21.549-4.317 9.629-2.612 20.6-.964 31.217.43 2.772.875 5.638 1.2 8.432.394 3.445.588 7.035.775 10.507.599 10.985 1.213 22.334 8.23 30.765 6.463 7.758 16.759 10.524 26.715 13.2a129.5 129.5 0 0 1 12.864 3.934c4.054 1.566 8.087 3.555 11.987 5.478 9.767 4.818 18.986 9.371 29.162 8.27 15.763-1.673 28.683-12.828 36.746-21.89a60.668 60.668 0 0 0 15.042-36.272c.4-6.419-2.355-12.241-5.268-18.4-2.336-4.942-4.752-10.052-5.374-15.489-.661-5.507.838-11.21 2.288-16.725 2.051-7.806 3.989-15.179-.01-21.574-4.892-7.758-14.791-9.866-24.364-11.9a110.194 110.194 0 0 1-10.986-2.73c-2.6-.881-5.218-1.868-7.751-2.823-9.085-3.428-18.48-6.975-28.069-5.9Z"/><path fill="#fff" d="M106.745 174.024c-8.785 0-17.045-4.067-25.058-8.012-3.738-1.841-7.6-3.745-11.47-5.211a122.8 122.8 0 0 0-12.161-3.723c-9.552-2.569-19.43-5.227-25.7-12.758-6.774-8.14-7.368-18.967-7.943-29.437-.182-3.318-.371-6.748-.756-10.014-.314-2.7-.753-5.491-1.177-8.186-1.581-10.051-3.216-20.445.942-29.713 4.23-9.43 13.349-15.2 22.168-20.78 2.006-1.269 4.08-2.581 6.045-3.906 1.185-.8 2.366-1.618 3.55-2.434 8.5-5.868 17.3-11.936 27.866-13.107 9.25-1.069 18.233 2.3 26.919 5.551 2.386.893 4.852 1.817 7.29 2.636a104.631 104.631 0 0 0 10.375 2.587c9.25 1.978 18.816 4.024 23.614 11.665 4.016 6.437 2.043 13.945.136 21.206-1.342 5.11-2.729 10.395-2.145 15.421.572 5 2.821 9.746 5 14.336 2.683 5.662 5.458 11.517 5.075 17.868a58.478 58.478 0 0 1-14.437 34.867c-7.776 8.7-20.213 19.408-35.316 21a28.1 28.1 0 0 1-2.817.144ZM86.604 27.557a29.819 29.819 0 0 0-3.436.194c-10.317 1.142-19 7.137-27.4 12.934-1.186.818-2.37 1.636-3.558 2.439-1.977 1.334-4.058 2.651-6.07 3.924-8.692 5.5-17.68 11.186-21.785 20.337-4.035 8.993-2.424 19.235-.865 29.141.425 2.7.865 5.5 1.182 8.225.389 3.3.578 6.743.761 10.077.566 10.306 1.151 20.962 7.71 28.844 6.064 7.284 15.35 9.781 25.183 12.426a124.283 124.283 0 0 1 12.26 3.754c3.91 1.484 7.8 3.4 11.555 5.248 9.136 4.5 17.76 8.747 27.319 7.773 14.78-1.561 27.007-12.1 34.663-20.667a57.454 57.454 0 0 0 14.176-34.254c.368-6.089-2.229-11.568-4.979-17.37-2.21-4.665-4.5-9.488-5.087-14.654-.607-5.216.806-10.595 2.172-15.8 1.938-7.377 3.768-14.345-.016-20.409-4.569-7.277-13.921-9.277-22.965-11.212a105.194 105.194 0 0 1-10.482-2.616c-2.458-.826-4.934-1.753-7.326-2.649-7.487-2.8-15.187-5.685-23.012-5.685Z"/><path fill="#fff" d="M104.962 169.864c-8.239 0-16.014-3.834-23.558-7.555-3.491-1.721-7.1-3.5-10.709-4.88a115.068 115.068 0 0 0-11.352-3.468c-9.008-2.419-18.322-4.92-24.249-12.047-6.417-7.715-6.979-17.953-7.522-27.854-.17-3.087-.345-6.278-.7-9.317-.293-2.606-.708-5.284-1.109-7.874-1.46-9.422-2.969-19.166.929-27.85 3.968-8.84 12.52-14.263 20.791-19.507 1.911-1.212 3.887-2.465 5.754-3.73.992-.675 1.983-1.36 2.976-2.046 8.147-5.63 16.572-11.451 26.635-12.6 8.6-1.006 16.882 2.06 24.892 5.025 2.381.881 4.842 1.792 7.268 2.58a96.264 96.264 0 0 0 9.831 2.462c8.667 1.855 17.629 3.774 22.139 10.972 3.8 6.112 1.937 13.228.133 20.111-1.256 4.789-2.554 9.741-2.019 14.42.54 4.723 2.666 9.189 4.722 13.509 2.536 5.328 5.158 10.839 4.771 16.826a55.078 55.078 0 0 1-13.581 32.849c-10.489 11.789-22.006 18.647-33.3 19.833a26.1 26.1 0 0 1-2.742.141ZM86.24 31.952a28.35 28.35 0 0 0-3.272.187c-9.812 1.123-18.131 6.872-26.176 12.431q-1.491 1.031-2.981 2.05c-1.882 1.275-3.864 2.532-5.781 3.747-8.145 5.165-16.566 10.5-20.409 19.066-3.775 8.411-2.289 18-.853 27.279.4 2.6.819 5.29 1.115 7.915.356 3.067.533 6.274.7 9.377.534 9.735 1.087 19.8 7.29 27.26 5.721 6.879 14.876 9.338 23.731 11.716a116.22 116.22 0 0 1 11.452 3.5c3.652 1.4 7.283 3.186 10.795 4.918 8.625 4.253 16.769 8.275 25.743 7.311 13.951-1.464 25.457-11.411 32.653-19.5a54.074 54.074 0 0 0 13.327-32.242c.369-5.723-2.082-10.872-4.676-16.323-2.092-4.394-4.255-8.938-4.814-13.829-.557-4.869.766-9.914 2.045-14.794 1.83-6.982 3.56-13.576-.011-19.315-4.282-6.834-13.031-8.706-21.492-10.517a97.29 97.29 0 0 1-9.933-2.491c-2.443-.793-4.915-1.708-7.306-2.592-6.858-2.537-13.928-5.154-21.147-5.154Z"/><path fill="#fff" d="M103.478 165.652c-7.759 0-15.085-3.62-22.192-7.133-3.255-1.609-6.62-3.272-9.979-4.564-3.379-1.287-7.047-2.273-10.595-3.227-8.464-2.275-17.216-4.628-22.812-11.267-6.065-7.3-6.552-16.961-7.023-26.306-.144-2.845-.292-5.786-.6-8.577-.278-2.3-.652-4.67-1.015-6.964-1.419-8.979-2.886-18.264.825-26.529 3.7-8.385 11.777-13.471 19.592-18.391 1.754-1.1 3.566-2.244 5.287-3.4 1.075-.723 2.15-1.461 3.226-2.2 7.5-5.147 15.245-10.469 24.517-11.5 8.119-.927 15.923 1.945 23.471 4.722 2.192.807 4.457 1.641 6.7 2.369a89.428 89.428 0 0 0 9.117 2.278c8.153 1.743 16.584 3.545 20.829 10.338 3.581 5.69 1.83 12.349.136 18.79-1.181 4.492-2.4 9.138-1.891 13.524s2.5 8.579 4.422 12.633c2.384 5.03 4.849 10.23 4.5 15.833a51.787 51.787 0 0 1-12.727 30.831c-6.8 7.714-17.738 17.205-31.223 18.609a24.256 24.256 0 0 1-2.565.131ZM85.869 36.425a26.644 26.644 0 0 0-3.046.171c-9.02 1.007-16.663 6.256-24.054 11.333-1.08.741-2.157 1.48-3.235 2.2-1.734 1.163-3.553 2.308-5.312 3.415-7.686 4.838-15.634 9.84-19.2 17.944-3.59 7.993-2.146 17.126-.751 25.959.364 2.3.74 4.684 1.021 7.006.312 2.826.461 5.783.605 8.642.463 9.179.942 18.67 6.788 25.705 5.389 6.394 13.985 8.7 22.3 10.939 3.571.961 7.265 1.953 10.693 3.26 3.405 1.309 6.791 2.983 10.066 4.6 7.754 3.833 15.767 7.8 24.195 6.9 13.161-1.37 23.888-10.693 30.57-18.272a50.77 50.77 0 0 0 12.475-30.224c.335-5.339-1.966-10.194-4.4-15.333-1.957-4.128-3.981-8.4-4.513-12.95-.533-4.577.713-9.317 1.918-13.9 1.713-6.518 3.332-12.674-.016-17.993-4.027-6.424-12.244-8.175-20.192-9.875a90.468 90.468 0 0 1-9.22-2.307c-2.256-.733-4.531-1.571-6.731-2.38-6.476-2.386-13.144-4.84-19.961-4.84Z"/><path fill="#fff" d="M101.995 161.433c-7.208 0-13.992-3.346-20.573-6.594-3.075-1.517-6.255-3.086-9.445-4.3a101.135 101.135 0 0 0-9.943-3.035c-7.905-2.122-16.079-4.317-21.265-10.564-5.691-6.751-6.169-15.787-6.631-24.526-.14-2.657-.285-5.406-.579-8.019-.262-2.121-.611-4.308-.949-6.423-1.341-8.406-2.729-17.1.749-24.841 3.434-7.8 10.95-12.538 18.218-17.123 1.656-1.045 3.369-2.126 4.993-3.219.953-.646 1.907-1.3 2.86-1.963 7.049-4.867 14.339-9.9 23.078-10.85 7.535-.838 14.8 1.822 21.829 4.393 2.1.768 4.265 1.561 6.405 2.249a83.593 83.593 0 0 0 8.624 2.157c7.6 1.622 15.463 3.3 19.422 9.654 3.354 5.342 1.713 11.569.128 17.59-1.106 4.2-2.249 8.536-1.761 12.625.458 4.1 2.308 7.994 4.1 11.764 2.218 4.673 4.512 9.5 4.19 14.767a48.363 48.363 0 0 1-11.929 28.75c-9.324 10.5-19.13 16.348-29.144 17.384a22.631 22.631 0 0 1-2.377.124Zm-16.609-120.6a24.942 24.942 0 0 0-2.766.151c-8.484.922-15.666 5.881-22.613 10.676q-1.434.992-2.868 1.969c-1.638 1.1-3.357 2.187-5.02 3.237-7.139 4.5-14.521 9.16-17.831 16.677-3.356 7.468-1.993 16.009-.675 24.268.339 2.124.69 4.321.955 6.464.3 2.649.443 5.412.585 8.084.452 8.572.921 17.436 6.395 23.929 4.982 6 13 8.154 20.75 10.235a102.35 102.35 0 0 1 10.042 3.067c3.233 1.23 6.435 2.81 9.532 4.339 7.5 3.7 14.6 7.2 22.393 6.37 9.756-1.009 19.341-6.745 28.492-17.05a47.345 47.345 0 0 0 11.672-28.141c.306-5-1.831-9.5-4.094-14.264-1.825-3.846-3.713-7.823-4.189-12.084-.51-4.277.658-8.711 1.787-13 1.6-6.08 3.114-11.823-.007-16.8-3.731-5.991-11.378-7.621-18.773-9.2a84.059 84.059 0 0 1-8.724-2.178c-2.155-.692-4.333-1.489-6.438-2.259-6.043-2.212-12.262-4.489-18.605-4.489Z"/><path fill="#fff" d="M100.375 157.324c-6.728 0-13.063-3.134-19.209-6.174-2.838-1.4-5.773-2.856-8.711-3.984a92.041 92.041 0 0 0-9.3-2.846c-7.3-1.957-14.84-3.98-19.655-9.786-5.23-6.309-5.676-14.653-6.107-22.724-.134-2.513-.273-5.113-.557-7.592-.244-2-.575-4.074-.9-6.076-1.244-7.772-2.531-15.809.685-22.961 3.228-7.254 10.186-11.654 16.914-15.909 1.559-.986 3.171-2 4.7-3.036.963-.643 1.921-1.3 2.882-1.954 6.488-4.431 13.2-9.013 21.185-9.915 7.144-.771 14.048 1.808 20.722 4.3 1.823.681 3.708 1.387 5.572 2.013a77.534 77.534 0 0 0 8.033 2.042c7.033 1.529 14.3 3.11 17.988 8.945 3.1 4.964 1.573 10.74.095 16.325-1.03 3.895-2.094 7.922-1.659 11.733.429 3.836 2.156 7.48 3.825 11 2.052 4.328 4.173 8.8 3.887 13.655a44.7 44.7 0 0 1-11.073 26.731c-8.563 9.591-17.941 15.156-27.121 16.1a21.1 21.1 0 0 1-2.196.113ZM82.418 45.375c-7.738.875-14.34 5.384-20.725 9.745-.964.658-1.925 1.314-2.888 1.958-1.534 1.038-3.153 2.062-4.719 3.052-6.6 4.174-13.425 8.49-16.529 15.465-3.093 6.877-1.831 14.762-.61 22.386.322 2.011.655 4.091.9 6.117.288 2.514.427 5.129.562 7.658.422 7.906.86 16.08 5.876 22.13 4.608 5.557 11.665 7.451 19.135 9.455a92.213 92.213 0 0 1 9.4 2.879c2.982 1.144 5.938 2.606 8.8 4.02 6.988 3.457 13.586 6.729 20.849 5.961 11.276-1.154 20.617-9.208 26.467-15.761a43.671 43.671 0 0 0 10.818-26.119c.272-4.591-1.7-8.752-3.79-13.158-1.7-3.6-3.469-7.32-3.916-11.324s.632-8.12 1.687-12.106c1.487-5.624 2.893-10.937.025-15.527-3.455-5.472-10.515-7.007-17.343-8.492a78.383 78.383 0 0 1-8.133-2.071c-1.88-.632-3.774-1.34-5.6-2.025-6.873-2.566-13.355-4.987-20.266-4.243Z"/><path fill="#fff" d="M98.776 153.121c-6.243 0-12.095-2.887-17.774-5.689-2.592-1.279-5.273-2.6-7.946-3.625a86.176 86.176 0 0 0-8.532-2.59c-6.785-1.809-13.8-3.679-18.282-9.09-4.768-5.759-5.185-13.407-5.588-20.805-.129-2.374-.263-4.829-.542-7.16-.223-1.91-.531-3.874-.83-5.773-1.121-7.141-2.281-14.526.676-21.092 3.025-6.8 9.57-10.922 15.9-14.906a181.09 181.09 0 0 0 4.042-2.593c.843-.568 1.688-1.147 2.535-1.728 6.04-4.146 12.288-8.433 19.727-9.248 6.587-.78 12.9 1.6 19 3.9 1.7.641 3.452 1.3 5.179 1.883a73.464 73.464 0 0 0 7.242 1.8c6.577 1.4 13.376 2.854 16.816 8.313 2.917 4.593 1.5 9.938.139 15.108-.948 3.587-1.927 7.3-1.517 10.8s2 6.836 3.534 10.061c1.914 4.034 3.894 8.207 3.6 12.731a40.8 40.8 0 0 1-10.22 24.714c-8.117 9.007-16.541 14.01-25.04 14.871a19.816 19.816 0 0 1-2.119.118ZM84.747 49.687a20.948 20.948 0 0 0-2.47.143c-7.187.787-13.327 5-19.264 9.077-.85.583-1.7 1.164-2.545 1.734a181.966 181.966 0 0 1-4.066 2.609c-6.2 3.9-12.613 7.939-15.515 14.461-2.832 6.293-1.7 13.526-.6 20.521.3 1.908.609 3.882.835 5.811.282 2.362.417 4.834.547 7.224.395 7.233.8 14.711 5.356 20.213 4.274 5.161 10.826 6.908 17.762 8.756a87.257 87.257 0 0 1 8.634 2.624c2.717 1.04 5.419 2.373 8.032 3.662 6.189 3.053 12.588 6.207 19.345 5.476 8.244-.835 16.449-5.728 24.391-14.541a39.776 39.776 0 0 0 9.962-24.1c.275-4.263-1.562-8.135-3.506-12.233-1.564-3.3-3.183-6.71-3.625-10.377-.433-3.7.572-7.5 1.544-11.178 1.37-5.187 2.665-10.086-.017-14.306-3.212-5.1-9.8-6.5-16.169-7.864a74.273 74.273 0 0 1-7.349-1.827c-1.749-.588-3.514-1.253-5.22-1.9-5.213-1.961-10.58-3.985-16.062-3.985Z"/><path fill="#fff" d="M97.246 148.959c-5.691 0-11.016-2.631-16.183-5.184-2.43-1.2-4.943-2.442-7.458-3.391a78.035 78.035 0 0 0-7.888-2.413c-6.194-1.661-12.6-3.376-16.671-8.3-4.41-5.335-4.795-12.394-5.168-19.22-.116-2.143-.237-4.36-.484-6.466-.205-1.659-.48-3.38-.746-5.043-1.063-6.64-2.161-13.506.581-19.592 2.758-6.2 8.7-9.955 14.457-13.588 1.287-.814 2.571-1.625 3.816-2.461.716-.486 1.431-.98 2.145-1.474 5.576-3.852 11.34-7.835 18.314-8.612 6.031-.69 11.813 1.465 17.4 3.551 1.57.585 3.193 1.191 4.791 1.721a68.25 68.25 0 0 0 6.672 1.675c6.024 1.3 12.254 2.647 15.419 7.686 2.649 4.274 1.361 9.171.116 13.908-.864 3.288-1.759 6.688-1.371 9.9.366 3.205 1.818 6.255 3.223 9.2 1.757 3.689 3.574 7.5 3.28 11.657a37.592 37.592 0 0 1-9.362 22.692c-5.023 5.638-13.084 12.582-22.959 13.65a17.894 17.894 0 0 1-1.924.104ZM84.294 54.095a19.48 19.48 0 0 0-2.219.124c-6.719.748-12.377 4.657-17.849 8.438-.717.5-1.434.991-2.154 1.48a166.463 166.463 0 0 1-3.842 2.477c-5.624 3.553-11.439 7.227-14.073 13.146-2.618 5.811-1.544 12.524-.5 19.017.267 1.672.544 3.4.751 5.082.251 2.14.373 4.372.491 6.531.363 6.663.739 13.552 4.936 18.629 3.866 4.678 9.834 6.278 16.151 7.971a79.1 79.1 0 0 1 7.988 2.444c2.558.966 5.094 2.219 7.546 3.431 5.873 2.9 11.422 5.649 17.551 4.98 9.554-1.032 17.405-7.81 22.31-13.315a36.568 36.568 0 0 0 9.107-22.082c.276-3.894-1.4-7.421-3.184-11.155-1.439-3.024-2.929-6.151-3.314-9.522-.41-3.4.509-6.9 1.4-10.279 1.245-4.736 2.422-9.211 0-13.112-2.935-4.675-8.953-5.975-14.772-7.232a69.035 69.035 0 0 1-6.776-1.7c-1.616-.537-3.248-1.146-4.827-1.735-4.786-1.783-9.7-3.618-14.721-3.618Z"/><path fill="#fff" d="M95.688 144.677c-5.214 0-10.075-2.4-14.792-4.728-2.176-1.075-4.427-2.186-6.68-3.046a70.424 70.424 0 0 0-7.077-2.156c-5.65-1.51-11.492-3.07-15.223-7.594-4.174-4.952-4.479-11.542-4.773-17.914-.083-1.8-.169-3.664-.345-5.434-.183-1.553-.435-3.167-.679-4.726-.939-6.01-1.911-12.225.57-17.725 2.5-5.608 7.876-9.019 13.079-12.318 1.19-.754 2.377-1.507 3.525-2.282.729-.486 1.453-.979 2.178-1.472 5.01-3.413 10.191-6.94 16.41-7.67h.006c5.334-.556 10.49 1.315 15.481 3.122 1.543.558 3.138 1.136 4.713 1.633a58.705 58.705 0 0 0 6.207 1.555c5.441 1.159 11.069 2.358 13.932 6.937 2.384 3.878 1.206 8.317.069 12.609-.8 3-1.621 6.107-1.256 9.035.314 2.935 1.642 5.731 2.926 8.434 1.586 3.339 3.227 6.791 3 10.554a34.55 34.55 0 0 1-8.566 20.616c-4.543 5.154-11.868 11.5-20.943 12.478a16.651 16.651 0 0 1-1.762.092ZM81.996 58.62c-5.971.7-11.046 4.158-15.955 7.5q-1.091.744-2.183 1.476c-1.153.779-2.348 1.537-3.547 2.3-5.076 3.218-10.324 6.546-12.7 11.876-2.358 5.227-1.41 11.29-.493 17.153.245 1.57.5 3.192.685 4.774.179 1.806.266 3.682.35 5.5.286 6.2.583 12.618 4.538 17.311 3.528 4.277 9.211 5.795 14.706 7.263a71.173 71.173 0 0 1 7.179 2.19c2.295.876 4.568 2 6.766 3.083 5.349 2.641 10.4 5.141 16 4.535 8.751-.936 15.865-7.12 20.293-12.143a33.543 33.543 0 0 0 8.312-20.007c.209-3.5-1.3-6.681-2.905-10.052-1.321-2.78-2.687-5.655-3.019-8.753-.387-3.115.462-6.316 1.283-9.413 1.134-4.273 2.2-8.309.051-11.814-2.634-4.211-8.047-5.363-13.281-6.478a59.849 59.849 0 0 1-6.309-1.583c-1.588-.5-3.193-1.082-4.746-1.644-5.105-1.857-9.93-3.605-15.025-3.074Z"/><path fill="#fff" d="M94.192 140.582c-4.735 0-9.147-2.187-13.428-4.308-1.94-.962-3.946-1.955-5.949-2.728a64.429 64.429 0 0 0-6.473-1.978c-5.092-1.363-10.358-2.773-13.69-6.822-3.645-4.428-3.962-10.289-4.268-15.958-.092-1.692-.186-3.441-.37-5.1a121.38 121.38 0 0 0-.6-4.128c-.852-5.433-1.732-11.051.477-16.095 2.227-5.084 7.024-8.115 11.663-11.046 1.111-.7 2.259-1.427 3.34-2.163q.917-.618 1.83-1.246c4.565-3.129 9.285-6.364 14.956-7.006h.007c4.894-.482 9.634 1.262 14.217 2.949 1.3.48 2.651.976 3.98 1.413a52.1 52.1 0 0 0 5.642 1.435c4.883 1.053 9.931 2.142 12.471 6.236 2.222 3.542 1.158 7.6.128 11.525-.7 2.654-1.416 5.4-1.13 7.976a24.8 24.8 0 0 0 2.636 7.488c1.449 3.044 2.947 6.192 2.716 9.627a31.362 31.362 0 0 1-7.709 18.593c-6.047 6.782-12.393 10.568-18.866 11.256a15.063 15.063 0 0 1-1.58.08Zm-12.4-77.571c-5.418.614-10.032 3.776-14.493 6.834-.612.418-1.223.837-1.835 1.249a116.506 116.506 0 0 1-3.366 2.181c-4.51 2.849-9.173 5.8-11.275 10.6-2.091 4.773-1.234 10.242-.405 15.531.214 1.368.436 2.783.6 4.168.189 1.694.284 3.458.376 5.164.3 5.5.6 11.2 4.039 15.368 3.125 3.8 8 5.1 13.169 6.488a65.245 65.245 0 0 1 6.576 2.009c2.047.79 4.073 1.795 6.034 2.767 4.836 2.4 9.4 4.666 14.451 4.124 6.213-.659 12.342-4.334 18.214-10.921a30.33 30.33 0 0 0 7.456-17.987c.212-3.17-1.164-6.061-2.621-9.122a25.587 25.587 0 0 1-2.727-7.808c-.307-2.769.437-5.606 1.157-8.349 1.02-3.887 1.982-7.559-.009-10.73-2.313-3.731-6.932-4.727-11.823-5.782a52.6 52.6 0 0 1-5.749-1.465c-1.342-.44-2.7-.939-4.01-1.422-4.676-1.728-9.092-3.356-13.76-2.897Z"/><path fill="#fff" d="M92.479 136.368c-4.188 0-8.116-1.954-11.929-3.851-1.694-.842-3.446-1.713-5.191-2.4a57.956 57.956 0 0 0-5.63-1.725c-4.536-1.226-9.226-2.494-12.266-6.1-3.249-3.958-3.539-9.141-3.818-14.153-.086-1.533-.174-3.117-.347-4.628-.146-1.231-.345-2.5-.538-3.735-.754-4.821-1.534-9.806.473-14.317 2.057-4.543 6.39-7.262 10.58-9.892.948-.595 1.895-1.189 2.814-1.8.683-.448 1.361-.908 2.042-1.369 3.923-2.659 7.98-5.408 12.87-5.938 4.334-.486 8.494 1.059 12.513 2.556 1.175.438 2.389.89 3.58 1.278 1.475.461 3.121.8 4.714 1.136 4.483.933 9.119 1.9 11.441 5.665 1.957 3.144 1 6.743.08 10.223a19.874 19.874 0 0 0-1.016 7.113 22.362 22.362 0 0 0 2.363 6.728c1.282 2.7 2.608 5.492 2.413 8.517a28.042 28.042 0 0 1-6.852 16.574c-3.641 4.155-9.509 9.27-16.788 10.036a12.958 12.958 0 0 1-1.508.082ZM83.188 67.38a13.724 13.724 0 0 0-1.539.085c-4.64.5-8.591 3.179-12.413 5.769-.684.464-1.366.926-2.05 1.375-.923.617-1.878 1.216-2.835 1.817-4.062 2.549-8.264 5.186-10.193 9.447-1.884 4.235-1.128 9.07-.4 13.745.194 1.24.395 2.523.543 3.774.176 1.543.265 3.142.352 4.689.271 4.849.551 9.864 3.585 13.56 2.831 3.361 7.163 4.532 11.751 5.772a58.843 58.843 0 0 1 5.74 1.761c1.79.7 3.562 1.583 5.276 2.435 4.324 2.151 8.408 4.186 12.871 3.664 6.957-.731 12.615-5.677 16.136-9.7a27.028 27.028 0 0 0 6.6-15.972c.178-2.759-1.034-5.312-2.318-8.015a23.115 23.115 0 0 1-2.454-7.046 20.649 20.649 0 0 1 1.042-7.49c.908-3.423 1.765-6.655.039-9.429-2.093-3.4-6.512-4.317-10.785-5.206-1.616-.336-3.288-.684-4.816-1.162-1.216-.4-2.441-.853-3.625-1.294-3.417-1.268-6.937-2.579-10.507-2.579Z"/><path fill="#fff" d="M91.047 132.191c-3.676 0-7.083-1.69-10.387-3.33-1.55-.768-3.152-1.564-4.749-2.166a48.594 48.594 0 0 0-5.116-1.608c-3.9-1.071-7.938-2.178-10.587-5.322-2.786-3.409-3.046-7.893-3.3-12.23-.081-1.394-.164-2.835-.332-4.2-.128-1.157-.307-2.341-.48-3.486-.631-4.165-1.284-8.472.4-12.337 1.8-3.959 5.562-6.332 9.2-8.626.85-.537 1.7-1.071 2.52-1.624q.745-.5 1.485-1c3.568-2.41 7.247-4.91 11.628-5.41 3.955-.417 7.747 1.051 11.413 2.474.915.355 1.829.71 2.745 1.036 1.282.407 2.724.713 4.119 1.008 3.889.824 7.911 1.676 10 4.962 1.741 2.731.916 5.9.118 8.966a17.414 17.414 0 0 0-.862 6.223 19.618 19.618 0 0 0 2.023 5.748c1.125 2.381 2.288 4.845 2.122 7.563a24.25 24.25 0 0 1-6 14.561c-3.218 3.624-8.391 8.084-14.763 8.743a11.9 11.9 0 0 1-1.197.055Zm-9.6-60.336c-4.138.481-7.711 2.9-11.167 5.246q-.745.506-1.491 1c-.827.557-1.685 1.1-2.544 1.639-3.515 2.215-7.15 4.506-8.818 8.18-1.566 3.59-.964 7.565-.326 11.773.175 1.155.356 2.349.484 3.521.172 1.39.256 2.848.338 4.257.242 4.176.492 8.494 3.065 11.642 2.441 2.9 6.149 3.914 10.074 4.991a49.094 49.094 0 0 1 5.215 1.642c1.636.616 3.261 1.422 4.833 2.2 3.7 1.834 7.191 3.567 11.034 3.168 6.046-.625 11.01-4.917 14.108-8.408a23.219 23.219 0 0 0 5.747-13.949c.151-2.458-.907-4.7-2.027-7.068a20.355 20.355 0 0 1-2.113-6.057 18.157 18.157 0 0 1 .888-6.6c.777-2.986 1.511-5.808.007-8.166-1.857-2.927-5.5-3.7-9.351-4.514-1.418-.3-2.885-.612-4.232-1.04-.942-.335-1.865-.693-2.788-1.051-3.554-1.374-7.224-2.803-10.935-2.409Z"/><path fill="#fff" d="M89.48 128.034c-3.135 0-6.1-1.462-8.983-2.88-1.305-.642-2.654-1.307-3.988-1.817s-2.809-.911-4.226-1.294c-3.434-.93-6.985-1.891-9.283-4.617-2.464-3.027-2.677-6.888-2.883-10.622-.065-1.171-.132-2.381-.269-3.53a71.509 71.509 0 0 0-.4-2.745c-.569-3.617-1.158-7.358.367-10.786 1.537-3.373 4.775-5.426 7.906-7.412.751-.476 1.5-.949 2.214-1.438l.775-.548c3.194-2.265 6.5-4.607 10.478-5.043 3.245-.376 6.389.791 9.429 1.921.879.328 1.752.652 2.619.936a35.274 35.274 0 0 0 3.708.948c3.281.717 6.673 1.457 8.452 4.275 1.516 2.383.8 5.12.11 7.767a14.663 14.663 0 0 0-.733 5.322 16.561 16.561 0 0 0 1.741 4.992c.963 2.042 1.958 4.154 1.829 6.449a21.035 21.035 0 0 1-5.143 12.543c-4.093 4.556-8.36 7.086-12.687 7.524a9.754 9.754 0 0 1-1.033.055Zm-7.033-51.789a9.906 9.906 0 0 0-1.141.065c-3.72.407-6.914 2.672-10 4.863l-.784.555c-.732.5-1.489.978-2.248 1.46-3.007 1.906-6.115 3.877-7.524 6.971-1.4 3.151-.837 6.741-.29 10.213.146.932.292 1.861.4 2.781.141 1.182.208 2.408.274 3.594.206 3.737.4 7.266 2.652 10.031 2.088 2.478 5.332 3.356 8.766 4.285a45.052 45.052 0 0 1 4.323 1.326c1.379.528 2.749 1.2 4.074 1.855 3.207 1.579 6.237 3.073 9.465 2.726 4.071-.413 8.118-2.832 12.033-7.188a20.014 20.014 0 0 0 4.882-11.93c.115-2.036-.783-3.941-1.734-5.958a17.323 17.323 0 0 1-1.83-5.3 15.415 15.415 0 0 1 .758-5.7c.665-2.548 1.294-4.955.015-6.967-1.554-2.46-4.593-3.124-7.812-3.827a36.225 36.225 0 0 1-3.811-.976c-.876-.287-1.761-.616-2.653-.947-2.554-.953-5.187-1.932-7.815-1.932Z"/><path fill="#fff" d="M88.039 123.74c-2.733 0-5.278-1.253-7.746-2.468-1.057-.52-2.15-1.058-3.23-1.481a35.049 35.049 0 0 0-3.575-1.1c-2.825-.764-5.746-1.554-7.673-3.84-2.095-2.487-2.256-5.737-2.412-8.88-.048-.972-.1-1.977-.206-2.927-.09-.787-.217-1.587-.343-2.391-.473-2.984-.96-6.07.3-8.909 1.331-2.909 4.131-4.669 6.839-6.371a86.157 86.157 0 0 0 1.619-1.034c.341-.234.689-.477 1.039-.721 2.536-1.772 5.159-3.6 8.343-3.923 2.819-.28 5.429.693 7.953 1.635a59.34 59.34 0 0 0 2.157.775c.9.285 1.924.5 2.91.713 2.849.607 5.795 1.235 7.293 3.638 1.257 2 .654 4.288.072 6.5a12.506 12.506 0 0 0-.63 4.432 13.613 13.613 0 0 0 1.465 4.156 11 11 0 0 1 1.528 5.418 17.063 17.063 0 0 1-4.348 10.458c-3.361 3.813-6.93 5.933-10.6 6.295q-.381.025-.755.025Zm-6.048-43.088a8.913 8.913 0 0 0-.893.044c-2.919.292-5.432 2.047-7.862 3.745-.353.246-.7.491-1.055.731-.543.359-1.093.7-1.644 1.051-2.582 1.623-5.252 3.3-6.454 5.929-1.139 2.56-.675 5.5-.227 8.333.13.819.258 1.633.35 2.435.112.982.163 2 .212 2.992.154 3.112.3 6.052 2.174 8.275 1.722 2.044 4.365 2.759 7.162 3.516a35.626 35.626 0 0 1 3.68 1.139c1.12.438 2.233.986 3.309 1.516 2.686 1.322 5.23 2.571 7.956 2.335 3.405-.335 6.751-2.341 9.94-5.96a16.046 16.046 0 0 0 4.09-9.841c.116-1.678-.635-3.252-1.431-4.918a14.357 14.357 0 0 1-1.557-4.478 13.232 13.232 0 0 1 .657-4.806c.552-2.093 1.072-4.07.049-5.7-1.271-2.039-3.881-2.6-6.645-3.185-1.009-.215-2.053-.438-3.01-.739a62.69 62.69 0 0 1-2.2-.79 19.267 19.267 0 0 0-6.601-1.624Z"/><path fill="#fff" d="M86.398 119.614a14.017 14.017 0 0 1-6.01-1.908c-.87-.426-1.77-.867-2.664-1.206a29.111 29.111 0 0 0-2.816-.852c-2.314-.616-4.707-1.253-6.3-3.144-1.737-2.061-1.865-4.72-1.99-7.291a38.584 38.584 0 0 0-.15-2.239c-.068-.69-.172-1.383-.275-2.078-.35-2.354-.712-4.789.29-7.042 1.069-2.318 3.3-3.73 5.454-5.095.449-.285.9-.569 1.335-.861l.389-.275c2.168-1.534 4.409-3.12 7.176-3.477h.008a13.964 13.964 0 0 1 6.265 1.228c.655.236 1.311.473 1.974.677a23.958 23.958 0 0 0 2.375.591c2.265.485 4.607.986 5.816 2.947 1.075 1.622.588 3.48.117 5.277a9.721 9.721 0 0 0-.489 3.5 10.7 10.7 0 0 0 1.126 3.175 9.07 9.07 0 0 1 1.236 4.464 13.837 13.837 0 0 1-3.489 8.438c-1.835 2.142-4.819 4.775-8.6 5.13a6.882 6.882 0 0 1-.778.041Zm-5.437-34.462c-2.514.326-4.555 1.77-6.715 3.3l-.4.284c-.454.3-.909.591-1.366.881-2.032 1.287-4.132 2.617-5.072 4.656-.88 1.978-.555 4.162-.211 6.475.106.712.211 1.422.28 2.124.08.751.118 1.535.155 2.293.121 2.514.236 4.888 1.752 6.685 1.388 1.648 3.524 2.217 5.786 2.819a30.011 30.011 0 0 1 2.914.883c.939.356 1.86.807 2.751 1.245 2.111 1.035 4.108 2.011 6.238 1.764 3.451-.325 6.219-2.782 7.937-4.786a12.832 12.832 0 0 0 3.242-7.83 8.186 8.186 0 0 0-1.14-3.973 11.572 11.572 0 0 1-1.215-3.485 10.413 10.413 0 0 1 .514-3.879c.433-1.653.842-3.215.009-4.473-.99-1.605-3.022-2.04-5.174-2.5a24.789 24.789 0 0 1-2.468-.616c-.671-.206-1.342-.448-2.011-.689a13.11 13.11 0 0 0-5.806-1.178Z"/><path fill="#fff" d="M85.019 115.384a11 11 0 0 1-4.778-1.494c-.623-.305-1.268-.621-1.908-.872-.622-.231-1.29-.412-2-.6-1.79-.483-3.641-.982-4.857-2.425-1.382-1.64-1.478-3.711-1.569-5.714-.024-.52-.048-1.037-.095-1.54s-.131-1.019-.21-1.532c-.272-1.782-.553-3.625.217-5.355.738-1.742 2.378-2.77 3.965-3.763.39-.245.779-.489 1.151-.741l.681-.466a11.333 11.333 0 0 1 5.023-2.346h.01a11.216 11.216 0 0 1 4.8.949c.493.175.991.352 1.5.508.546.168 1.132.285 1.753.409 1.742.347 3.543.706 4.482 2.26.775 1.28.409 2.7.055 4.073a7.28 7.28 0 0 0-.361 2.539 8.257 8.257 0 0 0 .853 2.415 6.987 6.987 0 0 1 .933 3.346 11.533 11.533 0 0 1-9.142 10.33 7.09 7.09 0 0 1-.503.019Zm-4.262-25.842a10.423 10.423 0 0 0-4.563 2.174l-.688.47c-.38.259-.779.509-1.181.761-1.52.952-2.956 1.851-3.573 3.307-.652 1.467-.405 3.085-.144 4.8.081.529.162 1.058.217 1.585s.073 1.057.1 1.593c.088 1.919.171 3.731 1.331 5.107 1.012 1.2 2.632 1.637 4.347 2.1.7.189 1.42.383 2.094.634.687.271 1.351.595 1.992.909 1.592.78 3.1 1.52 4.734 1.373 2.5-.29 4.56-2.1 5.847-3.565a9.6 9.6 0 0 0 2.384-5.814 6.141 6.141 0 0 0-.839-2.855 9.158 9.158 0 0 1-.941-2.726 8.117 8.117 0 0 1 .385-2.914c.316-1.223.614-2.379.06-3.294-.708-1.171-2.216-1.472-3.813-1.79-.618-.124-1.258-.251-1.853-.434a39.099 39.099 0 0 1-1.538-.522 10.313 10.313 0 0 0-4.358-.899Z"/></svg>