<svg xmlns="http://www.w3.org/2000/svg" viewBox="0 0 94 86"><title>brun3-m</title><path d="M19.23,11.181C24.624,7.5,29.942,3.305,36.49,2.509c6.448-.8,12.5,2.3,18.68,4.263,6.477,2.042,14.949,1.846,18.5,7.506,3.632,5.815-2.048,13.265-1.315,20.029.661,6.193,5.859,11.373,5.413,17.607a32.526,32.526,0,0,1-8,19.1c-5.06,5.695-11.718,10.8-19.406,11.7-7.583.868-14.313-4.287-21.457-6.956C21.731,73.109,13.058,72.8,8.241,67.038,3.4,61.255,4.45,52.921,3.678,45.516c-.758-7.011-2.895-14.3,0-20.718C6.567,18.478,13.434,15.138,19.23,11.181Z" fill="none" stroke="#fff" stroke-width="0.413"/><path d="M33.242,40.88a3.361,3.361,0,0,1,1.5-.764,3.981,3.981,0,0,1,1.645.378c.56.177,1.315.151,1.616.67.329.5-.161,1.161-.117,1.754.048.544.508.98.479,1.541a2.841,2.841,0,0,1-.687,1.675,2.73,2.73,0,0,1-1.7,1.015c-.66.084-1.242-.389-1.875-.6-.605-.23-1.378-.279-1.783-.76-.428-.506-.309-1.23-.4-1.876a3.691,3.691,0,0,1,0-1.791C32.15,41.536,32.757,41.226,33.242,40.88Z" fill="none" stroke="#fff" stroke-width="0.413"/><path d="M36.422,4.269c-6.245.776-11.346,4.8-16.5,8.328-5.579,3.781-12.128,6.956-14.866,13.02C2.287,31.751,4.3,38.736,5.017,45.424c.749,7.108-.262,15.054,4.374,20.6,4.614,5.517,12.913,5.82,19.768,8.363s13.279,7.5,20.559,6.65c7.357-.866,13.694-5.752,18.555-11.2a30.9,30.9,0,0,0,7.665-18.244c.419-5.942-4.549-10.9-5.184-16.85-.711-6.467,4.737-13.6,1.258-19.176C68.618,10.143,60.5,10.323,54.338,8.385,48.349,6.488,42.589,3.51,36.422,4.269Z" fill="#e7e4df"/><path d="M36.349,6.077c-5.964.729-10.848,4.578-15.784,7.93C15.253,17.619,8.993,20.649,6.383,26.431c-2.669,5.874-.7,12.536-.028,18.9C7.087,52.1,6.131,59.728,10.542,65S22.9,70.551,29.394,72.985c6.538,2.44,12.66,7.145,19.61,6.338,7.027-.823,13.065-5.469,17.7-10.689a29.356,29.356,0,0,0,7.312-17.42c.417-5.673-4.321-10.417-4.934-16.066-.662-6.193,4.505-13.005,1.174-18.3-3.241-5.189-10.985-5-16.9-6.863C47.735,8.2,42.214,5.338,36.349,6.077Z" fill="none" stroke="#fff" stroke-width="0.413"/><path d="M36.253,7.859c-5.684.682-10.3,4.36-15,7.564C16.19,18.837,10.215,21.772,7.732,27.271c-2.515,5.571-.665,11.927-.017,18,.688,6.44-.231,13.684,3.951,18.742,4.208,5.037,11.761,5.268,17.961,7.578,6.25,2.314,12.065,6.817,18.69,6,6.7-.782,12.44-5.234,16.852-10.182a28.015,28.015,0,0,0,6.956-16.6c.367-5.408-4.118-9.907-4.7-15.308-.64-5.9,4.3-12.388,1.14-17.422C65.5,13.156,58.1,13.332,52.481,11.544,47.1,9.876,41.861,7.193,36.253,7.859Z" fill="none" stroke="#fff" stroke-width="0.413"/><path d="M36.181,9.667c-5.381.662-9.8,4.138-14.259,7.193-4.8,3.243-10.458,6.012-12.841,11.252-2.414,5.311-.658,11.339-.032,17.111.671,6.1-.216,13,3.768,17.769S24,68.009,29.884,70.214c5.934,2.21,11.474,6.443,17.764,5.72,6.367-.74,11.838-4.973,16-9.675a26.561,26.561,0,0,0,6.628-15.794c.367-5.138-3.939-9.424-4.477-14.55-.617-5.6,4.06-11.749,1.085-16.57-2.912-4.691-9.951-4.531-15.285-6.193C46.46,11.557,41.512,9,36.181,9.667Z" fill="none" stroke="#fff" stroke-width="0.413"/><path d="M36.085,11.448c-5.128.638-9.282,3.943-13.493,6.8-4.561,3.094-9.929,5.72-12.157,10.655-2.287,5.029-.653,10.751-.048,16.227.622,5.822-.2,12.314,3.58,16.844s10.606,4.765,16.151,6.84C35.736,70.922,41,74.931,46.933,74.224c5.987-.7,11.21-4.69,15.173-9.142A25.376,25.376,0,0,0,68.4,50.14c.338-4.847-3.71-8.937-4.226-13.767-.6-5.3,3.85-11.131,1.023-15.668-2.786-4.434-9.423-4.285-14.463-5.87C45.872,13.242,41.136,10.828,36.085,11.448Z" fill="none" stroke="#fff" stroke-width="0.413"/><path d="M36.013,13.256c-4.848.591-8.757,3.7-12.756,6.43-4.293,2.924-9.372,5.405-11.5,10.081-2.16,4.746-.569,10.145-.009,15.3.6,5.476-.185,11.629,3.37,15.892S25.123,65.445,30.4,67.421c5.307,1.954,10.26,5.762,15.889,5.124,5.657-.661,10.586-4.456,14.322-8.634a24.036,24.036,0,0,0,5.941-14.119c.315-4.6-3.508-8.427-4-13.009-.547-5.03,3.64-10.514.966-14.815-2.611-4.173-8.894-4.038-13.691-5.551C45.234,14.923,40.761,12.656,36.013,13.256Z" fill="none" stroke="#fff" stroke-width="0.413"/><path d="M35.917,15.038c-4.544.57-8.259,3.476-12.018,6.059-4.026,2.753-8.815,5.091-10.816,9.484-2.032,4.465-.536,9.536-.025,14.415.561,5.153-.169,10.944,3.183,14.967s9.428,4.236,14.368,6.081c4.99,1.85,9.664,5.436,14.941,4.812,5.326-.618,9.956-4.172,13.5-8.149a22.681,22.681,0,0,0,5.586-13.294c.315-4.334-3.3-7.917-3.768-12.252-.5-4.707,3.43-9.9.909-13.962-2.457-3.937-8.366-3.791-12.869-5.227C44.619,16.63,40.412,14.462,35.917,15.038Z" fill="none" stroke="#fff" stroke-width="0.413"/><path d="M35.844,16.846c-4.264.524-7.738,3.281-11.253,5.666-3.808,2.578-8.28,4.75-10.131,8.888-1.905,4.182-.53,8.948-.014,13.509.494,4.8-.2,10.253,2.946,14.036,3.155,3.735,8.827,3.958,13.478,5.678,4.674,1.746,9.068,5.109,14.015,4.528,5-.577,9.354-3.911,12.646-7.642a21.236,21.236,0,0,0,5.232-12.47c.286-4.043-3.1-7.456-3.54-11.5-.481-4.41,3.22-9.279.848-13.061-2.3-3.7-7.86-3.571-12.047-4.9C43.982,18.311,40.059,16.317,35.844,16.846Z" fill="none" stroke="#fff" stroke-width="0.413"/><path d="M35.749,18.627c-3.984.478-7.214,3.037-10.515,5.3-3.541,2.408-7.724,4.435-9.447,8.291-1.778,3.9-.5,8.338,0,12.6.471,4.507-.166,9.595,2.785,13.089,2.925,3.517,8.249,3.707,12.584,5.323,4.385,1.621,8.45,4.755,13.067,4.216,4.666-.534,8.7-3.655,11.794-7.135a19.833,19.833,0,0,0,4.9-11.619c.263-3.8-2.9-6.946-3.289-10.71-.459-4.114,3.011-8.662.792-12.209-2.151-3.466-7.332-3.324-11.275-4.584C43.367,20.018,39.683,18.145,35.749,18.627Z" fill="none" stroke="#fff" stroke-width="0.413"/><path d="M35.653,20.409c-3.68.457-6.693,2.841-9.75,4.9-3.274,2.237-7.166,4.12-8.79,7.716-1.651,3.618-.441,7.755.01,11.7.449,4.211-.151,8.91,2.571,12.186s7.648,3.429,11.667,4.941c4.069,1.517,7.854,4.429,12.14,3.931,4.337-.492,8.1-3.393,10.966-6.6a18.376,18.376,0,0,0,4.545-10.8c.236-3.508-2.695-6.436-3.061-9.953-.41-3.839,2.8-8.044.759-11.329-2-3.182-6.8-3.077-10.454-4.26C42.729,21.7,39.307,19.974,35.653,20.409Z" fill="none" stroke="#fff" stroke-width="0.413"/><path d="M35.581,22.217c-3.4.41-6.2,2.619-9.012,4.532-3.03,2.04-6.61,3.806-8.106,7.12-1.524,3.336-.408,7.145-.007,10.812.433,3.867-.135,8.226,2.361,11.235,2.519,3.036,7.071,3.177,10.8,4.563s7.235,4.076,11.219,3.6c4.006-.451,7.449-3.137,10.115-6.094a16.718,16.718,0,0,0,4.19-9.971c.235-3.239-2.466-5.949-2.832-9.2-.389-3.543,2.592-7.426.674-10.454-1.85-2.947-6.3-2.858-9.659-3.915C42.114,23.406,38.959,21.78,35.581,22.217Z" fill="none" stroke="#fff" stroke-width="0.413"/><path d="M35.485,24c-3.147.386-5.67,2.376-8.274,4.162-2.79,1.891-6.053,3.491-7.422,6.523-1.4,3.054-.379,6.584,0,9.906.388,3.544-.12,7.541,2.174,10.31s6.47,2.9,9.884,4.181c3.441,1.261,6.639,3.749,10.293,3.314s6.847-2.876,9.264-5.587a15.377,15.377,0,0,0,3.835-9.147c.234-2.968-2.264-5.438-2.581-8.411-.367-3.247,2.355-6.787.618-9.6-1.7-2.713-5.743-2.634-8.86-3.618C41.477,25.086,38.583,23.608,35.485,24Z" fill="none" stroke="#fff" stroke-width="0.413"/><path d="M35.44,25.785c-2.845.365-5.15,2.18-7.51,3.768-2.522,1.721-5.5,3.177-6.737,5.927-1.269,2.772-.346,5.974-.011,9.022.294,3.216-.154,6.851,1.964,9.358,2.09,2.529,5.892,2.647,8.967,3.8,3.125,1.157,6.021,3.4,9.345,3s6.245-2.615,8.439-5.1a14.187,14.187,0,0,0,3.5-8.3c.184-2.7-2.084-4.956-2.352-7.654-.345-2.951,2.145-6.17.584-8.722-1.544-2.477-5.242-2.365-8.065-3.272C40.861,26.793,38.23,25.463,35.44,25.785Z" fill="none" stroke="#fff" stroke-width="0.413"/><path d="M35.344,27.566c-2.564.319-4.652,1.958-6.771,3.4-2.255,1.55-4.962,2.836-6.081,5.352s-.313,5.364,0,8.116c.3,2.9-.089,6.17,1.776,8.433s5.292,2.369,8.1,3.422,5.425,3.069,8.419,2.718,5.593-2.358,7.588-4.6a12.854,12.854,0,0,0,3.148-7.471c.183-2.435-1.855-4.469-2.124-6.9-.273-2.65,1.936-5.552.5-7.847-1.368-2.215-4.713-2.118-7.243-2.949C40.224,28.474,37.854,27.291,35.344,27.566Z" fill="none" stroke="#fff" stroke-width="0.413"/><path d="M35.272,29.374c-2.284.272-4.132,1.763-6.007,3.006-2.038,1.374-4.405,2.521-5.419,4.729-1.019,2.256-.284,4.8-.015,7.231.278,2.6-.073,5.485,1.589,7.508,1.69,2,4.714,2.118,7.184,3.04,2.493.95,4.829,2.743,7.47,2.407,2.664-.31,4.992-2.1,6.738-4.088a11.4,11.4,0,0,0,2.793-6.647c.155-2.143-1.653-3.959-1.9-6.14-.251-2.353,1.727-4.934.466-6.968-1.215-1.979-4.18-1.919-6.448-2.6C39.609,30.181,37.505,29.1,35.272,29.374Z" fill="none" stroke="#fff" stroke-width="0.413"/><path d="M35.176,31.156c-1.98.252-3.606,1.518-5.268,2.634-1.771,1.2-3.848,2.207-4.735,4.133-.864,1.952-.224,4.171,0,6.325.261,2.256-.058,4.8,1.38,6.556,1.487,1.76,4.113,1.84,6.289,2.685,2.182.8,4.211,2.389,6.545,2.122a10.617,10.617,0,0,0,8.347-9.377c.132-1.9-1.424-3.471-1.645-5.355-.229-2.057,1.495-4.344.383-6.094-1.09-1.722-3.653-1.673-5.627-2.278C38.972,31.862,37.13,30.926,35.176,31.156Z" fill="none" stroke="#fff" stroke-width="0.413"/><path d="M35.1,32.964c-1.7.2-3.109,1.3-4.508,2.29-1.5,1.033-3.319,1.914-4.078,3.558C25.753,40.5,26.3,42.4,26.5,44.2c.217,1.934-.065,4.089,1.192,5.631,1.262,1.494,3.536,1.589,5.4,2.282s3.642,2.04,5.595,1.81a9.085,9.085,0,0,0,7.142-8.046c.1-1.608-1.244-2.987-1.416-4.6-.208-1.761,1.284-3.727.326-5.241-.937-1.487-3.125-1.426-4.827-1.982C38.356,33.569,36.754,32.754,35.1,32.964Z" fill="none" stroke="#fff" stroke-width="0.413"/><path d="M35.008,34.745a8.645,8.645,0,0,0-3.743,1.9c-1.286.858-2.762,1.6-3.394,2.961-.637,1.41-.162,3,0,4.487.172,1.61-.077,3.425.982,4.679s2.935,1.31,4.483,1.9S36.358,52.356,38,52.2a7.621,7.621,0,0,0,5.957-6.688c.1-1.339-1.042-2.478-1.187-3.84-.159-1.487,1.075-3.11.291-4.361-.76-1.225-2.618-1.207-4.032-1.636C37.719,35.25,36.428,34.587,35.008,34.745Z" fill="none" stroke="#fff" stroke-width="0.413"/><path d="M34.935,36.554A7.034,7.034,0,0,0,31.93,38.08c-1.019.688-2.2,1.285-2.71,2.365-.509,1.128-.128,2.39-.019,3.6.128,1.287-.061,2.74.795,3.754s2.357,1.059,3.617,1.523,2.428,1.36,3.748,1.192a5.439,5.439,0,0,0,3.383-2.055,5.533,5.533,0,0,0,1.4-3.323c.08-1.1-.812-1.991-.936-3.057-.137-1.19.865-2.491.208-3.486-.607-.99-2.09-.96-3.21-1.312A8.238,8.238,0,0,0,34.935,36.554Z" fill="none" stroke="#fff" stroke-width="0.413"/><path d="M34.84,38.335A5.394,5.394,0,0,0,32.6,39.469c-.752.517-1.67.944-2.025,1.768a5.239,5.239,0,0,0-.007,2.7c.083.965-.046,2.055.607,2.829.631.747,1.779.808,2.7,1.141.944.36,1.81,1.007,2.823.907a4.25,4.25,0,0,0,2.531-1.547,4.189,4.189,0,0,0,1.042-2.5c.052-.8-.611-1.48-.708-2.3-.093-.867.628-1.852.174-2.607s-1.562-.713-2.416-.966A6.529,6.529,0,0,0,34.84,38.335Z" fill="none" stroke="#fff" stroke-width="0.413"/></svg>