<svg xmlns="http://www.w3.org/2000/svg" viewBox="0 0 197.621 206.378"><path fill="#fff" d="M121.806 206.377q-.313 0-.628-.008c-10.125-.291-17.159-7.848-24.607-15.848-5.015-5.388-10.2-10.958-16.41-14.09s-13.235-4.17-20.04-5.17c-8.386-1.231-17.056-2.5-24.125-7.743a86.121 86.121 0 0 1-30.64-42.5c-4.859-15.3-8.889-37.405-.494-55.856C10.325 53.27 21.826 46.29 32.947 39.539c4.617-2.8 9.392-5.7 13.67-8.91a155.069 155.069 0 0 0 12.4-10.887c9.441-8.9 19.2-18.1 32.187-19.531 14.141-1.565 27.2 6.044 39.826 13.4 3.861 2.249 7.852 4.574 11.782 6.575 3.375 1.7 6.924 3.325 10.355 4.893 12.7 5.8 25.824 11.805 33.742 23.414 8 11.836 8.521 26.428 9.027 40.539.118 3.276.24 6.663.455 9.937.124 1.9.264 3.81.406 5.723 1.039 14.1 2.114 28.672-3.672 41.513-4.974 11.136-14.772 18.664-24.246 25.944-2.761 2.122-5.616 4.315-8.307 6.565a128.294 128.294 0 0 0-9.994 9.783c-8.362 8.79-17.004 17.88-28.772 17.88ZM94.952 1.016a33 33 0 0 0-3.636.2c-12.642 1.393-21.854 10.072-31.602 19.26a156.178 156.178 0 0 1-12.486 10.959c-4.32 3.24-9.116 6.151-13.754 8.967-10.991 6.669-22.356 13.569-27.689 25.177-8.261 18.155-4.267 40 .537 55.126a85.1 85.1 0 0 0 30.278 42c6.864 5.087 15.026 6.286 23.668 7.554 6.885 1.012 14 2.058 20.35 5.268 6.371 3.214 11.62 8.852 16.695 14.3 7.3 7.84 14.193 15.246 23.893 15.525 11.66.278 20.279-8.773 28.638-17.565a128.889 128.889 0 0 1 10.078-9.862c2.707-2.263 5.57-4.463 8.34-6.591 9.375-7.2 19.068-14.651 23.938-25.554 5.682-12.609 4.616-27.054 3.586-41.024-.141-1.915-.282-3.827-.406-5.731-.217-3.288-.339-6.684-.456-9.967-.5-13.968-1.021-28.412-8.853-40.005-7.758-11.374-20.755-17.315-33.325-23.061-3.439-1.572-7-3.2-10.392-4.911-3.957-2.015-7.961-4.347-11.834-6.6-11.381-6.629-23.117-13.465-35.568-13.465Z"/><path fill="#fff" d="M109.346 97.204h-.156a3.628 3.628 0 0 1-2.511-1.554 5.507 5.507 0 0 0-1.27-1.129 4.9 4.9 0 0 0-1.614-.409 4.926 4.926 0 0 1-2.3-.737 8 8 0 0 1-2.878-3.934c-.67-2.169-.666-3.879.009-5.234a5.63 5.63 0 0 1 2.478-2.336 11.238 11.238 0 0 0 1.259-.851 13.383 13.383 0 0 0 1.062-.913 5.653 5.653 0 0 1 3.044-1.807 5.878 5.878 0 0 1 3.58 1.149c.387.224.774.449 1.168.634.294.148.58.283.866.416a7.524 7.524 0 0 1 3.13 2.17 6.756 6.756 0 0 1 1.026 3.85c.016.269.031.536.054.8l.037.425a7.54 7.54 0 0 1-.345 3.934 6.625 6.625 0 0 1-2.236 2.421c-.253.194-.509.389-.758.6a10.318 10.318 0 0 0-.817.809 4.085 4.085 0 0 1-2.828 1.696Zm-2.492-17.911a2.439 2.439 0 0 0-.269.015 4.875 4.875 0 0 0-2.473 1.546 13.943 13.943 0 0 1-1.125.966 12.163 12.163 0 0 1-1.351.915 4.824 4.824 0 0 0-2.1 1.9 6.017 6.017 0 0 0 .04 4.5 6.943 6.943 0 0 0 2.5 3.414 4.07 4.07 0 0 0 1.855.559 5.742 5.742 0 0 1 1.954.52 6.341 6.341 0 0 1 1.533 1.333c.612.659 1.14 1.229 1.8 1.231.917.058 1.52-.644 2.212-1.38a10.838 10.838 0 0 1 .9-.89c.261-.22.528-.425.793-.628a5.757 5.757 0 0 0 1.931-2.039 6.785 6.785 0 0 0 .256-3.419l-.038-.428a26.452 26.452 0 0 1-.054-.823 5.9 5.9 0 0 0-.832-3.306 6.693 6.693 0 0 0-2.742-1.853 25.59 25.59 0 0 1-.881-.423c-.407-.191-.82-.43-1.232-.668a5.7 5.7 0 0 0-2.677-1.042Z"/><path fill="#e7e4df" d="M189.036 143.466c6.171-13.8 4.028-29.669 3-44.976-1.032-16.521.438-34.2-8.987-48.017-9.535-13.982-26.86-19.355-41.93-26.981-16-8.125-31.576-20.98-49.128-19.047-17.465 1.926-28.495 18.444-42.465 28.977s-32.51 16.913-39.823 32.92c-7.374 16.187-4.95 35.754.5 53.065a81.52 81.52 0 0 0 29.072 40.42c12.071 8.924 28.805 5.526 42.2 12.305 14.6 7.333 22.886 28.132 39.066 28.61 15.744.442 25.524-16.369 37.342-26.308 11.52-9.644 25.041-17.352 31.153-30.968Z"/><path fill="#fff" d="M120.64 195.949c-.2 0-.4 0-.608-.009-9.265-.238-15.716-7.146-22.545-14.458-4.582-4.907-9.321-9.982-14.986-12.848-5.641-2.844-12.053-3.789-18.253-4.7-7.67-1.131-15.6-2.3-22.045-7.094a77.616 77.616 0 0 1-27.95-38.832c-6.466-20.355-6.626-37.515-.474-51 5-10.921 15.494-17.3 25.647-23.459 4.215-2.559 8.574-5.206 12.486-8.144a136.845 136.845 0 0 0 11.424-9.98c8.594-8.09 17.481-16.449 29.338-17.754 12.858-1.415 24.768 5.489 36.285 12.163 3.582 2.076 7.286 4.223 10.932 6.061 3.107 1.579 6.382 3.079 9.549 4.53 11.534 5.284 23.455 10.746 30.663 21.369 7.37 10.806 7.827 24.148 8.269 37.051.1 2.97.207 6.041.4 9.013.112 1.768.241 3.545.37 5.325.931 12.883 1.9 26.205-3.36 37.89-4.5 10.116-13.426 16.947-22.054 23.552-2.547 1.95-5.179 3.965-7.653 6.032a116.431 116.431 0 0 0-9.13 8.944c-7.637 8.039-15.528 16.348-26.305 16.348ZM96.074 8.504a29.887 29.887 0 0 0-3.29.179c-11.517 1.265-20.278 9.5-28.751 17.474A137.477 137.477 0 0 1 52.52 36.21c-3.951 2.968-8.331 5.627-12.567 8.2-10.022 6.084-20.385 12.376-25.251 23.013-6.044 13.251-5.87 30.166.518 50.276a76.607 76.607 0 0 0 27.587 38.322c6.24 4.643 13.7 5.741 21.589 6.905 6.28.927 12.774 1.884 18.563 4.8 5.826 2.948 10.627 8.09 15.27 13.062 6.679 7.152 12.989 13.908 21.831 14.136 10.643.277 18.522-8 26.147-16.024a117.4 117.4 0 0 1 9.214-9.024c2.49-2.08 5.132-4.1 7.686-6.058 8.528-6.529 17.346-13.28 21.745-23.159 5.151-11.452 4.2-24.645 3.273-37.4a590.73 590.73 0 0 1-.369-5.334c-.192-2.986-.3-6.065-.4-9.043-.437-12.758-.89-25.951-8.093-36.514-7.05-10.389-18.844-15.791-30.249-21.015-3.176-1.455-6.46-2.959-9.585-4.546-3.671-1.851-7.388-4.006-10.983-6.089-10.372-6.015-21.067-12.214-32.372-12.214Z"/><path fill="#fff" d="M120.166 190.808c-.2 0-.4 0-.609-.01-8.791-.239-14.917-6.812-21.4-13.77-4.373-4.692-8.895-9.543-14.305-12.271s-11.533-3.635-17.453-4.513c-7.276-1.08-14.8-2.2-20.952-6.722a74.108 74.108 0 0 1-26.649-36.986c-6.144-19.457-6.3-35.8-.464-48.579 4.687-10.435 14.662-16.494 24.309-22.354 4.04-2.454 8.216-4.991 11.963-7.82a130.485 130.485 0 0 0 10.838-9.512c8.17-7.719 16.618-15.7 27.95-16.942 12.286-1.278 23.6 5.3 34.543 11.657 3.409 1.982 6.934 4.031 10.407 5.788 2.922 1.479 6 2.89 8.975 4.254 11.036 5.061 22.449 10.3 29.33 20.386 7.087 10.392 7.515 23.282 7.928 35.748.09 2.7.183 5.5.344 8.2.112 1.722.242 3.454.373 5.189.915 12.208 1.862 24.831-3.156 35.922-4.343 9.56-12.72 16.057-20.821 22.341-2.472 1.918-5.03 3.9-7.433 5.941a110.209 110.209 0 0 0-8.749 8.544c-7.261 7.624-14.77 15.509-24.969 15.509ZM96.503 12.179a29.142 29.142 0 0 0-3 .154c-10.991 1.205-18.942 8.718-27.36 16.672a131.237 131.237 0 0 1-10.929 9.588c-3.786 2.86-7.985 5.41-12.046 7.877-9.954 6.046-19.354 11.756-23.913 21.901-5.73 12.546-5.558 28.645.508 47.855a73.087 73.087 0 0 0 26.282 36.475c5.948 4.376 13.017 5.424 20.5 6.535 6 .89 12.2 1.81 17.761 4.611 5.572 2.81 10.156 7.728 14.59 12.484 6.336 6.8 12.322 13.221 20.69 13.45 10.069.3 17.56-7.572 24.814-15.192a111.248 111.248 0 0 1 8.83-8.62c2.418-2.052 4.984-4.042 7.465-5.967 8-6.208 16.28-12.628 20.519-21.959 4.911-10.854 3.973-23.346 3.067-35.427-.13-1.738-.26-3.474-.373-5.2-.162-2.716-.255-5.517-.345-8.226-.409-12.321-.831-25.062-7.751-35.211-6.723-9.857-18-15.031-28.917-20.034-2.984-1.369-6.07-2.784-9.01-4.272-3.5-1.77-7.036-3.827-10.457-5.816-9.892-5.748-20.093-11.678-30.925-11.678Z"/><path fill="#fff" d="M119.596 185.678c-.2 0-.4 0-.6-.01-8.384-.286-14.2-6.52-20.363-13.12-4.158-4.456-8.458-9.062-13.607-11.647-5.129-2.608-10.96-3.462-16.6-4.289-6.924-1.015-14.085-2.064-19.916-6.384a70.46 70.46 0 0 1-25.358-35.229c-5.885-18.414-6.038-33.943-.455-46.152 4.543-9.9 14.045-15.691 23.233-21.293 3.805-2.319 7.739-4.718 11.278-7.378a124.564 124.564 0 0 0 10.345-9.041c7.789-7.327 15.843-14.9 26.573-16.075 11.591-1.271 22.307 4.948 32.669 10.96 3.272 1.9 6.656 3.862 9.986 5.534 2.749 1.386 5.639 2.708 8.433 3.987 10.528 4.818 21.414 9.8 27.983 19.487 6.719 9.907 7.129 22.09 7.526 33.871.087 2.593.177 5.274.336 7.865.1 1.495.214 3 .328 4.506.889 11.771 1.807 23.943-2.972 34.595-4.076 9.134-12.035 15.3-19.733 21.254-2.356 1.822-4.791 3.708-7.086 5.654a106.154 106.154 0 0 0-8.151 8.021c-6.929 7.32-14.092 14.884-23.849 14.884ZM97.174 15.909a26.981 26.981 0 0 0-2.941.159c-10.39 1.136-18.318 8.594-25.985 15.803a125.293 125.293 0 0 1-10.432 9.113c-3.577 2.69-7.533 5.1-11.359 7.434-9.475 5.78-18.425 11.236-22.838 20.853-5.4 11.8-5.225 27.511.5 45.424a69.439 69.439 0 0 0 24.993 34.72c5.628 4.168 12.347 5.153 19.461 6.2 5.719.839 11.634 1.7 16.909 4.388 5.309 2.665 9.672 7.338 13.891 11.86 6.013 6.442 11.692 12.527 19.654 12.8 9.578.3 16.763-7.25 23.681-14.559a106.621 106.621 0 0 1 8.231-8.1c2.312-1.96 4.756-3.853 7.121-5.683 7.948-6.152 15.456-11.964 19.428-20.865 4.675-10.416 3.766-22.458 2.886-34.1-.114-1.51-.228-3.017-.329-4.518-.159-2.608-.25-5.3-.337-7.9-.393-11.637-.8-23.671-7.352-33.336-6.41-9.451-17.165-14.373-27.565-19.133-2.8-1.283-5.7-2.61-8.467-4-3.356-1.686-6.754-3.657-10.04-5.563-9.325-5.418-18.941-10.997-29.11-10.997Z"/><path fill="#fff" d="M118.721 180.397c-.159 0-.317 0-.477-.007-7.914-.237-13.413-6.136-19.235-12.38-3.941-4.227-8.017-8.6-12.9-11.039-4.826-2.443-10.333-3.263-15.658-4.056-6.57-.977-13.364-1.989-18.882-6.064a67.351 67.351 0 0 1-23.971-33.4c-3.795-11.99-6.939-29.311-.361-43.738 4.266-9.405 13.308-14.91 22.053-20.234 3.579-2.18 7.28-4.434 10.612-6.927a117.181 117.181 0 0 0 9.722-8.505c7.388-6.954 15.027-14.146 25.239-15.259 11.073-1.2 21.261 4.71 31.117 10.43 3.058 1.776 6.221 3.612 9.345 5.192 2.542 1.276 5.214 2.5 7.8 3.686 10.058 4.61 20.458 9.378 26.723 18.618 6.328 9.28 6.729 20.8 7.118 31.934.088 2.5.178 5.092.335 7.595.1 1.585.217 3.178.333 4.774.8 10.93 1.624 22.23-2.851 32.235-3.978 8.856-11.812 14.82-19.389 20.587-2.079 1.582-4.229 3.219-6.268 4.891a99.8 99.8 0 0 0-7.749 7.6c-6.574 6.919-13.364 14.067-22.656 14.067ZM97.774 19.651a25.975 25.975 0 0 0-2.8.151c-9.878 1.076-17.392 8.149-24.658 14.989a117.8 117.8 0 0 1-9.809 8.58c-3.371 2.523-7.093 4.79-10.693 6.981-9.009 5.486-17.519 10.668-21.657 19.788-6.444 14.135-3.336 31.192.406 43.011a66.325 66.325 0 0 0 23.611 32.885c5.313 3.924 11.683 4.873 18.427 5.877 5.405.8 10.994 1.635 15.965 4.151 5.047 2.521 9.187 6.961 13.189 11.255 5.674 6.085 11.032 11.833 18.522 12.057.148 0 .295.006.443.006 8.861 0 15.5-6.987 21.921-13.749a100.133 100.133 0 0 1 7.837-7.678c2.057-1.688 4.213-3.33 6.3-4.917 7.476-5.691 15.206-11.576 19.079-20.2 4.37-9.77 3.553-20.942 2.764-31.746-.117-1.6-.233-3.2-.333-4.785-.159-2.517-.25-5.112-.337-7.622-.384-10.994-.78-22.361-6.943-31.4-6.107-9.007-16.376-13.715-26.307-18.267-2.592-1.188-5.271-2.417-7.832-3.7-3.151-1.6-6.327-3.438-9.4-5.221-8.866-5.141-18.006-10.446-27.695-10.446Z"/><path fill="#fff" d="M118.159 175.271c-.158 0-.317 0-.477-.007-7.522-.233-12.727-5.814-18.238-11.723-3.714-3.983-7.555-8.1-12.164-10.423-4.577-2.316-9.772-3.084-14.8-3.827-6.2-.916-12.6-1.864-17.851-5.73a63.84 63.84 0 0 1-22.668-31.552c-3.575-11.372-6.537-27.768-.353-41.312 4.063-8.817 12.52-13.974 20.7-18.963 3.446-2.1 7.01-4.274 10.2-6.693a111.97 111.97 0 0 0 9.271-8.1c6.984-6.57 14.2-13.362 23.809-14.406 10.365-1.132 19.945 4.424 29.209 9.791 2.937 1.7 5.975 3.463 8.971 4.966 2.477 1.248 5.086 2.438 7.609 3.589 9.405 4.29 19.132 8.726 25 17.376 5.966 8.8 6.354 19.662 6.729 30.163.086 2.389.174 4.858.329 7.244.095 1.44.2 2.886.312 4.333.781 10.4 1.59 21.157-2.693 30.668-3.714 8.352-11.1 14-18.235 19.462-1.957 1.5-3.98 3.045-5.9 4.628a95.14 95.14 0 0 0-7.4 7.241c-6.217 6.523-12.639 13.275-21.36 13.275Zm-19.85-151.87a24.077 24.077 0 0 0-2.607.14c-9.266 1.003-16.046 7.38-23.228 14.13a113.006 113.006 0 0 1-9.355 8.175c-3.229 2.447-6.815 4.634-10.283 6.749-8.42 5.134-16.373 9.985-20.3 18.519-6.051 13.25-3.124 29.383.4 40.583a62.823 62.823 0 0 0 22.3 31.043c5.044 3.715 11.044 4.6 17.4 5.542 5.1.754 10.382 1.534 15.1 3.923 4.771 2.405 8.674 6.59 12.449 10.638 5.363 5.75 10.428 11.181 17.526 11.4 8.5.224 14.9-6.47 21.07-12.957a95.644 95.644 0 0 1 7.493-7.315c1.937-1.6 3.968-3.15 5.932-4.653 7.361-5.633 14.316-10.953 17.924-19.07 4.178-9.276 3.38-19.9 2.607-30.176-.108-1.45-.217-2.9-.312-4.343-.155-2.4-.244-4.878-.33-7.273-.37-10.358-.754-21.069-6.556-29.63-5.7-8.415-15.3-12.791-24.576-17.024-2.532-1.154-5.149-2.348-7.644-3.6-3.022-1.516-6.073-3.284-9.024-4.994-8.33-4.837-16.921-9.811-25.986-9.811Z"/><path fill="#fff" d="M117.748 170.032c-.155 0-.311 0-.468-.007-7.136-.23-12.3-5.764-17.3-11.116-3.482-3.731-7.082-7.588-11.368-9.757-4.323-2.188-9.216-2.9-13.948-3.594-5.836-.853-11.871-1.735-16.808-5.4a60.152 60.152 0 0 1-21.362-29.708c-4.864-15.37-4.987-28.847-.355-38.972 3.786-8.323 11.783-13.193 19.517-17.9 3.221-1.962 6.552-3.991 9.536-6.242a104.808 104.808 0 0 0 8.647-7.565c6.582-6.2 13.389-12.606 22.475-13.589 9.832-1.061 18.884 4.185 27.644 9.26 2.732 1.583 5.558 3.221 8.342 4.623 2.381 1.211 4.885 2.36 7.306 3.471 8.806 4.04 17.912 8.218 23.4 16.325 5.592 8.254 5.967 18.442 6.329 28.295.084 2.278.17 4.633.321 6.9.084 1.209.176 2.423.268 3.639.754 9.969 1.534 20.276-2.51 29.351-3.441 7.775-10.216 13-16.768 18.056-1.945 1.5-3.957 3.053-5.842 4.644a87.639 87.639 0 0 0-7.025 6.855c-5.817 6.113-11.832 12.431-20.031 12.431ZM98.885 27.055a22.922 22.922 0 0 0-2.461.132c-8.748.946-15.429 7.236-21.889 13.318a105.493 105.493 0 0 1-8.732 7.64c-3.024 2.281-6.377 4.323-9.619 6.3-7.953 4.843-15.465 9.418-19.122 17.457-5.718 12.5-2.938 27.7.4 38.244a59.123 59.123 0 0 0 21 29.2c4.731 3.512 10.374 4.336 16.348 5.209 4.813.7 9.79 1.431 14.26 3.693 4.447 2.251 8.11 6.175 11.652 9.97 5.078 5.441 9.874 10.578 16.588 10.8 7.958.234 13.958-6.042 19.735-12.109a88.4 88.4 0 0 1 7.107-6.934c1.9-1.6 3.921-3.162 5.875-4.669 6.451-4.977 13.123-10.125 16.46-17.663 3.941-8.843 3.17-19.02 2.426-28.863a464.247 464.247 0 0 1-.268-3.648c-.152-2.287-.239-4.649-.323-6.934-.357-9.711-.726-19.751-6.155-27.764-5.333-7.871-14.307-11.99-22.985-15.972-2.431-1.115-4.945-2.268-7.342-3.488-2.809-1.415-5.648-3.059-8.392-4.65-7.868-4.567-15.983-9.269-24.563-9.269Z"/><path fill="#fff" d="M117.165 164.818c-.152 0-.305 0-.459-.007-6.663-.18-11.494-5.361-16.165-10.373-3.266-3.5-6.642-7.125-10.665-9.15s-8.611-2.7-13.05-3.359c-5.5-.813-11.193-1.654-15.815-5.074a56.531 56.531 0 0 1-20.062-27.864c-3.214-10-5.884-24.465-.346-36.548 3.567-7.827 11.1-12.407 18.393-16.837 3.006-1.826 6.114-3.714 8.9-5.8a101.28 101.28 0 0 0 8.059-7.067c6.188-5.823 12.587-11.844 21.09-12.822 9.3-1.007 17.82 3.988 26.068 8.814 2.511 1.469 5.108 2.989 7.656 4.291 2.111 1.051 4.333 2.063 6.481 3.042 8.405 3.826 17.1 7.783 22.32 15.5 5.338 7.772 5.66 17.381 5.971 26.674.07 2.083.143 4.237.272 6.322.082 1.3.177 2.617.273 3.933.667 9.152 1.356 18.615-2.392 26.963-3.266 7.326-9.636 12.262-15.8 17.036-1.786 1.384-3.633 2.815-5.376 4.283a81.312 81.312 0 0 0-6.51 6.36c-5.467 5.743-11.119 11.683-18.843 11.683ZM99.456 30.799a21.459 21.459 0 0 0-2.3.122c-8.165.939-14.159 6.58-20.506 12.553a101.781 101.781 0 0 1-8.144 7.138c-2.827 2.121-5.956 4.023-8.983 5.862-7.487 4.549-14.559 8.846-18 16.391-5.4 11.788-2.77 25.983.39 35.816a55.511 55.511 0 0 0 19.7 27.359c4.417 3.268 9.732 4.054 15.36 4.885 4.517.668 9.189 1.359 13.357 3.456 4.186 2.108 7.625 5.8 10.95 9.365 4.738 5.083 9.213 9.883 15.453 10.051 7.482.208 13.117-5.667 18.539-11.366a82.571 82.571 0 0 1 6.593-6.438c1.758-1.48 3.613-2.918 5.408-4.309 6.061-4.7 12.328-9.553 15.493-16.648 3.643-8.114 2.962-17.448 2.305-26.473-.1-1.319-.192-2.635-.274-3.944-.13-2.1-.2-4.261-.273-6.351-.306-9.147-.623-18.606-5.795-26.137-5.066-7.482-13.626-11.379-21.9-15.147-2.156-.982-4.386-2-6.517-3.06-2.579-1.317-5.188-2.844-7.711-4.32-7.41-4.333-15.048-8.805-23.145-8.805Z"/><path fill="#fff" d="M116.511 159.698c-.15 0-.3 0-.449-.008-6.254-.176-10.769-5.024-15.135-9.712-3.05-3.273-6.2-6.658-9.959-8.538-3.744-1.906-8.013-2.535-12.141-3.143-5.114-.752-10.4-1.53-14.749-4.737a52.794 52.794 0 0 1-18.675-26.034c-4.343-13.672-4.456-25.152-.336-34.12 3.32-7.273 10.294-11.517 17.037-15.622 2.838-1.728 5.77-3.513 8.407-5.506a92.3 92.3 0 0 0 7.569-6.628c5.777-5.441 11.752-11.066 19.713-11.92 8.635-1 16.62 3.654 24.343 8.148 2.35 1.368 4.781 2.783 7.17 4 1.951.967 4 1.9 5.985 2.8 7.875 3.571 16.019 7.264 20.91 14.492 4.964 7.225 5.273 16.166 5.57 24.813.068 1.97.138 4.007.263 5.976.078 1.159.166 2.324.254 3.49.65 8.626 1.322 17.545-2.235 25.4-3.05 6.787-8.968 11.39-14.69 15.84-1.707 1.327-3.47 2.7-5.13 4.108a76.124 76.124 0 0 0-6.158 6.015c-5.092 5.35-10.353 10.886-17.564 10.886ZM100.157 34.61a19.631 19.631 0 0 0-2.252.128c-7.626.819-13.214 6.08-19.13 11.651a93.375 93.375 0 0 1-7.653 6.7c-2.674 2.021-5.631 3.821-8.49 5.561-6.917 4.211-13.451 8.188-16.643 15.179-4.011 8.732-3.883 19.966.381 33.391a51.763 51.763 0 0 0 18.314 25.526c4.139 3.053 9.07 3.78 14.291 4.547 4.209.621 8.561 1.261 12.45 3.241 3.917 1.96 7.134 5.413 10.244 8.753 4.419 4.744 8.592 9.224 14.423 9.389 6.968.212 12.205-5.264 17.247-10.571a76.88 76.88 0 0 1 6.241-6.093c1.672-1.419 3.445-2.8 5.16-4.132 5.624-4.374 11.441-8.9 14.388-15.456 3.45-7.619 2.788-16.407 2.147-24.905a386.913 386.913 0 0 1-.254-3.5c-.127-1.985-.2-4.03-.265-6.007-.293-8.5-.6-17.292-5.394-24.277-4.732-6.994-12.743-10.627-20.488-14.14-1.991-.9-4.051-1.836-6.022-2.813-2.419-1.23-4.862-2.652-7.225-4.027-6.892-4.01-13.996-8.145-21.47-8.145Z"/><path fill="#fff" d="M115.73 154.407h-.334c-5.8-.178-9.986-4.679-14.033-9.032-2.827-3.042-5.751-6.187-9.244-7.955-3.506-1.787-7.5-2.376-11.353-2.946-4.736-.7-9.632-1.424-13.643-4.37a48.792 48.792 0 0 1-17.374-24.189c-3.942-12.528-4.026-23.492-.242-31.708 3.1-6.778 9.616-10.733 15.915-14.558 2.622-1.592 5.333-3.238 7.768-5.068a83.748 83.748 0 0 0 7.084-6.197c5.33-5.022 10.843-10.215 18.241-11 8.021-.855 15.4 3.433 22.539 7.579 2.222 1.293 4.521 2.629 6.791 3.777 1.841.916 3.782 1.8 5.66 2.646 7.282 3.3 14.812 6.709 19.33 13.389 4.6 6.748 4.9 15.031 5.182 23.042.065 1.855.133 3.774.255 5.625.071 1.166.153 2.336.236 3.508.555 7.909 1.131 16.088-2.09 23.286-2.917 6.429-8.584 10.77-14.065 14.97-1.5 1.145-3.04 2.329-4.507 3.538a70.528 70.528 0 0 0-5.759 5.578c-4.756 4.959-9.67 10.085-16.357 10.085ZM100.585 38.286a18.5 18.5 0 0 0-1.962.1c-7.059.753-12.2 5.6-17.653 10.734a84.713 84.713 0 0 1-7.171 6.266c-2.474 1.858-5.207 3.518-7.85 5.122-6.453 3.918-12.547 7.618-15.519 14.114-4.647 10.087-2.409 22.414.287 30.978a47.754 47.754 0 0 0 17.008 23.679c3.807 2.8 8.364 3.469 13.189 4.183 3.939.582 8.011 1.184 11.665 3.045s6.639 5.062 9.527 8.169c4.085 4.394 7.944 8.544 13.319 8.709h.3c6.258 0 11.019-4.968 15.626-9.773a71.6 71.6 0 0 1 5.846-5.66c1.482-1.22 3.034-2.41 4.535-3.559 5.629-4.313 10.947-8.387 13.758-14.583 3.116-6.966 2.551-15.015 2-22.8-.082-1.176-.165-2.349-.235-3.517-.123-1.863-.192-3.789-.257-5.652-.28-7.867-.569-16-5.007-22.508-4.358-6.444-11.756-9.8-18.91-13.035-1.886-.854-3.836-1.738-5.7-2.663-2.3-1.163-4.611-2.507-6.847-3.806-6.387-3.71-12.981-7.543-19.949-7.543Z"/><path fill="#fff" d="M115.233 149.182h-.325c-5.39-.121-9.263-4.285-13.009-8.312-2.605-2.8-5.3-5.7-8.517-7.316s-6.869-2.143-10.4-2.664c-4.414-.65-8.979-1.324-12.706-4.091a44.534 44.534 0 0 1-16.069-22.347c-3.667-11.833-3.745-21.681-.233-29.281 2.871-6.339 8.906-10.014 14.743-13.567 2.393-1.457 4.867-2.964 7.08-4.63a78.658 78.658 0 0 0 6.484-5.7c4.948-4.677 10.065-9.513 16.957-10.243 7.323-.776 14.09 3.148 20.634 6.943 2.1 1.218 4.273 2.478 6.411 3.547 1.75.88 3.588 1.719 5.365 2.53 6.681 3.05 13.589 6.2 17.736 12.337 4.315 6.326 4.575 14.108 4.827 21.633.055 1.623.108 3.239.2 4.831.065 1.025.14 2.057.215 3.092.535 7.374 1.089 15-1.933 21.689-2.63 5.961-7.834 9.923-12.866 13.754-1.4 1.064-2.84 2.162-4.2 3.283a67.061 67.061 0 0 0-5.158 5.055c-4.419 4.646-8.989 9.457-15.236 9.457ZM101.111 41.947a16.684 16.684 0 0 0-1.767.093c-6.551.694-11.319 5.2-16.367 9.972a79.414 79.414 0 0 1-6.571 5.768c-2.252 1.7-4.748 3.217-7.162 4.686-5.97 3.634-11.605 7.065-14.348 13.124-3.405 7.368-3.311 16.975.278 28.555a43.52 43.52 0 0 0 15.7 21.834c3.524 2.615 7.764 3.24 12.252 3.9 3.611.533 7.345 1.083 10.707 2.761 3.383 1.7 6.14 4.665 8.806 7.531 3.768 4.051 7.327 7.878 12.292 7.991 5.959.11 10.457-4.568 14.8-9.137a67.724 67.724 0 0 1 5.245-5.137c1.378-1.137 2.831-2.241 4.234-3.309 4.931-3.755 10.03-7.637 12.555-13.36 2.916-6.455 2.373-13.95 1.845-21.2-.075-1.039-.15-2.074-.215-3.1a174.11 174.11 0 0 1-.2-4.859c-.247-7.381-.5-15.012-4.652-21.1-3.989-5.9-10.765-8.993-17.317-11.984-1.787-.815-3.633-1.658-5.4-2.546-2.167-1.083-4.352-2.351-6.467-3.577-5.858-3.401-11.901-6.906-18.248-6.906Z"/><path fill="#fff" d="M114.655 143.971h-.32c-4.984-.169-8.535-3.978-11.97-7.663-2.39-2.564-4.861-5.216-7.817-6.69-2.935-1.485-6.277-1.973-9.507-2.444-4.041-.589-8.219-1.2-11.629-3.762a41.017 41.017 0 0 1-14.763-20.5c-2.324-7.356-4.249-17.984-.225-26.853 2.621-5.779 8.114-9.118 13.425-12.347a77.477 77.477 0 0 0 6.635-4.351 71.36 71.36 0 0 0 6.01-5.255c4.525-4.265 9.2-8.674 15.477-9.333 6.777-.716 13.024 2.907 19.063 6.409 1.9 1.1 3.86 2.238 5.788 3.208 1.526.756 3.139 1.486 4.7 2.193 6.222 2.818 12.655 5.733 16.5 11.419 3.929 5.764 4.178 12.841 4.42 19.686.053 1.532.107 3.061.2 4.57.058.872.125 1.748.191 2.624.517 6.82 1.05 13.874-1.771 20.151-2.427 5.449-7.17 9.089-11.758 12.607-1.286.989-2.617 2.009-3.87 3.05a62.331 62.331 0 0 0-4.77 4.65c-4.062 4.239-8.258 8.631-14.009 8.631Zm-12.958-98.282a15.49 15.49 0 0 0-1.62.084c-5.932.624-10.282 4.724-14.888 9.063a71.892 71.892 0 0 1-6.094 5.328 78.135 78.135 0 0 1-6.721 4.407c-5.419 3.294-10.536 6.406-13.028 11.9-3.891 8.576-2 18.942.268 26.127a40 40 0 0 0 14.4 19.991c3.208 2.411 7.075 2.976 11.169 3.573 3.313.483 6.737.982 9.818 2.541 3.117 1.555 5.652 4.275 8.1 6.905 3.446 3.7 6.7 7.186 11.26 7.342 5.457.154 9.4-3.962 13.56-8.318a62.865 62.865 0 0 1 4.852-4.727c1.27-1.056 2.609-2.083 3.9-3.076 4.487-3.443 9.127-7 11.448-12.217 2.716-6.042 2.192-12.965 1.685-19.659-.066-.878-.132-1.757-.192-2.633-.1-1.522-.149-3.06-.2-4.6-.235-6.7-.479-13.629-4.245-19.152-3.682-5.451-9.982-8.305-16.074-11.065-1.568-.71-3.189-1.444-4.733-2.209-1.959-.985-3.933-2.131-5.844-3.238-5.394-3.137-10.965-6.367-16.821-6.367Z"/><path fill="#fff" d="M114.093 138.919h-.308c-4.511-.17-7.723-3.631-10.829-6.977-2.18-2.349-4.434-4.776-7.134-6.111a27.556 27.556 0 0 0-8.7-2.263c-3.654-.536-7.433-1.091-10.542-3.379a37.726 37.726 0 0 1-13.38-18.67c-2.148-6.683-3.931-16.365-.227-24.511 2.407-5.294 7.418-8.343 12.265-11.292 2.009-1.222 4.087-2.486 5.948-3.892a64 64 0 0 0 5.388-4.723c4.124-3.893 8.389-7.918 14.144-8.518 6.342-.729 12.136 2.7 17.744 6.008 1.587.938 3.227 1.907 4.834 2.749 1.426.716 2.936 1.407 4.4 2.075 5.619 2.568 11.427 5.225 14.9 10.365 3.555 5.214 3.79 11.62 4.017 17.816.053 1.42.1 2.835.2 4.231.053.881.113 1.763.175 2.645.421 6.1.856 12.415-1.628 18.034v.007c-2.193 4.781-6.379 8.063-10.428 11.235-1.25.979-2.544 1.993-3.757 3.034a53.6 53.6 0 0 0-4.432 4.326c-3.669 3.842-7.437 7.811-12.65 7.811ZM102.436 49.5a14.068 14.068 0 0 0-1.61.092c-5.419.565-9.373 4.3-13.558 8.247a64.764 64.764 0 0 1-5.472 4.792c-1.9 1.435-4 2.713-6.031 3.948-4.932 3-9.591 5.836-11.869 10.845-3.57 7.851-1.823 17.268.271 23.785a36.718 36.718 0 0 0 13.019 18.162c2.9 2.133 6.39 2.646 10.083 3.188a28.329 28.329 0 0 1 9.01 2.36c2.861 1.414 5.179 3.912 7.421 6.328 3.1 3.341 6.032 6.5 10.119 6.653 4.914.146 8.44-3.565 12.171-7.492a54.5 54.5 0 0 1 4.514-4.4c1.224-1.05 2.526-2.07 3.785-3.057 4.135-3.24 8.04-6.3 10.13-10.856 2.382-5.388 1.955-11.572 1.542-17.551-.061-.886-.122-1.771-.175-2.652-.092-1.4-.143-2.828-.2-4.257-.223-6.052-.452-12.31-3.844-17.284-3.31-4.905-8.987-7.5-14.477-10.012-1.469-.671-2.989-1.366-4.439-2.094-1.637-.858-3.289-1.834-4.888-2.778-4.964-2.939-10.096-5.967-15.502-5.967Z"/><path fill="#fff" d="M113.509 133.623c-.1 0-.2 0-.31-.006-4.142-.117-7.086-3.271-9.932-6.321-1.93-2.068-3.926-4.207-6.286-5.412a25.344 25.344 0 0 0-7.743-1.978c-3.333-.488-6.78-.991-9.605-3.1a34.21 34.21 0 0 1-12.074-16.823c-2.793-8.85-2.866-16.281-.218-22.089 2.187-4.8 6.74-7.558 11.141-10.227 1.794-1.087 3.649-2.211 5.312-3.456a58.745 58.745 0 0 0 4.929-4.314c3.72-3.508 7.567-7.135 12.716-7.665 5.62-.571 10.8 2.43 15.816 5.34 1.5.868 3.045 1.767 4.561 2.541 1.253.623 2.57 1.225 3.844 1.807 5.079 2.32 10.332 4.72 13.545 9.377 3.24 4.7 3.441 10.407 3.635 15.929.047 1.32.095 2.687.184 4 .048.74.1 1.481.155 2.223.4 5.573.817 11.336-1.47 16.45v.007c-2.039 4.378-5.906 7.374-9.646 10.271a105.885 105.885 0 0 0-3.2 2.546 47.553 47.553 0 0 0-4.048 3.921c-3.285 3.433-6.671 6.979-11.306 6.979ZM102.84 53.176a12.574 12.574 0 0 0-1.3.066c-4.807.494-8.361 3.845-12.124 7.393a59.224 59.224 0 0 1-5.017 4.388c-1.7 1.275-3.579 2.412-5.393 3.512-4.468 2.708-8.687 5.266-10.745 9.78-2.541 5.572-2.452 12.759.262 21.361a33.19 33.19 0 0 0 11.715 16.318c2.618 1.954 5.788 2.418 9.144 2.908a26.046 26.046 0 0 1 8.054 2.077c2.522 1.287 4.58 3.492 6.57 5.625 2.828 3.031 5.5 5.9 9.222 6 4.3.137 7.5-3.157 10.843-6.658a48.136 48.136 0 0 1 4.136-4c1.05-.879 2.157-1.737 3.228-2.567 3.812-2.953 7.412-5.742 9.347-9.894 2.181-4.881 1.775-10.512 1.382-15.959a248.3 248.3 0 0 1-.154-2.23c-.092-1.329-.14-2.7-.187-4.033-.189-5.375-.384-10.934-3.457-15.387-3.054-4.427-8.177-6.768-13.131-9.031-1.281-.586-2.606-1.191-3.878-1.824-1.546-.789-3.106-1.694-4.615-2.57-4.468-2.598-9.083-5.275-13.902-5.275Z"/><path fill="#fff" d="M113.017 128.398c-.1 0-.2 0-.305-.006-3.669-.118-6.274-2.923-8.792-5.635a21.685 21.685 0 0 0-5.6-4.833 22.8 22.8 0 0 0-6.958-1.783c-2.954-.434-6.009-.885-8.5-2.732A30.613 30.613 0 0 1 72.09 98.43c-1.743-5.369-3.195-13.141-.21-19.666 1.91-4.3 6-6.776 9.961-9.167 1.569-.947 3.191-1.927 4.648-3a53.02 53.02 0 0 0 4.293-3.749c3.325-3.119 6.762-6.344 11.386-6.875 5.008-.51 9.606 2.143 14.043 4.708 1.357.784 2.761 1.6 4.144 2.3 1.128.566 2.319 1.11 3.47 1.636 4.508 2.06 9.169 4.19 12.028 8.383 2.861 4.252 3.027 9.4 3.187 14.371.036 1.126.072 2.251.14 3.364.043.822.1 1.647.153 2.474.318 4.773.647 9.707-1.346 14.1-1.753 3.913-5.16 6.531-8.456 9.064-.963.739-1.958 1.5-2.886 2.284a46.488 46.488 0 0 0-3.326 3.309c-2.979 3.16-6.056 6.432-10.302 6.432Zm-9.6-71.479a10.973 10.973 0 0 0-1.142.058c-4.282.492-7.448 3.462-10.8 6.605a53.708 53.708 0 0 1-4.382 3.824c-1.5 1.108-3.141 2.1-4.729 3.06-4 2.415-7.778 4.7-9.561 8.715-2.851 6.233-1.437 13.737.25 18.936a29.594 29.594 0 0 0 10.412 14.478c2.285 1.695 5.081 2.107 8.041 2.542a23.591 23.591 0 0 1 7.267 1.88 22.41 22.41 0 0 1 5.891 5.05c2.486 2.678 4.835 5.207 8.083 5.311 3.957.134 6.939-3.036 9.831-6.112a47.493 47.493 0 0 1 3.407-3.387c.951-.8 1.954-1.57 2.926-2.316 3.2-2.456 6.5-5 8.15-8.676 1.887-4.164 1.567-8.969 1.256-13.616-.055-.833-.111-1.663-.154-2.486-.067-1.117-.1-2.251-.141-3.388-.155-4.831-.316-9.827-3.012-13.834-2.7-3.957-7.229-6.027-11.61-8.029-1.159-.53-2.358-1.078-3.5-1.653-1.41-.713-2.826-1.532-4.195-2.324-3.95-2.286-8.02-4.638-12.289-4.638Z"/><path fill="#fff" d="M112.226 123.106h-.177c-3.206-.066-5.507-2.523-7.733-4.9a18.972 18.972 0 0 0-4.917-4.209 19.977 19.977 0 0 0-5.944-1.519c-2.6-.389-5.3-.791-7.539-2.445a26.447 26.447 0 0 1-9.472-13.139c-1.5-4.719-2.736-11.543-.114-17.249 1.708-3.718 5.217-5.843 8.611-7.9a48 48 0 0 0 4.23-2.767 43.923 43.923 0 0 0 3.936-3.384c2.874-2.674 5.847-5.439 9.878-5.9 4.327-.433 8.292 1.858 12.134 4.069 1.236.712 2.515 1.447 3.771 2.07 1.056.541 2.161 1.052 3.229 1.546 3.883 1.8 7.9 3.656 10.364 7.218 2.491 3.707 2.643 8.184 2.789 12.514.035 1.012.069 2.02.132 3.016.035.6.075 1.206.116 1.808.29 4.326.588 8.8-1.169 12.759-1.621 3.557-4.784 5.915-7.842 8.194-.761.567-1.522 1.134-2.259 1.719a40.327 40.327 0 0 0-2.919 2.882c-2.618 2.763-5.323 5.617-9.105 5.617Zm-8.187-62.452a9.392 9.392 0 0 0-.946.047c-3.692.424-6.414 2.957-9.295 5.637a45.034 45.034 0 0 1-4.02 3.455 48.911 48.911 0 0 1-4.311 2.821c-3.413 2.067-6.637 4.019-8.215 7.454-2.486 5.41-1.285 11.969.16 16.518a25.421 25.421 0 0 0 9.108 12.63c2.037 1.5 4.489 1.869 7.084 2.257a20.863 20.863 0 0 1 6.247 1.613 19.764 19.764 0 0 1 5.207 4.425c2.176 2.324 4.233 4.521 7.013 4.579 3.4.053 5.9-2.532 8.522-5.3a41 41 0 0 1 3.01-2.966c.759-.6 1.528-1.176 2.3-1.749 3.091-2.3 6.011-4.481 7.524-7.8 1.655-3.731 1.364-8.075 1.084-12.277-.04-.606-.081-1.211-.116-1.815-.064-1-.1-2.021-.133-3.042-.143-4.187-.29-8.518-2.614-11.978-2.3-3.329-6.019-5.048-9.952-6.868-1.078-.5-2.191-1.014-3.26-1.561-1.279-.634-2.571-1.377-3.821-2.1-3.412-1.956-6.929-3.98-10.576-3.98Z"/><path fill="#fff" d="M111.728 117.882h-.167c-2.8-.062-4.782-2.184-6.7-4.237a16 16 0 0 0-4.209-3.6 16.915 16.915 0 0 0-5.154-1.332c-2.232-.335-4.54-.68-6.438-2.069a22.937 22.937 0 0 1-8.169-11.293c-1.86-5.97-1.9-10.957-.106-14.827 1.443-3.169 4.5-5.03 7.446-6.83 1.2-.734 2.446-1.492 3.549-2.322A40.571 40.571 0 0 0 95 68.558c2.519-2.361 5.124-4.8 8.622-5.2 3.837-.369 7.243 1.6 10.545 3.516 1.037.6 2.109 1.221 3.165 1.749a75.92 75.92 0 0 0 2.556 1.2c3.381 1.542 6.877 3.137 9.047 6.319 2.117 3.161 2.259 7.016 2.4 10.743.033.9.066 1.786.126 2.66l.084.962c.345 3.938.7 8.011-.916 11.591-1.305 2.938-3.882 4.92-6.375 6.838-.719.553-1.434 1.1-2.109 1.67a32.467 32.467 0 0 0-2.664 2.572c-2.226 2.313-4.522 4.704-7.753 4.704Zm-7.173-53.559c-.275 0-.55.013-.827.04-3.156.363-5.526 2.584-8.035 4.936a41.232 41.232 0 0 1-3.3 2.884c-1.142.861-2.407 1.632-3.63 2.378-2.951 1.8-5.738 3.5-7.053 6.387-1.681 3.638-1.63 8.38.15 14.1a21.926 21.926 0 0 0 7.8 10.784c1.7 1.239 3.781 1.551 5.988 1.882a17.73 17.73 0 0 1 5.457 1.428 16.743 16.743 0 0 1 4.5 3.811c1.858 1.986 3.613 3.863 5.984 3.917h.14c2.8 0 4.851-2.135 7.02-4.393a32.942 32.942 0 0 1 2.747-2.65c.684-.574 1.409-1.132 2.14-1.7 2.392-1.839 4.867-3.743 6.066-6.446 1.509-3.338 1.163-7.277.829-11.085l-.084-.973c-.061-.893-.094-1.794-.128-2.7-.132-3.586-.269-7.294-2.224-10.213-2.008-2.944-5.373-4.479-8.627-5.964-.873-.4-1.743-.795-2.588-1.218-1.084-.541-2.17-1.17-3.221-1.778-2.915-1.688-5.919-3.427-9.104-3.427Z"/><path fill="#fff" d="M111.168 112.75h-.171c-2.339-.066-3.993-1.841-5.593-3.558a13.6 13.6 0 0 0-3.5-3.014 13.821 13.821 0 0 0-4.3-1.1 11.346 11.346 0 0 1-5.4-1.743 18.593 18.593 0 0 1-6.779-9.463c-1.589-4.944-1.621-9.117-.094-12.4 1.291-2.687 3.864-4.257 6.353-5.775.975-.594 1.982-1.209 2.883-1.876a31.865 31.865 0 0 0 2.733-2.375c2.072-1.943 4.214-3.952 7.149-4.289 3.178-.371 6.045 1.313 8.816 2.937.859.5 1.747 1.024 2.617 1.464.719.365 1.469.706 2.223 1.049 2.79 1.27 5.675 2.584 7.471 5.218 1.822 2.731 1.933 6.056 2.038 9.272.022.647.043 1.292.078 1.932.03.419.064.849.1 1.281.25 3.112.509 6.33-.809 9.175-1.17 2.529-3.316 4.173-5.392 5.764-.589.452-1.177.9-1.74 1.37a28.926 28.926 0 0 0-2.063 2.037c-1.914 2.015-3.887 4.094-6.62 4.094Zm-5.842-44.624a6.716 6.716 0 0 0-.76.043c-2.6.3-4.529 2.108-6.57 4.022a32.611 32.611 0 0 1-2.823 2.451c-.938.693-1.965 1.32-2.959 1.926-2.471 1.508-4.806 2.932-5.964 5.343-1.413 3.034-1.365 6.959.145 11.657a17.578 17.578 0 0 0 6.414 8.952 10.42 10.42 0 0 0 4.941 1.554 14.663 14.663 0 0 1 4.615 1.2 14.339 14.339 0 0 1 3.782 3.229c1.524 1.635 2.963 3.181 4.88 3.235 2.364.052 4.145-1.793 6.027-3.772a30.01 30.01 0 0 1 2.143-2.112 52.318 52.318 0 0 1 1.778-1.4c2.069-1.586 4.023-3.084 5.089-5.386 1.205-2.6.957-5.686.717-8.667a157.2 157.2 0 0 1-.1-1.3 80.193 80.193 0 0 1-.079-1.962c-.1-3.074-.207-6.252-1.866-8.738-1.634-2.395-4.387-3.649-7.051-4.861-.766-.349-1.528-.7-2.261-1.067-.9-.455-1.8-.983-2.671-1.494-2.392-1.408-4.858-2.853-7.427-2.853Z"/><path fill="#fff" d="M110.513 107.631h-.164c-1.924 0-3.269-1.447-4.57-2.84a10.574 10.574 0 0 0-2.765-2.372 10.931 10.931 0 0 0-3.291-.833 9.352 9.352 0 0 1-4.435-1.453 15.088 15.088 0 0 1-5.477-7.615c-.918-2.731-1.683-6.7-.1-10.064.973-2.193 3.024-3.449 5.008-4.663.8-.49 1.627-1 2.362-1.555a26.6 26.6 0 0 0 2.137-1.881c1.69-1.6 3.437-3.251 5.866-3.53 2.632-.308 4.98 1.073 7.245 2.405.666.392 1.329.782 2 1.125.626.329 1.272.629 1.919.931 2.191 1.02 4.455 2.075 5.879 4.164 1.447 2.179 1.544 4.831 1.637 7.4.019.537.039 1.072.071 1.6l.04.47c.232 2.676.473 5.443-.606 7.967v.007a12.832 12.832 0 0 1-4.2 4.578c-.527.415-1.057.831-1.563 1.272a21.47 21.47 0 0 0-1.692 1.657c-1.524 1.585-3.09 3.23-5.301 3.23Zm-4.7-35.836a5.262 5.262 0 0 0-.613.035c-2.093.241-3.642 1.707-5.284 3.259a27.587 27.587 0 0 1-2.22 1.952c-.777.589-1.625 1.109-2.447 1.612-1.936 1.186-3.765 2.305-4.614 4.221-1.446 3.069-.722 6.763.139 9.323a14.079 14.079 0 0 0 5.11 7.114 8.479 8.479 0 0 0 3.99 1.268 11.858 11.858 0 0 1 3.593.928 11.336 11.336 0 0 1 3.057 2.589c1.207 1.292 2.346 2.513 3.848 2.518 1.835.09 3.24-1.384 4.7-2.921a22.829 22.829 0 0 1 1.769-1.728 39.85 39.85 0 0 1 1.6-1.3c1.6-1.26 3.119-2.452 3.9-4.19.978-2.29.759-4.809.527-7.477l-.042-.483c-.033-.549-.052-1.092-.072-1.637-.088-2.423-.18-4.93-1.465-6.865-1.262-1.853-3.3-2.805-5.466-3.811-.661-.309-1.322-.617-1.959-.951a44.073 44.073 0 0 1-2.04-1.15c-1.939-1.13-3.931-2.306-6.01-2.306Z"/><path fill="#fff" d="M109.942 102.501h-.158c-1.479-.066-2.51-1.162-3.506-2.221a8.057 8.057 0 0 0-2.008-1.729 8.418 8.418 0 0 0-2.5-.636 7.2 7.2 0 0 1-3.327-1.084 11.555 11.555 0 0 1-4.179-5.784c-.958-2.954-.991-5.592-.092-7.619.828-1.724 2.4-2.688 3.917-3.619.574-.351 1.166-.715 1.7-1.111.508-.389 1-.848 1.514-1.334 1.313-1.233 2.671-2.508 4.528-2.721 2.1-.246 3.922.836 5.685 1.878.457.271.911.539 1.365.78s.939.46 1.419.68a10.069 10.069 0 0 1 4.468 3.159c1.12 1.583 1.18 3.528 1.238 5.408.014.463.029.924.059 1.376l.059.832a11.344 11.344 0 0 1-.5 5.519v.011a10.3 10.3 0 0 1-3.225 3.5c-.4.315-.8.633-1.184.971a16.127 16.127 0 0 0-1.224 1.237c-1.143 1.233-2.317 2.507-4.049 2.507Zm-3.526-26.88a4.121 4.121 0 0 0-.469.026c-1.522.176-2.7 1.282-3.948 2.454-.513.481-1.043.979-1.6 1.4-.577.427-1.189.8-1.78 1.165-1.458.894-2.835 1.738-3.526 3.18-1 2.253-.477 4.992.137 6.89a10.531 10.531 0 0 0 3.812 5.268 6.342 6.342 0 0 0 2.878.9 9.311 9.311 0 0 1 2.8.731 8.8 8.8 0 0 1 2.294 1.942c.9.954 1.744 1.854 2.811 1.9 1.363.062 2.35-1.027 3.414-2.179a17.2 17.2 0 0 1 1.3-1.314c.4-.347.81-.675 1.219-1a9.438 9.438 0 0 0 2.934-3.132 10.437 10.437 0 0 0 .414-5.032l-.059-.84c-.032-.462-.046-.936-.061-1.411-.057-1.81-.109-3.52-1.057-4.861a9.175 9.175 0 0 0-4.055-2.808c-.493-.227-.987-.455-1.466-.7s-.939-.526-1.41-.8c-1.473-.88-2.992-1.779-4.582-1.779Z"/></svg>