<svg fill="none" xmlns="http://www.w3.org/2000/svg" viewBox="0 0 211 196"><path d="M111.4 3.4c16.1 1.2 33 1.4 46.7 9.9 13.5 8.3 20 23.4 28.6 36.5 9 13.8 25.4 26.3 23 42.4-2.4 16.6-25 22-34.5 35.9-8.7 12.7-7.1 30.4-18 41.5a83.7 83.7 0 0 1-45.8 24c-18.7 3-39.5 2.5-55.6-7.5-15.8-10-20.3-30-29.6-45.9C17 124.2 1 110.4 1 92.2s15.4-32.5 25.8-47.6C36.6 30.2 44.3 13 60.1 5.4c15.6-7.5 34-3.4 51.3-2Z" stroke="#fff"/><path d="M90.4 80.9c1.4 0 2.9 0 4.1.8 1.2.8 1.7 2 2.5 3.2.8 1.2 2.3 2.3 2 3.8-.2 1.4-2.2 2-3 3-.8 1.2-.6 2.7-1.6 3.7a7.3 7.3 0 0 1-4 2.2c-1.6.2-3.4.2-4.8-.7-1.4-.9-1.8-2.6-2.6-4s-2.2-2.6-2.2-4.2 1.4-2.8 2.3-4.1c.8-1.3 1.5-2.7 2.8-3.4 1.4-.8 3-.4 4.5-.3Z" stroke="#fff"/><path d="M155.1 16.5c-13-8-29.2-8.2-44.6-9.4-16.7-1.4-34.2-5.3-49.1 2-15.1 7.3-22.5 23.6-31.9 37.3C19.5 61 5 74.5 4.8 92c0 17.5 15.2 30.7 24.1 46 9 15.3 13.2 34.4 28.4 44 15.3 9.5 35.2 10 53.2 7a79.5 79.5 0 0 0 43.8-22.8c10.3-10.6 8.8-27.5 17.1-39.7 9-13.3 30.8-18.5 33.2-34.4 2.2-15.4-13.5-27.4-22-40.5-8.4-12.7-14.5-27.1-27.5-35Z" fill="#E7E4DF"/><path d="M152 19.8c-12.4-7.7-27.8-7.9-42.6-9-15.9-1.3-32.6-5.1-46.8 1.8-14.5 7-21.4 22.6-30.4 35.7-9.4 14-23.5 26.9-23.6 43.6 0 16.7 14.6 29.3 23 43.8 8.5 14.6 12.6 32.8 27 41.9 14.7 9.2 33.6 9.6 50.8 6.8a75.5 75.5 0 0 0 41.8-21.8c10-10.1 8.5-26.3 16.4-38C176.3 112 197 107 199.2 92c2.2-14.8-12.8-26.2-21-38.8-7.9-12-13.8-25.7-26.1-33.3Z" stroke="#fff"/><path d="M149 23c-11.8-7.3-26.5-7.4-40.5-8.5-15.1-1.3-31.2-4.9-44.7 1.8-13.7 6.7-20.4 21.5-28.9 34-9 13.2-22.4 25.5-22.5 41.4-.1 16 13.8 27.9 22 41.7 8 14 11.9 31.3 25.8 39.9 14 8.7 32 9 48.3 6.4a72 72 0 0 0 39.8-20.8c9.3-9.6 8-25 15.6-36 8.2-12.2 28-17 30-31.3 2.2-14-12.1-24.9-20-36.9-7.5-11.3-13.1-24.4-24.8-31.7Z" stroke="#fff"/><path d="M146 26.3c-11.3-7-25.2-7-38.6-8.1C93.1 17 78 13.6 65 19.9c-13 6.4-19.4 20.4-27.5 32.3C29 64.7 16.3 76.4 16.2 91.5c-.1 15.1 13.2 26.6 20.8 39.7 7.7 13.2 11.4 29.7 24.5 38 13.3 8.2 30.5 8.6 46 6a68.3 68.3 0 0 0 37.8-19.7c9-9.2 7.7-23.9 14.9-34.4 7.8-11.5 26.5-16 28.6-29.6 2-13.4-11.6-23.8-19.1-35-7.2-11-12.5-23.3-23.7-30.2Z" stroke="#fff"/><path d="M143 29.6c-10.8-6.6-24-6.7-36.5-7.8-13.6-1-28-4.3-40.2 1.7-12.4 6-18.5 19.3-26 30.6C32 66 20 77 19.9 91.4c0 14.3 12.5 25.2 19.7 37.5 7.3 12.6 10.8 28.2 23.2 35.9 12.5 7.8 28.8 8.2 43.5 5.8a65.3 65.3 0 0 0 35.9-18.6c8.4-8.7 7.3-22.6 14-32.5 7.4-11 25.2-15.2 27.1-28 1.8-12.7-11-22.5-18-33.2-6.7-10.4-11.8-22.2-22.4-28.7Z" stroke="#fff"/><path d="M140 32.9c-10.2-6.3-22.6-6.4-34.6-7.3-12.8-1-26.4-4-38 1.5-11.7 5.7-17.3 18.3-24.5 29-7.6 11.2-19 21.6-19 35.1-.2 13.5 11.7 23.7 18.6 35.5 6.9 11.8 10.2 26.6 21.9 34 11.8 7.3 27.2 7.7 41 5.5a61.8 61.8 0 0 0 34-17.7c8-8.2 6.8-21.3 13.2-30.7 7-10.3 23.8-14.3 25.6-26.5 1.7-11.9-10.4-21.2-17-31.4-6.4-9.8-11.3-21-21.2-27Z" stroke="#fff"/><path d="M137 36c-9.6-5.8-21.3-6-32.6-6.8-12-1-24.9-3.8-35.7 1.5-11 5.3-16.4 17.2-23.2 27.2-7.2 10.6-17.9 20.4-18 33.1 0 12.7 11.1 22.4 17.6 33.4 6.5 11.1 9.6 25 20.6 32 11.1 6.9 25.6 7.2 38.7 5a59 59 0 0 0 32-16.5c7.5-7.7 6.3-20 12.4-29 6.6-9.6 22.4-13.4 24.1-25 1.7-11.1-9.8-19.9-16-29.5-6-9-10.5-19.5-20-25.3Z" stroke="#fff"/><path d="M133.9 39.4c-9-5.5-20-5.6-30.5-6.4-11.3-1-23.3-3.7-33.4 1.3-10.4 5-15.4 16.1-21.7 25.5-6.8 9.9-16.9 19.1-17 31 0 12 10.5 21 16.5 31.3 6.1 10.5 9 23.5 19.4 30 10.4 6.5 24 6.8 36.2 4.8 11.4-1.9 22-7.5 30-15.6 7-7.2 6-18.8 11.7-27.1 6.1-9 21-12.7 22.5-23.4 1.6-10.5-9.2-18.8-15-27.7-5.6-8.5-9.9-18.3-18.7-23.7Z" stroke="#fff"/><path d="M130.8 42.6c-8.3-5.2-18.5-5.2-28.4-6-10.6-.8-21.8-3.4-31.2 1.3-9.7 4.6-14.3 15-20.2 23.8-6.4 9.2-15.7 17.9-15.7 29-.1 11.1 9.7 19.6 15.3 29.2 5.7 9.8 8.4 22 18 28a49.3 49.3 0 0 0 33.9 4.4 51 51 0 0 0 28-14.5c6.5-6.8 5.5-17.5 10.8-25.2 5.8-8.5 19.6-11.8 21.1-22 1.5-9.7-8.6-17.4-14-25.8-5.3-8-9.3-17-17.6-22.2Z" stroke="#fff"/><path d="M127.8 45.8c-7.7-4.7-17.3-4.8-26.4-5.6-9.8-.7-20.2-3-29 1.2-9 4.4-13.3 14-18.8 22.2-5.8 8.6-14.5 16.6-14.6 27-.1 10.3 9 18 14.2 27 5.3 9.1 7.8 20.4 16.8 26a46 46 0 0 0 31.4 4.2c9.8-1.6 19-6.4 25.9-13.4 6-6.3 5.2-16.3 10.1-23.5 5.4-8 18.3-11 19.6-20.3 1.3-9-8-16.2-13-24-4.8-7.5-8.6-16-16.2-20.8Z" stroke="#fff"/><path d="M124.8 49.1c-7.1-4.4-16-4.4-24.4-5.1-9-.8-18.6-3-26.8 1S61.4 58 56.3 65.6c-5.4 8-13.5 15.4-13.6 24.9 0 9.5 8.3 16.7 13.2 25 4.9 8.4 7.2 18.8 15.5 24a43 43 0 0 0 29 3.9 43 43 0 0 0 24-12.5c5.6-5.8 4.8-15 9.3-21.7 5-7.3 16.8-10.1 18-18.7 1.3-8.4-7.3-15-12-22.2-4.4-6.8-7.8-14.7-15-19Z" stroke="#fff"/><path d="M121.7 52.4c-6.6-4.1-14.5-4.2-22.3-4.8-8.4-.7-17.1-2.6-24.6 1-7.5 3.7-11.3 12-15.9 18.8-4.9 7.3-12.3 14-12.4 22.8 0 8.7 7.7 15.3 12 23 4.6 7.6 6.7 17.2 14.3 22a39 39 0 0 0 26.6 3.5 39.5 39.5 0 0 0 21.9-11.5c5.2-5.2 4.4-13.7 8.6-19.8 4.5-6.7 15.3-9.2 16.6-17.2 1-7.7-6.7-13.8-11-20.4-4.1-6.2-7.3-13.4-13.8-17.4Z" stroke="#fff"/><path d="M118.8 55.7c-6-3.7-13.3-3.8-20.3-4.3-7.6-.6-15.5-2.4-22.3.9-6.9 3.3-10.2 10.8-14.5 17C57.1 76 50.4 82 50.4 90s7 14 11 20.9c4 7 6 15.6 12.9 19.9 7 4.3 16 4.6 24.2 3.2 7.5-1.2 14.7-5 20-10.3 4.6-4.9 4-12.6 7.7-18 4.1-6.2 14-8.5 15.1-15.7 1-7-6.1-12.4-10-18.5-3.8-5.6-6.7-12.2-12.5-15.8Z" stroke="#fff"/><path d="M115.8 58.9c-5.4-3.3-12-3.4-18.3-3.9-6.8-.5-14-2.2-20.2.8-6.1 3.1-9.2 9.7-13 15.4-4 6-10 11.5-10.1 18.6-.1 7.2 6.2 12.6 9.9 18.9 3.6 6.2 5.3 14 11.6 18a32 32 0 0 0 21.8 2.8 33 33 0 0 0 18-9.3c4.2-4.3 3.5-11.3 7-16.3 3.7-5.4 12.5-7.5 13.5-14 1-6.3-5.6-11.2-9-16.7-3.4-5.1-6-11-11.2-14.3Z" stroke="#fff"/><path d="M112.7 62.2c-4.8-3-10.7-3-16.2-3.5-6-.5-12.4-2-17.9.7-5.5 2.7-8.2 8.7-11.6 13.7-3.6 5.3-9 10.2-9 16.6 0 6.3 5.5 11.2 8.7 16.7 3.3 5.6 4.8 12.5 10.4 16a28 28 0 0 0 19.3 2.5c6-1 11.7-4 16-8.3 3.7-3.9 3.2-10 6.2-14.5 3.3-4.9 11.2-6.7 12-12.5 1-5.6-4.8-10-8-14.8-3-4.5-5.2-9.7-9.9-12.6Z" stroke="#fff"/><path d="M109.7 65.4c-4.2-2.5-9.3-2.6-14.2-3-5.3-.4-10.9-1.7-15.7.6-4.7 2.3-7 7.5-10.1 12-3.1 4.6-7.8 9-7.9 14.4 0 5.6 4.9 9.8 7.6 14.7 2.9 4.8 4.2 11 9 14 5 3 11.2 3.2 17 2.3a26 26 0 0 0 14-7.3c3.2-3.4 2.8-8.8 5.4-12.7 2.9-4.2 9.8-5.9 10.5-10.9.7-5-4.3-8.7-7-12.9-2.5-4-4.5-8.6-8.6-11.2Z" stroke="#fff"/><path d="M106.6 68.7c-3.5-2.2-8-2.3-12.2-2.5-4.5-.3-9.4-1.5-13.4.5-4.2 2-6.2 6.4-8.7 10.2-2.7 4-6.7 7.6-6.8 12.4 0 4.8 4.2 8.4 6.6 12.6 2.5 4.1 3.7 9.4 7.7 12 4.2 2.6 9.7 2.7 14.5 1.9 4.5-.8 8.8-3 12-6.3 2.8-2.9 2.4-7.5 4.7-10.8 2.4-3.7 8.4-5.1 9-9.4.6-4.3-3.6-7.5-6-11.2-2.2-3.3-3.9-7.2-7.4-9.4Z" stroke="#fff"/><path d="M103.6 72c-3-2-6.7-2-10.1-2.2-3.9-.3-7.8-1.2-11.2.5-3.5 1.7-5.1 5.4-7.2 8.4-2.3 3.3-5.7 6.4-5.7 10.4S73 96 75 99.5c2 3.5 3 7.8 6.4 10 3.5 2.2 8 2.3 12 1.6 3.9-.6 7.4-2.4 10-5.1 2.4-2.4 2-6.3 4-9.1 2-3 7-4.3 7.5-7.8s-3-6.3-5-9.3c-1.9-2.8-3.2-6-6.2-7.8Z" stroke="#fff"/><path d="M100.6 75.3a16.4 16.4 0 0 0-8.2-1.7c-3-.3-6.2-1-9 .3-2.7 1.4-4 4.3-5.7 6.8-1.8 2.6-4.5 5-4.5 8.3 0 3.2 2.7 5.6 4.4 8.4 1.6 2.8 2.4 6.3 5.2 8a14 14 0 0 0 9.7 1.2c3-.5 5.9-2 8-4.1 1.9-2 1.6-5 3.1-7.2 1.7-2.5 5.6-3.4 6-6.3.4-2.8-2.4-5-4-7.4-1.6-2.3-2.7-4.9-5-6.3Z" stroke="#fff"/><path d="M97.5 78.5c-1.8-1.1-4-1.1-6-1.3-2.3-.2-4.7-.8-6.7.3-2 1-3 3.2-4.3 5-1.4 2-3.4 3.9-3.4 6.3s2 4.3 3.3 6.3c1.2 2.1 1.8 4.7 3.9 6 2 1.3 4.7 1.4 7.3 1 2.2-.4 4.4-1.6 6-3.2 1.3-1.4 1.2-3.7 2.3-5.4 1.2-1.8 4.1-2.6 4.5-4.7.3-2-1.8-3.7-3-5.5-1.3-1.8-2.1-3.7-3.9-4.8Z" stroke="#fff"/></svg>