<svg xmlns="http://www.w3.org/2000/svg" viewBox="0 0 210.014 195.171"><path fill="#fff" d="M91.752 195.171c-12.257 0-25.515-2.193-36.7-9.164-11.268-7.08-16.929-19.4-22.4-31.312-2.273-4.946-4.624-10.06-7.344-14.732a160.861 160.861 0 0 0-9.468-13.772C8.022 115.627-.062 104.7 0 91.718c.067-14.15 9.183-25.909 18-37.281 2.7-3.477 5.482-7.071 7.937-10.651 2.092-3.078 4.124-6.336 6.089-9.487 7.271-11.664 14.79-23.726 27.326-29.853 12.767-6.17 27.431-4.592 41.615-3.063 3.291.354 6.694.721 10 .979 1.917.151 3.845.286 5.775.423 14.226 1 28.935 2.035 41.116 9.571 10.569 6.49 16.974 17.211 23.168 27.579 1.8 3.021 3.673 6.146 5.613 9.117a133.306 133.306 0 0 0 8.644 11.244c7.978 9.66 16.227 19.648 14.505 31.5-1.459 9.933-9.836 15.772-18.7 21.955-5.968 4.161-12.139 8.464-15.986 14.121s-5.7 12.422-7.479 18.975c-2.2 8.078-4.471 16.43-10.532 22.638a83.981 83.981 0 0 1-46.084 24.053 120.716 120.716 0 0 1-19.255 1.633ZM81.793 1.017c-7.665 0-15.134 1.025-22 4.342-12.272 6-19.713 17.934-26.909 29.476-1.97 3.161-4.007 6.428-6.112 9.523-2.473 3.606-5.269 7.213-7.973 10.7C10.089 66.296 1.08 77.917 1.015 91.723c-.06 12.645 7.566 22.954 15.64 33.868a161.313 161.313 0 0 1 9.53 13.86c2.746 4.716 5.107 9.853 7.389 14.82 5.413 11.779 11.01 23.957 22.02 30.875 17.226 10.742 39.551 9.948 55.246 7.39a82.961 82.961 0 0 0 45.516-23.763c5.877-6.019 8.015-13.877 10.279-22.2 1.806-6.633 3.672-13.492 7.619-19.279 3.951-5.812 10.2-10.169 16.245-14.382 8.683-6.054 16.885-11.772 18.28-21.269 1.658-11.4-6.446-21.216-14.284-30.705a134.044 134.044 0 0 1-8.71-11.335c-1.953-2.987-3.825-6.121-5.635-9.152-6.131-10.263-12.471-20.875-22.83-27.235-11.968-7.4-26.551-8.431-40.654-9.423a662.87 662.87 0 0 1-5.783-.424c-3.315-.259-6.726-.626-10.024-.981a179.565 179.565 0 0 0-19.066-1.371Z"/><path fill="#fff" d="M88.195 97.713a5.942 5.942 0 0 1-3.4-.908 5.825 5.825 0 0 1-2.039-2.77 11.838 11.838 0 0 0-.707-1.363 13.876 13.876 0 0 0-.793-1.177 5.756 5.756 0 0 1-1.456-3.25 5.625 5.625 0 0 1 1.566-3.371c.269-.348.539-.7.769-1.057.183-.268.35-.531.517-.793a7.215 7.215 0 0 1 2.539-2.775 6.8 6.8 0 0 1 3.972-.458c.271.024.539.047.8.062l.431.025a7.8 7.8 0 0 1 3.886.9 6.867 6.867 0 0 1 2.155 2.538c.165.278.332.559.514.835a10.859 10.859 0 0 0 .715.921c.743.89 1.586 1.9 1.356 3.178-.128 1.062-1.046 1.7-1.855 2.263a5.311 5.311 0 0 0-1.271 1.083 4.663 4.663 0 0 0-.591 1.522 4.708 4.708 0 0 1-1.01 2.172 7.812 7.812 0 0 1-4.273 2.272 11.975 11.975 0 0 1-1.825.151Zm-.543-16.994a4.041 4.041 0 0 0-1.985.425 6.378 6.378 0 0 0-2.16 2.425c-.173.271-.346.543-.526.807a16.16 16.16 0 0 1-.812 1.119 4.813 4.813 0 0 0-1.355 2.75 4.967 4.967 0 0 0 1.264 2.655 14.729 14.729 0 0 1 .837 1.246 12.591 12.591 0 0 1 .759 1.46 5.024 5.024 0 0 0 1.668 2.345 6.219 6.219 0 0 0 4.515.609 6.769 6.769 0 0 0 3.7-1.965 3.878 3.878 0 0 0 .768-1.737 5.5 5.5 0 0 1 .748-1.854 6.091 6.091 0 0 1 1.516-1.324c.726-.505 1.353-.941 1.43-1.58.151-.842-.471-1.588-1.131-2.378a11.483 11.483 0 0 1-.784-1.014c-.19-.288-.365-.582-.538-.873a6.011 6.011 0 0 0-1.823-2.2 7.051 7.051 0 0 0-3.4-.746l-.435-.025c-.272-.015-.55-.039-.831-.064-.477-.039-.956-.081-1.425-.081Z"/><path fill="#e7e4df" d="M154.637 16.009c-13.1-8.054-29.23-8.224-44.669-9.411-16.653-1.356-34.174-5.341-49.093 1.95-15.091 7.376-22.468 23.655-31.832 37.39C19.069 60.52 4.407 74.001 4.324 91.551c-.087 17.466 15.183 30.692 24.112 45.953s13.184 34.422 28.363 43.918c15.352 9.58 35.215 10 53.169 7.122a79.5 79.5 0 0 0 43.8-22.807c10.321-10.6 8.847-27.555 17.173-39.764 9.021-13.311 30.792-18.482 33.133-34.337 2.256-15.431-13.444-27.47-22.03-40.527-8.325-12.718-14.483-27.13-27.407-35.1Z"/><path fill="#fff" d="M91.087 185.928c-13.106 0-24.216-2.807-33.169-8.4-10.349-6.481-15.519-17.725-20.518-28.6-2.076-4.517-4.223-9.187-6.714-13.458a141.335 141.335 0 0 0-8.674-12.679c-7.1-9.617-14.441-19.562-14.38-31.415.067-12.866 8.348-23.6 16.356-33.975 2.49-3.226 5.065-6.563 7.325-9.886 1.937-2.832 3.816-5.839 5.632-8.748 6.616-10.59 13.462-21.543 24.923-27.114 11.664-5.7 25.07-4.236 38.035-2.818 2.983.326 6.069.663 9.065.9 1.781.144 3.573.272 5.369.4 13 .933 26.444 1.9 37.53 8.745 9.6 5.882 15.408 15.64 21.024 25.076 1.658 2.787 3.373 5.667 5.156 8.4a121.3 121.3 0 0 0 7.9 10.269c7.3 8.829 14.851 17.958 13.253 28.829-1.306 9.093-8.965 14.451-17.074 20.124-5.438 3.805-11.061 7.738-14.581 12.9-3.493 5.14-5.177 11.312-6.806 17.281-2.015 7.388-4.1 15.029-9.644 20.686a75.708 75.708 0 0 1-42.088 21.937 111.761 111.761 0 0 1-17.92 1.546ZM82.349 8.566c-6.986 0-13.789.946-20.037 4-11.205 5.443-17.967 16.27-24.505 26.741-1.822 2.918-3.706 5.935-5.655 8.783-2.276 3.347-4.86 6.7-7.359 9.934-7.907 10.245-16.081 20.837-16.146 33.36-.059 11.516 7.18 21.323 14.181 30.806a142.819 142.819 0 0 1 8.736 12.77c2.514 4.314 4.672 9.007 6.758 13.545 4.937 10.738 10.042 21.843 20.134 28.163 12.571 7.852 29.524 10.113 50.389 6.712a74.68 74.68 0 0 0 41.524-21.643c5.362-5.469 7.32-12.646 9.393-20.245 1.65-6.049 3.356-12.3 6.945-17.584 3.624-5.314 9.325-9.3 14.838-13.16 7.924-5.543 15.407-10.779 16.652-19.438 1.533-10.426-5.871-19.378-13.031-28.037a121.992 121.992 0 0 1-7.968-10.359c-1.8-2.75-3.515-5.64-5.179-8.435-5.553-9.331-11.3-18.98-20.683-24.731-10.874-6.717-24.19-7.673-37.069-8.6-1.8-.129-3.594-.257-5.379-.4-3.01-.241-6.1-.58-9.094-.906a161.991 161.991 0 0 0-17.445-1.276Z"/><path fill="#fff" d="M90.975 181.177c-12.516 0-23.094-2.664-31.583-7.973-9.9-6.107-14.813-16.792-19.566-27.125-1.99-4.327-4.049-8.8-6.449-12.9a135.28 135.28 0 0 0-8.278-12.039c-6.783-9.146-13.8-18.605-13.737-29.935.134-12.284 8.022-22.478 15.651-32.336 2.375-3.069 4.831-6.242 6.989-9.406 1.817-2.663 3.583-5.49 5.292-8.222 6.337-10.138 12.89-20.621 23.788-25.946 11.215-5.482 24.164-4.054 36.688-2.67 2.716.3 5.523.61 8.246.84 1.738.136 3.489.257 5.244.378 12.319.852 25.058 1.732 35.573 8.259 9.063 5.643 14.6 14.817 19.956 23.69 1.635 2.709 3.325 5.51 5.092 8.169a114.4 114.4 0 0 0 7.546 9.841c6.933 8.405 14.1 17.1 12.569 27.395-1.254 8.627-8.542 13.715-16.258 19.1-5.2 3.629-10.573 7.381-13.922 12.31s-4.963 10.822-6.524 16.522c-1.919 7.009-3.9 14.257-9.143 19.665a72.293 72.293 0 0 1-40.095 20.918 107.767 107.767 0 0 1-17.079 1.465ZM82.721 12.385c-6.7 0-13.222.907-19.194 3.826-10.636 5.2-17.111 15.555-23.373 25.572-1.714 2.741-3.486 5.576-5.314 8.256-2.175 3.188-4.64 6.375-7.024 9.455-7.526 9.726-15.309 19.782-15.439 31.723-.06 10.99 6.853 20.31 13.537 29.323a135.922 135.922 0 0 1 8.338 12.13c2.426 4.137 4.5 8.635 6.5 12.985 4.906 10.665 9.54 20.739 19.18 26.688 11.9 7.441 28.038 9.585 47.964 6.373a71.271 71.271 0 0 0 39.525-20.625c5.059-5.222 6.922-12.025 8.894-19.228 1.582-5.778 3.217-11.754 6.662-16.823 3.456-5.084 8.908-8.891 14.181-12.571 7.532-5.258 14.645-10.223 15.835-18.417 1.466-9.854-5.556-18.369-12.348-26.6a115.631 115.631 0 0 1-7.611-9.929c-1.775-2.674-3.472-5.485-5.113-8.2-5.294-8.77-10.768-17.838-19.624-23.353-10.3-6.395-22.912-7.267-35.108-8.11a550.483 550.483 0 0 1-5.257-.379c-2.738-.231-5.552-.542-8.275-.842a155.831 155.831 0 0 0-16.936-1.254Z"/><path fill="#fff" d="M90.969 176.609c-11.919 0-22.181-2.546-30.189-7.559-9.377-5.888-14.08-16.069-18.628-25.913-1.884-4.078-3.832-8.295-6.087-12.16a129.246 129.246 0 0 0-7.858-11.481c-6.436-8.716-13.09-17.728-13.028-28.457.067-11.6 7.525-21.251 14.737-30.589 2.277-2.948 4.631-6 6.687-9.032 1.7-2.5 3.359-5.159 4.961-7.725C47.6 34.021 53.841 24.02 64.297 18.944c10.689-5.19 22.93-3.845 34.766-2.544 2.605.286 5.3.583 7.911.8 1.507.115 3.025.219 4.547.324 11.882.815 24.169 1.658 34.276 7.89 8.666 5.319 13.916 14.035 18.991 22.464 1.554 2.579 3.16 5.246 4.844 7.785a110.517 110.517 0 0 0 7.092 9.176c6.66 8.03 13.547 16.333 12.069 26.195-1.254 8.219-8.167 13.053-15.487 18.17-4.937 3.451-10.041 7.021-13.218 11.713-3.2 4.671-4.725 10.284-6.2 15.713-1.815 6.673-3.691 13.571-8.689 18.694a68.719 68.719 0 0 1-38.187 19.9 98.956 98.956 0 0 1-16.043 1.385ZM82.981 16.233c-6.353 0-12.545.859-18.241 3.624-10.192 4.949-16.356 14.824-22.316 24.373-1.606 2.575-3.268 5.237-4.981 7.758-2.074 3.061-4.438 6.122-6.724 9.082-7.112 9.204-14.461 18.721-14.525 29.975-.061 10.39 6.492 19.265 12.829 27.849a129.61 129.61 0 0 1 7.918 11.572c2.28 3.906 4.238 8.145 6.132 12.245 4.692 10.157 9.124 19.752 18.246 25.479 11.2 7.009 26.938 9.1 45.531 6.033a67.705 67.705 0 0 0 37.623-19.608c4.814-4.934 6.573-11.4 8.435-18.252 1.5-5.511 3.048-11.208 6.341-16.018 3.281-4.846 8.464-8.469 13.476-11.973 7.136-4.99 13.877-9.7 15.064-17.491 1.411-9.412-5.328-17.537-11.845-25.395a111.037 111.037 0 0 1-7.158-9.264c-1.7-2.556-3.308-5.233-4.867-7.822-5.244-8.708-10.2-16.933-18.654-22.123-9.894-6.1-22.053-6.934-33.813-7.741-1.524-.1-3.045-.209-4.557-.324-2.63-.218-5.33-.515-7.942-.8a147.674 147.674 0 0 0-15.972-1.179Z"/><path fill="#fff" d="M90.945 171.914c-9.615 0-20.018-1.718-28.777-7.187-8.916-5.547-13.384-15.234-17.7-24.6-1.77-3.836-3.6-7.8-5.711-11.44a122.08 122.08 0 0 0-7.394-10.79c-6.109-8.267-12.426-16.817-12.364-27.026.068-11.074 7.164-20.258 14.027-29.139 2.129-2.754 4.33-5.6 6.271-8.448 1.569-2.32 3.1-4.773 4.587-7.146 5.773-9.239 11.744-18.792 21.718-23.632 10.015-4.895 21.587-3.638 32.778-2.421 2.516.274 5.118.557 7.643.761 1.6.129 3.2.243 4.815.358 11.029.783 22.433 1.593 31.926 7.431 8.4 5.182 13.465 13.746 18.363 22.027 1.345 2.274 2.737 4.626 4.175 6.873a103.74 103.74 0 0 0 6.713 8.719c6.268 7.584 12.751 15.425 11.4 24.777-1.149 7.765-7.689 12.332-14.614 17.167-4.684 3.271-9.526 6.654-12.529 11.108-3 4.4-4.453 9.695-5.858 14.82-1.736 6.328-3.531 12.871-8.251 17.722a65.693 65.693 0 0 1-36.19 18.8 94.8 94.8 0 0 1-15.028 1.266ZM83.233 19.998c-6.007 0-11.849.808-17.191 3.419-9.712 4.714-15.6 14.141-21.3 23.258-1.488 2.38-3.026 4.842-4.608 7.177-1.959 2.873-4.169 5.733-6.307 8.5-6.76 8.748-13.75 17.793-13.815 28.524-.06 9.872 6.155 18.283 12.165 26.418a122.106 122.106 0 0 1 7.455 10.883c2.136 3.678 3.976 7.667 5.755 11.524 4.454 9.656 8.661 18.777 17.32 24.164 13.412 8.376 30.843 7.766 43.106 5.78a64.678 64.678 0 0 0 35.627-18.506c4.535-4.663 6.217-10.793 8-17.283 1.427-5.2 2.9-10.587 6-15.121 3.106-4.608 8.028-8.046 12.788-11.37 6.74-4.706 13.106-9.152 14.191-16.481 1.284-8.906-5.053-16.571-11.181-23.984a104.289 104.289 0 0 1-6.782-8.814c-1.452-2.267-2.847-4.627-4.2-6.908-4.836-8.176-9.836-16.629-18.023-21.68-9.282-5.707-20.56-6.508-31.466-7.283-1.614-.115-3.226-.229-4.826-.359-2.539-.2-5.147-.489-7.67-.763a140.613 140.613 0 0 0-15.038-1.095Z"/><path fill="#fff" d="M90.824 167.335c-9.109 0-18.948-1.616-27.182-6.765-8.35-5.26-12.537-14.32-16.587-23.083-1.706-3.694-3.471-7.513-5.525-11a116.028 116.028 0 0 0-7.044-10.289c-5.77-7.814-11.736-15.895-11.674-25.5.066-10.371 6.727-19 13.169-27.355 2.041-2.645 4.151-5.38 6-8.111 1.533-2.258 3.025-4.654 4.467-6.972 5.378-8.644 10.94-17.581 20.277-22.112 9.5-4.607 20.409-3.43 30.962-2.292 2.4.259 4.884.527 7.29.717 1.453.113 2.912.214 4.373.315 10.5.724 21.353 1.473 30.375 7.051 7.926 4.851 12.725 12.922 17.368 20.727 1.274 2.142 2.593 4.358 3.956 6.476a99.128 99.128 0 0 0 6.4 8.326c5.924 7.18 12.049 14.6 10.766 23.392-1.1 7.378-7.29 11.7-13.842 16.279-4.413 3.083-8.975 6.27-11.827 10.47-2.844 4.168-4.21 9.169-5.532 14.005-1.631 5.968-3.317 12.14-7.795 16.754a62.265 62.265 0 0 1-34.195 17.783 90.7 90.7 0 0 1-14.2 1.184ZM83.438 23.846c-5.676 0-11.2.759-16.27 3.217-9.074 4.402-14.561 13.214-19.861 21.735-1.447 2.326-2.944 4.731-4.489 7.006-1.865 2.756-3.985 5.5-6.036 8.161-6.339 8.217-12.893 16.713-12.958 26.742-.057 9.264 5.546 16.853 11.483 24.884a116.509 116.509 0 0 1 7.1 10.379c2.079 3.529 3.854 7.371 5.572 11.087 4.17 9.026 8.11 17.551 16.2 22.65 12.572 7.862 29.057 7.3 40.675 5.44a61.229 61.229 0 0 0 33.63-17.489c4.3-4.426 5.874-10.2 7.544-16.313 1.344-4.917 2.734-10 5.672-14.309 2.956-4.354 7.6-7.6 12.085-10.73 6.368-4.45 12.383-8.652 13.419-15.6 1.218-8.341-4.762-15.589-10.545-22.6a99.55 99.55 0 0 1-6.464-8.419c-1.376-2.137-2.7-4.36-3.977-6.51-4.79-8.054-9.316-15.662-17.027-20.382-8.809-5.446-19.538-6.186-29.913-6.9-1.463-.1-2.925-.2-4.381-.315-2.422-.192-4.912-.461-7.32-.72a133.1 133.1 0 0 0-14.139-1.014Z"/><path fill="#fff" d="M90.521 162.632c-10.121 0-18.817-2.152-25.578-6.385-7.888-4.917-11.839-13.483-15.662-21.768-1.592-3.452-3.239-7.022-5.15-10.283a108.423 108.423 0 0 0-6.58-9.6c-5.444-7.365-11.072-14.983-11.01-24.065.066-9.829 6.366-17.993 12.456-25.888 1.9-2.462 3.862-5.007 5.586-7.545 1.486-2.17 2.924-4.469 4.316-6.693 5.059-8.088 10.291-16.451 19.041-20.694 8.9-4.317 19.147-3.224 29.05-2.165 2.289.244 4.655.5 6.945.675 1.22.091 2.446.175 3.674.259 10.061.688 20.464 1.4 29.079 6.682 7.376 4.5 11.827 11.913 16.13 19.083 1.279 2.13 2.6 4.334 3.978 6.42a91.193 91.193 0 0 0 6.053 7.9c5.55 6.729 11.289 13.687 10.071 21.959-1.054 7-7.191 11.291-13.128 15.442-4.133 2.889-8.406 5.878-11.068 9.781-2.685 3.938-3.964 8.648-5.2 13.2-1.527 5.623-3.106 11.439-7.347 15.775a58.677 58.677 0 0 1-32.2 16.764 84.372 84.372 0 0 1-13.456 1.146ZM83.66 27.609a34.516 34.516 0 0 0-15.278 3.015c-8.487 4.116-13.64 12.353-18.623 20.319-1.4 2.233-2.841 4.541-4.338 6.727-1.74 2.561-3.713 5.119-5.621 7.592-5.988 7.762-12.18 15.789-12.244 25.276-.06 8.744 5.467 16.224 10.812 23.457a109.353 109.353 0 0 1 6.639 9.69c1.935 3.3 3.593 6.9 5.2 10.37 3.932 8.524 7.647 16.575 15.278 21.332 11.86 7.426 27.394 6.875 38.334 5.1a57.646 57.646 0 0 0 31.637-16.472c4.057-4.147 5.532-9.58 7.092-15.331 1.259-4.637 2.561-9.432 5.342-13.511 2.767-4.057 7.117-7.1 11.325-10.04 6.025-4.213 11.717-8.193 12.7-14.761 1.153-7.824-4.441-14.605-9.849-21.164a91.808 91.808 0 0 1-6.12-7.988c-1.386-2.1-2.714-4.314-4-6.454-4.241-7.065-8.626-14.371-15.79-18.74-8.4-5.152-18.678-5.855-28.617-6.534q-1.845-.126-3.681-.261c-2.306-.178-4.68-.432-6.975-.677a125.56 125.56 0 0 0-13.223-.945Z"/><path fill="#fff" d="M90.307 158.015c-7.983 0-16.607-1.442-23.886-6.007-7.417-4.631-11.133-12.7-14.725-20.511-1.482-3.221-3.015-6.551-4.786-9.593a104.606 104.606 0 0 0-6.146-8.946c-5.114-6.925-10.4-14.085-10.4-22.594.067-9.3 6.045-16.974 11.827-24.4 1.76-2.26 3.579-4.6 5.176-6.917 1.3-1.925 2.563-3.966 3.789-5.94 4.8-7.724 9.762-15.712 18.091-19.749 8.393-4.138 18.047-3.075 27.381-2.047 2.094.23 4.259.469 6.362.641 1.315.107 2.64.2 3.968.3 9.235.657 18.784 1.337 26.7 6.222 6.952 4.264 11.157 11.238 15.223 17.983 1.18 1.957 2.4 3.982 3.67 5.909a85.35 85.35 0 0 0 5.616 7.321c5.224 6.328 10.625 12.872 9.467 20.672-.949 6.541-6.7 10.554-12.254 14.435-3.88 2.71-7.891 5.511-10.379 9.176s-3.693 8.082-4.86 12.354c-1.449 5.3-2.946 10.784-6.906 14.847a55.156 55.156 0 0 1-30.206 15.746 78.155 78.155 0 0 1-12.722 1.098ZM83.994 31.391a31.851 31.851 0 0 0-14.307 2.878c-8.068 3.91-12.952 11.771-17.675 19.373-1.231 1.981-2.5 4.03-3.813 5.975-1.615 2.349-3.444 4.7-5.213 6.969-5.679 7.293-11.549 14.835-11.614 23.782 0 8.171 4.957 14.882 10.205 21.987a105.436 105.436 0 0 1 6.2 9.038c1.8 3.085 3.34 6.438 4.831 9.679 3.693 8.026 7.182 15.606 14.342 20.075 11.184 7.015 25.7 6.462 35.9 4.764a54.132 54.132 0 0 0 29.657-15.455c3.775-3.873 5.173-8.988 6.652-14.4 1.19-4.353 2.419-8.853 5-12.658s6.683-6.674 10.638-9.437c5.629-3.93 10.945-7.642 11.831-13.751 1.092-7.354-4.163-13.721-9.245-19.878a86.12 86.12 0 0 1-5.683-7.411c-1.279-1.942-2.5-3.975-3.69-5.941-4-6.641-8.145-13.508-14.886-17.643-7.7-4.753-17.128-5.424-26.24-6.073-1.331-.095-2.659-.19-3.979-.3-2.117-.174-4.29-.413-6.39-.645a115.818 115.818 0 0 0-12.521-.928Z"/><path fill="#fff" d="M90.007 153.376c-8.766 0-16.172-1.874-22.114-5.607-6.891-4.309-10.335-11.779-13.666-19-1.4-3.041-2.852-6.186-4.543-9.065a95.626 95.626 0 0 0-5.763-8.4c-4.779-6.466-9.721-13.152-9.659-21.109 0-8.647 5.574-15.841 10.963-22.8 1.64-2.116 3.335-4.3 4.826-6.48 1.19-1.781 2.357-3.665 3.485-5.487 4.483-7.241 9.118-14.728 16.921-18.507 7.8-3.85 16.785-2.868 25.471-1.92 1.981.216 4.029.44 6.016.6 1.169.09 2.344.171 3.52.252 8.706.6 17.708 1.217 25.155 5.842 6.439 3.974 10.363 10.457 14.158 16.727 1.13 1.87 2.3 3.8 3.519 5.637a79.07 79.07 0 0 0 5.312 6.925c4.873 5.9 9.912 12 8.819 19.29-.9 6.138-6.273 9.888-11.473 13.515-3.625 2.529-7.375 5.145-9.685 8.568-2.338 3.408-3.458 7.517-4.541 11.492-1.343 4.926-2.732 10.022-6.445 13.842a51.481 51.481 0 0 1-28.213 14.646 75.347 75.347 0 0 1-12.063 1.039ZM84.214 35.159a29.622 29.622 0 0 0-13.313 2.671c-7.541 3.652-12.1 11.012-16.5 18.129-1.133 1.83-2.3 3.722-3.508 5.522-1.511 2.2-3.215 4.4-4.863 6.533-5.29 6.822-10.755 13.877-10.755 22.177-.06 7.622 4.78 14.17 9.46 20.5a96.467 96.467 0 0 1 5.823 8.492c1.715 2.921 3.176 6.089 4.588 9.153 3.419 7.415 6.649 14.418 13.284 18.566 8.285 5.206 19.548 6.694 33.476 4.423a50.462 50.462 0 0 0 27.651-14.354c3.527-3.629 4.821-8.375 6.19-13.4 1.106-4.056 2.248-8.249 4.681-11.8 2.414-3.576 6.242-6.247 9.944-8.829 5.253-3.665 10.215-7.126 11.049-12.831 1.025-6.847-3.866-12.769-8.6-18.5a79.8 79.8 0 0 1-5.377-7.013c-1.227-1.849-2.4-3.791-3.54-5.67-3.732-6.166-7.591-12.543-13.822-16.389-7.233-4.493-16.108-5.1-24.69-5.693a444.177 444.177 0 0 1-3.531-.252c-2-.161-4.058-.385-6.046-.6a108 108 0 0 0-11.601-.835Z"/><path fill="#fff" d="M90.063 148.754c-8.275 0-15.369-1.761-20.871-5.225-6.421-4.021-9.628-11-12.729-17.743-1.292-2.809-2.627-5.714-4.179-8.374a86.582 86.582 0 0 0-5.383-7.862c-4.411-5.966-8.973-12.135-8.911-19.529.068-8.027 5.212-14.675 10.186-21.1 1.549-2 3.151-4.072 4.561-6.139 1.127-1.68 2.231-3.464 3.3-5.189 4.141-6.7 8.424-13.62 15.635-17.11 7.283-3.56 15.605-2.661 23.653-1.792 1.867.2 3.8.41 5.664.556 1.176.1 2.356.185 3.539.273 7.977.587 16.226 1.2 23.054 5.4 6.094 3.789 9.785 9.987 13.356 15.98.974 1.637 1.982 3.329 3.024 4.948a73.4 73.4 0 0 0 4.921 6.471c4.488 5.478 9.129 11.143 8.164 17.869-.847 5.693-5.838 9.168-10.665 12.528-3.368 2.345-6.852 4.769-9.021 7.949-2.188 3.191-3.237 7.03-4.251 10.742-1.247 4.563-2.536 9.281-5.951 12.81a47.583 47.583 0 0 1-26.216 13.629 68.991 68.991 0 0 1-10.88.908ZM84.507 38.921a27.785 27.785 0 0 0-12.394 2.47c-6.946 3.362-11.15 10.158-15.215 16.731-1.072 1.733-2.181 3.525-3.321 5.224-1.429 2.1-3.04 4.177-4.6 6.191-4.872 6.3-9.91 12.806-9.974 20.492-.059 7.055 4.2 12.817 8.712 18.916a87.369 87.369 0 0 1 5.444 7.956c1.576 2.7 2.922 5.629 4.223 8.46 3.18 6.915 6.183 13.447 12.348 17.308 9.567 6.024 22.164 5.592 31.049 4.168a46.573 46.573 0 0 0 25.651-13.333c3.232-3.342 4.43-7.728 5.7-12.37 1.036-3.794 2.108-7.718 4.394-11.049s5.834-5.812 9.278-8.209c4.863-3.386 9.458-6.584 10.24-11.842.9-6.281-3.6-11.77-7.945-17.079a74.271 74.271 0 0 1-4.99-6.564c-1.052-1.634-2.065-3.334-3.043-4.977-3.67-6.161-7.136-11.979-13.019-15.639-6.618-4.069-14.741-4.669-22.6-5.248a361.647 361.647 0 0 1-3.546-.273c-1.88-.146-3.817-.356-5.69-.558a100.522 100.522 0 0 0-10.702-.775Z"/><path fill="#fff" d="M89.783 144.104c-7.635 0-14.039-1.608-19.117-4.814-6.009-3.731-8.991-10.2-11.874-16.448-1.182-2.565-2.406-5.217-3.819-7.634a81.41 81.41 0 0 0-4.956-7.2c-4.11-5.54-8.36-11.269-8.3-18.156.067-7.325 4.775-13.422 9.328-19.319 1.461-1.892 2.973-3.85 4.29-5.8 1.082-1.6 2.133-3.284 3.15-4.917 3.822-6.139 7.775-12.486 14.4-15.689 6.83-3.337 14.648-2.477 22.207-1.645 1.631.18 3.254.359 4.859.5 1.032.083 2.072.157 3.115.232 7.442.531 15.136 1.082 21.479 5.012 5.656 3.439 9.02 9.124 12.273 14.622.905 1.529 1.84 3.111 2.808 4.612a69.244 69.244 0 0 0 4.468 5.807c4.215 5.1 8.573 10.38 7.663 16.669-.743 5.3-5.361 8.514-9.827 11.625-3.1 2.16-6.309 4.394-8.3 7.325s-2.933 6.446-3.86 9.846c-1.162 4.253-2.362 8.653-5.565 11.927a43.43 43.43 0 0 1-24.222 12.611 66.518 66.518 0 0 1-10.2.834ZM84.847 42.741a25.837 25.837 0 0 0-11.519 2.3c-6.359 3.075-10.233 9.3-13.979 15.312-1.022 1.638-2.078 3.338-3.171 4.946-1.335 1.978-2.856 3.948-4.327 5.853-4.45 5.764-9.052 11.724-9.116 18.708-.06 6.547 3.9 11.888 8.1 17.542a82.072 82.072 0 0 1 5.017 7.294c1.438 2.459 2.672 5.134 3.865 7.721 2.95 6.4 5.737 12.439 11.49 16.014 6.989 4.41 16.619 5.7 28.625 3.829a42.413 42.413 0 0 0 23.653-12.317c3.02-3.088 4.133-7.168 5.311-11.486.949-3.48 1.931-7.076 4-10.147 2.094-3.088 5.379-5.376 8.557-7.59 4.484-3.124 8.72-6.074 9.4-10.935.846-5.847-3.367-10.947-7.441-15.88a70.227 70.227 0 0 1-4.536-5.9c-.981-1.522-1.921-3.112-2.831-4.65-3.19-5.39-6.488-10.964-11.928-14.272-6.13-3.8-13.7-4.341-21.019-4.864-1.046-.075-2.09-.15-3.127-.233a186.07 186.07 0 0 1-4.886-.5 93.482 93.482 0 0 0-10.138-.745Z"/><path fill="#fff" d="M89.738 139.456c-5.9 0-12.293-1.053-17.681-4.4-5.475-3.407-8.184-9.288-10.8-14.977a79.252 79.252 0 0 0-3.59-7.155 73.732 73.732 0 0 0-4.568-6.668c-3.747-5.065-7.621-10.3-7.559-16.571.068-6.782 4.413-12.41 8.616-17.852 1.319-1.709 2.683-3.476 3.875-5.234.932-1.393 1.85-2.876 2.737-4.31 3.538-5.72 7.2-11.634 13.335-14.6 6.222-3.04 13.333-2.268 20.209-1.524 1.54.167 3.077.334 4.6.458.88.066 1.765.128 2.65.188 6.884.471 14 .959 19.954 4.634 5.168 3.166 8.263 8.354 11.255 13.371.84 1.409 1.709 2.866 2.608 4.249a64.356 64.356 0 0 0 4.106 5.362c3.85 4.689 7.833 9.536 6.985 15.336-.745 4.89-4.971 7.841-9.058 10.7-2.839 1.983-5.776 4.033-7.589 6.727-1.823 2.671-2.7 5.888-3.539 9-1.055 3.894-2.147 7.921-5.109 10.913a40 40 0 0 1-22.228 11.58 58.293 58.293 0 0 1-9.209.773Zm-4.685-92.95a23.577 23.577 0 0 0-10.511 2.092c-5.873 2.838-9.453 8.625-12.915 14.221-.892 1.442-1.814 2.932-2.759 4.343-1.211 1.786-2.585 3.565-3.913 5.287-4.1 5.31-8.34 10.8-8.4 17.242-.059 5.929 3.545 10.8 7.36 15.957a74.676 74.676 0 0 1 4.628 6.759 80.307 80.307 0 0 1 3.636 7.243c2.675 5.809 5.2 11.295 10.418 14.54 8.143 5.066 18.739 4.7 26.192 3.491a38.984 38.984 0 0 0 21.66-11.3c2.778-2.806 3.787-6.529 4.855-10.469.865-3.192 1.761-6.493 3.678-9.3 1.917-2.847 4.932-4.953 7.849-6.989 4.091-2.857 7.955-5.556 8.634-10.012.783-5.354-3.055-10.025-6.766-14.542a65.126 65.126 0 0 1-4.17-5.452c-.912-1.4-1.786-2.867-2.631-4.284-2.93-4.912-5.959-9.991-10.914-13.027-5.74-3.543-12.73-4.022-19.49-4.485-.888-.06-1.775-.121-2.661-.189a175.471 175.471 0 0 1-4.629-.46 85.581 85.581 0 0 0-9.151-.666Z"/><path fill="#fff" d="M89.584 134.755c-5.348 0-11.139-.965-16.054-4.028-5.015-3.125-7.488-8.493-9.881-13.684-.992-2.152-2.018-4.379-3.211-6.413a66.412 66.412 0 0 0-4.1-5.978c-3.421-4.616-6.958-9.39-6.9-15.141 0-6.345 4.1-11.564 8.06-16.611 1.121-1.427 2.279-2.9 3.307-4.363.881-1.3 1.746-2.687 2.583-4.029 3.22-5.162 6.549-10.5 12.1-13.177 5.63-2.75 12.071-2.062 18.3-1.4 1.427.152 2.848.3 4.254.415.887.075 1.776.141 2.665.208 6.156.461 12.521.939 17.856 4.188h.006c4.527 2.841 7.327 7.429 10.035 11.866.837 1.372 1.7 2.792 2.606 4.135a55.651 55.651 0 0 0 3.822 4.987c3.49 4.222 7.1 8.588 6.32 13.854-.693 4.424-4.529 7.091-8.24 9.671-2.6 1.806-5.288 3.674-6.932 6.137-1.686 2.434-2.487 5.381-3.264 8.232-.958 3.521-1.949 7.162-4.6 9.9a36.809 36.809 0 0 1-20.236 10.49 52.105 52.105 0 0 1-8.496.741Zm-4.136-84.4a21.35 21.35 0 0 0-9.518 1.89c-5.286 2.55-8.536 7.761-11.679 12.8-.842 1.35-1.712 2.746-2.609 4.07-1.048 1.488-2.215 2.975-3.343 4.412-3.857 4.912-7.845 9.991-7.845 15.991-.059 5.415 3.222 9.843 6.7 14.532a67.143 67.143 0 0 1 4.164 6.069c1.217 2.076 2.254 4.325 3.256 6.5 2.437 5.288 4.74 10.283 9.5 13.248 7.454 4.646 17.084 4.279 23.847 3.153a35.8 35.8 0 0 0 19.673-10.2c2.465-2.544 3.378-5.9 4.346-9.454.8-2.932 1.623-5.966 3.4-8.536 1.746-2.614 4.515-4.539 7.191-6.4 3.7-2.571 7.192-5 7.817-8.99.712-4.815-2.6-8.817-6.1-13.054a56.7 56.7 0 0 1-3.885-5.074c-.912-1.356-1.784-2.785-2.626-4.166-2.768-4.536-5.382-8.819-9.706-11.533-5.125-3.121-11.366-3.589-17.4-4.041-.893-.067-1.785-.134-2.672-.209a151.983 151.983 0 0 1-4.28-.418 78.276 78.276 0 0 0-8.231-.591Z"/><path fill="#fff" d="M89.27 130.191c-5.689 0-10.5-1.208-14.352-3.616-4.545-2.839-6.782-7.712-8.945-12.425-.882-1.921-1.793-3.908-2.848-5.724a61.023 61.023 0 0 0-3.75-5.47c-3.082-4.165-6.268-8.471-6.206-13.615.068-5.62 3.678-10.292 7.17-14.81 1.041-1.348 2.119-2.743 3.067-4.124.768-1.142 1.521-2.352 2.25-3.522 2.909-4.668 5.917-9.494 10.951-11.994 5.075-2.515 10.81-1.893 16.356-1.292 1.329.144 2.7.293 4.03.393.748.06 1.5.114 2.249.169 5.62.4 11.431.823 16.28 3.805h.006c4.141 2.631 6.694 6.865 9.162 10.96.7 1.165 1.428 2.37 2.18 3.519a49.318 49.318 0 0 0 3.458 4.548c3.123 3.8 6.353 7.727 5.639 12.423-.595 4.07-4.095 6.516-7.48 8.882-2.291 1.6-4.66 3.257-6.135 5.4a24.231 24.231 0 0 0-2.867 7.328c-.873 3.214-1.774 6.536-4.213 9.019a33.406 33.406 0 0 1-18.236 9.472 49.012 49.012 0 0 1-7.766.674Zm-3.7-76.107a18.866 18.866 0 0 0-8.515 1.721c-4.778 2.368-7.708 7.071-10.543 11.619a120.945 120.945 0 0 1-2.272 3.555c-.967 1.409-2.053 2.815-3.1 4.174-3.389 4.386-6.893 8.921-6.957 14.2-.059 4.8 2.887 8.783 6.007 13a61.928 61.928 0 0 1 3.812 5.563c1.079 1.858 2 3.867 2.893 5.811 2.2 4.788 4.272 9.31 8.559 11.987 5.289 3.3 12.5 4.249 21.422 2.813a32.375 32.375 0 0 0 17.674-9.182c2.253-2.292 3.081-5.343 3.958-8.573a24.946 24.946 0 0 1 3.008-7.633c1.581-2.3 4.027-4.011 6.392-5.664 3.356-2.346 6.525-4.561 7.057-8.2.646-4.252-2.3-7.835-5.418-11.629a50 50 0 0 1-3.527-4.642c-.759-1.16-1.491-2.373-2.2-3.547-2.517-4.176-4.895-8.122-8.834-10.625-4.636-2.85-10.32-3.259-15.816-3.656-.754-.054-1.507-.108-2.256-.168-1.341-.1-2.723-.251-4.06-.4a68.275 68.275 0 0 0-7.279-.526Z"/><path fill="#fff" d="M89.107 125.472a24.031 24.031 0 0 1-12.8-3.223c-4.082-2.493-6.083-6.874-8.019-11.11-.768-1.68-1.562-3.417-2.473-5.007a54.9 54.9 0 0 0-3.259-4.764c-2.737-3.719-5.568-7.563-5.568-12.191.068-5.019 3.253-9.156 6.334-13.157.941-1.222 1.915-2.486 2.774-3.746a103.33 103.33 0 0 0 2.036-3.178c2.582-4.144 5.252-8.428 9.783-10.642 4.586-2.206 9.755-1.631 14.752-1.074 1.131.126 2.26.252 3.381.346.83.076 1.663.14 2.5.205 4.808.371 9.78.755 13.944 3.345 3.712 2.285 5.94 6.014 8.094 9.621.629 1.053 1.278 2.141 1.95 3.165.848 1.252 1.907 2.521 2.931 3.748 2.892 3.464 5.883 7.046 5.213 11.36-.541 3.6-3.652 5.765-6.66 7.856a20.806 20.806 0 0 0-5.478 4.816 21.792 21.792 0 0 0-2.582 6.585c-.776 2.847-1.579 5.792-3.72 7.981a29.851 29.851 0 0 1-16.237 8.455 41.641 41.641 0 0 1-6.896.609Zm-3.25-67.581a17.048 17.048 0 0 0-7.5 1.478c-4.266 2.085-6.858 6.243-9.365 10.265-.664 1.065-1.351 2.167-2.057 3.212-.878 1.286-1.86 2.562-2.81 3.8-2.979 3.868-6.06 7.869-6.124 12.544 0 4.287 2.609 7.831 5.371 11.583a55.515 55.515 0 0 1 3.321 4.858c.936 1.632 1.74 3.392 2.517 5.093 1.959 4.285 3.808 8.334 7.63 10.669 5.916 3.7 13.594 3.39 18.993 2.476a28.836 28.836 0 0 0 15.682-8.165c1.956-2 2.689-4.69 3.465-7.539a22.567 22.567 0 0 1 2.722-6.888 21.5 21.5 0 0 1 5.738-5.078c2.962-2.059 5.759-4 6.236-7.176.6-3.863-2.241-7.266-4.989-10.557-1.04-1.246-2.117-2.535-3-3.836-.689-1.048-1.344-2.145-1.978-3.207-2.092-3.5-4.255-7.123-7.756-9.277-3.954-2.459-8.8-2.833-13.488-3.2-.841-.065-1.679-.129-2.51-.2-1.125-.094-2.264-.221-3.405-.348a61.035 61.035 0 0 0-6.693-.507Z"/><path fill="#fff" d="M89.057 120.87a21.31 21.31 0 0 1-11.364-2.86c-3.519-2.211-5.24-5.967-6.905-9.6a48.97 48.97 0 0 0-2.281-4.56 45.637 45.637 0 0 0-2.937-4.359c-2.344-3.214-4.763-6.535-4.763-10.568.068-4.317 2.816-7.9 5.475-11.369.854-1.114 1.737-2.266 2.5-3.411.662-.962 1.3-1.976 1.918-2.956 2.248-3.566 4.572-7.253 8.425-9.17 4-1.92 8.494-1.426 12.844-.949a95.01 95.01 0 0 0 3.036.3c.605.052 1.21.1 1.815.145 4.363.336 8.874.684 12.633 2.98 3.369 2.1 5.363 5.552 7.29 8.887.48.83.959 1.659 1.459 2.469.732 1.093 1.656 2.208 2.549 3.288 2.5 3.016 5.085 6.135 4.548 9.937-.438 3.155-3.165 5.069-5.8 6.92a18.227 18.227 0 0 0-4.772 4.23 19.118 19.118 0 0 0-2.2 5.625c-.69 2.51-1.4 5.105-3.32 7.078a25.811 25.811 0 0 1-14.249 7.438 36.974 36.974 0 0 1-5.901.505Zm-2.979-59.218a14.822 14.822 0 0 0-6.508 1.276c-3.592 1.788-5.739 5.194-8.012 8.8a87.686 87.686 0 0 1-1.938 2.984c-.781 1.168-1.675 2.333-2.538 3.459-2.558 3.337-5.2 6.786-5.265 10.76 0 3.694 2.221 6.737 4.573 9.959a46.473 46.473 0 0 1 2.994 4.452 49.952 49.952 0 0 1 2.323 4.649c1.676 3.658 3.26 7.115 6.522 9.163 5.135 3.227 11.842 2.991 16.562 2.218a24.788 24.788 0 0 0 13.684-7.144c1.734-1.786 2.382-4.143 3.067-6.638a19.926 19.926 0 0 1 2.337-5.922 18.908 18.908 0 0 1 5.032-4.5c2.574-1.806 5-3.512 5.382-6.231.475-3.359-1.856-6.171-4.324-9.149a42.317 42.317 0 0 1-2.621-3.387c-.515-.832-1-1.671-1.485-2.509-1.95-3.375-3.793-6.564-6.946-8.532-3.55-2.168-7.937-2.506-12.18-2.833-.609-.047-1.216-.093-1.821-.146-1.012-.081-2.036-.193-3.062-.3a53.487 53.487 0 0 0-5.776-.429Z"/><path fill="#fff" d="M88.768 116.22a17.862 17.862 0 0 1-9.689-2.451c-3-1.872-4.51-5.141-5.971-8.3-.6-1.287-1.211-2.619-1.915-3.824a41.866 41.866 0 0 0-2.445-3.573c-2.073-2.817-4.217-5.73-4.217-9.231.069-3.826 2.443-6.906 4.739-9.884.72-.935 1.465-1.9 2.114-2.863.513-.76 1-1.55 1.5-2.342 1.934-3.108 3.935-6.323 7.374-8 3.41-1.631 7.285-1.217 11.032-.816.9.095 1.792.191 2.673.257l.967.056c3.981.226 8.1.459 11.491 2.562 2.786 1.7 4.473 4.524 6.1 7.251a64.78 64.78 0 0 0 1.425 2.314 33.6 33.6 0 0 0 2.27 2.99c2.1 2.561 4.261 5.209 3.794 8.466-.387 2.752-2.743 4.4-5.022 6a15.327 15.327 0 0 0-4.079 3.621 16.189 16.189 0 0 0-1.924 4.875c-.592 2.151-1.2 4.374-2.816 6.047a22.377 22.377 0 0 1-12.25 6.423 33.316 33.316 0 0 1-5.151.422Zm-2.525-50.636a12.69 12.69 0 0 0-5.547 1.075c-3.173 1.551-5.095 4.639-6.954 7.627-.5.8-1 1.6-1.517 2.373-.667.989-1.422 1.967-2.152 2.914-2.194 2.848-4.464 5.793-4.527 9.275 0 3.158 1.952 5.811 4.019 8.62a42.368 42.368 0 0 1 2.5 3.662c.729 1.247 1.355 2.6 1.959 3.91 1.463 3.167 2.845 6.157 5.591 7.87 3.451 2.179 8.208 2.81 14.138 1.88a21.362 21.362 0 0 0 11.684-6.127c1.43-1.486 1.983-3.49 2.567-5.611a16.941 16.941 0 0 1 2.061-5.174 16.046 16.046 0 0 1 4.342-3.887c2.2-1.541 4.275-3 4.6-5.312.4-2.817-1.529-5.18-3.576-7.681a34.5 34.5 0 0 1-2.334-3.081 67.354 67.354 0 0 1-1.446-2.345c-1.569-2.623-3.19-5.335-5.764-6.907-3.174-1.968-7.16-2.193-11.014-2.412l-.978-.056c-.9-.068-1.8-.164-2.713-.262a47.1 47.1 0 0 0-4.939-.351Z"/><path fill="#fff" d="M88.591 111.514a14.739 14.739 0 0 1-8.038-2.069c-2.535-1.652-3.809-4.407-5.041-7.073-.483-1.044-.982-2.124-1.546-3.106a32.544 32.544 0 0 0-2.059-3.032c-1.7-2.317-3.468-4.713-3.468-7.65 0-3.188 2.012-5.769 3.959-8.265.6-.773 1.226-1.571 1.767-2.364.447-.657.874-1.345 1.3-2.037 1.595-2.566 3.243-5.22 6.091-6.612 2.943-1.4 6.281-1.032 9.511-.675.651.072 1.3.144 1.946.2.42.031.853.059 1.287.086 3.144.2 6.395.407 9.087 2.111 2.391 1.512 3.789 3.859 5.141 6.129.384.644.767 1.287 1.17 1.908.518.769 1.17 1.559 1.8 2.323 1.829 2.214 3.721 4.5 3.307 7.27-.337 2.3-2.308 3.676-4.215 5.006a13.055 13.055 0 0 0-3.414 3 13.276 13.276 0 0 0-1.59 4.068 10.85 10.85 0 0 1-2.371 5.074 18.147 18.147 0 0 1-10.258 5.317 26.649 26.649 0 0 1-4.366.391Zm-1.936-42.193a10.7 10.7 0 0 0-4.658.9c-2.581 1.261-4.151 3.789-5.67 6.233-.437.7-.873 1.405-1.328 2.073-.559.82-1.192 1.632-1.805 2.417-1.926 2.47-3.745 4.8-3.745 7.641 0 2.6 1.589 4.763 3.271 7.048a33.6 33.6 0 0 1 2.126 3.128c.587 1.021 1.1 2.123 1.587 3.187 1.226 2.652 2.384 5.155 4.669 6.645 2.88 1.829 6.816 2.348 11.7 1.536a17.13 17.13 0 0 0 9.692-5.024 9.962 9.962 0 0 0 2.119-4.63 13.994 13.994 0 0 1 1.731-4.375 13.762 13.762 0 0 1 3.672-3.266c1.808-1.262 3.517-2.454 3.791-4.322.348-2.322-1.32-4.339-3.085-6.476-.648-.783-1.315-1.592-1.865-2.409-.416-.639-.806-1.293-1.2-1.948-1.35-2.268-2.626-4.409-4.811-5.792-2.474-1.564-5.593-1.763-8.609-1.955-.438-.028-.874-.056-1.3-.087-.66-.059-1.318-.131-1.976-.2a39.425 39.425 0 0 0-4.306-.324Z"/><path fill="#fff" d="M88.507 106.972a11.931 11.931 0 0 1-6.482-1.683c-2.078-1.269-3.1-3.466-4.083-5.59-.4-.857-.81-1.744-1.284-2.549a27.709 27.709 0 0 0-1.638-2.373c-1.4-1.892-2.856-3.847-2.856-6.278 0-2.645 1.651-4.756 3.247-6.8.468-.6.934-1.195 1.354-1.8.4-.568.775-1.159 1.151-1.752 1.276-2.012 2.595-4.093 4.854-5.2 2.348-1.111 5.014-.826 7.591-.549.539.057 1.076.115 1.608.16l.487.028c2.7.156 5.489.316 7.883 1.737h.007a13.359 13.359 0 0 1 4.087 4.778c.356.581.713 1.164 1.1 1.727a22.508 22.508 0 0 0 1.464 1.9c1.453 1.762 2.956 3.584 2.607 5.836-.228 1.9-1.828 3.02-3.376 4.1a10.133 10.133 0 0 0-2.688 2.377 10.4 10.4 0 0 0-1.211 3.113 8.951 8.951 0 0 1-1.97 4.166 14.727 14.727 0 0 1-8.259 4.3 20.358 20.358 0 0 1-3.593.352Zm-1.631-33.8a8.485 8.485 0 0 0-3.666.7c-2 .976-3.182 2.846-4.437 4.826-.385.607-.769 1.213-1.177 1.791a40.163 40.163 0 0 1-1.386 1.844c-1.558 1.993-3.031 3.877-3.031 6.172 0 2.095 1.29 3.833 2.656 5.673a28.207 28.207 0 0 1 1.7 2.463c.5.847.921 1.757 1.33 2.636.965 2.08 1.876 4.043 3.7 5.159 2.912 1.867 6.7 1.684 9.359 1.2a13.725 13.725 0 0 0 7.7-4 8.076 8.076 0 0 0 1.724-3.731 11.333 11.333 0 0 1 1.346-3.41 10.854 10.854 0 0 1 2.949-2.643c1.428-1 2.777-1.942 2.953-3.41.282-1.818-1.013-3.389-2.385-5.051a23.7 23.7 0 0 1-1.524-1.985c-.388-.569-.754-1.167-1.119-1.761a12.437 12.437 0 0 0-3.75-4.443c-2.181-1.292-4.726-1.439-7.42-1.594l-.5-.029c-.552-.046-1.1-.105-1.644-.163a31.99 31.99 0 0 0-3.378-.248Z"/><path fill="#fff" d="M88.484 102.291a9.464 9.464 0 0 1-4.977-1.235 9.543 9.543 0 0 1-3.16-4.365c-.286-.615-.582-1.251-.917-1.834-.332-.557-.735-1.1-1.161-1.682-1.083-1.468-2.2-2.987-2.2-4.844 0-2.106 1.29-3.748 2.538-5.335.323-.412.645-.821.939-1.233s.569-.86.845-1.3a9.635 9.635 0 0 1 3.682-3.949c1.713-.873 3.664-.655 5.552-.444.466.053.931.105 1.388.139l.843.062a11.752 11.752 0 0 1 5.451 1.281l.009.006a10.711 10.711 0 0 1 3.128 3.668c.27.436.542.876.836 1.307a16.867 16.867 0 0 0 1.1 1.383c1.135 1.337 2.309 2.72 2.019 4.5-.239 1.455-1.457 2.314-2.635 3.145a7.739 7.739 0 0 0-1.957 1.721 8.109 8.109 0 0 0-.922 2.364 6.865 6.865 0 0 1-1.478 3.124 11.27 11.27 0 0 1-6.274 3.288 15.971 15.971 0 0 1-2.649.233Zm-1.377-25.394a5.616 5.616 0 0 0-2.585.524c-1.48.723-2.353 2.111-3.277 3.581-.285.454-.571.908-.875 1.344s-.637.852-.97 1.276c-1.142 1.452-2.321 2.953-2.321 4.708 0 1.523.973 2.844 2 4.242.422.572.859 1.165 1.22 1.771.361.629.666 1.285.961 1.919.728 1.566 1.415 3.045 2.783 3.936 2.146 1.312 4.952 1.189 6.925.858a10.258 10.258 0 0 0 5.7-2.99 6.05 6.05 0 0 0 1.239-2.694 8.9 8.9 0 0 1 1.058-2.66 8.411 8.411 0 0 1 2.213-1.985c1.054-.743 2.049-1.444 2.219-2.479.214-1.313-.76-2.46-1.792-3.675a17.741 17.741 0 0 1-1.162-1.469c-.3-.442-.583-.895-.861-1.343a9.832 9.832 0 0 0-2.8-3.344 10.849 10.849 0 0 0-4.994-1.134l-.851-.063c-.467-.035-.944-.089-1.423-.142a21.769 21.769 0 0 0-2.407-.181Z"/></svg>