<svg width="74" height="74" viewBox="0 0 74 74" fill="none" xmlns="http://www.w3.org/2000/svg">
<path d="M55.0397 53.8206H21.4235V71.9743H55.0397V53.8206Z" fill="#FFF000"/>
<path fill-rule="evenodd" clip-rule="evenodd" d="M28.3423 1.48567C29.0076 1.11977 29.7703 0.92041 30.5383 0.92041H45.4168C45.4631 0.92041 45.5093 0.923381 45.5551 0.929306L63.0488 3.18901C63.0893 3.19425 63.1296 3.20179 63.1693 3.21159L67.2824 4.22719C67.2909 4.22927 67.2993 4.23146 67.3077 4.23375C67.313 4.23518 67.3175 4.23619 67.3212 4.23689C67.3247 4.2351 67.3283 4.23332 67.3318 4.23156L69.8382 2.99104C71.3221 2.2324 73.0288 3.36282 73.0288 4.9706V24.0638C73.0288 25.6023 71.4532 26.7047 69.9928 26.1044C69.9911 26.1037 69.9894 26.103 69.9877 26.1023L65.9086 24.4555C65.7741 24.4012 65.6519 24.3204 65.5494 24.2178L64.08 22.7484C63.7217 23.0711 63.244 23.4426 62.6297 23.8098C61.0447 24.7572 58.5927 25.6512 55.0142 25.6512C51.4367 25.6512 48.8608 24.7581 47.1575 23.8315C46.3089 23.3699 45.6831 22.9034 45.2614 22.5428C45.2546 22.537 45.2478 22.5312 45.2411 22.5254L32.9394 29.3249L32.935 29.3274C30.5428 30.6351 27.5384 29.9048 26.0328 27.6303C24.407 25.1755 25.1026 21.8228 27.6319 20.2529C27.6324 20.2526 27.6329 20.2523 27.6334 20.2519L38.8553 13.2355H29.3611L28.1617 13.8756C27.2684 14.3524 26.026 15.0157 24.6296 15.7614C21.8368 17.2531 18.4288 19.0745 15.9668 20.3943L15.9601 20.3979C13.5902 21.6469 10.677 20.9065 9.17779 18.6736L9.17581 18.6706L9.12323 18.5918C7.4841 16.117 8.28414 12.7683 10.8651 11.3166L28.3423 1.48567ZM29.0911 12.1559L28.5829 11.2035C28.7393 11.12 28.9139 11.0764 29.0911 11.0764H41.0498C41.8231 11.0764 42.3628 11.6121 42.5271 12.1974C42.6925 12.7866 42.5044 13.5258 41.8347 13.9191L28.7748 22.0847L28.7715 22.0868C27.2905 23.0054 26.8695 24.9836 27.833 26.4383C28.7137 27.7687 30.4815 28.2067 31.8975 27.4339C31.8981 27.4335 31.8987 27.4332 31.8993 27.4328L44.8946 20.2499C45.3452 20.0008 45.9087 20.1048 46.2409 20.4973M46.2449 20.5021L46.2442 20.5013L46.243 20.4999L46.2409 20.4973L46.252 20.5098C46.2648 20.524 46.2884 20.5496 46.323 20.585C46.3922 20.6558 46.5055 20.7657 46.6648 20.902C46.9834 21.1745 47.4859 21.5522 48.1892 21.9348C49.5898 22.6967 51.8126 23.492 55.0142 23.492C58.2148 23.492 60.2822 22.6976 61.5219 21.9565C62.1459 21.5836 62.5712 21.2175 62.8321 20.9576C62.9627 20.8275 63.0522 20.7238 63.1048 20.659C63.1312 20.6267 63.1482 20.604 63.1566 20.5927C63.1591 20.5893 63.1608 20.5869 63.1618 20.5856C63.3419 20.322 63.6295 20.1516 63.9476 20.1203C64.2691 20.0888 64.5879 20.2029 64.8164 20.4314L66.9207 22.5357L70.8133 24.1072C70.8186 24.1094 70.8209 24.1097 70.821 24.1097C70.8213 24.1097 70.822 24.1098 70.823 24.1097C70.826 24.1093 70.8346 24.1073 70.8455 24.0999C70.8565 24.0925 70.8633 24.0839 70.8665 24.0783C70.8684 24.0747 70.8697 24.0716 70.8697 24.0638V4.9706C70.8697 4.96185 70.8686 4.95666 70.8679 4.95386C70.8671 4.95084 70.8659 4.94787 70.864 4.94462C70.8598 4.93738 70.8517 4.92813 70.8399 4.92073C70.8344 4.91728 70.8295 4.91512 70.8257 4.91388C70.8243 4.91342 70.8231 4.91312 70.8223 4.91293C70.8217 4.91318 70.8211 4.9135 70.8203 4.91389L70.8032 4.92254L68.3082 6.15742C67.8113 6.4237 67.2533 6.45338 66.7541 6.32072L62.7113 5.32249L45.3474 3.07954H30.5383C30.14 3.07954 29.7363 3.18404 29.387 3.37529L11.9236 13.1984C10.4426 14.0315 9.97297 15.9631 10.9225 17.3982C10.9228 17.3986 10.9231 17.3991 10.9233 17.3995L10.9703 17.47C10.9706 17.4704 10.9709 17.4709 10.9712 17.4713C11.8582 18.791 13.5635 19.2184 14.9503 18.4894C17.4137 17.1689 20.8209 15.3479 23.6124 13.8569C25.009 13.111 26.2516 12.4477 27.1451 11.9708L28.5829 11.2035C28.583 11.2034 28.5829 11.2035 29.0911 12.1559M46.2449 20.5021C46.2443 20.5014 46.2436 20.5006 46.243 20.4999Z" fill="#1C1C1B"/>
<path fill-rule="evenodd" clip-rule="evenodd" d="M64.0528 14.4788C64.6491 14.4788 65.1324 14.9621 65.1324 15.5583V21.1949C65.1324 21.7911 64.6491 22.2745 64.0528 22.2745C63.4566 22.2745 62.9733 21.7911 62.9733 21.1949V15.5583C62.9733 14.9621 63.4566 14.4788 64.0528 14.4788Z" fill="#1C1C1B"/>
<path fill-rule="evenodd" clip-rule="evenodd" d="M20.0898 52.8053C20.0898 52.209 20.5732 51.7257 21.1694 51.7257H55.0142C55.6104 51.7257 56.0937 52.209 56.0937 52.8053V72.0001C56.0937 72.5963 55.6104 73.0796 55.0142 73.0796H21.1694C20.5732 73.0796 20.0898 72.5963 20.0898 72.0001V52.8053ZM22.249 53.8848V70.9205H53.9346V53.8848H22.249Z" fill="#1C1C1B"/>
<path fill-rule="evenodd" clip-rule="evenodd" d="M53.9602 52.8053C53.9602 52.209 54.4435 51.7257 55.0398 51.7257H71.9748C72.5711 51.7257 73.0544 52.209 73.0544 52.8053C73.0544 53.4015 72.5711 53.8848 71.9748 53.8848H56.1193V70.8951H71.9748C72.5711 70.8951 73.0544 71.3784 73.0544 71.9747C73.0544 72.5709 72.5711 73.0542 71.9748 73.0542H55.0398C54.4435 73.0542 53.9602 72.5709 53.9602 71.9747V52.8053Z" fill="#1C1C1B"/>
<path fill-rule="evenodd" clip-rule="evenodd" d="M0.920654 52.8053C0.920654 52.209 1.40399 51.7257 2.00022 51.7257H21.1696C21.7658 51.7257 22.2492 52.209 22.2492 52.8053V71.9747C22.2492 72.5709 21.7658 73.0542 21.1696 73.0542H2.00022C1.40399 73.0542 0.920654 72.5709 0.920654 71.9747C0.920654 71.3784 1.40399 70.8951 2.00022 70.8951H20.09V53.8848H2.00022C1.40399 53.8848 0.920654 53.4015 0.920654 52.8053Z" fill="#1C1C1B"/>
<path fill-rule="evenodd" clip-rule="evenodd" d="M0.92041 20.0775C0.92041 19.4813 1.40375 18.9979 1.99998 18.9979H21.1694C21.7656 18.9979 22.2489 19.4813 22.2489 20.0775C22.2489 20.6737 21.7656 21.1571 21.1694 21.1571H3.07954V38.1673H37.0249V31.3506C37.0249 30.7544 37.5082 30.271 38.1044 30.271C38.7007 30.271 39.184 30.7544 39.184 31.3506V39.2469C39.184 39.8431 38.7007 40.3264 38.1044 40.3264H1.99998C1.40375 40.3264 0.92041 39.8431 0.92041 39.2469V20.0775Z" fill="#1C1C1B"/>
<path fill-rule="evenodd" clip-rule="evenodd" d="M37.025 33.6103C37.025 33.0141 37.5084 32.5308 38.1046 32.5308H71.9493C72.5456 32.5308 73.0289 33.0141 73.0289 33.6103V52.8051C73.0289 53.4013 72.5456 53.8847 71.9493 53.8847H38.1046C37.5084 53.8847 37.025 53.4013 37.025 52.8051V33.6103ZM39.1842 34.6899V51.7255H70.8698V34.6899H39.1842Z" fill="#1C1C1B"/>
</svg>
