<svg width="54" height="57" fill="none" xmlns="http://www.w3.org/2000/svg"><path d="m34.36 11.52 10.8-8.7c.9-.7 2.3-.5 3.1.4l3.8 4.4c.8.9.6 2.2-.3 2.8l-12 8.1c-1.9 1.3-4.2 1.5-5.8-.3l-.7-.8c-1.7-1.9-.9-4.3 1.1-5.9Z" fill="#F3E72F"/><path d="m34.36 11.12 10.8-8.7c.9-.7 2.3-.5 3.1.4l3.8 4.4c.8.9.6 2.2-.3 2.8l-12 8.1c-1.9 1.3-4.2 1.5-5.8-.3l-.7-.8c-1.8-1.9-.9-4.2 1.1-5.9Zm-1.2 6.8c-3.9 3.6-3.6 2.8-3.6 7.9v2.4c0 5 .4 4.2-3.5 7.8-1.2 1.1-6.7 5.1-7.8 6.1" stroke="#1C1C1B" stroke-width="2.18" stroke-miterlimit="22.93" stroke-linecap="round" stroke-linejoin="round"/><path d="m20.16 51.62-7.8 2.1-7.8 2.1c-.6.2-1.4-.1-1.9-.5s-.8-1.1-.6-1.7l5.2-11.5 5.3-11.7c.6-1.3 2.3-1.7 4.6-1.5l25.9 13.9c.6 1.5 0 2.6-2.3 3.2l-10.3 2.8-10.3 2.8Z" stroke="#1C1C1B" stroke-width="2.18" stroke-miterlimit="22.93" stroke-linecap="round" stroke-linejoin="round"/></svg>