<svg width="81" height="76" viewBox="0 0 81 76" fill="none" xmlns="http://www.w3.org/2000/svg">
<path d="M66.7274 74.9444H40.5265H14.3255C13.7105 74.9444 13.2431 74.4523 13.2185 73.8619L13.0955 44.1921H10.9797C10.3647 44.1921 9.87262 43.7001 9.87262 43.085V34.991C9.87262 34.622 10.0202 34.3268 10.3155 34.1054L25.1011 23.4405L39.8868 12.7756C40.2559 12.505 40.7725 12.505 41.1661 12.7756L70.7129 34.1054C71.0081 34.3022 71.1557 34.6466 71.1557 34.991V43.085C71.1557 43.7001 70.6637 44.1921 70.0487 44.1921H67.9083L67.8099 73.8619C67.8099 74.4769 67.3179 74.9444 66.7274 74.9444Z" stroke="#1D1D1B" stroke-width="2.09211" stroke-miterlimit="10"/>
<path d="M11.8654 44.315H3.37773C2.61508 44.315 2.00003 43.6999 2.00003 42.9373V32.7767C2.00003 32.3339 2.19684 31.9403 2.56587 31.6696L39.7638 4.85366C40.2312 4.50923 40.8955 4.50923 41.3629 4.85366L78.4871 31.6696C78.8561 31.9157 79.0529 32.3339 79.0529 32.7767V42.9373C79.0529 43.6999 78.4379 44.315 77.6752 44.315H69.2368" stroke="#1D1D1B" stroke-width="2.09211" stroke-miterlimit="10"/>
<path d="M33.2197 61.3396H22.7147C21.9521 61.3396 21.3124 60.7246 21.3124 59.9373V43.5771C21.3124 42.8145 21.9275 42.1748 22.7147 42.1748H33.2197C33.9824 42.1748 34.622 42.7898 34.622 43.5771V59.9373C34.5974 60.7246 33.9824 61.3396 33.2197 61.3396Z" fill="#FFF000" stroke="#1D1D1B" stroke-width="2.09211" stroke-miterlimit="10"/>
<path d="M58.0676 61.3396H47.5626C46.8 61.3396 46.1603 60.7246 46.1603 59.9373V43.5771C46.1603 42.8145 46.7754 42.1748 47.5626 42.1748H58.0676C58.8302 42.1748 59.4699 42.7898 59.4699 43.5771V59.9373C59.4453 60.7246 58.8302 61.3396 58.0676 61.3396Z" fill="#FFF000" stroke="#1D1D1B" stroke-width="2.09211" stroke-miterlimit="10"/>
<path d="M24.1663 15.7524V3.4023C24.1663 2.63965 23.5512 2 22.764 2H16.2691C15.5065 2 14.8668 2.61505 14.8668 3.4023V22.4687L24.1663 15.7524Z" stroke="#1D1D1B" stroke-width="2.09211" stroke-miterlimit="10"/>
</svg>
