<svg xmlns="http://www.w3.org/2000/svg" viewBox="0 0 46 46">
  <path fill="#fff" d="m29.66 15.22-9.36 5.45c-5.53 3.38-5.13 2.84-3.96 6.86a14.27 14.27 0 0 0 .94 2.99c.65.78.84-4 .85-4.05.27-2.03 15-13.1 11.53-11.25ZM23 0a23 23 0 1 0 23 23A23 23 0 0 0 23 0Zm11.13 11.44-4.28 20.49c-.26 1.25-.34 3.58-1.86 2.42l-5.33-3.9c-1.84-1.32-1.55-1.06-4.76 1.57-1.95 1.6-1.78 1.57-3.15-3.01-.4-1.35-.82-2.61-1.21-3.97-.18-.62-.07-.54-.6-.76-4.34-1.72-10.02-2.12-3.21-4.7l22.7-8.8c.57-.23 1.28-.41 1.58-.12.15.13.21.38.12.78Z"/>
</svg>
