<svg xmlns="http://www.w3.org/2000/svg" viewBox="0 0 1090.3 1036.4">
<path d="M804.1 83.7c-68.2-43-152.3-43.9-232.8-50.2-86.7-7.2-178-28.5-255.7 10.4-78.7 39.3-117.1 126.1-166 199.3C97.7 320.9 21.4 392.8 21 486.3c-.5 93.1 79 163.6 125.6 245s68.7 183.5 147.8 234.1c80 51.1 183.5 53.4 277 38A411.2 411.2 0 0 0 799.5 882c53.8-56.5 46.1-147 89.5-212 47-71 160.5-98.6 172.7-183 11.7-82.3-70-146.5-114.8-216-43.4-68-75.5-145-142.9-187.3Z" fill="#e7e4df"/>
<g fill="none" stroke="#fff" stroke-width="1.3px"><path d="M576.3 13.6c84 6.8 171.8 7.7 243.2 52.9 70.5 44.3 104.4 124.7 149.1 194.8 47 73.2 132.4 140 120.2 226-12.6 88.1-131 117-180.3 191.1-45.2 67.8-37 162.3-93.5 221.5a432.8 432.8 0 0 1-238.6 127.4c-97.6 16.3-206.1 13.6-289.7-39.8C204.4 934.7 180.9 828 132.5 743 83.7 658 .5 584.4 1 487.2c.5-97.6 80.5-173 134.7-254 51-76.8 90.8-167.6 173-208.7C390.2-15.8 486 6.4 576.4 13.6Z"/><path d="M467 426.7c7.2.4 15 .4 21.2 4.5s9 10.8 13.2 17.2 11.7 12.2 10.3 19.9c-.9 7.6-11.2 10.4-15.8 16.7-4 5.9-3.1 14-8.1 19.4a38 38 0 0 1-20.8 11.3c-8.6 1.4-18 1.4-25.3-3.6-7.2-4.5-9-14-13.6-21.2-4-7.3-11.3-14-11.3-22.2 0-8.6 7.3-14.9 11.8-22.1 4.5-6.8 8.1-14.5 14.9-18.1 7.2-4 15.8-2.3 23.5-1.8Z"/><path d="M788.3 101.3c-65.1-41.1-145.5-42-222.4-48.4-82.7-6.7-169.9-27-244 10-75.5 37.5-111.6 120.6-158.2 190.2-49.3 74.2-122.5 143.3-123 232.3s76 156.4 119.8 233.7c44.3 77.7 65.6 174.9 141 223.3 76.4 48.8 175 51 264.4 36.1a390.6 390.6 0 0 0 217.9-116.2c51.5-53.7 44.3-140 85.4-202 45.2-67.7 153.2-94.4 164.5-174.9 11.3-78.6-66.9-139.6-109.8-206.5-40.7-63.7-71.4-137.4-135.6-177.6Z"/><path d="M772.5 118.5C710.5 79 634.2 78.7 561 72.8 482.3 66 398.7 47 328.2 82.3 256.8 118 222 197.1 177.7 263.5c-47 70.5-116.6 136-117.5 221-.4 85 72.3 148.7 114.4 222.4C217 781 236.9 873.7 309.1 919.3 382 965.9 476 967.7 561 953.6A372.7 372.7 0 0 0 768.4 843c48.9-51.5 42-133.3 81.4-192.5 43-64.6 146-90 156.8-166.3 10.9-74.6-63.7-132.9-104.4-196.6-39.4-60.6-68.7-130.2-129.7-169Z"/><path d="M756.6 136c-58.7-37-131.5-37.9-201-43.3-74.6-6.3-153.7-24.4-221 9-68.3 34-101.3 109-143.3 172.2C147 341 80.5 403.2 80 483.6s68.7 141.5 108.5 211.5c40.2 70.5 59.6 158.2 127.9 202 69.1 44.3 158.6 46.1 239 32.6a353.5 353.5 0 0 0 197.5-105.3c46.6-48.8 39.8-127 77.3-183 40.7-61.5 138.3-85.5 149.2-158.2 10.4-71-60.6-126.6-99.5-186.7-37.5-57.8-65-123.8-123.4-160.4Z"/><path d="M740.8 153.3c-56-35.3-124.7-35.7-190.2-41.2-71-5.8-146-23-209.3 8.6-64.6 32.1-96.2 103-136 163.2-42.5 63.7-104.9 122.4-105.3 198.8S165 617 202.6 683c38 67 56.5 150 121 191.2 65.2 41.6 150 43.8 226.5 31.2A337.5 337.5 0 0 0 737.2 806c43.8-46.1 38-120.3 73.2-173.1 38.4-58.3 131-81 141-149.6 9.5-67.4-57.4-119.8-94-176.7C822.6 250.9 796 188 740.8 153.3Z"/><path d="M725 170.9C672.1 137.4 607.5 137 545.1 132c-66.9-5.4-137.8-21.7-198 8.1-61 30.3-90.3 97.7-127.8 154.1-39.8 60.2-99 115.7-99.4 187.6s61.4 126.6 97.1 189.4C253.2 734 270.4 812.6 331.4 852c61.4 39.3 141.9 41.1 213.7 29.4a319.7 319.7 0 0 0 176.7-94c41.6-43.9 35.7-113.5 69.2-163.6 36.6-55.2 123.8-76.4 133.3-141.5 9-63.3-54.2-113-89-167.2-33-52.5-58.3-111.7-110.3-144.2Z"/><path d="M709.2 188c-49.7-31.1-110.7-32-169.5-36.6-62.8-5-129.7-20.3-186.2 7.7-57.4 28.5-85 91.8-120.6 145.1-37.6 56.5-93.1 109-93.6 176.7S197 600.2 230.6 659c33.9 59.2 50.2 133.3 107.6 170 57.8 37 133.3 38.8 201.5 27.5A302 302 0 0 0 706 767.9c39.3-41.1 33.5-106.7 65.1-154.1 34.3-51.5 116.6-71.9 125.6-133.3 8.6-59.7-51-106.2-83.6-157.3-31.1-48.4-54.6-104.4-104-135.1Z"/><path d="M693.4 205.7c-46.6-29.4-104-29.8-158.7-34.4-59.2-5-121.5-19.4-174.4 7.3-53.8 26.6-80 85.8-113 136C212 367 159.6 416.3 159.2 480c0 63.3 54.2 111.6 85.9 166.8 31.6 55.6 47 125.2 100.7 159.5 54.3 34.8 125.2 36.6 189 25.8a282.4 282.4 0 0 0 155.9-83.2c36.6-38.4 31.6-100.3 61-144.6 32-48.4 109.3-67.3 117.5-124.7 8.1-56-48-100-78.2-147.4-29.4-45.6-51.5-97.6-97.6-126.5Z"/><path d="M677.5 222.9c-43.3-27.6-96.7-28-148.2-32.1-55.1-4.6-113.4-18.1-162.7 6.7-50.2 25-74.6 80-105.3 127-33 49.3-81.8 95.4-81.8 154.6-.4 59.2 50.6 104.4 80 156 29.8 52 43.9 116.5 94 148.6 50.6 32.6 116.6 34 176.3 24 55.1-9 106.6-37 145.5-77.3 34.4-36.2 29.4-93.5 57-134.7 29.8-45.2 102.1-62.8 109.8-116.6 7.7-52.4-44.7-93-73.2-137.8-27.6-42.5-48.4-91.3-91.4-118.4Z"/><path d="M661.7 240c-40.2-25.3-89.9-25.8-137.4-29.8-51-4-105.2-16.7-151.3 6.3-46.6 23-69.2 74.6-97.7 118-30.7 46-75.9 88.6-76.3 143.7s47 96.7 74.1 144.6c27.6 48.4 40.7 108.5 87.2 138.3 47 30.3 108.5 31.6 163.7 22.6A244.6 244.6 0 0 0 659 712c31.6-33.5 27.1-86.8 52.9-125.2 28-42 94.9-58.3 102.1-108 6.8-48.4-41.6-86.4-67.8-128-25.3-40.2-44.7-85.4-84.5-110.7Z"/><path d="M646 257.7c-37.1-23.5-83.2-24-127-27.6-47-4-97.2-15.4-139.7 5.9-43 21.2-63.8 68.7-90.4 108.9-28 42.5-70 81.8-70.5 132.4-.5 51 43.4 89.5 68.7 133.8S324.6 711 368 738.5c43.4 28 99.9 29 151 20.8A222.4 222.4 0 0 0 643.6 693c29.4-30.8 25.3-80 48.8-115.7 25.8-38.9 87.7-53.8 94-99.9 6.3-44.7-38.4-80-62.8-118-23.1-36.6-40.7-78.6-77.8-101.6Z"/><path d="M630.1 274.8c-34.4-21.7-76-22.1-116.6-25.3-43.4-3.6-89-14-127.9 5.4-39.3 19.5-58.8 63.3-82.7 100-25.8 38.8-64.2 75-64.6 121.5S278 558.2 301 598.9c23.5 40.7 34.3 91.7 74.1 117s91.7 26.6 138.3 19a204.6 204.6 0 0 0 114.3-61c27.2-28 23-73.2 44.8-105.8 23.5-35.7 80-49.2 86.3-91.7 5.9-41.1-34.8-73.2-57.4-108.5-21.2-33.4-37.5-71.8-71.4-93Z"/><path d="M614.7 292.5c-31.2-19.5-69.1-20-105.7-23-39.3-3.2-81-12.7-116.2 5-35.7 17.6-53.3 57.3-75.4 90.8-24 34.7-58.8 67.7-58.8 110.2-.5 42.5 36.2 74.6 57 111.2 21.2 37 31.1 83.1 67.3 106.2S466.5 717.3 509 710a188.8 188.8 0 0 0 104-55c24.4-25.9 20.7-67 40.6-96.4 21.3-32.5 72.8-44.7 78.7-83.1 5.4-37.5-32.1-66.4-52.5-98.5-19.9-30.3-34.8-65.1-65-84.5Z"/><path d="M599 309.6c-28-17.6-62.5-18-95.4-20.8-35.3-2.7-72.8-11.7-104.9 4.6s-47.9 51.5-67.8 81.8c-21.2 31.6-52.4 61.4-52.9 99.4s32.6 66.9 51.6 100.3 28 75 60.5 95.8 75 21.7 113.5 15.4c35.2-5.9 68.6-24 93.5-49.7 22.2-23 19-60.1 36.6-86.8 19.4-29 65.5-40.2 70.5-75 5-33.4-29-59.7-47-88.6-17.6-27.6-31.2-58.7-58.3-76.4Z"/><path d="M583.1 327.3c-24.9-15.9-55.6-15.9-84.5-18.6-31.6-2.7-64.6-10.4-93.1 3.6-29 14.5-43 46.1-60.6 72.8-19 28.5-46.5 54.7-47 88.6 0 33.9 29 59.6 45.7 89 16.7 29.8 24.8 66.9 53.8 85 28.9 18.5 66.9 19.4 100.7 13.5a151.5 151.5 0 0 0 83.2-44.2c19.4-20.3 16.7-53.3 32.5-77.3 17.2-25.7 58.3-35.7 62.8-66.4 4.6-29.8-25.3-53.3-42-78.7-15.4-24-27.1-52-51.5-67.3Z"/><path d="M567.3 344.4c-21.7-13.5-48.4-14-74.1-16.2-27.6-2.3-56.5-9-81.4 3.1-24.8 12.7-37 40.3-52.9 63.8-16.2 24.8-40.6 47.8-41 77.2 0 29.9 25.2 52 39.7 78.2 14.9 25.8 21.7 58.3 47 74.6s58.3 17.2 88.1 12.2a130.8 130.8 0 0 0 72.8-38.9c17.2-18 14.9-46.5 28.5-67.3 14.9-22.6 51-31.7 54.6-58.3 3.6-26.2-22.1-46.6-36.6-68.7-13-21.7-23.5-46.1-44.7-59.7Z"/><path d="M551.5 362c-18.6-11.7-41.6-12.1-63.8-13.5-23.5-1.8-48.8-7.7-70 2.7-21.7 10.9-32.1 34.4-45.2 54.2-14 21.3-34.8 40.7-35.3 66.5 0 25.3 21.7 44.7 34.4 66.9s19 50.1 40.2 63.7c21.7 14 50.2 14.5 75.5 10.4a113.1 113.1 0 0 0 62.4-33.5c14.4-15.3 12.6-40.2 24.4-57.8 12.6-19.4 43.8-27.1 47-50.2 3.1-22.6-19-39.7-31.2-59.2-11.3-17.6-20.4-38.8-38.4-50.1Z"/><path d="M535.6 379.2c-15.3-10-34.8-10-52.8-11.3-20-1.8-40.7-6.3-58.3 2.3-18.1 9-26.7 29-37.5 45.2-11.8 17.6-29.4 33.9-29.4 55.1s18 37 28.4 55.6 15.9 41.6 33.5 53.3c18 11.8 41.6 12.2 62.8 8.6a91.6 91.6 0 0 0 52-27.5c12.2-12.7 10.4-33.5 20.4-48.4 10.8-16.3 36.6-22.6 39.3-41.6 2.7-18.5-15.8-33.4-26.2-49.2-9.6-15-16.8-32.1-32.1-42Z"/><path d="M519.8 396.9c-12.6-7.7-27.5-8.2-42.4-9-15.9-1.4-32.6-5-46.6 1.8-14.5 7.2-21.3 23-30.3 36.1-9.5 14-23.5 27.1-23.5 44.3s14.5 29.8 23 44.8 12.7 33.4 27.2 42.4c14.4 9.5 33.4 10 50.6 6.8a73.7 73.7 0 0 0 41.6-22.1c10-10.4 8.6-26.7 16.3-38.4 8.5-13.2 29.3-18.1 31.1-33.5 2.3-15-12.6-26.7-20.8-39.3-8-12.3-14-26.3-26.2-34Z"/><path d="M504 414c-9.5-5.9-20.8-5.9-31.6-6.8-11.8-.9-24.4-4-34.8 1.4-10.9 5.4-15.9 17.2-22.6 27-7.3 10.5-17.7 20.4-17.7 33.5 0 12.7 10.9 22.6 17.2 33.5 6.3 11.3 9.5 24.8 20.3 32 10.9 6.8 25 7.3 38 5A55.8 55.8 0 0 0 504 523c7.2-7.7 6.3-19.9 12.2-29 6.3-9.4 21.7-13.5 23.5-24.8s-9.5-19.9-15.8-29.4S513 420 504 414Z"/></g>
</svg>
