<svg xmlns="http://www.w3.org/2000/svg" viewBox="0 0 439.8 463.1">
<style>@keyframes e{90%{transform:none}95%{transform:scaleY(.1)}}@keyframes n{55%,80%{transform:translateX(0)}60%{transform:translateX(-1px)}65%{transform:translateX(1px)}70%{transform:translateX(-1px)}75%{transform:translateX(1px)}}.e{transform-origin:center 152px;animation:2s ease-in-out infinite e}.n{animation:7s ease-in-out infinite n}</style>
<path d="M180.7 12.7c-35 7.8-62 33.8-89.4 57-29.8 24.8-65.4 46.6-77.8 83.3-12.7 37 2.3 76.5 9.8 115 7.8 41 6 87.6 35.2 117.4s76.3 27.1 116.5 38.3 79.2 36.7 120 28c41.4-8.9 75-40.6 99.8-74.7A183.2 183.2 0 0 0 429 267c-.6-34.7-31.3-61-38-95.2-7.3-37.2 20-81.4-2.5-112-22-29.7-68-24.5-104-32.5-35-7.9-69.1-22.2-103.8-14.6Z" fill="#5A5655"/>
<g fill="none" stroke="#fff" stroke-width=".3"><path d="M86.6 61.8c28.8-24.2 56.9-51.3 93.6-59.3 36.2-8 72.1 6.8 108.2 15 37.9 8.5 85.9 3 108.9 34 23.5 31.9-5 78.1 2.6 117 7 35.6 39 63 39.7 99.5a192.7 192.7 0 0 1-35.8 115c-25.8 35.7-61 68.8-104.2 78-42.6 9-83.5-17.4-125.4-29.2s-91.4-9-121.7-39.9-28.7-80-36.8-122.6C7.9 228.9-8 187.7 5.2 148.9c13.2-38.2 50.5-61.1 81.4-87.1Z"/><path d="M181.2 23.2c-33.5 7.3-59.2 32.3-85.6 54.3-28.3 23.8-62.3 44.6-74.2 79.5-12.2 35.6 2.4 73.2 9.4 109.9 7.6 38.9 6 83.7 33.7 112s73 25.8 111.1 36.6c38.4 10.8 75.5 35 114.6 26.6 39.4-8.4 71.4-38.5 95-71.2 22-30.2 33.5-67.9 32.8-105-.6-33.2-29.9-58.3-36.2-90.8-6.9-35.6 19-77.9-2.6-106.9-21-28.5-64.9-23.3-99.4-31-32.9-7.6-65.6-21.3-98.6-14Z"/><path d="M181.6 33.6c-32 7-56.3 30.7-81.3 51.7-27 22.5-59.5 42.6-70.8 75.9-11.5 33.7 2.3 69.6 9 104.5 7.1 37 5.6 79.6 31.9 106.8 26.5 27 69.5 24.5 105.8 34.7 36.7 10.2 72 33.3 109.2 25.2 37.6-8 68-36.9 90.5-67.9a166 166 0 0 0 31.1-100c-.7-31.6-28.4-55.4-34.5-86.5-6.6-33.9 18.2-74.2-2.3-101.8-19.9-27-61.8-22.1-94.6-29.6-31.4-6.9-62.5-19.8-94-13Z"/><path d="M182 44.2c-30.1 6.6-53.5 29-77.2 49.1-25.6 21.4-56.3 40.4-67.2 72-11 32.1 2 66.2 8.5 99.4 6.8 35.1 5.3 75.7 30.3 101.3s66 23.3 100.6 33c34.8 9.8 68.4 31.6 103.7 24 35.8-7.5 64.7-35 86-64.4a157 157 0 0 0 29.6-95.2c-.5-30-27.1-52.7-32.8-82.2-6.3-32.2 17.1-70.3-2.2-96.8-18.9-25.7-58.8-21.1-89.9-28-30-6.6-59.4-18.9-89.3-12.2Z"/><path d="M182.5 54.5c-28.8 6.4-50.8 27.7-73.2 46.5-24.3 20.4-53.5 38.4-63.6 68.2-10.5 30.5 1.7 62.8 7.9 94.3 6.5 33.5 5 71.7 28.9 96s62.6 22.2 95.1 31.4c33 9.3 64.9 29.8 98.2 22.7 33.7-7.2 61.3-33.1 81.5-61a150.3 150.3 0 0 0 28.2-90c-.5-28.4-25.6-50-31-77.8-6-30.5 16.2-66.7-2.1-91.6-18-24.3-55.7-20-85-26.6-28.5-6.7-56.6-18.3-85-12Z"/><path d="M183 65c-27.3 6-47.9 26-69.2 44-23 19.3-50.5 36.3-60.2 64.6-9.9 28.7 1.9 59.2 7.7 88.8C67.5 294 66 330.1 88.5 353s59 20.9 90 29.6c31.1 8.6 61.2 28.1 92.8 21.5s57.9-31.4 77-57.6a142.4 142.4 0 0 0 26.6-85c-.5-27-24.2-47.2-29.3-73.5-5.6-29 15.4-63-2-86.6-17-22.9-52.6-18.9-80.6-25.1C236.2 70 209.6 59 183 65Z"/><path d="M183.3 75.5c-25.5 5.7-45.1 24.5-65.2 41.5-21.4 18-47.4 34.1-56.6 60.7-9.2 27 1.8 55.6 7.2 83.7 5.8 29.6 4.6 63.6 25.6 85.3s55.7 19.7 84.7 27.8c29.3 8.2 57.6 26.6 87.3 20.2 29.9-6.3 54.4-29.4 72.5-54.3 16.6-23 25.3-51.6 25-80.1-.4-25.4-22.8-44.3-27.6-69.2-5.3-27.1 14.4-59.3-2-81.6C318.4 88 285 91.8 258.7 85.8c-25-5.6-50-16-75.3-10.3Z"/><path d="M183.8 86c-24 5.3-42.3 23-61 38.8-20.3 17-44.6 31.9-53 56.9-8.7 25.2 1.5 52.2 6.8 78.4 5.2 27.7 4 59.7 23.8 80 19.8 20 52.1 18.4 79.4 26 27.4 7.7 54 25 81.9 19 28-6 51.1-27.6 67.9-51A125.8 125.8 0 0 0 353 259c-.4-23.7-21.4-41.7-26-65-5-25.3 13.7-55.5-1.7-76.3-15-20.3-46.5-16.6-70.9-22.2-23.6-5.2-47-14.7-70.6-9.5Z"/><path d="M184.2 96.4c-22.4 4.8-39.4 21.4-57 36.2-19 15.9-41.6 29.8-49.5 53-8 23.7 1.4 48.8 6.4 73.3 5 26 4 55.8 22.4 74.6 18.4 18.9 48.8 17.2 74.2 24.3 25.7 7.2 50.4 23.3 76.3 17.8 26.2-5.6 47.6-25.8 63.4-47.6a117.5 117.5 0 0 0 21.9-70c-.4-22.2-20-38.8-24-60.5-4.8-23.7 12.6-51.9-1.8-71.3-14-19-43.3-15.5-66.3-20.8-22-4.9-44-13.9-66-9Z"/><path d="M184.5 106.8c-20.6 4.6-36.5 20-52.8 33.5-17.5 14.7-38.6 27.7-46 49.4-7.6 21.9 1.4 45.3 6 68 4.6 24.2 3.6 51.8 20.7 69.4s45.2 16 68.8 22.6c23.9 6.7 46.8 21.7 70.9 16.6 24.4-5.1 44.3-24 59-44a108.9 108.9 0 0 0 20.3-65c-.5-20.5-18.6-36-22.5-56.2-4.2-22.1 11.9-48.2-1.4-66.2-13-17.5-40.2-14.4-61.5-19.4-20.6-4.9-41-13.1-61.5-8.7Z"/><path d="M185 117.3c-19 4.2-33.8 18.5-48.8 31C120 161.8 100.6 174 93.7 194s1.3 41.7 5.5 62.8c4.4 22.2 3.4 47.9 19 64s41.8 14.8 63.7 21 43.1 19.8 65.5 15 40.7-22 54.4-40.6a99.1 99.1 0 0 0 18.7-60.1c-.3-19-17-33.3-20.7-52-4-20.3 11-44.4-1.5-61-12-16.2-37.2-13.4-56.8-17.8-18.8-4.4-37.5-12.2-56.5-7.9Z"/><path d="M185.4 127.7c-17.7 4-31 16.8-44.9 28.5-14.8 12.4-32.6 23.4-38.8 41.7s1.2 38.5 5 57.6c4 20.3 3.1 43.8 17.6 58.7s38.2 13.5 58.2 19.2c20.2 5.5 39.6 18.3 60.1 13.9S280 327 292.4 310a91.1 91.1 0 0 0 17.1-55c-.1-17.5-15.5-30.5-18.9-47.6-3.7-18.7 10-40.6-1.3-56-11-15-34-12.4-52.1-16.5-17.2-4-34.4-11-51.8-7.2Z"/><path d="M186 138.1c-16 3.6-28 15.4-40.7 25.8-13.4 11.3-29.6 21.3-35.2 38s1 34.8 4.5 52.3c3.3 18.6 2.6 40 15.9 53.4s34.8 12.3 52.8 17.4c18.3 5 35.9 16.6 54.6 12.6s34.1-18.5 45.3-34a84 84 0 0 0 15.7-50c-.3-15.8-14.3-27.7-17.2-43.3-3.5-17 9-37-1.1-51-10-13.5-31-11-47.5-14.8-15.8-3.3-31.4-9.7-47-6.4Z"/><path d="M186.4 148.5c-14.4 3.2-25.4 13.8-36.7 23.3-12 10.1-26.7 19-31.8 34.2s1 31.3 4 47.2c3.2 16.6 2.7 35.9 14.4 48s31.3 11 47.8 15.7 32.3 15 49.1 11.4 30.6-16.6 40.8-30.6a76.2 76.2 0 0 0 14-45c-.1-14.2-12.7-25-15.5-39-2.9-15.3 8.2-33.3-1.1-45.9-8.9-12.1-27.8-9.8-42.6-13.3-14.2-3.2-28.3-8.9-42.4-6Z"/><path d="M186.9 159c-12.8 2.8-22.6 12.4-32.6 20.6-10.9 9-23.7 17-28.4 30.3-4.6 13.6.9 28 3.6 42 3 15 2.4 32 12.8 42.8s27.9 9.8 42.4 14c14.6 4.2 28.8 13.4 43.6 10s27.3-14.7 36.2-27.2a67.5 67.5 0 0 0 12.5-40c-.2-12.6-11.4-22.2-13.9-34.7-2.6-13.6 7.3-29.6-.9-40.8-7.9-10.8-24.7-9-37.9-11.7-12.4-2.8-24.8-8-37.4-5.2Z"/><path d="M187.3 169.4c-11.1 2.5-19.7 10.7-28.6 18-9.4 8-20.7 14.9-24.8 26.5-4 11.8.8 24.4 3.2 36.8 2.6 13 2 27.9 11.1 37.3 9.4 9.5 24.3 8.6 37.1 12.3 12.8 3.5 25.1 11.7 38.2 9s23.9-12.8 31.8-23.7a58.2 58.2 0 0 0 10.9-35c-.2-11.2-9.9-19.5-12-30.3-2.4-11.9 6.2-26-1-35.6s-21.6-7.8-33-10.3c-11-2.8-22-7.3-33-5Z"/><path d="M187.8 180c-9.6 2-17 9.1-24.5 15.6-8 6.8-17.8 12.9-21.3 22.8-3.5 10.2.6 21 2.6 31.3 2.2 11.2 1.7 23.8 9.6 32.1 8 8 21 7.4 31.9 10.5s21.7 10 32.7 7.6a47.7 47.7 0 0 0 27-20.4 50.4 50.4 0 0 0 9.4-30c-.2-9.5-8.6-16.8-10.4-26-2-10.2 5.4-22.4-.8-30.7s-18.4-6.7-28.4-9c-9-2-18.6-5.9-27.8-3.8Z"/><path d="M188.1 190.4c-8 1.6-14.1 7.7-20.3 13-6.8 5.6-14.8 10.7-17.7 19-3 8.5.6 17.5 2.2 26 1.8 9.3 1.3 20 8 26.7s17.3 6.1 26.4 8.7 18 8.2 27.3 6.4c9.4-1.9 17-9 22.6-16.9a40.8 40.8 0 0 0 7.8-25c0-7.8-7.2-13.8-8.7-21.7-1.6-8.5 4.6-18.6-.5-25.4s-15.5-5.7-23.7-7.5c-7.7-1.8-15.4-5-23.4-3.3Z"/><path d="M188.6 201c-6.4 1.4-11.2 6-16.3 10.3-5.4 4.6-11.8 8.6-14.1 15.2-2.4 6.8.4 14 1.7 21 1.4 7.3 1 15.9 6.4 21.3s14 5 21.3 7 14.5 6.6 21.9 5c7.5-1.5 13.7-7.3 18.1-13.7a32.8 32.8 0 0 0 6.3-20c-.1-6.4-5.6-11.1-6.9-17.2-1.4-6.9 3.7-15-.6-20.4-3.9-5.4-12.3-4.5-18.8-6-6.4-1.4-12.7-4-19-2.6Z"/><path d="M189 211.3c-4.8 1.1-8.4 4.6-12.1 7.8-4 3.4-9 6.3-10.6 11.3s.3 10.4 1.3 15.6c1 5.6.7 12 4.8 16.1s10.6 3.8 16 5.3 10.7 4.9 16.4 3.8a24.3 24.3 0 0 0 13.6-10.3 25 25 0 0 0 4.7-15c-.1-4.8-4.2-8.4-5.2-13-1-5 2.6-11.2-.3-15.3s-9.3-3.3-14.2-4.4-9.7-2.9-14.4-1.9Z"/></g>
<g class="n"><path d="M173.3 210q27.5 44 55 0Z" fill="#000"/><path d="M173.3 210q27.5 44 55 0" fill="none" stroke="#fff" stroke-width="3"/></g><path d="M139.3 262a108.7 108.7 0 0 0 136 0" fill="none" stroke="#fff" stroke-miterlimit="10" stroke-width="8.5"/>
<g fill="#fff"><circle cx="311.4" cy="150.9" r="24"/><circle cx="118.3" cy="156.9" r="24"/></g><g class="e" fill="#000"><circle cx="306.9" cy="150.4" r="13.5"/><circle cx="111.8" cy="156.4" r="13.5"/></g><g class="e" fill="#fff000"><circle cx="300.4" cy="147.9" r="5"/><circle cx="113.3" cy="150.9" r="5"/></g>
</svg>
