<svg xmlns="http://www.w3.org/2000/svg" viewBox="0 0 318 386"><title>bigbrun-pending-sd</title><path d="M126.44,5.68c31.18,2.51,63.71,2.85,90.2,19.61C242.79,41.73,255.37,71.57,272,97.56c17.43,27.16,49.12,52,44.6,83.83-4.7,32.69-48.63,43.42-66.9,70.92C232.9,277.46,235.92,312.5,215,334.46a160.57,160.57,0,0,1-88.52,47.29C90.22,387.78,50,386.78,19,367c-30.51-19.62-39.23-59.18-57.17-90.7-18.11-31.53-49-58.85-48.79-94.9.17-36.22,29.84-64.22,50-94.23,19-28.5,33.7-62.2,64.22-77.46C57.36-5.22,92.9,3,126.44,5.68Z" fill="none" stroke="#fff" stroke-width="0.36"/><path d="M85.86,158.92c2.68.17,5.53.17,7.88,1.68s3.36,4,4.86,6.37,4.36,4.53,3.86,7.38c-.34,2.85-4.19,3.85-5.87,6.2-1.51,2.18-1.17,5.2-3,7.21A14,14,0,0,1,85.86,192c-3.18.5-6.71.5-9.39-1.34-2.68-1.68-3.35-5.2-5-7.88-1.51-2.68-4.19-5.2-4.19-8.22,0-3.18,2.68-5.53,4.36-8.21,1.68-2.52,3-5.37,5.53-6.71C79.83,158.08,83,158.75,85.86,158.92Z" fill="none" stroke="#fff" stroke-width="0.36"/><path d="M205.07,38.2c-24.15-15.25-54-15.59-82.49-17.94C91.9,17.75,59.54,10.21,32,24,4,37.87-9.37,68.72-26.64,94.54c-18.28,27.5-45.44,53.15-45.61,86.18s28.17,58,44.43,86.68c16.44,28.84,24.32,64.89,52.32,82.83,28.33,18.1,64.88,18.94,98.08,13.41a144.86,144.86,0,0,0,80.81-43.09c19.12-19.95,16.43-52,31.69-75,16.77-25.15,56.84-35,61-64.88,4.19-29.18-24.81-51.81-40.74-76.62C240.28,80.46,228.88,53.13,205.07,38.2Z" fill="none" stroke="#fff" stroke-width="0.36"/><path d="M199.2,44.58c-23-14.59-51.3-14.76-78.46-16.94-29.18-2.51-60.2-9.56-86.35,3.52C7.9,44.41-5,73.75-21.44,98.4c-17.44,26.15-43.26,50.46-43.59,82-.17,31.52,26.82,55.16,42.41,82.49,15.76,27.5,23.14,61.87,50,78.8,27,17.27,61.86,17.94,93.39,12.75a138.28,138.28,0,0,0,77-41.08c18.11-19.11,15.6-49.46,30.18-71.43,15.93-24,54.16-33.36,58.18-61.7,4-27.66-23.64-49.29-38.73-72.93C232.73,84.81,221.84,59,199.2,44.58Z" fill="none" stroke="#fff" stroke-width="0.36"/><path d="M193.33,51.12C171.54,37.37,144.54,37,118.72,35c-27.66-2.35-57-9.05-82,3.35C11.42,51-.82,78.78-16.41,102.25c-16.43,24.82-41.08,48-41.25,77.8s25.49,52.48,40.24,78.47C-2.5,284.67,4.71,317.2,30,333.46c25.65,16.43,58.85,17.1,88.69,12.07A131,131,0,0,0,192,306.47c17.27-18.11,14.76-47.12,28.67-67.91,15.09-22.8,51.31-31.68,55.33-58.68,3.86-26.32-22.47-46.94-36.88-69.24C225.19,89.18,215,64.7,193.33,51.12Z" fill="none" stroke="#fff" stroke-width="0.36"/><path d="M187.47,57.49c-20.79-13.08-46.28-13.25-70.59-15.26-26.32-2.18-54.16-8.55-77.63,3.18-24,11.91-35.71,38.23-50.46,60.53-15.77,23.64-38.9,45.44-39.07,73.77s24.14,49.8,38.06,74.28c14.08,24.81,21,55.66,44.93,70.92,24.15,15.42,55.67,16.26,84,11.57a125.19,125.19,0,0,0,69.41-36.89c16.27-17.1,14.09-44.6,27.17-64.21,14.25-21.63,48.62-30,52.31-55.5,3.52-25-21.3-44.43-34.88-65.56C217.81,93.7,207.92,70.4,187.47,57.49Z" fill="none" stroke="#fff" stroke-width="0.36"/><path d="M181.6,64C162,51.62,138,51.45,114.87,49.61c-24.82-2-51.14-8-73.44,3C18.8,63.86,7.9,88.84-6,109.8c-14.75,22.29-36.72,42.92-36.88,69.58s22.8,46.94,36,70.25c13.42,23.3,19.79,52.48,42.42,67.06,22.81,14.59,52.65,15.26,79.31,10.9a118.58,118.58,0,0,0,65.55-34.87c15.43-16.27,13.25-42.09,25.66-60.7,13.58-20.45,45.94-28.33,49.46-52.48,3.35-23.47-20.12-41.91-33-62C210.27,98.06,200.88,76.1,181.6,64Z" fill="none" stroke="#fff" stroke-width="0.36"/><path d="M175.73,70.39c-18.44-11.56-41.08-11.9-62.88-13.58C89.55,55,64.74,49.27,43.78,59.66,22.48,70.23,12.26,93.7-1,113.48c-13.92,21-34.54,40.41-34.71,65.56S-14.23,223.3-1.83,245.1c12.58,22,18.61,49.46,39.91,63,21.46,13.75,49.46,14.42,74.77,10.23a111.92,111.92,0,0,0,61.7-32.87c14.59-15.25,12.41-39.56,24.15-57.17,12.74-19.11,43.25-26.66,46.61-49.46,3.18-22.13-18.95-39.4-31-58.35C202.72,102.58,194,81.79,175.73,70.39Z" fill="none" stroke="#fff" stroke-width="0.36"/><path d="M169.86,76.93C152.59,66,131.3,65.87,111,64.19c-22-1.84-45.1-7.21-64.72,2.68-19.95,9.9-29.67,31.86-41.91,50.47-13.08,19.45-32.53,37.73-32.7,61.37,0,23.47,20.12,41.41,31.86,61.86C15.28,261.2,21,287,40.93,299.76c20.12,12.91,46.44,13.58,70.08,9.56a104.77,104.77,0,0,0,57.84-30.85c13.58-14.26,11.74-37.23,22.64-53.66,11.9-17.94,40.57-25,43.59-46.27,3-20.79-17.77-37.06-29-54.66C195.18,107,187,87.67,169.86,76.93Z" fill="none" stroke="#fff" stroke-width="0.36"/><path d="M164,83.31c-16.09-10.23-35.88-10.4-55-11.91-20.46-1.67-42.09-6.7-60.36,2.52C30,83.14,21,103.59,9.57,121c-12.24,18.28-30.34,35.38-30.34,57.34-.17,22,18.77,38.73,29.67,57.85C20,255.5,25.17,279.47,43.78,291.38,62.55,303.45,87,304,109.16,300.26a97.82,97.82,0,0,0,54-28.67c12.74-13.41,10.9-34.7,21.13-50,11.06-16.77,37.89-23.31,40.74-43.26,2.85-19.45-16.6-34.54-27.16-51.13C187.63,111.48,179.92,93.37,164,83.31Z" fill="none" stroke="#fff" stroke-width="0.36"/><path d="M158.12,89.68c-14.92-9.39-33.36-9.56-51-11.07C88.21,77.1,68.09,72.41,51,81c-17.27,8.55-25.66,27.66-36.22,43.76C3.37,141.82-13.4,157.58-13.56,178s17.43,35.88,27.49,53.65C24.16,249.63,29,271.93,46.29,283c17.44,11.24,40.24,11.74,60.7,8.39a90.82,90.82,0,0,0,50.13-26.66c11.73-12.41,10.06-32.19,19.61-46.45,10.4-15.59,35.21-21.62,37.9-40.07,2.51-17.94-15.43-32-25.15-47.45C180.09,115.83,172.88,99.07,158.12,89.68Z" fill="none" stroke="#fff" stroke-width="0.36"/><path d="M152.26,96.22C138.51,87.5,121.4,87.33,105.14,86c-17.43-1.51-36-5.7-51.81,2.18-15.92,7.88-23.64,25.48-33.53,40.4-10.39,15.77-26,30.35-26.15,49.13-.17,19,16.09,33.2,25.48,49.63s13.92,37,30,47.28c16.1,10.39,37.06,10.73,56,7.71a82.49,82.49,0,0,0,46.28-24.64c10.9-11.41,9.39-29.68,18.1-42.93,9.56-14.42,32.53-19.95,34.88-37.05,2.35-16.6-14.25-29.68-23.31-43.76C172.54,120.36,166,104.77,152.26,96.22Z" fill="none" stroke="#fff" stroke-width="0.36"/><path d="M146.39,102.59c-12.74-8-28.17-8.22-43.26-9.39-16.09-1.34-33-5.2-47.45,2C41.1,102.42,33.89,118.68,25,132.26c-9.56,14.42-23.81,27.83-24,45.1s14.76,30.35,23.31,45.44c8.72,15.09,12.74,34,27.5,43.42s34,9.9,51.3,7a75.87,75.87,0,0,0,42.42-22.64c10.06-10.39,8.55-27.16,16.6-39.23,8.72-13.25,29.68-18.28,32-34,2.18-15.25-12.91-27.16-21.29-40.24C165,124.72,159,110.47,146.39,102.59Z" fill="none" stroke="#fff" stroke-width="0.36"/><path d="M140.69,109.13c-11.57-7.21-25.65-7.38-39.24-8.55-14.58-1.18-30-4.7-43.08,1.84-13.25,6.54-19.79,21.29-28,33.7C21.48,149,8.57,161.27,8.57,177,8.4,192.79,22,204.69,29.69,218.28c7.88,13.74,11.57,30.85,25,39.4s31,9.05,46.77,6.37A70,70,0,0,0,140,243.59c9-9.55,7.71-24.81,15.09-35.71,7.88-12.07,27-16.6,29.17-30.85,2-13.92-11.9-24.65-19.45-36.55C157.45,129.25,151.92,116.34,140.69,109.13Z" fill="none" stroke="#fff" stroke-width="0.36"/><path d="M134.82,115.5c-10.4-6.54-23.14-6.71-35.38-7.71-13.08-1-27-4.36-38.9,1.67s-17.77,19.12-25.15,30.35c-7.88,11.74-19.45,22.8-19.61,36.89s12.07,24.81,19.11,37.22,10.4,27.83,22.47,35.54,27.83,8,42.08,5.7a63.39,63.39,0,0,0,34.71-18.44c8.21-8.55,7-22.3,13.58-32.19,7.21-10.73,24.31-14.92,26.15-27.83,1.85-12.41-10.73-22.14-17.43-32.87C149.91,133.61,144.88,122,134.82,115.5Z" fill="none" stroke="#fff" stroke-width="0.36"/><path d="M129,122c-9.22-5.86-20.62-5.86-31.35-6.87-11.74-1-24-3.86-34.54,1.34-10.73,5.37-15.93,17.1-22.47,27-7,10.56-17.27,20.28-17.43,32.86,0,12.57,10.73,22.13,16.93,33,6.2,11.06,9.22,24.81,19.95,31.52,10.73,6.87,24.81,7.21,37.39,5a56.19,56.19,0,0,0,30.85-16.43c7.21-7.55,6.2-19.79,12.07-28.67,6.37-9.56,21.63-13.25,23.31-24.65,1.67-11.07-9.39-19.78-15.6-29.17C142.36,138.13,138,127.74,129,122Z" fill="none" stroke="#fff" stroke-width="0.36"/><path d="M123.08,128.4c-8-5-17.94-5.19-27.49-6-10.23-.84-21-3.35-30.18,1.17-9.23,4.7-13.75,14.92-19.62,23.64-6,9.22-15.09,17.77-15.26,28.67,0,11.07,9.39,19.28,14.76,29,5.53,9.56,8.05,21.63,17.43,27.66s21.63,6.37,32.7,4.53a48.53,48.53,0,0,0,27-14.42c6.37-6.71,5.54-17.27,10.57-25,5.53-8.38,18.94-11.74,20.28-21.63,1.34-9.72-8.21-17.27-13.58-25.48C134.82,142.49,131,133.43,123.08,128.4Z" fill="none" stroke="#fff" stroke-width="0.36"/><path d="M117.21,135c-6.87-4.36-15.42-4.53-23.64-5-8.71-.67-18.1-2.85-26,1-8.05,4-11.91,12.74-16.77,20.12-5.2,7.88-12.91,15.09-13.08,24.65,0,9.39,8,16.6,12.75,24.81s7,18.61,14.92,23.64c8,5.2,18.61,5.37,28,3.86a41.93,41.93,0,0,0,23.13-12.41c5.37-5.7,4.7-14.92,9.06-21.46,4.69-7.21,16.26-10.06,17.44-18.61,1.17-8.38-7-14.75-11.57-22C127.27,147,123.92,139.14,117.21,135Z" fill="none" stroke="#fff" stroke-width="0.36"/><path d="M111.35,141.32c-5.7-3.69-12.91-3.69-19.62-4.2-7.38-.67-15.09-2.34-21.63.84-6.7,3.36-9.89,10.73-13.91,16.77-4.36,6.54-10.9,12.57-10.9,20.45s6.7,13.75,10.56,20.63,5.87,15.42,12.41,19.78c6.7,4.36,15.42,4.53,23.3,3.19a34,34,0,0,0,19.28-10.23c4.53-4.7,3.86-12.41,7.55-17.94,4-6,13.58-8.38,14.59-15.43,1-6.87-5.87-12.4-9.73-18.27C119.73,151.38,117.05,145,111.35,141.32Z" fill="none" stroke="#fff" stroke-width="0.36"/><path d="M105.48,147.85c-4.7-2.85-10.23-3-15.76-3.35-5.87-.5-12.07-1.84-17.27.67-5.37,2.68-7.88,8.55-11.24,13.41-3.52,5.2-8.71,10.06-8.71,16.44s5.36,11.06,8.55,16.59S65.74,204,71.11,207.37c5.36,3.53,12.4,3.69,18.77,2.52a27.34,27.34,0,0,0,15.43-8.22c3.69-3.85,3.19-9.89,6-14.25,3.18-4.86,10.89-6.7,11.56-12.4.84-5.54-4.69-9.9-7.71-14.59C112.18,155.9,110,150.7,105.48,147.85Z" fill="none" stroke="#fff" stroke-width="0.36"/><path d="M99.61,154.23c-3.52-2.18-7.71-2.18-11.74-2.52-4.36-.33-9.05-1.51-12.91.5-4,2-5.86,6.38-8.38,10.06C63.9,166.13,60,169.82,60,174.68c0,4.7,4,8.38,6.37,12.41,2.35,4.19,3.52,9.22,7.55,11.9,4,2.52,9.22,2.68,14.08,1.85a20.67,20.67,0,0,0,11.57-6.21c2.68-2.85,2.35-7.37,4.53-10.73,2.34-3.52,8-5,8.71-9.22s-3.52-7.38-5.86-10.9S103,156.41,99.61,154.23Z" fill="none" stroke="#fff" stroke-width="0.36"/></svg>