<svg xmlns="http://www.w3.org/2000/svg" viewBox="0 0 630 831">
<defs><style>.a,.b,.c{animation:none}:root{--at:9s}path{fill:none;stroke:#5a5655;stroke-width:.57px;animation:chc var(--at) linear infinite}.a{stroke:#000}.b,.c{stroke:#fff000;stroke-width:2px}.t{animation-delay:calc(var(--at) / 18)}.s{animation-delay:calc(var(--at) / 18 * 2)}.r{animation-delay:calc(var(--at) / 18 * 3)}.q{animation-delay:calc(var(--at) / 18 * 4)}.p{animation-delay:calc(var(--at) / 18 * 5)}.o{animation-delay:calc(var(--at) / 18 * 6)}.n{animation-delay:calc(var(--at) / 18 * 7)}.m{animation-delay:calc(var(--at) / 18 * 8)}.l{animation-delay:calc(var(--at) / 18 * 9)}.k{animation-delay:calc(var(--at) / 18 * 10)}.j{animation-delay:calc(var(--at) / 18 * 11)}.i{animation-delay:calc(var(--at) / 18 * 12)}.h{animation-delay:calc(var(--at) / 18 * 13)}.g{animation-delay:calc(var(--at) / 18 * 14)}.f{animation-delay:calc(var(--at) / 18 * 15)}.e{animation-delay:calc(var(--at) / 18 * 16)}.d{animation-delay:calc(var(--at) / 18 * 17)}@keyframes chc{0%,16.66%{stroke:#5a5655}11.11%,5.55%{stroke:#fff000}}</style></defs>
<path class="a" d="M461.68,11.1C529,16.53,599.2,17.25,656.37,53.44c56.46,35.46,83.6,99.88,119.42,156,37.64,58.62,106,112.18,96.26,180.94-10.13,70.57-104.94,93.73-144.39,153.08C691.48,597.71,698,673.34,652.75,720.75c-50.66,53.2-118.69,89.75-191.07,102-78.17,13-165,10.86-232-31.84C163.85,748.62,145,663.21,106.31,595.18,67.23,527.14.64,468.16,1,390.35,1.36,312.18,65.42,251.75,108.84,187c40.9-61.52,72.74-134.26,138.6-167.19C312.58-12.43,389.3,5.31,461.68,11.1Z"/>
<path class="b" d="M374.1,341.86c5.79.36,11.95.36,17,3.62s7.24,8.68,10.5,13.75,9.41,9.77,8.32,15.92c-.72,6.15-9.05,8.32-12.67,13.39-3.25,4.71-2.53,11.22-6.51,15.56a30.32,30.32,0,0,1-16.65,9c-6.87,1.08-14.47,1.08-20.26-2.9-5.79-3.61-7.24-11.21-10.86-17-3.26-5.79-9.05-11.22-9.05-17.74,0-6.87,5.79-11.94,9.41-17.73,3.62-5.43,6.52-11.58,12-14.47C361.08,340.05,368,341.5,374.1,341.86Z"/>
<path class="c" d="M631.4,81.3c-52.11-32.93-116.52-33.65-178-38.72-66.23-5.43-136.07-21.71-195.42,8-60.44,30-89.39,96.62-126.66,152.36-39.45,59.34-98.07,114.71-98.43,186S93.64,514.11,128.75,576c35.46,62.24,52.47,140,112.9,178.77,61.16,39.08,140,40.89,211.71,29,66.22-10.86,128.47-44.51,174.42-93C669,647.65,663.25,578.53,696.18,529c36.19-54.28,122.68-75.63,131.73-140.05,9-63-53.56-111.82-87.94-165.38C707.4,172.5,682.79,113.51,631.4,81.3Z"/>
<path class="d" d="M618.74,95.05C569.16,63.57,508,63.21,449.38,58.5c-63-5.42-129.92-20.62-186.37,7.6C205.83,94.69,178,158,142.5,211.22c-37.64,56.45-93.37,108.92-94.09,177-.36,68,57.9,119.06,91.55,178.05,34,59.35,49.94,133.53,107.85,170.08,58.26,37.28,133.53,38.72,201.57,27.5,63-10.49,122.31-42.34,166.1-88.66C654.56,633.9,649.14,568.4,680.62,521,715,469.24,797.51,449,806.19,387.82c8.69-59.71-51-106.4-83.59-157.42C691.11,181.91,667.59,126.18,618.74,95.05Z"/>
<path class="e" d="M606.07,109.17c-47-29.68-105.31-30.4-161-34.74-59.71-5.07-123-19.54-177,7.23C213.43,108.81,187,168.88,153.35,219.54c-35.46,53.56-88.66,103.5-89,167.92s55,113.27,86.85,169.36C183.39,613.27,199,683.48,253.6,718.58,309,754,380.62,755.49,445,744.64c60.08-9.78,116.17-40.17,158.15-84.32,37.27-39.09,31.84-101.69,61.88-146.57,32.57-49.21,110.73-68.39,119.42-126.66,8.32-56.81-48.49-101.32-79.62-149.45C674.83,191.31,652.75,138.48,606.07,109.17Z"/>
<path class="f" d="M593.41,122.92C548.53,94.69,493.52,94.33,441.05,90c-56.81-4.71-116.89-18.46-167.55,6.87-51.75,25.7-77.08,82.51-108.93,130.64-34,51-83.95,98.07-84.32,159.23s52.12,107.48,82.15,160.32c30.4,53.55,45.24,120.14,97,153.07,52.11,33.3,120.14,35.11,181.3,25,56.82-9.41,110-38,149.82-79.61,35.1-36.91,30.4-96.26,58.63-138.6C679.9,460.2,754.08,442.1,762,387.09c7.6-53.92-46-95.89-75.27-141.49C658.91,201.09,637.55,150.78,593.41,122.92Z"/>
<path class="g" d="M580.74,137c-42.34-26.78-94.09-27.14-144-31.12-53.56-4.34-110.38-17.37-158.51,6.51-48.85,24.25-72.37,78.17-102.41,123.41C144,284,96.54,328.47,96.18,386S145.39,487.34,174,537.64c29,50.3,42.7,113.27,91.56,144.75,49.21,31.48,113.63,32.93,171.17,23.52a255.9,255.9,0,0,0,141.5-75.27c33.29-35.1,28.58-90.83,55.36-131,29.32-44.15,99.16-61.16,106.76-113.27,7.24-50.66-43.43-90.47-71.29-133.9C642.62,210.49,622.35,163.09,580.74,137Z"/>
<path class="h" d="M568.07,150.78c-39.8-25-88.66-25.69-135.7-29.31-50.3-4-103.86-16.28-149.1,6.15-46,22.8-68,73.47-96.62,116.17C156.61,289,112.1,331,111.74,385.28s46.32,95.54,73.1,142.59C212,575.27,225,634.62,271,663.93c46.32,29.68,106.75,31.13,161.4,22.08,50.3-8.32,97.71-34,133.17-70.93,31.48-32.93,26.78-85.4,52.11-123.4,27.5-41.26,93.37-57.54,100.61-106.76,6.87-47.77-40.9-85-67-125.93C626.34,220.27,607.52,175.39,568.07,150.78Z"/>
<path class="i" d="M555.41,164.9c-37.28-23.53-83.24-23.89-127-27.51-47.41-4-97.35-15.56-139.69,5.79-43.07,21.36-64,68.76-90.47,108.93-28.23,42-70.21,81.42-70.57,132.45,0,50.66,43.43,89.39,68.76,133.54,25.33,44.51,37.63,100.24,80.7,127.74,43.43,27.87,100.24,29.31,151.27,20.63,47.4-8,91.55-31.85,124.85-66.59,29.31-30.76,25.33-80.34,48.85-115.8,25.69-38.72,87.58-53.92,94.09-99.88,6.51-44.87-38.36-80-62.61-118C610.05,229.67,592.32,188.06,555.41,164.9Z"/>
<path class="j" d="M542.74,178.65C508,156.57,465.3,156.21,424,153c-44.15-3.61-90.83-14.47-130.27,5.43-40.17,19.91-59.72,64.06-84.32,101.69C183,299.52,144,336.43,144,383.84c-.37,47.4,40.53,83.59,64.05,124.85,23.88,41.61,35.1,93.36,75.27,119.06,40.53,26,93.37,27.14,141.13,19.18,44.15-7.24,85.41-29.68,116.53-61.89,27.5-28.95,23.52-74.9,45.6-107.84,23.88-36.18,81.79-50.3,87.94-93.36,6.15-42-35.83-74.55-58.63-110.38C593.77,239.45,577.12,200.36,542.74,178.65Z"/>
<path class="k" d="M530.08,192.4c-32.21-20.27-72-20.63-110-23.88-40.89-3.26-84.32-13.39-121.23,5.06C261.56,192,243.46,233.29,220.66,268,196.06,305,159.87,339,159.51,383.11s37.63,77.45,59.34,115.81c22.08,38.72,32.58,86.85,69.85,110.73,37.63,24.25,86.85,25.33,131,18.1a195.84,195.84,0,0,0,108.2-57.54c25.34-26.78,21.72-69.48,42.34-100.24,22.44-33.66,76-46.69,81.79-86.5,5.43-38.72-33.29-69.11-54.28-102.41C577.48,248.85,561.92,212.67,530.08,192.4Z"/>
<path class="l" d="M517.41,206.51c-29.68-18.81-66.59-19.18-101.69-22.07-37.64-3.26-77.8-12.3-111.82,4.7-34.38,17-51,55-72.38,87.22-22.44,34-56.09,65.5-56.45,106-.36,40.89,34.74,71.65,55,107.12s30,80,64.78,102c34.74,22.43,80,23.16,120.87,16.65,38-6.16,73.46-25.34,99.88-53.2,23.52-24.61,20.26-64.06,39.08-92.64,20.63-31.13,70.21-43.07,75.28-80,5.06-35.83-30.76-64.05-50.31-94.45C561.2,258.63,547.08,225,517.41,206.51Z"/>
<path class="m" d="M504.74,220.26C477.24,202.89,444,202.53,411.38,200c-34.74-2.9-71.29-11.22-102.42,4.34-31.48,15.56-47,50.67-66.22,80-20.63,31.12-51.39,60.07-51.75,97.35s31.85,65.5,50.3,98.07c18.82,32.57,27.51,73.46,59.35,93.72s73.46,21.35,110.74,15.2a163.74,163.74,0,0,0,91.55-48.85c21.72-22.44,18.46-58.63,35.83-84.68,18.82-28.59,64-39.45,69.12-73.46,4.71-32.94-27.86-58.63-46-86.86C544.91,268,531.88,237.27,504.74,220.26Z"/>
<path class="n" d="M492.44,234.38c-25-15.56-55.37-15.92-84.68-18.46-31.49-2.53-64.78-10.13-93,4-28.59,14.12-42.71,46-60.44,72.74-19.18,27.87-47,54.28-47,88.3-.36,34,29,59.71,45.6,89,17,29.67,25,66.58,53.92,85s66.95,19.54,101,13.75c31.48-5.07,61.16-21.35,83.23-44.15,19.54-20.63,16.65-53.56,32.57-77.08,17-26.06,58.27-35.83,63-66.59,4.34-30-25.69-53.2-42-78.89C528.63,277.8,516.69,249.94,492.44,234.38Z"/>
<path class="o" d="M479.77,248.13c-22.43-14.11-49.94-14.48-76.35-16.65-28.23-2.17-58.27-9.41-84,3.62s-38.36,41.26-54.28,65.5c-17,25.33-42,49.22-42.34,79.62s26,53.56,41.25,80.34,22.44,60.07,48.49,76.72,60.08,17.37,90.84,12.3c28.22-4.71,55-19.18,74.91-39.81,17.73-18.45,15.19-48.13,29.31-69.48,15.56-23.16,52.47-32.21,56.45-60.07,4-26.78-23.16-47.77-37.63-70.93C512.34,287.21,501.49,262.24,479.77,248.13Z"/>
<path class="p" d="M467.11,262.24c-19.91-12.66-44.51-12.66-67.67-14.83-25.34-2.17-51.75-8.33-74.55,2.89-23.16,11.58-34.38,36.91-48.5,58.26-15.19,22.8-37.27,43.79-37.63,70.93,0,27.15,23.16,47.77,36.55,71.3,13.39,23.88,19.9,53.55,43.06,68,23.16,14.84,53.56,15.56,80.7,10.86a121.4,121.4,0,0,0,66.59-35.47c15.56-16.28,13.39-42.7,26.06-61.88,13.75-20.63,46.68-28.59,50.3-53.2,3.62-23.88-20.27-42.7-33.66-63C496.06,297,486.65,274.55,467.11,262.24Z"/>
<path class="q" d="M454.44,276c-17.37-10.86-38.72-11.22-59.35-13-22.07-1.81-45.23-7.24-65.14,2.53-19.9,10.13-29.67,32.21-42.34,51-13,19.9-32.57,38.36-32.93,61.88,0,23.88,20.27,41.62,31.85,62.61,11.94,20.62,17.37,46.68,37.63,59.71s46.69,13.75,70.57,9.77A104.75,104.75,0,0,0,453,479.37c13.76-14.47,11.95-37.27,22.8-53.92,11.94-18.09,40.9-25.33,43.79-46.68,2.9-21-17.73-37.27-29.31-55C479.77,306.39,471.45,286.85,454.44,276Z"/>
<path class="r" d="M441.78,290.11c-14.84-9.41-33.3-9.77-51-10.86-18.82-1.45-39.08-6.15-56.09,2.17-17.37,8.69-25.7,27.51-36.19,43.43-11.22,17-27.86,32.57-28.23,53.2,0,20.26,17.37,35.82,27.51,53.56s15.2,40.16,32.2,51c17.37,11.22,40.17,11.58,60.44,8.32a90.4,90.4,0,0,0,49.94-26.78c11.58-12.3,10.13-32.2,19.54-46.32,10.13-15.56,35.1-21.71,37.64-40.17,2.53-18.09-15.2-31.84-25-47.4C463.49,316.17,456.25,299.16,441.78,290.11Z"/>
<path class="s" d="M429.11,303.86c-12.3-8-27.87-8-42.34-9.05-15.92-1.44-32.57-5.06-46.68,1.81-14.48,7.24-21.36,23.16-30,36.19C300.64,346.92,286.53,360,286.53,377s14.47,29.68,22.8,44.51,12.66,33.3,26.78,42.7c14.47,9.41,33.29,9.78,50.3,6.88A73.25,73.25,0,0,0,428,449c9.78-10.14,8.33-26.78,16.29-38.73,8.68-13,29.31-18.09,31.48-33.29,2.17-14.84-12.66-26.78-21-39.44C447.2,325.57,441.41,311.82,429.11,303.86Z"/>
<path class="t" d="M416.44,318c-10.13-6.15-22.07-6.51-34-7.23-12.67-1.09-26.06-4-37.28,1.44-11.58,5.79-17,18.46-24.24,29-7.6,11.21-18.82,21.71-18.82,35.46s11.58,23.88,18.46,35.83,10.13,26.77,21.71,34c11.58,7.6,26.78,8,40.53,5.43a59,59,0,0,0,33.29-17.73c8-8.32,6.88-21.35,13-30.76,6.88-10.5,23.52-14.48,25-26.78,1.81-11.94-10.13-21.35-16.65-31.48C430.92,335.34,426.21,324.13,416.44,318Z"/>
<path class="u" d="M403.78,331.73c-7.6-4.71-16.65-4.71-25.33-5.43-9.41-.73-19.55-3.26-27.87,1.08-8.68,4.35-12.66,13.76-18.09,21.72-5.79,8.32-14.12,16.28-14.12,26.78,0,10.13,8.69,18.09,13.75,26.77,5.07,9.05,7.61,19.91,16.29,25.7,8.69,5.43,19.9,5.79,30.4,4a44.66,44.66,0,0,0,25-13.39c5.79-6.15,5.06-15.92,9.77-23.16,5.06-7.6,17.37-10.86,18.82-19.9s-7.6-15.93-12.67-23.53S411,336.43,403.78,331.73Z"/>
</svg>
