<svg xmlns="http://www.w3.org/2000/svg" viewBox="0 0 770 750"><defs><mask id="a" x="-18.4" y="0" width="788.4" height="750" maskUnits="userSpaceOnUse"><path fill="#fff" d="M0 0h770v750H0z"/></mask></defs><g mask="url(#a)" fill="none" stroke="#fff" stroke-width=".7"><path d="M398 10.1c60.8 5 124.2 5.6 175.8 38.3 51 32 75.5 90.2 107.9 140.8 34 53 95.7 101.3 87 163.4-9.2 63.7-94.9 84.6-130.5 138.2-32.7 49-26.8 117.4-67.6 160.2A313 313 0 0 1 398 743c-70.6 11.8-149 9.8-209.5-28.7C129.1 676 112.1 599 77.1 537.6 41.8 476-18.3 422.9-18 352.6c.3-70.6 58.2-125.2 97.4-183.7 37-55.5 65.7-121.2 125.2-151 58.8-29 128-13 193.4-7.8Z"/><path d="M319 308.8c5.2.3 10.7.3 15.3 3.3s6.5 7.8 9.5 12.4 8.5 8.8 7.5 14.4c-.7 5.5-8.2 7.5-11.5 12-2.9 4.3-2.2 10.2-5.8 14.1a27.4 27.4 0 0 1-15 8.2c-6.3 1-13.1 1-18.4-2.6-5.2-3.3-6.5-10.2-9.8-15.4-3-5.2-8.1-10.1-8.1-16 0-6.2 5.2-10.8 8.5-16 3.2-5 5.8-10.5 10.7-13 5.3-3 11.5-1.7 17-1.4Z"/><path d="M551.3 73.5c-47-29.7-105.2-30.4-160.8-35C330.7 33.6 267.6 19 214 45.8 159.5 73 133.3 133 99.6 183.3 64 237 11.1 287 10.8 351.3s54.9 113 86.6 169c32 56.2 47.3 126.4 102 161.4 55.1 35.3 126.4 37 191.1 26.1 59.8-9.8 116-40.2 157.5-84 37.3-38.8 32-101.3 61.8-146 32.7-49 110.8-68.3 119-126.5 8.1-56.9-48.4-101-79.5-149.4-29.4-46-51.6-99.3-98-128.4Z"/><path d="M539.8 86c-44.7-28.5-100-28.8-152.9-33-56.9-5-117.3-18.7-168.3 6.8-51.6 25.8-76.8 83-108.8 131-34 51-84.3 98.4-85 159.8-.3 61.5 52.3 107.6 82.7 160.8 30.7 53.6 45 120.6 97.4 153.6 52.6 33.7 120.6 35 182 24.9a269.5 269.5 0 0 0 150-80.1c35.3-37.3 30.4-96.4 58.8-139.2 31-46.8 105.6-65 113.4-120.3 7.9-54-46-96-75.5-142.1-28.4-43.8-49.6-94.2-93.8-122.3Z"/><path d="M528.4 98.7C486 71.9 433.4 71.2 383 67.3c-54-4.6-111.1-17.6-159.8 6.5-49.4 24.6-73.2 78.8-103.6 124.6-32 48.3-80 93.4-80.4 151.6s49.7 102.3 78.4 153c29.1 51 43.2 114.3 92.5 146 50 32 114.7 33.3 172.9 23.5a255.5 255.5 0 0 0 142.8-76.1c33.7-35.3 28.8-91.8 55.9-132.4 29.4-44.4 100-61.7 107.8-114.3 7.5-51.3-43.8-91.5-71.9-135-27.1-41.8-47-89.5-89.2-116Z"/><path d="M517 111.1c-40.6-25.5-90.2-25.8-137.6-29.7C328 77 273.8 64.7 228 87.6c-46.8 23.2-69.6 74.5-98.4 118C99 251.5 54 294 53.6 349.2s47 97 74.2 144.8c27.4 48.4 40.8 108.5 87.5 138.2 47.1 30.1 108.5 31.7 163.8 22.6a244 244 0 0 0 135.3-72c31.7-33.2 27.4-86.8 52.9-125 27.8-42.2 94.8-58.6 102-108.2 6.8-48.7-41.5-86.6-68-127.8C576 181.7 556.8 136.3 517 111Z"/><path d="M505.5 123.8c-38.2-24.1-85-24.5-130-28-48.4-4-99.7-15.7-143.2 5.8-44 22-65.3 70.6-92.5 111.5-28.7 43.4-71.5 83.6-71.9 135.6s44.5 91.5 70.3 137c26.2 45.3 38.6 102.2 82.7 130.6 44.4 28.5 102.6 29.8 154.6 21.3a231.1 231.1 0 0 0 127.7-68c30.1-31.7 25.9-82 50-118.3 26.5-39.9 89.6-55.2 96.5-102.3 6.5-45.7-39.3-81.7-64.4-120.9-23.9-38-42.2-80.7-79.8-104.3Z"/><path d="M494 136.3c-35.9-22.6-80-23.2-122.5-26.5-45.4-3.6-93.7-14.7-134.6 5.5-41.5 20.6-61.4 66.4-87.3 105C122.6 261 82.3 299 82 348s41.8 86.3 66 128.8c24.5 42.8 36.3 96.4 77.8 122.9 41.8 26.8 96.4 28 145.7 19.9a218.2 218.2 0 0 0 120.3-64c28.4-29.8 24.2-77.2 47-111.5 24.9-37.2 84.4-52 91-96.4 6.1-43.1-37-76.8-60.5-113.7-22.6-35-39.6-75.5-75.2-97.7Z"/><path d="M482.7 149c-33.7-21.2-75.2-21.6-114.7-24.8-42.9-3.6-88-14-126.2 5.2-38.9 19.3-57.8 62-81.7 98.4-25.5 37.9-63.4 73.5-63.7 119.6 0 45.7 39.2 80.7 62 120.6 23 40.2 34 90.5 73 115.3 39.2 25.2 90.5 26.5 136.5 18.7a204.2 204.2 0 0 0 112.8-60.2c26.5-27.8 22.9-72.5 44.1-104.6 23.2-35 79.1-48.6 85-90.2 5.9-40.5-34.7-72.2-56.6-106.5-21.2-33-37.2-70.6-70.5-91.5Z"/><path d="M471.2 161.4c-31.4-20-70-20.2-107.2-23.2-39.8-3.2-82-13-117.6 5-36.3 17.9-54 57.8-76.2 91.8-23.8 35.6-59.1 69-59.1 111.7-.3 42.8 36.6 75.5 57.8 112.8 21.6 37.5 31.7 84.3 68 107.5 36.6 23.5 84.3 24.5 127.5 17.3a190.8 190.8 0 0 0 105.2-55.9c24.8-26.1 21.2-67.6 41.2-97.4 21.5-32.6 73.8-45.4 79.4-84.3 5.5-37.9-32.4-67.3-53-99.7-20-30.7-35-66-66-85.6Z"/><path d="M459.8 173.8c-29.1-18.3-65-18.6-99.4-21.5-36.9-3-76.1-12.1-109.4 4.6-33.7 16.6-50 53.9-70.6 85.2-22.3 33.4-55 64.1-55.3 104s34 69.9 53.6 104.5c20 35 29.5 78.5 63.1 100 34 22 78.4 23 118.3 16.4a176.8 176.8 0 0 0 97.7-52c22.9-24.2 19.6-62.7 38.3-90.5 20.2-30.4 68.6-42.2 73.8-78.1 5-35-30-62.4-49-92.5-18.3-29-32.4-61.8-61.1-80Z"/><path d="M448.3 186.6c-26.8-17-60-17.3-91.8-20-34-2.9-70.3-11-101 4.3-31 15.4-46 49.7-65.3 78.8-20.3 30.7-50.7 59.1-51 95.7-.3 37 31.4 64.7 49.7 96.7s27 72.3 58.5 92.2c31.3 20.3 72.2 21 109.1 15a160.8 160.8 0 0 0 90.2-48c21.3-22.2 18.3-57.8 35.3-83.7 18.6-28 63.4-38.9 68-72.2 4.6-32.3-27.8-57.8-45.4-85.3-16.7-26.5-29.5-56.8-56.3-73.5Z"/><path d="M437 199c-25-15.7-55-16-84.4-18.3-31.4-2.6-64.4-10.1-92.5 4-28.4 14-42.5 45.7-59.8 72.2-18.6 28-46.4 54.2-46.7 87.9s28.7 59.1 45.4 88.5c17 29.4 24.8 66.4 53.6 84.7s66.3 19.2 100 13.7a147.9 147.9 0 0 0 82.7-44.1c19.6-20.3 16.6-53 32.3-76.5 17-25.8 57.9-35.6 62.5-66.3 4.2-29.8-25.2-53-41.5-78.5-15.4-24.2-27.2-52-51.7-67.3Z"/><path d="M425.8 211.8c-22.5-14.1-50-14.4-76.5-16.7-28.4-2.3-58.5-9.2-84 3.6-25.8 12.7-38.5 41.5-54.5 65.7-17.4 25.1-42.5 49-42.5 79.7-.3 30.7 26.1 54 41.2 80.4 15.3 26.8 22.5 60.1 48.7 76.8s60.4 17.6 91.1 12.4a136.5 136.5 0 0 0 75.2-39.9c17.6-18.6 15-48.3 29.4-69.6 15.4-23.5 52.6-32.3 56.9-60 3.9-27.2-23.2-48.1-38-71.3-14.3-22-25.1-47-47-61.1Z"/><path d="M414.4 224.2c-20.3-12.8-45.1-13.1-69-15-25.5-2-52.6-8.6-75.8 3.2s-34.7 37.3-49 59.2c-15.4 22.8-38 44.4-38.3 71.9s23.6 48.3 37.3 72.5 20.2 54.3 43.8 69.3 54.2 15.7 82 11.1a123.6 123.6 0 0 0 67.6-36c16-16.6 13.8-43.4 26.5-62.7 14-21 47.4-29 51-54.2 3.6-24.2-21-43.2-34-64-12.7-20-22.5-42.6-42.1-55.3Z"/><path d="M403 237c-18-11.5-40.3-11.5-61.2-13.5-22.9-2-46.7-7.5-67.3 2.6-21 10.5-31 33.4-43.8 52.6-13.7 20.6-33.7 39.6-34 64.1 0 24.5 21 43.1 33 64.4 12.1 21.5 18 48.3 38.9 61.4 21 13.4 48.4 14 72.9 9.8a109.6 109.6 0 0 0 60.1-32c14-14.7 12.1-38.6 23.5-55.9 12.5-18.6 42.2-25.8 45.5-48 3.2-21.6-18.3-38.6-30.4-56.9-11.1-17.3-19.6-37.6-37.3-48.7Z"/><path d="M391.5 249.3c-15.7-9.8-35-10.1-53.6-11.7-20-1.7-40.9-6.6-58.8 2.3-18 9.1-26.8 29-38.3 46-11.7 18-29.4 34.7-29.7 56 0 21.5 18.3 37.5 28.7 56.5 10.8 18.6 15.7 42.1 34 53.9s42.2 12.4 63.8 8.8a94.6 94.6 0 0 0 52.6-28.1c12.4-13 10.8-33.7 20.6-48.7 10.7-16.3 36.9-22.9 39.5-42.1 2.6-19-16-33.7-26.5-49.7-9.4-15.7-17-33.4-32.3-43.2Z"/><path d="M380 262c-13.4-8.4-30-8.7-46-9.7-17-1.3-35.3-5.6-50.7 2-15.7 7.8-23.2 24.8-32.7 39.2-10.1 15.3-25.1 29.4-25.5 48 0 18.3 15.7 32.3 24.9 48.4s13.7 36.2 29 46c15.7 10.2 36.3 10.5 54.6 7.6a81.7 81.7 0 0 0 45.1-24.2c10.5-11.1 9.2-29.1 17.7-41.9 9.1-14 31.7-19.6 34-36.2 2.3-16.4-13.8-28.8-22.6-42.8-8.1-12.8-14.7-28.1-27.8-36.3Z"/><path d="M368.6 274.5c-11.1-7.2-25.2-7.2-38.2-8.2-14.4-1.3-29.4-4.5-42.2 1.7-13 6.5-19.3 20.9-27.1 32.6-8.5 12.8-21.3 24.6-21.3 40s13.1 26.7 20.6 40.1 11.5 30 24.2 38.6c13 8.5 30 8.8 45.4 6.2a66.2 66.2 0 0 0 37.6-20c8.8-9.1 7.5-24.1 14.7-35 7.9-11.7 26.5-16.3 28.5-30 2-13.4-11.5-24.2-19-35.6-6.9-10.8-12-23.2-23.2-30.4Z"/><path d="M357.2 287.2c-9.2-5.5-20-5.8-30.8-6.5-11.4-1-23.5-3.6-33.6 1.3-10.5 5.2-15.4 16.7-22 26.2-6.8 10-17 19.6-17 32s10.6 21.6 16.8 32.3 9.1 24.2 19.6 30.8c10.4 6.8 24.2 7.1 36.6 4.9a53.3 53.3 0 0 0 30-16c7.2-7.6 6.2-19.3 11.8-27.8 6.2-9.5 21.2-13.1 22.5-24.2 1.7-10.8-9.1-19.3-15-28.4-5.9-8.9-10.1-19-19-24.6Z"/><path d="M345.7 299.7c-6.8-4.3-15-4.3-22.8-5-8.5-.6-17.7-2.9-25.2 1-7.9 4-11.4 12.5-16.4 19.7-5.2 7.5-12.7 14.7-12.7 24.1 0 9.2 7.8 16.4 12.4 24.2 4.6 8.2 6.9 18 14.7 23.2 7.9 5 18 5.2 27.5 3.6a40.3 40.3 0 0 0 22.5-12c5.3-5.6 4.6-14.5 8.9-21 4.5-6.9 15.6-9.8 17-18s-7-14.3-11.5-21.2-7.8-14.4-14.4-18.6Z"/></g></svg>