<svg xmlns="http://www.w3.org/2000/svg" viewBox="0 0 181 289"><title>bigbrun-pending-m</title><path d="M37.79,4.5c23.35,1.89,47.7,2.14,67.53,14.69,19.58,12.3,29,34.64,41.42,54.1,13.06,20.33,36.78,38.91,33.39,62.76-3.51,24.48-36.4,32.51-50.08,53.09-12.55,18.83-10.29,45.07-26,61.51a120.27,120.27,0,0,1-66.28,35.4c-27.11,4.52-57.24,3.76-80.46-11.05-22.84-14.68-29.37-44.31-42.8-67.91s-36.66-44.05-36.53-71S-99.66,88-84.59,65.51c14.18-21.34,25.23-46.57,48.07-58C-13.93-3.66,12.68,2.49,37.79,4.5Z" fill="none" stroke="#fff" stroke-width="0.27"/><path d="M7.41,119.23c2,.12,4.15.12,5.9,1.25s2.51,3,3.64,4.77,3.27,3.39,2.89,5.52-3.14,2.89-4.39,4.65-.88,3.89-2.26,5.4A10.49,10.49,0,0,1,7.41,144c-2.38.38-5,.38-7-1s-2.51-3.89-3.77-5.9-3.14-3.89-3.14-6.15,2-4.14,3.27-6.15,2.25-4,4.14-5S5.28,119.1,7.41,119.23Z" fill="none" stroke="#fff" stroke-width="0.27"/><path d="M96.66,28.85C78.58,17.43,56.24,17.18,34.9,15.42c-23-1.88-47.19-7.53-67.78,2.76-21,10.42-31,33.52-43.93,52.85-13.68,20.58-34,39.79-34.14,64.52S-89.87,179-77.69,200.44s18.2,48.58,39.16,62c21.21,13.55,48.58,14.18,73.43,10a108.49,108.49,0,0,0,60.5-32.26c14.31-14.94,12.31-38.91,23.73-56.11,12.55-18.83,42.55-26.23,45.69-48.57,3.13-21.85-18.58-38.79-30.5-57.37C123,60.48,114.48,40,96.66,28.85Z" fill="none" stroke="#fff" stroke-width="0.27"/><path d="M92.27,33.62c-17.2-10.92-38.41-11-58.75-12.68-21.84-1.88-45.06-7.15-64.64,2.64-19.83,9.92-29.5,31.88-41.8,50.33-13,19.59-32.39,37.79-32.64,61.38s20.09,41.3,31.76,61.76,17.32,46.32,37.41,59c20.21,12.93,46.31,13.43,69.91,9.54a103.52,103.52,0,0,0,57.62-30.76c13.55-14.31,11.67-37,22.59-53.47,11.92-18,40.54-25,43.56-46.19,3-20.71-17.7-36.9-29-54.6C117.37,63.75,109.21,44.42,92.27,33.62Z" fill="none" stroke="#fff" stroke-width="0.27"/><path d="M87.87,38.52C71.55,28.23,51.35,28,32,26.47,11.3,24.71-10.66,19.69-29.36,29c-19,9.41-28.12,30.25-39.79,47.82C-81.46,95.38-99.91,112.7-100,135s19.08,39.29,30.12,58.75,16.57,43.93,35.52,56.11c19.21,12.3,44.06,12.8,66.41,9a98.08,98.08,0,0,0,54.85-29.24c12.93-13.56,11-35.27,21.46-50.84,11.3-17.07,38.41-23.72,41.43-43.93,2.88-19.71-16.82-35.15-27.62-51.84C111.72,67,104.07,48.69,87.87,38.52Z" fill="none" stroke="#fff" stroke-width="0.27"/><path d="M83.48,43.29C67.92,33.5,48.84,33.37,30.64,31.86c-19.71-1.63-40.55-6.4-58.12,2.39-17.95,8.91-26.74,28.62-37.78,45.31-11.8,17.7-29.12,34-29.25,55.23S-76.43,172.07-66,190.4c10.55,18.58,15.69,41.67,33.64,53.09s41.68,12.18,62.89,8.66a93.69,93.69,0,0,0,52-27.61c12.17-12.8,10.54-33.39,20.33-48.07,10.67-16.2,36.4-22.47,39.16-41.55,2.64-18.71-15.94-33.27-26.1-49.08C106.2,70.4,98.79,53,83.48,43.29Z" fill="none" stroke="#fff" stroke-width="0.27"/><path d="M79.09,48.18c-14.69-9.28-32.64-9.41-50-10.79-18.58-1.51-38.29-6-55,2.26-16.95,8.41-25.1,27.11-35.52,42.8C-72.42,99.15-88.86,114.58-89,134.54s17.07,35.15,27,52.6,14.81,39.28,31.76,50.2,39.41,11.43,59.37,8.16a88.74,88.74,0,0,0,49.08-26.1c11.55-12.18,9.91-31.51,19.2-45.44,10.17-15.32,34.39-21.22,37-39.29,2.51-17.58-15.06-31.38-24.73-46.44C100.55,73.66,93.52,57.22,79.09,48.18Z" fill="none" stroke="#fff" stroke-width="0.27"/><path d="M74.69,53C60.88,44.29,43.94,44,27.62,42.79c-17.45-1.38-36-5.65-51.71,2.13C-40,52.83-47.69,70.4-57.61,85.21c-10.42,15.69-25.86,30.25-26,49.08s16.07,33.14,25.35,49.46,13.94,37,29.88,47.19,37,10.8,56,7.66A83.84,83.84,0,0,0,73.81,214c10.92-11.42,9.29-29.62,18.08-42.8,9.54-14.31,32.38-20,34.89-37,2.39-16.57-14.18-29.5-23.22-43.68C94.9,77.06,88.37,61.49,74.69,53Z" fill="none" stroke="#fff" stroke-width="0.27"/><path d="M70.3,57.85c-12.93-8.16-28.87-8.29-44.06-9.54-16.44-1.38-33.76-5.4-48.45,2-14.94,7.4-22.22,23.85-31.38,37.78-9.79,14.56-24.35,28.24-24.48,45.94S-63,165-54.22,180.36s13.06,34.77,28,44.31,34.77,10.16,52.47,7.15a78.47,78.47,0,0,0,43.31-23.1c10.16-10.66,8.78-27.86,16.94-40.16,8.91-13.43,30.38-18.71,32.64-34.65,2.26-15.56-13.31-27.74-21.72-40.92C89.25,80.32,83.1,65.88,70.3,57.85Z" fill="none" stroke="#fff" stroke-width="0.27"/><path d="M65.91,62.62C53.85,55,39,54.84,24.73,53.71c-15.31-1.26-31.5-5-45.18,1.88-13.94,6.9-20.71,22.22-29.25,35.27-9.16,13.68-22.72,26.49-22.72,42.93s14.06,29,22.22,43.3,12.17,32.39,26.11,41.3,32.38,9.42,49,6.65a73.33,73.33,0,0,0,40.42-21.46c9.54-10,8.16-26,15.81-37.41,8.29-12.55,28.37-17.44,30.51-32.38,2.13-14.56-12.43-25.86-20.34-38.28C83.6,83.71,77.83,70.15,65.91,62.62Z" fill="none" stroke="#fff" stroke-width="0.27"/><path d="M61.51,67.39c-11.17-7-25-7.16-38.16-8.29C9.17,58-5.89,54.46-18.69,60.86S-37.9,81.57-45.81,93.62c-8.53,12.8-21.09,24.6-21.21,39.92s13,26.86,20.58,40.16,11.3,30.13,24.23,38.41,30.12,8.79,45.44,6.28a68,68,0,0,0,37.53-20c8.79-9.29,7.53-24.1,14.69-34.77,7.78-11.67,26.36-16.19,28.36-30,1.89-13.43-11.54-24-18.82-35.52C78,87,72.56,74.42,61.51,67.39Z" fill="none" stroke="#fff" stroke-width="0.27"/><path d="M57.12,72.28C46.83,65.76,34,65.63,21.85,64.63c-13.06-1.13-27-4.27-38.79,1.63S-34.64,85.34-42,96.51c-7.78,11.8-19.46,22.72-19.58,36.78s12,24.85,19.08,37.15,10.41,27.74,22.46,35.4,27.74,8,41.93,5.77a61.69,61.69,0,0,0,34.64-18.45c8.16-8.54,7-22.22,13.56-32.13,7.15-10.8,24.35-14.94,26.11-27.74,1.75-12.43-10.67-22.22-17.45-32.77C72.31,90.36,67.41,78.68,57.12,72.28Z" fill="none" stroke="#fff" stroke-width="0.27"/><path d="M52.73,77.05c-9.54-6-21.09-6.15-32.39-7-12-1-24.73-3.9-35.52,1.5s-16.32,17.57-23,27.74c-7.16,10.8-17.82,20.84-18,33.77s11.05,22.72,17.45,34,9.54,25.48,20.58,32.51S7.41,207,20.34,204.84a56.84,56.84,0,0,0,31.76-17c7.53-7.78,6.4-20.33,12.43-29.37,6.52-9.92,22.21-13.68,24-25.48,1.63-11.43-9.66-20.34-15.94-30.13C66.66,93.62,62.14,83,52.73,77.05Z" fill="none" stroke="#fff" stroke-width="0.27"/><path d="M48.46,82c-8.66-5.4-19.2-5.53-29.37-6.4C8.17,74.67-3.38,72-13.17,76.93s-14.81,15.94-21,25.23c-6.66,9.66-16.32,18.82-16.32,30.62s10,20.71,15.81,30.88,8.67,23.1,18.71,29.5,23.22,6.78,35,4.77A52.51,52.51,0,0,0,48,182.62c6.78-7.16,5.77-18.58,11.3-26.74,5.89-9,20.2-12.43,21.84-23.1,1.5-10.41-8.92-18.45-14.56-27.36C61,97,56.87,87.35,48.46,82Z" fill="none" stroke="#fff" stroke-width="0.27"/><path d="M44.07,86.72c-7.79-4.9-17.33-5-26.49-5.77-9.79-.76-20.21-3.27-29.12,1.25s-13.31,14.31-18.83,22.72c-5.9,8.79-14.56,17.07-14.69,27.62s9,18.57,14.31,27.86S-23,181.24-13.93,187s20.84,6,31.51,4.27a47.42,47.42,0,0,0,26-13.81c6.15-6.4,5.28-16.69,10.17-24.1,5.4-8,18.2-11.17,19.58-20.83,1.38-9.29-8-16.57-13.05-24.61C55.36,100.28,51.6,91.62,44.07,86.72Z" fill="none" stroke="#fff" stroke-width="0.27"/><path d="M39.67,91.61c-6.9-4.39-15.44-4.39-23.47-5.14-8.79-.76-17.95-2.89-25.86,1s-11.92,12.8-16.82,20.21c-5.27,7.91-12.93,15.19-13,24.6s8,16.57,12.68,24.73,6.9,18.58,14.93,23.6,18.58,5.4,28,3.76a42.06,42.06,0,0,0,23.1-12.3c5.4-5.65,4.65-14.81,9-21.46,4.77-7.16,16.19-9.92,17.45-18.45,1.25-8.29-7-14.82-11.68-21.84C49.71,103.66,46.45,95.88,39.67,91.61Z" fill="none" stroke="#fff" stroke-width="0.27"/><path d="M35.28,96.39c-6-3.77-13.43-3.9-20.59-4.52C7,91.24-1,89.36-7.9,92.75s-10.29,11.17-14.69,17.69c-4.51,6.91-11.29,13.31-11.42,21.47s7,14.43,11,21.71,6,16.2,13.05,20.71,16.19,4.77,24.48,3.39a36.3,36.3,0,0,0,20.21-10.79c4.77-5,4.14-12.93,7.91-18.7,4.14-6.28,14.18-8.79,15.18-16.2S51.72,119.1,47.71,113C44.07,106.93,41.18,100.15,35.28,96.39Z" fill="none" stroke="#fff" stroke-width="0.27"/><path d="M30.89,101.28c-5.15-3.26-11.55-3.39-17.7-3.76C6.66,97-.37,95.38-6.27,98.27s-8.91,9.54-12.55,15.06c-3.89,5.9-9.67,11.3-9.79,18.45s6,12.43,9.54,18.58,5.27,13.93,11.17,17.7,13.93,4,21,2.89a31.4,31.4,0,0,0,17.32-9.29c4-4.27,3.52-11.17,6.78-16.07,3.52-5.4,12.18-7.53,13.06-13.93s-5.27-11-8.66-16.45C38.42,110.32,35.91,104.42,30.89,101.28Z" fill="none" stroke="#fff" stroke-width="0.27"/><path d="M26.49,106.05c-4.26-2.76-9.66-2.76-14.68-3.14-5.52-.5-11.3-1.76-16.2.63s-7.4,8-10.41,12.55C-18.07,121-23,125.5-23,131.4s5,10.3,7.91,15.44,4.39,11.55,9.29,14.81S5.78,165,11.68,164a25.42,25.42,0,0,0,14.44-7.66c3.39-3.51,2.88-9.29,5.65-13.43,3-4.52,10.16-6.28,10.92-11.55s-4.4-9.29-7.28-13.68C32.77,113.58,30.76,108.81,26.49,106.05Z" fill="none" stroke="#fff" stroke-width="0.27"/><path d="M22.1,110.94c-3.51-2.13-7.66-2.26-11.8-2.51-4.39-.37-9-1.38-12.93.51s-5.9,6.4-8.41,10c-2.63,3.89-6.53,7.53-6.53,12.3s4,8.28,6.41,12.43S-7.65,153-3.63,155.5s9.29,2.77,14.06,1.89A20.5,20.5,0,0,0,22,151.24c2.77-2.89,2.39-7.41,4.52-10.67,2.39-3.64,8.16-5,8.66-9.29s-3.51-7.41-5.77-10.92S25.49,113.08,22.1,110.94Z" fill="none" stroke="#fff" stroke-width="0.27"/><path d="M17.71,115.71c-2.64-1.63-5.78-1.63-8.79-1.88-3.26-.25-6.78-1.13-9.67.38S-5.14,119-7,121.74s-4.9,5.65-4.9,9.29,3,6.27,4.77,9.29,2.64,6.9,5.65,8.91,6.9,2,10.54,1.38A15.46,15.46,0,0,0,17.71,146c2-2.13,1.75-5.52,3.39-8s6-3.77,6.52-6.9-2.63-5.53-4.39-8.16S20.22,117.34,17.71,115.71Z" fill="none" stroke="#fff" stroke-width="0.27"/></svg>