<svg xmlns="http://www.w3.org/2000/svg" viewBox="0 0 472.56 449.18"><style>.a,.b,.c{animation:none}:root{--at:9s}path{fill:none;stroke:#5a5655;stroke-width:.31px;animation:chc var(--at) linear infinite}.a{stroke:#000}.b,.c{stroke:#fff000;stroke-width:1.08px}.t{animation-delay:calc(var(--at) / 18)}.s{animation-delay:calc(var(--at) / 18 * 2)}.r{animation-delay:calc(var(--at) / 18 * 3)}.q{animation-delay:calc(var(--at) / 18 * 4)}.p{animation-delay:calc(var(--at) / 18 * 5)}.o{animation-delay:calc(var(--at) / 18 * 6)}.n{animation-delay:calc(var(--at) / 18 * 7)}.m{animation-delay:calc(var(--at) / 18 * 8)}.l{animation-delay:calc(var(--at) / 18 * 9)}.k{animation-delay:calc(var(--at) / 18 * 10)}.j{animation-delay:calc(var(--at) / 18 * 11)}.i{animation-delay:calc(var(--at) / 18 * 12)}.h{animation-delay:calc(var(--at) / 18 * 13)}.g{animation-delay:calc(var(--at) / 18 * 14)}.f{animation-delay:calc(var(--at) / 18 * 15)}.e{animation-delay:calc(var(--at) / 18 * 16)}.d{animation-delay:calc(var(--at) / 18 * 17)}@keyframes chc{0%{stroke:#5a5655}9%{stroke:#fff000}}</style><path class="a" d="M254.49,6.47C291,9.41,329,9.8,359.94,29.4c30.57,19.21,45.27,54.09,64.67,84.47,20.38,31.75,57.43,60.76,52.14,98-5.49,38.22-56.84,50.77-78.2,82.91-19.6,29.4-16.07,70.36-40.57,96a187.66,187.66,0,0,1-103.49,55.27c-42.33,7.06-89.37,5.88-125.62-17.25C93.2,405.89,83,359.64,62,322.79,40.87,286,4.8,254,5,211.86c.2-42.33,34.89-75.06,58.41-110.14C85.55,68.4,102.8,29,138.47,11.17,173.75-6.27,215.3,3.33,254.49,6.47Z" transform="translate(-4.85 -0.85)"/><path class="b" d="M207.07,185.6c3.13.2,6.46.2,9.21,2s3.92,4.71,5.68,7.45,5.1,5.29,4.51,8.62c-.39,3.33-4.9,4.51-6.86,7.25-1.77,2.55-1.37,6.08-3.53,8.43a16.42,16.42,0,0,1-9,4.9c-3.73.59-7.84.59-11-1.57-3.14-2-3.92-6.07-5.88-9.21-1.76-3.13-4.9-6.07-4.9-9.6,0-3.73,3.14-6.47,5.1-9.6,2-2.94,3.52-6.28,6.46-7.84C200,184.62,203.73,185.41,207.07,185.6Z" transform="translate(-4.85 -0.85)"/><path class="c" d="M346.41,44.49c-28.22-17.83-63.11-18.23-96.42-21-35.87-2.94-73.7-11.76-105.84,4.31C111.42,44.1,95.74,80.16,75.56,110.34c-21.37,32.14-53.12,62.13-53.31,100.74s32.92,67.81,51.93,101.33c19.21,33.71,28.42,75.84,61.15,96.81,33.13,21.17,75.85,22.15,114.66,15.68a169.32,169.32,0,0,0,94.46-50.37c22.35-23.32,19.21-60.75,37-87.6,19.6-29.4,66.44-41,71.34-75.85,4.9-34.1-29-60.56-47.62-89.57C387.57,93.88,374.24,61.93,346.41,44.49Z" transform="translate(-4.85 -0.85)"/><path class="d" d="M339.55,51.94c-26.85-17-60-17.25-91.72-19.8C213.73,29.2,177.47,21,146.9,36.26c-31,15.48-46.06,49.78-65.27,78.59-20.38,30.57-50.56,59-50.95,95.84-.2,36.84,31.35,64.48,49.58,96.42,18.42,32.15,27.05,72.32,58.4,92.12,31.56,20.19,72.33,21,109.17,14.89a161.62,161.62,0,0,0,90-48C359,343.77,356,308.29,373.07,282.62c18.62-28,63.3-39,68-72.13,4.7-32.34-27.64-57.62-45.28-85.25C378.75,99,366,68.79,339.55,51.94Z" transform="translate(-4.85 -0.85)"/><path class="e" d="M332.69,59.58c-25.48-16.07-57-16.46-87.21-18.81-32.34-2.75-66.64-10.59-95.84,3.92-29.59,14.7-43.9,47.23-62.13,74.67-19.21,29-48,56.05-48.21,90.94s29.79,61.34,47,91.72c17.44,30.57,25.87,68.59,55.46,87.61,30,19.2,68.79,20,103.68,14.11,32.53-5.29,62.91-21.76,85.65-45.67,20.18-21.17,17.24-55.07,33.51-79.37,17.64-26.66,60-37,64.68-68.6,4.5-30.77-26.27-54.88-43.12-80.94C369.93,104.07,358,75.46,332.69,59.58Z" transform="translate(-4.85 -0.85)"/><path class="f" d="M325.83,67c-24.3-15.29-54.09-15.48-82.51-17.84-30.77-2.54-63.3-10-90.74,3.73-28,13.91-41.75,44.68-59,70.75C75.16,151.3,48.12,176.78,47.92,209.9s28.22,58.21,44.49,86.83c16.47,29,24.5,65.07,52.53,82.9,28.22,18,65.07,19,98.19,13.52A146.32,146.32,0,0,0,324.27,350c19-20,16.46-52.14,31.75-75.07,16.65-25.28,56.83-35.08,61.15-64.87,4.11-29.2-24.9-51.94-40.77-76.63C361.31,109.36,349.74,82.12,325.83,67Z" transform="translate(-4.85 -0.85)"/><path class="g" d="M319,74.67C296,60.17,268,60,241,57.82c-29-2.35-59.78-9.41-85.84,3.53-26.46,13.13-39.2,42.33-55.47,66.83-17.24,26.06-42.92,50.17-43.11,81.33s26.65,54.88,42.13,82.12c15.68,27.24,23.13,61.35,49.59,78.4,26.65,17.05,61.54,17.83,92.7,12.74A138.62,138.62,0,0,0,317.6,342c18-19,15.49-49.19,30-70.95,15.87-23.91,53.7-33.12,57.81-61.34,3.93-27.44-23.51-49-38.6-72.52C352.49,114.46,341.51,88.78,319,74.67Z" transform="translate(-4.85 -0.85)"/><path class="h" d="M312.11,82.12c-21.55-13.52-48-13.92-73.49-15.88-27.24-2.15-56.25-8.81-80.75,3.34C133,81.92,121,109.36,105.54,132.49,89.28,157,65.17,179.72,65,209.12s25.09,51.74,39.59,77.22c14.7,25.68,21.76,57.82,46.65,73.69,25.08,16.07,57.81,16.86,87.41,12,27.24-4.51,52.92-18.43,72.12-38.42,17.05-17.83,14.51-46.25,28.22-66.83,14.9-22.34,50.57-31.16,54.49-57.82,3.72-25.87-22.15-46-36.26-68.2C343.67,119.75,333.48,95.45,312.11,82.12Z" transform="translate(-4.85 -0.85)"/><path class="i" d="M305.26,89.76C285.07,77,260.18,76.83,236.46,74.87c-25.67-2.16-52.72-8.43-75.65,3.13-23.32,11.57-34.69,37.24-49,59-15.28,22.73-38,44.09-38.21,71.73,0,27.44,23.52,48.41,37.23,72.32,13.72,24.1,20.39,54.29,43.71,69.18,23.52,15.09,54.29,15.88,81.92,11.17a122.42,122.42,0,0,0,67.62-36.06c15.87-16.66,13.72-43.51,26.46-62.72,13.91-21,47.43-29.2,50.95-54.09,3.53-24.3-20.77-43.31-33.9-63.89C334.85,124.84,325.25,102.31,305.26,89.76Z" transform="translate(-4.85 -0.85)"/><path class="j" d="M298.4,97.21c-18.82-11.95-41.95-12.15-64.29-13.91-23.91-2-49.19-7.84-70.56,2.94C141.8,97,131.22,120.93,117.89,141.31c-14.31,21.36-35.47,41.35-35.47,67-.2,25.67,22,45.27,34.69,67.61,12.93,22.54,19,50.57,40.76,64.48,21.95,14.11,50.57,14.7,76.44,10.39,23.91-3.92,46.25-16.07,63.11-33.51,14.89-15.68,12.73-40.57,24.69-58.41,12.94-19.6,44.29-27.24,47.63-50.56C373.07,185.6,350.33,168,338,148.56,326,130.14,317,109,298.4,97.21Z" transform="translate(-4.85 -0.85)"/><path class="k" d="M291.54,104.66c-17.45-11-39-11.17-59.58-12.94-22.15-1.76-45.67-7.25-65.66,2.75-20.19,10-30,32.33-42.33,51.15C110.64,165.61,91,184,90.84,208s20.39,41.94,32.15,62.71c12,21,17.63,47,37.82,60,20.38,13.14,47,13.72,70.95,9.8a106,106,0,0,0,58.6-31.16c13.72-14.5,11.76-37.63,22.93-54.29,12.15-18.23,41.16-25.28,44.29-46.84,2.94-21-18-37.43-29.39-55.46C317.21,135.23,308.78,115.63,291.54,104.66Z" transform="translate(-4.85 -0.85)"/><path class="l" d="M284.68,112.3c-16.07-10.19-36.06-10.39-55.08-12-20.38-1.77-42.13-6.67-60.56,2.54-18.62,9.22-27.63,29.79-39.19,47.24-12.16,18.42-30.38,35.47-30.58,57.42-.19,22.15,18.82,38.81,29.79,58s16.27,43.31,35.08,55.26c18.82,12.16,43.32,12.55,65.46,9A96.46,96.46,0,0,0,283.7,301c12.74-13.33,11-34.69,21.16-50.17,11.18-16.86,38-23.33,40.77-43.32,2.74-19.4-16.66-34.69-27.24-51.15C308.39,140.52,300.75,122.3,284.68,112.3Z" transform="translate(-4.85 -0.85)"/><path class="m" d="M277.82,119.75c-14.9-9.41-32.93-9.6-50.57-11-18.81-1.56-38.61-6.07-55.46,2.36-17,8.42-25.48,27.43-35.87,43.31-11.17,16.85-27.83,32.53-28,52.72s17.25,35.47,27.25,53.11C145.33,277.91,150,300.06,167.28,311s39.79,11.57,60,8.24a88.74,88.74,0,0,0,49.59-26.46c11.76-12.15,10-31.75,19.4-45.86,10.19-15.49,34.69-21.37,37.43-39.79,2.55-17.83-15.09-31.75-24.89-47C299.57,145.62,292.52,129,277.82,119.75Z" transform="translate(-4.85 -0.85)"/><path class="n" d="M271.15,127.39c-13.52-8.42-30-8.62-45.86-10-17-1.37-35.08-5.49-50.37,2.15-15.48,7.65-23.12,24.89-32.73,39.4-10.39,15.09-25.48,29.4-25.48,47.82-.19,18.42,15.68,32.34,24.7,48.21,9.21,16.07,13.52,36.06,29.2,46.06s36.26,10.58,54.68,7.45a82,82,0,0,0,45.08-23.91c10.58-11.18,9-29,17.64-41.75,9.21-14.11,31.55-19.4,34.1-36.06C324.46,190.5,308.2,178,299.38,164,290.75,150.91,284.29,135.82,271.15,127.39Z" transform="translate(-4.85 -0.85)"/><path class="o" d="M264.29,134.84c-12.15-7.64-27-7.84-41.35-9-15.29-1.17-31.55-5.09-45.47,2s-20.77,22.35-29.4,35.48c-9.21,13.72-22.73,26.65-22.93,43.12s14.11,29,22.35,43.51,12.15,32.53,26.26,41.55,32.53,9.4,49.19,6.66a74.15,74.15,0,0,0,40.57-21.56c9.6-10,8.23-26.07,15.88-37.63,8.42-12.54,28.41-17.44,30.57-32.53,2.15-14.51-12.54-25.87-20.38-38.42C281.93,156,276.05,142.48,264.29,134.84Z" transform="translate(-4.85 -0.85)"/><path class="p" d="M257.43,142.48c-10.78-6.86-24.1-6.86-36.65-8-13.71-1.18-28-4.51-40.37,1.57-12.54,6.27-18.62,20-26.26,31.55C145.92,179.92,134,191.29,133.76,206c0,14.7,12.55,25.87,19.8,38.61,7.25,12.94,10.78,29,23.32,36.85,12.55,8,29,8.43,43.71,5.88a65.67,65.67,0,0,0,36.06-19.21c8.43-8.82,7.25-23.12,14.11-33.51,7.45-11.17,25.28-15.48,27.24-28.81,2-12.94-11-23.13-18.22-34.1C273.11,161.3,268,149.15,257.43,142.48Z" transform="translate(-4.85 -0.85)"/><path class="q" d="M250.57,149.93c-9.4-5.88-21-6.07-32.14-7.05-12-1-24.5-3.92-35.28,1.37-10.77,5.49-16.07,17.44-22.93,27.63-7.05,10.78-17.63,20.78-17.83,33.52,0,12.93,11,22.54,17.25,33.9,6.46,11.17,9.4,25.29,20.38,32.34s25.28,7.45,38.22,5.29a56.76,56.76,0,0,0,31.55-16.85c7.45-7.84,6.47-20.19,12.35-29.21,6.47-9.79,22.14-13.71,23.71-25.28,1.57-11.36-9.6-20.18-15.87-29.79C264.29,166.39,259.79,155.81,250.57,149.93Z" transform="translate(-4.85 -0.85)"/><path class="r" d="M243.71,157.58c-8-5.1-18-5.3-27.63-5.88-10.19-.79-21.17-3.34-30.38,1.17-9.41,4.71-13.91,14.9-19.6,23.52C160,185.6,151,194,150.82,205.2c0,11,9.4,19.4,14.89,29s8.23,21.75,17.44,27.63c9.41,6.08,21.76,6.27,32.73,4.51a49,49,0,0,0,27.05-14.5c6.27-6.67,5.49-17.45,10.58-25.09,5.49-8.43,19-11.76,20.39-21.76,1.37-9.8-8.23-17.24-13.53-25.67C255.47,171.69,251.55,162.47,243.71,157.58Z" transform="translate(-4.85 -0.85)"/><path class="s" d="M236.85,165c-6.66-4.31-15.09-4.31-22.92-4.9-8.63-.78-17.64-2.74-25.29,1-7.84,3.92-11.56,12.55-16.26,19.6-5.1,7.65-12.74,14.7-12.74,23.91s7.84,16.07,12.34,24.11,6.86,18,14.51,23.13c7.84,5.09,18,5.29,27.24,3.72a39.66,39.66,0,0,0,22.54-12c5.29-5.48,4.5-14.5,8.82-21,4.7-7,15.87-9.8,17-18,1.17-8-6.86-14.5-11.37-21.36C246.65,176.78,243.52,169.33,236.85,165Z" transform="translate(-4.85 -0.85)"/><path class="t" d="M230,172.67c-5.49-3.34-12-3.53-18.43-3.92-6.86-.59-14.11-2.16-20.18.78-6.28,3.14-9.21,10-13.13,15.68-4.12,6.08-10.2,11.76-10.2,19.21s6.28,12.93,10,19.4,5.49,14.5,11.76,18.42c6.27,4.12,14.5,4.31,22,2.94a31.92,31.92,0,0,0,18-9.6c4.31-4.51,3.72-11.56,7-16.66,3.73-5.68,12.75-7.84,13.53-14.5,1-6.47-5.49-11.57-9-17C237.84,182.07,235.29,176,230,172.67Z" transform="translate(-4.85 -0.85)"/><path class="u" d="M223.14,180.11c-4.12-2.54-9-2.54-13.72-2.94-5.1-.39-10.59-1.76-15.09.59-4.71,2.35-6.86,7.45-9.8,11.76-3.14,4.51-7.65,8.82-7.65,14.5,0,5.49,4.71,9.8,7.45,14.51,2.74,4.9,4.12,10.78,8.82,13.91,4.7,2.94,10.78,3.14,16.46,2.16a24.25,24.25,0,0,0,13.53-7.25c3.13-3.33,2.74-8.63,5.29-12.55,2.74-4.11,9.41-5.88,10.19-10.78s-4.12-8.62-6.86-12.73S227.06,182.66,223.14,180.11Z" transform="translate(-4.85 -0.85)"/></svg>