<svg xmlns="http://www.w3.org/2000/svg" viewBox="0 0 460 529"><title>bigbrun-pending-d</title><path d="M197.92,7.42c42.8,3.45,87.44,3.91,123.8,26.92,35.89,22.55,53.15,63.51,75.93,99.18,23.93,37.27,67.42,71.33,61.21,115-6.44,44.87-66.73,59.59-91.81,97.33-23,34.52-18.87,82.61-47.63,112.75a220.31,220.31,0,0,1-121.5,64.89c-49.7,8.28-104.93,6.9-147.49-20.25C8.55,476.37-3.42,422.07-28,378.81-52.89,335.55-95.23,298-95,248.57c.23-49.7,41-88.13,68.57-129.32C-.43,80.13,19.82,33.88,61.7,12.94,103.12-7.54,151.9,3.74,197.92,7.42Z" fill="none" stroke="#fff" stroke-width="0.5"/><path d="M142.24,217.73c3.68.23,7.59.23,10.81,2.31s4.6,5.52,6.68,8.74,6,6.21,5.29,10.12c-.46,3.92-5.76,5.3-8.06,8.52-2.07,3-1.61,7.13-4.14,9.89a19.29,19.29,0,0,1-10.58,5.75c-4.37.69-9.21.69-12.89-1.84-3.68-2.3-4.6-7.13-6.9-10.81-2.07-3.68-5.75-7.13-5.75-11.28,0-4.37,3.68-7.59,6-11.27,2.3-3.45,4.14-7.36,7.59-9.21C134,216.58,138.33,217.5,142.24,217.73Z" fill="none" stroke="#fff" stroke-width="0.5"/><path d="M305.84,52.06c-33.14-20.94-74.1-21.4-113.21-24.62C150.52,24,106.11,13.63,68.37,32.5,29.94,51.6,11.54,93.94-12.16,129.37c-25.08,37.74-62.36,72.95-62.59,118.28s38.66,79.61,61,119C8.78,406.19,19.59,455.66,58,480.28c38.88,24.85,89,26,134.61,18.41,42.11-6.9,81.68-28.3,110.91-59.14,26.23-27.38,22.55-71.33,43.49-102.85,23-34.52,78-48.1,83.75-89,5.76-40-34-71.11-55.91-105.16C354.16,110,338.51,72.54,305.84,52.06Z" fill="none" stroke="#fff" stroke-width="0.5"/><path d="M297.79,60.8c-31.53-20-70.41-20.25-107.69-23.24-40-3.45-82.61-13.11-118.5,4.83C35.24,60.57,17.52,100.84-5,134.66-29,170.56-64.39,203.93-64.85,247.18-65.08,290.44-28,322.89-6.64,360.4,15,398.13,25.11,445.3,61.93,468.54,99,492.24,146.84,493.16,190.1,486a189.77,189.77,0,0,0,105.62-56.37c24.85-26.24,21.4-67.88,41.42-98C359,298.73,411.46,285.84,417,247c5.52-38-32.44-67.65-53.15-100.09C343.81,116,328.85,80.59,297.79,60.8Z" fill="none" stroke="#fff" stroke-width="0.5"/><path d="M289.73,69.78c-29.91-18.87-67-19.33-102.39-22.09-38-3.22-78.24-12.43-112.52,4.6C40.07,69.55,23.27,107.75,1.87,140-20.68,174-54.5,205.77-54.73,246.73s35,72,55.22,107.69C21,390.31,30.87,435,65.61,457.27c35.21,22.55,80.77,23.47,121.73,16.57,38.19-6.21,73.86-25.54,100.55-53.61,23.7-24.86,20.25-64.66,39.35-93.2,20.71-31.29,70.41-43.49,75.93-80.53,5.3-36.13-30.83-64.43-50.62-95C333.45,122,319.42,88.42,289.73,69.78Z" fill="none" stroke="#fff" stroke-width="0.5"/><path d="M281.68,78.52c-28.53-17.94-63.51-18.17-96.87-20.94-36.13-3-74.33-11.73-106.54,4.38C45.37,78.29,29.26,114.42,9,145c-21.63,32.45-53.39,62.36-53.62,101.25S-11.47,314.61,7.63,348.2C27,382.26,36.39,424.6,69.29,445.54c33.14,21.17,76.4,22.32,115.29,15.87a171.84,171.84,0,0,0,95.26-50.62c22.32-23.47,19.33-61.21,37.28-88.13,19.55-29.68,66.73-41.19,71.79-76.16,4.83-34.29-29.23-61-47.86-90C323.33,128.23,309.75,96.24,281.68,78.52Z" fill="none" stroke="#fff" stroke-width="0.5"/><path d="M273.63,87.49c-26.93-17-59.83-17.25-91.58-19.78-34.06-2.77-70.19-11-100.79,4.14-31.06,15.41-46,49.7-65.12,78.46-20.25,30.61-50.39,58.91-50.62,95.49S-3.19,310.23,15,342.22c18.41,32,27.15,72,58.22,92,31.29,20,72.25,20.94,108.84,15a162.8,162.8,0,0,0,90-47.87c21.16-22.32,18.17-57.75,35.2-83.29,18.64-28.08,63-38.89,67.88-72,4.6-32.21-27.61-57.52-45.33-85.13C313,134.2,300.09,104.06,273.63,87.49Z" fill="none" stroke="#fff" stroke-width="0.5"/><path d="M265.57,96.24C240.26,80.36,209.2,79.9,179.28,77.6c-32-2.53-66-10.36-94.8,3.91C55.26,96,41.22,128.22,23,155.37c-19.1,28.77-47.4,55.46-47.63,90S4.86,306.09,21.89,336c17.26,30.15,25.54,67.89,54.77,86.52,29.45,18.87,67.88,19.79,102.62,14,32-5.29,62.13-21.63,84.68-45.1,20-20.94,17-54.3,33.14-78.47,17.48-26.23,59.36-36.58,64-67.88,4.37-30.37-26-54.07-42.57-80.07C302.62,140.42,290.65,111.88,265.57,96.24Z" fill="none" stroke="#fff" stroke-width="0.5"/><path d="M257.52,105.21C233.82,90.26,204.6,90,176.75,87.73c-30.14-2.53-61.9-9.9-88.82,3.68C60.55,105,47.21,135.13,30.41,160.67c-17.95,26.69-44.64,51.77-44.87,84.22,0,32.21,27.61,56.83,43.72,84.9C45.36,358.1,53.19,393.53,80.57,411c27.61,17.72,63.74,18.64,96.18,13.12a143.84,143.84,0,0,0,79.39-42.34c18.64-19.56,16.11-51.08,31.06-73.63,16.34-24.63,55.69-34.29,59.83-63.51,4.14-28.54-24.39-50.86-39.81-75C292.26,146.4,281,119.94,257.52,105.21Z" fill="none" stroke="#fff" stroke-width="0.5"/><path d="M249.46,114c-22.09-14-49.24-14.27-75.47-16.34-28.07-2.3-57.76-9.2-82.84,3.45-25.54,12.66-38,40.73-53.61,64.66-16.8,25.08-41.65,48.55-41.65,78.7-.23,30.14,25.77,53.15,40.73,79.38,15.18,26.46,22.32,59.37,47.86,75.71,25.77,16.56,59.37,17.25,89.74,12.19,28.07-4.6,54.3-18.87,74.09-39.35,17.49-18.4,15-47.63,29-68.57,15.18-23,52-32,55.91-59.36,3.91-26.7-22.78-47.4-37.28-70.18C281.91,152.62,271.32,127.76,249.46,114Z" fill="none" stroke="#fff" stroke-width="0.5"/><path d="M241.41,122.7c-20.48-12.88-45.79-13.11-69.95-15.18-26-2.08-53.61-8.52-77.08,3.22-23.7,11.73-35.21,38-49.71,60.05C29,194.26,6,215.89,5.79,244s23.93,49.24,37.73,73.63c14,24.62,20.71,55.22,44.41,70.41,23.93,15.42,55.23,16.11,83.3,11.51A124.56,124.56,0,0,0,240,362.93c16.11-17,13.81-44.18,26.92-63.74,14.27-21.4,48.32-29.68,52-55,3.45-24.62-21.17-43.95-34.52-65.12C271.55,158.6,261.66,135.59,241.41,122.7Z" fill="none" stroke="#fff" stroke-width="0.5"/><path d="M233.36,131.67c-18.87-12-42.34-12.19-64.66-14-23.93-2.07-49.47-7.82-71.1,3-21.86,10.81-32.45,35-46,55.45-14.27,21.63-35.67,41.65-35.9,67.42-.23,26,22.09,45.57,35,68.12s19.09,50.85,41.18,64.88c22.09,14.27,50.86,14.73,76.86,10.59a113.28,113.28,0,0,0,63.51-33.82c14.95-15.65,12.88-40.73,24.85-58.91,13.11-19.79,44.64-27.38,47.86-50.86,3.22-22.78-19.56-40.72-32-60.05C261.2,164.81,252.23,143.41,233.36,131.67Z" fill="none" stroke="#fff" stroke-width="0.5"/><path d="M225.3,140.42c-17.48-11-38.65-11.28-59.36-12.89-22.09-1.84-45.33-7.13-65.12,2.76-20,9.9-29.91,32.22-42.11,50.86C45.6,200.94,26,219.34,25.81,243s20.24,41.65,32,62.36c12,20.71,17.49,46.71,37.74,59.6s46.71,13.58,70.41,9.66a104.06,104.06,0,0,0,58.21-31.06c13.81-14.27,11.74-37.28,22.78-53.84,12-18.18,40.73-25.09,43.95-46.72,3-20.93-17.71-37.27-29.22-55.22C250.85,170.79,242.56,151.23,225.3,140.42Z" fill="none" stroke="#fff" stroke-width="0.5"/><path d="M217.48,149.39c-15.88-9.89-35.2-10.12-53.84-11.73-20-1.61-41.19-6.45-59.14,2.53-18.18,9-27.15,29.22-38.43,46.25C53.88,204.16,36.16,221,36.16,242.58c-.23,21.63,18.41,38,29,56.61C76,318.06,81,341.53,99.44,353.27S142,365.69,163.64,362c20-3.22,38.88-13.58,52.92-28.07,12.43-13.12,10.59-34.06,20.71-49,10.81-16.56,37-22.78,40-42.34,2.76-19.09-16.34-33.82-26.69-50.16C240.49,177,232.9,159.29,217.48,149.39Z" fill="none" stroke="#fff" stroke-width="0.5"/><path d="M209.43,158.14c-14.27-9-31.76-9.21-48.55-10.59-17.95-1.38-37-6-53.39,2.3S83.1,176.09,73,191.5c-10.82,16.11-26.7,31.3-26.93,50.63s16.57,34.05,26.24,51.08S86.55,331.4,103.12,342s38.2,11,57.76,7.82a87,87,0,0,0,47.63-25.31c11.27-11.73,9.66-30.6,18.63-44.18,9.9-14.72,33.37-20.48,35.9-38.19,2.53-17-14.73-30.38-23.93-45.11C230.14,183,223.23,167.11,209.43,158.14Z" fill="none" stroke="#fff" stroke-width="0.5"/><path d="M201.37,167.11c-12.65-8.05-28.3-8.05-43-9.43-16.1-1.38-32.9-5.3-47.4,1.84-14.72,7.36-21.86,23.47-30.83,37-9.66,14.5-23.7,27.85-23.93,45.1C56.18,258.92,70.9,272,79.42,287c8.51,15.19,12.65,34.06,27.38,43.26,14.73,9.44,34.06,9.9,51.31,6.91a77.23,77.23,0,0,0,42.34-22.55c9.9-10.36,8.52-27.16,16.57-39.35,8.74-13.12,29.68-18.18,32-33.83,2.3-15.18-12.89-27.15-21.4-40C219.78,189.2,213.8,174.93,201.37,167.11Z" fill="none" stroke="#fff" stroke-width="0.5"/><path d="M193.32,175.85c-11-6.9-24.62-7.13-37.74-8.28-14-1.15-28.76-4.6-41.42,1.61-12.65,6.44-18.86,20.48-26.92,32.45C79,214.28,66.53,226,66.3,241c0,15.19,12.89,26.46,20.25,39.81,7.6,13.12,11,29.68,23.93,38s29.69,8.74,44.87,6.21a66.58,66.58,0,0,0,37.05-19.79c8.74-9.2,7.59-23.7,14.5-34.28,7.59-11.51,26-16.11,27.84-29.69,1.84-13.34-11.28-23.7-18.64-35C209.43,195.18,204.14,182.76,193.32,175.85Z" fill="none" stroke="#fff" stroke-width="0.5"/><path d="M185.27,184.83c-9.44-6-21.17-6.21-32.45-6.9-12-.92-24.85-3.92-35.66,1.38-11,5.52-16.34,17.48-23,27.61-7.14,10.81-17.72,20.71-18,33.82,0,12.89,11,22.78,17.49,34.06s9.66,25.54,20.47,32.44c11,7.14,25.55,7.37,38.43,5.3a57.65,57.65,0,0,0,31.76-17c7.36-7.83,6.44-20.48,12.42-29.45,6.44-9.9,22.32-13.81,23.93-25.55,1.61-11.5-9.66-20.25-15.87-30.14C199.07,201.4,194.47,190.58,185.27,184.83Z" fill="none" stroke="#fff" stroke-width="0.5"/><path d="M177.21,193.57c-7.82-5.06-17.71-5.06-26.92-5.75-10.12-.92-20.71-3.22-29.68,1.15-9.21,4.6-13.58,14.73-19.1,23-6,9-15,17.26-15,28.08s9.21,18.86,14.5,28.3,8,21.17,17,27.15c9.2,6,21.17,6.21,32,4.37a46.58,46.58,0,0,0,26.46-14c6.22-6.45,5.3-17,10.36-24.63,5.52-8.28,18.64-11.5,20-21.16,1.38-9.44-8.06-17-13.35-25.09C188.72,207.38,185,198.64,177.21,193.57Z" fill="none" stroke="#fff" stroke-width="0.5"/><path d="M169.16,202.54c-6.44-3.91-14-4.14-21.63-4.6-8.05-.69-16.57-2.53-23.7.92-7.37,3.68-10.82,11.74-15.42,18.41-4.83,7.13-12,13.81-12,22.55s7.36,15.19,11.73,22.78,6.44,17,13.81,21.63c7.36,4.83,17,5.06,25.77,3.45a37.51,37.51,0,0,0,21.17-11.27c5.06-5.29,4.37-13.58,8.28-19.56,4.37-6.67,15-9.21,15.88-17,1.15-7.59-6.44-13.57-10.58-20C178.36,213.59,175.37,206.46,169.16,202.54Z" fill="none" stroke="#fff" stroke-width="0.5"/><path d="M161.11,211.29c-4.84-3-10.59-3-16.11-3.45-6-.46-12.43-2.07-17.72.69-5.52,2.76-8,8.74-11.51,13.8-3.68,5.3-9,10.36-9,17,0,6.45,5.52,11.51,8.74,17,3.23,5.75,4.84,12.66,10.36,16.34,5.52,3.45,12.65,3.68,19.33,2.53a28.39,28.39,0,0,0,15.88-8.52c3.68-3.91,3.22-10.12,6.21-14.72,3.22-4.83,11-6.9,12-12.66s-4.83-10.12-8.05-15S165.71,214.28,161.11,211.29Z" fill="none" stroke="#fff" stroke-width="0.5"/></svg>