<svg xmlns="http://www.w3.org/2000/svg" viewBox="0 0 88 90"><title>brun-3-m</title><path d="M0,0H88V90H0Z" fill="none"/><path d="M29.23,13.68C34.62,10,39.94,5.81,46.49,5S59,7.31,65.17,9.27c6.48,2,15,1.85,18.5,7.51s-2,13.26-1.32,20C83,43,88.21,48.18,87.76,54.41a32.45,32.45,0,0,1-8,19.1C74.7,79.2,68,84.31,60.35,85.21s-14.3-4.28-21.45-6.95-15.84-3-20.66-8.72S14.45,55.42,13.68,48c-.76-7-2.9-14.31,0-20.72S23.43,17.64,29.23,13.68Z" fill="none" stroke="#fff" stroke-width="0.41"/><path d="M43.24,43.38a3.3,3.3,0,0,1,1.5-.76,3.93,3.93,0,0,1,1.65.37c.56.18,1.31.15,1.62.67s-.17,1.16-.12,1.76.51,1,.48,1.54a2.78,2.78,0,0,1-.69,1.67,2.74,2.74,0,0,1-1.7,1c-.66.08-1.24-.39-1.88-.6s-1.37-.28-1.78-.76S42,47,41.92,46.4a3.62,3.62,0,0,1,0-1.79C42.15,44,42.76,43.73,43.24,43.38Z" fill="none" stroke="#fff" stroke-width="0.41"/><path d="M46.42,6.77c-6.24.77-11.34,4.8-16.5,8.33-5.58,3.78-12.13,7-14.86,13s-.76,13.12,0,19.8C15.81,55,14.79,63,19.43,68.5s12.91,5.82,19.77,8.36,13.28,7.5,20.56,6.65,13.69-5.75,18.55-11.19A30.92,30.92,0,0,0,86,54.07c.42-5.94-4.55-10.9-5.19-16.85C80,30.78,85.49,23.65,82,18.07s-11.5-5.25-17.66-7.18C58.35,9,52.59,6,46.42,6.77Z" fill="#e7e4df"/><path d="M46.35,8.58c-6,.73-10.85,4.57-15.79,7.93C25.25,20.12,19,23.15,16.38,28.93s-.7,12.54,0,18.9c.74,6.77-.22,14.4,4.19,19.67s12.36,5.55,18.85,8S52.05,82.63,59,81.82s13.07-5.46,17.71-10.69A29.33,29.33,0,0,0,84,53.71c.44-5.71-4.3-10.41-4.92-16.06-.66-6.19,4.51-13,1.18-18.3s-11-5-16.9-6.87C57.74,10.7,52.21,7.84,46.35,8.58Z" fill="none" stroke="#fff" stroke-width="0.41"/><path d="M46.25,10.36c-5.68.68-10.3,4.36-15,7.56-5.07,3.42-11,6.35-13.53,11.85s-.66,11.93,0,18c.69,6.44-.23,13.68,4,18.74s11.77,5.27,18,7.58,12.06,6.81,18.69,6S70.8,74.86,75.21,69.91a28,28,0,0,0,7-16.6c.37-5.4-4.11-9.9-4.7-15.3-.64-5.9,4.3-12.39,1.14-17.43S68.1,15.83,62.48,14C57.1,12.38,51.86,9.69,46.25,10.36Z" fill="none" stroke="#fff" stroke-width="0.41"/><path d="M46.18,12.17c-5.38.66-9.8,4.14-14.26,7.19-4.8,3.24-10.46,6-12.84,11.25s-.66,11.34,0,17.11c.67,6.1-.22,13,3.77,17.77s11.18,5,17.06,7.22,11.48,6.45,17.77,5.72,11.84-5,16-9.67A26.64,26.64,0,0,0,80.28,53c.36-5.13-3.94-9.42-4.48-14.55-.62-5.6,4.06-11.75,1.08-16.57s-9.95-4.53-15.28-6.19C56.46,14.06,51.51,11.5,46.18,12.17Z" fill="none" stroke="#fff" stroke-width="0.41"/><path d="M46.08,14c-5.12.64-9.28,3.94-13.49,6.8-4.59,3-9.93,5.67-12.16,10.6s-.65,10.75,0,16.23c.62,5.82-.2,12.31,3.58,16.84s10.6,4.77,16.15,6.85S51,77.43,56.93,76.72,68.14,72,72.11,67.58A25.43,25.43,0,0,0,78.4,52.64c.34-4.85-3.71-8.94-4.22-13.77-.6-5.3,3.85-11.13,1-15.66s-9.42-4.29-14.46-5.87c-4.87-1.6-9.6-4-14.65-3.39Z" fill="none" stroke="#fff" stroke-width="0.41"/><path d="M46,15.76c-4.84.59-8.75,3.69-12.75,6.43-4.3,2.92-9.37,5.4-11.5,10.08s-.57,10.14,0,15.3c.6,5.47-.19,11.62,3.37,15.89s10,4.48,15.28,6.46S50.66,75.68,56.29,75s10.59-4.45,14.32-8.63a24,24,0,0,0,5.94-14.12c.32-4.6-3.5-8.43-4-13-.55-5,3.64-10.51,1-14.81s-8.89-4-13.69-5.55c-4.6-1.5-9.07-3.76-13.82-3.16Z" fill="none" stroke="#fff" stroke-width="0.41"/><path d="M45.92,17.54c-4.55.57-8.26,3.47-12,6.06-4,2.75-8.82,5.09-10.82,9.48s-.53,9.54,0,14.42c.56,5.15-.17,10.94,3.18,15s9.43,4.24,14.37,6.08,9.62,5.42,14.9,4.78,10-4.18,13.5-8.15a22.66,22.66,0,0,0,5.58-13.3c.32-4.33-3.3-7.91-3.77-12.25-.5-4.71,3.43-9.89.92-14s-8.37-3.79-12.88-5.23C54.62,19.13,50.41,17,45.92,17.54Z" fill="none" stroke="#fff" stroke-width="0.41"/><path d="M45.84,19.35c-4.26.52-7.73,3.28-11.25,5.66-3.81,2.58-8.28,4.75-10.13,8.89s-.53,9,0,13.51c.49,4.8-.21,10.25,2.94,14s8.83,4,13.48,5.68,9.07,5.11,14,4.53S64.24,67.74,67.53,64a21.13,21.13,0,0,0,5.23-12.47c.29-4-3.1-7.46-3.54-11.5-.48-4.41,3.22-9.27.85-13.06s-7.86-3.57-12-4.9S50.06,18.82,45.84,19.35Z" fill="none" stroke="#fff" stroke-width="0.41"/><path d="M45.75,21.13c-4,.47-7.22,3-10.52,5.29-3.54,2.41-7.72,4.44-9.44,8.29s-.5,8.34,0,12.61c.47,4.5-.17,9.59,2.78,13.09s8.25,3.7,12.58,5.32,8.45,4.75,13.07,4.21,8.7-3.65,11.8-7.13a19.9,19.9,0,0,0,4.9-11.62c.26-3.8-2.9-6.95-3.29-10.71-.46-4.11,3-8.66.79-12.21S61.09,25,57.14,23.69C53.37,22.52,49.68,20.69,45.75,21.13Z" fill="none" stroke="#fff" stroke-width="0.41"/><path d="M45.65,22.91c-3.68.46-6.69,2.84-9.75,4.9-3.27,2.24-7.16,4.12-8.79,7.72s-.44,7.75,0,11.69c.45,4.21-.15,8.91,2.57,12.19s7.65,3.43,11.67,4.94,7.85,4.43,12.14,3.93,8.1-3.39,11-6.6A18.38,18.38,0,0,0,69,50.89c.24-3.51-2.69-6.44-3.06-10-.41-3.84,2.8-8,.76-11.32s-6.8-3.08-10.45-4.26S49.31,22.47,45.65,22.91Z" fill="none" stroke="#fff" stroke-width="0.41"/><path d="M45.58,24.72c-3.4.41-6.19,2.62-9,4.53-3,2-6.61,3.81-8.11,7.12s-.4,7.14,0,10.81c.43,3.87-.14,8.23,2.36,11.24S37.9,61.59,41.63,63s7.23,4.08,11.22,3.6S60.3,63.44,63,60.48a16.71,16.71,0,0,0,4.19-10c.24-3.24-2.46-5.95-2.83-9.19-.39-3.55,2.59-7.43.67-10.46S58.69,28,55.33,27,49,24.28,45.58,24.72Z" fill="none" stroke="#fff" stroke-width="0.41"/><path d="M45.49,26.5c-3.15.38-5.67,2.37-8.28,4.16-2.79,1.89-6.05,3.49-7.42,6.52s-.38,6.59,0,9.91c.39,3.54-.12,7.54,2.18,10.31s6.47,2.9,9.88,4.18,6.64,3.75,10.29,3.31S59,62,61.41,59.31a15.38,15.38,0,0,0,3.83-9.15c.24-3-2.26-5.44-2.58-8.41-.36-3.25,2.36-6.79.62-9.6s-5.74-2.64-8.86-3.62c-2.94-.94-5.84-2.42-8.94-2Z" fill="none" stroke="#fff" stroke-width="0.41"/><path d="M45.44,28.28c-2.85.37-5.15,2.19-7.51,3.77-2.52,1.72-5.5,3.18-6.74,5.93s-.34,6,0,9c.3,3.22-.15,6.85,2,9.36s5.89,2.65,9,3.8,6,3.4,9.35,3S57.78,60.53,60,58a14.15,14.15,0,0,0,3.5-8.3c.18-2.7-2.08-5-2.35-7.65-.35-3,2.14-6.17.58-8.72S56.39,31,53.57,30.12,48.23,28,45.44,28.28Z" fill="none" stroke="#fff" stroke-width="0.41"/><path d="M45.34,30.07c-2.56.32-4.65,2-6.77,3.39s-5,2.84-6.08,5.36-.31,5.36,0,8.11-.09,6.17,1.78,8.44,5.29,2.37,8.1,3.42,5.43,3.07,8.42,2.72,5.59-2.36,7.59-4.6a12.89,12.89,0,0,0,3.15-7.47c.18-2.44-1.86-4.47-2.13-6.9-.27-2.65,1.94-5.55.5-7.84s-4.71-2.12-7.24-3S47.85,29.79,45.34,30.07Z" fill="none" stroke="#fff" stroke-width="0.41"/><path d="M45.27,31.87c-2.28.28-4.13,1.77-6,3s-4.4,2.52-5.41,4.73-.29,4.8,0,7.23c.28,2.6-.07,5.48,1.59,7.51s4.71,2.12,7.18,3,4.83,2.74,7.47,2.4A12.22,12.22,0,0,0,59.64,49c.15-2.14-1.66-4-1.9-6.14-.25-2.35,1.73-4.93.47-7S54,34,51.73,33.35C49.61,32.68,47.51,31.6,45.27,31.87Z" fill="none" stroke="#fff" stroke-width="0.41"/><path d="M45.18,33.66c-2,.25-3.61,1.51-5.27,2.63s-3.85,2.21-4.74,4.13-.22,4.17,0,6.33-.06,4.8,1.38,6.55,4.11,1.84,6.29,2.69,4.21,2.39,6.54,2.12a10.63,10.63,0,0,0,8.35-9.38c.13-1.9-1.42-3.47-1.65-5.35-.23-2.06,1.5-4.34.39-6.09S52.81,35.61,50.84,35,47.13,33.43,45.18,33.66Z" fill="none" stroke="#fff" stroke-width="0.41"/><path d="M45.1,35.46c-1.7.21-3.11,1.3-4.5,2.29s-3.32,1.92-4.08,3.56-.22,3.59,0,5.4-.06,4.08,1.19,5.62,3.54,1.59,5.4,2.29,3.65,2,5.6,1.81a9.08,9.08,0,0,0,7.14-8c.11-1.61-1.24-3-1.41-4.6s1.28-3.72.32-5.24-3.12-1.42-4.82-2S46.75,35.25,45.1,35.46Z" fill="none" stroke="#fff" stroke-width="0.41"/><path d="M45,37.24a8.74,8.74,0,0,0-3.75,1.9c-1.28.86-2.76,1.6-3.39,3s-.16,3,0,4.49-.08,3.43,1,4.68,2.93,1.31,4.48,1.9,3,1.69,4.67,1.52A7.62,7.62,0,0,0,54,48c.1-1.34-1-2.48-1.19-3.84s1.08-3.11.29-4.36-2.61-1.21-4-1.64S46.43,37.09,45,37.24Z" fill="none" stroke="#fff" stroke-width="0.41"/><path d="M44.94,39.05a7,7,0,0,0-3,1.53c-1,.69-2.21,1.29-2.71,2.37s-.13,2.39,0,3.6-.06,2.74.8,3.75,2.35,1.06,3.61,1.52S46,53.18,47.36,53a5.4,5.4,0,0,0,3.38-2,5.54,5.54,0,0,0,1.4-3.32c.08-1.1-.81-2-.94-3.06s.87-2.49.21-3.48-2.09-1-3.21-1.32A8.51,8.51,0,0,0,44.94,39.05Z" fill="none" stroke="#fff" stroke-width="0.41"/><path d="M44.84,40.83A5.48,5.48,0,0,0,42.6,42c-.75.52-1.67.94-2,1.77a5.12,5.12,0,0,0,0,2.69,5.11,5.11,0,0,0,.6,2.83c.6.77,1.78.81,2.7,1.14s1.81,1,2.83.91a4.3,4.3,0,0,0,2.53-1.55,4.19,4.19,0,0,0,1-2.5c0-.8-.61-1.48-.71-2.3s.63-1.85.18-2.6-1.57-.72-2.42-1A6.79,6.79,0,0,0,44.84,40.83Z" fill="none" stroke="#fff" stroke-width="0.41"/><path d="M9.66,47V43.52l7.05-7.32c1.23-1.26,2.13-2.49,2.13-3.72a2.08,2.08,0,0,0-1.95-2.22,1.5,1.5,0,0,0-.3,0,3.38,3.38,0,0,0-3.09,2.28L9.45,30.17a7.49,7.49,0,0,1,7.08-4.59c3.75,0,7.11,2.46,7.11,6.69,0,2.52-1.35,4.68-3.27,6.6l-3.48,3.51h7.05V47ZM26.8,40.19V35.87H42.4v4.32Zm25.94-6.81c3.9,0,7.2,2.4,7.2,7s-3.6,7-7.65,7c-3.33,0-6.21-1.41-7.5-4.5l4.14-2.4a3.09,3.09,0,0,0,3.36,2.22c2,0,2.85-1.05,2.85-2.34S54.27,38,52.44,38H45.87l.87-12H58.89v4.5H51.24L51,33.38Zm-38,29.12h.74v1.84H15V63H9.72v1.34H9.18V62.5h.56a3.57,3.57,0,0,0,.72-2.5V56h4.32ZM11,60a4.15,4.15,0,0,1-.62,2.5h3.88v-6H11Zm10.38-4h.53v7h-.53V59.65H17.3V63h-.53V56h.53v3.15h4.07Zm2.8,6.5h3.5V63h-4V56h4v.5H24.17v2.72h3.2v.5h-3.2Zm6.09-7.37v-.44H32.8v.44ZM33.57,63V57l-4.14,6H29V56h.53v6l4.13-6h.47v7ZM14.78,74.5h.74v1.84H15V75H9.72v1.34H9.18V74.5h.56a3.57,3.57,0,0,0,.72-2.5V68h4.32ZM11,72a4.15,4.15,0,0,1-.62,2.5h3.88v-6H11Zm5.09,3v-.47c.92.11,1.51-.46,1.51-2.5V68H22v7h-.54V68.5H18.12V72c0,2.37-.75,3.11-2,3Zm12.28,0V69l-4.14,6h-.46V68h.53v6l4.13-6h.47v7Zm6.56-7v.5h-2.2V75h-.54V68.5H30V68Zm3.94,7.11a3.61,3.61,0,0,1,0-7.22,3.42,3.42,0,0,1,3,1.68l-.47.27a2.85,2.85,0,0,0-2.53-1.44,3.1,3.1,0,0,0,0,6.2h0a2.86,2.86,0,0,0,2.55-1.47l.47.27a3.43,3.43,0,0,1-3,1.71ZM47.56,68v7H47V72.13H45.11l-2,2.87h-.6l2-2.89A2.06,2.06,0,0,1,44.79,68Zm-2.77,3.63H47V68.5H44.79a1.57,1.57,0,0,0,0,3.13ZM16.2,80v7h-.53V80.78l-2.59,4.3H13l-2.59-4.3V87H9.87V80h.66L13,84.14,15.53,80Zm4.95,7.11a3.59,3.59,0,0,1-3.61-3.57h0a3.61,3.61,0,0,1,7.22,0h0a3.59,3.59,0,0,1-3.61,3.57Zm0-.51a3.1,3.1,0,1,0-3.08-3.12v0a3.06,3.06,0,0,0,3,3.1ZM30.7,80h.53v7H30.7V83.65H26.63V87H26.1V80h.53v3.15H30.7Zm6.57,0v.5h-2.2V87h-.54V80.5h-2.2V80Zm5.31,7-.68-1.78H38.39L37.71,87h-.56l2.72-7h.56l2.71,7Zm-4-2.28H41.7l-1.56-4.07ZM51.45,87h-.63l-3.08-3.47V87H47.2V83.53L44.12,87h-.63l3.18-3.6L43.59,80h.63l3,3.27V80h.54v3.27l3-3.27h.63l-3.08,3.4Zm8.64-.5h.74v1.84h-.54V87H55v1.34h-.54V86.5H55a3.57,3.57,0,0,0,.75-2.5V80h4.32ZM56.3,84a4.15,4.15,0,0,1-.62,2.5h3.88v-6H56.3Zm8.9,3.11a3.59,3.59,0,0,1-3.61-3.57h0a3.61,3.61,0,0,1,7.22,0h0a3.59,3.59,0,0,1-3.61,3.57Zm0-.51a3.1,3.1,0,1,0-3.08-3.12v0a3.06,3.06,0,0,0,3,3.1ZM76.48,80v7H76V80.78l-2.59,4.3h-.09l-2.59-4.3V87H70.2V80h.66l2.5,4.14L75.81,80Zm6.45,7-.68-1.78H78.74L78.06,87H77.5l2.72-7h.56l2.71,7Zm-4-2.28h3.12L80.5,80.65Z"/></svg>