<svg xmlns="http://www.w3.org/2000/svg" viewBox="0 0 280 220"><style> :root {--at: 5s;}.x,.y {fill: none;}.an {fill: none;stroke: #fff;stroke-width: 1;animation: chc var(--at) linear infinite;}.r {animation-delay: calc(var(--at) / 19);}.q {animation-delay: calc(var(--at) / 19 * 2);}.p {animation-delay: calc(var(--at) / 19 * 3);}.o {animation-delay: calc(var(--at) / 19 * 4);}.n {animation-delay: calc(var(--at) / 19 * 5);}.m {animation-delay: calc(var(--at) / 19 * 6);}.l {animation-delay: calc(var(--at) / 19 * 7);}.k {animation-delay: calc(var(--at) / 19 * 8);}.j {animation-delay: calc(var(--at) / 19 * 9);}.i {animation-delay: calc(var(--at) / 19 * 10);}.h {animation-delay: calc(var(--at) / 19 * 11);}.g {animation-delay: calc(var(--at) / 19 * 12);}.f {animation-delay: calc(var(--at) / 19 * 13);}.e {animation-delay: calc(var(--at) / 19 * 14);}.d {animation-delay: calc(var(--at) / 19 * 15);}.c {animation-delay: calc(var(--at) / 19 * 16);}.b {animation-delay: calc(var(--at) / 19 * 17);}.a {animation-delay: calc(var(--at) / 19 * 18);}@keyframes chc{0%{stroke:#fff}10%{stroke:#e7e4df}15%{stroke:#fff}}</style><path class="x" d="M0,0H280V220H0Z"/><path class="y" d="M241.86,101.9c1.07,16,3.34,32.59-3.13,47-6.33,14.25-20.44,22.37-32.31,32.31-12.4,10.44-22.54,28-38.95,27.52-16.85-.51-25.55-22.25-40.8-30-13.94-7.09-31.39-3.54-44-12.94a86.28,86.28,0,0,1-30.49-42.34C46.37,105.44,43.86,84.9,51.52,68,59.13,51.32,78.44,44.6,93,33.66s26-28.3,44.22-30.29,34.64,11.5,51.29,20c15.8,8,33.9,13.58,43.89,28.23,9.79,14.51,8.31,33.07,9.47,50.29Z" stroke="#fff" stroke-width="1.01"/><path d="M235.1,146.4c6.14-13.8,4-29.69,2.92-45C237,84.85,238.4,67.16,229,53.31,219.41,39.3,202.1,33.9,187,26.25c-16-8.16-31.57-21-49.09-19.14s-28.42,18.42-42.35,29S63.17,52.94,55.9,69c-7.34,16.19-4.88,35.78.6,53.11a81.85,81.85,0,0,0,29.1,40.5c12.07,9,28.77,5.58,42.16,12.38,14.59,7.36,22.9,28.19,39.06,28.69,15.72.47,25.45-16.35,37.24-26.28,11.48-9.64,25-17.33,31-31Z" fill="#e7e4df"/><path class="an a" d="M231.39,143.8c5.88-13.17,3.81-28.38,2.86-43-1-15.76.35-32.66-8.65-45.87-9.12-13.45-25.69-18.5-40-25.8C170.35,21.39,155.37,9,138.69,10.85s-27.15,17.67-40.4,27.6S67.38,54.55,60.43,69.83c-7,15.47-4.69,34.12.59,50.7a77.9,77.9,0,0,0,27.8,38.65c11.5,8.58,27.45,5.37,40.18,11.82,13.95,7.09,21.94,26.91,37.31,27.33,15,.46,24.28-15.61,35.6-25.14C212.71,164.15,225.64,156.77,231.39,143.8Z" fill="none" stroke="#fff" stroke-width="1.01"/><path class="an b" d="M227.75,141.18c5.64-12.53,3.6-27,2.66-40.91-.92-15,.31-31.18-8.25-43.74C213.49,43.81,197.72,38.92,184.05,32c-14.5-7.37-28.7-19.12-44.63-17.47S113.61,31.33,101,40.84s-29.48,15.33-36,30c-6.69,14.73-4.41,32.52.57,48.26a74.31,74.31,0,0,0,26.5,36.81c11,8.11,26.12,5.09,38.29,11.25,13.29,6.73,20.89,25.64,35.49,26.06,14.26.46,23.1-14.86,33.89-23.9C210,160.56,222.17,153.53,227.75,141.18Z" fill="none" stroke="#fff" stroke-width="1.01"/><path class="an c" d="M224,138.57c5.3-11.88,3.44-25.64,2.52-38.89-.89-14.22.3-29.54-7.84-41.54C210.47,46,195.51,41.35,182.5,34.76c-13.75-6.93-27.27-18.15-42.34-16.51s-24.56,16-36.57,25S75.65,57.87,69.34,71.69c-6.36,14-4.21,30.94.56,45.84a70.44,70.44,0,0,0,25.2,35c10.43,7.75,24.88,4.8,36.41,10.69,12.63,6.37,19.83,24.29,33.75,24.79,13.57.45,22-14.14,32.17-22.76,9.78-8.31,21.37-14.93,26.6-26.72Z" fill="none" stroke="#fff" stroke-width="1.01"/><path class="an d" d="M220.39,136c5-11.33,3.22-24.31,2.41-36.8-.88-13.53.25-28.06-7.43-39.33-7.8-11.52-22-16-34.32-22.21C167.94,31,155.21,20.44,140.9,22s-23.31,15.15-34.61,23.64c-11.47,8.6-26.51,13.87-32.41,26.95s-4,29.27.46,43.42A67.24,67.24,0,0,0,98.15,149.2c9.85,7.29,23.56,4.6,34.43,10.13,12,6,18.79,23,31.92,23.43,12.87.36,20.82-13.39,30.46-21.52,9.44-7.75,20.45-14.13,25.43-25.28Z" fill="none" stroke="#fff" stroke-width="1.01"/><path class="an e" d="M216.67,133.35c4.79-10.69,3.08-22.91,2.27-34.79-.84-12.74.23-26.49-7-37.2-7.36-10.88-20.78-15-32.4-20.86-12.35-6.23-24.4-16.22-37.87-14.78s-22,14.31-32.73,22.39-25,13.09-30.66,25.44-3.75,27.68.45,41a63.63,63.63,0,0,0,22.51,31.36c9.36,6.92,22.22,4.33,32.54,9.57,11.34,5.74,17.74,21.75,30.19,22.16C176,178,183.57,165,192.76,157.25c8.89-7.35,19.27-13.39,23.91-23.9Z" fill="none" stroke="#fff" stroke-width="1.01"/><path class="an f" d="M213,130.74c4.45-10.06,2.92-21.6,2.13-32.78-.81-12,.2-24.93-6.61-35C201.63,52.73,189,48.88,178.05,43.27c-11.62-5.87-23-15.25-35.68-13.89s-20.72,13.47-30.78,21S88,62.73,82.77,74.35s-3.56,26,.45,38.64a60.16,60.16,0,0,0,21.21,29.52c8.79,6.54,20.89,4,30.65,9,10.6,5.38,16.69,20.48,28.45,20.88,11.4.35,18.45-11.91,27.11-19.15,8.18-6.92,18-12.55,22.4-22.5Z" fill="none" stroke="#fff" stroke-width="1.01"/><path class="an g" d="M209.32,128.13c4.2-9.42,2.69-20.26,2-30.68-.71-11.29.26-23.37-6.2-32.79-6.49-9.58-18.3-13.27-28.61-18.43-10.79-5.54-21.47-14.39-33.4-13.11s-19.39,12.62-28.83,19.77S92.17,64.43,87.24,75.32s-3.37,24.42.43,36.22a56.3,56.3,0,0,0,19.9,27.67c8.21,6.09,19.66,3.83,28.77,8.43,9.94,5,15.64,19.21,26.61,19.53,10.71.34,17.36-11.18,25.4-17.91,7.72-6.52,16.84-11.81,21-21.13Z" fill="none" stroke="#fff" stroke-width="1.01"/><path class="an h" d="M205.68,125.51c3.95-8.78,2.55-18.86,1.88-28.67-.69-10.51.23-21.81-5.79-30.58-6.05-8.94-17.05-12.37-26.7-17.17-10.14-5.18-20.12-13.41-31.2-12.15s-18.13,11.79-27,18.43S96.31,66.14,91.7,76.29s-3.1,22.74.42,33.79a52.54,52.54,0,0,0,18.51,25.83c7.72,5.71,18.32,3.55,26.79,7.88,9.29,4.67,14.6,18,24.88,18.25,10,.33,16.18-10.44,23.76-16.77,7.18-6.11,15.74-11.07,19.62-19.76Z" fill="none" stroke="#fff" stroke-width="1.01"/><path class="an i" d="M202.05,122.9c3.61-8.14,2.32-17.53,1.76-26.58-.66-9.73.2-20.24-5.4-28.45S182.53,56.4,173.62,52c-9.48-4.82-18.69-12.45-29-11.35s-16.8,10.93-25,17.08-19.17,10-23.46,19.41-2.9,21.16.33,31.38a48.68,48.68,0,0,0,17.2,24c7.14,5.26,17,3.27,24.91,7.31,8.64,4.4,13.55,16.68,23.05,17,9.24.25,15-9.69,22-15.52,6.83-5.64,14.75-10.27,18.38-18.32Z" fill="none" stroke="#fff" stroke-width="1.01"/><path class="an j" d="M198.33,120.29c3.36-7.5,2.17-16.21,1.62-24.57-.54-9,.18-18.67-5-26.24s-14.63-10.56-22.9-14.74c-8.73-4.39-17.26-11.48-26.74-10.49s-15.54,10.1-23.13,15.83-17.65,9.21-21.6,18S98,97.54,100.9,107a44.36,44.36,0,0,0,15.91,22.14c6.57,4.89,15.67,3.07,23,6.75,8,4,12.5,15.4,21.31,15.62,8.55.24,13.9-9,20.33-14.38,6.21-5.13,13.58-9.36,16.87-16.85Z" fill="none" stroke="#fff" stroke-width="1.01"/><path class="an k" d="M194.69,117.68c3.11-7,2-14.81,1.49-22.56-.53-8.27.15-17.11-4.57-24s-13.47-9.75-21-13.49c-8-4-15.83-10.52-24.55-9.61s-14.21,9.25-21.18,14.47S108.68,70.91,105.05,79s-2.44,17.9.29,26.52a40.73,40.73,0,0,0,14.6,20.29c6,4.52,14.34,2.79,21,6.19,7.33,3.68,11.44,14.06,19.57,14.34,7.86.24,12.73-8.13,18.7-13.15,5.67-4.72,12.41-8.61,15.44-15.47Z" fill="none" stroke="#fff" stroke-width="1.01"/><path class="an l" d="M191,115.15c2.77-6.3,1.8-13.48,1.37-20.46-.5-7.49.12-15.54-4.16-21.82S176,64,169.09,60.56c-7.18-3.78-14.32-9.65-22.27-8.74s-12.95,8.41-19.22,13.12-14.7,7.66-18,15-2.24,16.3.29,24.17a37.63,37.63,0,0,0,13.22,18.45c5.5,4.06,13.09,2.5,19.14,5.63,6.68,3.31,10.4,12.78,17.75,13.07,7.17.23,11.54-7.47,17-12,5.12-4.4,11.22-8,14-14.09Z" fill="none" stroke="#fff" stroke-width="1.01"/><path class="an m" d="M187.35,112.54c2.52-5.67,1.65-12.16,1.24-18.45-.48-6.72.17-14-3.77-19.7s-11-8-17.19-11.06c-6.51-3.33-13-8.59-20.08-7.86S135.94,63,130.2,67.34,116.94,74.23,114,80.82s-2,14.62.28,21.74a34.12,34.12,0,0,0,11.9,16.61c4.93,3.69,11.78,2.3,17.26,5.06,6,3,9.35,11.51,16,11.71,6.4.22,10.36-6.73,15.28-10.77,4.66-3.91,10.12-7.14,12.67-12.63Z" fill="none" stroke="#fff" stroke-width="1.01"/><path class="an n" d="M183.63,109.93c2.27-5,1.41-10.83,1.12-16.35-.38-6,.14-12.43-3.27-17.5s-9.82-7.13-15.3-9.89c-5.86-3-11.53-7.62-17.89-7s-10.36,6.73-15.39,10.51-11.83,6.12-14.41,12-1.78,13,.27,19.32a30.17,30.17,0,0,0,10.6,14.76c4.35,3.23,10.45,2,15.37,4.49,5.3,2.7,8.3,10.25,14.18,10.45,5.71.22,9.28-5.92,13.55-9.62C176.51,117.68,181.43,114.87,183.63,109.93Z" fill="none" stroke="#fff" stroke-width="1.01"/><path class="an o" d="M180,107.32c1.94-4.39,1.28-9.43,1-14.35-.35-5.25.12-10.86-2.86-15.29s-8.56-6.14-13.39-8.62c-5.11-2.55-10.1-6.66-15.61-6.12s-9,5.89-13.53,9.18-10.31,5.34-12.65,10.46-1.59,11.38.17,16.9a26,26,0,0,0,9.3,12.91c3.86,2.86,9.12,1.83,13.39,3.94,4.65,2.34,7.34,9,12.43,9.08s8.1-5.17,11.84-8.37c3.7-2.94,8-5.42,9.92-9.72Z" fill="none" stroke="#fff" stroke-width="1.01"/><path class="an p" d="M176.27,104.71C178,101,177.4,96.6,177,92.39c-.32-4.48.08-9.38-2.46-13.17s-7.32-5.33-11.41-7.38c-4.36-2.19-8.58-5.7-13.41-5.24S142,71.65,138.2,74.52s-8.86,4.65-10.81,9-1.31,9.78.15,14.47a22.59,22.59,0,0,0,8,11.07c3.28,2.4,7.88,1.53,11.5,3.37,4,2,6.3,7.7,10.7,7.8s6.91-4.43,10.21-7.15c3-2.51,6.71-4.67,8.32-8.32Z" fill="none" stroke="#fff" stroke-width="1.01"/><path class="an q" d="M172.64,102.09c1.43-3.11.89-6.78.64-10.22-.21-3.8.05-7.82-2-11s-6.16-4.42-9.51-6.12C158.11,73,154.57,70,150.6,70.42S144.16,74.62,141,77s-7.35,3.87-9.06,7.45-1.12,8.11.15,12a18.24,18.24,0,0,0,6.6,9.22c2.71,2,6.55,1.25,9.62,2.81,3.34,1.7,5.24,6.43,8.87,6.54s5.82-3.7,8.49-6c2.53-2.11,5.54-3.84,7-7Z" fill="none" stroke="#fff" stroke-width="1.01"/><path class="an r" d="M168.91,99.49c1.09-2.56.76-5.38.51-8.22-.18-3,0-6.25-1.63-8.75s-4.9-3.52-7.61-4.94c-2.88-1.5-5.73-3.86-8.94-3.5s-5.18,3.37-7.73,5.31-5.91,3.1-7.2,6-.93,6.52.14,9.7a14.68,14.68,0,0,0,5.3,7.37c2.22,1.66,5.23,1.06,7.64,2.26,2.69,1.34,4.2,5.16,7.13,5.17s4.64-3,6.78-4.76S167.82,102,168.91,99.49Z" fill="none" stroke="#fff" stroke-width="1.01"/><path class="an s" d="M165.28,96.87c.84-1.92.52-4.05.39-6.12-.16-2.24.08-4.69-1.22-6.54s-3.66-2.62-5.71-3.69-4.29-2.89-6.75-2.62-3.92,2.53-5.78,4-4.39,2.32-5.44,4.53-.66,4.84.13,7.27a11.07,11.07,0,0,0,4,5.53c1.64,1.2,3.9.77,5.76,1.69s3.14,3.8,5.3,3.9,3.46-2.21,5.06-3.61,3.42-2.47,4.27-4.3Z" fill="none" stroke="#fff" stroke-width="1.01"/><path d="M23.56,72.39l28.8,12.48v8.32l-28.8,12.48V95.81L41.48,89,23.56,82.25Zm32.79,39V104l15-15.62c2.62-2.69,4.54-5.31,4.54-7.94a4.45,4.45,0,0,0-4.8-4.73c-3.14,0-5.38,2-6.59,4.86l-8.64-5A16,16,0,0,1,71,65.73C79,65.73,86.17,71,86.17,80c0,5.37-2.88,10-7,14.08l-7.42,7.48h15v9.86Zm52.25.9c-11.59,0-18.24-9.48-18.24-23.3S97,65.73,108.6,65.73s18.24,9.48,18.24,23.3S120.18,112.33,108.6,112.33Zm0-10c5.37,0,8-4.67,8-13.31s-2.63-13.31-8-13.31-8,4.67-8,13.31S103.22,102.34,108.6,102.34ZM67.4,141.83v11.7h1.34v3.31h-1v-2.41H58.3v2.41h-1v-3.31h1a6.63,6.63,0,0,0,1.3-4.52v-7.18Zm-6.82.9V149a7.84,7.84,0,0,1-1.11,4.5h7v-10.8Zm20.62,10a6.54,6.54,0,1,1,1.89-4.61A6.26,6.26,0,0,1,81.2,152.74Zm-8.55-.65a5.38,5.38,0,0,0,3.95,1.62,5.27,5.27,0,0,0,3.92-1.62,5.45,5.45,0,0,0,1.62-4,5.36,5.36,0,0,0-1.62-3.94,5.25,5.25,0,0,0-3.92-1.64,5.36,5.36,0,0,0-3.95,1.64,5.45,5.45,0,0,0-1.6,3.94A5.51,5.51,0,0,0,72.65,152.09Zm23-10.26h1.21v12.6H96v-11.2L91.29,151h-.16l-4.66-7.74v11.2h-1v-12.6H86.7l4.5,7.45Zm14.72,10.91a6.54,6.54,0,1,1,1.89-4.61A6.28,6.28,0,0,1,110.42,152.74Zm-8.55-.65a5.36,5.36,0,0,0,3.94,1.62,5.29,5.29,0,0,0,3.93-1.62,5.45,5.45,0,0,0,1.62-4,5.36,5.36,0,0,0-1.62-3.94,5.27,5.27,0,0,0-3.93-1.64,5.34,5.34,0,0,0-3.94,1.64,5.41,5.41,0,0,0-1.6,3.94A5.47,5.47,0,0,0,101.87,152.09Zm19.57-4.19a3.31,3.31,0,0,1,1.57,1.2,3.19,3.19,0,0,1,.59,1.89,3.45,3.45,0,0,1-3.44,3.44h-5.43v-12.6h5a3.31,3.31,0,0,1,3.31,3.31,3.16,3.16,0,0,1-.43,1.64,3,3,0,0,1-1.19,1.12Zm-1.69-5.17h-4.07v4.82h4.07a2.23,2.23,0,0,0,1.66-.7,2.43,2.43,0,0,0,.7-1.71,2.33,2.33,0,0,0-.7-1.69A2.18,2.18,0,0,0,119.75,142.73Zm-4.07,10.8h4.48a2.39,2.39,0,0,0,1.75-.74,2.52,2.52,0,0,0,.74-1.8,2.44,2.44,0,0,0-.74-1.78,2.36,2.36,0,0,0-1.75-.76h-4.48Zm25.25-11.7h1.21v12.6h-1v-11.2L136.52,151h-.16l-4.66-7.74v11.2h-1v-12.6h1.19l4.5,7.45Zm8.61,12.6h-4.28v-12.6h1v4.81h3.33a3.81,3.81,0,0,1,2.81,1.11,3.9,3.9,0,0,1-2.81,6.68Zm6.34,0h-1v-12.6h1Zm-9.67-6.89v6h3.33a2.87,2.87,0,0,0,2.13-.85,3,3,0,0,0-2.13-5.14Zm23.41,7.09a6.42,6.42,0,0,1-4.7-1.87,6.51,6.51,0,0,1,4.7-11.13,6.2,6.2,0,0,1,3.17.83,5.69,5.69,0,0,1,2.23,2.2l-.84.48a4.71,4.71,0,0,0-1.86-1.87,5.15,5.15,0,0,0-2.7-.72,5.45,5.45,0,0,0-5.6,5.58,5.53,5.53,0,0,0,1.57,4,5.46,5.46,0,0,0,4,1.6,5.23,5.23,0,0,0,2.7-.72,4.68,4.68,0,0,0,1.89-1.93l.85.49a5.79,5.79,0,0,1-2.25,2.25,6.36,6.36,0,0,1-3.19.83Zm6.36-12.8h8.89v.9h-4v11.7h-1v-11.7h-4v-.9Zm10.87,0h4.28a3.9,3.9,0,1,1,0,7.79H187.8v4.81h-1v-12.6Zm1,6.89h3.33a3,3,0,0,0,2.13-5.14,2.87,2.87,0,0,0-2.13-.85H187.8v6Zm19.91,4a6.54,6.54,0,1,1,1.89-4.61A6.26,6.26,0,0,1,207.71,152.74Zm-8.55-.65a5.38,5.38,0,0,0,4,1.62,5.27,5.27,0,0,0,3.92-1.62,5.45,5.45,0,0,0,1.62-4,5.36,5.36,0,0,0-1.62-3.94,5.25,5.25,0,0,0-3.92-1.64,5.36,5.36,0,0,0-4,1.64,5.45,5.45,0,0,0-1.6,3.94A5.51,5.51,0,0,0,199.16,152.09Zm22.1,2.34h-1V143.59l-7.45,10.84H212v-12.6h1v10.84l7.43-10.84h.85Zm13.31-12.6h1.2v12.6h-1v-11.2L230.16,151H230l-4.67-7.74v11.2h-1v-12.6h1.19l4.5,7.45ZM60.56,170l6.56,6.48H65.84l-6.32-6.21v6.21h-1v-12.6h1v5.87l6.14-5.87h1.28L60.56,170Zm18,6.48h-1l-1.22-3.2H70l-1.23,3.2h-1l4.89-12.6h1l4.88,12.6ZM73.15,165l-2.81,7.33H76ZM87.76,170l5.73,6.48H92.35l-5.54-6.25v6.25h-1v-6.25l-5.54,6.25H79.16L84.88,170l-5.54-6.12h1.13l5.36,5.89v-5.89h1v5.89l5.36-5.89H93.3L87.76,170Zm16.49-6.12v11.7h1.33v3.31h-1v-2.41H95.14v2.41h-1v-3.31h1A6.68,6.68,0,0,0,96.47,171v-7.18Zm-6.82.9V171a7.83,7.83,0,0,1-1.12,4.5h7v-10.8Zm14.69,11.7h-4.28v-12.6h1v4.81h3.33a3.9,3.9,0,1,1,0,7.79Zm6.34,0h-1v-12.6h1Zm-9.67-6.89v6h3.33a2.89,2.89,0,0,0,2.13-.85,3,3,0,0,0-2.13-5.14Zm19.65-7.28h-4.55v-.79h4.55Zm2.36,14.17h-1V165.59l-7.46,10.84h-.82v-12.6h1v10.84L130,163.83h.85Zm18.11-12.6h1.21v12.6h-1v-11.2L144.5,173h-.16l-4.66-7.74v11.2h-1v-12.6h1.19l4.5,7.45Zm5.29,6.7v5h6.3v.9h-7.26v-12.6h7.17v.9H154.2v4.9H160v.9Zm14.38,6.1a6.38,6.38,0,0,1-4.69-1.87,6.51,6.51,0,0,1,4.69-11.13,6.2,6.2,0,0,1,3.17.83,5.69,5.69,0,0,1,2.23,2.2l-.84.48a4.71,4.71,0,0,0-1.86-1.87,5.15,5.15,0,0,0-2.7-.72,5.44,5.44,0,0,0-5.59,5.58,5.52,5.52,0,0,0,1.56,4,5.46,5.46,0,0,0,4,1.6,5.23,5.23,0,0,0,2.7-.72,4.68,4.68,0,0,0,1.89-1.93l.85.49a5.79,5.79,0,0,1-2.25,2.25,6.36,6.36,0,0,1-3.19.83Zm10.68-12.8h5v12.6h-1v-5.17h-3.45l-3.57,5.17h-1.08l3.59-5.2a3.64,3.64,0,0,1-2.31-1.23,3.72,3.72,0,0,1,2.79-6.17Zm0,6.53h4v-5.63h-4a2.63,2.63,0,0,0-1.94.83,2.73,2.73,0,0,0-.81,2,2.79,2.79,0,0,0,.81,2A2.62,2.62,0,0,0,179.26,170.36Zm17-6.53v11.7h1.32v3.31h-1v-2.41h-9.23v-12.6h1v11.7h7v-11.7Z"/></svg>