<svg xmlns="http://www.w3.org/2000/svg" viewBox="0 0 100 90"><title>brun-2-m</title><path d="M0,0H100V90H0Z" fill="none"/><path d="M89.79,41c.34,6.45,1.18,13.11-1.58,19S79.65,69.09,74.7,73.16c-5.17,4.28-9.46,11.41-16.22,11.32-6.94-.11-10.4-8.82-16.63-11.84-5.7-2.77-12.92-1.24-18.08-5a33.39,33.39,0,0,1-12.3-16.88C9.2,43.5,8.3,35.24,11.56,28.38s11.23-9.57,17.3-14.07S39.75,2.81,47.26,1.9s14.21,4.43,21,7.76c6.46,3.14,13.89,5.27,17.91,11.12S89.4,34.05,89.77,41Z" fill="none" stroke="#fff" stroke-width="0.41"/><path d="M56.77,36.69a3.23,3.23,0,0,1-.13,1.66,3.77,3.77,0,0,1-1.19,1.16c-.45.37-.82,1-1.43,1s-.92-.76-1.45-1S51.45,39.35,51,39a3,3,0,0,1-1.09-1.47,2.63,2.63,0,0,1,0-2c.28-.6,1-.83,1.5-1.24s1-1,1.6-1.07,1.22.4,1.83.68a3.77,3.77,0,0,1,1.55,1A3.11,3.11,0,0,1,56.77,36.69Z" fill="none" stroke="#fff" stroke-width="0.41"/><path d="M86.73,59c2.61-5.59,1.81-12,1.47-18.15-.33-6.66.37-13.79-3.44-19.32s-11-7.66-17.11-10.66C61.11,7.63,54.77,2.53,47.54,3.4S35.72,11,29.91,15.31s-13.47,7-16.56,13.49-2.23,14.44-.08,21.4A31.75,31.75,0,0,0,25,66.34c4.92,3.54,11.83,2.08,17.3,4.74,6,2.88,9.27,11.23,15.92,11.33,6.48.1,10.59-6.73,15.51-10.8S84.14,64.48,86.73,59Z" fill="#e7e4df"/><path d="M85.2,57.92c2.51-5.34,1.75-11.45,1.45-17.34-.33-6.35.34-13.17-3.29-18.43S72.89,14.84,67,12C60.8,9,54.7,4.07,47.82,4.9S36.52,12.18,31,16.26,18.16,22.93,15.2,29.13s-2.14,13.77-.07,20.42A30.2,30.2,0,0,0,26.35,65c4.69,3.39,11.28,2,16.49,4.52,5.71,2.78,8.88,10.72,15.21,10.79S68.15,73.88,72.88,70C77.38,66.23,82.76,63.18,85.2,57.92Z" fill="none" stroke="#fff" stroke-width="0.41"/><path d="M83.71,56.89c2.4-5.08,1.65-10.88,1.35-16.5-.29-6,.32-12.56-3.13-17.57s-10-7-15.56-9.67c-5.93-2.89-11.71-7.54-18.28-6.78s-10.74,6.93-16,10.83-12.25,6.35-15,12.29-2,13.12-.06,19.44A28.74,28.74,0,0,0,27.7,63.6c4.48,3.21,10.73,1.9,15.71,4.31,5.44,2.63,8.45,10.21,14.47,10.29,5.87.1,9.61-6.12,14.11-9.83C76.26,64.8,81.34,61.9,83.71,56.89Z" fill="none" stroke="#fff" stroke-width="0.41"/><path d="M82.19,55.86c2.26-4.82,1.58-10.35,1.28-15.69-.28-5.72.3-11.9-3-16.68S71,16.85,65.71,14.28c-5.62-2.72-11.12-7.15-17.34-6.41S38.14,14.46,33.14,18.15,21.53,24.22,18.85,29.82s-1.93,12.49-.05,18.46a27.24,27.24,0,0,0,10.2,14c4.25,3.07,10.22,1.79,14.94,4.1,5.17,2.49,8,9.67,13.76,9.79s9.15-5.83,13.4-9.36C75.15,63.37,80,60.64,82.19,55.86Z" fill="none" stroke="#fff" stroke-width="0.41"/><path d="M80.7,54.83C82.85,50.23,82.17,45,81.92,40c-.28-5.44.27-11.3-2.82-15.8s-9-6.31-14-8.74c-5.36-2.61-10.54-6.77-16.45-6.07S39,15.63,34.24,19.12s-11,5.74-13.52,11S18.87,42,20.63,47.64a26,26,0,0,0,9.61,13.24c4,2.88,9.68,1.71,14.13,3.88,4.9,2.35,7.6,9.16,13,9.25s8.63-5.52,12.7-8.85S78.58,59.35,80.7,54.83Z" fill="none" stroke="#fff" stroke-width="0.41"/><path d="M79.18,53.8c2-4.34,1.4-9.25,1.15-14-.27-5.13.25-10.68-2.67-15s-8.48-5.9-13.23-8.2c-5.05-2.43-10-6.39-15.51-5.73s-9.15,5.9-13.63,9.21S24.91,25.5,22.5,30.52,20.78,41.69,22.43,47a24.69,24.69,0,0,0,9.09,12.5c3.81,2.73,9.13,1.61,13.35,3.66,4.64,2.25,7.18,8.66,12.3,8.75s8.17-5.21,12-8.38C72.89,60.55,77.2,58.06,79.18,53.8Z" fill="none" stroke="#fff" stroke-width="0.41"/><path d="M77.69,52.76c1.9-4.07,1.34-8.71,1.08-13.22-.26-4.81.24-10-2.51-14.06s-8-5.56-12.45-7.75c-4.75-2.3-9.38-6-14.62-5.39S40.57,17.89,36.37,21s-9.78,5.1-12,9.82S22.72,41.3,24.3,46.37a23.25,23.25,0,0,0,8.56,11.77c3.58,2.59,8.58,1.51,12.57,3.45,4.34,2.11,6.76,8.15,11.6,8.24s7.68-4.9,11.29-7.87C71.74,59.13,75.82,56.8,77.69,52.76Z" fill="none" stroke="#fff" stroke-width="0.41"/><path d="M76.17,51.73c1.79-3.82,1.23-8.18,1-12.37-.22-4.54.25-9.42-2.35-13.17S67.37,21,63.15,18.93c-4.41-2.17-8.76-5.67-13.69-5.09S41.4,19,37.46,22s-9.18,4.78-11.28,9.19S24.64,41,26.13,45.76a21.76,21.76,0,0,0,8,11C37.51,59.2,42.24,58.22,46,60c4.07,2,6.33,7.65,10.85,7.71s7.22-4.6,10.57-7.36S74.41,55.51,76.17,51.73Z" fill="none" stroke="#fff" stroke-width="0.41"/><path d="M74.68,50.7c1.68-3.56,1.17-7.61.95-11.56-.22-4.23.23-8.79-2.2-12.29s-7-4.88-10.9-6.76c-4.15-2-8.21-5.29-12.78-4.71S42.2,20.23,38.52,23,30,27.42,28,31.54s-1.41,9.18,0,13.61a20.45,20.45,0,0,0,7.47,10.3c3.15,2.25,7.53,1.32,11,3,3.8,1.83,5.91,7.15,10.14,7.21s6.74-4.3,9.9-6.89C69.47,56.27,73,54.22,74.68,50.7Z" fill="none" stroke="#fff" stroke-width="0.41"/><path d="M73.19,49.66c1.54-3.29,1.06-7.07.89-10.71-.22-3.92.2-8.16-2-11.44S65.55,23,61.91,21.25C58,19.36,54.28,16.34,50,16.84s-7,4.51-10.41,7-8,4.14-9.79,8-1.33,8.54-.06,12.64a18.9,18.9,0,0,0,7,9.56c2.91,2.08,7,1.22,10.21,2.8,3.54,1.72,5.49,6.64,9.4,6.71s6.24-4,9.18-6.39S71.64,52.93,73.19,49.66Z" fill="none" stroke="#fff" stroke-width="0.41"/><path d="M71.67,48.63c1.43-3,1-6.54.82-9.9-.17-3.61.18-7.53-1.9-10.55s-6-4.17-9.34-5.8c-3.58-1.72-7-4.53-11-4.07s-6.47,4.16-9.63,6.51-7.33,3.82-9,7.38-1.21,7.86,0,11.66A17.15,17.15,0,0,0,38,52.68c2.67,1.93,6.44,1.15,9.44,2.58,3.27,1.58,5.06,6.14,8.68,6.17s5.79-3.69,8.47-5.91S70.27,51.67,71.67,48.63Z" fill="none" stroke="#fff" stroke-width="0.41"/><path d="M70.18,47.6c1.32-2.82.92-6,.75-9.1-.17-3.32.16-6.89-1.74-9.65S63.7,25,60.62,23.54c-3.27-1.58-6.45-4.15-10.06-3.73s-5.91,3.81-8.81,6S35,29.26,33.47,32.53s-1.12,7.22,0,10.68a15.79,15.79,0,0,0,5.89,8.09c2.44,1.78,5.89,1,8.63,2.37,3,1.44,4.63,5.59,8,5.66s5.3-3.35,7.79-5.41,5.16-3.54,6.46-6.32Z" fill="none" stroke="#fff" stroke-width="0.41"/><path d="M68.66,46.6c1.18-2.55.82-5.44.69-8.25-.16-3,.14-6.26-1.58-8.77s-5-3.49-7.8-4.84-5.84-3.81-9.13-3.39-5.39,3.46-8,5.4-6.1,3.17-7.51,6.14-1,6.58,0,9.73A14.59,14.59,0,0,0,40.63,50c2.25,1.6,5.39.93,7.86,2.15,2.73,1.3,4.21,5.09,7.24,5.17s4.8-3.08,7.07-4.94S67.47,49.09,68.66,46.6Z" fill="none" stroke="#fff" stroke-width="0.41"/><path d="M67.17,45.57c1.07-2.3.75-4.91.62-7.44-.15-2.7.16-5.64-1.43-7.91s-4.47-3.14-7-4.36-5.29-3.38-8.23-3.05-4.83,3.12-7.22,4.88-5.5,2.86-6.77,5.53-.91,5.91,0,8.76a13.19,13.19,0,0,0,4.8,6.62c2,1.46,4.84.86,7.08,1.94,2.44,1.19,3.79,4.58,6.53,4.62s4.31-2.77,6.36-4.42S66.09,47.8,67.17,45.57Z" fill="none" stroke="#fff" stroke-width="0.41"/><path d="M65.64,44.54c1-2,.65-4.37.56-6.59-.11-2.43.14-5-1.23-7S61,28.1,58.72,27,54,24,51.39,24.29s-4.31,2.8-6.39,4.35-4.91,2.54-6,4.91-.81,5.26,0,7.78a11.79,11.79,0,0,0,4.28,5.88c1.77,1.28,4.3.75,6.31,1.72s3.32,4.07,5.74,4.13,3.86-2.44,5.64-4S64.71,46.54,65.64,44.54Z" fill="none" stroke="#fff" stroke-width="0.41"/><path d="M64.16,43.51c.82-1.78.58-3.81.49-5.79s.12-4.37-1.08-6.14-3.49-2.42-5.47-3.4-4.1-2.62-6.4-2.37-3.7,2.42-5.63,3.78-4.28,2.21-5.28,4.29a9.49,9.49,0,0,0,0,6.8,10.1,10.1,0,0,0,3.75,5.15c1.58,1.13,3.75.68,5.5,1.51s3,3.57,5.07,3.59,3.37-2.14,4.93-3.45S63.33,45.25,64.16,43.51Z" fill="none" stroke="#fff" stroke-width="0.41"/><path d="M62.63,42.48c.72-1.52.52-3.28.39-5s.09-3.78-.93-5.29-3-2.1-4.65-2.91-3.51-2.24-5.5-2-3.23,2.08-4.81,3.26-3.68,1.92-4.51,3.67a8.14,8.14,0,0,0,0,5.83,8.76,8.76,0,0,0,3.23,4.41c1.33.95,3.24.57,4.72,1.29,1.63.77,2.55,3.06,4.36,3.08s2.88-1.82,4.25-2.94S62,44,62.63,42.48Z" fill="none" stroke="#fff" stroke-width="0.41"/><path d="M61.14,41.44a8.24,8.24,0,0,0,.33-4.12c-.06-1.53.07-3.15-.77-4.4s-2.51-1.75-3.88-2.41-2.92-1.9-4.56-1.7-2.68,1.73-4,2.7-3,1.61-3.77,3.06a6.66,6.66,0,0,0,0,4.85,7.06,7.06,0,0,0,2.67,3.68c1.1.8,2.69.46,3.94,1.07s2.13,2.56,3.62,2.58,2.42-1.52,3.54-2.46S60.53,42.71,61.14,41.44Z" fill="none" stroke="#fff" stroke-width="0.41"/><path d="M59.62,40.41a6.77,6.77,0,0,0,.26-3.31,7.29,7.29,0,0,0-.62-3.51c-.62-1-2-1.39-3.11-2s-2.33-1.52-3.66-1.36-2.16,1.39-3.22,2.19-2.45,1.28-3,2.47a5.16,5.16,0,0,0,0,3.9,5.67,5.67,0,0,0,2.14,3c.9.65,2.14.39,3.13.86s1.7,2,2.91,2,1.93-1.22,2.82-2A7.68,7.68,0,0,0,59.62,40.41Z" fill="none" stroke="#fff" stroke-width="0.41"/><path d="M58.13,39.38a5,5,0,0,0,.2-2.47,5,5,0,0,0-.46-2.63,5.51,5.51,0,0,0-2.33-1.45c-.88-.45-1.76-1.14-2.77-1s-1.63,1-2.4,1.63-1.83,1-2.27,1.85a4.11,4.11,0,0,0,0,2.93,4.3,4.3,0,0,0,1.62,2.2c.66.48,1.6.29,2.36.65s1.27,1.52,2.16,1.54,1.44-.91,2.11-1.48A6.38,6.38,0,0,0,58.13,39.38Z" fill="none" stroke="#fff" stroke-width="0.41"/><path d="M.2,23.7l13.5,5.85v3.9L.2,39.3V34.68L8.6,31.5.2,28.32ZM15.57,42V38.52l7.05-7.32c1.23-1.26,2.13-2.49,2.13-3.72a2.08,2.08,0,0,0-1.95-2.22,1.5,1.5,0,0,0-.3,0,3.38,3.38,0,0,0-3.09,2.28l-4.05-2.37a7.49,7.49,0,0,1,7.08-4.59c3.75,0,7.11,2.46,7.11,6.69,0,2.52-1.35,4.68-3.27,6.6L22.8,37.38h7.05V42Zm24.49.42c-5.43,0-8.55-4.44-8.55-10.92s3.12-10.92,8.55-10.92S48.61,25,48.61,31.5,45.49,42.42,40.06,42.42Zm0-4.68c2.52,0,3.75-2.19,3.75-6.24s-1.23-6.24-3.75-6.24-3.75,2.19-3.75,6.24S37.54,37.74,40.06,37.74ZM21.78,59.5h.74v1.84H22V60H16.72v1.34h-.54V59.5h.56a3.57,3.57,0,0,0,.72-2.5V53h4.32ZM18,57a4.15,4.15,0,0,1-.62,2.5h3.88v-6H18Zm8.9,3.11a3.59,3.59,0,0,1-3.61-3.57h0a3.61,3.61,0,0,1,7.22,0h0a3.59,3.59,0,0,1-3.61,3.57h0Zm0-.51a3.1,3.1,0,1,0-3.08-3.12v0a3.06,3.06,0,0,0,3,3.1h0ZM38.17,53v7h-.53V53.78l-2.59,4.3h0l-2.59-4.3V60h-.53V53h.66L35,57.14,37.5,53Zm4.95,7.11a3.59,3.59,0,0,1-3.61-3.57h0a3.61,3.61,0,0,1,7.22,0h0a3.59,3.59,0,0,1-3.61,3.57Zm0-.51A3.1,3.1,0,1,0,40,56.5a3.06,3.06,0,0,0,3,3.1Zm8.68-3.23A1.84,1.84,0,0,1,53,58.09,1.9,1.9,0,0,1,51.11,60h-3V53h2.79a1.84,1.84,0,0,1,1.84,1.84h0A1.71,1.71,0,0,1,51.8,56.37Zm-.94-2.87H48.6v2.68h2.26a1.34,1.34,0,1,0,0-2.68Zm.23,6a1.41,1.41,0,0,0,0-2.82H48.6V59.5ZM23.2,65v7h-.53V65.78l-2.59,4.3H20l-2.59-4.3V72h-.53V65h.66L20,69.14,22.53,65Zm1.74,7V65h.53v2.67h1.85A2.17,2.17,0,0,1,27.61,72a1.4,1.4,0,0,1-.29,0Zm5.36,0V65h.54v7Zm-4.83-.5h1.85a1.67,1.67,0,0,0,0-3.33H25.47Zm13,.61a3.61,3.61,0,0,1,0-7.22,3.42,3.42,0,0,1,3,1.68l-.47.27a2.85,2.85,0,0,0-2.53-1.44,3.1,3.1,0,0,0,0,6.2h0A2.86,2.86,0,0,0,41,70.13l.47.27A3.43,3.43,0,0,1,38.47,72.11ZM46.94,65v.5h-2.2V72H44.2V65.5H42V65Zm3.48,0a2.17,2.17,0,0,1,.29,4.33,1.4,1.4,0,0,1-.29,0H48.57V72H48V65Zm0,3.83a1.67,1.67,0,0,0,0-3.33H48.57v3.33Zm6.65,3.28a3.59,3.59,0,0,1-3.61-3.57h0a3.61,3.61,0,0,1,7.22,0h0a3.59,3.59,0,0,1-3.61,3.57Zm0-.51A3.1,3.1,0,1,0,54,68.47v0a3.06,3.06,0,0,0,3,3.1Zm9.56.4V66l-4.14,6H62V65h.53v6l4.13-6h.47v7Zm8.59-7v7h-.53V65.78l-2.59,4.3H72l-2.59-4.3V72h-.53V65h.66L72,69.14,74.55,65ZM21.62,84h-.71L17.4,80.55V84h-.53V77h.53v3.26L20.81,77h.71L18,80.4Zm5.78,0-.68-1.78H23.21L22.53,84H22l2.72-7h.56L28,84Zm-4-2.28h3.12L25,77.65ZM36.27,84h-.63l-3.08-3.47V84H32V80.53L28.94,84h-.63l3.18-3.6L28.41,77H29l3,3.27V77h.54v3.27l3-3.27h.63l-3.08,3.4Zm6-.5H43v1.84h-.54V84H37.19v1.34h-.54V83.5h.56a3.57,3.57,0,0,0,.72-2.5V77h4.32ZM38.46,81a4.15,4.15,0,0,1-.62,2.5h3.88v-6H38.46Zm5.78,3V77h.53v2.67h1.85A2.17,2.17,0,0,1,46.91,84a1.4,1.4,0,0,1-.29,0Zm5.36,0V77h.54v7Zm-4.83-.5h1.85a1.67,1.67,0,0,0,0-3.33H44.77Zm8.39-7.37v-.44h2.53v.44ZM56.47,84V78l-4.14,6h-.46V77h.53v6l4.13-6H57v7Zm11.26-7v7H67.2V77.78l-2.59,4.3h-.09l-2.59-4.3V84H61.4V77h.66l2.5,4.14L67.06,77ZM70,83.5h3.5V84h-4V77h4v.5H70v2.72h3.2v.5H70Zm8,.61a3.61,3.61,0,0,1,0-7.22,3.42,3.42,0,0,1,3,1.68l-.47.27A2.85,2.85,0,0,0,78,77.4a3.1,3.1,0,0,0,0,6.2h0a2.86,2.86,0,0,0,2.55-1.47l.47.27a3.43,3.43,0,0,1-3,1.71ZM86.69,77v7h-.53V81.13H84.24l-2,2.87h-.6l2-2.89A2.06,2.06,0,0,1,83.92,77Zm-2.77,3.63h2.24V77.5H83.92a1.57,1.57,0,0,0,0,3.13Zm9.44,2.87h.73v1.84h-.53V84H88.43V77H89v6.5h3.87V77h.53Z"/></svg>