<svg xmlns="http://www.w3.org/2000/svg" viewBox="0 0 280 210"><title>brun-3-sd</title><path d="M0,0H280V210H0Z" fill="none"/><path d="M86.07,27.48c13.6-9.14,27.05-19.56,43.24-21.65C145.26,3.72,159.89,11.2,175,15.89c15.77,4.87,36.65,4.21,44.9,18,8.45,14.19-6.17,32.59-4.95,49.17,1.1,15.18,13.46,27.79,11.83,43.09a83.38,83.38,0,0,1-21.33,47c-12.94,14.08-29.78,26.74-48.78,29.13-18.75,2.29-34.88-10.22-52.25-16.61s-38.76-6.93-50.13-21-8.13-34.56-9.4-52.71c-1.27-17.19-5.9-35,1.78-50.84C54.27,45.65,71.46,37.31,86.07,27.48Z" fill="none" stroke="#fff" stroke-width="1.01"/><path d="M118.18,99.9A8.65,8.65,0,0,1,122,98c1.44-.18,2.65.47,4,.89s3.23.34,3.93,1.61-.5,2.85-.44,4.3,1.17,2.4,1.05,3.78a7.36,7.36,0,0,1-1.84,4.12,7.11,7.11,0,0,1-4.28,2.53c-1.63.22-3-.93-4.56-1.43s-3.37-.65-4.33-1.82-.65-3-.82-4.6-.46-3.06.14-4.39,2.15-2.23,3.37-3.09Z" fill="none" stroke="#fff" stroke-width="1.01"/><path d="M129,10.14c-15.44,2-28.35,12-41.34,20.79C73.6,40.33,57.2,48.25,49.94,63.19,42.6,78.3,47,95.4,48.15,111.8c1.24,17.42-1.93,36.94,9,50.45s31.3,14,48,20.1,32.06,18.11,50.06,15.88c18.19-2.28,34.21-14.41,46.64-27.87a79.29,79.29,0,0,0,20.44-44.93c1.54-14.6-10.27-26.66-11.33-41.24-1.2-15.85,12.83-33.46,4.74-47.08-7.9-13.24-27.91-12.62-42.91-17.25C158.18,15.34,144.26,8.15,129,10.14Z" fill="#e7e4df"/><path d="M128.68,14.57C113.93,16.49,101.57,26,89.13,34.37c-13.39,9-29.06,16.54-36,30.78-7.08,14.48-2.79,30.78-1.69,46.38,1.23,16.59-1.78,35.33,8.63,48.19s30,13.34,45.74,19.18S136.4,196.16,153.58,194c17.37-2.17,32.64-13.7,44.51-26.61a75.35,75.35,0,0,0,19.49-42.9c1.51-13.93-9.75-25.47-10.78-39.32C205.7,70,219,53.2,211.26,40.28c-7.54-12.67-26.62-12-41-16.48-13.7-4.27-27-11.16-41.55-9.23Z" fill="none" stroke="#fff" stroke-width="1.01"/><path d="M128.29,18.94c-14,1.79-25.73,10.92-37.57,18.88C78,46.3,63,53.63,56.4,67.18c-6.66,13.72-2.65,29.28-1.57,44.16,1.14,15.79-1.74,33.58,8.12,45.9s28.51,12.68,43.59,18.22,29.12,16.47,45.5,14.33c16.56-2.06,31.08-13.11,42.37-25.34A71.88,71.88,0,0,0,213,123.58c1.36-13.28-9.3-24.22-10.28-37.47C201.6,71.66,214.31,55.63,207,43.34c-7.12-12-25.34-11.44-39-15.7C154.82,23.66,142.16,17.19,128.29,18.94Z" fill="none" stroke="#fff" stroke-width="1.01"/><path d="M128,23.37c-13.31,1.74-24.49,10.36-35.73,18C80.15,49.39,66,56.3,59.66,69.21c-6.4,13.08-2.59,27.84-1.54,42,1.13,14.94-1.64,31.9,7.76,43.52S93,166.79,107.29,172.08s27.7,15.56,43.25,13.65c15.74-1.95,29.58-12.45,40.23-24.08a68.07,68.07,0,0,0,17.67-38.89c1.34-12.62-8.89-23-9.78-35.61-1-13.73,11-28.92,4.09-40.68C196,35,178.63,35.56,165.64,31.59c-12.52-3.8-24.49-10-37.67-8.22Z" fill="none" stroke="#fff" stroke-width="1.01"/><path d="M127.59,27.74c-12.68,1.67-23.2,9.87-33.81,17C82.29,52.4,68.84,59,62.93,71.12c-6.06,12.38-2.52,26.39-1.5,39.82,1,14.27-1.54,30.22,7.38,41.25S94.52,163.66,108,168.63c13.66,5.05,26.27,14.78,41,12.92s28-11.75,38.14-22.76A65.07,65.07,0,0,0,203.86,122c1.25-11.9-8.37-21.85-9.23-33.69-1-13,10.43-27.4,3.86-38.47C192,39,175.65,39.52,163.37,35.74c-11.84-3.81-23.29-9.63-35.78-8Z" fill="none" stroke="#fff" stroke-width="1.01"/><path d="M127.26,32.17c-12,1.55-21.88,9.26-32,16-10.82,7.26-23.54,13.46-29.18,25-5.72,11.69-2.27,24.91-1.33,37.54,1,13.42-1.44,28.54,6.95,38.92S96,160.46,108.82,165.2s24.77,13.92,38.69,12.23,26.44-11.16,36-21.49a61.67,61.67,0,0,0,15.84-34.77c1.17-11.3-7.92-20.6-8.74-31.84C189.7,77,200.48,63.46,194.26,53,188.19,42.78,172.7,43.24,161,39.63c-11.19-3.57-22-9-33.76-7.46Z" fill="none" stroke="#fff" stroke-width="1.01"/><path d="M126.88,36.53c-11.24,1.5-20.63,8.71-30.11,15.13C86.62,58.5,74.63,64.34,69.33,75.16c-5.39,11-2.14,23.41-1.29,35.37.94,12.64-1.36,26.86,6.55,36.66s22.86,10.19,34.86,14.62,23.33,13.13,36.38,11.49S170.7,162.85,179.76,153a58.13,58.13,0,0,0,14.89-32.74c1.15-10.64-7.46-19.35-8.23-30-.83-11.54,9.29-24.36,3.43-34.28-5.71-9.61-20.27-9.13-31.24-12.55C148.17,40.26,138,35,126.88,36.53Z" fill="none" stroke="#fff" stroke-width="1.01"/><path d="M126.55,41C116,42.34,107.22,49.18,98.36,55.11c-9.6,6.41-20.79,11.83-25.71,22s-2.07,22-1.18,33.15c.8,11.78-1.38,25.17,6,34.38s21.4,9.53,32.7,13.65,21.9,12.34,34.13,10.81,23.37-9.8,31.79-19a54.45,54.45,0,0,0,14-30.71c1-9.93-7-18.23-7.74-28.13-.81-10.81,8.73-22.84,3.21-32.07-5.36-9-19.05-8.6-29.25-11.78-9.84-3-19.33-7.83-29.76-6.44Z" fill="none" stroke="#fff" stroke-width="1.01"/><path d="M126.17,45.33c-9.85,1.26-18,7.61-26.34,13.22-8.93,6-19.4,11-24,20.55S73.92,99.57,74.77,110c.78,11-1.22,23.55,5.74,32.06s20,8.92,30.54,12.79,20.4,11.49,31.81,10.07,21.74-9.15,29.65-17.76a50.89,50.89,0,0,0,13.06-28.61c1-9.33-6.54-17-7.18-26.21-.78-10.09,8.15-21.32,3-30-5-8.46-17.77-8-27.37-11-9.2-2.79-18.11-7.3-27.84-6Z" fill="none" stroke="#fff" stroke-width="1.01"/><path d="M125.79,49.7c-9.1,1.2-16.72,7.11-24.43,12.24-8.25,5.55-18,10.26-22.3,19.12s-1.75,19-1,28.7c.75,10.32-1.13,21.87,5.29,29.85s18.55,8.25,28.31,11.87,19,10.7,29.56,9.39,20.24-8.5,27.57-16.43a47.19,47.19,0,0,0,12.11-26.59c.88-8.61-6.08-15.73-6.68-24.35-.69-9.42,7.58-19.8,2.83-27.82-4.66-7.77-16.49-7.41-25.38-10.23-8.58-2.74-16.86-6.9-25.9-5.75Z" fill="none" stroke="#fff" stroke-width="1.01"/><path d="M125.47,54.13c-8.41,1.08-15.48,6.56-22.58,11.31-7.64,5.07-16.6,9.48-20.57,17.65s-1.62,17.54-.94,26.53c.73,9.47-1,20.18,4.85,27.51s17.14,7.65,26.21,11,17.47,9.85,27.32,8.59,18.61-7.85,25.43-15.17A42.89,42.89,0,0,0,176.36,117c.85-8-5.57-14.55-6.19-22.51-.66-8.68,7-18.27,2.55-25.66-4.3-7.2-15.26-6.88-23.45-9.4-7.82-2.49-15.45-6.42-23.8-5.27Z" fill="none" stroke="#fff" stroke-width="1.01"/><path d="M125.09,58.49c-7.79,1-14.17,5.95-20.74,10.39-7,4.7-15.2,8.7-18.83,16.17s-1.49,16.16-.83,24.3c.65,8.69-.94,18.51,4.47,25.26s15.68,7,24,10,16,9.05,25.07,7.91,17.1-7.2,23.28-13.91a39.39,39.39,0,0,0,10.23-22.52c.83-7.29-5.11-13.3-5.64-20.59-.62-8,6.38-16.7,2.34-23.57-3.94-6.62-13.91-6.34-21.5-8.69-7.17-2.25-14.17-5.82-21.83-4.8Z" fill="none" stroke="#fff" stroke-width="1.01"/><path d="M124.82,62.87c-7,1-12.86,5.46-18.81,9.41-6.36,4.27-13.8,7.91-17.1,14.69s-1.36,14.66-.79,22.13c.45,7.89-1,16.82,4,22.93s14.29,6.37,21.76,9.13,14.54,8.2,22.75,7.17,15.61-6.55,21.22-12.7a36.46,36.46,0,0,0,9.34-20.43c.68-6.64-4.71-12.12-5.14-18.73-.6-7.24,5.81-15.19,2.18-21.42-3.59-6-12.71-5.69-19.58-7.86C138.09,65.23,131.72,62,124.82,62.87Z" fill="none" stroke="#fff" stroke-width="1.01"/><path d="M124.45,67.24c-6.34.84-11.63,4.9-17,8.48C101.8,79.57,95,82.78,92.05,89s-1.23,13.17-.69,19.92c.49,7.1-.75,15.14,3.65,20.65s12.83,5.7,19.66,8.23,13.1,7.41,20.5,6.49,14-5.91,19.08-11.44a33.08,33.08,0,0,0,8.39-18.4c.65-6-4.19-10.92-4.65-16.88-.44-6.49,5.25-13.66,1.91-19.26-3.18-5.41-11.43-5.1-17.59-7.09-5.93-1.84-11.66-4.69-17.86-4Z" fill="none" stroke="#fff" stroke-width="1.01"/><path d="M124.12,71.67c-5.65.71-10.33,4.41-15.05,7.5C103.94,82.59,98,85.45,95.32,90.89s-1.11,11.79-.65,17.74C95.13,115,94,122.1,97.94,127s11.43,5.1,17.43,7.31S127,141,133.56,140.08,146,134.83,150.5,129.9A29.21,29.21,0,0,0,158,113.53c.56-5.26-3.74-9.68-4.15-15-.42-5.77,4.68-12.15,1.75-17.11s-10.13-4.62-15.66-6.25c-5.16-1.59-10.25-4.21-15.77-3.48Z" fill="none" stroke="#fff" stroke-width="1.01"/><path d="M123.74,76c-4.9.66-9,3.81-13.2,6.58-4.46,3-9.66,5.5-12,10.24s-.91,10.24-.55,15.52c.45,5.53-.55,11.78,2.83,16.06s10,4.43,15.26,6.46S126.24,136.66,132,136s10.9-4.54,14.85-8.84a25.26,25.26,0,0,0,6.51-14.34c.48-4.67-3.21-8.49-3.6-13.11-.39-5,4-10.69,1.47-15s-8.86-4-13.66-5.47c-4.55-1.54-9-3.8-13.84-3.2Z" fill="none" stroke="#fff" stroke-width="1.01"/><path d="M123.42,80.47c-4.21.54-7.77,3.24-11.3,5.71-3.79,2.57-8.34,4.77-10.35,8.82s-.84,8.8-.49,13.23c.36,4.74-.51,10,2.45,13.79s8.57,3.83,13.1,5.49,8.8,4.93,13.63,4.32,9.34-4,12.71-7.59a21.76,21.76,0,0,0,5.56-12.31c.39-3.94-2.81-7.3-3.09-11.25-.37-4.31,3.48-9.17,1.25-12.86s-7.58-3.44-11.72-4.76C131.37,81.88,127.5,79.92,123.42,80.47Z" fill="none" stroke="#fff" stroke-width="1.01"/><path d="M123,84.83c-3.51.42-6.47,2.76-9.38,4.74-3.24,2.13-6.93,4-8.61,7.34s-.65,7.36-.39,11c.29,3.94-.48,8.4,2,11.46s7.11,3.15,10.88,4.56,7.3,4.08,11.37,3.65,7.76-3.25,10.57-6.32a17.64,17.64,0,0,0,4.67-10.22c.37-3.29-2.36-6.06-2.6-9.4-.26-3.64,2.92-7.65,1.09-10.71S136.31,88,132.87,87C129.66,86,126.54,84.41,123,84.83Z" fill="none" stroke="#fff" stroke-width="1.01"/><path d="M122.71,89.26c-2.83.42-5.16,2.15-7.53,3.82-2.57,1.7-5.54,3.19-6.88,5.86s-.52,5.86-.35,8.83c.2,3.16-.39,6.73,1.63,9.2s5.72,2.55,8.78,3.66,5.86,3.28,9.13,2.84,6.26-2.59,8.5-5.11a14.2,14.2,0,0,0,3.73-8.19c.29-2.69-1.84-4.86-2.05-7.48-.23-2.91,2.34-6.13.81-8.55s-5.06-2.32-7.79-3.16S125.47,88.9,122.71,89.26Z" fill="none" stroke="#fff" stroke-width="1.01"/><path d="M122.32,93.63c-2.13.3-3.85,1.66-5.61,2.83s-4.2,2.35-5.14,4.38-.39,4.37-.25,6.62-.29,5,1.26,6.93,4.31,1.94,6.55,2.74,4.37,2.43,6.87,2.17a11.09,11.09,0,0,0,6.37-3.86,10.79,10.79,0,0,0,2.78-6.15c.19-2-1.38-3.62-1.55-5.63s1.7-4.56.65-6.4-3.79-1.72-5.87-2.32-4-1.55-6.06-1.31Z" fill="none" stroke="#fff" stroke-width="1.01"/><path d="M3.22,108.35v-7.42l15-15.61c2.62-2.69,4.54-5.32,4.54-7.94A4.45,4.45,0,0,0,18,72.64c-3.13,0-5.37,2-6.59,4.87L2.77,72.45a16,16,0,0,1,15.1-9.79c8,0,15.17,5.25,15.17,14.27,0,5.38-2.88,10-7,14.08L18.64,98.5h15v9.86H3.22ZM39.77,93.83V84.61H73.05v9.22ZM95.11,79.3c8.32,0,15.36,5.12,15.36,15s-7.68,15-16.32,15c-7.1,0-13.25-3-16-9.6L87,94.53c1,2.94,2.94,4.74,7.16,4.74s6.08-2.24,6.08-5-1.85-5-5.76-5h-14l1.85-25.73h25.92v9.61H91.91l-.44,6.14ZM161,99.39h4.16v17.54h-9.34v-8.58H138v8.58H128.7V99.39h4c1.6-2.49,2.56-5.56,2.56-11.07v-12H161Zm-18.3,0h9V84.93h-7.11v3.39A28.19,28.19,0,0,1,142.72,99.39Zm47.71-23H200v32h-9.61V96.83H179.55v11.52H170v-32h9.6V87.87h10.88Zm25.23,19.84c1.21,3.33,4.16,4.48,7.68,4.48a8.34,8.34,0,0,0,6.14-2.43l7.68,4.42c-3.14,4.35-7.87,6.59-13.95,6.59-11,0-17.73-7.36-17.73-16.9s6.91-16.89,17-16.89c9.35,0,16.26,7.23,16.26,16.89a18.94,18.94,0,0,1-.38,3.84Zm-.2-7.16h13.76A6.58,6.58,0,0,0,222.44,84C218.79,84,216.36,85.76,215.46,89Zm34.19-16.45V64.26h19.2v8.32Zm17.59,3.77h7.05v32h-9.35v-16l-13.69,16h-7v-32h9.34v16l13.7-16Zm-255,75.31h1.34V155h-1v-2.41H3.11V155h-1v-3.31h1c.7-.79,1.3-2.07,1.3-4.52V140h7.77v11.7Zm-6.82-4.5a7.54,7.54,0,0,1-1.11,4.5h7v-10.8H5.39Zm9.17,5.4v-.85c1.66.2,2.72-.83,2.72-4.5V140h8v12.6h-1v-11.7H18.23v6.37c0,4.19-1.35,5.53-3.67,5.33Zm22.09,0V141.72L29.2,152.56h-.83V140h1v10.83L36.76,140h.85v12.6ZM48.47,140v.9h-4v11.7h-1v-11.7h-4V140Zm7.09,12.8a6.5,6.5,0,1,1,0-13,6.16,6.16,0,0,1,5.4,3l-.84.49a5.14,5.14,0,0,0-4.56-2.59,5.58,5.58,0,1,0,0,11.16,5.14,5.14,0,0,0,4.59-2.65l.85.49A6.17,6.17,0,0,1,55.56,152.76ZM71.22,140v12.6h-1v-5.17H66.81l-3.56,5.17H62.17l3.58-5.2a3.72,3.72,0,0,1,.49-7.4Zm-5,6.53h4v-5.63h-4a2.82,2.82,0,0,0,0,5.63ZM90.55,140v12.6h-1v-11.2l-4.66,7.74h-.16l-4.66-7.74v11.2h-1V140h1.19l4.5,7.45,4.5-7.45Zm8.9,12.8a6.48,6.48,0,0,1-6.5-6.43v-.07a6.47,6.47,0,0,1,6.43-6.5h.07a6.46,6.46,0,0,1,6.5,6.42v.08a6.46,6.46,0,0,1-6.42,6.5Zm0-.92a5.58,5.58,0,1,0-5.54-5.58A5.53,5.53,0,0,0,99.45,151.84ZM116.65,140h.95v12.6h-.95v-6h-7.33v6h-.95V140h.95v5.67h7.33Zm11.82,0v.9h-4v11.7h-1v-11.7h-4V140Zm9.56,12.6-1.22-3.21h-6.32l-1.23,3.21h-1l4.89-12.6h1l4.88,12.6Zm-7.18-4.11h5.61l-2.8-7.32ZM154,152.56h-1.13l-5.54-6.25v6.25h-1v-6.25l-5.54,6.25h-1.13l5.72-6.48L139.85,140H141l5.36,5.88V140h1v5.88l5.36-5.88h1.13l-5.54,6.12,5.72,6.48ZM12.21,172.66h1.34V176h-1v-2.41H3.11V176h-1v-3.31h1c.7-.79,1.3-2.07,1.3-4.52V161h7.77v11.7Zm-6.82-4.5a7.54,7.54,0,0,1-1.11,4.5h7v-10.8H5.39v6.3Zm16,5.6a6.47,6.47,0,0,1-6.5-6.43v-.07a6.46,6.46,0,0,1,6.42-6.5h.08a6.46,6.46,0,0,1,6.49,6.42v.08a6.46,6.46,0,0,1-6.42,6.5Zm0-.92a5.58,5.58,0,1,0-5.55-5.58A5.52,5.52,0,0,0,21.41,172.84ZM41.72,161v12.6h-1v-11.2L36.1,170.1h-.16l-4.66-7.74v11.2h-1V161h1.19l4.5,7.45,4.5-7.45Zm11.6,12.6-1.22-3.21H45.78l-1.23,3.21h-1L48.44,161h1l4.88,12.6Zm-7.18-4.11h5.61L49,162.13Z"/></svg>