<svg xmlns="http://www.w3.org/2000/svg" viewBox="0 0 210 210"><title>brun1-d</title><path d="M110.915,10.275c16.133,1.271,32.96,1.441,46.664,9.919,13.531,8.309,20.036,23.4,28.623,36.542,9.02,13.735,25.413,26.283,23.072,42.392-2.429,16.533-25.154,21.959-34.608,35.863-8.674,12.718-7.112,30.438-17.954,41.544a83.652,83.652,0,0,1-45.8,23.909c-18.735,3.052-39.551,2.544-55.6-7.461-15.785-9.919-20.3-29.928-29.577-45.868C16.372,131.176.414,117.356.5,99.128.587,80.814,15.939,66.656,26.347,51.479c9.8-14.413,17.434-31.454,33.221-39.17C75.18,4.764,93.568,8.918,110.915,10.275Z" fill="none" stroke="#fff" stroke-width="1.015"/><path d="M89.925,87.767A8.386,8.386,0,0,1,94,88.615c1.213.763,1.735,2.034,2.514,3.221s2.255,2.289,2,3.731c-.172,1.441-2.167,1.95-3.036,3.137-.78,1.1-.607,2.628-1.561,3.645a7.314,7.314,0,0,1-3.989,2.12,6.846,6.846,0,0,1-4.858-.678c-1.388-.848-1.735-2.629-2.6-3.985-.781-1.357-2.168-2.628-2.168-4.154,0-1.611,1.387-2.8,2.254-4.155.867-1.272,1.561-2.713,2.862-3.391C86.8,87.343,88.45,87.682,89.925,87.767Z" fill="none" stroke="#fff" stroke-width="1.015"/><path d="M154.63,23.416c-13.1-8.054-29.23-8.224-44.669-9.411-16.653-1.357-34.174-5.341-49.093,1.95C45.777,23.331,38.4,39.609,29.035,53.345,19.062,67.927,4.4,81.409,4.317,98.958,4.23,116.424,19.5,129.65,28.429,144.909s13.183,34.422,28.363,43.918c15.351,9.58,35.215,10,53.168,7.122a79.505,79.505,0,0,0,43.8-22.807c10.321-10.6,8.847-27.555,17.173-39.764,9.021-13.311,30.792-18.483,33.133-34.337,2.255-15.431-13.444-27.47-22.03-40.527C173.712,45.8,167.554,31.386,154.63,23.416Z" fill="#e7e4df"/><path d="M151.593,26.723c-12.49-7.716-27.929-7.885-42.674-9.072-15.873-1.272-32.613-5.087-46.837,1.865C47.6,26.553,40.659,42.153,31.725,55.209,22.271,69.114,8.22,82.086,8.133,98.789s14.572,29.335,22.985,43.833c8.5,14.582,12.577,32.811,27.062,41.883,14.657,9.156,33.566,9.58,50.739,6.783a75.5,75.5,0,0,0,41.807-21.79c9.888-10.089,8.5-26.283,16.393-37.9,8.673-12.718,29.4-17.72,31.573-32.811,2.168-14.753-12.838-26.2-21.077-38.747C169.809,48.088,163.91,34.268,151.593,26.723Z" fill="none" stroke="#fff" stroke-width="1.015"/><path d="M148.559,29.944c-11.883-7.376-26.542-7.461-40.593-8.563C92.874,20.109,76.828,16.548,63.3,23.162c-13.7,6.7-20.382,21.535-28.882,34C25.4,70.388,12.038,82.682,11.865,98.621c-.087,15.939,13.878,27.894,21.944,41.714,8.153,13.9,11.97,31.285,25.847,39.848,13.965,8.733,32.006,9.072,48.312,6.443a72.027,72.027,0,0,0,39.812-20.772c9.367-9.665,8.066-25.011,15.612-36.117,8.24-12.124,28.016-16.872,30.1-31.2,2.081-13.989-12.229-24.926-20.035-36.881C165.906,50.292,160.268,37.236,148.559,29.944Z" fill="none" stroke="#fff" stroke-width="1.015"/><path d="M145.522,33.251c-11.276-6.952-25.24-7.122-38.6-8.139-14.311-1.187-29.49-4.579-42.414,1.7-13.1,6.359-19.428,20.433-27.495,32.3-8.5,12.548-21.25,24.248-21.337,39.339S28.863,124.987,36.5,138.128c7.719,13.226,11.449,29.674,24.545,37.9,13.272,8.308,30.444,8.647,45.884,6.1a68.29,68.29,0,0,0,37.9-19.755c8.934-9.156,7.633-23.824,14.832-34.337,7.806-11.531,26.541-16.024,28.623-29.674,2-13.311-11.623-23.74-19.082-35.016C162,52.5,156.712,40.118,145.522,33.251Z" fill="none" stroke="#fff" stroke-width="1.015"/><path d="M142.486,36.473c-10.755-6.614-23.938-6.7-36.515-7.716-13.617-1.1-28.016-4.324-40.16,1.611C53.411,36.388,47.337,49.7,39.7,60.975,31.552,72.93,19.582,83.951,19.5,98.28s12.49,25.181,19.688,37.559c7.285,12.548,10.842,28.148,23.245,35.863,12.49,7.8,28.8,8.224,43.456,5.851A65.249,65.249,0,0,0,141.8,158.9c8.414-8.648,7.286-22.552,14.051-32.472,7.373-10.937,25.154-15.176,27.062-28.063,1.821-12.633-11.015-22.468-18.041-33.151C158.186,54.786,153.069,43,142.486,36.473Z" fill="none" stroke="#fff" stroke-width="1.015"/><path d="M139.451,39.779C129.3,33.509,116.9,33.42,104.93,32.488c-12.837-1.018-26.455-4.07-37.99,1.526-11.709,5.68-17.347,18.313-24.546,28.911C34.761,74.2,23.4,84.63,23.312,98.109s11.8,23.74,18.647,35.525C48.9,145.42,52.2,160.172,63.9,167.548c11.8,7.376,27.235,7.715,41.026,5.511a61.791,61.791,0,0,0,33.913-17.635c7.98-8.224,6.853-21.281,13.271-30.692,7.029-10.343,23.77-14.323,25.589-26.537,1.734-11.87-10.408-21.2-17.087-31.37C154.283,56.99,149.425,45.884,139.451,39.779Z" fill="none" stroke="#fff" stroke-width="1.015"/><path d="M136.414,43c-9.541-5.85-21.25-6.02-32.526-6.868C91.833,35.2,79,32.318,68.153,37.575,57.139,42.916,51.847,54.786,45,64.79c-7.2,10.6-17.868,20.433-17.955,33.151s11.1,22.383,17.521,33.4c6.5,11.107,9.628,25.012,20.642,31.879,11.1,6.952,25.587,7.291,38.684,5.172a58.33,58.33,0,0,0,31.919-16.618c7.547-7.715,6.42-20.009,12.491-28.911,6.591-9.665,22.378-13.48,24.113-25.011,1.648-11.192-9.8-19.924-16.046-29.505C150.38,59.279,145.869,48.766,136.414,43Z" fill="none" stroke="#fff" stroke-width="1.015"/><path d="M133.38,46.309c-8.934-5.511-19.949-5.6-30.445-6.444-11.362-.933-23.331-3.646-33.48,1.357-10.321,5-15.352,16.108-21.684,25.519-6.765,9.835-16.826,19.077-16.913,31.031,0,11.87,10.408,20.942,16.48,31.285,6.071,10.429,9.02,23.485,19.342,29.929,10.408,6.528,24.026,6.867,36.255,4.833a54.6,54.6,0,0,0,29.924-15.6c7.026-7.206,6.072-18.821,11.71-27.13,6.158-9.072,20.99-12.633,22.551-23.4,1.561-10.513-9.194-18.737-15-27.639C146.477,61.484,142.227,51.734,133.38,46.309Z" fill="none" stroke="#fff" stroke-width="1.015"/><path d="M130.343,49.529c-8.327-5.172-18.562-5.256-28.45-6.019-10.581-.848-21.77-3.392-31.225,1.271-9.626,4.663-14.31,15.007-20.209,23.828-6.332,9.241-15.7,17.889-15.7,29-.087,11.106,9.714,19.585,15.352,29.25,5.725,9.75,8.414,21.874,18.042,27.894,9.713,6.1,22.377,6.358,33.826,4.493a51.006,51.006,0,0,0,27.929-14.5c6.592-6.782,5.638-17.55,10.929-25.265,5.724-8.479,19.6-11.785,21.077-21.874,1.474-9.835-8.587-17.466-14.052-25.859C142.572,63.773,138.583,54.616,130.343,49.529Z" fill="none" stroke="#fff" stroke-width="1.015"/><path d="M127.307,52.751c-7.719-4.748-17.26-4.833-26.367-5.6-9.8-.763-20.21-3.137-29.057,1.187-8.934,4.324-13.271,13.99-18.735,22.129-5.9,8.648-14.572,16.617-14.658,26.961s9.02,18.144,14.224,27.131c5.291,9.072,7.807,20.348,16.74,25.944,9.021,5.68,20.817,5.934,31.4,4.239a47.265,47.265,0,0,0,25.934-13.481c6.072-6.274,5.2-16.278,10.148-23.485,5.379-7.885,18.215-10.937,19.6-20.263,1.3-9.072-7.98-16.194-13.01-23.994C138.671,65.977,134.94,57.5,127.307,52.751Z" fill="none" stroke="#fff" stroke-width="1.015"/><path d="M124.272,56.058c-7.112-4.409-15.959-4.494-24.372-5.172-9.022-.763-18.65-2.883-26.8,1.1-8.24,3.985-12.23,12.887-17.347,20.433-5.378,7.97-13.444,15.346-13.531,24.842-.087,9.58,8.327,16.787,13.184,25.1s7.2,18.738,15.526,23.909c8.327,5.257,19.169,5.427,28.97,3.9a42.994,42.994,0,0,0,23.939-12.464c5.638-5.765,4.856-15.006,9.367-21.7,4.944-7.292,16.827-10.09,18.041-18.737,1.215-8.394-7.372-15.007-12.056-22.129C134.766,68.267,131.384,60.382,124.272,56.058Z" fill="none" stroke="#fff" stroke-width="1.015"/><path d="M121.236,59.279c-6.592-4.069-14.571-4.154-22.377-4.748-8.328-.678-17.087-2.628-24.546,1.018C66.766,59.2,63.036,67.419,58.439,74.286,53.5,81.577,46.122,88.36,46.04,97.093s7.632,15.346,12.056,22.976c4.51,7.631,6.592,17.211,14.224,21.959s17.608,5,26.541,3.561A39.529,39.529,0,0,0,120.8,134.143c5.2-5.256,4.423-13.735,8.587-19.839,4.51-6.7,15.352-9.242,16.566-17.211,1.128-7.716-6.678-13.735-11.015-20.348C130.863,70.471,127.741,63.264,121.236,59.279Z" fill="none" stroke="#fff" stroke-width="1.015"/><path d="M118.288,62.586c-5.985-3.646-13.272-3.731-20.3-4.324-7.546-.593-15.525-2.374-22.291.933C68.845,62.5,65.462,69.962,61.212,76.236c-4.6,6.528-11.275,12.718-11.275,20.687-.087,7.97,6.939,13.99,10.928,20.857,4.077,6.952,5.985,15.6,12.924,19.924s16.045,4.579,24.2,3.222a36.49,36.49,0,0,0,19.95-10.344c4.683-4.832,3.99-12.548,7.806-18.058,4.077-6.1,13.964-8.394,15.092-15.6,1.041-7.037-6.158-12.463-10.061-18.483C126.96,72.76,124.1,66.232,118.288,62.586Z" fill="none" stroke="#fff" stroke-width="1.015"/><path d="M115.251,65.809c-5.377-3.307-11.97-3.392-18.3-3.9-6.766-.509-13.965-2.2-20.123.847S67.634,72.422,63.817,78.1c-4.076,5.935-10.061,11.531-10.148,18.653s6.245,12.548,9.888,18.822,5.378,14.074,11.623,17.974,14.4,4.069,21.771,2.882a33.037,33.037,0,0,0,17.954-9.326c4.25-4.324,3.643-11.276,7.026-16.278,3.73-5.426,12.576-7.546,13.531-14.074.954-6.274-5.551-11.192-9.02-16.618C123.057,74.964,120.456,69.114,115.251,65.809Z" fill="none" stroke="#fff" stroke-width="1.015"/><path d="M112.216,69.114c-4.771-2.967-10.669-2.967-16.22-3.476-6.071-.509-12.4-1.95-17.868.678-5.551,2.713-8.239,8.648-11.623,13.651-3.643,5.341-8.934,10.258-9.02,16.617,0,6.359,5.551,11.192,8.76,16.7,3.209,5.595,4.77,12.547,10.321,15.939,5.552,3.476,12.837,3.646,19.343,2.543a29.292,29.292,0,0,0,15.959-8.308c3.73-3.816,3.209-10,6.245-14.5,3.3-4.833,11.189-6.7,12.056-12.464.868-5.595-4.857-10-8.066-14.752C119.154,77.253,116.9,72,112.216,69.114Z" fill="none" stroke="#fff" stroke-width="1.015"/><path d="M109.181,72.336c-4.165-2.543-9.281-2.628-14.225-3.052-5.291-.424-10.843-1.7-15.613.593-4.77,2.374-7.112,7.546-10.148,11.955-3.123,4.663-7.806,8.987-7.894,14.5,0,5.6,4.858,9.75,7.633,14.667,2.862,4.833,4.164,10.938,9.021,13.99s11.189,3.221,16.913,2.289a25.294,25.294,0,0,0,13.965-7.292c3.3-3.391,2.862-8.732,5.464-12.632,2.862-4.239,9.8-5.935,10.5-10.937.694-4.918-4.25-8.733-7.026-12.888C115.251,79.458,113.257,74.88,109.181,72.336Z" fill="none" stroke="#fff" stroke-width="1.015"/><path d="M106.144,75.643c-3.557-2.2-7.98-2.29-12.23-2.544-4.51-.339-9.368-1.441-13.444.509-4.163,2.035-6.158,6.443-8.674,10.174-2.689,3.985-6.678,7.63-6.765,12.463,0,4.748,4.164,8.394,6.593,12.548s3.642,9.411,7.719,11.954c4.164,2.629,9.628,2.714,14.485,1.951a21.856,21.856,0,0,0,11.97-6.274c2.775-2.883,2.428-7.546,4.683-10.853,2.429-3.646,8.414-5.087,9.02-9.411.608-4.239-3.642-7.461-5.985-11.106C111.348,81.747,109.613,77.762,106.144,75.643Z" fill="none" stroke="#fff" stroke-width="1.015"/><path d="M103.109,78.864C100.16,77,96.43,77,92.96,76.745c-3.817-.339-7.806-1.187-11.189.424-3.47,1.7-5.118,5.426-7.2,8.478-2.254,3.307-5.638,6.359-5.638,10.344s3.467,6.952,5.467,10.428,3.036,7.8,6.419,10c3.469,2.2,7.979,2.289,12.056,1.61a17.69,17.69,0,0,0,9.974-5.171c2.342-2.374,2-6.274,3.9-9.072,2.081-3.052,7.025-4.239,7.545-7.8.52-3.476-3.036-6.274-5.031-9.242C107.445,83.951,106.057,80.73,103.109,78.864Z" fill="none" stroke="#fff" stroke-width="1.015"/><path d="M100.072,82.171c-2.429-1.441-5.291-1.526-8.153-1.7-3.036-.254-6.245-.932-8.933.339-2.777,1.357-4.078,4.324-5.811,6.783-1.822,2.628-4.511,5.087-4.511,8.309s2.776,5.6,4.423,8.394,2.429,6.274,5.2,7.969c2.776,1.781,6.419,1.865,9.715,1.272a14.231,14.231,0,0,0,7.979-4.154c1.908-1.95,1.648-5,3.123-7.207,1.648-2.459,5.637-3.391,5.984-6.274.434-2.8-2.428-5-3.989-7.376C103.542,86.241,102.415,83.609,100.072,82.171Z" fill="none" stroke="#fff" stroke-width="1.015"/><path d="M97.037,85.393c-1.821-1.1-3.99-1.1-6.071-1.272-2.255-.17-4.684-.763-6.679.254-2.082,1.018-3.037,3.222-4.337,5.087-1.387,1.95-3.382,3.816-3.382,6.274,0,2.374,2.081,4.239,3.3,6.274,1.214,2.12,1.821,4.663,3.9,6.02a10.664,10.664,0,0,0,7.285.933,10.784,10.784,0,0,0,5.985-3.137c1.388-1.442,1.215-3.731,2.342-5.427,1.214-1.78,4.163-2.543,4.51-4.663s-1.821-3.73-3.035-5.511S98.772,86.5,97.037,85.393Z" fill="none" stroke="#fff" stroke-width="1.015"/></svg>