<svg xmlns="http://www.w3.org/2000/svg" viewBox="0 0 280 210"><style> :root {--at: 6s;}.x,.y {fill: none;}.an {fill: none;stroke: #fff;stroke-width: 1;animation: chc var(--at) linear infinite;}.r {animation-delay: calc(var(--at) / 19);}.q {animation-delay: calc(var(--at) / 19 * 2);}.p {animation-delay: calc(var(--at) / 19 * 3);}.o {animation-delay: calc(var(--at) / 19 * 4);}.n {animation-delay: calc(var(--at) / 19 * 5);}.m {animation-delay: calc(var(--at) / 19 * 6);}.l {animation-delay: calc(var(--at) / 19 * 7);}.k {animation-delay: calc(var(--at) / 19 * 8);}.j {animation-delay: calc(var(--at) / 19 * 9);}.i {animation-delay: calc(var(--at) / 19 * 10);}.h {animation-delay: calc(var(--at) / 19 * 11);}.g {animation-delay: calc(var(--at) / 19 * 12);}.f {animation-delay: calc(var(--at) / 19 * 13);}.e {animation-delay: calc(var(--at) / 19 * 14);}.d {animation-delay: calc(var(--at) / 19 * 15);}.c {animation-delay: calc(var(--at) / 19 * 16);}.b {animation-delay: calc(var(--at) / 19 * 17);}.a {animation-delay: calc(var(--at) / 19 * 18);}@keyframes chc{0%{stroke:#fff}10%{stroke:#e7e4df}15%{stroke:#fff}}</style><path class="x" d="M0,.48H280v210H0Z"/><path class="y" d="M144.41,9.85c16.14,1.27,33,1.44,46.67,9.92,13.53,8.31,20,23.4,28.62,36.54,9,13.74,25.41,26.28,23.07,42.39-2.42,16.53-25.15,22-34.6,35.87-8.68,12.71-7.12,30.43-18,41.54A83.65,83.65,0,0,1,144.42,200c-18.74,3-39.56,2.54-55.6-7.46-15.79-9.92-20.3-29.93-29.58-45.87S33.91,116.93,34,98.7,49.44,66.23,59.85,51.05c9.8-14.41,17.43-31.45,33.22-39.17,15.61-7.54,34-3.39,51.35-2Z" stroke="#fff" stroke-width="1.01"/><path d="M188.13,23c-13.1-8-29.23-8.22-44.67-9.41-16.65-1.36-34.17-5.34-49.09,1.95C79.28,22.91,71.9,39.18,62.54,52.92,52.56,67.5,37.9,81,37.82,98.53s15.18,30.69,24.11,46,13.18,34.42,28.36,43.91c15.35,9.58,35.22,10,53.17,7.12a79.45,79.45,0,0,0,43.8-22.8c10.32-10.6,8.85-27.56,17.18-39.77,9-13.31,30.79-18.48,33.13-34.33,2.25-15.43-13.45-27.47-22-40.53C207.21,45.37,201.05,31,188.13,23Z" fill="#e7e4df"/><path class="an a" d="M185.09,26.3c-12.49-7.72-27.93-7.89-42.67-9.08-15.87-1.27-32.61-5.08-46.84,1.87-14.48,7-21.42,22.64-30.36,35.69-9.45,13.91-23.5,26.88-23.59,43.58s14.57,29.34,23,43.84S77.19,175,91.68,184.08c14.66,9.16,33.57,9.58,50.74,6.78a75.52,75.52,0,0,0,41.81-21.79c9.88-10.09,8.5-26.28,16.39-37.9,8.67-12.71,29.4-17.72,31.57-32.81,2.17-14.75-12.84-26.2-21.07-38.74-7.81-12-13.71-25.78-26-33.32Z"/><path class="an b" d="M182.06,29.52c-11.88-7.38-26.54-7.46-40.59-8.56-15.1-1.28-31.14-4.84-44.67,1.78-13.71,6.69-20.39,21.53-28.89,34C58.89,70,45.54,82.25,45.36,98.19s13.88,27.9,22,41.72,12,31.28,25.84,39.85c14,8.73,32,9.07,48.32,6.44a72.08,72.08,0,0,0,39.81-20.77c9.37-9.67,8.06-25,15.61-36.12,8.24-12.13,28-16.87,30.1-31.2,2.08-14-12.23-24.93-20-36.88-7.54-11.36-13.18-24.42-24.89-31.71Z"/><path class="an c" d="M179,32.83c-11.27-7-25.24-7.13-38.6-8.14C126.11,23.5,110.93,20.11,98,26.38c-13.1,6.36-19.43,20.43-27.49,32.3C62,71.23,49.27,82.93,49.18,98S62.36,124.56,70,137.7s11.44,29.68,24.54,37.9c13.27,8.31,30.45,8.65,45.88,6.11A68.33,68.33,0,0,0,178.33,162c8.93-9.16,7.63-23.82,14.83-34.34,7.81-11.53,26.54-16,28.62-29.67,2-13.31-11.62-23.74-19.08-35C195.5,52.07,190.21,39.69,179,32.83Z"/><path class="an d" d="M176,36.05c-10.76-6.62-23.94-6.7-36.52-7.72-13.62-1.1-28-4.32-40.16,1.61-12.4,6-18.47,19.33-26.1,30.61-8.16,12-20.13,23-20.21,37.3S65.49,123,72.69,135.41C80,148,83.53,163.56,95.93,171.28s28.8,8.22,43.46,5.85a65.3,65.3,0,0,0,35.9-18.66c8.42-8.64,7.29-22.55,14.05-32.47,7.38-10.93,25.16-15.17,27.07-28.06,1.82-12.63-11-22.47-18-33.15C191.69,54.36,186.57,42.58,176,36.05Z"/><path class="an e" d="M173,39.35C162.8,33.08,150.4,33,138.43,32.06c-12.84-1-26.45-4.07-38,1.53C88.73,39.27,83.09,51.9,75.89,62.5c-7.63,11.28-19,21.7-19.08,35.18s11.8,23.74,18.65,35.53,10.23,26.54,21.94,33.91,27.24,7.72,41,5.51A61.78,61.78,0,0,0,172.34,155c8-8.23,6.86-21.28,13.27-30.69,7-10.35,23.77-14.33,25.59-26.54,1.74-11.87-10.41-21.2-17.09-31.37-6.33-9.84-11.18-20.94-21.16-27.05Z"/><path class="an f" d="M169.91,42.58c-9.54-5.85-21.25-6-32.52-6.87-12.06-.93-24.89-3.82-35.74,1.44-11,5.34-16.3,17.21-23.15,27.21C71.3,75,60.63,84.8,60.54,97.51s11.1,22.39,17.52,33.41,9.63,25,20.64,31.88,25.59,7.29,38.69,5.17a58.32,58.32,0,0,0,31.92-16.62c7.54-7.71,6.42-20,12.49-28.91,6.59-9.66,22.38-13.48,24.11-25,1.65-11.19-9.8-19.92-16-29.5C183.88,58.85,179.37,48.34,169.91,42.58Z"/><path class="an g" d="M166.88,45.88c-8.93-5.51-19.95-5.59-30.45-6.44-11.36-.93-23.33-3.65-33.47,1.35C92.63,45.8,87.6,56.9,81.27,66.31c-6.76,9.84-16.82,19.08-16.91,31s10.41,20.94,16.48,31.28,9,23.49,19.34,29.93,24,6.87,36.25,4.83a54.55,54.55,0,0,0,29.93-15.6c7-7.2,6.07-18.82,11.71-27.13,6.16-9.07,21-12.63,22.55-23.4,1.56-10.51-9.19-18.74-15-27.64-5.63-8.56-9.88-18.31-18.73-23.74Z"/><path class="an h" d="M163.84,49.1c-8.32-5.17-18.56-5.25-28.45-6-10.58-.84-21.77-3.39-31.22,1.28C94.54,49,89.86,59.36,84,68.18c-6.33,9.24-15.7,17.89-15.7,29S78,116.76,83.61,126.43s8.42,21.87,18,27.89,22.38,6.36,33.83,4.49a51,51,0,0,0,27.93-14.49c6.59-6.79,5.64-17.55,10.93-25.27,5.72-8.48,19.6-11.78,21.08-21.87,1.47-9.84-8.59-17.47-14.06-25.86C176.07,63.35,172.08,54.19,163.84,49.1Z"/><path class="an i" d="M160.81,52.33c-7.72-4.75-17.26-4.84-26.37-5.6-9.8-.76-20.21-3.14-29.06,1.19s-13.27,14-18.73,22.13C80.75,78.69,72.08,86.66,72,97s9,18.14,14.23,27.13S94,144.49,103,150.08s20.81,5.94,31.39,4.24a47.26,47.26,0,0,0,25.94-13.48c6.07-6.27,5.2-16.28,10.15-23.49,5.37-7.88,18.21-10.93,19.6-20.26,1.3-9.07-8-16.19-13-24-4.86-7.55-8.59-16-16.22-20.77Z"/><path class="an g" d="M157.77,55.63c-7.11-4.41-16-4.49-24.37-5.17-9-.76-18.65-2.88-26.8,1.1S94.37,64.45,89.25,72c-5.38,8-13.44,15.34-13.53,24.84s8.33,16.78,13.18,25.09,7.2,18.74,15.53,23.91,19.17,5.43,29,3.9a43,43,0,0,0,23.94-12.46c5.64-5.77,4.86-15,9.37-21.71,4.94-7.29,16.82-10.09,18-18.73,1.21-8.4-7.37-15-12.06-22.13-4.42-6.87-7.81-14.75-14.92-19.08Z"/><path class="an k" d="M154.74,58.85c-6.59-4.07-14.58-4.15-22.38-4.74-8.33-.68-17.09-2.63-24.55,1S96.54,67,91.94,73.86C87,81.15,79.62,87.93,79.54,96.67s7.63,15.34,12,23,6.59,17.21,14.23,22,17.6,5,26.54,3.56a39.49,39.49,0,0,0,21.94-11.44c5.21-5.26,4.43-13.74,8.59-19.84,4.51-6.7,15.35-9.24,16.57-17.21,1.12-7.72-6.68-13.74-11-20.35C164.36,70.05,161.24,62.84,154.74,58.85Z"/><path class="an l" d="M151.79,62.16c-6-3.65-13.27-3.73-20.3-4.32-7.55-.6-15.52-2.38-22.29.93S99,69.54,94.71,75.81C90.12,82.34,83.44,88.53,83.44,96.5s6.94,14,10.93,20.85,6,15.6,12.92,19.93,16,4.58,24.2,3.22a36.51,36.51,0,0,0,19.95-10.34c4.68-4.84,4-12.55,7.81-18.06,4.07-6.11,14-8.4,15.09-15.6,1-7-6.16-12.47-10.06-18.49-3.82-5.68-6.68-12.2-12.49-15.85Z"/><path class="an m" d="M148.75,65.38c-5.38-3.3-12-3.39-18.3-3.9-6.76-.51-14-2.2-20.12.85s-9.2,9.67-13,15.35c-4.08,5.93-10.06,11.53-10.15,18.65s6.24,12.55,9.89,18.82,5.37,14.07,11.62,18,14.4,4.07,21.77,2.89a33.09,33.09,0,0,0,18-9.33c4.25-4.32,3.65-11.28,7-16.28C159.16,105,168,102.86,169,96.33c.95-6.28-5.55-11.19-9-16.62C156.56,74.54,154,68.69,148.75,65.38Z"/><path class="an n" d="M145.72,68.69c-4.77-3-10.67-3-16.22-3.48-6.07-.51-12.41-1.95-17.87.68S103.39,74.54,100,79.54c-3.65,5.34-8.94,10.26-9,16.62s5.55,11.19,8.76,16.7,4.77,12.55,10.32,15.94,12.83,3.65,19.34,2.54a29.23,29.23,0,0,0,16-8.31c3.73-3.81,3.21-10,6.24-14.49,3.3-4.84,11.19-6.7,12.06-12.47.87-5.59-4.86-10-8.07-14.75-2.95-4.49-5.2-9.75-9.88-12.63Z"/><path class="an o" d="M142.68,71.91c-4.16-2.54-9.28-2.63-14.22-3-5.3-.43-10.85-1.7-15.62.59s-7.11,7.55-10.15,12c-3.12,4.66-7.8,9-7.89,14.49s4.86,9.75,7.63,14.67,4.17,10.94,9,14,11.18,3.22,16.91,2.29a25.34,25.34,0,0,0,14-7.29c3.3-3.39,2.87-8.73,5.47-12.63,2.86-4.24,9.8-5.94,10.49-10.94s-4.25-8.73-7-12.89c-2.52-4.07-4.51-8.65-8.59-11.19Z"/><path class="an p" d="M139.65,75.22c-3.56-2.21-8-2.29-12.23-2.55-4.51-.34-9.37-1.44-13.45.51s-6.16,6.45-8.67,10.18c-2.69,4-6.68,7.63-6.77,12.46s4.17,8.39,6.59,12.55,3.65,9.41,7.72,11.95,9.63,2.71,14.49,2a21.87,21.87,0,0,0,12-6.27c2.77-2.88,2.43-7.55,4.68-10.85,2.43-3.65,8.42-5.09,9-9.41s-3.64-7.47-6-11.11c-2.17-3.31-3.91-7.29-7.37-9.41Z"/><path class="an q" d="M136.61,78.44c-3-1.87-6.68-1.87-10.15-2.12-3.82-.34-7.81-1.19-11.19.42s-5.12,5.43-7.2,8.48c-2.25,3.31-5.64,6.36-5.64,10.35s3.47,7,5.47,10.42,3,7.8,6.42,10,8,2.29,12.05,1.61a17.69,17.69,0,0,0,10-5.17c2.34-2.38,2-6.28,3.9-9.07,2.08-3.06,7-4.24,7.55-7.8s-3-6.28-5-9.25c-1.82-2.79-3.21-6-6.16-7.88Z"/><path class="an r" d="M133.57,81.75c-2.43-1.45-5.29-1.53-8.15-1.7-3-.25-6.25-.93-8.93.34s-4.08,4.32-5.81,6.78c-1.83,2.63-4.52,5.09-4.52,8.31s2.78,5.6,4.43,8.39,2.43,6.28,5.2,8,6.42,1.87,9.72,1.28a14.26,14.26,0,0,0,8-4.16c1.9-1.95,1.64-5,3.12-7.21,1.65-2.45,5.64-3.39,6-6.27s-2.43-5-4-7.38-2.69-4.91-5-6.35Z"/><path class="an s" d="M130.54,85c-1.82-1.1-4-1.1-6.07-1.27-2.26-.17-4.69-.77-6.68.25s-3,3.22-4.34,5.09-3.38,3.81-3.38,6.27,2.08,4.24,3.29,6.27,1.83,4.67,3.91,6,4.77,1.36,7.28.94a10.79,10.79,0,0,0,6-3.14c1.39-1.44,1.21-3.73,2.34-5.43s4.16-2.54,4.51-4.66-1.82-3.73-3-5.51-2.08-3.73-3.81-4.83Z"/><path d="M91.56,74.27a16.14,16.14,0,0,1-2.62,9.08l-13.7,20.8H63.46L73.19,90a16.08,16.08,0,0,1-10.81-4.86,15.13,15.13,0,0,1-4.1-10.88,15.11,15.11,0,0,1,4.61-11.4,17,17,0,0,1,12-4.41q7.42,0,12,4.41A15.11,15.11,0,0,1,91.56,74.27ZM70.38,69.79a5.71,5.71,0,0,0-1.86,4.48,5.91,5.91,0,0,0,1.86,4.54,7,7,0,0,0,9.08,0,6.48,6.48,0,0,0,0-9.09,6.54,6.54,0,0,0-4.54-1.66A6.37,6.37,0,0,0,70.38,69.79Zm43.68,2.36h26.11v32h-9.6V81.37h-6.91v9.54q0,7.29-3.65,10.68t-10.56,2.56v-9c1.5.43,2.63.22,3.39-.64s1.22-2.28,1.22-4.28ZM178.5,92H155.78q1.6,4.49,7.68,4.48A8,8,0,0,0,169.61,94l7.68,4.42q-4.68,6.58-13.95,6.59-8,0-12.93-4.8a16.4,16.4,0,0,1-4.8-12.1,16.4,16.4,0,0,1,17-16.89,15.32,15.32,0,0,1,11.59,4.86,16.44,16.44,0,0,1,4.67,12A18,18,0,0,1,178.5,92Zm-22.91-7.16h13.76q-1.41-5.06-6.78-5.06Q157,79.77,155.59,84.83ZM180.2,72.15H209v9.22h-9.53v22.78h-9.6V81.37H180.2V72.15ZM58.57,139.55h9v12.6h-1v-11.7H59.52v11.7h-1Zm12.11,0H75a3.9,3.9,0,1,1,0,7.8H71.63v4.8h-.95v-12.6Zm.95,6.9H75a2.89,2.89,0,0,0,3-3,2.89,2.89,0,0,0-3-3H71.63v6Zm19.91,4a6.54,6.54,0,1,1,1.89-4.61A6.28,6.28,0,0,1,91.54,150.46ZM83,149.81a5.36,5.36,0,0,0,3.94,1.62,5.29,5.29,0,0,0,3.93-1.62,5.45,5.45,0,0,0,1.62-4,5.37,5.37,0,0,0-1.62-3.94,5.27,5.27,0,0,0-3.93-1.64A5.34,5.34,0,0,0,83,141.91a5.68,5.68,0,0,0,0,7.9Zm22.09,2.34h-1V141.32l-7.45,10.83h-.83v-12.6h1v10.84l7.44-10.84h.84Zm8.53-6.51a3.44,3.44,0,0,1,1.71,1.22,3.12,3.12,0,0,1,.63,1.95,3.22,3.22,0,0,1-1.17,2.55,4.58,4.58,0,0,1-3.08,1q-3.36,0-4.34-2.77l.83-.45c.43,1.55,1.6,2.32,3.51,2.32a3.65,3.65,0,0,0,2.39-.72,2.38,2.38,0,0,0,.89-1.92,2.44,2.44,0,0,0-.81-1.89,3,3,0,0,0-2.15-.74H110.6v-.9h1a3.1,3.1,0,0,0,2.11-.7,2.28,2.28,0,0,0,.81-1.8,2.25,2.25,0,0,0-.81-1.8,3,3,0,0,0-2.09-.72,3.15,3.15,0,0,0-3.24,2.07l-.79-.45a4,4,0,0,1,4-2.52,3.87,3.87,0,0,1,2.77,1,3.11,3.11,0,0,1,1.08,2.43,3,3,0,0,1-1.87,2.86Zm11.33,0a3.27,3.27,0,0,1,1.57,1.21,3.19,3.19,0,0,1,.59,1.89,3.35,3.35,0,0,1-1,2.43,3.29,3.29,0,0,1-2.43,1h-5.43v-12.6h5a3.33,3.33,0,0,1,3.31,3.32,3.13,3.13,0,0,1-.43,1.63,3,3,0,0,1-1.19,1.12Zm-1.69-5.17h-4.07v4.83h4.07a2.23,2.23,0,0,0,1.65-.7,2.43,2.43,0,0,0,.71-1.71,2.33,2.33,0,0,0-.71-1.7A2.2,2.2,0,0,0,123.25,140.45Zm-4.07,10.8h4.48a2.4,2.4,0,0,0,1.75-.73,2.55,2.55,0,0,0,.74-1.8,2.46,2.46,0,0,0-.74-1.79,2.35,2.35,0,0,0-1.75-.75h-4.48Zm20.65-.79a6.54,6.54,0,1,1,1.89-4.61A6.28,6.28,0,0,1,139.83,150.46Zm-8.55-.65a5.36,5.36,0,0,0,3.94,1.62,5.25,5.25,0,0,0,3.92-1.62,5.45,5.45,0,0,0,1.62-4,5.37,5.37,0,0,0-1.62-3.94,5.23,5.23,0,0,0-3.92-1.64,5.34,5.34,0,0,0-3.94,1.64,5.68,5.68,0,0,0,0,7.9Zm21.15-10.26v11.7h1.33v3.32h-1v-2.42h-9.47v2.42h-1v-3.32h1a6.65,6.65,0,0,0,1.29-4.51v-7.19Zm-6.82.9v6.3a7.71,7.71,0,0,1-1.12,4.5h7v-10.8Zm19.64,11.7h-.95V141.32l-7.45,10.83H156v-12.6H157v10.84l7.44-10.84h.84Zm13.32-12.6h1.2v12.6h-1V141l-4.67,7.74H174L169.33,141v11.19h-1v-12.6h1.19l4.5,7.46Zm-111.17,22v11.7h1.34v3.32h-1v-2.42H58.3v2.42h-1v-3.32h1a6.6,6.6,0,0,0,1.3-4.51v-7.19Zm-6.82.9v6.3a7.79,7.79,0,0,1-1.11,4.5h7v-10.8Zm20.62,10a6.54,6.54,0,1,1,1.89-4.61A6.26,6.26,0,0,1,81.2,172.46Zm-8.55-.65a5.38,5.38,0,0,0,3.95,1.62,5.27,5.27,0,0,0,3.92-1.62,5.45,5.45,0,0,0,1.62-4,5.37,5.37,0,0,0-1.62-3.94,5.25,5.25,0,0,0-3.92-1.64,5.36,5.36,0,0,0-3.95,1.64,5.68,5.68,0,0,0,0,7.9Zm23-10.26h1.21v12.6H96V163l-4.66,7.74h-.16L86.47,163v11.19h-1v-12.6H86.7L91.2,169Zm13.82,12.6h-1l-1.22-3.2H101l-1.22,3.2h-1l4.89-12.6h1Zm-5.38-11.43-2.81,7.33H107Z"/></svg>