<svg xmlns="http://www.w3.org/2000/svg" viewBox="0 0 210 210"><title>brun2-d</title><path d="M201.929,100.925c1.07,16.016,3.339,32.59-3.133,47.037-6.328,14.257-20.442,22.373-32.308,32.315-12.4,10.436-22.537,27.991-38.949,27.518-16.846-.509-25.553-22.25-40.8-29.97-13.945-7.088-31.4-3.537-44.049-12.941A86.253,86.253,0,0,1,12.2,122.545C6.443,104.46,3.933,83.923,11.589,67,19.2,50.34,38.506,43.625,53.068,32.685,67.612,21.656,79.087,4.385,97.285,2.4c18.283-2,34.634,11.5,51.284,20.011,15.8,8,33.908,13.576,43.893,28.23C202.248,65.14,200.768,83.7,201.929,100.925Z" fill="none" stroke="#fff" stroke-width="1.015"/><path d="M121.968,89.171a8.116,8.116,0,0,1-.254,4.108c-.585,1.281-1.778,1.938-2.849,2.841s-1.957,2.479-3.433,2.387c-1.463-.007-2.26-1.912-3.57-2.63-1.213-.643-2.71-.3-3.864-1.122a7.563,7.563,0,0,1-2.693-3.684,6.662,6.662,0,0,1-.027-4.856c.645-1.462,2.371-2.006,3.6-3.014,1.24-.922,2.308-2.432,3.83-2.6,1.607-.184,2.993,1.047,4.472,1.746,1.4.709,2.933,1.228,3.8,2.43C121.938,86.051,121.838,87.711,121.968,89.171Z" fill="none" stroke="#fff" stroke-width="1.015"/><path d="M195.169,145.43c6.136-13.8,3.968-29.692,2.914-45.017-1.06-16.538.377-34.228-9.061-48.077-9.542-14.011-26.853-19.411-41.911-27.066-15.994-8.156-31.569-21.045-49.09-19.134C80.583,8.036,69.6,24.559,55.668,35.083s-32.43,16.885-39.7,32.9c-7.333,16.193-4.877,35.783.6,53.119a81.963,81.963,0,0,0,29.1,40.5c12.07,8.95,28.773,5.572,42.16,12.375,14.588,7.362,22.9,28.192,39.06,28.694,15.721.464,25.457-16.35,37.239-26.283C175.607,166.748,189.094,159.051,195.169,145.43Z" fill="#e7e4df"/><path d="M191.454,142.825c5.887-13.165,3.818-28.374,2.866-43.015-1.032-15.761.349-32.665-8.649-45.869-9.12-13.45-25.691-18.5-40.011-25.809-15.243-7.72-30.222-20.069-46.9-18.256s-27.155,17.672-40.4,27.6C45.043,47.5,27.447,53.576,20.5,68.862c-7.011,15.463-4.693,34.114.587,50.692a77.838,77.838,0,0,0,27.8,38.653c11.5,8.577,27.455,5.371,40.185,11.818,13.945,7.087,21.941,26.913,37.312,27.331,15.033.456,24.277-15.609,35.6-25.142C172.779,163.173,185.712,155.8,191.454,142.825Z" fill="none" stroke="#fff" stroke-width="1.015"/><path d="M187.817,140.206c5.637-12.529,3.6-26.96,2.66-40.909-.919-14.992.308-31.184-8.25-43.744-8.669-12.721-24.439-17.6-38.1-24.55-14.5-7.371-28.7-19.114-44.63-17.473-15.92,1.727-25.823,16.825-38.441,26.332C48.368,49.464,31.579,55.2,25.048,69.825c-6.689,14.731-4.412,32.519.573,48.262a74.281,74.281,0,0,0,26.494,36.806c11,8.117,26.121,5.093,38.3,11.254,13.29,6.728,20.893,25.644,35.491,26.063,14.257.457,23.1-14.866,33.89-23.9C170.031,159.586,182.24,152.555,187.817,140.206Z" fill="none" stroke="#fff" stroke-width="1.015"/><path d="M184.1,137.6c5.3-11.883,3.447-25.641,2.526-38.9-.89-14.215.293-29.534-7.839-41.535C170.54,45,155.582,40.374,142.57,33.787c-13.75-6.936-27.271-18.149-42.34-16.519S75.668,33.258,63.662,42.261C51.585,51.361,35.716,56.9,29.41,70.719c-6.366,14-4.215,30.935.561,45.835a70.394,70.394,0,0,0,25.2,35.044c10.43,7.749,24.874,4.8,36.4,10.688,12.636,6.369,19.834,24.29,33.753,24.786,13.569.449,22-14.133,32.168-22.754C167.283,156,178.868,149.389,184.1,137.6Z" fill="none" stroke="#fff" stroke-width="1.015"/><path d="M180.462,134.984c5.039-11.333,3.212-24.313,2.405-36.8-.874-13.523.253-28.054-7.428-39.326-7.8-11.518-21.962-15.978-34.319-22.206-13.108-6.662-25.839-17.184-40.147-15.641S77.661,36.16,66.355,44.65C54.893,53.245,39.844,58.517,33.945,71.6c-5.972,13.175-4.032,29.266.461,43.417a67.274,67.274,0,0,0,23.813,33.211c9.848,7.294,23.556,4.6,34.433,10.132,11.98,6.01,18.787,23.021,31.92,23.433,12.867.356,20.819-13.391,30.459-21.518C164.468,152.512,175.482,146.137,180.462,134.984Z" fill="none" stroke="#fff" stroke-width="1.015"/><path d="M176.74,132.378c4.789-10.7,3.076-22.91,2.27-34.792-.845-12.745.226-26.489-7.028-37.2-7.365-10.874-20.785-14.984-32.4-20.862C127.226,33.3,115.176,23.3,101.714,24.751s-21.976,14.3-32.74,22.384C58.222,55.3,43.982,60.225,38.32,72.58c-5.652,12.445-3.752,27.671.448,40.989a63.721,63.721,0,0,0,22.509,31.356c9.362,6.915,22.224,4.322,32.543,9.566,11.338,5.736,17.74,21.752,30.185,22.156C136.1,177,143.643,164,152.825,156.27,161.718,148.925,172.1,142.885,176.74,132.378Z" fill="none" stroke="#fff" stroke-width="1.015"/><path d="M173.105,129.761c4.454-10.052,2.926-21.591,2.137-32.78-.817-11.967.2-24.924-6.617-34.993C161.7,51.758,149.091,47.9,138.117,42.3,126.5,36.421,115.142,27.043,102.442,28.4S81.721,41.871,71.655,49.439C61.518,57.1,48.1,61.754,42.843,73.372c-5.326,11.713-3.565,26,.447,38.646A60.153,60.153,0,0,0,64.5,141.531c8.791,6.547,20.892,4.04,30.653,9,10.6,5.386,16.693,20.483,28.448,20.879,11.4.349,18.457-11.908,27.11-19.141C158.889,145.35,168.723,139.718,173.105,129.761Z" fill="none" stroke="#fff" stroke-width="1.015"/><path d="M169.385,127.155c4.2-9.416,2.691-20.263,2.017-30.684-.717-11.285.255-23.369-6.206-32.784-6.486-9.586-18.3-13.273-28.6-18.432-10.792-5.538-21.47-14.386-33.409-13.112C91.345,33.493,83.8,44.764,74.364,51.913,64.836,59.072,52.237,63.458,47.3,74.345c-5,10.982-3.369,24.418.434,36.219a56.305,56.305,0,0,0,19.9,27.666c8.208,6.092,19.658,3.833,28.765,8.435,9.943,5.027,15.645,19.214,26.613,19.526,10.715.341,17.361-11.176,25.4-17.9C156.143,141.766,165.253,136.476,169.385,127.155Z" fill="none" stroke="#fff" stroke-width="1.015"/><path d="M165.748,124.537c3.953-8.78,2.554-18.859,1.883-28.674-.688-10.507.228-21.8-5.795-30.575-6.047-8.942-17.045-12.374-26.7-17.174C125,42.936,115.013,34.7,103.936,35.966,92.842,37.143,85.8,47.75,76.979,54.4c-8.9,6.741-20.6,10.765-25.214,20.921-4.682,10.251-3.1,22.739.42,33.791A52.593,52.593,0,0,0,70.7,134.935c7.722,5.715,18.326,3.552,26.79,7.88,9.288,4.668,14.6,17.945,24.877,18.249,10.026.332,16.18-10.434,23.762-16.764C153.311,138.188,161.868,133.225,165.748,124.537Z" fill="none" stroke="#fff" stroke-width="1.015"/><path d="M162.115,121.925c3.618-8.135,2.321-17.531,1.761-26.578-.659-9.73.2-20.24-5.4-28.452-5.613-8.3-15.881-11.47-24.793-15.918C124.205,46.157,115,38.53,104.665,39.621S87.868,50.559,79.66,56.7C71.376,62.937,60.491,66.694,56.2,76.119c-4.36,9.521-2.9,21.155.321,31.373a48.753,48.753,0,0,0,17.208,23.983c7.14,5.26,17,3.269,24.9,7.313,8.645,4.395,13.551,16.677,23.056,16.982,9.24.249,15-9.692,22.052-15.528C150.568,134.6,158.484,129.972,162.115,121.925Z" fill="none" stroke="#fff" stroke-width="1.015"/><path d="M158.4,119.317c3.367-7.5,2.17-16.213,1.627-24.567-.546-8.961.173-18.674-4.984-26.243-5.17-7.653-14.63-10.566-22.9-14.743-8.731-4.385-17.259-11.482-26.745-10.488-9.571,1-15.541,10.1-23.126,15.824s-17.65,9.213-21.6,17.993c-4.038,8.79-2.635,19.476.308,28.945a44.325,44.325,0,0,0,15.9,22.135c6.569,4.891,15.676,3.072,23.012,6.748,7.991,4.035,12.5,15.408,21.308,15.619,8.55.24,13.9-8.959,20.329-14.377C147.736,131.03,155.113,126.806,158.4,119.317Z" fill="none" stroke="#fff" stroke-width="1.015"/><path d="M154.76,116.7c3.1-6.948,2.034-14.808,1.493-22.556-.53-8.269.146-17.109-4.572-24.033-4.731-7.01-13.477-9.744-20.994-13.486-7.991-4.035-15.827-10.517-24.552-9.61s-14.2,9.254-21.175,14.474C78,66.794,68.744,69.931,65.114,77.98s-2.439,17.892.294,26.517a40.763,40.763,0,0,0,14.6,20.288c6,4.523,14.345,2.791,21.038,6.193,7.336,3.676,11.445,14.053,19.572,14.342,7.861.232,12.735-8.133,18.7-13.151C144.99,127.445,151.727,123.553,154.76,116.7Z" fill="none" stroke="#fff" stroke-width="1.015"/><path d="M151.049,114.177c2.771-6.3,1.8-13.48,1.372-20.46-.5-7.491.119-15.544-4.161-21.824-4.292-6.365-12.225-8.845-19.1-12.313-7.18-3.78-14.322-9.647-22.273-8.741-7.964.821-12.951,8.417-19.224,13.123-6.345,4.8-14.7,7.662-18,14.98s-2.242,16.307.293,24.174a37.637,37.637,0,0,0,13.212,18.45c5.5,4.059,13.1,2.5,19.147,5.627,6.681,3.316,10.4,12.784,17.751,13.074,7.171.224,11.541-7.476,16.981-12C142.156,123.867,148.255,120.308,151.049,114.177Z" fill="none" stroke="#fff" stroke-width="1.015"/><path d="M147.417,111.562c2.519-5.667,1.649-12.162,1.238-18.449-.473-6.714.176-13.989-3.762-19.7s-10.975-7.946-17.2-11.055c-6.512-3.336-12.962-8.588-20.079-7.863S96,62.064,90.268,66.362,77.01,73.253,74.024,79.84s-1.974,14.628.279,21.746a34.076,34.076,0,0,0,11.907,16.6c4.93,3.69,11.778,2.3,17.259,5.061,5.955,3.053,9.351,11.516,16,11.712,6.4.226,10.361-6.733,15.273-10.764C139.412,120.283,144.868,117.058,147.417,111.562Z" fill="none" stroke="#fff" stroke-width="1.015"/><path d="M143.7,108.955c2.268-5.031,1.414-10.833,1.117-16.353-.372-6.031.148-12.424-3.266-17.5-3.512-5.153-9.823-7.124-15.3-9.883-5.857-2.977-11.53-7.623-17.886-6.985-6.344.723-10.361,6.734-15.394,10.518-5.116,3.793-11.826,6.119-14.4,11.966-2.664,5.857-1.777,13.044.265,19.319a30.215,30.215,0,0,0,10.6,14.756c4.347,3.236,10.447,2.02,15.371,4.5,5.3,2.693,8.3,10.247,14.181,10.444,5.708.218,9.277-5.916,13.548-9.613C136.581,116.707,141.5,113.891,143.7,108.955Z" fill="none" stroke="#fff" stroke-width="1.015"/><path d="M140.062,106.34c1.935-4.385,1.278-9.429.984-14.342-.344-5.254.12-10.86-2.855-15.293-3.059-4.424-8.559-6.14-13.4-8.625-5.1-2.542-10.1-6.659-15.609-6.117-5.583.636-9.024,5.887-13.528,9.177-4.406,3.366-10.308,5.34-12.649,10.466s-1.594,11.374.167,16.9a26.085,26.085,0,0,0,9.3,12.91c3.861,2.857,9.127,1.823,13.4,3.94,4.644,2.334,7.342,8.968,12.433,9.082,5.006.123,8.1-5.175,11.839-8.378C133.837,113.125,138.117,110.64,140.062,106.34Z" fill="none" stroke="#fff" stroke-width="1.015"/><path d="M136.34,103.735c1.685-3.75,1.129-8.111.765-12.322-.315-4.475.081-9.379-2.455-13.168-2.633-3.865-7.321-5.326-11.407-7.377-4.365-2.192-8.58-5.7-13.414-5.239-4.737.54-7.771,5.051-11.564,7.912S89.4,78.195,87.457,82.5c-2.019,4.395-1.311,9.78.154,14.472a22.531,22.531,0,0,0,7.994,11.063c3.278,2.4,7.88,1.531,11.5,3.374,3.99,1.975,6.3,7.7,10.7,7.8,4.317.115,6.915-4.433,10.213-7.151C131.005,109.549,134.729,107.389,136.34,103.735Z" fill="none" stroke="#fff" stroke-width="1.015"/><path d="M132.705,101.116c1.433-3.113.893-6.783.644-10.225-.215-3.793.052-7.815-2.045-10.96-2.195-3.22-6.155-4.417-9.5-6.118-3.626-1.843-7.161-4.824-11.137-4.371s-6.433,4.2-9.612,6.562-7.342,3.873-9.05,7.452c-1.7,3.664-1.128,8.111.14,12.044a18.252,18.252,0,0,0,6.605,9.226c2.708,2.034,6.549,1.249,9.616,2.808,3.347,1.7,5.248,6.43,8.876,6.537,3.543.117,5.819-3.7,8.491-6C128.258,105.961,131.268,104.23,132.705,101.116Z" fill="none" stroke="#fff" stroke-width="1.015"/><path d="M128.983,98.51c1.086-2.553.755-5.378.51-8.213-.187-3.016.025-6.25-1.634-8.751-1.755-2.576-4.9-3.519-7.608-4.946-2.886-1.493-5.729-3.859-8.943-3.493s-5.18,3.367-7.733,5.307-5.907,3.1-7.2,6.026c-1.374,2.933-.931,6.526.139,9.7a14.68,14.68,0,0,0,5.3,7.378c2.222,1.656,5.229,1.053,7.642,2.253,2.692,1.342,4.2,5.161,7.127,5.174,2.854.109,4.638-2.958,6.78-4.763C125.425,102.386,127.884,100.978,128.983,98.51Z" fill="none" stroke="#fff" stroke-width="1.015"/><path d="M125.348,95.893c.836-1.918.52-4.051.389-6.118-.158-2.238.082-4.7-1.222-6.542-1.317-1.932-3.654-2.62-5.7-3.688-2.146-1.144-4.3-2.894-6.749-2.615-2.369.27-3.928,2.53-5.782,3.956-1.938,1.436-4.388,2.322-5.44,4.524-.967,2.193-.661,4.848.126,7.274a11.113,11.113,0,0,0,4,5.532c1.639,1.2,3.9.77,5.753,1.687,1.952.992,3.141,3.806,5.306,3.907s3.457-2.216,5.058-3.613S124.5,97.725,125.348,95.893Z" fill="none" stroke="#fff" stroke-width="1.015"/></svg>