<svg xmlns="http://www.w3.org/2000/svg" viewBox="0 0 94 86"><title>brun2-m</title><path d="M86.789,41.484c.343,6.447,1.177,13.111-1.579,18.969-2.695,5.781-8.562,9.134-13.513,13.209-5.172,4.277-9.46,11.409-16.22,11.315-6.939-.107-10.394-8.815-16.629-11.836-5.7-2.773-12.917-1.241-18.074-4.955A33.4,33.4,0,0,1,8.467,51.307C6.2,44.054,5.3,35.794,8.554,28.931c3.238-6.756,11.237-9.574,17.3-14.068C31.919,10.335,36.753,3.308,44.265,2.4c7.547-.911,14.2,4.429,21.012,7.762C71.74,13.3,79.169,15.434,83.194,21.279,87.14,27.065,86.416,34.552,86.789,41.484Z" fill="none" stroke="#fff" stroke-width="0.413"/><path d="M53.773,37.19a3.228,3.228,0,0,1-.13,1.656,3.806,3.806,0,0,1-1.192,1.162c-.447.37-.822,1.01-1.43.981-.6.006-.919-.757-1.455-1.038-.5-.252-1.115-.105-1.585-.43a2.921,2.921,0,0,1-1.087-1.468,2.633,2.633,0,0,1,.018-1.956c.275-.593.99-.822,1.5-1.235.517-.379.966-.994,1.594-1.073.664-.083,1.227.405,1.832.678a3.877,3.877,0,0,1,1.551.957A3.143,3.143,0,0,1,53.773,37.19Z" fill="none" stroke="#fff" stroke-width="0.413"/><path d="M83.726,59.453c2.614-5.6,1.817-11.986,1.477-18.154-.336-6.657.364-13.792-3.44-19.316-3.848-5.589-10.948-7.664-17.108-10.66C58.113,8.131,51.774,3.03,44.541,3.9c-7.2.868-11.825,7.589-17.631,11.911S13.441,22.806,10.346,29.3c-3.121,6.567-2.229,14.445-.078,21.4A31.735,31.735,0,0,0,22.013,66.844c4.92,3.535,11.824,2.076,17.3,4.739,5.967,2.88,9.266,11.224,15.922,11.331,6.476.095,10.591-6.736,15.508-10.807C75.532,68.157,81.138,64.977,83.726,59.453Z" fill="#e7e4df"/><path d="M82.2,58.424c2.507-5.339,1.748-11.454,1.445-17.348-.329-6.344.344-13.162-3.284-18.429-3.676-5.366-10.473-7.3-16.331-10.164C57.8,9.462,51.7,4.575,44.817,5.4S33.518,12.682,28,16.758c-5.55,4.116-12.838,6.67-15.8,12.867C9.219,35.9,10.059,43.4,12.134,50.045a30.144,30.144,0,0,0,11.219,15.41c4.686,3.39,11.281,2,16.489,4.527,5.7,2.774,8.877,10.715,15.209,10.793,6.192.095,10.1-6.431,14.826-10.338C74.381,66.732,79.756,63.685,82.2,58.424Z" fill="none" stroke="#fff" stroke-width="0.413"/><path d="M80.714,57.39c2.4-5.081,1.647-10.884,1.346-16.5-.286-6.035.319-12.566-3.132-17.576-3.494-5.074-9.964-6.95-15.553-9.668C57.443,10.763,51.663,6.115,45.089,6.87c-6.57.789-10.743,6.93-16,10.834-5.288,3.943-12.242,6.35-15.023,12.282-2.847,5.974-2.018,13.127-.059,19.441A28.754,28.754,0,0,0,24.7,64.1c4.483,3.206,10.734,1.9,15.713,4.31C45.847,71.043,48.865,78.62,54.877,78.7c5.874.1,9.61-6.125,14.114-9.83C73.265,65.3,78.34,62.4,80.714,57.39Z" fill="none" stroke="#fff" stroke-width="0.413"/><path d="M79.19,56.36c2.258-4.819,1.578-10.351,1.279-15.687-.279-5.722.3-11.9-2.976-16.688-3.322-4.852-9.459-6.629-14.78-9.207-5.625-2.714-11.128-7.152-17.348-6.407S35.143,14.956,30.141,18.654c-5.033,3.737-11.607,6.061-14.29,11.666C13.141,36,13.924,42.809,15.8,48.784A27.262,27.262,0,0,0,25.972,62.755c4.251,3.061,10.222,1.789,14.938,4.093,5.169,2.492,8.025,9.67,13.759,9.788,5.589.1,9.153-5.823,13.4-9.356C72.148,63.872,76.962,61.14,79.19,56.36Z" fill="none" stroke="#fff" stroke-width="0.413"/><path d="M77.7,55.326c2.147-4.6,1.473-9.815,1.217-14.842-.277-5.443.276-11.3-2.82-15.8-3.145-4.6-8.954-6.309-14.008-8.746-5.361-2.607-10.543-6.772-16.449-6.066s-9.7,6.241-14.412,9.728c-4.776,3.529-11.01,5.742-13.522,11.046-2.541,5.343-1.84,11.815-.075,17.49a26.045,26.045,0,0,0,9.61,13.239c4.014,2.881,9.68,1.717,14.128,3.881,4.9,2.351,7.6,9.165,13.012,9.254,5.3.068,8.661-5.518,12.684-8.848C71,62.481,75.581,59.849,77.7,55.326Z" fill="none" stroke="#fff" stroke-width="0.413"/><path d="M76.177,54.3c2.039-4.338,1.408-9.248,1.149-14.03-.27-5.13.256-10.674-2.668-14.948C71.689,20.98,66.184,19.4,61.432,17.1c-5.054-2.437-9.959-6.392-15.516-5.73s-9.143,5.892-13.629,9.211C27.806,23.937,21.907,26,19.5,31.015c-2.4,5.047-1.715,11.171-.066,16.512a24.671,24.671,0,0,0,9.084,12.5c3.816,2.731,9.132,1.611,13.353,3.663,4.638,2.245,7.178,8.66,12.3,8.75,4.981.073,8.17-5.212,12-8.379C69.885,61.052,74.2,58.557,76.177,54.3Z" fill="none" stroke="#fff" stroke-width="0.413"/><path d="M74.689,53.262c1.9-4.076,1.338-8.716,1.082-13.22-.264-4.816.234-10.043-2.513-14.059-2.792-4.081-7.964-5.561-12.452-7.754-4.752-2.3-9.375-6.012-14.618-5.389S37.566,18.387,33.371,21.5c-4.225,3.147-9.784,5.1-12.02,9.811-2.267,4.751-1.629,10.5-.053,15.568a23.3,23.3,0,0,0,8.558,11.767c3.583,2.586,8.586,1.505,12.578,3.447,4.335,2.108,6.754,8.154,11.6,8.245,4.7.074,7.679-4.906,11.29-7.871C68.735,59.626,72.822,57.3,74.689,53.262Z" fill="none" stroke="#fff" stroke-width="0.413"/><path d="M73.165,52.232c1.79-3.818,1.234-8.179,1.019-12.374-.226-4.542.249-9.417-2.357-13.172-2.614-3.824-7.459-5.24-11.674-7.259-4.414-2.167-8.761-5.67-13.689-5.086-4.888.613-8.066,5.2-12,8.134-3.969,2.94-9.188,4.781-11.287,9.2-2.13,4.454-1.538,9.858-.043,14.59a21.794,21.794,0,0,0,8.032,11.03c3.345,2.406,8.077,1.429,11.8,3.23,4.067,1.967,6.33,7.649,10.849,7.711,4.413.074,7.223-4.6,10.577-7.363C67.618,58.2,71.406,56.012,73.165,52.232Z" fill="none" stroke="#fff" stroke-width="0.413"/><path d="M71.677,51.2c1.682-3.56,1.168-7.613.951-11.563-.219-4.229.227-8.786-2.2-12.285-2.437-3.567-6.949-4.885-10.9-6.763-4.146-2.027-8.211-5.285-12.785-4.711-4.579.539-7.545,4.854-11.223,7.583C31.814,26.227,26.965,27.916,25,32.035c-1.992,4.158-1.417,9.18-.034,13.612a20.371,20.371,0,0,0,7.471,10.3c3.148,2.257,7.531,1.323,10.993,3.017,3.8,1.827,5.906,7.145,10.14,7.207,4.13.075,6.732-4.3,9.9-6.893C66.467,56.771,70.024,54.72,71.677,51.2Z" fill="none" stroke="#fff" stroke-width="0.413"/><path d="M70.188,50.165c1.541-3.3,1.063-7.077.888-10.719-.212-3.916.207-8.155-2.049-11.431-2.26-3.31-6.474-4.526-10.12-6.267-3.878-1.886-7.626-4.905-11.891-4.405s-6.988,4.5-10.41,7.027c-3.452,2.561-7.961,4.139-9.786,7.962-1.855,3.861-1.326,8.54-.06,12.638a18.877,18.877,0,0,0,6.945,9.561c2.91,2.077,6.984,1.217,10.217,2.8,3.537,1.719,5.483,6.639,9.4,6.706,3.806.046,6.241-3.992,9.183-6.385C65.351,55.342,68.642,53.429,70.188,50.165Z" fill="none" stroke="#fff" stroke-width="0.413"/><path d="M68.664,49.135c1.434-3.041.994-6.545.822-9.907-.171-3.608.185-7.525-1.894-10.544-2.083-3.053-5.964-4.172-9.347-5.806-3.571-1.715-7.042-4.525-10.957-4.069-3.951.461-6.467,4.161-9.628,6.511s-7.33,3.815-9.013,7.376c-1.718,3.565-1.206,7.862-.051,11.66a17.164,17.164,0,0,0,6.419,8.825c2.677,1.932,6.441,1.146,9.442,2.584,3.268,1.578,5.059,6.134,8.686,6.168,3.522.046,5.785-3.692,8.466-5.912C64.2,53.917,67.266,52.171,68.664,49.135Z" fill="none" stroke="#fff" stroke-width="0.413"/><path d="M67.176,48.1c1.322-2.818.928-5.978.753-9.1-.168-3.329.165-6.9-1.737-9.657-1.907-2.8-5.494-3.846-8.569-5.31-3.269-1.579-6.458-4.145-10.06-3.728s-5.91,3.812-8.815,5.956c-2.9,2.178-6.734,3.5-8.28,6.76s-1.114,7.223-.041,10.682A15.784,15.784,0,0,0,36.319,51.8c2.445,1.787,5.895,1.04,8.632,2.372,3,1.438,4.631,5.595,7.979,5.663,3.238.048,5.3-3.351,7.788-5.408C63.083,52.487,65.884,50.88,67.176,48.1Z" fill="none" stroke="#fff" stroke-width="0.413"/><path d="M65.657,47.105c1.18-2.555.823-5.441.691-8.251-.161-3.015.144-6.263-1.582-8.768-1.729-2.54-4.984-3.492-7.8-4.849-2.936-1.481-5.843-3.8-9.126-3.391-3.287.377-5.388,3.467-8,5.4-2.644,1.971-6.1,3.172-7.511,6.14s-1.024,6.584-.028,9.738a14.563,14.563,0,0,0,5.332,7.356c2.242,1.6,5.382.93,7.857,2.155,2.733,1.3,4.206,5.09,7.235,5.164,2.954.048,4.8-3.08,7.072-4.935C61.932,51.062,64.467,49.592,65.657,47.105Z" fill="none" stroke="#fff" stroke-width="0.413"/><path d="M64.168,46.071c1.073-2.3.754-4.909.623-7.44-.153-2.7.158-5.637-1.43-7.915s-4.474-3.137-7.019-4.353c-2.663-1.306-5.289-3.384-8.226-3.051S43.283,26.43,40.9,28.2s-5.508,2.854-6.779,5.526-.9,5.905-.018,8.76A13.19,13.19,0,0,0,38.9,49.1c2.009,1.458,4.84.859,7.082,1.938,2.435,1.2,3.783,4.585,6.523,4.625,2.635.053,4.311-2.774,6.36-4.426C60.816,49.632,63.086,48.3,64.168,46.071Z" fill="none" stroke="#fff" stroke-width="0.413"/><path d="M62.644,45.042c.966-2.041.649-4.373.561-6.595-.117-2.428.137-5.007-1.239-7.032-1.416-2.056-4-2.813-6.246-3.892-2.4-1.165-4.7-3-7.329-2.71-2.618.329-4.311,2.774-6.408,4.328-2.132,1.558-4.912,2.535-6.01,4.906-1.134,2.375-.812,5.265-.009,7.781a11.7,11.7,0,0,0,4.279,5.884c1.772,1.278,4.293.752,6.306,1.721,2.168,1.054,3.36,4.079,5.781,4.125,2.351.054,3.859-2.438,5.642-3.953C59.665,48.207,61.709,47.043,62.644,45.042Z" fill="none" stroke="#fff" stroke-width="0.413"/><path d="M61.156,44.008c.824-1.778.584-3.807.493-5.784-.109-2.115.116-4.376-1.082-6.145-1.234-1.764-3.49-2.423-5.469-3.4-2.088-.994-4.121-2.624-6.395-2.373-2.3.289-3.755,2.425-5.631,3.776-1.837,1.382-4.281,2.212-5.277,4.291a9.469,9.469,0,0,0-.035,6.808,10.109,10.109,0,0,0,3.753,5.147c1.574,1.128,3.751.681,5.5,1.509,1.9.913,2.97,3.57,5.068,3.586,2.062.02,3.368-2.132,4.93-3.445C58.549,46.777,60.328,45.752,61.156,44.008Z" fill="none" stroke="#fff" stroke-width="0.413"/><path d="M59.632,42.978c.717-1.52.514-3.274.391-4.968-.1-1.8.09-3.78-.932-5.292-1.061-1.541-2.984-2.1-4.656-2.905-1.785-.858-3.5-2.247-5.5-2.032-1.955.245-3.233,2.08-4.814,3.255s-3.68,1.928-4.509,3.671a8.166,8.166,0,0,0-.025,5.83,8.717,8.717,0,0,0,3.227,4.41c1.336.949,3.238.571,4.721,1.292,1.632.773,2.547,3.065,4.36,3.082,1.779.021,2.877-1.826,4.253-2.941C57.4,45.352,58.945,44.46,59.632,42.978Z" fill="none" stroke="#fff" stroke-width="0.413"/><path d="M58.144,41.944a8.3,8.3,0,0,0,.328-4.123c-.066-1.527.069-3.149-.776-4.4-.885-1.285-2.51-1.744-3.878-2.41-1.483-.721-2.922-1.9-4.563-1.7s-2.677,1.731-4,2.7-3.049,1.6-3.775,3.055a6.658,6.658,0,0,0-.017,4.852A7.068,7.068,0,0,0,44.127,43.6c1.1.8,2.691.465,3.946,1.075,1.369.666,2.123,2.56,3.618,2.582,1.46.026,2.421-1.525,3.536-2.467C56.281,43.922,57.534,43.207,58.144,41.944Z" fill="none" stroke="#fff" stroke-width="0.413"/><path d="M56.62,40.914a6.748,6.748,0,0,0,.26-3.312c-.058-1.214.049-2.518-.619-3.516-.708-1.028-2-1.389-3.106-1.948-1.18-.585-2.337-1.521-3.664-1.355s-2.156,1.387-3.219,2.183-2.454,1.285-3,2.47a5.248,5.248,0,0,0,0,3.908,5.685,5.685,0,0,0,2.139,2.942c.906.654,2.149.393,3.136.862,1.1.525,1.7,2.055,2.905,2.044,1.176.027,1.93-1.219,2.824-1.96A7.908,7.908,0,0,0,56.62,40.914Z" fill="none" stroke="#fff" stroke-width="0.413"/><path d="M55.131,39.88a5.165,5.165,0,0,0,.2-2.467,4.878,4.878,0,0,0-.464-2.629,5.526,5.526,0,0,0-2.328-1.452c-.877-.448-1.753-1.141-2.765-1.014-.978.123-1.634,1.042-2.407,1.628-.808.589-1.823.961-2.27,1.854a4.1,4.1,0,0,0,.007,2.93,4.305,4.305,0,0,0,1.614,2.206c.668.474,1.6.287,2.36.646.8.388,1.271,1.515,2.163,1.543s1.439-.914,2.107-1.486A6.265,6.265,0,0,0,55.131,39.88Z" fill="none" stroke="#fff" stroke-width="0.413"/></svg>