<svg xmlns="http://www.w3.org/2000/svg" viewBox="0 0 280 210"><style> :root {--at: 5s;}.x,.y {fill: none;}.an {fill: none;stroke: #fff;stroke-width: 1;animation: chc var(--at) linear infinite;}.r {animation-delay: calc(var(--at) / 19);}.q {animation-delay: calc(var(--at) / 19 * 2);}.p {animation-delay: calc(var(--at) / 19 * 3);}.o {animation-delay: calc(var(--at) / 19 * 4);}.n {animation-delay: calc(var(--at) / 19 * 5);}.m {animation-delay: calc(var(--at) / 19 * 6);}.l {animation-delay: calc(var(--at) / 19 * 7);}.k {animation-delay: calc(var(--at) / 19 * 8);}.j {animation-delay: calc(var(--at) / 19 * 9);}.i {animation-delay: calc(var(--at) / 19 * 10);}.h {animation-delay: calc(var(--at) / 19 * 11);}.g {animation-delay: calc(var(--at) / 19 * 12);}.f {animation-delay: calc(var(--at) / 19 * 13);}.e {animation-delay: calc(var(--at) / 19 * 14);}.d {animation-delay: calc(var(--at) / 19 * 15);}.c {animation-delay: calc(var(--at) / 19 * 16);}.b {animation-delay: calc(var(--at) / 19 * 17);}.a {animation-delay: calc(var(--at) / 19 * 18);}@keyframes chc{0%{stroke:#fff}10%{stroke:#e7e4df}15%{stroke:#fff}}</style><path class="x" d="M0,0H280V210H0Z"/><path class="y" d="M245.8,99.26c.35,15.5,1.92,31.48-5.49,45.77-7.24,14.09-22.29,22.55-35.09,32.69-13.37,10.64-24.74,28.09-41.76,28.31-17.48.2-25.5-20.53-41-27.39-14.15-6.3-32.45-2.14-45.15-10.74a74.31,74.31,0,0,1-29.67-39.82c-5.13-17.31-6.76-37.13,2-53.87,8.69-16.48,29.07-23.79,44.71-35S122.76,10.66,141.76,8s35.43,9.73,52.32,17.3c16,7.11,34.58,11.77,44.26,25.58,9.48,13.66,7.07,31.74,7.46,48.4Z" stroke="#fff" stroke-width="1.01"/><path d="M236.62,142.71c7-13.64,5.53-29,5.16-43.8-.31-16,2-33.23-7.13-46.27-9.25-13.2-27-17.73-42.26-24.53C176.16,20.85,160.59,9,142.3,11.57S111.9,30.62,96.93,41.41,62.44,59.13,54.13,75c-8.39,16-6.76,34.92-1.9,51.52a70.63,70.63,0,0,0,28.32,38.1c12.11,8.18,29.62,4.21,43.21,10.26,14.8,6.54,22.45,26.41,39.21,26.23,16.31-.2,27.23-16.92,39.93-27,12.39-9.83,26.76-17.86,33.72-31.33Z" fill="#e7e4df"/><path class="an a" d="M232.83,140.33c6.74-13,5.31-27.69,5-41.86-.32-15.25,1.91-31.71-6.81-44.15-8.83-12.67-25.81-16.89-40.34-23.38-15.47-6.87-30.44-18.23-47.85-15.78s-29,18.27-43.27,28.45-32.88,16.9-40.82,32c-8,15.29-6.5,33.29-1.8,49.16A67.11,67.11,0,0,0,84,161.15c11.54,7.85,28.26,4.08,41.18,9.8,14.15,6.3,21.52,25.21,37.47,25,15.59-.18,26-16.15,38.17-25.87,11.64-9.21,25.43-16.9,32-29.73Z"/><path class="an b" d="M229.13,137.93c6.45-12.39,5-26.31,4.7-39.8-.24-14.51,1.8-30.27-6.5-42.11S202.78,40,188.91,33.77C174.19,27.22,160,16.41,143.37,18.66S115.76,36.06,102.2,45.8,70.85,61.9,63.37,76.36c-7.65,14.58-6.12,31.74-1.69,46.81a64,64,0,0,0,25.78,34.62c11,7.42,26.89,3.86,39.25,9.34,13.49,6,20.49,24,35.63,23.82,14.79-.14,24.7-15.38,36.34-24.6,11-8.88,24.07-16.2,30.45-28.42Z"/><path class="an c" d="M225.34,135.55c6.07-11.75,4.8-25,4.47-37.85-.25-13.76,1.7-28.67-6.18-40s-23.3-15.33-36.51-21.19c-14-6.16-27.47-16.48-43.2-14.28S117.64,38.78,104.74,48,75,63.37,67.81,77.05C60.54,90.89,62,107.24,66.22,121.5a60.68,60.68,0,0,0,24.52,33c10.47,7.09,25.62,3.63,37.32,8.87C140.88,169,147.51,186.08,162,186c14.07-.12,23.52-14.62,34.5-23.41,10.55-8.47,22.9-15.37,28.89-27Z"/><path class="an d" d="M221.63,133.15c5.78-11.2,4.49-23.72,4.25-35.81-.27-13.08,1.59-27.23-5.86-37.85-7.56-10.86-22.06-14.6-34.6-20.13-13.3-5.92-26-15.61-41-13.52s-24.93,15.67-37.08,24.37C95.06,59,79.18,64.77,72.43,77.7s-5.57,28.56-1.58,42.11A57.92,57.92,0,0,0,94,151.05c9.88,6.67,24.25,3.49,35.29,8.41,12.16,5.33,18.42,21.56,32.05,21.42,13.35-.19,22.26-13.86,32.66-22.14,10.17-7.92,21.91-14.56,27.61-25.59Z"/><path class="an e" d="M217.85,130.76c5.48-10.57,4.28-22.35,4-33.85-.27-12.33,1.5-25.71-5.53-35.81s-20.89-13.68-32.68-18.9C171.1,36.67,159.06,27.47,145,29.43s-23.5,14.79-35.07,23.08S83.35,66.24,76.88,78.46s-5.2,27-1.47,39.76a54.92,54.92,0,0,0,21.89,29.5c9.4,6.32,22.89,3.27,33.36,7.93,11.5,5.1,17.4,20.38,30.3,20.26,12.55-.16,21-13.09,30.91-21C201.46,147.44,212.52,141.15,217.85,130.76Z"/><path class="an f" d="M214.14,128.37c5.11-9.94,4.07-21.07,3.78-31.9-.28-11.58,1.38-24.19-5.22-33.68s-19.62-12.86-30.76-17.85c-11.79-5.22-23.15-13.85-36.4-12s-22.17,13.92-33,21.68S87.5,67.55,81.49,79s-4.94,25.37-1.37,37.48a51.85,51.85,0,0,0,20.63,27.76c8.83,6,21.52,3.06,31.42,7.47,10.76,4.79,16.37,19.18,28.57,19.08,11.83-.13,19.73-12.32,29.07-19.69,8.83-7.06,19.31-12.93,24.33-22.77Z"/><path class="an g" d="M210.35,126c4.82-9.31,3.76-19.77,3.55-29.85-.21-10.92,1.37-22.69-4.89-31.56-6.29-9-18.38-12.12-28.84-16.7-10.95-4.93-21.63-13.07-34.09-11.34s-20.73,13-30.88,20.37S91.67,69,86,79.79s-4.66,23.83-1.27,35.12a48.55,48.55,0,0,0,19.37,26c8.24,5.57,20.24,2.9,29.48,7,10.09,4.47,15.34,18,26.72,17.85,11.12-.11,18.57-11.56,27.24-18.42C195.9,140.71,205.62,135.2,210.35,126Z"/><path class="an h" d="M206.65,123.59c4.52-8.68,3.55-18.41,3.31-27.9-.21-10.17,1.28-21.17-4.57-29.43-5.85-8.43-17.12-11.3-26.92-15.56-10.28-4.61-20.27-12.18-31.84-10.5s-19.39,12.18-28.87,19S95.84,70.49,90.57,80.54s-4.3,22.19-1.16,32.77a45.29,45.29,0,0,0,18,24.3c7.75,5.22,18.87,2.69,27.46,6.54,9.43,4.14,14.32,16.81,25,16.68,10.4-.1,17.3-10.8,25.48-17.25,7.75-6.23,16.88-11.4,21.32-20Z"/><path class="an i" d="M203,121.19c4.14-8,3.24-17.11,3.08-25.86-.22-9.42,1.17-19.65-4.25-27.39s-16-10.47-25-14.42c-9.63-4.28-18.83-11.3-29.61-9.82S129.2,55,120.38,61.31,100,71.8,95.09,81.12s-4,20.65-1.15,30.43a42,42,0,0,0,16.74,22.56c7.17,4.81,17.5,2.47,25.52,6.07,8.77,3.9,13.29,15.62,23.15,15.52,9.58-.14,16-10,23.64-16,7.36-5.75,15.8-10.57,19.95-18.53Z"/><path class="an j" d="M199.15,118.8c3.86-7.41,3-15.82,2.86-23.9-.14-8.67,1.06-18.13-3.94-25.26S183.38,60,175,56.28c-8.86-3.89-17.38-10.43-27.28-9.07s-16.62,10.44-24.78,16.31-18.77,9.67-23.29,18.35-3.66,19-1,28.08a38.21,38.21,0,0,0,15.47,20.82c6.59,4.47,16.14,2.33,23.59,5.59C145.75,140,149.9,150.8,159,150.64c8.87-.12,14.87-9.27,21.8-14.79C187.53,130.61,195.39,126.21,199.15,118.8Z"/><path class="an k" d="M195.45,116.41c3.56-6.87,2.81-14.46,2.62-22-.16-8,1-16.61-3.61-23.13s-13.54-8.9-21.17-12.22c-8.11-3.59-15.94-9.55-25-8.31s-15.19,9.57-22.68,14.92-17.25,8.86-21.4,16.82-3.38,17.46-1,25.72a35.15,35.15,0,0,0,14.2,19.08c6,4.14,14.77,2.12,21.56,5.14,7.45,3.26,11.23,13.16,19.66,13.11,8.15-.1,13.61-8.42,20.05-13.54,6.11-4.82,13.29-8.87,16.77-15.64Z"/><path class="an l" d="M191.67,114.11c3.18-6.23,2.51-13.16,2.4-19.91-.17-7.25.86-15.09-3.29-21S178.5,65.11,171.52,62c-7.28-3.37-14.42-8.77-22.73-7.56S134.94,63.18,128.2,68s-15.63,8-19.41,15.28-3.1,15.92-.84,23.45a32.36,32.36,0,0,0,12.85,17.35c5.52,3.72,13.48,1.89,19.62,4.67,6.79,2.95,10.2,12,17.82,12,7.44-.08,12.35-7.74,18.21-12.35,5.53-4.48,12-8.19,15.22-14.25Z"/><path class="an m" d="M188,111.71c2.88-5.61,2.29-11.87,2.16-17.95-.18-6.5.84-13.59-3-19s-11-7.25-17.34-10c-6.6-3-13.05-7.8-20.48-6.8S136.9,65.8,130.75,70.21,116.64,77.45,113.23,84s-2.74,14.28-.74,21.09a29.33,29.33,0,0,0,11.58,15.62c5,3.38,12.13,1.75,17.69,4.2,6,2.71,9.17,10.78,16.07,10.7,6.63,0,11.08-7,16.37-11.08,5-4,10.86-7.34,13.77-12.78Z"/><path class="an n" d="M184.18,109.32c2.59-5,2-10.57,1.93-15.91-.1-5.84.74-12.06-2.56-16.85s-9.87-6.5-15.43-9c-5.94-2.65-11.62-6.92-18.25-6s-11.08,7-16.49,10.84-12.58,6.43-15.53,12.21-2.47,12.73-.64,18.73a26,26,0,0,0,10.31,13.88c4.37,3,10.76,1.53,15.76,3.73,5.37,2.39,8.14,9.6,14.23,9.55,5.92,0,9.92-6.13,14.53-9.89,4.38-3.48,9.62-6.42,12.14-11.3Z"/><path class="an o" d="M180.47,106.92c2.22-4.33,1.77-9.2,1.7-14-.11-5.09.64-10.54-2.24-14.72s-8.6-5.6-13.51-7.82c-5.18-2.25-10.17-6-15.92-5.29s-9.65,6.09-14.49,9.47-11,5.6-13.63,10.67-2.19,11.11-.63,16.39a22.55,22.55,0,0,0,9.05,12.15c3.87,2.61,9.39,1.39,13.73,3.26,4.71,2.08,7.2,8.4,12.48,8.3s8.66-5.35,12.7-8.61c4-3,8.54-5.59,10.76-9.85Z"/><path class="an p" d="M176.68,104.54c1.93-3.71,1.56-7.92,1.38-12-.11-4.33.53-9.1-1.93-12.68s-7.35-4.86-11.5-6.68C160.2,71.24,156,68,151,68.66s-8.32,5.22-12.39,8.15S129.13,81.7,126.91,86s-1.83,9.54-.53,14a19.37,19.37,0,0,0,7.78,10.4c3.29,2.2,8.11,1.16,11.79,2.8,4.05,1.75,6.18,7.21,10.75,7.13s7.39-4.59,11-7.36C170.86,110.4,174.84,108.15,176.68,104.54Z"/><path class="an q" d="M173,102.14c1.64-3.08,1.25-6.61,1.15-9.94,0-3.68.43-7.59-1.6-10.55s-6.18-4-9.58-5.55c-3.68-1.64-7.21-4.38-11.36-3.78s-6.89,4.35-10.3,6.76-7.81,4.07-9.75,7.61-1.56,7.92-.43,11.68a15.71,15.71,0,0,0,6.43,8.68c2.71,1.86,6.74.94,9.85,2.33,3.4,1.51,5.15,6,8.91,6s6.22-3.83,9.11-6.17C168.13,107,171.34,105.22,173,102.14Z"/><path class="an r" d="M169.19,99.76c1.25-2.53,1-5.25.92-8-.05-2.92.32-6.07-1.28-8.43s-4.93-3.21-7.67-4.48c-2.93-1.33-5.77-3.51-9.13-3s-5.54,3.48-8.28,5.47-6.29,3.25-7.76,6.14-1.28,6.37-.32,9.41a12.69,12.69,0,0,0,5.16,6.94c2.23,1.51,5.38.81,7.83,1.87,2.73,1.19,4.12,4.84,7.16,4.73s5-3.06,7.27-4.91S167.93,102.2,169.19,99.76Z"/><path class="an s" d="M165.49,97.36c1-1.89.73-4,.69-6-.05-2.17.31-4.56-1-6.3s-3.67-2.39-5.75-3.34-4.32-2.63-6.88-2.26-4.2,2.62-6.2,4.08-4.67,2.43-5.86,4.61a10.26,10.26,0,0,0,3.67,12.26c1.65,1.1,4,.59,5.9,1.4s3.08,3.56,5.33,3.57,3.69-2.29,5.42-3.71,3.67-2.54,4.64-4.36Z"/><path d="M23.56,78.4V68.54L52.36,81v8.32l-28.8,12.48V92l17.92-6.79Zm63.25,29.18H56.34v-7.42l15-15.62q4.55-4.73,4.55-7.93a4.52,4.52,0,0,0-4.8-4.74q-4.48,0-6.59,4.87L55.9,71.68A15.86,15.86,0,0,1,62,64.45a16.42,16.42,0,0,1,9-2.56,15.44,15.44,0,0,1,10.69,3.9,13,13,0,0,1,4.48,10.37q0,7.11-7,14.08l-7.42,7.49h15v9.85ZM122,102.14q-4.8,6.35-13.37,6.34a16.08,16.08,0,0,1-13.44-6.34q-4.8-6.39-4.8-17t4.8-16.89q4.86-6.41,13.44-6.4T122,68.29q4.88,6.27,4.87,16.89T122,102.14ZM108.6,71.87q-8,0-8,13.31t8,13.32q8,0,8-13.32T108.6,71.87ZM67.4,143v11.7h1.34V158h-1v-2.42H58.3V158h-1v-3.32h1a6.6,6.6,0,0,0,1.3-4.51V143Zm-6.82.9v6.3a7.79,7.79,0,0,1-1.11,4.5h7v-10.8Zm20.62,10a6.54,6.54,0,1,1,1.89-4.61A6.26,6.26,0,0,1,81.2,153.89Zm-8.55-.65a5.38,5.38,0,0,0,3.95,1.62,5.27,5.27,0,0,0,3.92-1.62,5.45,5.45,0,0,0,1.62-4,5.37,5.37,0,0,0-1.62-3.94,5.25,5.25,0,0,0-3.92-1.64,5.36,5.36,0,0,0-3.95,1.64,5.68,5.68,0,0,0,0,7.9ZM95.7,143h1.21v12.6H96V144.39l-4.66,7.74h-.16l-4.66-7.74v11.19h-1V143H86.7l4.5,7.46Zm14.72,10.91a6.54,6.54,0,1,1,1.89-4.61A6.28,6.28,0,0,1,110.42,153.89Zm-8.55-.65a5.36,5.36,0,0,0,3.94,1.62,5.29,5.29,0,0,0,3.93-1.62,5.45,5.45,0,0,0,1.62-4,5.37,5.37,0,0,0-1.62-3.94,5.27,5.27,0,0,0-3.93-1.64,5.34,5.34,0,0,0-3.94,1.64,5.68,5.68,0,0,0,0,7.9Zm19.57-4.19a3.27,3.27,0,0,1,1.57,1.21,3.19,3.19,0,0,1,.59,1.89,3.43,3.43,0,0,1-3.44,3.43h-5.43V143h5a3.33,3.33,0,0,1,3.31,3.32,3.13,3.13,0,0,1-.43,1.63,2.92,2.92,0,0,1-1.19,1.12Zm-1.69-5.17h-4.07v4.83h4.07a2.27,2.27,0,0,0,1.66-.7,2.47,2.47,0,0,0,.7-1.71,2.36,2.36,0,0,0-.7-1.7A2.18,2.18,0,0,0,119.75,143.88Zm-4.07,10.8h4.48a2.38,2.38,0,0,0,1.75-.73,2.55,2.55,0,0,0,.74-1.8,2.46,2.46,0,0,0-.74-1.79,2.31,2.31,0,0,0-1.75-.75h-4.48ZM140.93,143h1.21v12.6h-1V144.39l-4.66,7.74h-.16l-4.66-7.74v11.19h-1V143h1.19l4.5,7.46Zm8.61,12.6h-4.28V143h1v4.81h3.33a3.78,3.78,0,0,1,2.81,1.12,3.72,3.72,0,0,1,1.12,2.77,3.81,3.81,0,0,1-3.93,3.9Zm6.34,0h-1V143h1Zm-9.67-6.89v6h3.33a2.9,2.9,0,0,0,2.13-.84,3,3,0,0,0,.84-2.16,2.89,2.89,0,0,0-3-3Zm23.41,7.09a6.36,6.36,0,0,1-6.55-6.5,6.26,6.26,0,0,1,1.85-4.6,6.35,6.35,0,0,1,4.7-1.89,6.19,6.19,0,0,1,3.17.82,5.82,5.82,0,0,1,2.23,2.2l-.84.49a4.73,4.73,0,0,0-1.86-1.88,5.15,5.15,0,0,0-2.7-.72,5.45,5.45,0,0,0-5.6,5.58,5.52,5.52,0,0,0,1.57,4,5.46,5.46,0,0,0,4,1.6,5.23,5.23,0,0,0,2.7-.72,4.72,4.72,0,0,0,1.89-1.92l.85.48a5.79,5.79,0,0,1-2.25,2.25,6.26,6.26,0,0,1-3.19.83ZM176,143h8.89v.9h-4v11.7h-1v-11.7h-4V143Zm10.87,0h4.28a3.82,3.82,0,0,1,2.81,1.12,4,4,0,0,1,0,5.58,3.81,3.81,0,0,1-2.81,1.1H187.8v4.8h-1V143Zm1,6.9h3.33a2.87,2.87,0,0,0,2.13-.85,3,3,0,0,0-2.13-5.15H187.8v6Zm19.91,4a6.54,6.54,0,1,1,1.89-4.61A6.26,6.26,0,0,1,207.71,153.89Zm-8.55-.65a5.38,5.38,0,0,0,4,1.62,5.27,5.27,0,0,0,3.92-1.62,5.45,5.45,0,0,0,1.62-4,5.37,5.37,0,0,0-1.62-3.94,5.25,5.25,0,0,0-3.92-1.64,5.36,5.36,0,0,0-4,1.64,5.68,5.68,0,0,0,0,7.9Zm22.1,2.34h-1V144.75l-7.45,10.83H212V143h1v10.84L220.41,143h.85ZM234.57,143h1.2v12.6h-1V144.39l-4.66,7.74H230l-4.67-7.74v11.19h-1V143h1.19l4.5,7.46Zm-174,28.12,6.56,6.48H65.84l-6.32-6.21v6.21h-1V165h1v5.87L65.66,165h1.28l-6.38,6.12Zm18,6.48h-1l-1.22-3.2H70l-1.23,3.2h-1L72.64,165h1l4.88,12.6Zm-5.38-11.43-2.81,7.33H76Zm14.61,4.95,5.72,6.48H92.35l-5.54-6.24v6.24h-1v-6.24l-5.54,6.24H79.16l5.72-6.48L79.34,165h1.13l5.36,5.89V165h1v5.89L92.17,165H93.3l-5.54,6.12ZM104.25,165v11.7h1.33V180h-1v-2.42H95.14V180h-1v-3.32h1a6.65,6.65,0,0,0,1.29-4.51V165Zm-6.82.9v6.3a7.79,7.79,0,0,1-1.12,4.5h7v-10.8Zm14.69,11.7h-4.28V165h1v4.81h3.33a3.8,3.8,0,0,1,2.81,1.12,3.75,3.75,0,0,1,1.11,2.77,3.8,3.8,0,0,1-3.92,3.9Zm6.34,0h-1V165h1Zm-9.67-6.89v6h3.33a2.88,2.88,0,0,0,2.12-.84,2.92,2.92,0,0,0,.85-2.16,2.91,2.91,0,0,0-3-3Zm19.65-7.27h-4.55v-.79h4.55Zm2.36,14.16h-1V166.75l-7.46,10.83h-.82V165h1v10.84L130,165h.85ZM148.91,165h1.21v12.6h-1V166.39l-4.66,7.74h-.16l-4.66-7.74v11.19h-1V165h1.19l4.5,7.46Zm5.29,6.7v5h6.3v.9h-7.26V165h7.17v.9H154.2v4.9H160v.9Zm14.38,6.1a6.37,6.37,0,0,1-6.55-6.5,6.23,6.23,0,0,1,1.86-4.6,6.32,6.32,0,0,1,4.69-1.89,6.19,6.19,0,0,1,3.17.82,5.82,5.82,0,0,1,2.23,2.2l-.84.49a4.73,4.73,0,0,0-1.86-1.88,5.15,5.15,0,0,0-2.7-.72,5.44,5.44,0,0,0-5.59,5.58,5.4,5.4,0,0,0,5.59,5.58,5.23,5.23,0,0,0,2.7-.72,4.72,4.72,0,0,0,1.89-1.92l.85.48a5.79,5.79,0,0,1-2.25,2.25,6.26,6.26,0,0,1-3.19.83ZM179.26,165h5v12.6h-1v-5.16h-3.45l-3.57,5.16h-1.08l3.58-5.2a3.69,3.69,0,0,1-3.22-3.67,3.72,3.72,0,0,1,3.71-3.73Zm0,6.54h4v-5.64h-4a2.62,2.62,0,0,0-1.94.83,2.85,2.85,0,0,0,0,4A2.62,2.62,0,0,0,179.26,171.52Zm17-6.54v11.7h1.32V180h-1v-2.42h-9.23V165h1v11.7h7V165Z"/></svg>