<svg xmlns="http://www.w3.org/2000/svg" viewBox="0 0 280 220"><title>brun-3-d</title><path d="M0,0H280V220H0Z" fill="none"/><path d="M84.27,29.19c13.16-8.88,26.12-19,42.17-20.8,15.81-1.79,30.73,6,46,11.06,15.94,5.22,36.73,5,45.57,19,9.05,14.41-4.72,32.57-2.77,49.23C217,103,229.84,115.88,228.89,131.2a78.29,78.29,0,0,1-19.2,46.73c-12.29,13.86-28.52,26.2-47.37,28.2-18.59,1.9-35.23-11-52.83-17.78s-39-7.77-50.92-22.08-9.63-34.85-11.69-53.09c-2-17.27-7.43-35.27-.47-51,6.94-15.46,23.72-23.46,37.86-33Z" fill="none" stroke="#fff" stroke-width="1.01"/><path d="M119.31,102.9a8.07,8.07,0,0,1,3.67-1.83c1.43-.14,2.67.53,4,1s3.24.41,4,1.7-.37,2.85-.25,4.31,1.27,2.43,1.21,3.81a6.86,6.86,0,0,1-1.65,4.1,6.49,6.49,0,0,1-4.15,2.44c-1.62.19-3.06-1-4.62-1.52s-3.39-.73-4.39-1.93-.79-3-1-4.62-.6-3.08,0-4.41,2-2.19,3.22-3Z" fill="none" stroke="#fff" stroke-width="1.01"/><path d="M126.31,12.72C111,14.44,98.57,24.18,86,32.71,72.39,41.84,56.39,49.44,49.81,64.28c-6.66,15-1.55,32.25.35,48.73,2,17.51-.3,37,11.21,50.8S93.2,178.53,110.09,185s32.77,18.85,50.62,17c18-1.91,33.48-13.73,45.29-27a74.4,74.4,0,0,0,18.4-44.64c.89-14.61-11.42-27-13.11-41.62-1.89-15.93,11.32-33.3,2.65-47.13-8.46-13.45-28.38-13.26-43.55-18.22-14.75-4.85-28.95-12.35-44.08-10.67Z" fill="#e7e4df"/><path d="M126.17,17.18c-14.62,1.61-26.52,10.93-38.56,19-13,8.72-28.26,16-34.53,30.12-6.42,14.37-1.43,30.82.36,46.5,2,16.67-.22,35.41,10.73,48.53s30.47,14,46.46,20.21,31.24,18,48.28,16.2c17.23-1.81,32-13.05,43.22-25.75a70.77,70.77,0,0,0,17.55-42.63c.89-13.95-10.85-25.76-12.48-39.68-1.77-15.26,10.76-31.86,2.46-45-8.07-12.86-27.08-12.63-41.64-17.4-13.85-4.57-27.47-11.77-41.85-10.14Z" fill="none" stroke="#fff" stroke-width="1.01"/><path d="M126,21.57C112,23.08,100.79,32,89.34,39.72,77,48,62.38,55,56.41,68.45c-6,13.63-1.36,29.32.37,44.28,1.83,15.86-.26,33.65,10.12,46.23s29,13.32,44.27,19.19,29.77,17.14,46,15.35c16.42-1.72,30.42-12.5,41.13-24.53A67.53,67.53,0,0,0,215,128.35c.78-13.29-10.34-24.5-11.9-37.81-1.71-14.52,10.26-30.34,2.4-42.82-7.64-12.22-25.78-12-39.62-16.58C152.64,26.87,139.73,20.11,126,21.57Z" fill="none" stroke="#fff" stroke-width="1.01"/><path d="M125.84,26c-13.19,1.46-24,9.88-34.84,17.26C79.29,51.12,65.47,57.76,59.74,70.57c-5.81,13-1.36,27.88.31,42.1,1.78,15-.23,32,9.65,43.83s27.57,12.68,42.07,18.29,28.31,16.2,43.73,14.62c15.61-1.62,28.95-11.87,39.06-23.31a64,64,0,0,0,15.91-38.65c.78-12.63-9.88-23.31-11.32-35.94-1.65-13.79,9.7-28.78,2.28-40.73-7.25-11.63-24.53-11.45-37.66-15.7-12.66-4.09-24.86-10.53-37.93-9Z" fill="none" stroke="#fff" stroke-width="1.01"/><path d="M125.64,30.42c-12.57,1.41-22.69,9.41-33,16.32C81.55,54.21,68.43,60.5,63.08,72.58c-5.5,12.3-1.36,26.42.25,39.91C65,126.83,63.12,142.78,72.5,154s26.15,12.05,39.81,17.33c13.84,5.35,26.84,15.38,41.4,13.82s27.41-11.19,37-22a61.1,61.1,0,0,0,15.12-36.57c.72-11.91-9.31-22.1-10.69-34-1.58-13.06,9.2-27.26,2.15-38.51-6.94-11-23.22-10.83-35.63-14.89-12-4.07-23.66-10.15-36-8.78Z" fill="none" stroke="#fff" stroke-width="1.01"/><path d="M125.51,34.87c-11.89,1.31-21.42,8.83-31.17,15.43-10.47,7.06-22.88,13-28,24.45-5.19,11.61-1.17,24.94.33,37.64,1.61,13.49-.19,28.6,8.63,39.2S100,162.93,113,168s25.32,14.49,39.12,13.09,25.89-10.64,35-20.8a57.88,57.88,0,0,0,14.26-34.55c.67-11.32-8.8-20.84-10.11-32.13-1.45-12.39,8.7-25.75,2-36.42-6.51-10.34-21.93-10.21-33.74-14.08-11.32-3.81-22.35-9.53-34-8.2Z" fill="none" stroke="#fff" stroke-width="1.01"/><path d="M125.31,39.26c-11.14,1.27-20.2,8.3-29.36,14.54-9.82,6.65-21.53,12.26-26.34,23-4.89,10.92-1.1,23.44.27,35.46,1.49,12.7-.17,26.92,8.16,36.92s23.23,10.71,35.4,15.41,23.85,13.67,36.79,12.29,24.35-9.95,33-19.63a54.65,54.65,0,0,0,13.41-32.53c.67-10.66-8.3-19.58-9.53-30.26-1.35-11.59,8.19-24.24,1.91-34.32-6.12-9.76-20.62-9.59-31.71-13.26-10.55-3.43-20.93-8.89-31.95-7.61Z" fill="none" stroke="#fff" stroke-width="1.01"/><path d="M125.17,43.72c-10.45,1.16-18.92,7.84-27.49,13.6C88.39,63.54,77.46,68.75,73,78.87s-1.1,22,.27,33.23c1.33,11.84-.26,25.22,7.56,34.63s21.76,10,33.21,14.38,22.38,12.85,34.51,11.57,22.87-9.34,30.87-18.41A51.22,51.22,0,0,0,192,123.75c.61-9.94-7.78-18.44-9-28.39-1.28-10.86,7.7-22.73,1.79-32.1-5.74-9.18-19.38-9-29.69-12.44-9.95-3.25-19.63-8.27-30-7.1Z" fill="none" stroke="#fff" stroke-width="1.01"/><path d="M125,48.11c-9.77,1-17.64,7.25-25.7,12.71-8.63,5.81-18.85,10.67-23,20.1s-1,20.5.29,31c1.26,11.1-.19,23.6,7.13,32.29s20.34,9.37,31,13.48,20.85,12,32.17,10.77,21.28-8.72,28.79-17.19a47.76,47.76,0,0,0,11.76-28.43c.56-9.34-7.27-17.18-8.32-26.45-1.22-10.14,7.2-21.22,1.67-30C175.43,57.79,162.71,58,153,54.76c-9.29-3-18.38-7.71-28-6.65Z" fill="none" stroke="#fff" stroke-width="1.01"/><path d="M124.78,52.5c-9,1-16.36,6.79-23.82,11.76-8,5.41-17.5,9.92-21.4,18.72s-.91,19.06.29,28.77c1.2,10.38-.17,21.92,6.59,30.06s18.85,8.67,28.75,12.52,19.38,11.13,29.89,10,19.81-8.1,26.77-15.9a44.28,44.28,0,0,0,10.91-26.42c.5-8.62-6.76-15.91-7.74-24.58-1.09-9.46,6.69-19.7,1.6-27.85-5-7.89-16.77-7.78-25.76-10.8-8.68-2.93-17.12-7.28-26.08-6.32Z" fill="none" stroke="#fff" stroke-width="1.01"/><path d="M124.64,57c-8.34.9-15.15,6.25-22,10.87C95.23,72.76,86.48,77,82.89,85.1s-.84,17.56.23,26.6c1.15,9.52-.15,20.23,6,27.71s17.43,8,26.62,11.56,17.85,10.25,27.62,9.2,18.21-7.49,24.69-14.68a40.32,40.32,0,0,0,10.06-24.4c.5-8-6.19-14.72-7.16-22.71-1-8.73,6.19-18.2,1.41-25.7-4.61-7.31-15.52-7.23-23.8-9.93-7.9-2.66-15.69-6.76-24-5.79Z" fill="none" stroke="#fff" stroke-width="1.01"/><path d="M124.45,61.35c-7.72.85-13.87,5.67-20.22,10-6.81,4.57-14.78,8.41-18.07,15.82s-.78,16.19.24,24.37c1,8.73-.12,18.55,5.57,25.43s16,7.34,24.36,10.6S132.71,157,141.67,156s16.74-6.86,22.61-13.46a37,37,0,0,0,9.21-22.38c.51-7.3-5.68-13.45-6.53-20.77-1-8,5.63-16.63,1.3-23.6-4.23-6.73-14.16-6.66-21.83-9.18-7.25-2.41-14.39-6.13-22-5.27Z" fill="none" stroke="#fff" stroke-width="1.01"/><path d="M124.37,65.75c-7,.81-12.59,5.21-18.34,9C99.87,79,92.61,82.44,89.62,89.17s-.71,14.68.18,22.19c.8,7.92-.22,16.85,5,23.08s14.52,6.7,22.1,9.63,14.85,8.54,23,7.67,15.27-6.24,20.61-12.29a34.27,34.27,0,0,0,8.41-20.3c.38-6.65-5.23-12.26-6-18.9-.92-7.27,5.12-15.12,1.23-21.44-3.85-6.15-12.92-6-19.87-8.3-6.66-2.11-13.16-5.46-20-4.76Z" fill="none" stroke="#fff" stroke-width="1.01"/><path d="M124.18,70.14c-6.29.71-11.38,4.68-16.55,8.15-5.5,3.75-12.11,6.83-14.8,13s-.65,13.19.19,20c.8,7.14-.08,15.18,4.55,20.8s13,6,20,8.67,13.39,7.72,20.73,6.95,13.68-5.63,18.52-11.08a30.89,30.89,0,0,0,7.56-18.28c.39-6-4.66-11-5.37-17-.73-6.53,4.63-13.6,1.05-19.29-3.41-5.49-11.62-5.36-17.85-7.48-6-2-11.84-5-18-4.36Z" fill="none" stroke="#fff" stroke-width="1.01"/><path d="M124,74.6c-5.6.6-10.1,4.21-14.68,7.21-5,3.32-10.75,6.07-13.19,11.47s-.59,11.8.13,17.79c.74,6.4-.06,13.49,4.07,18.52s11.62,5.35,17.7,7.7,11.92,6.89,18.4,6.15,12.2-5,16.44-9.85a27.49,27.49,0,0,0,6.71-16.27c.33-5.27-4.15-9.79-4.8-15.16-.67-5.8,4.13-12.09,1-17.13s-10.31-4.85-15.89-6.6C134.7,76.72,129.52,74,124,74.6Z" fill="none" stroke="#fff" stroke-width="1.01"/><path d="M123.84,79C119,79.55,115,82.62,111,85.31c-4.32,2.91-9.4,5.31-11.53,10s-.45,10.26.14,15.56c.69,5.56,0,11.81,3.53,16.17s10.14,4.66,15.5,6.8,10.4,6,16.12,5.42,10.67-4.33,14.42-8.56A23.67,23.67,0,0,0,155,116.47c.28-4.67-3.57-8.58-4.16-13.22-.61-5.07,3.57-10.64.8-15s-9-4.23-13.86-5.78c-4.6-1.64-9.15-4-13.94-3.5Z" fill="none" stroke="#fff" stroke-width="1.01"/><path d="M123.7,83.45c-4.17.45-7.6,3.09-11,5.49-3.67,2.5-8.1,4.61-9.93,8.63s-.45,8.81.09,13.27c.57,4.76-.07,10,3.05,13.89s8.72,4,13.31,5.78,9,5.13,13.78,4.62,9.14-3.77,12.34-7.34a20.46,20.46,0,0,0,5-12.23c.21-4-3.13-7.39-3.59-11.36-.55-4.34,3.07-9.13.68-12.88s-7.7-3.61-11.89-5C131.7,85,127.75,83,123.7,83.45Z" fill="none" stroke="#fff" stroke-width="1.01"/><path d="M123.51,87.84c-3.48.34-6.33,2.63-9.15,4.55-3.13,2.07-6.74,3.85-8.26,7.18s-.33,7.38.1,11c.45,4-.11,8.42,2.51,11.54s7.24,3.31,11.05,4.81,7.47,4.24,11.5,3.9,7.6-3.1,10.27-6.12a16.57,16.57,0,0,0,4.2-10.15c.23-3.29-2.61-6.13-3-9.49-.42-3.66,2.57-7.61.62-10.72s-6.46-3-9.94-4.15c-3.24-1.07-6.42-2.74-9.9-2.39Z" fill="none" stroke="#fff" stroke-width="1.01"/><path d="M123.37,92.29c-2.81.36-5.05,2-7.34,3.67-2.49,1.65-5.39,3.09-6.6,5.73s-.26,5.88,0,8.86c.35,3.17-.08,6.74,2,9.26s5.81,2.68,8.91,3.86,6,3.42,9.23,3,6.13-2.47,8.26-5a13.34,13.34,0,0,0,3.35-8.14c.17-2.69-2-4.92-2.37-7.55-.36-2.93,2.07-6.1.43-8.57s-5.15-2.42-7.91-3.32-5.29-2.2-8-1.9Z" fill="none" stroke="#fff" stroke-width="1.01"/><path d="M123.18,96.68c-2.12.26-3.78,1.58-5.48,2.72s-4.08,2.27-4.93,4.29-.19,4.38,0,6.63-.06,5.06,1.56,7,4.38,2,6.65,2.89,4.47,2.53,7,2.32a11,11,0,0,0,8.68-9.85c.11-2-1.53-3.66-1.79-5.67s1.5-4.54.37-6.41-3.85-1.8-5.95-2.45-4-1.65-6.1-1.45Z" fill="none" stroke="#fff" stroke-width="1.01"/><path d="M4.63,111.48v-7.42l15-15.62c2.62-2.69,4.54-5.31,4.54-7.93a4.45,4.45,0,0,0-4.8-4.74c-3.13,0-5.37,2-6.59,4.86l-8.64-5a16,16,0,0,1,15.1-9.79c8,0,15.17,5.24,15.17,14.27,0,5.37-2.88,10-7,14.08l-7.43,7.49h15v9.85ZM41.18,97V87.74H74.46V97ZM96.52,82.43c8.32,0,15.36,5.12,15.36,15s-7.68,15-16.32,15c-7.1,0-13.25-3-16-9.6l8.83-5.12c1,2.94,3,4.73,7.17,4.73s6.08-2.24,6.08-5-1.85-5-5.76-5h-14l1.85-25.73h25.92v9.6H93.32l-.45,6.15Zm65.91,20.09h4.16v17.54h-9.34v-8.58h-17.8v8.58h-9.34V102.52h4c1.6-2.49,2.56-5.57,2.56-11.07v-12h25.79v23Zm-18.3,0h9V88.06H146v3.39A28.19,28.19,0,0,1,144.13,102.52Zm47.72-23h9.6v32h-9.6V100H181v11.52h-9.6v-32H181V91h10.89Zm25.22,19.84c1.21,3.33,4.16,4.48,7.68,4.48a8.34,8.34,0,0,0,6.14-2.43l7.68,4.42c-3.14,4.35-7.87,6.59-13.95,6.59-11,0-17.73-7.36-17.73-16.9s6.91-16.89,17-16.89c9.35,0,16.26,7.23,16.26,16.89a18.94,18.94,0,0,1-.38,3.84Zm-.2-7.17h13.76a6.58,6.58,0,0,0-6.78-5.05C220.2,87.1,217.77,88.89,216.87,92.15Zm34.18-16.44V67.39h19.21v8.32Zm17.6,3.77h7.05v32h-9.35v-16l-13.7,16h-7v-32H255v16Zm-255,62.61v11.7H15v3.31H14v-2.42H4.52v2.42h-1v-3.31h1a6.65,6.65,0,0,0,1.3-4.52v-7.19h7.77ZM6.8,143v6.3a7.84,7.84,0,0,1-1.11,4.5h7V143ZM16,154.68v-.84a2,2,0,0,0,2-.88,7,7,0,0,0,.68-3.62v-7.25h8v12.6h-1V143H19.64v6.37a7.41,7.41,0,0,1-.91,4.23,2.85,2.85,0,0,1-2.76,1.1Zm23.05,0h-1V143.85l-7.45,10.83h-.83v-12.6h1v10.84l7.43-10.84H39Zm2-12.6h8.89v.9h-4v11.7H45V143H41Zm16,12.8a6.36,6.36,0,0,1-6.55-6.5,6.26,6.26,0,0,1,1.85-4.6,6.35,6.35,0,0,1,4.7-1.89,6.19,6.19,0,0,1,3.17.82,5.82,5.82,0,0,1,2.23,2.2l-.84.49a4.73,4.73,0,0,0-1.86-1.88,5.15,5.15,0,0,0-2.7-.72,5.45,5.45,0,0,0-5.6,5.58,5.52,5.52,0,0,0,1.57,4,5.46,5.46,0,0,0,4,1.6,5.23,5.23,0,0,0,2.7-.72,4.72,4.72,0,0,0,1.89-1.92l.85.48a5.79,5.79,0,0,1-2.25,2.25A6.26,6.26,0,0,1,57,154.88Zm10.68-12.8h5v12.6h-1v-5.16H68.22l-3.56,5.16H63.58l3.58-5.2a3.69,3.69,0,0,1-3.22-3.67,3.72,3.72,0,0,1,3.71-3.73Zm0,6.54h4V143h-4a2.62,2.62,0,0,0-1.94.83,2.69,2.69,0,0,0-.81,2,2.76,2.76,0,0,0,.81,2A2.62,2.62,0,0,0,67.65,148.62Zm23.1-6.54H92v12.6H91V143.49l-4.67,7.74h-.16l-4.66-7.74v11.19h-1v-12.6h1.19l4.5,7.46ZM105.47,153a6.54,6.54,0,1,1,1.89-4.61A6.28,6.28,0,0,1,105.47,153Zm-8.55-.64a5.35,5.35,0,0,0,3.94,1.61,5.28,5.28,0,0,0,3.93-1.61,5.49,5.49,0,0,0,1.62-4,5.37,5.37,0,0,0-1.62-3.94,5.27,5.27,0,0,0-3.93-1.64,5.34,5.34,0,0,0-3.94,1.64,5.43,5.43,0,0,0-1.6,3.94A5.51,5.51,0,0,0,96.92,152.35Zm21.14-4.59v-5.67h1v12.6h-1v-6h-7.33v6h-1v-12.6h1v5.67Zm2.93-5.67h8.89v.9h-4v11.69h-1V143h-4v-.9Zm19.46,12.6h-1l-1.22-3.21H131.9l-1.23,3.21h-1l4.89-12.6h1l4.88,12.6Zm-5.38-11.43-2.81,7.32h5.61Zm14.61,5,5.72,6.47h-1.13l-5.54-6.24v6.24h-1v-6.24l-5.54,6.24h-1.13l5.72-6.47-5.54-6.12h1.13l5.36,5.88v-5.88h1V148l5.36-5.88h1.13l-5.54,6.12ZM13.62,164.09v11.7H15v3.31H14v-2.42H4.52v2.42h-1v-3.31h1a6.65,6.65,0,0,0,1.3-4.52v-7.19h7.77ZM6.8,165v6.3a7.84,7.84,0,0,1-1.11,4.5h7V165Zm20.62,10a6.26,6.26,0,0,1-4.6,1.89,6.5,6.5,0,1,1,0-13,6.47,6.47,0,0,1,6.49,6.49A6.31,6.31,0,0,1,27.42,175Zm-8.55-.64A5.37,5.37,0,0,0,22.82,176a5.26,5.26,0,0,0,3.92-1.61,5.49,5.49,0,0,0,1.62-4,5.37,5.37,0,0,0-1.62-3.94,5.25,5.25,0,0,0-3.92-1.64,5.36,5.36,0,0,0-3.95,1.64,5.47,5.47,0,0,0-1.6,3.94A5.55,5.55,0,0,0,18.87,174.35Zm23.05-10.26h1.21v12.6h-1v-11.2l-4.66,7.74h-.16l-4.66-7.74v11.2h-1v-12.6h1.19l4.5,7.45Zm13.82,12.6h-1l-1.22-3.21H47.19L46,176.69H45l4.89-12.6h1Zm-5.38-11.43-2.81,7.32h5.61Z"/></svg>