<svg xmlns="http://www.w3.org/2000/svg" viewBox="0 0 97 90"><title>brun-1-m</title><path d="M0,0H97V90H0Z" fill="none"/><path d="M45,6c6.57.52,13.42.59,19,4s8.1,9.53,11.6,14.88c3.67,5.59,10.34,10.7,9.39,17.25-1,6.73-10.24,8.94-14.09,14.6-3.53,5.18-2.89,12.4-7.31,16.92A34,34,0,0,1,45,83.38c-7.63,1.24-16.1,1-22.63-3s-8.27-12.18-12-18.67S0,49.56,0,42.13,6.28,28.91,10.52,22.74c4-5.87,7.1-12.81,13.53-15.95S37.89,5.41,45,6Z" fill="none" stroke="#fff" stroke-width="0.41"/><path d="M36.4,37.51a3.42,3.42,0,0,1,1.66.34,3.7,3.7,0,0,1,1,1.32c.32.48.92.93.81,1.51s-.88.8-1.24,1.28-.21,1-.63,1.49a3,3,0,0,1-1.63.86,2.79,2.79,0,0,1-2-.28c-.57-.34-.71-1.07-1.06-1.62s-.89-1.07-.89-1.69.57-1.14.92-1.69a3.71,3.71,0,0,1,1.17-1.38A3.29,3.29,0,0,1,36.4,37.51Z" fill="none" stroke="#fff" stroke-width="0.41"/><path d="M62.75,11.31C57.41,8,50.85,8,44.56,7.48c-6.78-.55-13.91-2.17-20,.8s-9.15,9.63-13,15.22C7.5,29.43,1.56,34.92,1.49,42.07s6.18,12.49,9.82,18.7,5.37,14,11.55,17.88,14.33,4.07,21.64,2.9a32.33,32.33,0,0,0,17.83-9.28c4.21-4.32,3.6-11.22,7-16.19,3.68-5.42,12.54-7.53,13.49-14,.92-6.28-5.47-11.18-9-16.5S68,14.56,62.75,11.31Z" fill="#e7e4df"/><path d="M61.51,12.66C56.42,9.52,50.14,9.45,44.14,9c-6.46-.52-13.28-2.08-19.07.76S16.35,19,12.71,24.29C8.86,29.92,3.14,35.2,3.11,42S9,53.94,12.46,59.84s5.12,13.36,11,17,13.67,3.9,20.66,2.76a30.68,30.68,0,0,0,17-8.87c4-4.11,3.46-10.7,6.67-15.43,3.53-5.17,12-7.21,12.85-13.35S75.46,31.33,72.1,26.22C68.92,21.36,66.52,15.73,61.51,12.66Z" fill="none" stroke="#fff" stroke-width="0.41"/><path d="M60.27,14c-4.83-3-10.8-3-16.52-3.49-6.15-.51-12.68-2-18.19.73S17.27,20,13.81,25.05C10.13,30.43,4.7,35.44,4.63,41.93s5.65,11.35,8.93,17,4.87,12.74,10.52,16.22,13,3.69,19.67,2.62A29.33,29.33,0,0,0,60,69.3c3.81-3.94,3.28-10.18,6.35-14.71,3.36-4.93,11.41-6.86,12.26-12.7s-5-10.14-8.16-15C67.34,22.25,65,16.94,60.27,14Z" fill="none" stroke="#fff" stroke-width="0.41"/><path d="M59,15.32c-4.59-2.83-10.28-2.9-15.71-3.32-5.83-.48-12-1.86-17.27.69S18.15,21,14.87,25.84c-3.46,5.11-8.65,9.87-8.69,16S11.55,52.66,14.65,58s4.66,12.08,10,15.43S37,77,43.33,75.93a27.89,27.89,0,0,0,15.43-8.05c3.63-3.72,3.1-9.7,6-14C68,49.21,75.6,47.38,76.45,41.82s-4.74-9.66-7.77-14.25c-2.93-4.42-5.09-9.46-9.64-12.25Z" fill="none" stroke="#fff" stroke-width="0.41"/><path d="M57.8,16.63c-4.38-2.69-9.74-2.73-14.86-3.14-5.55-.45-11.41-1.76-16.35.65S19.07,22,16,26.6C12.64,31.47,7.77,36,7.73,41.79s5.09,10.25,8,15.29,4.41,11.46,9.46,14.6S36.94,75,42.9,74.06a26.52,26.52,0,0,0,14.62-7.59c3.42-3.52,3-9.18,5.72-13.22,3-4.45,10.24-6.18,11-11.43s-4.49-9.14-7.35-13.49-4.8-9-9.11-11.7Z" fill="none" stroke="#fff" stroke-width="0.41"/><path d="M56.57,18c-4.13-2.55-9.18-2.58-14.06-3-5.22-.42-10.77-1.66-15.46.62s-7,7.46-10,11.78C14,32,9.32,36.23,9.29,41.72s4.8,9.66,7.59,14.46S21.05,67,25.81,70s11.09,3.14,16.7,2.24a25.15,25.15,0,0,0,13.81-7.18c3.25-3.35,2.79-8.66,5.4-12.49,2.86-4.21,9.68-5.83,10.42-10.81s-4.24-8.62-7-12.77c-2.58-4-4.55-8.52-8.61-11Z" fill="none" stroke="#fff" stroke-width="0.41"/><path d="M55.33,19.29c-3.88-2.39-8.65-2.45-13.24-2.8-4.91-.38-10.13-1.55-14.55.59s-6.64,7-9.43,11.08c-2.93,4.31-7.27,8.31-7.31,13.49s4.52,9.11,7.14,13.6,3.92,10.18,8.4,13,10.42,3,15.75,2.1a23.67,23.67,0,0,0,13-6.76c3.08-3.14,2.62-8.15,5.09-11.77,2.68-3.94,9.11-5.49,9.82-10.18s-4-8.11-6.54-12c-2.43-3.7-4.27-8-8.12-10.32Z" fill="none" stroke="#fff" stroke-width="0.41"/><path d="M54.1,20.63C50.46,18.39,46,18.35,41.7,18c-4.62-.38-9.5-1.49-13.63.55S21.82,25.12,19.24,29c-2.75,4-6.85,7.77-6.88,12.63s4.24,8.53,6.71,12.74,3.67,9.56,7.87,12.18,9.78,2.8,14.76,2A22.24,22.24,0,0,0,53.88,62.2c2.86-2.93,2.48-7.66,4.77-11,2.51-3.69,8.54-5.14,9.18-9.52s-3.74-7.63-6.11-11.25S57.7,22.84,54.1,20.63Z" fill="none" stroke="#fff" stroke-width="0.41"/><path d="M52.86,21.94c-3.39-2.1-7.56-2.14-11.58-2.45-4.31-.34-8.86-1.38-12.71.52s-5.83,6.11-8.23,9.7C17.76,33.47,14,37,14,41.51s3.95,8,6.25,11.91,3.42,8.91,7.34,11.36,9.11,2.59,13.77,1.83A20.76,20.76,0,0,0,52.68,60.7c2.69-2.76,2.3-7.14,4.45-10.28,2.33-3.45,8-4.8,8.58-8.91S62.22,34.4,60,31s-3.78-7-7.13-9Z" fill="none" stroke="#fff" stroke-width="0.41"/><path d="M51.62,23.25c-3.14-1.93-7-2-10.73-2.27-4-.31-8.23-1.28-11.83.48s-5.4,5.69-7.63,9c-2.4,3.52-5.93,6.76-6,11s3.67,7.39,5.79,11S24.4,60.79,28,63.07s8.48,2.42,12.78,1.73a19.26,19.26,0,0,0,10.56-5.49c2.47-2.56,2.12-6.63,4.13-9.56,2.19-3.21,7.42-4.45,8-8.25s-3.24-6.59-5.29-9.77S54.73,25.19,51.62,23.25Z" fill="none" stroke="#fff" stroke-width="0.41"/><path d="M50.39,24.6c-2.9-1.79-6.5-1.83-9.92-2.1-3.68-.31-7.6-1.18-10.91.44s-5,5.25-7.07,8.32C20.3,34.51,17,37.51,17,41.38s3.39,6.83,5.37,10.21,2.93,7.63,6.32,9.74,7.81,2.2,11.8,1.58a17.49,17.49,0,0,0,9.74-5.07c2.3-2.35,2-6.11,3.81-8.84,2-3,6.85-4.1,7.35-7.62s-3-6.11-4.91-9S53.28,26.36,50.39,24.6Z" fill="none" stroke="#fff" stroke-width="0.41"/><path d="M49.15,25.91C46.47,24.26,43.22,24.22,40,24c-3.39-.28-7-1.07-10,.41S25.46,29.23,23.59,32c-2,3-5,5.73-5.05,9.29s3.1,6.24,4.91,9.35,2.68,7,5.79,8.94S36.4,61.58,40,61a16,16,0,0,0,9-4.64c2.12-2.14,1.81-5.59,3.5-8.08,1.84-2.72,6.25-3.76,6.74-7S56.5,35.71,54.73,33s-2.93-5.49-5.58-7.11Z" fill="none" stroke="#fff" stroke-width="0.41"/><path d="M48,27.26c-2.44-1.49-5.4-1.52-8.26-1.76-3.07-.24-6.32-1-9.08.38s-4.16,4.38-5.89,6.94S20.13,38,20.13,41.24s2.82,5.69,4.45,8.49,2.43,6.35,5.26,8.11,6.53,1.86,9.85,1.31a14.86,14.86,0,0,0,8.12-4.21c1.91-2,1.62-5.11,3.18-7.35,1.66-2.49,5.68-3.42,6.14-6.35S54.62,36.16,53,33.71,50.32,28.74,48,27.26Z" fill="none" stroke="#fff" stroke-width="0.41"/><path d="M46.72,28.57c-2.19-1.35-4.88-1.38-7.46-1.59-2.75-.2-5.68-.9-8.19.35s-3.74,3.93-5.29,6.24-4.1,4.7-4.14,7.6,2.55,5.11,4,7.66,2.19,5.73,4.73,7.32,5.86,1.65,8.86,1.17a13.46,13.46,0,0,0,7.31-3.8c1.73-1.76,1.49-4.59,2.86-6.62,1.52-2.21,5.12-3.07,5.51-5.73s-2.26-4.56-3.67-6.77S48.83,29.92,46.72,28.57Z" fill="none" stroke="#fff" stroke-width="0.41"/><path d="M45.48,29.92c-1.94-1.21-4.34-1.21-6.6-1.42-2.48-.21-5.05-.79-7.28.28s-3.35,3.52-4.73,5.55-3.64,4.18-3.67,6.77,2.26,4.56,3.57,6.8S28.71,53,31,54.39a11.39,11.39,0,0,0,7.87,1A12,12,0,0,0,45.34,52c1.52-1.55,1.31-4.07,2.54-5.9s4.56-2.73,4.91-5.08-2-4.07-3.28-6-2.12-4-4-5.14Z" fill="none" stroke="#fff" stroke-width="0.41"/><path d="M44.24,31.23c-1.69-1-3.77-1.07-5.79-1.24s-4.41-.69-6.35.24S29.2,33.3,28,35.09,24.79,38.75,24.75,41s2,4,3.11,6,1.69,4.45,3.67,5.69a10,10,0,0,0,6.89.93,10.27,10.27,0,0,0,5.68-3c1.34-1.38,1.17-3.56,2.23-5.15s4-2.41,4.27-4.45-1.73-3.56-2.86-5.25S45.9,32.26,44.24,31.23Z" fill="none" stroke="#fff" stroke-width="0.41"/><path d="M43,32.57a10.2,10.2,0,0,0-5-1c-1.75-.07-3.81-.59-5.47.21S30.05,34.37,29,35.89,26.31,39,26.27,41,28,44.38,29,46.07s1.49,3.83,3.15,4.87a8.66,8.66,0,0,0,5.89.79,8.91,8.91,0,0,0,4.88-2.55c1.13-1.18,1-3.08,1.9-4.42s3.43-2.07,3.68-3.83-1.5-3-2.5-4.52S44.42,33.44,43,32.57Z" fill="none" stroke="#fff" stroke-width="0.41"/><path d="M41.77,33.89A8.92,8.92,0,0,0,37.64,33c-1.55-.14-3.18-.48-4.55.18S31,35.4,30.15,36.65s-2.29,2.59-2.29,4.21,1.41,2.83,2.22,4.24,1.24,3.18,2.62,4.08a7.06,7.06,0,0,0,4.9.65,7.23,7.23,0,0,0,4.07-2.1c.95-1,.81-2.56,1.59-3.7s2.86-1.72,3.07-3.17-1.24-2.56-2-3.76S43,34.65,41.77,33.89Z" fill="none" stroke="#fff" stroke-width="0.41"/><path d="M40.54,35.23a7.18,7.18,0,0,0-3.32-.69c-1.24-.1-2.55-.38-3.64.14s-1.66,1.76-2.37,2.76-1.83,2.07-1.83,3.38,1.13,2.28,1.8,3.42,1,2.55,2.12,3.24a5.52,5.52,0,0,0,4,.52,5.74,5.74,0,0,0,3.25-1.69c.78-.79.67-2,1.27-2.93s2.3-1.38,2.44-2.56-1-2-1.63-3A8.07,8.07,0,0,0,40.54,35.23Z" fill="none" stroke="#fff" stroke-width="0.41"/><path d="M39.3,36.54A5.3,5.3,0,0,0,36.83,36a5.23,5.23,0,0,0-2.72.1c-.85.41-1.24,1.31-1.77,2.07S31,39.75,31,40.75s.84,1.73,1.34,2.56.74,1.9,1.59,2.45a4.82,4.82,0,0,0,5.44-.9c.56-.59.49-1.52,1-2.21s1.7-1,1.84-1.9-.74-1.51-1.24-2.24a6.06,6.06,0,0,0-1.55-2Z" fill="none" stroke="#fff" stroke-width="0.41"/><path d="M41.2,31A7.63,7.63,0,0,1,40,35.25L33.55,45H28l4.56-6.63a7.55,7.55,0,0,1-5.07-2.28A7.1,7.1,0,0,1,25.6,31a7,7,0,0,1,2.16-5.34,7.93,7.93,0,0,1,5.64-2.07A7.81,7.81,0,0,1,39,25.65,7.09,7.09,0,0,1,41.2,31Zm-9.93-2.1A2.67,2.67,0,0,0,30.4,31a2.76,2.76,0,0,0,.87,2.13,3.3,3.3,0,0,0,4.26,0,3,3,0,0,0,0-4.24l0,0a3.09,3.09,0,0,0-2.13-.78,3,3,0,0,0-2.13.8ZM51.75,30H64V45H59.5V34.32H56.25v4.47q0,3.42-1.71,5A6,6,0,0,1,49.59,45V40.8a1.46,1.46,0,0,0,1.59-.3,2.87,2.87,0,0,0,.57-2ZM82,39.3H71.31c.5,1.4,1.69,2.1,3.59,2.1a3.71,3.71,0,0,0,2.88-1.14l3.6,2.07a7.5,7.5,0,0,1-6.54,3.09,8.29,8.29,0,0,1-6.06-2.25,7.7,7.7,0,0,1-2.25-5.67A7.7,7.7,0,0,1,74,29.58h.53A7.19,7.19,0,0,1,80,31.86a7.7,7.7,0,0,1,2.2,5.64A8.37,8.37,0,0,1,82,39.3ZM71.22,35.94h6.45a3.38,3.38,0,0,0-6.45,0ZM82.75,30h13.5v4.32H91.78V45h-4.5V34.32H82.75ZM27.87,58h5v7h-.54V58.5H28.4V65h-.53Zm6.73,0H37a2.17,2.17,0,0,1,1.61,3.67,2.14,2.14,0,0,1-1.61.66H35.13V65H34.6Zm.53,3.83H37a1.67,1.67,0,0,0,.26-3.33H35.13Zm11.06,2.23a3.62,3.62,0,1,1,1.05-2.56A3.47,3.47,0,0,1,46.19,64.06Zm-4.75-.36a3,3,0,0,0,2.19.9,2.94,2.94,0,0,0,2.18-.9,3,3,0,0,0,.9-2.2,3,3,0,0,0-.9-2.19,2.89,2.89,0,0,0-2.18-.91,3,3,0,0,0-2.19.91A3.15,3.15,0,0,0,41.44,63.7ZM53.71,65h-.53V59L49,65h-.46V58h.53v6l4.13-6h.47Zm4.74-3.62a1.91,1.91,0,0,1,.95.68,1.75,1.75,0,0,1,.35,1.08,1.8,1.8,0,0,1-.65,1.42,2.51,2.51,0,0,1-1.71.55A2.27,2.27,0,0,1,55,63.57l.46-.25a1.77,1.77,0,0,0,2,1.29,2,2,0,0,0,1.33-.4,1.31,1.31,0,0,0,.49-1.07,1.36,1.36,0,0,0-.45-1,1.73,1.73,0,0,0-1.19-.41h-.79v-.5h.56a1.71,1.71,0,0,0,1.17-.39A1.34,1.34,0,0,0,58.69,59a1.14,1.14,0,0,0-.11-.11,1.65,1.65,0,0,0-1.16-.4,1.75,1.75,0,0,0-1.8,1.15l-.44-.25a2.21,2.21,0,0,1,2.24-1.4,2.12,2.12,0,0,1,1.54.55,1.74,1.74,0,0,1,.6,1.35A1.65,1.65,0,0,1,58.45,61.38Zm6.3,0a1.85,1.85,0,0,1,.87.67,1.79,1.79,0,0,1,.38,1A1.91,1.91,0,0,1,64.09,65H61V58h2.79a1.84,1.84,0,0,1,1.6,2.75,1.59,1.59,0,0,1-.64.62Zm-.94-2.87H61.55v2.68h2.26a1.2,1.2,0,0,0,.91-.39,1.26,1.26,0,0,0,.39-.95,1.24,1.24,0,0,0-.39-.94,1.15,1.15,0,0,0-.91-.41Zm-2.26,6H64a1.34,1.34,0,0,0,1-.41,1.45,1.45,0,0,0,.41-1,1.34,1.34,0,0,0-.41-1,1.31,1.31,0,0,0-1-.42H61.55ZM73,64.06A3.61,3.61,0,1,1,73,59a3.64,3.64,0,0,1,1,2.55A3.48,3.48,0,0,1,73,64.06Zm-4.75-.36a3,3,0,0,0,2.2.9,2.94,2.94,0,0,0,2.18-.9,3,3,0,0,0,.9-2.2,3,3,0,0,0-.9-2.19,2.91,2.91,0,0,0-2.18-.91,3.06,3.06,0,0,0-3.08,3v.06a3.07,3.07,0,0,0,.89,2.2ZM80,58v6.5h.74v1.84H80.2V65H75v1.34h-.54V64.5H75a3.67,3.67,0,0,0,.7-2.5V58Zm-3.79.5V62a4.38,4.38,0,0,1-.62,2.5h3.88v-6ZM87.14,65h-.53V59l-4.14,6H82V58h.53v6l4.13-6h.47v7Zm7.4-7h.67v7h-.53V58.78l-2.59,4.3H92l-2.59-4.3V65h-.53V58h.66L92,62.14ZM32.78,70v6.5h.74v1.84H33V77H27.72v1.34h-.54V76.5h.56a3.73,3.73,0,0,0,.72-2.5V70ZM29,70.5V74a4.38,4.38,0,0,1-.62,2.5h3.88v-6Zm11.46,5.56a3.6,3.6,0,1,1,1-2.56,3.47,3.47,0,0,1-1,2.56ZM35.7,75.7a3,3,0,0,0,2.19.9,2.94,2.94,0,0,0,2.18-.9,3,3,0,0,0,.9-2.2,3,3,0,0,0-.9-2.19,2.91,2.91,0,0,0-2.18-.91,3,3,0,0,0-2.19.91A3.15,3.15,0,0,0,35.7,75.7ZM48.5,70h.67v7h-.53V70.78l-2.59,4.3h0l-2.59-4.3V77h-.53V70h.66L46,74.14Zm7.68,7h-.56l-.68-1.78H51.43L50.75,77h-.56l2.72-7h.56Zm-3-6.35-1.56,4.07h3.12Z"/></svg>