<svg xmlns="http://www.w3.org/2000/svg" viewBox="0 0 94 86"><title>brun1-m</title><path d="M45.95,3.463c6.568.518,13.418.587,19,4.038C70.455,10.884,73.1,17.027,76.6,22.377c3.672,5.592,10.346,10.7,9.393,17.258-.989,6.73-10.24,8.939-14.089,14.6-3.531,5.177-2.9,12.391-7.309,16.912A34.061,34.061,0,0,1,45.95,80.881c-7.627,1.242-16.1,1.035-22.634-3.038C16.89,73.805,15.054,65.66,11.275,59.171,7.462,52.682.965,47.056,1,39.635c.035-7.455,6.285-13.219,10.523-19.4,3.99-5.867,7.1-12.8,13.523-15.946C31.4,1.22,38.888,2.911,45.95,3.463Z" fill="none" stroke="#fff" stroke-width="0.413"/><path d="M37.405,35.01a3.4,3.4,0,0,1,1.659.345,3.787,3.787,0,0,1,1.024,1.312c.318.483.918.932.813,1.518-.071.587-.883.794-1.236,1.277-.318.449-.248,1.07-.636,1.485a2.982,2.982,0,0,1-1.624.862,2.783,2.783,0,0,1-1.978-.276c-.565-.345-.706-1.07-1.059-1.622-.318-.552-.883-1.07-.883-1.691,0-.656.565-1.139.918-1.691a3.8,3.8,0,0,1,1.166-1.381A3.315,3.315,0,0,1,37.405,35.01Z" fill="none" stroke="#fff" stroke-width="0.413"/><path d="M63.746,8.813c-5.332-3.279-11.9-3.348-18.184-3.831-6.78-.553-13.913-2.175-19.986.794-6.144,3-9.145,9.629-12.959,15.221C8.557,26.933,2.589,32.421,2.554,39.566c-.035,7.11,6.179,12.495,9.816,18.707s5.367,14.013,11.547,17.879c6.249,3.9,14.335,4.073,21.645,2.9a32.359,32.359,0,0,0,17.831-9.284c4.2-4.315,3.6-11.218,6.991-16.188C74.057,48.16,82.92,46.055,83.873,39.6c.918-6.281-5.473-11.182-8.969-16.5C71.514,17.925,69.007,12.057,63.746,8.813Z" fill="#e7e4df"/><path d="M62.51,10.159c-5.085-3.141-11.37-3.21-17.373-3.693-6.461-.518-13.276-2.071-19.067.759-5.9,2.865-8.722,9.216-12.359,14.531C9.863,27.417,4.142,32.7,4.107,39.5s5.932,11.942,9.357,17.844c3.461,5.937,5.12,13.358,11.017,17.051,5.967,3.728,13.665,3.9,20.656,2.761a30.732,30.732,0,0,0,17.02-8.87c4.025-4.108,3.46-10.7,6.673-15.429C72.362,47.677,80.8,45.641,81.683,39.5c.883-6.006-5.226-10.665-8.58-15.774C69.925,18.857,67.524,13.231,62.51,10.159Z" fill="none" stroke="#fff" stroke-width="0.413"/><path d="M61.274,11.471c-4.837-3-10.8-3.038-16.525-3.486-6.144-.518-12.676-1.968-18.184.724-5.579,2.727-8.3,8.767-11.759,13.841-3.672,5.384-9.11,10.389-9.18,16.878-.036,6.489,5.649,11.355,8.933,16.981,3.319,5.661,4.873,12.737,10.522,16.223,5.685,3.555,13.03,3.693,19.668,2.623A29.338,29.338,0,0,0,60.957,66.8c3.813-3.935,3.283-10.182,6.355-14.7,3.355-4.936,11.405-6.869,12.253-12.7.847-5.695-4.979-10.147-8.157-15.014C68.336,19.754,66.041,14.439,61.274,11.471Z" fill="none" stroke="#fff" stroke-width="0.413"/><path d="M60.039,12.817C55.448,9.986,49.763,9.917,44.326,9.5,38.5,9.02,32.32,7.639,27.059,10.194c-5.332,2.588-7.91,8.318-11.193,13.15-3.461,5.108-8.651,9.871-8.687,16.015s5.368,10.8,8.475,16.153C18.8,60.9,20.315,67.592,25.646,70.94c5.4,3.383,12.394,3.521,18.68,2.485a27.8,27.8,0,0,0,15.43-8.042c3.637-3.727,3.107-9.7,6.038-13.978,3.178-4.694,10.805-6.524,11.652-12.081.813-5.419-4.731-9.664-7.768-14.254C66.747,20.652,64.594,15.612,60.039,12.817Z" fill="none" stroke="#fff" stroke-width="0.413"/><path d="M58.8,14.128c-4.379-2.692-9.746-2.726-14.866-3.141-5.543-.448-11.4-1.76-16.348.656-5.05,2.451-7.521,7.87-10.629,12.46C13.641,28.97,8.768,33.457,8.733,39.29s5.085,10.251,8.016,15.29c2.966,5.108,4.413,11.459,9.463,14.6,5.084,3.176,11.723,3.348,17.69,2.382A26.562,26.562,0,0,0,58.52,63.968c3.425-3.52,2.966-9.181,5.721-13.219,3-4.453,10.239-6.178,11.016-11.425.742-5.142-4.484-9.146-7.344-13.495C65.194,21.584,63.111,16.786,58.8,14.128Z" fill="none" stroke="#fff" stroke-width="0.413"/><path d="M57.567,15.474c-4.131-2.554-9.181-2.588-14.053-2.968-5.226-.414-10.77-1.657-15.466.621-4.767,2.313-7.062,7.456-9.993,11.77-3.107,4.591-7.733,8.836-7.768,14.324s4.8,9.664,7.591,14.462c2.825,4.8,4.167,10.8,8.934,13.806,4.8,3,11.087,3.141,16.7,2.243A25.154,25.154,0,0,0,57.32,62.553c3.248-3.348,2.789-8.663,5.4-12.494,2.86-4.211,9.675-5.833,10.417-10.8.706-4.832-4.238-8.628-6.956-12.77C63.605,22.481,61.628,17.959,57.567,15.474Z" fill="none" stroke="#fff" stroke-width="0.413"/><path d="M56.331,16.786c-3.884-2.382-8.651-2.451-13.241-2.8-4.909-.38-10.134-1.553-14.548.587-4.484,2.174-6.638,7.006-9.428,11.079-2.931,4.315-7.274,8.318-7.309,13.5s4.52,9.112,7.133,13.6c2.648,4.521,3.919,10.182,8.4,12.977,4.52,2.831,10.417,2.969,15.749,2.106a23.758,23.758,0,0,0,12.994-6.765c3.072-3.141,2.613-8.146,5.084-11.77,2.684-3.935,9.11-5.488,9.817-10.182.671-4.556-3.991-8.111-6.533-12.011C62.016,23.413,60.18,19.133,56.331,16.786Z" fill="none" stroke="#fff" stroke-width="0.413"/><path d="M55.1,18.132c-3.637-2.243-8.121-2.278-12.393-2.623-4.626-.38-9.5-1.484-13.63.552-4.2,2.036-6.25,6.558-8.828,10.389-2.754,4-6.85,7.766-6.885,12.633,0,4.832,4.237,8.525,6.709,12.736C22.539,56.064,23.74,61.38,27.942,64c4.237,2.658,9.781,2.8,14.76,1.967a22.219,22.219,0,0,0,12.181-6.351c2.861-2.933,2.472-7.662,4.767-11.045,2.507-3.693,8.545-5.142,9.181-9.526.636-4.28-3.743-7.628-6.109-11.252C60.427,24.31,58.7,20.341,55.1,18.132Z" fill="none" stroke="#fff" stroke-width="0.413"/><path d="M53.859,19.444c-3.39-2.106-7.556-2.14-11.581-2.451-4.308-.345-8.863-1.381-12.712.518-3.92,1.9-5.826,6.109-8.227,9.7-2.578,3.762-6.391,7.282-6.391,11.8-.036,4.521,3.954,7.973,6.249,11.908,2.331,3.969,3.425,8.9,7.345,11.355,3.955,2.485,9.11,2.589,13.771,1.829a20.769,20.769,0,0,0,11.37-5.9c2.683-2.761,2.3-7.144,4.449-10.285,2.33-3.452,7.98-4.8,8.58-8.9.6-4-3.5-7.11-5.72-10.527C58.838,25.242,57.214,21.515,53.859,19.444Z" fill="none" stroke="#fff" stroke-width="0.413"/><path d="M52.624,20.755c-3.143-1.933-7.027-1.967-10.735-2.278-3.99-.31-8.227-1.277-11.829.483-3.636,1.761-5.4,5.7-7.626,9.009-2.4,3.52-5.933,6.765-5.968,10.976s3.672,7.386,5.791,11.045c2.154,3.693,3.178,8.283,6.815,10.561,3.672,2.313,8.474,2.416,12.782,1.726a19.248,19.248,0,0,0,10.558-5.488c2.471-2.554,2.118-6.627,4.131-9.561,2.189-3.21,7.415-4.452,7.98-8.249.53-3.693-3.248-6.592-5.3-9.768C57.249,26.14,55.731,22.688,52.624,20.755Z" fill="none" stroke="#fff" stroke-width="0.413"/><path d="M51.388,22.1c-2.9-1.794-6.5-1.829-9.923-2.105-3.672-.311-7.591-1.174-10.91.449-3.355,1.622-4.979,5.246-7.062,8.318-2.19,3.244-5.473,6.247-5.509,10.113-.035,3.9,3.39,6.834,5.367,10.216s2.931,7.628,6.321,9.734c3.39,2.14,7.8,2.209,11.793,1.587a17.5,17.5,0,0,0,9.746-5.073c2.3-2.347,1.977-6.11,3.813-8.836,2.013-2.969,6.851-4.108,7.345-7.628.494-3.417-3-6.109-4.908-9.009C55.66,27.072,54.283,23.862,51.388,22.1Z" fill="none" stroke="#fff" stroke-width="0.413"/><path d="M50.152,23.413c-2.684-1.657-5.932-1.691-9.11-1.933-3.39-.276-6.956-1.07-9.993.414-3.072,1.484-4.59,4.832-6.462,7.628-2.012,2.968-5.014,5.73-5.049,9.285s3.107,6.247,4.908,9.353c1.836,3.107,2.684,7.007,5.791,8.94s7.168,2.036,10.805,1.449a16.1,16.1,0,0,0,8.933-4.659c2.119-2.14,1.8-5.592,3.5-8.077,1.836-2.727,6.25-3.762,6.744-7.006.459-3.141-2.719-5.592-4.484-8.284C54.071,27.969,52.8,25.035,50.152,23.413Z" fill="none" stroke="#fff" stroke-width="0.413"/><path d="M48.951,24.759c-2.436-1.484-5.4-1.519-8.262-1.76-3.072-.242-6.321-.967-9.075.379-2.79,1.346-4.167,4.384-5.9,6.938-1.871,2.658-4.59,5.177-4.59,8.422-.036,3.244,2.825,5.7,4.449,8.49,1.659,2.831,2.436,6.351,5.261,8.111s6.532,1.864,9.852,1.312A14.854,14.854,0,0,0,48.81,52.44c1.907-1.967,1.624-5.108,3.178-7.352,1.659-2.485,5.685-3.417,6.144-6.35.424-2.865-2.507-5.074-4.1-7.525C52.482,28.9,51.317,26.243,48.951,24.759Z" fill="none" stroke="#fff" stroke-width="0.413"/><path d="M47.715,26.07c-2.189-1.346-4.872-1.38-7.45-1.587-2.754-.207-5.685-.9-8.192.345s-3.743,3.935-5.3,6.247c-1.66,2.416-4.1,4.694-4.132,7.594s2.543,5.108,4.026,7.662S28.86,52.06,31.4,53.648s5.862,1.657,8.863,1.174a13.459,13.459,0,0,0,7.309-3.8c1.731-1.76,1.483-4.591,2.86-6.627,1.519-2.209,5.12-3.072,5.509-5.729.388-2.555-2.26-4.556-3.672-6.765C50.893,29.8,49.834,27.417,47.715,26.07Z" fill="none" stroke="#fff" stroke-width="0.413"/><path d="M46.479,27.417c-1.942-1.209-4.343-1.209-6.6-1.416-2.471-.207-5.049-.793-7.273.277-2.26,1.1-3.355,3.52-4.732,5.556-1.483,2.175-3.637,4.177-3.672,6.765,0,2.589,2.26,4.557,3.566,6.8,1.307,2.278,1.942,5.108,4.2,6.489,2.26,1.415,5.226,1.484,7.874,1.035a11.926,11.926,0,0,0,6.5-3.382c1.518-1.553,1.307-4.073,2.543-5.9,1.341-1.968,4.555-2.727,4.908-5.074.353-2.278-1.978-4.073-3.284-6.006C49.3,30.73,48.386,28.59,46.479,27.417Z" fill="none" stroke="#fff" stroke-width="0.413"/><path d="M45.244,28.728c-1.7-1.035-3.779-1.07-5.791-1.242-2.154-.173-4.414-.691-6.356.241-1.942.967-2.9,3.072-4.131,4.867-1.272,1.9-3.178,3.658-3.214,5.9,0,2.278,1.978,3.969,3.108,5.971,1.165,1.967,1.7,4.453,3.672,5.7a10.027,10.027,0,0,0,6.885.932A10.3,10.3,0,0,0,45.1,48.126c1.342-1.381,1.166-3.555,2.225-5.143,1.165-1.726,3.99-2.416,4.272-4.453.283-2-1.73-3.555-2.86-5.246C47.715,31.627,46.9,29.764,45.244,28.728Z" fill="none" stroke="#fff" stroke-width="0.413"/><path d="M44.008,30.074c-1.448-.9-3.249-.932-4.979-1.035-1.836-.138-3.813-.587-5.473.207-1.695.828-2.507,2.623-3.531,4.142-1.094,1.622-2.719,3.106-2.754,5.074,0,1.932,1.7,3.417,2.684,5.108S31.438,47.4,33.1,48.436a8.655,8.655,0,0,0,5.9.794,8.892,8.892,0,0,0,4.873-2.554c1.13-1.173.988-3.072,1.906-4.418.989-1.484,3.426-2.071,3.673-3.831.247-1.726-1.483-3.037-2.437-4.521C46.127,32.559,45.42,30.937,44.008,30.074Z" fill="none" stroke="#fff" stroke-width="0.413"/><path d="M42.772,31.386a8.778,8.778,0,0,0-4.131-.863c-1.554-.138-3.178-.483-4.555.173-1.413.69-2.084,2.208-2.931,3.451-.918,1.346-2.3,2.589-2.3,4.211s1.412,2.83,2.224,4.245,1.236,3.176,2.613,4.073a7.061,7.061,0,0,0,4.908.656,7.2,7.2,0,0,0,4.061-2.106c.953-.966.812-2.554,1.589-3.693.848-1.242,2.86-1.725,3.072-3.175.212-1.415-1.236-2.554-2.048-3.762C44.537,33.457,43.973,32.145,42.772,31.386Z" fill="none" stroke="#fff" stroke-width="0.413"/><path d="M41.536,32.732a7.155,7.155,0,0,0-3.319-.69c-1.236-.1-2.543-.38-3.637.138-1.13.552-1.66,1.76-2.366,2.761-.742,1.07-1.836,2.071-1.836,3.382s1.13,2.278,1.8,3.417.988,2.555,2.118,3.245a5.566,5.566,0,0,0,3.955.518A5.8,5.8,0,0,0,41.5,43.811c.776-.794.671-2.036,1.271-2.933.671-1,2.3-1.381,2.436-2.555.177-1.139-.988-2.036-1.624-3A7.936,7.936,0,0,0,41.536,32.732Z" fill="none" stroke="#fff" stroke-width="0.413"/><path d="M40.3,34.043a5.488,5.488,0,0,0-2.472-.517,5.16,5.16,0,0,0-2.719.1c-.847.414-1.235,1.312-1.765,2.071-.565.794-1.377,1.553-1.377,2.554,0,.967.847,1.726,1.342,2.554.494.863.741,1.9,1.588,2.451a4.779,4.779,0,0,0,5.4-.9c.565-.587.494-1.519.953-2.209.495-.725,1.7-1.036,1.837-1.9s-.742-1.518-1.236-2.243A6.285,6.285,0,0,0,40.3,34.043Z" fill="none" stroke="#fff" stroke-width="0.413"/></svg>