<svg xmlns="http://www.w3.org/2000/svg" viewBox="0 0 280 220"><title>brun-1-d</title><path d="M0,0H280V220H0Z" fill="none"/><path d="M143.41,12.37c16.14,1.27,33,1.44,46.67,9.92,13.53,8.3,20,23.4,28.62,36.54,9,13.73,25.41,26.28,23.07,42.39-2.42,16.53-25.15,22-34.6,35.86-8.68,12.72-7.12,30.44-18,41.55a83.64,83.64,0,0,1-45.79,23.9c-18.74,3.06-39.56,2.55-55.6-7.46-15.79-9.92-20.3-29.92-29.58-45.86s-25.33-29.76-25.24-48S48.44,68.75,58.85,53.57c9.8-14.41,17.43-31.45,33.22-39.17,15.61-7.55,34-3.39,51.35-2Z" fill="none" stroke="#fff" stroke-width="1.01"/><path d="M122.43,89.86a8.25,8.25,0,0,1,4.07.85c1.22.76,1.74,2,2.52,3.22s2.25,2.29,2,3.73-2.17,2-3,3.13-.61,2.63-1.56,3.65a7.36,7.36,0,0,1-4,2.12,6.89,6.89,0,0,1-4.86-.68c-1.39-.85-1.74-2.63-2.6-4s-2.17-2.63-2.17-4.16,1.39-2.8,2.25-4.15,1.56-2.72,2.87-3.39,3-.43,4.51-.34Z" fill="none" stroke="#fff" stroke-width="1.01"/><path d="M187.13,25.51c-13.1-8.06-29.23-8.23-44.67-9.41-16.65-1.36-34.17-5.35-49.09,1.95C78.28,25.42,70.9,41.7,61.54,55.44,51.56,70,36.9,83.5,36.82,101.05S52,131.74,60.93,147s13.18,34.42,28.36,43.92c15.35,9.58,35.22,10,53.17,7.12a79.46,79.46,0,0,0,43.8-22.81c10.32-10.59,8.85-27.55,17.18-39.76,9-13.31,30.79-18.48,33.13-34.34,2.25-15.43-13.45-27.47-22-40.52-8.33-12.72-14.49-27.13-27.41-35.1Z" fill="#e7e4df"/><path d="M184.09,28.81c-12.49-7.71-27.93-7.88-42.67-9.07-15.87-1.27-32.61-5.09-46.84,1.87-14.48,7-21.42,22.63-30.36,35.69-9.45,13.9-23.5,26.88-23.59,43.58s14.57,29.33,23,43.83,12.57,32.81,27.06,41.89c14.66,9.15,33.57,9.58,50.74,6.78a75.58,75.58,0,0,0,41.81-21.79c9.88-10.09,8.5-26.28,16.39-37.9C208.29,121,229,116,231.19,100.88c2.17-14.75-12.84-26.2-21.07-38.75-7.81-12-13.71-25.77-26-33.32Z" fill="none" stroke="#fff" stroke-width="1.01"/><path d="M181.06,32c-11.88-7.37-26.54-7.46-40.59-8.56-15.1-1.27-31.14-4.83-44.67,1.78-13.71,6.7-20.39,21.54-28.89,34-9,13.23-22.37,25.52-22.55,41.46s13.88,27.89,22,41.71,12,31.29,25.84,39.85c14,8.73,32,9.07,48.32,6.44a72,72,0,0,0,39.81-20.77c9.37-9.66,8.06-25,15.61-36.11,8.24-12.13,28-16.88,30.1-31.2,2.08-14-12.23-24.93-20-36.89C198.41,52.38,192.77,39.33,181.06,32Z" fill="none" stroke="#fff" stroke-width="1.01"/><path d="M178,35.34c-11.27-7-25.24-7.12-38.6-8.14C125.11,26,109.93,22.62,97,28.9c-13.1,6.36-19.43,20.43-27.49,32.3C61,73.75,48.27,85.45,48.18,100.54S61.36,127.08,69,140.22s11.44,29.67,24.54,37.9c13.27,8.31,30.45,8.64,45.88,6.1a68.32,68.32,0,0,0,37.91-19.75c8.93-9.16,7.63-23.83,14.83-34.34,7.81-11.53,26.54-16,28.62-29.67,2-13.32-11.62-23.74-19.08-35-7.2-10.85-12.49-23.23-23.68-30.1Z" fill="none" stroke="#fff" stroke-width="1.01"/><path d="M175,38.56c-10.76-6.61-23.94-6.69-36.52-7.71-13.62-1.1-28-4.33-40.16,1.61-12.4,6-18.47,19.33-26.1,30.61C64.05,75,52.08,86,52,100.37s12.49,25.18,19.69,37.56c7.28,12.55,10.84,28.15,23.24,35.86s28.8,8.23,43.46,5.85A65.22,65.22,0,0,0,174.29,161c8.42-8.65,7.29-22.55,14.05-32.47,7.38-10.94,25.16-15.18,27.07-28.06,1.82-12.64-11-22.47-18-33.15C190.69,56.88,185.57,45.09,175,38.56Z" fill="none" stroke="#fff" stroke-width="1.01"/><path d="M172,41.87c-10.15-6.27-22.55-6.36-34.52-7.29-12.84-1-26.45-4.07-38,1.52C87.73,41.78,82.09,54.42,74.89,65c-7.63,11.27-19,21.7-19.08,35.18s11.8,23.74,18.65,35.53S84.7,162.26,96.4,169.64s27.24,7.71,41,5.51a61.73,61.73,0,0,0,33.91-17.64c8-8.22,6.86-21.28,13.28-30.69,7-10.34,23.76-14.33,25.58-26.53,1.74-11.87-10.41-21.2-17.08-31.37-6.34-9.84-11.19-21-21.17-27.05Z" fill="none" stroke="#fff" stroke-width="1.01"/><path d="M168.91,45.09c-9.54-5.85-21.25-6-32.52-6.87-12.06-.93-24.89-3.81-35.74,1.44C89.64,45,84.35,56.88,77.5,66.88c-7.2,10.6-17.87,20.43-18,33.15s11.1,22.38,17.52,33.41,9.63,25,20.64,31.87,25.59,7.3,38.69,5.18a58.32,58.32,0,0,0,31.92-16.62c7.54-7.72,6.42-20,12.49-28.91,6.59-9.67,22.38-13.48,24.11-25,1.65-11.2-9.8-19.93-16-29.51-6-9.07-10.49-19.58-20-25.35Z" fill="none" stroke="#fff" stroke-width="1.01"/><path d="M165.88,48.4C157,42.89,145.93,42.8,135.43,42,124.07,41,112.1,38.31,102,43.31c-10.33,5-15.36,16.11-21.69,25.52-6.76,9.84-16.82,19.08-16.91,31s10.41,20.94,16.48,31.29,9,23.48,19.34,29.93,24,6.86,36.25,4.83a54.62,54.62,0,0,0,29.93-15.6c7-7.21,6.07-18.82,11.71-27.13,6.16-9.07,21-12.64,22.55-23.4,1.56-10.52-9.19-18.74-15-27.64-5.63-8.57-9.88-18.32-18.73-23.74Z" fill="none" stroke="#fff" stroke-width="1.01"/><path d="M162.84,51.62c-8.32-5.17-18.56-5.26-28.45-6-10.58-.85-21.77-3.39-31.22,1.27C93.54,51.53,88.86,61.88,83,70.7c-6.33,9.24-15.7,17.89-15.7,29S77,119.28,82.61,128.94s8.42,21.88,18,27.9,22.38,6.35,33.83,4.49a51,51,0,0,0,27.93-14.5c6.59-6.78,5.64-17.55,10.93-25.26,5.72-8.48,19.6-11.79,21.08-21.88,1.47-9.83-8.59-17.46-14.06-25.86C175.07,65.86,171.08,56.71,162.84,51.62Z" fill="none" stroke="#fff" stroke-width="1.01"/><path d="M159.81,54.84c-7.72-4.75-17.26-4.83-26.37-5.59-9.8-.77-20.21-3.14-29.06,1.18s-13.27,14-18.73,22.13c-5.9,8.65-14.57,16.62-14.66,27s9,18.15,14.23,27.13S93,147,102,152.6s20.81,5.93,31.39,4.24a47.33,47.33,0,0,0,25.94-13.48c6.07-6.28,5.2-16.28,10.15-23.49,5.37-7.88,18.21-10.94,19.6-20.26,1.3-9.07-8-16.2-13-24-4.86-7.54-8.59-16-16.22-20.77Z" fill="none" stroke="#fff" stroke-width="1.01"/><path d="M156.77,58.15c-7.11-4.41-16-4.5-24.37-5.17-9-.77-18.65-2.89-26.8,1.1S93.37,67,88.25,74.51c-5.38,8-13.44,15.35-13.53,24.84s8.33,16.79,13.18,25.1,7.2,18.74,15.53,23.91,19.17,5.42,29,3.9a43,43,0,0,0,23.94-12.47c5.64-5.76,4.86-15,9.37-21.7,4.94-7.29,16.82-10.09,18-18.74,1.21-8.39-7.37-15-12.06-22.13C167.27,70.36,163.88,62.47,156.77,58.15Z" fill="none" stroke="#fff" stroke-width="1.01"/><path d="M153.74,61.37c-6.59-4.07-14.58-4.15-22.38-4.75-8.33-.68-17.09-2.63-24.55,1S95.54,69.51,90.94,76.38C86,83.67,78.62,90.45,78.54,99.18s7.63,15.35,12,23,6.59,17.21,14.23,22,17.6,5,26.54,3.56a39.57,39.57,0,0,0,21.94-11.45c5.21-5.25,4.43-13.73,8.59-19.84,4.51-6.69,15.35-9.24,16.57-17.21,1.12-7.71-6.68-13.73-11-20.34C163.36,72.56,160.24,65.36,153.74,61.37Z" fill="none" stroke="#fff" stroke-width="1.01"/><path d="M150.79,64.68c-6-3.65-13.27-3.73-20.3-4.33-7.55-.59-15.52-2.37-22.29.94S98,72.05,93.71,78.33C89.12,84.86,82.44,91,82.44,99s6.94,14,10.93,20.86,6,15.6,12.92,19.92,16,4.58,24.2,3.23a36.52,36.52,0,0,0,19.95-10.35c4.68-4.83,4-12.55,7.81-18.06,4.07-6.1,14-8.39,15.09-15.6,1-7-6.16-12.46-10.06-18.48-3.82-5.68-6.68-12.21-12.49-15.85Z" fill="none" stroke="#fff" stroke-width="1.01"/><path d="M147.75,67.9c-5.38-3.31-12-3.39-18.3-3.9-6.76-.51-14-2.21-20.12.85s-9.2,9.66-13,15.34c-4.08,5.94-10.06,11.53-10.15,18.65s6.24,12.55,9.89,18.83,5.37,14.07,11.62,18,14.4,4.07,21.77,2.88a33,33,0,0,0,18-9.32c4.25-4.33,3.65-11.28,7-16.28,3.73-5.43,12.58-7.55,13.53-14.08.95-6.27-5.55-11.19-9-16.61C155.56,77.05,153,71.2,147.75,67.9Z" fill="none" stroke="#fff" stroke-width="1.01"/><path d="M144.72,71.2c-4.77-3-10.67-3-16.22-3.47-6.07-.51-12.41-2-17.87.68S102.39,77.05,99,82.06c-3.65,5.34-8.94,10.26-9,16.61s5.55,11.2,8.76,16.71,4.77,12.54,10.32,15.94,12.83,3.64,19.34,2.54a29.3,29.3,0,0,0,16-8.31c3.73-3.81,3.21-10,6.24-14.5,3.3-4.83,11.19-6.69,12.06-12.46.87-5.59-4.86-10-8.07-14.75-2.95-4.49-5.2-9.75-9.88-12.63Z" fill="none" stroke="#fff" stroke-width="1.01"/><path d="M141.68,74.43c-4.16-2.55-9.28-2.63-14.22-3.06-5.3-.42-10.85-1.69-15.62.6s-7.11,7.54-10.15,12c-3.12,4.67-7.8,9-7.89,14.5s4.86,9.75,7.63,14.67,4.17,10.94,9,14,11.18,3.22,16.91,2.29a25.29,25.29,0,0,0,14-7.3c3.3-3.39,2.87-8.73,5.47-12.63,2.86-4.24,9.8-5.93,10.49-10.93s-4.25-8.74-7-12.89c-2.52-4.07-4.51-8.65-8.59-11.19Z" fill="none" stroke="#fff" stroke-width="1.01"/><path d="M138.65,77.73c-3.56-2.2-8-2.29-12.23-2.54-4.51-.34-9.37-1.44-13.45.51s-6.16,6.44-8.67,10.17c-2.69,4-6.68,7.63-6.77,12.47s4.17,8.39,6.59,12.54,3.65,9.41,7.72,12,9.63,2.71,14.49,2a21.88,21.88,0,0,0,12-6.28c2.77-2.88,2.43-7.54,4.68-10.85,2.43-3.64,8.42-5.09,9-9.41s-3.64-7.46-6-11.11c-2.17-3.3-3.91-7.29-7.37-9.41Z" fill="none" stroke="#fff" stroke-width="1.01"/><path d="M135.61,81c-3-1.87-6.68-1.87-10.15-2.12-3.82-.34-7.81-1.19-11.19.42s-5.12,5.43-7.2,8.48c-2.25,3.3-5.64,6.36-5.64,10.34s3.47,7,5.47,10.43,3,7.8,6.42,10,8,2.29,12.05,1.61a17.63,17.63,0,0,0,10-5.17c2.34-2.37,2-6.27,3.9-9.07,2.08-3,7-4.24,7.55-7.8s-3-6.27-5-9.24c-1.82-2.8-3.21-6-6.16-7.89Z" fill="none" stroke="#fff" stroke-width="1.01"/><path d="M132.57,84.26c-2.43-1.44-5.29-1.52-8.15-1.69-3-.26-6.25-.94-8.93.34s-4.08,4.32-5.81,6.78c-1.83,2.63-4.52,5.08-4.52,8.31s2.78,5.59,4.43,8.39,2.43,6.27,5.2,8,6.42,1.86,9.72,1.27a14.31,14.31,0,0,0,8-4.15c1.9-2,1.64-5,3.12-7.21,1.65-2.46,5.64-3.39,6-6.27s-2.43-5-4-7.38-2.69-4.92-5-6.36Z" fill="none" stroke="#fff" stroke-width="1.01"/><path d="M129.54,87.48c-1.82-1.1-4-1.1-6.07-1.27-2.26-.17-4.69-.76-6.68.26s-3,3.22-4.34,5.08-3.38,3.82-3.38,6.28,2.08,4.24,3.29,6.27,1.83,4.66,3.91,6a10.64,10.64,0,0,0,7.28.93,10.77,10.77,0,0,0,6-3.13c1.39-1.45,1.21-3.73,2.34-5.43s4.16-2.54,4.51-4.66-1.82-3.73-3-5.51-2.08-3.73-3.81-4.84Z" fill="none" stroke="#fff" stroke-width="1.01"/><path d="M90.56,81.78a16.36,16.36,0,0,1-2.62,9.09l-13.7,20.8H62.46l9.73-14.14c-8.89-.71-14.91-7-14.91-15.75C57.28,72.5,64.06,66,73.92,66S90.56,72.5,90.56,81.78Zm-23,0A6.1,6.1,0,0,0,73.92,88c3.46,0,6.4-2.24,6.4-6.21s-2.94-6.21-6.4-6.21A6.1,6.1,0,0,0,67.52,81.78Zm71.65-2.11v32h-9.6V88.89h-6.91v9.53c0,9.67-4.86,14.34-14.21,13.25v-9c3,.9,4.61-1,4.61-4.93V79.67Zm15.61,19.84c1.22,3.33,4.16,4.48,7.68,4.48a8.35,8.35,0,0,0,6.15-2.43l7.68,4.41c-3.14,4.36-7.87,6.6-13.95,6.6-11,0-17.73-7.36-17.73-16.9s6.91-16.9,17-16.9c9.35,0,16.26,7.24,16.26,16.9a18.38,18.38,0,0,1-.39,3.84Zm-.19-7.17h13.76a6.58,6.58,0,0,0-6.78-5C157.92,87.29,155.49,89.08,154.59,92.34ZM208,79.67v9.22h-9.53v22.78h-9.6V88.89H179.2V79.67ZM57.57,142.07h9v12.6h-1V143H58.52v11.7h-1Zm12.11,0H74a3.9,3.9,0,1,1,0,7.79H70.63v4.81h-.95v-12.6Zm.95,6.89H74a3,3,0,0,0,2.13-5.14A2.89,2.89,0,0,0,74,143H70.63v6Zm19.91,4a6.54,6.54,0,1,1,1.89-4.61A6.28,6.28,0,0,1,90.54,153ZM82,152.33A5.36,5.36,0,0,0,85.93,154a5.29,5.29,0,0,0,3.93-1.62,5.45,5.45,0,0,0,1.62-4,5.36,5.36,0,0,0-1.62-3.94,5.27,5.27,0,0,0-3.93-1.64A5.34,5.34,0,0,0,82,144.43a5.41,5.41,0,0,0-1.6,3.94A5.47,5.47,0,0,0,82,152.33Zm22.09,2.34h-1V143.83l-7.45,10.84h-.83v-12.6h1v10.84l7.44-10.84h.84Zm8.53-6.52a3.45,3.45,0,0,1,1.71,1.23,3.11,3.11,0,0,1,.63,1.94,3.24,3.24,0,0,1-1.17,2.56,4.58,4.58,0,0,1-3.08,1c-2.24,0-3.69-.93-4.34-2.77l.83-.45c.43,1.54,1.6,2.32,3.51,2.32a3.65,3.65,0,0,0,2.39-.72,2.4,2.4,0,0,0,.89-1.93,2.45,2.45,0,0,0-.81-1.89,3.05,3.05,0,0,0-2.15-.74H109.6v-.9h1a3.05,3.05,0,0,0,2.11-.7,2.25,2.25,0,0,0,.81-1.8,2.28,2.28,0,0,0-.81-1.8,3,3,0,0,0-2.09-.72,3.15,3.15,0,0,0-3.24,2.07l-.79-.45a4,4,0,0,1,4-2.52,3.87,3.87,0,0,1,2.77,1,3.14,3.14,0,0,1,1.08,2.43,3,3,0,0,1-1.87,2.86Zm11.33,0a3.31,3.31,0,0,1,1.57,1.2,3.21,3.21,0,0,1,.59,1.89,3.45,3.45,0,0,1-3.44,3.44h-5.43v-12.6h5a3.31,3.31,0,0,1,3.31,3.31,3.16,3.16,0,0,1-.43,1.64,3.05,3.05,0,0,1-1.19,1.12ZM122.25,143h-4.07v4.82h4.07a2.19,2.19,0,0,0,1.65-.7,2.4,2.4,0,0,0,.71-1.71,2.3,2.3,0,0,0-.71-1.69A2.16,2.16,0,0,0,122.25,143Zm-4.07,10.8h4.48a2.41,2.41,0,0,0,1.75-.74,2.52,2.52,0,0,0,.74-1.8,2.44,2.44,0,0,0-.74-1.78,2.36,2.36,0,0,0-1.75-.76h-4.48Zm20.65-.79a6.54,6.54,0,1,1,1.89-4.61A6.28,6.28,0,0,1,138.83,153Zm-8.55-.65a5.36,5.36,0,0,0,3.94,1.62,5.25,5.25,0,0,0,3.92-1.62,5.45,5.45,0,0,0,1.62-4,5.36,5.36,0,0,0-1.62-3.94,5.23,5.23,0,0,0-3.92-1.64,5.34,5.34,0,0,0-3.94,1.64,5.41,5.41,0,0,0-1.6,3.94A5.47,5.47,0,0,0,130.28,152.33Zm21.15-10.26v11.7h1.33v3.31h-1v-2.41h-9.47v2.41h-1v-3.31h1a6.68,6.68,0,0,0,1.29-4.52v-7.18Zm-6.82.9v6.3a7.76,7.76,0,0,1-1.12,4.5h7V143Zm19.64,11.7h-.95V143.83l-7.45,10.84H155v-12.6H156v10.84l7.44-10.84h.84Zm13.32-12.6h1.2v12.6h-1v-11.2l-4.67,7.74H173l-4.66-7.74v11.2h-1v-12.6h1.19l4.5,7.45Zm-111.17,22v11.7h1.34v3.31h-1v-2.41H57.3v2.41h-1v-3.31h1a6.63,6.63,0,0,0,1.3-4.52v-7.18Zm-6.82.9v6.3a7.84,7.84,0,0,1-1.11,4.5h7V165ZM80.2,175a6.54,6.54,0,1,1,1.89-4.61A6.26,6.26,0,0,1,80.2,175Zm-8.55-.65A5.38,5.38,0,0,0,75.6,176a5.27,5.27,0,0,0,3.92-1.62,5.45,5.45,0,0,0,1.62-4,5.36,5.36,0,0,0-1.62-3.94,5.25,5.25,0,0,0-3.92-1.64,5.36,5.36,0,0,0-3.95,1.64,5.45,5.45,0,0,0-1.6,3.94A5.51,5.51,0,0,0,71.65,174.33Zm23-10.26h1.21v12.6H95v-11.2l-4.66,7.74h-.16l-4.66-7.74v11.2h-1v-12.6H85.7l4.5,7.45Zm13.82,12.6h-1l-1.22-3.2H100l-1.22,3.2h-1l4.89-12.6h1Zm-5.38-11.43-2.81,7.33H106Z"/></svg>