<svg width="70" height="76" viewBox="0 0 70 76" fill="none" xmlns="http://www.w3.org/2000/svg">
<path fill-rule="evenodd" clip-rule="evenodd" d="M21.4326 23.7217C22.1048 23.7199 22.6511 24.2634 22.6529 24.9356C22.6667 30.1764 24.1267 34.8611 26.415 38.2015C28.7074 41.5478 31.744 43.4436 34.9463 43.4436C38.1487 43.4436 41.1853 41.5478 43.4776 38.2015C45.766 34.8611 47.226 30.1764 47.2398 24.9356C47.2415 24.2634 47.7879 23.7199 48.46 23.7217C49.1322 23.7234 49.6757 24.2698 49.6739 24.942C49.659 30.6068 48.0849 35.7831 45.4858 39.5772C42.8906 43.3655 39.1862 45.8777 34.9463 45.8777C30.7064 45.8777 27.0021 43.3655 24.4069 39.5772C21.8077 35.7831 20.2336 30.6068 20.2188 24.942C20.217 24.2698 20.7605 23.7234 21.4326 23.7217Z" fill="#1B1B1A"/>
<path d="M53.5518 20.5591C53.5518 20.6736 53.5232 20.7308 53.4945 20.8167C52.7789 22.3624 45.2795 23.3356 35.8908 23.4215C35.2611 23.4215 34.6027 23.4215 33.973 23.4215C24.5844 23.3642 17.0849 22.3624 16.3693 20.8167C16.3407 20.7308 16.312 20.6736 16.312 20.5877V20.5591C16.2834 18.8703 17.7146 17.7253 20.0331 17.8112V15.6644C20.0331 -2.5977 49.8021 -2.51183 49.8021 15.6644V17.8112C52.1492 17.7253 53.5804 18.8703 53.5518 20.5591Z" fill="#F2E734"/>
<path fill-rule="evenodd" clip-rule="evenodd" d="M25.4538 6.34725C22.945 8.39328 21.2502 11.4664 21.2502 15.6644V19.0742L19.9881 19.0275C19.024 18.9917 18.387 19.218 18.0261 19.4907C17.7536 19.6966 17.5872 19.9627 17.5415 20.3075C17.5513 20.3137 17.5618 20.3202 17.573 20.3269C17.7579 20.4381 18.0528 20.5707 18.4813 20.7115C19.3349 20.9919 20.5538 21.2516 22.0918 21.4726C25.1558 21.9128 29.3172 22.1759 33.9767 22.2044H35.8851C40.5463 22.1616 44.7084 21.8985 47.7733 21.4617C49.3121 21.2423 50.5312 20.9851 51.385 20.7066C51.8136 20.5669 52.1082 20.4351 52.2927 20.3246C52.3032 20.3183 52.313 20.3123 52.3222 20.3066C52.2764 19.963 52.1102 19.6981 51.8368 19.4927C51.473 19.2193 50.8283 18.9916 49.8466 19.0275L48.585 19.0736V15.6644C48.585 11.4896 46.8916 8.42095 44.3809 6.37096C41.8409 4.297 38.4043 3.22216 34.9159 3.21713C31.4274 3.2121 27.9923 4.27699 25.4538 6.34725ZM45.9204 4.48548C48.9914 6.99296 51.0191 10.7511 51.0191 15.6644V16.6557C51.8839 16.7776 52.6641 17.0696 53.299 17.5466C54.2599 18.2687 54.7871 19.3451 54.7688 20.5711C54.7678 20.7369 54.745 20.8837 54.7081 21.0189C54.6916 21.0794 54.6744 21.1294 54.6647 21.1572C54.6575 21.178 54.6546 21.1859 54.653 21.1906C54.6515 21.1947 54.651 21.1961 54.6492 21.2016L54.6276 21.2662L54.599 21.328C54.3591 21.8463 53.919 22.188 53.5428 22.4132C53.1436 22.6522 52.6615 22.8507 52.1397 23.0208C51.0927 23.3623 49.716 23.6435 48.1168 23.8714C44.9071 24.3289 40.6272 24.5953 35.902 24.6385L35.8908 24.6386L33.9656 24.6386C29.238 24.6098 24.9567 24.3433 21.7457 23.882C20.1458 23.6521 18.7688 23.368 17.7217 23.0241C17.1998 22.8526 16.718 22.653 16.3191 22.4132C15.9433 22.1874 15.5043 21.8453 15.2648 21.328L15.2362 21.2662L15.2147 21.2016C15.2132 21.1973 15.2123 21.1946 15.2076 21.1815L15.2021 21.1661C15.1949 21.1459 15.1792 21.1022 15.1642 21.052C15.1292 20.9352 15.095 20.7789 15.095 20.5877V20.5685C15.0775 19.3443 15.604 18.2699 16.5587 17.5486C17.1882 17.073 17.9609 16.7805 18.8161 16.6574V15.6644C18.8161 10.7314 20.8425 6.96696 23.9153 4.46089C26.9585 1.97904 30.9656 0.777277 34.9194 0.782979C38.8732 0.788682 42.8788 2.00197 45.9204 4.48548Z" fill="#1C1C1B"/>
<path fill-rule="evenodd" clip-rule="evenodd" d="M13.9267 48.6686C14.2675 48.8833 14.48 49.2527 14.4942 49.6553L15.3529 73.9284C15.3646 74.2584 15.2416 74.579 15.0123 74.8166C14.7829 75.0543 14.4669 75.1885 14.1366 75.1885H2.00004C1.64925 75.1885 1.31552 75.0371 1.08442 74.7732C0.853317 74.5093 0.747321 74.1585 0.793608 73.8108L3.13993 56.1849C3.14007 56.1838 3.14021 56.1827 3.14036 56.1816C3.34268 54.6021 4.01653 53.1304 5.03273 52.0441L5.04693 52.0292C5.68457 51.3703 6.43508 51.0651 7.07613 50.8608C7.35111 50.7732 7.5831 50.7082 7.79688 50.6483C8.14309 50.5512 8.44154 50.4676 8.79753 50.3228L12.7917 48.5825C13.161 48.4216 13.5859 48.4538 13.9267 48.6686ZM12.1248 51.5283L9.75668 52.5601C9.74828 52.5638 9.73984 52.5673 9.73135 52.5708C9.25164 52.767 8.70097 52.9238 8.2714 53.046C8.09433 53.0964 7.93784 53.141 7.81537 53.18C7.31642 53.339 7.02301 53.4905 6.80267 53.7152C6.16332 54.4025 5.69561 55.3876 5.55448 56.4932L5.55366 56.4996L5.55364 56.4996L3.38987 72.7543H12.8757L12.1248 51.5283Z" fill="#1B1B1A"/>
<path fill-rule="evenodd" clip-rule="evenodd" d="M55.7556 48.6747C56.0906 48.4593 56.5097 48.4213 56.8779 48.573L61.1158 50.3197C63.6164 51.3545 66.3124 52.817 66.7518 56.1801C66.7519 56.1806 66.7519 56.1811 66.752 56.1816L69.0988 73.8108C69.145 74.1585 69.039 74.5093 68.8079 74.7732C68.5768 75.0371 68.2431 75.1885 67.8923 75.1885H55.5268C55.1963 75.1885 54.88 75.0541 54.6506 74.8161C54.4212 74.5782 54.2984 74.2572 54.3105 73.9269L55.1979 49.6538C55.2124 49.2558 55.4207 48.8902 55.7556 48.6747ZM57.5665 51.4897L56.7892 72.7543H66.5025L64.3387 56.4996L64.3383 56.4965C64.0902 54.594 62.665 53.5952 60.1858 52.5692C60.1856 52.5691 60.1861 52.5693 60.1858 52.5692L57.5665 51.4897Z" fill="#1B1B1A"/>
<path fill-rule="evenodd" clip-rule="evenodd" d="M22.2656 44.2892C22.6257 44.4936 22.8571 44.8671 22.8799 45.2806L23.847 62.8219H46.0454L47.0125 45.2806C47.0353 44.8671 47.2667 44.4936 47.6268 44.2892C47.9869 44.0847 48.4262 44.0774 48.793 44.2697L55.8344 47.9622C56.4297 48.2744 56.6593 49.01 56.3471 49.6053C56.0349 50.2006 55.2993 50.4301 54.704 50.1179L49.3388 47.3045L48.4125 64.106C48.3769 64.7512 47.8434 65.2561 47.1973 65.2561H22.6952C22.049 65.2561 21.5155 64.7512 21.4799 64.106L20.5537 47.3045L15.1884 50.1179C14.5931 50.4301 13.8575 50.2006 13.5453 49.6053C13.2332 49.01 13.4627 48.2744 14.058 47.9622L21.0995 44.2697C21.4662 44.0774 21.9055 44.0847 22.2656 44.2892Z" fill="#1B1B1A"/>
<path fill-rule="evenodd" clip-rule="evenodd" d="M13.6066 74.0002C13.6066 73.328 14.1515 72.7831 14.8236 72.7831H55.0403C55.7125 72.7831 56.2574 73.328 56.2574 74.0002C56.2574 74.6723 55.7125 75.2172 55.0403 75.2172H14.8236C14.1515 75.2172 13.6066 74.6723 13.6066 74.0002Z" fill="#1B1B1A"/>
<path fill-rule="evenodd" clip-rule="evenodd" d="M32.1124 1.33765C32.7846 1.33765 33.3295 1.88255 33.3295 2.55472V12.5159C33.3295 13.188 32.7846 13.7329 32.1124 13.7329C31.4402 13.7329 30.8953 13.188 30.8953 12.5159V2.55472C30.8953 1.88255 31.4402 1.33765 32.1124 1.33765Z" fill="#1B1B1A"/>
<path fill-rule="evenodd" clip-rule="evenodd" d="M37.78 1.33765C38.4522 1.33765 38.9971 1.88255 38.9971 2.55472V12.5159C38.9971 13.188 38.4522 13.7329 37.78 13.7329C37.1078 13.7329 36.5629 13.188 36.5629 12.5159V2.55472C36.5629 1.88255 37.1078 1.33765 37.78 1.33765Z" fill="#1B1B1A"/>
</svg>
