<svg xmlns="http://www.w3.org/2000/svg" viewBox="0 0 85.6 27.4">
  <path d="M0 0h9.86c6.78 0 11.99 4.08 11.99 10.9s-5.21 10.95-12 10.95H0Zm5.69 4.98v11.9h4.17c3.55 0 6.16-2.13 6.16-5.97s-2.6-5.93-6.16-5.93Zm16.82 8.43c0-5.35 3.94-8.81 9.3-8.81s9.27 3.4 9.27 8.8c0 5.36-3.93 8.82-9.29 8.82s-9.29-3.41-9.29-8.82Zm5.7 0a3.3 3.3 0 0 0 3.55 3.51 3.3 3.3 0 0 0 3.55-3.5 3.3 3.3 0 0 0-3.55-3.51 3.3 3.3 0 0 0-3.56 3.5ZM41.9 5.02h5.64v1.66a5.42 5.42 0 0 1 4.22-2.03 5.09 5.09 0 0 1 4.79 2.65 6.04 6.04 0 0 1 4.97-2.65c4.65 0 6.3 3.65 6.3 8v9.2h-5.59V12.9c0-1.66-.8-2.94-2.13-2.94-1.52 0-2.42 1.14-2.42 3.18v8.72H52.1V12.9c0-1.66-.8-2.94-2.13-2.94-1.43 0-2.42 1.05-2.42 2.85v9.05H41.9Z" class="a"/>
  <path d="m72.85 5.02 3.7 9.77h.19l3.46-9.77h5.4v1.1L79.53 21.9c-1.32 3.41-3.08 5.5-9.05 5.5V22a7.72 7.72 0 0 0 2.7-.28l-6.16-15.6v-1.1Z" class="a"/>
</svg>
