<svg width="74" height="74" viewBox="0 0 74 74" fill="none" xmlns="http://www.w3.org/2000/svg"><path d="M46.794 35.45A10.04 10.04 0 0 1 36.75 45.494 10.04 10.04 0 0 1 26.71 35.451c0-5.548 10.064-17.397 10.064-17.397s10.02 11.849 10.02 17.397Z" stroke="#1C1C1B" stroke-width="1.829" stroke-miterlimit="10" stroke-linejoin="round"/><path d="M72.342 62.288H1.658V72.76h70.684V62.288Z" fill="#FFF000" stroke="#1C1C1B" stroke-width="1.829" stroke-miterlimit="10" stroke-linejoin="round"/><path d="M53.322 48.992c9.02-9.02 9.02-23.642 0-32.661-9.02-9.02-23.642-9.02-32.661 0-9.02 9.019-9.02 23.642 0 32.661 9.019 9.02 23.642 9.02 32.661 0ZM18.37 46.396l35.803-28.535" stroke="#1C1C1B" stroke-width="1.829" stroke-miterlimit="10" stroke-linejoin="round"/></svg>