<svg width="75" height="75" viewBox="0 0 75 75" fill="none" xmlns="http://www.w3.org/2000/svg">
<path d="M70.4526 67.7823L64.7011 73.1999C63.9565 73.8932 62.7754 73.8675 62.0822 73.1229L43.6724 53.532C42.9791 52.7874 43.0048 51.6063 43.7494 50.9131L49.5009 45.4954C50.2455 44.8021 51.4266 44.8278 52.1198 45.5724L70.5296 65.1633C71.2229 65.9079 71.1972 67.0633 70.4526 67.7823Z" fill="#FFF000"/>
<path fill-rule="evenodd" clip-rule="evenodd" d="M49.6275 44.1071C50.0538 43.6808 50.7451 43.6808 51.1714 44.1071L71.0911 64.0268C72.4228 65.3271 72.4228 67.4643 71.0911 68.7646L66.3204 73.5353C65.021 74.8347 62.8919 74.8347 61.5926 73.5353L41.6679 53.6107C41.2416 53.1843 41.2416 52.4931 41.6679 52.0667L49.6275 44.1071ZM43.9838 52.8387L63.1365 71.9914C63.5832 72.438 64.3298 72.438 64.7764 71.9914L69.5522 67.2156L69.5634 67.2045C70.0207 66.7603 70.0207 66.0311 69.5634 65.5868L69.5522 65.5757L50.3995 46.423L43.9838 52.8387Z" fill="#1C1C1B"/>
<path fill-rule="evenodd" clip-rule="evenodd" d="M28.1366 1.89565C29.436 0.596308 31.5651 0.596308 32.8644 1.89565L40.824 9.85524C42.1233 11.1546 42.1233 13.2837 40.824 14.583L36.4334 18.9736C36.2286 19.1784 35.951 19.2934 35.6614 19.2934C35.3719 19.2934 35.0942 19.1784 34.8894 18.9736C33.5124 17.5966 31.1907 17.7542 30.0449 19.4538L30.0374 19.465L30.0373 19.465C29.2232 20.6409 29.4354 22.3711 30.5535 23.4893L33.6347 26.5704C34.4975 27.4332 34.4975 28.8434 33.6347 29.7063L33.6107 29.7302L49.5795 45.6991C50.0043 46.1238 50.0061 46.8119 49.5837 47.2389L44.8336 52.0403C44.6293 52.2469 44.351 52.3634 44.0604 52.3642C43.7699 52.365 43.491 52.2499 43.2855 52.0445L27.3038 36.0628L27.2157 36.151C26.4382 36.9284 25.121 37.0765 24.2118 36.2793C19.9384 32.5926 14.4795 32.9442 10.9134 36.5084C8.81313 38.633 7.89159 41.4689 8.14532 44.2138C8.18416 44.634 7.97738 45.0389 7.61424 45.2538C7.25111 45.4687 6.79664 45.4551 6.447 45.2189C4.36738 43.8137 2.57892 41.7955 1.62374 38.6772L1.62172 38.6706L1.62175 38.6706C0.137464 33.7136 1.68418 28.3481 5.31055 24.7217L17.7635 12.2688C18.1875 11.8447 18.8742 11.8421 19.3015 12.2629C20.5863 13.5283 22.5929 13.5212 23.7943 12.3232C25.0068 11.0885 24.9971 9.08134 23.746 7.83021C23.5413 7.62547 23.4262 7.34778 23.4262 7.05823C23.4262 6.76869 23.5413 6.491 23.746 6.28626L28.1366 1.89565ZM28.8476 34.5187L44.0533 49.7244L47.2678 46.4752L31.2948 30.5022C30.8684 30.0759 30.8684 29.3846 31.2948 28.9583L32.8627 28.9343C32.093 28.16 32.0943 28.1581 32.0954 28.1553C32.0969 28.1516 32.0983 28.1457 32.0983 28.1383C32.0983 28.1309 32.0969 28.125 32.0954 28.1214C32.0943 28.1185 32.093 28.1166 32.0907 28.1143L29.0096 25.0332C27.2536 23.2772 26.7462 20.3892 28.2381 18.2278C29.9539 15.689 33.2421 15.2022 35.5823 16.7368L39.28 13.0391C39.7267 12.5924 39.7267 11.8458 39.28 11.3992L31.3205 3.43959C30.8738 2.99295 30.1272 2.99295 29.6806 3.43959L25.9841 7.13608C27.3526 9.20847 27.156 12.0211 25.3473 13.8581L25.3413 13.8641L25.3413 13.8641C23.5176 15.6878 20.7016 15.8712 18.6168 14.5033L6.8545 26.2657C3.75455 29.3656 2.47675 33.9094 3.71247 38.0409C4.22894 39.7253 5.02472 41.0035 5.99358 42.0113C6.2788 39.4467 7.40251 36.9529 9.36317 34.9707L9.36738 34.9665C13.7585 30.5754 20.5151 30.2069 25.6373 34.6254C25.6413 34.6247 25.6462 34.6233 25.6514 34.621C25.6589 34.6176 25.6657 34.613 25.6717 34.607L27.2893 32.9894C27.7157 32.5631 28.4069 32.5631 28.8333 32.9894C29.2547 33.4109 29.2595 34.0913 28.8476 34.5187Z" fill="#1C1C1B"/>
<path fill-rule="evenodd" clip-rule="evenodd" d="M61.9537 3.0918C56.189 3.0918 51.5169 7.76391 51.5169 13.5286C51.5169 15.339 51.9798 17.0085 52.7952 18.4995C53.0845 19.0285 52.8902 19.6919 52.3612 19.9812C51.8322 20.2705 51.1688 20.0762 50.8795 19.5472C49.8976 17.7516 49.3334 15.7237 49.3334 13.5286C49.3334 6.55801 54.9831 0.908325 61.9537 0.908325C63.4767 0.908325 64.9116 1.19057 66.2278 1.66667C66.579 1.7937 66.8409 2.09143 66.9221 2.45595C67.0033 2.82048 66.8926 3.20121 66.6285 3.46529L59.5792 10.5146V12.871L62.5857 15.8775H64.9421L71.9914 8.82822C72.2564 8.56323 72.6388 8.45267 73.0043 8.53537C73.3698 8.61807 73.6674 8.88246 73.7925 9.23572C74.2653 10.5707 74.5484 12.0035 74.5484 13.503C74.5484 20.4736 68.8987 26.1233 61.9281 26.1233C59.7355 26.1233 57.6817 25.5604 55.8839 24.5772C55.3549 24.2879 55.1605 23.6245 55.4498 23.0955C55.7392 22.5665 56.4025 22.3722 56.9315 22.6615C58.4202 23.4756 60.1152 23.9398 61.9281 23.9398C67.6928 23.9398 72.3649 19.2677 72.3649 13.503C72.3649 12.8944 72.3078 12.2947 72.201 11.7065L66.1663 17.7412C65.9616 17.9459 65.6839 18.061 65.3943 18.061H62.1335C61.8439 18.061 61.5662 17.9459 61.3615 17.7412L57.7155 14.0952C57.5108 13.8905 57.3957 13.6128 57.3957 13.3232V10.0624C57.3957 9.77281 57.5108 9.49513 57.7155 9.29039L63.7531 3.25276C63.1711 3.14808 62.5704 3.0918 61.9537 3.0918Z" fill="#1C1C1B"/>
<path fill-rule="evenodd" clip-rule="evenodd" d="M0.908325 61.9023C0.908325 54.9317 6.55801 49.282 13.5286 49.282C15.7212 49.282 17.775 49.8448 19.5728 50.828C20.1018 51.1173 20.2962 51.7807 20.0069 52.3097C19.7176 52.8387 19.0542 53.0331 18.5252 52.7438C17.0365 51.9296 15.3415 51.4655 13.5286 51.4655C7.76391 51.4655 3.0918 56.1376 3.0918 61.9023C3.0918 62.519 3.14808 63.1196 3.25276 63.7017L9.29039 57.664C9.49513 57.4593 9.77281 57.3443 10.0624 57.3443H13.3232C13.6128 57.3443 13.8905 57.4593 14.0952 57.664L17.7412 61.31C17.9459 61.5148 18.061 61.7925 18.061 62.082V65.3429C18.061 65.6324 17.9459 65.9101 17.7412 66.1149L11.7065 72.1495C12.2947 72.2563 12.8944 72.3135 13.503 72.3135C19.2677 72.3135 23.9398 67.6413 23.9398 61.8766C23.9398 60.0637 23.4756 58.3688 22.6615 56.8801C22.3722 56.3511 22.5665 55.6877 23.0955 55.3984C23.6245 55.1091 24.2879 55.3034 24.5772 55.8324C25.5604 57.6303 26.1233 59.684 26.1233 61.8766C26.1233 68.8472 20.4736 74.4969 13.503 74.4969C12.0035 74.4969 10.5707 74.2139 9.23572 73.741C8.88246 73.6159 8.61807 73.3184 8.53537 72.9529C8.45267 72.5873 8.56323 72.205 8.82822 71.94L15.8775 64.8907V62.5342L12.871 59.5278H10.5146L3.46529 66.577C3.20121 66.8411 2.82048 66.9519 2.45595 66.8707C2.09143 66.7895 1.7937 66.5276 1.66667 66.1764C1.19057 64.8601 0.908325 63.4252 0.908325 61.9023Z" fill="#1C1C1B"/>
<path fill-rule="evenodd" clip-rule="evenodd" d="M58.7974 23.5663C59.2237 23.9927 59.2237 24.6839 58.7974 25.1103L47.731 36.1767C47.3046 36.603 46.6134 36.603 46.187 36.1767C45.7607 35.7503 45.7607 35.0591 46.187 34.6327L57.2534 23.5663C57.6798 23.14 58.371 23.14 58.7974 23.5663Z" fill="#1C1C1B"/>
<path fill-rule="evenodd" clip-rule="evenodd" d="M33.8915 48.472C34.3179 48.8983 34.3179 49.5896 33.8915 50.0159L25.136 58.7715C24.7096 59.1978 24.0184 59.1978 23.592 58.7715C23.1657 58.3451 23.1657 57.6539 23.592 57.2275L32.3476 48.472C32.7739 48.0456 33.4652 48.0456 33.8915 48.472Z" fill="#1C1C1B"/>
<path fill-rule="evenodd" clip-rule="evenodd" d="M26.9835 41.5384C27.4105 41.9641 27.4115 42.6553 26.9857 43.0823L18.2302 51.8635C17.8045 52.2905 17.1132 52.2915 16.6862 51.8658C16.2593 51.4401 16.2583 50.7488 16.684 50.3218L25.4395 41.5406C25.8653 41.1136 26.5565 41.1126 26.9835 41.5384Z" fill="#1C1C1B"/>
<path fill-rule="evenodd" clip-rule="evenodd" d="M51.8649 16.6592C52.2912 17.0856 52.2912 17.7768 51.8649 18.2032L40.7985 29.2696C40.3721 29.6959 39.6809 29.6959 39.2545 29.2696C38.8282 28.8432 38.8282 28.152 39.2545 27.7256L50.3209 16.6592C50.7473 16.2329 51.4385 16.2329 51.8649 16.6592Z" fill="#1C1C1B"/>
</svg>
