<svg xmlns="http://www.w3.org/2000/svg" viewBox="0 0 112 67"><path d="M32.39 37.55v7.93l-11.94 1.25" style="fill:none;stroke:#000;stroke-linecap:round;stroke-linejoin:round;stroke-width:1.2882499694824219px"/><path d="M24.12 60.9h-8.41l-1.4-5 1.4-.91V44.87l3.85-9.49a4.17 4.17 0 0 1 3.88-2.6H35c3.06-7.49 7.83-8.11 7.83-8.11v27.74h55.6v8.51h-6M34.64 60.9H82" style="fill:none;stroke:#000;stroke-linecap:round;stroke-linejoin:round;stroke-width:1.2882499694824219px"/><path d="M29.38 66.16a5.26 5.26 0 1 0-5.26-5.26 5.26 5.26 0 0 0 5.26 5.26ZM87.23 66.16A5.26 5.26 0 1 0 82 60.9a5.26 5.26 0 0 0 5.23 5.26Z" style="fill:none;stroke:#000;stroke-linecap:round;stroke-linejoin:round;stroke-width:1.2882499694824219px"/><path d="M89.43 48.9H55a.74.74 0 0 1-.73-.71l-.08-19.52h-1.43a.72.72 0 0 1-.73-.73v-5.32a.71.71 0 0 1 .29-.59L71.77 8a.76.76 0 0 1 .84 0l19.44 14a.71.71 0 0 1 .29.59v5.32a.72.72 0 0 1-.73.73H90.2l-.06 19.52a.71.71 0 0 1-.71.74Z" style="fill:none;stroke:#1d1d1b;stroke-miterlimit:10;stroke-width:1.2882499694824219px"/><path d="M53.34 28.75h-5.58a.91.91 0 0 1-.91-.91v-6.68a.9.9 0 0 1 .37-.73L71.69 2.79a.92.92 0 0 1 1 0l24.47 17.64a.85.85 0 0 1 .37.73v6.68a.9.9 0 0 1-.9.91h-5.55" style="fill:none;stroke:#1d1d1b;stroke-miterlimit:10;stroke-width:1.2882499694824219px"/><path d="M67.39 40h-6.91a.92.92 0 0 1-.92-.92V28.26a.92.92 0 0 1 .92-.92h6.91a.92.92 0 0 1 .92.92V39a.93.93 0 0 1-.92 1ZM83.73 40h-6.91a.92.92 0 0 1-.92-1V28.26a.92.92 0 0 1 .92-.92h6.91a.92.92 0 0 1 .92.92V39a.93.93 0 0 1-.92 1Z" style="fill:#fff000;stroke:#1d1d1b;stroke-miterlimit:10;stroke-width:1.2882499694824219px"/><path d="M61.43 10V1.84a.92.92 0 0 0-.92-.92h-4.27a.93.93 0 0 0-.93.92v12.54Z" style="fill:none;stroke:#1d1d1b;stroke-miterlimit:10;stroke-width:1.2882499694824219px"/></svg>