<svg width="71" height="77" viewBox="0 0 71 77" fill="none" xmlns="http://www.w3.org/2000/svg">
<path fill-rule="evenodd" clip-rule="evenodd" d="M35.572 3.07444C35.5712 3.07497 35.5705 3.0755 35.5697 3.07605L3.09576 26.4967L3.08747 26.5024C3.06687 26.5167 3.06093 26.527 3.05817 26.5324C3.0549 26.5388 3.04606 26.5591 3.04606 26.6019V35.4831C3.04606 35.5696 3.11897 35.6425 3.2055 35.6425H6.58399L6.73621 69.2311C6.7404 69.2769 6.7611 69.3203 6.79283 69.352C6.82369 69.3829 6.85729 69.3962 6.89577 69.3962H64.4148C64.4733 69.3962 64.5105 69.3744 64.5292 69.356C64.5343 69.351 64.538 69.3463 64.5407 69.3421C64.5431 69.3384 64.5447 69.3351 64.5459 69.3322C64.5481 69.3269 64.551 69.3175 64.5504 69.3001L64.5496 69.2784L64.702 35.6425H68.0805C68.167 35.6425 68.2399 35.5696 68.2399 35.4831V26.6019C68.2399 26.5783 68.2341 26.5541 68.2243 26.5346C68.2152 26.5164 68.2055 26.5073 68.1985 26.5024L68.1899 26.4965L35.7655 3.07605C35.7647 3.07548 35.7639 3.07492 35.7631 3.07437C35.7074 3.03665 35.6277 3.03667 35.572 3.07444ZM34.3632 1.36686C35.1431 0.816353 36.1921 0.816353 36.972 1.36686L36.9813 1.37342L69.3992 24.7892C70.0189 25.2232 70.332 25.9236 70.332 26.6019V35.4831C70.332 36.7251 69.3225 37.7347 68.0805 37.7347H66.7846L66.6418 69.2475C66.6759 70.5425 65.612 71.4883 64.4148 71.4883H6.89577C5.63261 71.4883 4.68976 70.4654 4.645 69.3016L4.64431 69.2839L4.50134 37.7347H3.2055C1.96352 37.7347 0.953949 36.7251 0.953949 35.4831V26.6019C0.953949 25.8869 1.27654 25.2162 1.88709 24.7889L34.3632 1.36686Z" fill="#1D1D1B"/>
<path d="M45.8404 75.4119H25.4701C22.7885 75.4119 20.599 73.2469 20.599 70.5407V50.195C20.599 47.5134 22.7639 45.3239 25.4701 45.3239H45.8404C48.522 45.3239 50.7116 47.4888 50.7116 50.195V70.5653C50.687 73.2469 48.522 75.4119 45.8404 75.4119Z" fill="#FFF000"/>
<path fill-rule="evenodd" clip-rule="evenodd" d="M25.4701 46.3699C23.3451 46.3699 21.645 48.0877 21.645 50.195V70.5408C21.645 72.6658 23.3628 74.3659 25.4701 74.3659H45.8404C47.941 74.3659 49.6438 72.6714 49.6655 70.5603V50.195C49.6655 48.07 47.9477 46.3699 45.8404 46.3699H25.4701ZM19.5529 50.195C19.5529 46.9392 22.1827 44.2778 25.4701 44.2778H45.8404C49.0963 44.2778 51.7576 46.9077 51.7576 50.195V70.5749C51.7278 73.8249 49.1015 76.458 45.8404 76.458H25.4701C22.2142 76.458 19.5529 73.8281 19.5529 70.5408V50.195Z" fill="#1C1C1B"/>
<path fill-rule="evenodd" clip-rule="evenodd" d="M47.265 52.7491C47.6887 53.1419 47.7138 53.8037 47.321 54.2274L33.8884 68.7179C33.697 68.9244 33.4304 69.045 33.1489 69.0524C32.8674 69.0599 32.5948 68.9535 32.3928 68.7574L24.0281 60.6388C23.6136 60.2364 23.6037 59.5742 24.0061 59.1596C24.4084 58.745 25.0707 58.7351 25.4852 59.1375L33.0818 66.5107L45.7867 52.8051C46.1795 52.3815 46.8413 52.3564 47.265 52.7491Z" fill="#1C1C1B"/>
</svg>
