<svg width="68" height="67" viewBox="0 0 68 67" fill="none" xmlns="http://www.w3.org/2000/svg"><path d="M34 52.16a18.66 18.66 0 1 0 0-37.32 18.66 18.66 0 0 0 0 37.32Z" fill="#FFF000" stroke="#1C1C1B" stroke-width="1.75" stroke-miterlimit="10" stroke-linejoin="round"/><path d="m23.46 33.58 8.47 8.25 13.64-14.7" stroke="#1C1C1B" stroke-width="1.75" stroke-miterlimit="10" stroke-linecap="round" stroke-linejoin="round"/><path d="m33.99 1 6.68 10.43 11.26-5.16-.02 12.38 12.28 1.75-6.73 10.4 9.38 8.09L55.54 44l3.52 11.89-12.26-1.79L43.35 66l-9.36-8.13L24.65 66 21.2 54.11 8.92 55.9l3.51-11.89L1.16 38.9l9.38-8.08L3.81 20.4l12.28-1.75-.04-12.38 11.28 5.16L33.99 1Z" stroke="#1C1C1B" stroke-width="1.75" stroke-miterlimit="10" stroke-linejoin="round"/></svg>