<svg xmlns="http://www.w3.org/2000/svg" viewBox="0 0 112 67"><path d="M55.83 52.16A18.66 18.66 0 1 0 37.18 33.5a18.66 18.66 0 0 0 18.65 18.66Z" style="fill:#fff000;stroke:#1c1c1b;stroke-linejoin:round;stroke-width:1.7492200136184692px"/><path d="m45.3 33.58 8.47 8.25 13.64-14.71" style="fill:none;stroke:#1c1c1b;stroke-linecap:round;stroke-linejoin:round;stroke-width:1.7492200136184692px"/><path d="m55.83 1 6.68 10.43 11.26-5.16v12.38L86 20.4l-6.7 10.41 9.38 8.08L77.39 44l3.51 11.9-12.26-1.79L65.19 66l-9.36-8.13L46.49 66 43 54.11 30.75 55.9 34.27 44 23 38.89l9.38-8.08-6.73-10.41 12.28-1.75V6.27l11.27 5.16Z" style="fill:none;stroke:#1c1c1b;stroke-linejoin:round;stroke-width:1.7492200136184692px"/></svg>