<svg xmlns="http://www.w3.org/2000/svg" fill="none" viewBox="0 0 648 101"><path fill="#1C1C1B" d="M59.4 17.88H54V13.5h15.8v4.37h-5.4V31.5h-5V17.88h-.01Zm13.02-4.38H86.9v4.24h-9.55v2.73H86v3.93h-8.64v2.86h9.67v4.24h-14.6v-18Zm22.81 8.86-5.92-8.85h5.73l3.2 5.07 3.22-5.07h5.6l-5.9 8.8 6.17 9.2h-5.73l-3.45-5.42-3.47 5.43h-5.62l6.17-9.16Zm14.45-8.86h4.99v6.73h6.4V13.5h4.98v18h-4.98v-6.84h-6.4v6.84h-4.99v-18Zm19.37 9c0-5.18 4.16-9.37 9.72-9.37 5.56 0 9.67 4.14 9.67 9.37 0 5.17-4.16 9.37-9.72 9.37-5.56 0-9.67-4.15-9.67-9.37Zm14.3 0c0-2.6-1.87-4.86-4.61-4.86-2.73 0-4.56 2.2-4.56 4.86 0 2.6 1.87 4.86 4.6 4.86 2.75 0 4.58-2.21 4.58-4.86Zm8.12-9h4.99v6.73h6.4V13.5h4.98v18h-4.99v-6.84h-6.4v6.84h-4.98v-18Zm20.26 0h4.94v10.13l6.97-10.13h4.65v18h-4.94V21.37l-6.97 10.13h-4.65v-18Zm20.45 0h4.99v7.3l6.19-7.3h5.92l-6.81 7.73 7.05 10.26h-5.99l-4.52-6.69-1.83 2.03v4.66h-4.98v-18h-.02Zm17.37 9c0-5.18 4.16-9.37 9.72-9.37 5.55 0 9.67 4.14 9.67 9.37 0 5.17-4.16 9.37-9.72 9.37-5.56 0-9.67-4.15-9.67-9.37Zm14.29 0c0-2.6-1.87-4.86-4.62-4.86-2.73 0-4.56 2.2-4.56 4.86 0 2.6 1.88 4.86 4.6 4.86 2.75 0 4.58-2.21 4.58-4.86Zm27.39-9h4.98v5.65h2.74c4.31 0 7.47 2.06 7.47 6.11 0 3.9-2.82 6.23-7.22 6.23h-7.97v-18Zm7.59 13.81c1.65 0 2.62-.75 2.62-2.16 0-1.25-.99-2.08-2.6-2.08h-2.63v4.24h2.6Z"/><path fill="#E30413" d="M45 36.01 36 45H2.7L0 42.3V9l8.99-9h33.3l2.7 2.72V36Z"/><path fill="#fff" d="M42.28 0 32.17 10.11V24.9l-8.29-11.4H6.4v3.58h5.14v13.66L0 42.3V45h2.7l12.73-12.72v-15.2h5.15V31.5h3.84V20.1l8.29 11.4h3.28V11.72l9-9V0h-2.7Z"/><path fill="#1C1C1B" d="M233.35 13.5v7.89c0 1.87-.19 4.57-1.41 5.52a4.1 4.1 0 0 1-2.15.8v4.25h.48c1.73 0 3.65-.7 4.4-1.16 3.02-1.9 3.38-5.54 3.38-9.65v-3.27h4.3V31.5h4.99v-18h-13.99Z"/><g clip-path="url(#a)"><path fill="#EA0029" fill-rule="evenodd" d="M593.53 77.51a2.32 2.32 0 0 0-1.86.8c-.45.53-.68 1.4-.68 2.64 0 1.23.23 2.11.7 2.64a2.64 2.64 0 0 0 3.76 0c.47-.52.68-1.46.68-2.79 0-1.13-.24-1.96-.7-2.49a2.42 2.42 0 0 0-1.9-.8Zm36.07.12h-.93v6.59h.93c.57.03 1.15-.05 1.7-.26.35-.2.63-.53.78-.91.22-.67.32-1.38.28-2.1 0-1.27-.21-2.14-.63-2.61-.45-.48-1.15-.71-2.13-.71Z" clip-rule="evenodd"/><path fill="#EA0029" fill-rule="evenodd" d="M549.2 0v98.8h72.2c18.43-.42 26.72-8.2 26.6-23.25V0h-98.8Zm23.58 86.96h-3.57l-4.6-6.62v6.62h-3.57V74.89h3.55l4.64 6.67V74.9h3.58l-.02 12.06Zm12.86 0h-10.35V74.88h10.16v2.57h-6.36v1.96h5.9v2.46h-5.9v2.38h6.55v2.7Zm13.55-2.66a5.1 5.1 0 0 1-2.1 2.1 7 7 0 0 1-3.4.76 7.99 7.99 0 0 1-3.44-.65 5.15 5.15 0 0 1-2.2-2.06 6.76 6.76 0 0 1-.85-3.52c0-1.97.56-3.5 1.67-4.6 1.12-1.1 2.67-1.64 4.65-1.64 2.04 0 3.62.54 4.72 1.62 1.1 1.07 1.66 2.58 1.66 4.52a7.3 7.3 0 0 1-.7 3.47Zm16.53 2.66h-3.1v-9.2l-2.4 9.2h-2.78l-2.4-9.2v9.2h-3.1V74.88h4.99l1.92 7.34 1.92-7.34h4.97l-.02 12.08Zm6.37 0h-3.8V74.88h3.82l-.02 12.08Zm13.61-3.08a4.73 4.73 0 0 1-2.94 2.75 9 9 0 0 1-2.27.33h-5.63V74.88h5.63c.92-.03 1.84.13 2.7.47.66.28 1.24.71 1.7 1.27.44.57.77 1.23.96 1.93.2.76.3 1.54.3 2.33a8 8 0 0 1-.45 3Z" clip-rule="evenodd"/><path fill="#fff" d="M639.54 68.11a3.39 3.39 0 1 0 0 6.78 3.39 3.39 0 0 0 0-6.78Zm0 6.4a3.02 3.02 0 1 1-.03-6.03 3.02 3.02 0 0 1 .03 6.03Z"/><path fill="#fff" d="M638.64 71.82v1.58h-.46v-3.8h1.04c.36-.03.73.06 1.03.27a.96.96 0 0 1 .34.8 1.01 1.01 0 0 1-.77 1.02l1.03 1.71h-.5l-.92-1.58h-.79Zm0-.38h.6c.25.02.5-.05.7-.19a.69.69 0 0 0 .21-.55.61.61 0 0 0-.22-.55 1.2 1.2 0 0 0-.71-.16h-.58v1.45Z"/></g><path fill="#E3032C" d="m344.1 0 18.58 10.94V25.1h-6.17v-9.4h-12.4v15.64h30.98V0H344.1Z"/><path fill="#11120D" d="M396.97 0h-7.43v20.13s.35 6.03-6.73 5.25v5.96h5.47c1.75 0 3.5-.49 4.98-1.47 1.89-1.26 3.71-3.5 3.71-7.5V0Zm19.07 18.93V0h7.3v18.93s1.26 12.41-11.22 12.41-11.36-12.4-11.36-12.4V0h7.43v18.93s-.49 6.31 3.86 6.31c4.34.07 4-6.3 4-6.3ZM425.3 0v5.89h6.45v25.45h7.71V5.9h6.46V0H425.3Zm31.49 5.89 3.43 13.04h-6.94l3.5-13.04ZM452.86 0l-10.17 31.34h7.01l2.1-7.22h9.75l1.97 7.22h7.99L460.99 0h-8.13Z"/><g clip-path="url(#b)"><path fill="#37A58C" d="M297.3 60.4c-2.48 1.33-5.02 2.64-7.14 4.85a7.48 7.48 0 0 0-1.3 8.03 27.59 27.59 0 0 0 4.91 6.85 27.69 27.69 0 0 1 3.54-19.72Z"/><path fill="#DD0060" d="M295.24 81.45c2.44 1.55 4.88 3.05 7.72 3.7 3.1.71 5.97-.55 7.8-3.05a31.7 31.7 0 0 0 3.32-7.51 27.88 27.88 0 0 1-18.84 6.86Z"/><path fill="#505050" d="M313.6 62.52a7.55 7.55 0 0 0-5.92-3.9c-2.78-.1-5.56.18-8.26.85a28.17 28.17 0 0 1 15.31 12.92c.14-3.38.3-7-1.13-9.87Z"/><path fill="#000" d="M414.35 96.14c.37-1.02.53-2.1.48-3.19V72.41h-7.04v20.38a1.48 1.48 0 0 1-1.45 1.5h-.15a1.45 1.45 0 0 1-1.55-1.34V72.4h-7v20.55a8.06 8.06 0 0 0 .45 3.19 4.6 4.6 0 0 0 3 2.5c.63.1 1.27.16 1.91.15h6.43c.64.01 1.28-.04 1.91-.15a4.58 4.58 0 0 0 3.01-2.5ZM381.19 72.4c-2.27 0-3.86 1.96-3.84 4.3v22.1h7.14V87.82h2.91v10.96h7.12V72.4h-13.33Zm6.2 10.9h-2.9v-5.36c0-.98.37-1.34 1.26-1.34h1.65v6.7Zm-20.34-10.9v10.9h-3.13V72.4h-7.18v26.4h7.2V87.82H367v10.96h7.2V72.4h-7.16Zm-18.28 5.1h4.87v-5.1h-12.08v26.4h12.1v-5.12h-4.92v-5.85h4.17V83.3h-4.17l.03-5.8Zm-13.91 7.92a4.37 4.37 0 0 0 3.57-4.23v-4.46c-.04-2.4-1.78-4.32-3.69-4.32h-13.6V98.8h7.09V87.83H330c.9 0 1.25.41 1.25 1.37v9.6h7.17v-9.1c0-2.33-1.88-4.1-3.57-4.29ZM331.23 82c.03.8-.3 1.26-.9 1.34h-2.11v-6.7H330c.9 0 1.26.44 1.25 1.34l-.02 4.02Z"/></g><g fill="#E20026" clip-path="url(#c)"><path d="M189.23 99.64c-3.54 0-5.66-2.33-5.66-5.74 0-3.4 2.12-5.74 5.66-5.74s5.65 2.33 5.65 5.74c0 3.4-2.11 5.74-5.65 5.74Zm0-2.16c1.99 0 2.31-1.85 2.31-3.58 0-1.72-.32-3.58-2.31-3.58-1.98 0-2.31 1.86-2.31 3.58 0 1.73.33 3.58 2.3 3.58Zm8.78-9v-2.13l3.24-1.17v3.3h2.44v2.16h-2.44v5.03c0 1.43.22 1.8 1.34 1.8.35 0 .69-.03 1.04-.05v1.9c-.37.17-2.1.32-2.55.32-2.53 0-3.07-1.32-3.07-3.67v-5.33h-2.18v-2.16H198Zm12.79 11.16c-3.53 0-5.64-2.33-5.64-5.74 0-3.4 2.11-5.74 5.64-5.74 3.55 0 5.66 2.33 5.66 5.74 0 3.4-2.1 5.74-5.66 5.74Zm0-2.16c2 0 2.32-1.85 2.32-3.58 0-1.72-.32-3.58-2.32-3.58-1.97 0-2.3 1.86-2.3 3.58 0 1.73.33 3.58 2.3 3.58Zm-27.95 1.81-4.26-6.9c1.88-.94 2.93-2.55 2.93-4.26 0-3.02-2.73-4.47-5.4-4.5h-6.66V99.3h3.37v-6.36H175l3.9 6.36h3.95Zm-10.03-13.05h2.81c1.47.02 2.33.6 2.33 2 0 1.38-.87 2.12-2.33 2.14h-2.81v-4.14Z"/><path d="M231.86 99.28h-3.37l-38.86-38.87-38.7 38.87h-20.3l40.88-40.87H191l40.87 40.87Z"/><path d="M189.23 99.64c-3.54 0-5.66-2.33-5.66-5.74 0-3.4 2.12-5.74 5.66-5.74s5.65 2.33 5.65 5.74c0 3.4-2.11 5.74-5.65 5.74Zm0-2.16c1.99 0 2.31-1.85 2.31-3.58 0-1.72-.32-3.58-2.31-3.58-1.98 0-2.31 1.86-2.31 3.58 0 1.73.33 3.58 2.3 3.58Zm8.78-9v-2.13l3.24-1.17v3.3h2.44v2.16h-2.44v5.03c0 1.43.22 1.8 1.34 1.8.35 0 .69-.03 1.04-.05v1.9c-.37.17-2.1.32-2.55.32-2.53 0-3.07-1.32-3.07-3.67v-5.33h-2.18v-2.16H198Zm12.79 11.16c-3.53 0-5.64-2.33-5.64-5.74 0-3.4 2.11-5.74 5.64-5.74 3.55 0 5.66 2.33 5.66 5.74 0 3.4-2.1 5.74-5.66 5.74Zm0-2.16c2 0 2.32-1.85 2.32-3.58 0-1.72-.32-3.58-2.32-3.58-1.97 0-2.3 1.86-2.3 3.58 0 1.73.33 3.58 2.3 3.58Zm-27.95 1.81-4.26-6.9c1.88-.94 2.93-2.55 2.93-4.26 0-3.02-2.73-4.47-5.4-4.5h-6.66V99.3h3.37v-6.36H175l3.9 6.36h3.95Zm-10.03-13.05h2.81c1.47.02 2.33.6 2.33 2 0 1.38-.87 2.12-2.33 2.14h-2.81v-4.14Z"/><path d="M231.86 99.28h-3.37l-38.86-38.87-38.7 38.87h-20.3l40.88-40.87H191l40.87 40.87Z"/></g><defs><clipPath id="a"><path fill="#fff" d="M549.2 0H648v98.8h-98.8z"/></clipPath><clipPath id="b"><path fill="#fff" d="M288.23 58.6h126.6v40.2h-126.6z"/></clipPath><clipPath id="c"><path fill="#fff" d="M130.15 57.92h102.2v42.22h-102.2z"/></clipPath></defs></svg>