<svg width="113" height="63" viewBox="0 0 113 63" fill="none" xmlns="http://www.w3.org/2000/svg"><path d="M26.884 15.043v14.514H8.095M93 53.956H80.959" stroke="#000" stroke-width="1.668" stroke-miterlimit="10" stroke-linecap="round" stroke-linejoin="round"/><path d="M11.92 53.956H1.505v-24.4l9.866-21.103h15.514V1H93" stroke="#000" stroke-width="1.668" stroke-miterlimit="10" stroke-linecap="round" stroke-linejoin="round"/><path d="M64.52 53.956H28.352M64.52 53.956c0 4.53 3.688 8.218 8.219 8.218 4.53 0 8.218-3.688 8.218-8.218 0-4.53-3.688-8.218-8.218-8.218a8.216 8.216 0 0 0-8.218 8.218ZM11.92 53.956c0 4.53 3.687 8.218 8.217 8.218 4.53 0 8.218-3.688 8.218-8.218 0-4.53-3.687-8.218-8.218-8.218-4.53 0-8.218 3.687-8.218 8.218Z" stroke="#000" stroke-width="1.668" stroke-miterlimit="10" stroke-linecap="round"/><path d="M69.918 22.79H54.52v-5.374l-15.985 9.748 15.985 9.748v-5.394h15.397" fill="#FFF000"/><path d="M69.918 22.79H54.52v-5.374l-15.985 9.748 15.985 9.748v-5.394h15.397" stroke="#1D1D1B" stroke-width="1.668" stroke-miterlimit="10"/><path d="M105.277 27.164H80.329M99.04 14.71H80.33M111.495 39.618H80.329" stroke="#000" stroke-width="1.668" stroke-miterlimit="10" stroke-linecap="round" stroke-linejoin="round"/></svg>