<svg xmlns="http://www.w3.org/2000/svg" width="79.145" height="75.037" viewBox="0 0 79.145 75.037">
  <title>domy-icons-difficulty</title>
  <path d="M66.728,75.991h-52.4a2.161,2.161,0,0,1-2.153-2.085l-.119-28.668H10.979a2.155,2.155,0,0,1-2.152-2.153V34.991a2.107,2.107,0,0,1,.861-1.723L39.275,11.927a2.15,2.15,0,0,1,2.484-.013L71.325,33.257a2.077,2.077,0,0,1,.876,1.734v8.094a2.155,2.155,0,0,1-2.152,2.153h-1.1l-.1,28.628A2.129,2.129,0,0,1,66.728,75.991ZM14.265,73.847s.015.052.061.052h52.4a.032.032,0,0,0,.036-.037l.1-30.716h3.184l.06-8.155L40.554,13.624,10.927,34.953l-.009,8.132,3.219.061.127,30.7Z" transform="translate(-0.954 -0.954)" fill="#1d1d1b"/>
  <path d="M77.675,45.361H69.236V43.269h8.439a.329.329,0,0,0,.332-.332V32.777a.3.3,0,0,0-.1-.237L40.751,5.7a.321.321,0,0,0-.367-.006L3.178,32.518a.293.293,0,0,0-.132.259v10.16a.329.329,0,0,0,.332.332h8.487v2.092H3.378A2.427,2.427,0,0,1,.954,42.937V32.777a2.4,2.4,0,0,1,.994-1.951l37.2-26.821a2.409,2.409,0,0,1,2.831.007L79.1,30.822a2.342,2.342,0,0,1,1,1.955v10.16A2.426,2.426,0,0,1,77.675,45.361Z" transform="translate(-0.954 -0.954)" fill="#1d1d1b"/>
  <g>
    <path d="M33.22,61.34h-10.5a1.4,1.4,0,0,1-1.4-1.4V43.577a1.4,1.4,0,0,1,1.4-1.4H33.22a1.4,1.4,0,0,1,1.4,1.4v16.36A1.418,1.418,0,0,1,33.22,61.34Z" transform="translate(-0.954 -0.954)" fill="#fff000"/>
    <path d="M33.22,62.385h-10.5a2.451,2.451,0,0,1-2.448-2.448V43.578a2.451,2.451,0,0,1,2.448-2.449H33.22a2.451,2.451,0,0,1,2.448,2.449V59.937A2.466,2.466,0,0,1,33.22,62.385Zm-10.5-19.164a.358.358,0,0,0-.357.357V59.937a.357.357,0,0,0,.357.356H33.22a.376.376,0,0,0,.357-.389V43.578a.358.358,0,0,0-.356-.357Z" transform="translate(-0.954 -0.954)" fill="#1d1d1b"/>
  </g>
  <g>
    <path d="M58.068,61.34h-10.5a1.4,1.4,0,0,1-1.4-1.4V43.577a1.4,1.4,0,0,1,1.4-1.4h10.5a1.4,1.4,0,0,1,1.4,1.4v16.36A1.418,1.418,0,0,1,58.068,61.34Z" transform="translate(-0.954 -0.954)" fill="#fff000"/>
    <path d="M58.067,62.385H47.562a2.452,2.452,0,0,1-2.448-2.448V43.578a2.452,2.452,0,0,1,2.448-2.449H58.067a2.452,2.452,0,0,1,2.449,2.449V59.937A2.467,2.467,0,0,1,58.067,62.385ZM47.562,43.221a.357.357,0,0,0-.356.357V59.937a.357.357,0,0,0,.356.356H58.067a.374.374,0,0,0,.357-.388V43.578a.359.359,0,0,0-.357-.357Z" transform="translate(-0.954 -0.954)" fill="#1d1d1b"/>
  </g>
  <path d="M13.821,24.515V3.4A2.451,2.451,0,0,1,16.269.954h6.5A2.451,2.451,0,0,1,25.212,3.4V16.287ZM16.269,3.046a.357.357,0,0,0-.356.356V20.423l7.208-5.2V3.4a.358.358,0,0,0-.357-.356Z" transform="translate(-0.954 -0.954)" fill="#1d1d1b"/>
</svg>
