<svg xmlns="http://www.w3.org/2000/svg" viewBox="0 0 112 67"><path d="M27.08 17.43V31.6H8.73M91.63 55.43H79.87" style="fill:none;stroke:#000;stroke-linecap:round;stroke-linejoin:round;stroke-width:1.667889952659607px"/><path d="M12.47 55.43H2.3V31.6L11.93 11h15.15V3.72h64.55" style="fill:none;stroke:#000;stroke-linecap:round;stroke-linejoin:round;stroke-width:1.667889952659607px"/><path d="M63.82 55.43H28.51M63.83 55.43a8 8 0 1 0 8-8 8 8 0 0 0-8 8ZM12.47 55.43a8 8 0 1 0 8-8 8 8 0 0 0-8 8Z" style="fill:none;stroke:#000;stroke-linecap:round;stroke-miterlimit:10;stroke-width:1.667889952659607px"/><path d="M69.1 25h-15v-5.25l-15.6 9.52 15.6 9.52v-5.27h15" style="fill:#fff000"/><path d="M69.1 25h-15v-5.25l-15.6 9.52 15.6 9.52v-5.27h15" style="fill:none;stroke:#1d1d1b;stroke-miterlimit:10;stroke-width:1.667889952659607px"/><path d="M103.62 29.27H79.26M97.53 17.11H79.26M109.69 41.43H79.26" style="fill:none;stroke:#000;stroke-linecap:round;stroke-linejoin:round;stroke-width:1.667889952659607px"/></svg>