<svg width="71" height="75" viewBox="0 0 71 75" fill="none" xmlns="http://www.w3.org/2000/svg">
<path d="M69.7468 26.8262H62.4836V63.5973H69.7468V26.8262Z" fill="#FFF000"/>
<path fill-rule="evenodd" clip-rule="evenodd" d="M62.1794 6.71936C62.6097 6.71908 62.9988 6.97521 63.1687 7.3706L70.1282 23.5671C70.1858 23.7013 70.2156 23.8458 70.2156 23.9919V69.7723C70.2156 72.5683 67.937 74.8469 65.141 74.8469H59.2445C56.4485 74.8469 54.1699 72.5683 54.1699 69.7723V23.9919C54.1699 23.8463 54.1995 23.7022 54.2568 23.5684L61.1909 7.3719C61.3603 6.9763 61.7491 6.71964 62.1794 6.71936ZM62.1819 10.5252L56.322 24.2126V69.7723C56.322 71.3798 57.637 72.6948 59.2445 72.6948H65.141C66.7485 72.6948 68.0635 71.3798 68.0635 69.7723V24.2133L62.1819 10.5252Z" fill="#1C1C1B"/>
<path fill-rule="evenodd" clip-rule="evenodd" d="M59.6111 11.2623C59.6111 10.668 60.0928 10.1863 60.6871 10.1863H63.6734C64.2676 10.1863 64.7494 10.668 64.7494 11.2623C64.7494 11.8566 64.2676 12.3384 63.6734 12.3384H60.6871C60.0928 12.3384 59.6111 11.8566 59.6111 11.2623Z" fill="#1C1C1B"/>
<path fill-rule="evenodd" clip-rule="evenodd" d="M61.1041 26.3202C61.1041 25.7259 61.5859 25.2441 62.1802 25.2441H69.1396C69.7339 25.2441 70.2156 25.7259 70.2156 26.3202C70.2156 26.9145 69.7339 27.3962 69.1396 27.3962H63.2562V63.4324H69.1396C69.7339 63.4324 70.2156 63.9142 70.2156 64.5085C70.2156 65.1028 69.7339 65.5845 69.1396 65.5845H62.1802C61.5859 65.5845 61.1041 65.1028 61.1041 64.5085V26.3202Z" fill="#1C1C1B"/>
<path fill-rule="evenodd" clip-rule="evenodd" d="M0.92395 1.99999C0.92395 1.40571 1.40571 0.92395 1.99999 0.92395H20.5247C21.119 0.92395 21.6008 1.40571 21.6008 1.99999V42.5165C21.6008 43.1108 21.119 43.5926 20.5247 43.5926C19.9305 43.5926 19.4487 43.1108 19.4487 42.5165V3.07604H3.07604V64.5084C3.07604 65.1026 2.59427 65.5844 1.99999 65.5844C1.40571 65.5844 0.92395 65.1026 0.92395 64.5084V1.99999Z" fill="#1C1C1B"/>
<path fill-rule="evenodd" clip-rule="evenodd" d="M0.923828 36.7213C0.923828 36.127 1.40559 35.6453 1.99987 35.6453H6.63106C7.22534 35.6453 7.7071 36.127 7.7071 36.7213C7.7071 37.3156 7.22534 37.7973 6.63106 37.7973H1.99987C1.40559 37.7973 0.923828 37.3156 0.923828 36.7213Z" fill="#1C1C1B"/>
<path fill-rule="evenodd" clip-rule="evenodd" d="M0.923828 50.6149C0.923828 50.0206 1.40559 49.5388 1.99987 49.5388H6.63106C7.22534 49.5388 7.7071 50.0206 7.7071 50.6149C7.7071 51.2091 7.22534 51.6909 6.63106 51.6909H1.99987C1.40559 51.6909 0.923828 51.2091 0.923828 50.6149Z" fill="#1C1C1B"/>
<path fill-rule="evenodd" clip-rule="evenodd" d="M0.923828 22.8531C0.923828 22.2589 1.40559 21.7771 1.99987 21.7771H6.63106C7.22534 21.7771 7.7071 22.2589 7.7071 22.8531C7.7071 23.4474 7.22534 23.9292 6.63106 23.9292H1.99987C1.40559 23.9292 0.923828 23.4474 0.923828 22.8531Z" fill="#1C1C1B"/>
<path fill-rule="evenodd" clip-rule="evenodd" d="M11.2002 11.1983C11.1839 11.2148 11.1743 11.2368 11.1743 11.2625C11.1743 11.2806 11.1777 11.2921 11.1809 11.2998C11.1846 11.3083 11.1902 11.3168 11.1982 11.3247C11.2147 11.341 11.2367 11.3506 11.2624 11.3506C11.2805 11.3506 11.292 11.3472 11.2997 11.3439C11.3082 11.3403 11.3167 11.3347 11.3246 11.3267C11.3408 11.3102 11.3505 11.2882 11.3505 11.2625C11.3505 11.2573 11.3502 11.2425 11.3266 11.2193C11.3051 11.1982 11.2752 11.1822 11.242 11.1761C11.2349 11.1774 11.2294 11.1792 11.2251 11.1811C11.2166 11.1847 11.208 11.1903 11.2002 11.1983ZM9.02222 11.2625C9.02222 10.0509 9.99492 9.02234 11.2624 9.02234H11.2839L11.3054 9.0232C12.4597 9.06937 13.5025 9.99834 13.5025 11.2625C13.5025 12.4742 12.5298 13.5027 11.2624 13.5027C10.0507 13.5027 9.02222 12.53 9.02222 11.2625Z" fill="#1C1C1B"/>
<path fill-rule="evenodd" clip-rule="evenodd" d="M36.736 32.1784C37.0553 32.1828 37.3561 32.3288 37.5572 32.577L49.1225 46.8501C49.4966 47.3119 49.4256 47.9895 48.9639 48.3636C48.5021 48.7377 47.8245 48.6667 47.4504 48.205L36.698 34.935L4.33912 72.6949H48.2865C48.8807 72.6949 49.3625 73.1767 49.3625 73.7709C49.3625 74.3652 48.8807 74.847 48.2865 74.847H1.99989C1.57968 74.847 1.19792 74.6024 1.02231 74.2206C0.846705 73.8389 0.909388 73.3898 1.18282 73.0708L35.9041 32.5542C36.1119 32.3117 36.4166 32.174 36.736 32.1784Z" fill="#1C1C1B"/>
<path fill-rule="evenodd" clip-rule="evenodd" d="M36.7211 49.5391C37.0244 49.5391 37.3136 49.667 37.5175 49.8915L49.0828 62.621C49.3692 62.9362 49.4427 63.3906 49.2704 63.78C49.0981 64.1694 48.7123 64.4206 48.2864 64.4206H25.1558C24.7299 64.4206 24.3441 64.1694 24.1718 63.78C23.9994 63.3906 24.073 62.9362 24.3594 62.621L35.9247 49.8915C36.1286 49.667 36.4178 49.5391 36.7211 49.5391ZM27.5872 62.2685H45.8549L36.7211 52.2153L27.5872 62.2685Z" fill="#1C1C1B"/>
</svg>
