<svg width="81" height="63" viewBox="0 0 81 63" fill="none" xmlns="http://www.w3.org/2000/svg"><path d="M18.03 35.3v7.42L6.85 43.89" stroke="#000" stroke-width="1.29" stroke-miterlimit="10" stroke-linecap="round" stroke-linejoin="round"/><path d="M10.3 57.16H2.41l-1.3-4.67 1.3-.85v-9.5l3.6-8.87a3.9 3.9 0 0 1 3.64-2.44H20.5c2.87-7.02 7.34-7.6 7.34-7.6V49.2h52.05v7.97h-5.6M20.14 57.16h44.31" stroke="#000" stroke-width="1.29" stroke-miterlimit="10" stroke-linecap="round" stroke-linejoin="round"/><path d="M15.22 62.08a4.92 4.92 0 1 0 0-9.85 4.92 4.92 0 0 0 0 9.85ZM69.37 62.08a4.92 4.92 0 1 0 0-9.85 4.92 4.92 0 0 0 0 9.85Z" stroke="#000" stroke-width="1.29" stroke-miterlimit="10" stroke-linecap="round" stroke-linejoin="round"/><path d="M71.43 45.92H39.16a.69.69 0 0 1-.68-.67l-.07-18.27h-1.3a.68.68 0 0 1-.69-.68V21.3c0-.22.1-.4.27-.54L54.9 7.64a.68.68 0 0 1 .8 0l18.18 13.13c.19.12.28.33.28.54v4.99c0 .38-.3.68-.68.68h-1.32l-.06 18.27c0 .38-.3.67-.67.67Z" stroke="#1D1D1B" stroke-width="1.29" stroke-miterlimit="10"/><path d="M37.65 27.06h-5.23a.85.85 0 0 1-.85-.85v-6.26c0-.27.12-.51.35-.68l22.9-16.51c.3-.21.7-.21 1 0l22.85 16.51c.23.15.35.4.35.68v6.26c0 .47-.38.85-.85.85h-5.2" stroke="#1D1D1B" stroke-width="1.29" stroke-miterlimit="10"/><path d="M50.8 37.54h-6.47a.86.86 0 0 1-.86-.86V26.6c0-.47.38-.86.86-.86h6.47c.47 0 .86.38.86.86v10.08a.87.87 0 0 1-.86.86ZM66.1 37.54h-6.47a.86.86 0 0 1-.87-.86V26.6c0-.47.38-.86.87-.86h6.47c.47 0 .86.38.86.86v10.08a.87.87 0 0 1-.86.86Z" fill="#FFF000" stroke="#1D1D1B" stroke-width="1.29" stroke-miterlimit="10"/><path d="M45.22 9.47v-7.6a.86.86 0 0 0-.86-.87h-4a.86.86 0 0 0-.86.86V13.6l5.72-4.13Z" stroke="#1D1D1B" stroke-width="1.29" stroke-miterlimit="10"/></svg>