<svg width="52" height="53" fill="none" xmlns="http://www.w3.org/2000/svg"><path d="M41.6 4.7h-3.9c-3.2 0-9.9 3.6-9.9 5.9v6.6c0 2.3 6.7 5.9 9.9 5.9h3.9" fill="#F3E72F"/><path d="M50.8 9.1h-7.7m7.7 9h-7.7m-.9 7.1V2m-1.4 2.4h-3.9C33.7 4.4 27 8 27 10.3v6.6c0 2.3 6.7 5.9 9.9 5.9h3.9" stroke="#1C1C1B" stroke-width="2.18" stroke-miterlimit="22.93" stroke-linecap="round" stroke-linejoin="round"/><path d="m3.7 51.8 33.1.1c3.3 0 5.9-.5 8-1.4 2.3-1 3.9-2.4 4.8-4 .3-.6.6-1.2.8-1.9.2-.7.3-1.3.3-2s-.1-1.3-.2-2a9.73 9.73 0 0 0-4.8-6.1c-1.8-1-3.9-1.6-6.5-1.7-4.1-.1-8.2-.1-12.3 0H16c-3.1 0-5.7-.5-7.7-1.4-2.4-1-4.1-2.4-5.1-4.1a7.61 7.61 0 0 1 0-8.2c1-1.6 2.7-3.1 4.9-4.1 2-.9 4.5-1.4 7.4-1.4H27" stroke="#1C1C1B" stroke-width="2.18" stroke-miterlimit="22.93" stroke-linecap="round" stroke-linejoin="round"/></svg>