<svg xmlns="http://www.w3.org/2000/svg" viewBox="0 0 60 60"><path fill="none" d="M0 0h60v60H0z"/><path d="m37.4 12.5 10.8-8.7a2.3 2.3 0 0 1 3 .4l3.9 4.4a1.9 1.9 0 0 1-.3 2.8l-12 8.1c-2 1.3-4.2 1.5-5.8-.3l-.7-.8c-1.7-1.9-1-4.3 1-5.9Z" fill="#f3e72f"/><path d="m37.4 12.1 10.8-8.7a2.3 2.3 0 0 1 3 .4l3.9 4.4a1.9 1.9 0 0 1-.3 2.8l-12 8.1c-2 1.3-4.2 1.5-5.8-.3l-.7-.8c-1.8-1.9-1-4.2 1-5.9ZM36.2 19c-4 3.5-3.6 2.7-3.6 7.8v2.4c0 5 .4 4.2-3.5 7.8-1.2 1.1-6.7 5.1-7.8 6.1" fill="none" stroke="#1c1c1b" stroke-linecap="round" stroke-linejoin="round" stroke-width="2.2"/><path d="m23.2 52.6-7.8 2.1-7.8 2.1a2.2 2.2 0 0 1-2-.5 1.6 1.6 0 0 1-.5-1.7l5.2-11.5 5.3-11.7c.6-1.3 2.3-1.7 4.6-1.5L46 44c.6 1.4 0 2.5-2.3 3.1l-10.3 2.8Z" fill="none" stroke="#1c1c1b" stroke-linecap="round" stroke-linejoin="round" stroke-width="2.2"/></svg>