<svg xmlns="http://www.w3.org/2000/svg" fill="none" viewBox="0 0 61 67"><path stroke="#1C1C1B" stroke-linecap="round" stroke-linejoin="round" stroke-miterlimit="22.9" stroke-width="2.7" d="M28.7 12.6V8M42 5h-9.9m-6.7 0h-10M52.2 50.6c-2.4 6.7-4.8 9.2-4.8 11.2s2 3.7 4.6 3.7c2.5 0 4.5-1.6 4.5-3.7 0-2-4.6-4.8-4.3-11.2ZM1.8 26.4V38m1.7-10h17.2c.7-.3 1.3-.8 1.5-1.5V20m-2.5-1.6H38M35.4 20v6.5c.2.7.8 1.2 1.5 1.4 11.5 0 17.2 1 19 10.3.3 1.7.5 4.8.5 7.1m-8.4 0c0-2 0-4.5-.3-5.7-.6-2.3-2.2-3.3-5.5-3.3-4 0-5 4.7-13.4 4.7s-9.3-4.6-13.3-4.6h-12m21-19.4V14c0-.8.6-1.4 1.4-1.4H31m0 0h.8c.8 0 1.4.6 1.4 1.4V17m12.4 30h13.2"/><path fill="#FFF000" stroke="#1C1C1B" stroke-linecap="round" stroke-linejoin="round" stroke-miterlimit="22.9" stroke-width="2.7" d="M28.7 2a3 3 0 0 1 3 3 3 3 0 0 1-3 3 3 3 0 0 1-3-3 3 3 0 0 1 3-3Z"/><path fill="#FFF000" d="M31.8 17h-5.9a.3.3 0 0 1-.3-.3v-2.5c0-.2.1-.3.3-.3h5.9c.1 0 .3.1.3.3v2.5c0 .2-.2.3-.3.3Z"/></svg>