<svg xmlns="http://www.w3.org/2000/svg" viewBox="0 0 60 60"><path fill="none" d="M0 0h60v60H0z"/><path d="M44.6 7.7h-3.9c-3.2 0-9.9 3.6-9.9 5.9v6.6c0 2.3 6.7 5.9 9.9 5.9h3.9" fill="#f3e72f"/><path d="M53.8 12.1h-7.7m7.7 9h-7.7m-.9 7.1V5m-1.4 2.4h-3.9c-3.2 0-9.9 3.6-9.9 5.9v6.6c0 2.3 6.7 5.9 9.9 5.9h3.9" fill="none" stroke="#1c1c1b" stroke-linecap="round" stroke-linejoin="round" stroke-width="2.2"/><path d="m6.7 54.8 33.1.1a20.1 20.1 0 0 0 8-1.4 9.8 9.8 0 0 0 4.8-4 10.8 10.8 0 0 0 .8-1.9 7 7 0 0 0 .3-2 13.6 13.6 0 0 0-.2-2 10.7 10.7 0 0 0-.7-1.9 9.7 9.7 0 0 0-4.1-4.2 14.2 14.2 0 0 0-6.5-1.7q-6.2-.1-12.3 0H19a19 19 0 0 1-7.7-1.4 10.3 10.3 0 0 1-5.1-4.1 7.2 7.2 0 0 1-.9-2 7.5 7.5 0 0 1 0-4.2 8.8 8.8 0 0 1 .9-2 11.3 11.3 0 0 1 4.9-4.1 18 18 0 0 1 7.4-1.4H30" fill="none" stroke="#1c1c1b" stroke-linecap="round" stroke-linejoin="round" stroke-width="2.2"/></svg>