<svg xmlns="http://www.w3.org/2000/svg" fill="none" viewBox="0 0 78 72"><style>:root{--at: 6s}.x{fill: #e7e4df}.y{stroke: #fff;stroke-width: .4;fill: none;animation: chc var(--at) linear infinite}.r{animation-delay: calc(var(--at) / 19)}.q{animation-delay: calc(var(--at) / 19 * 2)}.p{animation-delay: calc(var(--at) / 19 * 3)}.o{animation-delay: calc(var(--at) / 19 * 4)}.n{animation-delay: calc(var(--at) / 19 * 5)}.m{animation-delay: calc(var(--at) / 19 * 6)}.l{animation-delay: calc(var(--at) / 19 * 7)}.k{animation-delay: calc(var(--at) / 19 * 8)}.j{animation-delay: calc(var(--at) / 19 * 9)}.i{animation-delay: calc(var(--at) / 19 * 10)}.h{animation-delay: calc(var(--at) / 19 * 11)}.g{animation-delay: calc(var(--at) / 19 * 12)}.f{animation-delay: calc(var(--at) / 19 * 13)}.e{animation-delay: calc(var(--at) / 19 * 14)}.d{animation-delay: calc(var(--at) / 19 * 15)}.c{animation-delay: calc(var(--at) / 19 * 16)}.b{animation-delay: calc(var(--at) / 19 * 17)}.a{animation-delay: calc(var(--at) / 19 * 18)}@keyframes chc{0%{stroke: #fff}10%{stroke: #e7e4df}15%{stroke: #fff}}</style><path class="y" d="M41.2 1.9c5.8.4 12 .5 17 3.6 4.8 3 7.2 8.5 10.3 13.3 3.3 5 9.3 9.5 8.4 15.4-.9 6-9.1 8-12.6 13-3.1 4.6-2.6 11-6.5 15.1A30.4 30.4 0 0 1 41.2 71c-6.9 1.1-14.4 1-20.3-2.7-5.7-3.6-7.3-10.9-10.7-16.7C6.8 45.8 1 40.8 1 34.2c0-6.7 5.6-11.8 9.4-17.4 3.6-5.2 6.3-11.4 12-14.2 5.8-2.7 12.4-1.2 18.8-.7Z"/><path class="x" d="M57 6.6c-4.7-2.9-10.6-3-16.2-3.4-6-.5-12.4-2-17.8.7-5.5 2.7-8.2 8.6-11.6 13.6-3.7 5.3-9 10.2-9 16.6 0 6.4 5.5 11.2 8.8 16.7 3.2 5.6 4.8 12.5 10.3 16a28.3 28.3 0 0 0 19.3 2.6c6-1 11.7-4 16-8.3 3.7-3.9 3.1-10 6.2-14.5 3.3-4.8 11.2-6.7 12-12.5.8-5.6-4.9-10-8-14.7-3-4.6-5.3-9.9-10-12.8Z"/><path class="y a" d="M56 7.8C51.3 5 45.7 5 40.3 4.5c-5.7-.4-11.8-1.8-17 .7-5.3 2.6-7.8 8.3-11 13-3.5 5-8.6 9.8-8.6 15.8 0 6.1 5.3 10.7 8.3 16 3.1 5.3 4.6 12 9.9 15.2a26.9 26.9 0 0 0 18.4 2.5c5.8-1 11.2-3.8 15.2-8 3.6-3.6 3.1-9.5 6-13.7 3.1-4.6 10.7-6.5 11.5-12 .8-5.3-4.7-9.5-7.7-14-2.8-4.4-5-9.4-9.5-12.2Z"/><path class="y b" d="M54.8 9c-4.3-2.7-9.6-2.7-14.7-3-5.5-.5-11.3-1.8-16.3.6-5 2.5-7.4 7.9-10.5 12.4-3.2 4.8-8.1 9.3-8.2 15 0 5.9 5 10.2 8 15.3 3 5 4.4 11.3 9.4 14.4 5 3.2 11.6 3.3 17.6 2.4a27 27 0 0 0 14.5-7.6c3.4-3.5 2.9-9 5.6-13.1 3-4.4 10.2-6.1 11-11.3.7-5.1-4.5-9.1-7.3-13.5-2.8-4-4.8-8.8-9-11.5Z"/><path class="y c" d="M53.7 10.2c-4-2.5-9.1-2.6-14-3-5.2-.4-10.7-1.6-15.4.7-4.8 2.3-7 7.4-10 11.7-3.1 4.6-7.7 8.8-7.8 14.3 0 5.5 4.8 9.7 7.6 14.5 2.8 4.8 4.2 10.7 9 13.7 4.7 3 11 3.2 16.6 2.3a26 26 0 0 0 13.8-7.2c3.2-3.4 2.8-8.7 5.4-12.5 2.8-4.2 9.6-5.8 10.4-10.8.7-4.8-4.2-8.6-7-12.7-2.6-4-4.5-8.5-8.6-11Z"/><path class="y d" d="M52.6 11.4C48.7 9 44 9 39.4 8.6c-5-.4-10.2-1.6-14.7.6s-6.7 7-9.4 11.1c-3 4.3-7.4 8.4-7.4 13.6 0 5.2 4.5 9.1 7.2 13.6 2.6 4.6 4 10.3 8.4 13 4.6 2.9 10.5 3 15.8 2.2 5-.8 9.6-3.2 13-6.8 3.1-3.1 2.7-8.2 5.2-11.8 2.7-4 9.1-5.5 9.8-10.2.7-4.6-4-8.2-6.5-12-2.5-3.9-4.3-8.1-8.2-10.5Z"/><path class="y e" d="M51.5 12.6c-3.7-2.3-8.2-2.3-12.5-2.7-4.7-.3-9.6-1.4-13.8.6-4.3 2-6.3 6.7-9 10.5-2.7 4.1-6.9 7.9-6.9 12.8s4.3 8.6 6.8 13c2.5 4.2 3.7 9.6 8 12.3A22 22 0 0 0 39 61c4.6-.8 9-3.1 12.3-6.5 3-3 2.5-7.7 4.8-11.1 2.6-3.8 8.7-5.2 9.3-9.7.7-4.3-3.7-7.7-6.2-11.4-2.3-3.6-4-7.6-7.7-9.8Z"/><path class="y f" d="M50.4 13.8c-3.4-2.2-7.7-2.2-11.8-2.5-4.4-.4-9-1.4-13 .5-4 2-6 6.2-8.4 9.9-2.6 3.8-6.5 7.4-6.5 12 0 4.7 4 8.2 6.3 12.2 2.4 4 3.5 9 7.5 11.6 4 2.5 9.3 2.6 14.1 1.9 4.4-.8 8.5-3 11.6-6 2.7-2.9 2.3-7.4 4.5-10.6 2.4-3.5 8.2-4.9 8.8-9 .6-4.2-3.6-7.3-5.8-10.8-2.2-3.3-3.8-7.1-7.3-9.2Z"/><path class="y g" d="M49.3 15c-3.2-2-7.2-2-11-2.4-4.2-.3-8.5-1.3-12.2.5-3.8 1.8-5.6 5.9-8 9.3-2.4 3.6-6 7-6 11.3 0 4.3 3.7 7.6 6 11.4 2.1 3.7 3.2 8.5 7 10.8a19 19 0 0 0 13.1 1.8c4.2-.7 8-2.7 11-5.7 2.5-2.6 2.1-6.8 4.2-9.8 2.2-3.3 7.6-4.6 8.2-8.6.6-3.8-3.4-6.8-5.5-10-2-3.1-3.6-6.7-6.8-8.6Z"/><path class="y h" d="M48.2 16.1c-3-1.8-6.7-1.9-10.3-2.2-3.9-.3-8-1.2-11.4.5-3.5 1.7-5.2 5.5-7.3 8.7-2.3 3.3-5.7 6.5-5.7 10.5S17 40.7 19 44.3c2.1 3.5 3.1 8 6.6 10.1A18 18 0 0 0 37.9 56c3.9-.6 7.4-2.5 10.2-5.2 2.4-2.5 2-6.4 4-9.2 2-3.1 7-4.3 7.6-8 .5-3.6-3.1-6.3-5.1-9.4-2-2.9-3.4-6.2-6.4-8Z"/><path class="y i" d="M47.1 17.3c-2.8-1.7-6.3-1.8-9.6-2-3.5-.3-7.3-1.2-10.5.4-3.3 1.6-4.9 5-6.9 8-2.1 3.2-5.3 6-5.3 9.9 0 3.7 3.3 6.6 5.2 9.8 2 3.3 2.8 7.4 6 9.5 3.4 2 7.6 2.1 11.5 1.5a16 16 0 0 0 9.4-5c2.2-2.2 2-5.8 3.7-8.4 2-3 6.6-4 7.1-7.4.5-3.3-2.9-5.9-4.7-8.7-1.8-2.8-3.1-5.9-5.9-7.6Z"/><path class="y j" d="M46 18.5c-2.6-1.6-5.8-1.6-8.9-1.9-3.2-.2-6.7-1-9.7.4-3 1.5-4.4 4.7-6.3 7.5-2 2.9-4.9 5.5-5 9 0 3.5 3.1 6.1 4.9 9.1 1.7 3 2.6 6.8 5.6 8.7 3 2 7 2 10.5 1.4 3.4-.5 6.4-2.1 8.8-4.5 2-2.1 1.7-5.5 3.4-7.9 1.8-2.6 6-3.7 6.5-6.8.5-3-2.7-5.5-4.4-8-1.6-2.6-2.8-5.4-5.4-7Z"/><path class="y k" d="M44.9 19.7c-2.4-1.5-5.3-1.5-8.1-1.7-3-.3-6.2-1-9 .3-2.7 1.3-4 4.3-5.7 6.8-1.8 2.7-4.5 5.2-4.5 8.3 0 3.2 2.7 5.6 4.3 8.4 1.7 2.8 2.4 6.2 5.2 8 2.8 1.7 6.4 1.8 9.7 1.3 3-.5 5.8-2 8-4.2 1.8-2 1.6-5 3-7.2 1.7-2.4 5.7-3.4 6-6.3.5-2.8-2.3-5-4-7.4-1.4-2.3-2.5-4.9-4.9-6.3Z"/><path class="y l" d="M43.8 20.9c-2.1-1.3-4.8-1.4-7.3-1.6-2.8-.2-5.7-.9-8.2.3-2.4 1.3-3.7 4-5.2 6.2-1.7 2.4-4.1 4.7-4.1 7.6 0 2.9 2.5 5 4 7.6 1.4 2.5 2.1 5.6 4.7 7.2 2.5 1.6 5.8 1.7 8.8 1.2 2.7-.5 5.3-1.8 7.2-3.8 1.7-1.7 1.5-4.6 2.8-6.6 1.5-2.2 5.1-3 5.5-5.6.4-2.6-2.2-4.6-3.6-6.8-1.4-2-2.5-4.4-4.6-5.7Z"/><path class="y m" d="M42.7 22c-2-1.1-4.3-1.2-6.6-1.4-2.5-.1-5.1-.8-7.3.3-2.3 1.2-3.4 3.6-4.8 5.6-1.5 2.2-3.6 4.2-3.7 6.8 0 2.6 2.3 4.6 3.6 6.9 1.4 2.2 2 5 4.3 6.5 2.2 1.4 5.2 1.5 7.9 1a12 12 0 0 0 6.5-3.4c1.5-1.5 1.3-4 2.6-5.9 1.3-2 4.5-2.7 4.9-5 .3-2.4-2-4.2-3.3-6.1-1.2-2-2.2-4-4-5.2Z"/><path class="y n" d="M41.6 23.3c-1.7-1.1-3.9-1.1-5.9-1.3-2.2-.2-4.5-.7-6.5.2-2 1-3 3.2-4.2 5-1.3 2-3.2 3.7-3.3 6 0 2.4 2 4.1 3.2 6.1 1.2 2 1.7 4.6 3.8 5.8 2 1.3 4.6 1.3 7 1 2.2-.4 4.3-1.5 5.8-3 1.4-1.5 1.2-3.7 2.3-5.4 1.2-1.7 4-2.4 4.4-4.5.3-2-1.8-3.6-3-5.3-1-1.7-1.9-3.6-3.6-4.6Z"/><path class="y o" d="M40.5 24.4c-1.5-.9-3.4-1-5.2-1-1.9-.2-3.9-.7-5.6.1-1.8.9-2.6 2.8-3.7 4.4-1.2 1.7-2.9 3.2-2.9 5.3 0 2 1.8 3.5 2.8 5.3 1 1.7 1.5 4 3.3 5a9 9 0 0 0 6.1 1c2-.4 3.7-1.4 5-2.7 1.3-1.3 1.1-3.2 2-4.6 1.1-1.6 3.6-2.2 3.9-4 .2-1.8-1.5-3.2-2.6-4.7-.9-1.5-1.6-3.1-3-4Z"/><path class="y p" d="M39.4 25.6c-1.3-.8-2.9-.8-4.4-.9-1.7-.1-3.4-.5-5 .2-1.4.7-2.2 2.3-3 3.7-1 1.4-2.5 2.8-2.5 4.5 0 1.7 1.5 3 2.4 4.6.8 1.5 1.3 3.4 2.8 4.3 1.5 1 3.5 1 5.2.7a8 8 0 0 0 4.4-2.2c1-1 .9-2.8 1.7-4 .9-1.3 3-1.8 3.3-3.4.2-1.6-1.4-2.7-2.2-4-.8-1.2-1.4-2.7-2.7-3.5Z"/><path class="y q" d="M38.3 26.8c-1-.7-2.4-.7-3.7-.8-1.4 0-2.8-.4-4 .2-1.3.6-2 2-2.7 3-.8 1.3-2 2.4-2 3.8 0 1.5 1.2 2.6 2 3.8.7 1.3 1 2.9 2.3 3.7 1.3.8 3 .8 4.4.5a6 6 0 0 0 3.6-1.8c.9-.9.7-2.3 1.4-3.3.8-1.1 2.6-1.6 2.8-2.9.2-1.2-1.1-2.3-1.8-3.3s-1.2-2.2-2.3-2.9Z"/><path class="y r" d="M37.2 28c-.9-.5-2-.6-3-.6-1-.1-2.2-.4-3.2.1s-1.5 1.6-2.1 2.5c-.7 1-1.7 1.8-1.7 3s1 2 1.7 3c.5 1 .8 2.3 1.8 3a5 5 0 0 0 3.6.4c1-.2 2.1-.7 2.9-1.5.7-.7.6-1.8 1.1-2.6.6-1 2-1.3 2.2-2.3.1-1-.9-1.8-1.5-2.7-.5-.8-1-1.8-1.8-2.3Z"/><path class="y s" d="M36.1 29.2c-.7-.4-1.4-.4-2.2-.5-.8 0-1.7-.3-2.4.1-.8.4-1.1 1.2-1.6 1.9s-1.2 1.3-1.2 2.2c0 .9.7 1.6 1.2 2.3.4.8.6 1.7 1.4 2.2.7.5 1.7.5 2.6.3a4 4 0 0 0 2.2-1c.5-.6.4-1.5.9-2 .4-.7 1.5-1 1.6-1.8.1-.7-.7-1.3-1.1-2-.4-.6-.8-1.3-1.4-1.7Z"/></svg>