<svg width="64" height="64" fill="none" xmlns="http://www.w3.org/2000/svg">
<style>.h{transform-origin:center;fill:#000;animation:750ms linear infinite alternate r}@keyframes r{from{transform:rotate(-15deg)}to{transform:rotate(15deg)}}</style>
<circle cx="32" cy="32" r="32" fill="#FFF000"/>
<path class="h" d="M23.14 11.9c-.3.1-3.71 1.9-3.68 1.96l7.15 10.78c.01.01.8-.38 1.74-.88 1.9-1 2.1-1.12 2.28-1.53.14-.32.14-.7 0-1-.06-.13-1.4-2.18-2.99-4.57a84.22 84.22 0 0 0-3.03-4.46c-.42-.3-1-.43-1.47-.3Zm-4.8 2.5c-.42.33-.99.96-1.37 1.55-1.33 2.05-1.84 4.91-1.42 8.09.5 3.86 2.36 8.37 5.45 13.23 4.66 7.35 9.93 12.3 15.2 14.3 2.36.89 4.65 1.17 6.41.79.49-.1.95-.28.92-.35-.02-.05-4.42-6.7-6.21-9.39l-.78-1.17-.27.1c-1.1.46-2.23-.18-4.08-2.27-1.18-1.34-1.29-1.48-3.8-5.27-2.09-3.13-2.5-3.77-2.78-4.33-1.04-2.1-1.17-3.33-.44-4.12.1-.1.25-.23.35-.3l.18-.11-3.6-5.44-3.6-5.41-.15.1ZM37.48 41a44.08 44.08 0 0 1 3.63-1.93c.29-.1.8-.08 1.09.03l.16.07c.34.16.58.54 3.23 4.51 1.55 2.33 2.86 4.32 2.91 4.43a1 1 0 0 1 .1.51c0 .4-.14.71-.43.96a59.34 59.34 0 0 1-3.68 1.99c0-.02-6.96-10.5-7-10.57Z"/>
</svg>
