<svg width="94" height="89" fill="none" xmlns="http://www.w3.org/2000/svg"><path d="M49.34 69.92 3.37 86.88 29.6 42.56" stroke="#000" stroke-width="1.46" stroke-miterlimit="10"/><path d="M48.57 70.28 2.6 87.24l26.22-44.32s.06 6.12 6.48 16.07c6.07 9.41 13.27 11.29 13.27 11.29Z" fill="#FFF000" stroke="#000" stroke-width="1.46" stroke-miterlimit="10"/><path d="M52.96 6.7a2.5 2.5 0 1 0 0-4.98 2.5 2.5 0 0 0 0 4.98ZM77.8 13.62a2.5 2.5 0 1 0 0-4.99 2.5 2.5 0 0 0 0 4.99Z" stroke="#000" stroke-width="1.46" stroke-miterlimit="10"/><path d="M60.19 78.45a2.5 2.5 0 1 0 0-4.99 2.5 2.5 0 0 0 0 5Z" fill="#FFF000" stroke="#000" stroke-width="1.46" stroke-miterlimit="10"/><path d="M89.98 53.28a2.5 2.5 0 1 0 0-4.98 2.5 2.5 0 0 0 0 4.98ZM60.82 35.12l-5.86 1.56 1.55 5.86L62.38 41l-1.56-5.87Z" stroke="#000" stroke-width="1.46" stroke-miterlimit="10"/><path d="m83.7 19.57-5.87 1.56 1.56 5.86 5.87-1.56-1.56-5.86Z" fill="#FFF000" stroke="#000" stroke-width="1.46" stroke-miterlimit="10"/><path d="M33.6 35.03a15.97 15.97 0 0 1 7.46-13.83c.6-.36 1.23-.74 1.88-.97.64-.24 1.41-.42 1.98.02.36.28.54.77.64 1.26a5 5 0 0 1-2.5 4.76c-1.15.61-2.6.48-3.75-.06-2.85-1.28-3.93-4.55-4.42-7.4-.54-3.08-.3-6.5 1.67-9.07a6.75 6.75 0 0 1 3.24-2.37c1.18-.36 2.67-.23 3.16 1.1.88 2.37-1.26 4.58-3.42 5.25-2.6.8-5.19-.54-6.96-2.42-1-1.02-1.8-2.23-2.42-3.52-.72-1.44-1.26-3-1.34-4.62-.05-.8.03-1.6.23-2.37.21-.8-1.02-1.13-1.23-.33-.92 3.52.52 7.35 2.57 10.2 1.8 2.5 4.65 4.78 7.92 4.58 2.8-.18 5.73-2.19 6.1-5.12.2-1.67-.52-3.44-2.2-4-1.54-.55-3.3.04-4.6.92-2.95 1.98-4.24 5.52-4.24 8.97 0 1.88.31 3.8.88 5.6.51 1.65 1.33 3.3 2.62 4.48a6.68 6.68 0 0 0 4.45 1.85 5.15 5.15 0 0 0 4.14-2.06 6.18 6.18 0 0 0 1.41-4.32 3.47 3.47 0 0 0-.82-2.03 2.64 2.64 0 0 0-2.16-.85c-.9.05-1.75.47-2.55.88a16.36 16.36 0 0 0-5.4 4.6 17.37 17.37 0 0 0-3.6 10.82c0 .88 1.3.88 1.27.05Z" fill="#1C1C1B"/><path d="M49.93 34.24a19.37 19.37 0 0 0 8.3-8.57c1.75-3.54 3.06-8.97-.38-12-1.44-1.26-3.5-1.88-5.32-1.05-1.65.74-2.55 2.52-2.65 4.26-.1 1.96.92 3.7 2.47 4.84a8.68 8.68 0 0 0 5.88 1.51c2.42-.23 4.68-1.18 6.82-2.26a32.5 32.5 0 0 0 5.83-3.8c.44-.36.87-.72 1.31-1.11.62-.54-.28-1.46-.9-.9a31.56 31.56 0 0 1-5.09 3.73 24.39 24.39 0 0 1-5.83 2.65c-1.9.54-3.94.69-5.84-.06-1.46-.56-2.85-1.77-3.24-3.34a4.07 4.07 0 0 1 1.06-3.88c1.13-1.05 2.8-.87 4.06-.08 3.42 2.16 2.44 7.05 1.08 10.13a18.35 18.35 0 0 1-7 8.13l-1.18.69c-.77.39-.13 1.5.62 1.1ZM61.7 67.73c2 .54 4.22.1 5.92-1.1a7.01 7.01 0 0 0 2.08-2.27c.56-1 .95-2.23.38-3.31-.46-.9-1.49-1.42-2.49-1.47a3 3 0 0 0-2.62 1.5c-1.29 2.05-.23 4.52 1.51 5.88a8.77 8.77 0 0 0 6.66 1.52c1.16-.16 2.27-.52 3.32-1a8.15 8.15 0 0 0 2.83-1.98c.74-.9 1.26-2.09.82-3.24a2.81 2.81 0 0 0-2.13-1.73 3.75 3.75 0 0 0-2.78.52 5.63 5.63 0 0 0-1.95 2.67c-.85 2.21-1.11 5.07.54 6.94a6.78 6.78 0 0 0 2.77 1.78 18.92 18.92 0 0 0 5.84 1.05c.82.03.82-1.26 0-1.29a17.53 17.53 0 0 1-3.47-.4c-.95-.21-1.93-.5-2.8-.96a4.26 4.26 0 0 1-1.88-1.75 4.95 4.95 0 0 1-.34-2.93c.21-1.54.83-3.75 2.42-4.32.62-.23 1.34-.2 1.88.1.56.32.9.9.7 1.63-.24.87-1.04 1.54-1.76 2.03-.8.51-1.7.92-2.6 1.2-1.8.57-3.75.7-5.55.08-1.56-.54-3.34-1.92-3.36-3.75 0-.72.28-1.52.87-1.95a1.6 1.6 0 0 1 1.83-.1c.69.38.84 1.05.56 1.84a5.32 5.32 0 0 1-1.31 2.04 5.96 5.96 0 0 1-5.55 1.51c-.8-.2-1.13 1.03-.34 1.26ZM64.22 50.97c1.13-2.9 3.83-4.86 6.58-6.07a15.6 15.6 0 0 1 4.27-1.23 8.23 8.23 0 0 1 4.32.46c1.29.57 2.7 1.83 2.34 3.37a3.39 3.39 0 0 1-2.85 2.44 5.02 5.02 0 0 1-3.7-.92 5.97 5.97 0 0 1-2.11-3.73c-.7-3.78 1.59-7.28 3.98-9.97.54-.62-.36-1.55-.9-.9-2.5 2.82-4.78 6.3-4.45 10.23.16 1.8.8 3.54 2.09 4.86a6.17 6.17 0 0 0 4.37 1.8c1.67 0 3.29-.7 4.24-2.09.54-.77.8-1.77.67-2.7a4.05 4.05 0 0 0-1.47-2.46c-2.67-2.37-6.68-1.96-9.82-.88-3.26 1.13-6.5 3.11-8.2 6.22-.2.39-.41.83-.57 1.24-.12.33.13.7.44.8.36.07.64-.14.77-.47ZM22.7 55.29c-.07 2 .21 4.04.85 5.96.26.77 1.5.44 1.24-.33-.6-1.83-.88-3.7-.8-5.63.03-.82-1.26-.82-1.28 0ZM25.02 62.74a19.38 19.38 0 0 0 2.57 7.18c.44.72 1.54.05 1.1-.65a18.61 18.61 0 0 1-2.44-6.86c-.05-.33-.49-.54-.8-.44-.35.08-.48.41-.43.77ZM29.47 71.54a13.25 13.25 0 0 0 2.44 5.06c.2.28.7.23.9 0 .26-.26.2-.64 0-.9a11.55 11.55 0 0 1-2.14-4.5c-.07-.33-.46-.54-.8-.43-.3.07-.48.43-.4.77ZM15.61 66.06a7.08 7.08 0 0 0 .95 3.96c.16.28.6.41.88.23.3-.18.4-.56.23-.87-.08-.13-.16-.26-.2-.39-.03-.08-.09-.15-.11-.23.05.1-.03-.05-.03-.08-.1-.28-.2-.59-.28-.9l-.08-.43c0-.03-.02-.24-.02-.1l-.03-.24c-.02-.3-.02-.61-.02-.92.02-.34-.31-.67-.65-.65-.36 0-.61.26-.64.62ZM16.72 72.02a19.19 19.19 0 0 0 1.98 5.6c.38.73 1.49.09 1.1-.63a17.55 17.55 0 0 1-1.85-5.3c-.05-.33-.49-.54-.8-.44-.36.08-.51.42-.43.77ZM19.26 79.45c.2.42.41.8.62 1.21.07.13.23.26.38.29.16.05.36.02.5-.08a.62.62 0 0 0 .27-.39.55.55 0 0 0-.07-.49l-.62-1.2a.62.62 0 0 0-.39-.29.55.55 0 0 0-.48.08.62.62 0 0 0-.29.39c-.02.15 0 .33.08.48Z" fill="#000"/><path d="M50.57 69.58c4.22-2.64 3.37-11.6-1.9-20.01-5.26-8.41-12.96-13.09-17.18-10.44-4.22 2.64-3.38 11.6 1.9 20.02 5.26 8.4 12.95 13.08 17.18 10.43Z" fill="#ECECEC" stroke="#000" stroke-width="1.46" stroke-miterlimit="10"/></svg>