<svg xmlns="http://www.w3.org/2000/svg" viewBox="0 0 368 147"><style> * {transform-box: fill-box;transform-origin: center;}.y {fill: #fff000;stroke-width: 4;stroke: #5a5655;}.w {fill: #5a5655;fill-rule: evenodd;}.k1, .k2 {animation: fluct1 2.5s linear infinite alternate }.k2 {animation-duration: 3.5s }.k3, .k4 {animation: fluct2 4s linear infinite alternate-reverse }.k3 {animation-duration: 3s }.ys1 {animation: rt 7s linear infinite;}.ws1 {animation: rt 9s linear infinite;animation-direction: reverse;}.yc1, .yc2, .wc1, .wc2 {animation: sp 4s linear infinite;}.yc1, .yc2 {animation-direction: reverse;}@keyframes fluct1 {0% {transform: skew(0) }55% {transform: skew(5deg) translateY(-5px) }}@keyframes fluct2 {0% {transform: skew(0) }55% {transform: skew(-5deg) translateY(-5px) }}@keyframes sp {from {transform: rotate(0deg) translate3d(2px, 0, 0);}to {transform: rotate(360deg) translate3d(2px, 0, 0);}}@keyframes rt {from {transform: rotate(360deg);}to {transform: rotate(0deg);}}</style><path class="y yc1" d="M99.56,51.5A7.08,7.08,0,1,0,89.65,53,7.08,7.08,0,0,0,99.56,51.5Z"/><path class="w wc1" d="M170.85,9.89a5,5,0,1,0,7-1A5,5,0,0,0,170.85,9.89Zm-1.42,10.34a9.15,9.15,0,1,1,12.8-1.91A9.15,9.15,0,0,1,169.43,20.23Z" /><path class="y yc2" d="M359.91,128.15a7.08,7.08,0,1,0-9.9,1.48A7.09,7.09,0,0,0,359.91,128.15Z" /><path class="w wc2" d="M287.15,42.86a5,5,0,1,0,7-1A5,5,0,0,0,287.15,42.86ZM285.73,53.2a9.15,9.15,0,1,1,12.8-1.9A9.14,9.14,0,0,1,285.73,53.2Z" /><path class="w ws1" d="M182.84,110.1l7.88-19.86,19.86,7.88L202.7,118Zm5.37-2.32,12.17,4.83,4.83-12.17L193,95.61Z" /><path class="y ys1" d="M221.85,21l-6.36,16,16,6.35,6.35-16Z" /><path class="w k1" d="M67.6,108.94a35.82,35.82,0,0,0,9.79,20.32,30.4,30.4,0,0,0,4.4,3.61c1.78,1.28,4.53-2.17,2.79-3.31-7-4.6-11.53-12.22-13.11-21.25l0-.15.14,0c.57-.14,1.13-.3,1.7-.49A28.82,28.82,0,0,0,86.56,98.4,19.6,19.6,0,0,0,91.2,84.26c-.44-4.34-2.32-8.3-5.8-10.16a8.18,8.18,0,0,0-5.9-.77,11.35,11.35,0,0,0-6.34,4.55A27.13,27.13,0,0,0,69.51,86a58.43,58.43,0,0,0-1.71,7.24,51.5,51.5,0,0,0-.62,11.6V105H67a31.39,31.39,0,0,1-12.82-2.76,28.5,28.5,0,0,1-9.07-5.81.57.57,0,0,0-.11-.11l.11-.08a32.72,32.72,0,0,0,9.08-8.44C59.83,80,62,69.19,56.78,63.91c-3-3-8.13-3.69-12.85,0-4.39,3.35-7,9-7.93,13.73a23.69,23.69,0,0,0,2.93,17.92l.09.13-.13.06A35.68,35.68,0,0,1,34,97.42a37.66,37.66,0,0,1-12.34,1.31c-4.48-.18-8.83-1-12.3-3.21A13.57,13.57,0,0,1,5,91.42c-1.19-1.73-4.51,1.1-3.32,2.82,5.21,7.67,16.1,9.43,26.32,8.1a44,44,0,0,0,13-3.82l.12-.06.11.12a24.65,24.65,0,0,0,4,3.62,37.17,37.17,0,0,0,13.3,5.89,29,29,0,0,0,8.87.72h.15Zm.15,0a35.63,35.63,0,0,0,9.74,20.25,31,31,0,0,0,4.37,3.58h0a1.34,1.34,0,0,0,1.27.16,2.68,2.68,0,0,0,1.23-.9,2.46,2.46,0,0,0,.6-1.32,1,1,0,0,0-.46-1A30.11,30.11,0,0,1,72.4,112.84a37.86,37.86,0,0,1-1.07-4.5A25.43,25.43,0,0,1,67.75,108.93Zm3.53-.88a25.3,25.3,0,0,1-3.57.59q-.1-.66-.18-1.35c-.07-.71-.14-1.43-.18-2.16a21.24,21.24,0,0,0,3.5-.41C71,105.85,71.09,107,71.28,108.05Zm.29-.07c.54-.14,1.09-.3,1.64-.49h0a28.7,28.7,0,0,0,13.22-9.18h0A19.44,19.44,0,0,0,91,84.24h0c-.43-4.32-2.31-8.21-5.7-10a7.93,7.93,0,0,0-5.77-.76h0A11.36,11.36,0,0,0,73.29,78h0a27.3,27.3,0,0,0-3.63,8.1A58.56,58.56,0,0,0,68,93.29a52.37,52.37,0,0,0-.62,11.56,22.41,22.41,0,0,0,3.5-.42,48.75,48.75,0,0,1,1.28-15.3h0a42.35,42.35,0,0,1,2-6.5,16.52,16.52,0,0,1,1.7-3.1,6.43,6.43,0,0,1,2.63-2.23h0a5.59,5.59,0,0,1,4.07.12h0a7.58,7.58,0,0,1,3.17,2.84,13.17,13.17,0,0,1,1.32,11c-1.22,4-4.57,7.74-8.16,10.06a22.05,22.05,0,0,1-7.72,3.29C71.25,105.78,71.39,106.89,71.57,108Zm-.43-3.47a21.9,21.9,0,0,0,7.62-3.26c3.58-2.31,6.91-6,8.12-10a13.05,13.05,0,0,0-1.3-10.93,7.4,7.4,0,0,0-3.09-2.77,5.35,5.35,0,0,0-3.94-.12c-2.1.87-3.38,3.21-4.28,5.28a42.73,42.73,0,0,0-2,6.47A48.55,48.55,0,0,0,71,104.4s0,.1,0,.15Zm-4.1.63a31.55,31.55,0,0,1-12.86-2.77A28.57,28.57,0,0,1,45,96.5a36.51,36.51,0,0,1-3.67,2,24.55,24.55,0,0,0,4,3.58A36.88,36.88,0,0,0,58.57,108h0a28.74,28.74,0,0,0,8.83.71l-.18-1.41h0C67.15,106.56,67.09,105.85,67,105.14ZM41.15,98.28a37.24,37.24,0,0,0,3.65-2c-.2-.2-.39-.41-.58-.62a21.52,21.52,0,0,1-1.43-1.73,35.14,35.14,0,0,1-3.56,1.82A23.82,23.82,0,0,0,41.15,98.28ZM39,95.85A36.14,36.14,0,0,1,34,97.55a37.79,37.79,0,0,1-12.4,1.32c-4.48-.18-8.87-1-12.39-3.24a13.74,13.74,0,0,1-4.39-4.16.92.92,0,0,0-.45-.37A1,1,0,0,0,3.84,91a2.47,2.47,0,0,0-1.29.61,2.9,2.9,0,0,0-.89,1.25,1.42,1.42,0,0,0,.13,1.3h0C4.36,98,8.34,100.31,13,101.53a39.54,39.54,0,0,0,15,.68,43.78,43.78,0,0,0,13-3.81A25.46,25.46,0,0,1,39,95.85ZM43,93.78a21.27,21.27,0,0,0,1.41,1.73c.19.21.39.42.59.62a32.54,32.54,0,0,0,9-8.42,29.55,29.55,0,0,0,5.33-12.84c.58-4.33-.19-8.3-2.74-10.88h0A8.31,8.31,0,0,0,51,61.53,10.83,10.83,0,0,0,44,64h0c-4.36,3.33-6.93,8.94-7.89,13.67h0a23.54,23.54,0,0,0,2.91,17.81,34.8,34.8,0,0,0,3.55-1.8,19.66,19.66,0,0,1-3.51-9.28h0a22.92,22.92,0,0,1,2.1-12.24A16,16,0,0,1,45,67.05a6.54,6.54,0,0,1,5.37-1.83,6.19,6.19,0,0,1,3.93,2.24,8.46,8.46,0,0,1,1.65,4.24,19.9,19.9,0,0,1-2,10.63h0A27.39,27.39,0,0,1,43,93.78Zm-.3-.18.09.12.11-.07A27.26,27.26,0,0,0,53.76,82.26C57,75.47,57,66.49,50.35,65.36c-3.77-.66-7.22,3.16-9,6.87a22.79,22.79,0,0,0-2.08,12.18A19.38,19.38,0,0,0,42.73,93.6Z" /><path class="w k2" d="M151.17,78.16c.41.81.78,1.61,1.1,2.4,3.46,8.39,4.09,18.66,1.59,29.24-.16.66-.34,1.33-.52,2s-.36,1.34-.53,2c-.81,2.51,2.63,2.41,3.39,0,3.58-11.76,3.64-23.6.21-33.21a37.6,37.6,0,0,0-2.79-6.14l-.09-.17.08-.13a84.43,84.43,0,0,0,7.46-17.56,109.76,109.76,0,0,0,4.43-20.24h0c.18-1.62.37-3.24.51-4.9.2-2.33-3.41-1.33-3.56,1a101.7,101.7,0,0,1-3.07,18.23,92.14,92.14,0,0,1-6.66,18.62c-.32.65-.66,1.29-1,1.92l-.08.14-.1-.15c-4.26-5.68-10.59-9.51-19.12-6.47-5.34,1.92-10.68,6.31-12.78,12.13-1.88,5.25-.27,10,2.9,12.74,3.57,3,9,2.81,14.33.45S147.25,83.23,151,78.13l.09-.13Zm.09-.12c.43.84.82,1.67,1.16,2.5h0c3.46,8.42,4.1,18.72,1.59,29.32h0c-.16.66-.34,1.33-.52,2h0c-.18.67-.36,1.34-.52,2h0a1.41,1.41,0,0,0,.05,1.28,1,1,0,0,0,.86.36,2.45,2.45,0,0,0,2.17-1.8c3.58-11.74,3.63-23.55.21-33.12h0a37.35,37.35,0,0,0-2.72-6q-.81,1.35-1.71,2.67h0Zm-.17-.33.46-.66q1-1.39,1.8-2.82a29.29,29.29,0,0,0-1.67-2.59c-.66,1.19-1.37,2.36-2.13,3.5A28.16,28.16,0,0,1,151.09,77.71Zm-1.74-2.87c.76-1.14,1.46-2.3,2.11-3.49a22.24,22.24,0,0,0-3.58-3.85,15.23,15.23,0,0,0-6.77-3.39,15.83,15.83,0,0,0-8.61.77c-5.31,1.91-10.63,6.29-12.71,12.07-1.87,5.21-.26,9.93,2.85,12.58A9.91,9.91,0,0,0,129,91.71a18.58,18.58,0,0,0,7.75-1.77h0c5.42-2.39,10.39-6.86,14.12-12a29.38,29.38,0,0,0-1.51-2.58,35.67,35.67,0,0,1-8.44,8.9,22.86,22.86,0,0,1-6.63,3.38,11.13,11.13,0,0,1-6.51.24,8,8,0,0,1-5.51-8.29c.25-4.42,4-8.47,8.11-10.59a14.14,14.14,0,0,1,7.7-1.74,12.73,12.73,0,0,1,6.31,2.4A20.53,20.53,0,0,1,149.35,74.84Zm-26.89,4.8a7.81,7.81,0,0,0,5.37,8.13c3.82,1.21,9-.65,13-3.61a35.32,35.32,0,0,0,8.45-8.93l.08-.12-.1-.15c-4-5.78-10.31-10.17-18.76-5.81C126.43,71.26,122.7,75.28,122.46,79.64Zm29.36-8.26A30.74,30.74,0,0,1,153.51,74a84.43,84.43,0,0,0,7.41-17.45,109.62,109.62,0,0,0,4.42-20.23c.19-1.62.37-3.24.51-4.89h0a1,1,0,0,0-.36-1,1.35,1.35,0,0,0-1.05-.06,2.54,2.54,0,0,0-1.83,2.19h0a102.1,102.1,0,0,1-3.08,18.25,91.36,91.36,0,0,1-6.67,18.64C152.53,70.06,152.19,70.72,151.82,71.38Z" /><path class="w k3" d="M305,106.45a24.13,24.13,0,0,1-4,6.65,25,25,0,0,1-2.6,2.64c-1.94,1.7-.28,4.22,1.7,2.55a29.61,29.61,0,0,0,8.71-13.16,1.18,1.18,0,0,0,.07-.2l.2-.09c5.57-2.68,10.37-7.43,14-12.81a1,1,0,0,1,.08-.11l.16,0a10.8,10.8,0,0,0,5.9.22A24.53,24.53,0,0,0,338,87.7a68,68,0,0,0,9-8.13c1.55-1.58,3-3.28,4.36-5,1.65-2-.75-3.77-2.41-1.76a74.09,74.09,0,0,1-7.55,8.09,44.66,44.66,0,0,1-7.25,5.68,13.34,13.34,0,0,1-6.93,2.29,6.73,6.73,0,0,1-1.82-.28l-.16-.05.06-.12a46.59,46.59,0,0,0,3.2-7.27,26.11,26.11,0,0,0,1.82-9.74c-.23-3.08-1.44-6-4.45-6.47-2.44-.36-5.2.84-7.4,3A15.31,15.31,0,0,0,314,75.55a13.47,13.47,0,0,0,1.18,8.52,16.83,16.83,0,0,0,5.13,6.35l.14.1-.07.11A35.25,35.25,0,0,1,312.8,99a26.48,26.48,0,0,1-2.84,1.9l-.17.1a1.23,1.23,0,0,1,0-.2,17.88,17.88,0,0,0-.37-7c-.77-2.78-2.33-5.42-5.46-5.48-2.58-.08-5.56,1.78-7.61,4.21a10.24,10.24,0,0,0-2.33,8.56c1.1,5,5.85,6.33,10.82,5.26l.19,0Zm.19,0a24.42,24.42,0,0,1-4,6.79h0a26.17,26.17,0,0,1-2.61,2.65h0l-.12-.11.12.11h0a1.85,1.85,0,0,0-.61,2.38,1,1,0,0,0,.8.46,1.84,1.84,0,0,0,1.28-.51,29.65,29.65,0,0,0,8.63-13l-.53.23h0A19.22,19.22,0,0,1,305.18,106.41Zm4-1.77c5.47-2.68,10.2-7.37,13.75-12.67a11.5,11.5,0,0,1-2.39-1.23l0,0a35.21,35.21,0,0,1-7.58,8.34h0a23.35,23.35,0,0,1-3,2c-.05.36-.11.71-.17,1.06A23.35,23.35,0,0,1,309.16,104.64Zm.42-3.4c0,.25-.08.51-.13.76h0a24.78,24.78,0,0,1-.69,2.83l-.83.37a18.28,18.28,0,0,1-2.62.87,20.47,20.47,0,0,0,.95-3.39A20.09,20.09,0,0,0,309.58,101.24Zm.06-.39a18,18,0,0,0-.35-7.06,9.78,9.78,0,0,0-1.81-3.7A4.54,4.54,0,0,0,304,88.44h0a7.66,7.66,0,0,0-3.93,1.15,13.68,13.68,0,0,0-3.58,3,10.14,10.14,0,0,0-2.31,8.46,6.8,6.8,0,0,0,1.86,3.47,7,7,0,0,0,3.25,1.71,12.5,12.5,0,0,0,5.63-.09,20.4,20.4,0,0,0,1-3.37l-.07,0c-2.46.73-4.91.78-6.72-.49h0a5.14,5.14,0,0,1-2-5,6.65,6.65,0,0,1,3.43-4.76,3.66,3.66,0,0,1,2.82-.57,3.22,3.22,0,0,1,2,1.77,12.18,12.18,0,0,1,1.26,6.11h0a17.52,17.52,0,0,1-.25,2.47A20.66,20.66,0,0,0,309.64,100.85Zm-3.49,1.55a17.57,17.57,0,0,0,.28-2.56,12.16,12.16,0,0,0-1.24-6c-.94-1.79-2.49-2.32-4.57-1.11a6.57,6.57,0,0,0-3.38,4.68,5,5,0,0,0,1.95,4.84c1.78,1.25,4.23,1.19,6.76.41l.17-.05Zm14.49-11.9,0,0a10.43,10.43,0,0,0,2.4,1.22c.22-.33.44-.67.65-1h0c.44-.69.86-1.38,1.25-2.09a8.69,8.69,0,0,1-2.42-1.35C322,88.37,321.32,89.45,320.64,90.5Zm2-3.46a8.81,8.81,0,0,0,2.43,1.36,48.15,48.15,0,0,0,3.21-7.28,26,26,0,0,0,1.81-9.7A9.39,9.39,0,0,0,329,67.28a4.41,4.41,0,0,0-3.14-2.17c-2.36-.35-5.09.82-7.27,2.93a15.32,15.32,0,0,0-4.43,7.57A13.4,13.4,0,0,0,315.3,84a16.53,16.53,0,0,0,5.07,6.27c.68-1,1.32-2.14,1.91-3.24a14.68,14.68,0,0,1-1.35-1.26h0c-2.51-2.63-5.48-7.25-3.4-12.06a9.66,9.66,0,0,1,3.9-4.58,4.43,4.43,0,0,1,2.55-.71,2.66,2.66,0,0,1,1.16.35,2.73,2.73,0,0,1,.91.91,6.12,6.12,0,0,1,.85,3.38,19.17,19.17,0,0,1-.44,3.85h0a40.55,40.55,0,0,1-2.82,8.14C323.33,85.74,323,86.4,322.67,87Zm3.25-17.27c-.95-1.49-2.71-1.47-4.39-.48a9.68,9.68,0,0,0-3.86,4.53c-2.05,4.74.88,9.3,3.37,11.91A12.69,12.69,0,0,0,322.35,87l.13.11.06-.12c.33-.64.65-1.28,1-1.93a40.75,40.75,0,0,0,2.81-8.12C326.8,74.44,327.1,71.54,325.92,69.77Zm-.63,19a7,7,0,0,0,1.91.3,13.55,13.55,0,0,0,7-2.31h0A45.31,45.31,0,0,0,341.49,81s2.31-2.19,3.71-3.66,3.85-4.44,3.85-4.44a2.2,2.2,0,0,1,1.23-.82,1.27,1.27,0,0,1,1,.19,1.13,1.13,0,0,1,.44.86,2,2,0,0,1-.53,1.33c-1.41,1.69-2.81,3.38-4.35,5h0a68.48,68.48,0,0,1-9,8.11h0a24.31,24.31,0,0,1-8.7,4.47,10.65,10.65,0,0,1-5.75-.19c.21-.32.41-.64.61-1q.69-1.07,1.29-2.16" /><path class="w k4" d="M236.82,116.75h0a22.9,22.9,0,0,1-1.68-12,53.3,53.3,0,0,1,3.21-13.26h0c.33-.89.68-1.77,1.05-2.66a15.26,15.26,0,0,1-2.28-1.65A66.59,66.59,0,0,0,232.46,102a31.29,31.29,0,0,0,.35,14.21,21,21,0,0,0,1.23,3.13h0a.73.73,0,0,0,.33.34,1.2,1.2,0,0,0,.53.09,2.33,2.33,0,0,0,1.28-.51A2.09,2.09,0,0,0,236.82,116.75Zm-.52,2.57c-.81.64-2,.79-2.4,0a21.71,21.71,0,0,1-1.24-3.15c-2.53-8.52.06-19.32,4.32-29.09L237,87l-.13-.11c-5.82-5.29-7.44-14.5-7.82-23.43-.15-2.26,3.43-3.26,3.53-1,.3,7.56,1.63,15.63,6.17,20.53l.12.13.06-.13C243.32,74.52,249.91,66,258.5,63c2.73-1,5.54-1.32,7.67-.29A7.17,7.17,0,0,1,270,68.13c.75,4.34-1.16,9.42-4.5,13.66a25,25,0,0,1-12.21,8.6,17.31,17.31,0,0,1-13.49-1.46.2.2,0,0,0-.08,0l-.14-.09-.05.12c-.36.89-.71,1.77-1,2.65-3.19,8.67-4.85,18.24-1.54,25.15A2.2,2.2,0,0,1,236.3,119.32Zm3.49-30.56.08,0a17.2,17.2,0,0,0,13.36,1.45h0a24.86,24.86,0,0,0,12.14-8.56c3.34-4.24,5.23-9.28,4.48-13.58h0a7,7,0,0,0-3.73-5.32h0a7.12,7.12,0,0,0-3.52-.6,14.4,14.4,0,0,0-4,.9h0c-4.92,1.74-9.18,5.29-12.75,9.59A58.65,58.65,0,0,0,239.09,83a13.41,13.41,0,0,0,2.11,1.79,56.43,56.43,0,0,1,3.34-5.9,36.32,36.32,0,0,1,9.57-10.36,17.48,17.48,0,0,1,6.15-2.72,6.77,6.77,0,0,1,2.94,0,4,4,0,0,1,2.29,1.52h0a7.27,7.27,0,0,1,1.08,5.1,14.17,14.17,0,0,1-2.1,5.69,21.48,21.48,0,0,1-9.24,8.16h0a14.68,14.68,0,0,1-13.87-1.06C240.8,86.42,240.28,87.59,239.79,88.76Zm1.49-3.71.14.09a14.1,14.1,0,0,0,2.35,1.22,14.67,14.67,0,0,0,11.37-.17,21.38,21.38,0,0,0,9.19-8.12c2.23-3.61,3-7.9,1-10.64-2.23-3.06-7.48-1.22-11.14,1.26A36.12,36.12,0,0,0,244.68,79a55.57,55.57,0,0,0-3.34,5.91Zm-.19,0c-.57,1.17-1.1,2.34-1.59,3.53a15.22,15.22,0,0,1-2.27-1.66l.07-.17c.51-1.15,1.07-2.31,1.66-3.48A13.5,13.5,0,0,0,241.09,85.07Zm-2.37-2A19.14,19.14,0,0,1,235,76.76a46.4,46.4,0,0,1-2.5-14.41,1,1,0,0,0-.51-1,1.48,1.48,0,0,0-1.11-.06,2.11,2.11,0,0,0-1.59,2.09h0a51.75,51.75,0,0,0,2.43,14.84A20.32,20.32,0,0,0,237,86.71a.36.36,0,0,1,0-.09h0C237.53,85.44,238.1,84.24,238.72,83Z" /></svg>