<svg xmlns="http://www.w3.org/2000/svg" viewBox="0 0 2238.4 895"><g style="opacity:.2"><path d="M927 21a3 3 0 0 1 1 0 8 8 0 0 0 2 0 8 8 0 0 0 2 0 6 6 0 0 1 1 0s1 0 4 2a9 9 0 0 0 4 2 14 14 0 0 0 6 5 12 12 0 0 0 3 2 7 7 0 0 1 3 1l2 2h-1c-1 0-4 0-5 2l-1 1v5a13 13 0 0 0 1 2 10 10 0 0 1 0 2v1h-2l-5-1a9 9 0 0 0-3 1h-1a6 6 0 0 1-3 1h-3a18 18 0 0 0-6 1l-2 1a27 27 0 0 1-5 1 40 40 0 0 0-4 1 33 33 0 0 1-4 1l-2 1a17 17 0 0 1-3 0h-3a4 4 0 0 1-2-1l-1-1a4 4 0 0 0 2-1 3 3 0 0 0 0-2c0-4-4-4-5-4a27 27 0 0 1-4-1c4-4 3-7 2-9a9 9 0 0 0-3-2 6 6 0 0 1 3-1 4 4 0 0 0 4-2 3 3 0 0 1 1 0l2-1a27 27 0 0 0 7-2 23 23 0 0 1 4 0h2a14 14 0 0 0 7-3 5 5 0 0 1 1-1 6 6 0 0 0 3-3 2 2 0 0 1 1 0m-420 2a3 3 0 0 1 1 1 9 9 0 0 0 2 0l2 1a9 9 0 0 1 2 0 6 6 0 0 0 0 2 14 14 0 0 0-3 0l-1 1-5 1-3 1a16 16 0 0 1-4 1 10 10 0 0 0-5 1 12 12 0 0 1-1 1 9 9 0 0 1-2 0 14 14 0 0 0-2 0 9 9 0 0 0-2-1l1-1a4 4 0 0 1 0-1h1a7 7 0 0 0 2 1l3-1h5a6 6 0 0 0 5-1l2-5a17 17 0 0 0 2-1M307 33h1a9 9 0 0 0 1 0h2a3 3 0 0 1 1 0 6 6 0 0 1 1 0 7 7 0 0 0 3 1 4 4 0 0 0 2 0 10 10 0 0 1 1 1 11 11 0 0 0-2 1 6 6 0 0 1-2 1 26 26 0 0 0-8 3 6 6 0 0 1-1 0 4 4 0 0 0 1-3 4 4 0 0 0-3-3 11 11 0 0 0 2-1h1m164 0v1l1 1a5 5 0 0 0-1 1h-3a29 29 0 0 0-4 1 7 7 0 0 0-4 4 3 3 0 0 1-1 0 4 4 0 0 1-2 1l-3-1-7-1h-1l-5 1a1 1 0 0 1-1 1 10 10 0 0 0-1-2h-1v-2c0-1 0 0 0 0a5 5 0 0 1 1-1 11 11 0 0 0 5-2h1a2 2 0 0 1 1 0 11 11 0 0 0 1 1 6 6 0 0 0 2 0 9 9 0 0 0 2 0 7 7 0 0 1 1 0h2a11 11 0 0 0 4 0l1-1a4 4 0 0 1 2 0 18 18 0 0 1 2 0 21 21 0 0 0 4-1 9 9 0 0 0 2 0 7 7 0 0 1 1-1h1m-201 1h2a5 5 0 0 0-1 2 5 5 0 0 0-2-1 5 5 0 0 0-4 3h-1a14 14 0 0 0-4 0 4 4 0 0 0-3 2 5 5 0 0 0-1-2 10 10 0 0 1 3-1 17 17 0 0 0 5-1 37 37 0 0 0 6-2m16 11a8 8 0 0 0 3 1 4 4 0 0 0 0 3 5 5 0 0 0 0 2 10 10 0 0 0-2 1 9 9 0 0 1-3 0h-1a3 3 0 0 0 2-3 4 4 0 0 0 0-1 3 3 0 0 0 1-2 4 4 0 0 0 0-1m127 1a10 10 0 0 0 3 1 14 14 0 0 0 3 1h-1a4 4 0 0 0 0 1 11 11 0 0 0-2 1 13 13 0 0 0-2 1 10 10 0 0 1-2 0 23 23 0 0 1-2-1v-1a6 6 0 0 0-1-2v-1h2a15 15 0 0 0 1 0 6 6 0 0 1 1 0m-62 2h1v1l1 1h-4a2 2 0 0 1-1 0h1a17 17 0 0 0 2-1v-1m46 2a5 5 0 0 1 3 1h1v2a9 9 0 0 1-1 0h-5a18 18 0 0 0-2 0 5 5 0 0 0 1-2 9 9 0 0 1 3-1m559 6a8 8 0 0 1 2 1l-5 5a3 3 0 0 1-1 1v1c-1 1-3 2-2 4a3 3 0 0 0 2 3 4 4 0 0 0 1 0 4 4 0 0 0 3-1 1 1 0 0 1 1 0 26 26 0 0 1 3-1 8 8 0 0 0 2 0 4 4 0 0 0 3-3v-1a5 5 0 0 1 3-2h1a22 22 0 0 0 6-2 9 9 0 0 1 2-1h1l3 2 1 1a58 58 0 0 0 5 3c-2 1-2 3-2 6a3 3 0 0 1-1 1 11 11 0 0 0 0 4 2 2 0 0 1 0 1h-1a15 15 0 0 0-3-1 4 4 0 0 0-2 1 3 3 0 0 0-2 2c0 2 1 3 5 7h1a16 16 0 0 0 2 1h1a5 5 0 0 1 1 1c-2 1-4 1-5 3a24 24 0 0 1-3 0h-14a15 15 0 0 1-3 0h-2a12 12 0 0 1-3-1h-1l-4-2v-1a11 11 0 0 0-6-2 30 30 0 0 0-3 0l-6 1h-1a5 5 0 0 0-4-3h-1a16 16 0 0 0-4 0 12 12 0 0 1-1 0h-1a6 6 0 0 1-2 0h-1a8 8 0 0 0 0-1 12 12 0 0 0-5-4 16 16 0 0 0 1-2 4 4 0 0 0-5-4 7 7 0 0 0-1 0 5 5 0 0 0-1-3 4 4 0 0 0-1 0 14 14 0 0 1 3-2 3 3 0 0 1 1 0 6 6 0 0 0 1 1 4 4 0 0 0 3-2 4 4 0 0 0 0-5 6 6 0 0 0 3 0 6 6 0 0 0 2-1l1-1a8 8 0 0 0 3 1h1a5 5 0 0 0 2-1 2 2 0 0 1 1-1 10 10 0 0 1 2 0 12 12 0 0 1 2 0 13 13 0 0 0 3 1 21 21 0 0 0 3-1h4l3-1 4-1h2a20 20 0 0 1 2 0m-79 3a7 7 0 0 1 1 0h1a23 23 0 0 0 5 1h10a9 9 0 0 1 3 0l1 1a13 13 0 0 1-2 1 15 15 0 0 0-2 2 5 5 0 0 1-2 0 10 10 0 0 1-2 0 14 14 0 0 0-2 0 5 5 0 0 0-2 0 3 3 0 0 0 0-1c-2-3-6-3-6-3a6 6 0 0 0-1 0 1 1 0 0 1-1 0 7 7 0 0 1-2 0 11 11 0 0 0-2-1h-1 4m150 20a15 15 0 0 0 1 1s0 0 0 1a5 5 0 0 1-1 1l-1 1s-2 2-1 4c0 1 1 2 3 2h1a16 16 0 0 0 6-1 10 10 0 0 1 1 0 8 8 0 0 0 4-1 3 3 0 0 1 1 0 12 12 0 0 0 2-1 4 4 0 0 0 2 0v1a5 5 0 0 0 1 4 4 4 0 0 0 3 1h1a4 4 0 0 0 0 1c0 1 1 3 4 3a13 13 0 0 0 2 0 5 5 0 0 0 2 1h1l1-1h2v1a6 6 0 0 1 1 0 7 7 0 0 0 1 3 4 4 0 0 1 0 1 4 4 0 0 1-1 2h-1a28 28 0 0 0-4 2 3 3 0 0 1-1 1 12 12 0 0 0-2-1h-1a17 17 0 0 0-6 1 3 3 0 0 1-2 1l-1-1h-3l-5 1h-3a5 5 0 0 0-4 3 4 4 0 0 1-1 0 5 5 0 0 0-3-2 5 5 0 0 0-1 1 12 12 0 0 0-3-1h-5s-8 0-12 2a58 58 0 0 0-6 4h-2a11 11 0 0 1-6 2 5 5 0 0 1-3 0 5 5 0 0 1 0-1h1a22 22 0 0 0 5-5 12 12 0 0 0 2-5 5 5 0 0 1 1-2l1-2 1-1a6 6 0 0 0 1-2 1 1 0 0 1 1-1v1h1l3 1h1a3 3 0 0 0 1 0 3 3 0 0 0 3-2 4 4 0 0 0-2-4 5 5 0 0 0 1-2 13 13 0 0 1 2 0 5 5 0 0 0 2 1c3 0 4-2 4-3 0-2 0-4-5-5a5 5 0 0 0 0-1 12 12 0 0 1 1-1 8 8 0 0 0 2-2 5 5 0 0 0 2 3 7 7 0 0 1 1 0 5 5 0 0 0 3 1 6 6 0 0 0 4-2 5 5 0 0 0 2-3m21 50a20 20 0 0 1 6 1 50 50 0 0 0 6 1h1l1 1a24 24 0 0 1 5 1l2 1a4 4 0 0 0-1 0l-2 1-2 2a14 14 0 0 1-4 1h-1a41 41 0 0 1-6 2h-1a16 16 0 0 0-3 0 4 4 0 0 0-3 4c0 2 2 4 6 4h5l3-1h3a12 12 0 0 0 2 0 3 3 0 0 0 1 2 4 4 0 0 0 4 1h1a7 7 0 0 0 4-1h1v-1h1a10 10 0 0 1 1 1 10 10 0 0 0 3 1 4 4 0 0 0 1 0 5 5 0 0 0 3-1 10 10 0 0 1 3 0 9 9 0 0 0-4 3 14 14 0 0 1-1 1 10 10 0 0 0-1 1h-1l-3 3-1 1c-1 3 0 4 1 5a6 6 0 0 0 2 1h1a6 6 0 0 0 3 1 14 14 0 0 0 6-1 7 7 0 0 1 2-1 6 6 0 0 0 2 1 9 9 0 0 0 3 0l1-1c2 0 4 0 5-3a8 8 0 0 0 0-2 6 6 0 0 1 1 0h3a21 21 0 0 0 4-1 7 7 0 0 1 2 0h8a5 5 0 0 1 1 0l1 1a12 12 0 0 0 4 1h1a20 20 0 0 0 7-2 7 7 0 0 1 3 0h2a14 14 0 0 1 1 0 7 7 0 0 0 4 1 6 6 0 0 0 1 1 7 7 0 0 0 1-1 6 6 0 0 1 0 1 11 11 0 0 0 3 2 24 24 0 0 0 3 1l1 1a30 30 0 0 1 4 2l5 3v1a6 6 0 0 0 1 2v1c0 1 0 3 3 4a4 4 0 0 0 1 0c1 0 4-1 5-3l1 1a8 8 0 0 0 0 2 6 6 0 0 0 0 1 4 4 0 0 0 3 5 10 10 0 0 0-2-1 8 8 0 0 0-1 1l-1-1a12 12 0 0 0-1-1 7 7 0 0 0-2-1 12 12 0 0 1-3-1l-2-1a7 7 0 0 0-3-1 4 4 0 0 0-3 1 4 4 0 0 0-1 4l3 3a26 26 0 0 0 2 1h1a10 10 0 0 1 0 1 4 4 0 0 0 2 4 5 5 0 0 0 3 1 5 5 0 0 0 2 0 5 5 0 0 0 1-1 4 4 0 0 0 3 2 5 5 0 0 0 1 0 10 10 0 0 1-3 2 17 17 0 0 0-3 2 46 46 0 0 1-6 3l-2 1-4 2-3 1-2 1-10 5a56 56 0 0 0-5 4l-2 1a10 10 0 0 0-2 0 10 10 0 0 0-2 0 24 24 0 0 0-7 3 7 7 0 0 1-1 0 5 5 0 0 0-3 2 3 3 0 0 0 0 3 4 4 0 0 0 1 2l-2 1a28 28 0 0 0-6 3 12 12 0 0 1-4 1 19 19 0 0 0-5 2 50 50 0 0 1-6 4l-2 1a8 8 0 0 1-3 1h-3a5 5 0 0 0-3 1 11 11 0 0 0-2 2 5 5 0 0 0-2 4h-1l-1 1a3 3 0 0 1-2 0h-3a6 6 0 0 0-5 2 20 20 0 0 0-4 6l-1 2-7 3a5 5 0 0 0-3 4 4 4 0 0 0 1 3 5 5 0 0 0 3 1 6 6 0 0 0 5-2 8 8 0 0 1 3-1 6 6 0 0 0 2-1 5 5 0 0 1 1 0 3 3 0 0 1 1 0h2a4 4 0 0 0 3-3 4 4 0 0 0 1-2 12 12 0 0 1 1 0 28 28 0 0 0 7-1 36 36 0 0 1 4-1h4a25 25 0 0 0 3 0 17 17 0 0 0 6-3 11 11 0 0 1 3-1 40 40 0 0 0 9-1l5-4h7a19 19 0 0 0 10-3l1-1c3-2 4-3 4-5a3 3 0 0 0-2-3 6 6 0 0 0-2 0 14 14 0 0 0-4 0 18 18 0 0 1-4 1h-1a23 23 0 0 0-4 0 8 8 0 0 1 1 0 7 7 0 0 0 1-2h1a13 13 0 0 1 2 0h5a26 26 0 0 0 3 1 14 14 0 0 0 3-1 11 11 0 0 0 2 0 4 4 0 0 0 1 1c1 2 2 3 6 4a33 33 0 0 0 3 1 16 16 0 0 1 3 1 17 17 0 0 0 6 1 8 8 0 0 0 4-1 7 7 0 0 0 4-2h1c-2 1-3 3-3 5a6 6 0 0 0 2 4 7 7 0 0 1 1 1 11 11 0 0 1 0 1c1 1 2 3 5 3a4 4 0 0 0 1 0c2-1 5-2 4-5a5 5 0 0 0 0-2 19 19 0 0 1 2 0l11-1a56 56 0 0 1 7-2 3 3 0 0 1 1-1 13 13 0 0 1 2 1 42 42 0 0 0 4 0 101 101 0 0 1 12 1 80 80 0 0 0 12 1h8a4 4 0 0 0-1 3v1c1 1 1 5 4 6a30 30 0 0 0 4 1l3 1a92 92 0 0 0 10 3 11 11 0 0 0 5 1h20a26 26 0 0 0 4 0 60 60 0 0 1 7-1 7 7 0 0 1 1 1 20 20 0 0 0 8 1h1c3 0 4-1 6-3a6 6 0 0 0 1-3 4 4 0 0 0 3-3c0-3-1-5-3-6v-1a5 5 0 0 0 0-2 5 5 0 0 0 1 0 14 14 0 0 0 2 0c4 0 5-2 5-3h2v-1a8 8 0 0 0 2 0 3 3 0 0 0 1 0 8 8 0 0 0 2 0 7 7 0 0 1 1 1 14 14 0 0 1 2 1 17 17 0 0 1 2 2 5 5 0 0 0 4 2h2a22 22 0 0 0 3 0h5a4 4 0 0 0 0 1 5 5 0 0 0 4 4 5 5 0 0 0 2 0 6 6 0 0 0 1 0 4 4 0 0 0 2 0 5 5 0 0 0 3-2 23 23 0 0 0 2-2h1a28 28 0 0 1 3 0h2a7 7 0 0 1 2 0 18 18 0 0 1 3 2 28 28 0 0 0 5 3h1a34 34 0 0 1 5 3h1-1a9 9 0 0 0-3 1c-3 2-3 4-2 5a5 5 0 0 0 4 4 4 4 0 0 1 2 0 5 5 0 0 0-1 1h-1a9 9 0 0 0-1 0 4 4 0 0 0-3 2 4 4 0 0 0 0 4 4 4 0 0 0 3 2h6l2 1h1a2 2 0 0 1 1 1 4 4 0 0 1 1 2 1 1 0 0 1-1 0 8 8 0 0 1-2 1 9 9 0 0 1-1-1 13 13 0 0 1-2 0 13 13 0 0 0-3-2h-1a9 9 0 0 0-4-2 4 4 0 0 0-2 1c-1 0-4 3-1 8a39 39 0 0 0 5 6 6 6 0 0 0 3 2 3 3 0 0 0 1 5l2 1 3 2a9 9 0 0 1 1 2 12 12 0 0 0 3 2l1 1a4 4 0 0 0 1 5l7 4a20 20 0 0 0 6 2h1a11 11 0 0 0 1 0 4 4 0 0 0 2 3 6 6 0 0 0 3 1 5 5 0 0 0 4-3l2-1a30 30 0 0 0 4-5 9 9 0 0 1 2-1 10 10 0 0 0 2-3l2-6a18 18 0 0 1 2-4 28 28 0 0 0 1-3 11 11 0 0 1 2-3c1 2 2 4 5 5a53 53 0 0 0 10 6 36 36 0 0 0 8 1h3a4 4 0 0 0 2 2 3 3 0 0 0 1 0c2 0 4-2 4-5a15 15 0 0 1 3-1h2a15 15 0 0 0 5-1 4 4 0 0 1 2-1 9 9 0 0 0 2 0 11 11 0 0 1 3 1 4 4 0 0 1 1 0 12 12 0 0 0 3 2h1a9 9 0 0 0 4 1 6 6 0 0 1 3 1l1 1a19 19 0 0 1 2 2h1a7 7 0 0 0 4 4 7 7 0 0 0 2 0 4 4 0 0 0 4-2v-1h1c3-1 3-3 3-5a4 4 0 0 0-2-2 6 6 0 0 1 1-1 4 4 0 0 0 3 1 6 6 0 0 0 3-1 4 4 0 0 1 2-1 4 4 0 0 0 1 4 5 5 0 0 0 3 1 5 5 0 0 0 4-2h2a23 23 0 0 0 3 1 5 5 0 0 0 1 0 4 4 0 0 0 3-3 4 4 0 0 0-1-4l-1-1-1-1-1-3v-1a4 4 0 0 0 0-2 14 14 0 0 1 2-2h1a4 4 0 0 0 3-3 4 4 0 0 0-1-4 4 4 0 0 0-3-2h-1 1a2 2 0 0 1 1-1l1 1h3a14 14 0 0 0 1 0 13 13 0 0 0 3-1 7 7 0 0 0 3-1 4 4 0 0 0 4-2 4 4 0 0 0-1-5v-1h1a15 15 0 0 1 1 0 16 16 0 0 1 4 1l1 1h1a27 27 0 0 0 5 2 30 30 0 0 0 7 1h1a28 28 0 0 1 5 0 40 40 0 0 0 5 0 18 18 0 0 0 2 0h2a30 30 0 0 1 7 1 35 35 0 0 0 6 1 9 9 0 0 0-1 1h-1a7 7 0 0 0-3 3 4 4 0 0 0 0 4 4 4 0 0 0 2 2 6 6 0 0 0 1 0l8-1h1l3-1a4 4 0 0 0 0 1 8 8 0 0 0 1 3l-5-2h-1a3 3 0 0 0-3 4 4 4 0 0 0 0 2 3 3 0 0 0-1 2 5 5 0 0 0 1 4 4 4 0 0 0 3 1 8 8 0 0 0 3 0 8 8 0 0 1 1-1 6 6 0 0 1 3 0h1l5-1a8 8 0 0 0 5-2 40 40 0 0 0 3-3l1-1a6 6 0 0 1 1-1 16 16 0 0 0 3-2l1-1a9 9 0 0 0 3-4 2 2 0 0 1 0-1 5 5 0 0 1 2 0 21 21 0 0 1 5 1 33 33 0 0 0 3 0h4l4 1 7 1a11 11 0 0 0 3 1 8 8 0 0 1 3 1 15 15 0 0 1 3 3h1-1a5 5 0 0 0-4-2 4 4 0 0 0-1 0 10 10 0 0 0-3 2 4 4 0 0 0-2 0 4 4 0 0 0-3 0c-2 2-2 6-1 8a5 5 0 0 0 5 2 8 8 0 0 0 1 0h1a10 10 0 0 1 2-1h2l2 1h2a4 4 0 0 0 1 3 6 6 0 0 0 2 1 4 4 0 0 0-1 2 4 4 0 0 1 0 1 4 4 0 0 0 0 3 3 3 0 0 0 3 1 4 4 0 0 0 1 0 7 7 0 0 0 2-1 13 13 0 0 1 1-1l2-1a4 4 0 0 0 1 1 5 5 0 0 0 1 0 7 7 0 0 0 4-2 2 2 0 0 1 1 0 7 7 0 0 0 1 0 6 6 0 0 1 1 0 11 11 0 0 0 2 1 9 9 0 0 0 2 4l1 1c0 2 0 4 4 5a11 11 0 0 0 1 0 7 7 0 0 1 4 2 11 11 0 0 0 7 2 17 17 0 0 0 4-1 20 20 0 0 1 3 0 18 18 0 0 0 6-2l10-2h2l6-1a40 40 0 0 1 4-1h2a94 94 0 0 1 10-1h3l7 1h11a21 21 0 0 1 5 1 77 77 0 0 1 13 4l2 1 5 2v1a18 18 0 0 1 2 4l1 2a10 10 0 0 1 1 2 5 5 0 0 0-3 2 5 5 0 0 0-1 4v1a6 6 0 0 0 0 5c1 2 3 4 7 4h2a4 4 0 0 1 2 1 24 24 0 0 0 9 2 24 24 0 0 0 5 0h1a7 7 0 0 0 2-1 7 7 0 0 1 2 0 22 22 0 0 1 3 0 24 24 0 0 0 2 0 33 33 0 0 0 9-1l2-1a27 27 0 0 1 8-1h4a22 22 0 0 1 2 0 10 10 0 0 1 2 0 37 37 0 0 1 4 1 67 67 0 0 0 7 2h1l9 1a21 21 0 0 0 3 0 6 6 0 0 1 1 0 19 19 0 0 1 2 0 51 51 0 0 0 7 1 40 40 0 0 0 4-1 16 16 0 0 1 2 0h1a8 8 0 0 0 5-1 15 15 0 0 1 4-2 6 6 0 0 1 2 1 10 10 0 0 0 1 1 4 4 0 0 1 0 1 5 5 0 0 1 0 1 6 6 0 0 0 2 6h1c1 2 2 3 7 3l4 1h2v1a8 8 0 0 0 3 4v1a7 7 0 0 0 6 2 20 20 0 0 0 4 0 10 10 0 0 1 2-1 5 5 0 0 1 1 1 6 6 0 0 0 4 1 4 4 0 0 0 2 0 6 6 0 0 0 3-5v-1c1-1 4-3 3-7a7 7 0 0 0-2-4 5 5 0 0 1-1-1l-1-3-3-4a5 5 0 0 0-1 0c2-2 3-3 2-6a6 6 0 0 1 0-1 27 27 0 0 0 4 0l6 1a73 73 0 0 1 9 0l3 1a6 6 0 0 1 5 1l1 1c2 2 4 4 6 4a4 4 0 0 0 3-2 5 5 0 0 0 1-3l5 1a93 93 0 0 1 11 1 31 31 0 0 0 7 1 32 32 0 0 0 8-1h1a4 4 0 0 1 1 0h2l4 2a35 35 0 0 1 3 2c3 2 5 3 11 4h4c4 0 5 0 8 2a61 61 0 0 1 6 3 65 65 0 0 0 6 4 30 30 0 0 1 3 1 20 20 0 0 0 6 3 25 25 0 0 0 6 1h1a11 11 0 0 1 5 3 16 16 0 0 1 1 2 19 19 0 0 0 3 3l1 1c2 2 2 2 5 2h2a17 17 0 0 1 4 1l1 1h1c2 3 5 4 7 4l2 1h1a29 29 0 0 1 6 3l2 1a36 36 0 0 0 7 4l4 1a5 5 0 0 1 2 1l1 1 1 1 1 1v1c-1 1-2 3-1 4a4 4 0 0 0 2 2 7 7 0 0 0 2 1 4 4 0 0 0 1 0 12 12 0 0 0 2 5v1a12 12 0 0 1 1 2 5 5 0 0 0-2 2 3 3 0 0 0-1 3l4 3a20 20 0 0 0 2 1c0 3 0 4 2 5a4 4 0 0 0 2 1 4 4 0 0 0 3-1c0 2 1 3 3 3a4 4 0 0 0 4-2 7 7 0 0 1 0-1 7 7 0 0 0 3-3c0-4-2-5-3-5l-1-1a5 5 0 0 0 1-1v-1l-1-5-1-1h4a4 4 0 0 0 0 1 6 6 0 0 1 0 1 4 4 0 0 0 0 4 3 3 0 0 0 3 1 5 5 0 0 0 1-1 7 7 0 0 0 4-2 1 1 0 0 0 0-1h1a2 2 0 0 1 1 0 19 19 0 0 1 2 1 9 9 0 0 0 3 1 4 4 0 0 0 4-2 12 12 0 0 0 2 0 6 6 0 0 1 1 0 26 26 0 0 1 4 3l1 2 3 2a15 15 0 0 0 5 4h1a31 31 0 0 1 6 3 6 6 0 0 1 0 1 5 5 0 0 0 2 2 7 7 0 0 0 2 2l-1 1a14 14 0 0 1-2 1 8 8 0 0 0-4 3 8 8 0 0 0-1 0h-3v-1l-5-3a3 3 0 0 0-1 0 4 4 0 0 0-3 3 4 4 0 0 0 1 4h1a20 20 0 0 0-3-1 21 21 0 0 1-4 0 5 5 0 0 0-4-3 23 23 0 0 0-4 0 6 6 0 0 0-3 0l-2 4a4 4 0 0 0 3 3 5 5 0 0 0 1 1 6 6 0 0 0 1 0 6 6 0 0 0 0 1 6 6 0 0 0 1 0 3 3 0 0 0-4 4c0 3 1 4 3 4v1h-1a13 13 0 0 0-5 1c-4 1-4 2-5 3a3 3 0 0 0 0 2 3 3 0 0 0-3 3 7 7 0 0 0 0 2 4 4 0 0 1-2-1 17 17 0 0 1-3-2l-1-2a8 8 0 0 0-5-2l-2-1h-1l-6-1h-3a7 7 0 0 1-1-1 19 19 0 0 1-1-3l-2-3c-2-4-3-5-6-7a18 18 0 0 0-7-2l-1-1h-18a36 36 0 0 0-4 0h-1a6 6 0 0 0-3-5h-1a5 5 0 0 0 1-1h1c1-1 2-2 2-5l1-2c0-1 1-2-1-4a3 3 0 0 0-2-1h-1a7 7 0 0 0-5 2 3 3 0 0 0-2-2 5 5 0 0 0-1 0c-1 0-5 0-5 3a3 3 0 0 0 0 1 4 4 0 0 0-2 0h-1a4 4 0 0 0-3 4 8 8 0 0 0 0 2 7 7 0 0 1 0 1 5 5 0 0 1 0 1 5 5 0 0 0 0 3 8 8 0 0 0 4 4c-3 1-6 2-7 4-1 0-2 2-1 4a3 3 0 0 0 2 2 17 17 0 0 0-2 2l-2 1c-4 0-10 2-11 3a27 27 0 0 1-5 1l-1 1a12 12 0 0 0-3 1h-1a4 4 0 0 1-1 0 20 20 0 0 0-3 0l-1-1-1-1v-1c-1-3-2-4-4-4a6 6 0 0 1-2-1 4 4 0 0 1-1-1 5 5 0 0 0-3-1h-3a9 9 0 0 1-1 0 7 7 0 0 0-2 0 3 3 0 0 0-3 1 4 4 0 0 0-1 3h-1a4 4 0 0 0-3 2 4 4 0 0 0 1 6 4 4 0 0 0-1 1v1a4 4 0 0 0 1 3 3 3 0 0 0 2 1 5 5 0 0 0 1 0h1a4 4 0 0 0 4-2h4a5 5 0 0 0 1 0 6 6 0 0 0 3-1 9 9 0 0 1 1-1 4 4 0 0 1 0 1 7 7 0 0 0 1 3 11 11 0 0 0 3 3 11 11 0 0 0 4 3 4 4 0 0 1 1 1 4 4 0 0 0 2 1 4 4 0 0 0 2-1 9 9 0 0 0 1 0l1-1v1a15 15 0 0 0 2 5v1a8 8 0 0 1 1 1h-1a4 4 0 0 0-4 4 4 4 0 0 0 1 3 4 4 0 0 0 3 1h1a4 4 0 0 0 3 4h1a15 15 0 0 0 4 3 10 10 0 0 0 1 0l-1 1c-1 3 1 5 2 6a7 7 0 0 0 2 0 10 10 0 0 0 0 1 8 8 0 0 0-2 2 11 11 0 0 0-3 3l-4-1-2-1-1-1-6-1h-6a3 3 0 0 0 1-3 4 4 0 0 0-4-3h-2v-1a5 5 0 0 0-2 0 4 4 0 0 0-2 0 4 4 0 0 0-3 3 4 4 0 0 0 0 3h1l-6 2-8 4h-1l-3 1a9 9 0 0 0-4 3 4 4 0 0 0-2 2h-1a15 15 0 0 0-3 0 6 6 0 0 0-3 3l-1 1c0 1 0 0 0 0a4 4 0 0 1-1 0 5 5 0 0 0-2-1 6 6 0 0 0-3 1 19 19 0 0 0-2 1 9 9 0 0 1-2 1 9 9 0 0 1-1 0 7 7 0 0 0-1 0 4 4 0 0 0-3 3 4 4 0 0 0 0 1h-3l-2 1-4 2a3 3 0 0 0-1 2 4 4 0 0 0-1 0 11 11 0 0 0-2 1c-2 1-3 2-3 4a4 4 0 0 0-3 4h-2l-1 1-4 2-8 4a11 11 0 0 1-2 1 6 6 0 0 0-3 3 6 6 0 0 0-1 2 7 7 0 0 0-2 4v1a2 2 0 0 1-1 1 14 14 0 0 1-1-1 4 4 0 0 0-1-4 4 4 0 0 0-2-1 4 4 0 0 0-1-3 5 5 0 0 0-2-1 12 12 0 0 0-4-3h-1a5 5 0 0 0-3-1h-7a24 24 0 0 1-3 1 20 20 0 0 1-2-1 27 27 0 0 0-3 0 9 9 0 0 0-4 1l-1 1a16 16 0 0 0-5 2 9 9 0 0 1-2 1 16 16 0 0 0-3 1 11 11 0 0 0-3 3 18 18 0 0 1-2 2l-1 1a9 9 0 0 0 0-2v-1c3-3 1-5 0-5a3 3 0 0 0-2-1l-5 2a27 27 0 0 1-4 2l-1 1h-1l-2 2h-1a4 4 0 0 0-4 3 16 16 0 0 0 0 1v1a5 5 0 0 0-2 0c0-1-1-3-4-4a7 7 0 0 0-1 0 6 6 0 0 0-4 2h-1a7 7 0 0 0-4-2 6 6 0 0 0-2 0 4 4 0 0 0-4 4 5 5 0 0 0-3 2 8 8 0 0 0-1 2 1 1 0 0 1 0 1 6 6 0 0 0-2 4 13 13 0 0 0 1 3 4 4 0 0 0-1 1 5 5 0 0 0-1 2 3 3 0 0 0-3 4 6 6 0 0 0 0 2 30 30 0 0 0-3 2l-5 5a15 15 0 0 1-2 3 11 11 0 0 1-1 1 7 7 0 0 0-2 4 5 5 0 0 1 0 1 5 5 0 0 0 1 5 13 13 0 0 0 3 3 8 8 0 0 0 1 1 4 4 0 0 0 1 3 3 3 0 0 0 3 1h1a4 4 0 0 0 3-5 5 5 0 0 0 3 2h-1l-1 2-1 1-2 5v7c0 1 0 3 2 5h1a18 18 0 0 0-3 1h-1a5 5 0 0 0-4 2 4 4 0 0 0 0 3v1a9 9 0 0 0-2 2 11 11 0 0 1-2 1 9 9 0 0 0-3 5 7 7 0 0 1 0 2 8 8 0 0 0-1 5 14 14 0 0 1 0 2 8 8 0 0 0 0 4v1a6 6 0 0 0 2 4 9 9 0 0 0 2 1 5 5 0 0 1 0 1l-1 1c-1 0 0 0 0 0a13 13 0 0 1-5 2 11 11 0 0 1-1 0 11 11 0 0 0-4-1 5 5 0 0 0-1 0c-3 0-6 1-8 4h-1a10 10 0 0 0-3 2l-2 1-4 6a8 8 0 0 1 0 2 7 7 0 0 0-1 4 9 9 0 0 0 1 3 5 5 0 0 0 0 4 12 12 0 0 0-2 0 8 8 0 0 0-2 0l-1 1a17 17 0 0 0-6 2 22 22 0 0 0-5 5l-1 1-1 1c-1 1-3 3-2 6v1a8 8 0 0 1 1 2l-4 5a6 6 0 0 1-1 1 16 16 0 0 0-4 4l-3 3a12 12 0 0 1-3 3l-2 2a17 17 0 0 0-3 2 15 15 0 0 0-1-2 3 3 0 0 1-1-1v-2a14 14 0 0 0 0-7 17 17 0 0 1-1-6 12 12 0 0 1 1-1 6 6 0 0 0-2-5 16 16 0 0 0-1-2l-2-2a117 117 0 0 0-2-14v-3a69 69 0 0 0-3-14 37 37 0 0 1-2-15v-4l2-14a64 64 0 0 0 2-7v-1l4-3 1-2a11 11 0 0 1 3-2c3-1 3-2 5-4l1-2a6 6 0 0 0 1-5 7 7 0 0 0-2-3h2c2 0 5 0 7-2a6 6 0 0 0 1-2h1a7 7 0 0 1 2 0 4 4 0 0 0 3 2 4 4 0 0 0 2-1 6 6 0 0 0 3-3 6 6 0 0 1 0-1 8 8 0 0 1 4-2 15 15 0 0 0 7-5l2-2a42 42 0 0 0 3-5 26 26 0 0 0 2-4 7 7 0 0 1 2-3 38 38 0 0 0 5-4 43 43 0 0 1 5-5l4-3 6-4h1l6-6a7 7 0 0 0 1-3l1-1a14 14 0 0 1 2-1 21 21 0 0 0 5-2 17 17 0 0 1 4-1l1-1c4 0 7-1 9-3a5 5 0 0 0 2-5l1-1a7 7 0 0 0 3-3c2-3 1-5 0-8a7 7 0 0 0-1-1c2-3 2-5 2-7a10 10 0 0 1 0-3l2-4a9 9 0 0 0 2-1 12 12 0 0 1 2 0 6 6 0 0 1 2 1 8 8 0 0 0 4 1 5 5 0 0 0 2 0 4 4 0 0 0 2-2h1a13 13 0 0 0 2 0 4 4 0 0 0 3-1 4 4 0 0 0 1-3c0-2-1-4-5-4h-1l-2 1a12 12 0 0 1-1-1 27 27 0 0 0-3 0 2 2 0 0 1-3-1 9 9 0 0 1-1-1 5 5 0 0 0-4-2 10 10 0 0 0-4 0 21 21 0 0 1-5 2 19 19 0 0 0-3 0 4 4 0 0 1-1 0 7 7 0 0 0-2 0c-1 0-3 0-4 4a30 30 0 0 0-1 3 32 32 0 0 1-1 5 19 19 0 0 1-1 3 5 5 0 0 0-1 5 7 7 0 0 0-2 1 3 3 0 0 1-1 0 6 6 0 0 0-1-1 7 7 0 0 0-5 3 21 21 0 0 1-4 2 28 28 0 0 0-7 5 13 13 0 0 1-3 2 10 10 0 0 0-5 5l-3 4a4 4 0 0 0 0-2 4 4 0 0 0-3-2 7 7 0 0 0-2 0 4 4 0 0 0-1-4 6 6 0 0 0 2-3 9 9 0 0 0 1-2l4-6a6 6 0 0 1 0-1v-4a4 4 0 0 0-3-2 8 8 0 0 0-2 1 10 10 0 0 0-4 2 5 5 0 0 1-3 2 9 9 0 0 1-2 0 4 4 0 0 0-1-3 4 4 0 0 0-3-1 20 20 0 0 0-2 0 26 26 0 0 0-5 0 19 19 0 0 1-4 1h-5a41 41 0 0 0-4 1c-6 0-10 1-13 4l-2 2a8 8 0 0 0-2 3v2a6 6 0 0 1-1 2h-1a21 21 0 0 0-3 2l-2 1c-1 1-3 2-3 4a9 9 0 0 1-3 5 21 21 0 0 1-6 4l-2 1a39 39 0 0 1-3 2c-2 1-4 2-5 5l-2 1a10 10 0 0 0-2 2c-2 2-1 4-1 6v1a1 1 0 0 1 0 1 4 4 0 0 0 0 4 5 5 0 0 0 1 2 12 12 0 0 0-2 3l-1-1a5 5 0 0 1-1-1c-2-1-3-3-6-3a4 4 0 0 0-3 2 4 4 0 0 0-1 1 13 13 0 0 0-1 0 4 4 0 0 0-4 3 6 6 0 0 0-3-1h-2a4 4 0 0 0 0-4l-5-1a10 10 0 0 1-2-1l-1-1a9 9 0 0 0-4-2 6 6 0 0 1-2-1 6 6 0 0 0-4-1h-6a4 4 0 0 1-2-1 14 14 0 0 1-1-1 13 13 0 0 0-8-2l-3-1a29 29 0 0 0-4 0c-2 0-4 1-5 3a6 6 0 0 0 0 4 5 5 0 0 0-1 0h-1a4 4 0 0 0-3 2 1 1 0 0 0 0 1 10 10 0 0 0-3-1h-1a17 17 0 0 0-6 1l-1 1a18 18 0 0 0-2 0 4 4 0 0 1-1 1 3 3 0 0 1-1-1 23 23 0 0 0-2 0 25 25 0 0 1-3-1 6 6 0 0 1-2-2 5 5 0 0 0-4-1 10 10 0 0 0-1 0c-2 1-5 1-7 4a4 4 0 0 0-2-2 11 11 0 0 0-4-1h-17a29 29 0 0 1-5 0 15 15 0 0 0-2 0 23 23 0 0 0-5 0l-12 4-3 1-8 5-10 8-2 1a22 22 0 0 0-7 11h-1v1l-2 3h-2a19 19 0 0 0-8 4 20 20 0 0 1-3 2 21 21 0 0 0-7 5 20 20 0 0 1-4 4c-2 1-4 3-5 6v5a21 21 0 0 1-5 3v1a16 16 0 0 0-3 3 16 16 0 0 1-5 3 47 47 0 0 0-7 5 29 29 0 0 1-5 3l-3 2a23 23 0 0 0-4 2l-2 1a13 13 0 0 0-5 4 12 12 0 0 1-2 2 5 5 0 0 0-1 3 4 4 0 0 0 1 3 9 9 0 0 0 6 3h6a33 33 0 0 0 4 0 18 18 0 0 1 2-1 2 2 0 0 1 1 1 11 11 0 0 0 1 0 2 2 0 0 1 0 1 6 6 0 0 0-1 2 10 10 0 0 0 1 2v3h-1v1a8 8 0 0 0 0 4 3 3 0 0 0 0 3 3 3 0 0 0 3 1 7 7 0 0 0 1 0l1-1a9 9 0 0 0 3-1 4 4 0 0 0 0 4 4 4 0 0 0 3 3 9 9 0 0 0 1 0 13 13 0 0 0 2 0 7 7 0 0 1 1-1 4 4 0 0 1 1 1 6 6 0 0 0 1 0 5 5 0 0 0 4-1v-1a4 4 0 0 0 3 3h1a3 3 0 0 0 1 0c3 0 4-2 4-3a10 10 0 0 0 1-3 5 5 0 0 1 1-1 5 5 0 0 0 2-3 8 8 0 0 0 0-4h3a32 32 0 0 0 4 0h1a9 9 0 0 0 3-1v1l1 1a19 19 0 0 0 4 6l1 1a21 21 0 0 0 3 3 21 21 0 0 0 4 2l2 1a4 4 0 0 0-2-1 3 3 0 0 0-3 3c-1 5 2 7 3 7h2l1 1 1 1a13 13 0 0 0 0 1v1a3 3 0 0 1-1 0 7 7 0 0 1 0 1c-1 2-1 3 1 6a8 8 0 0 0 2 1v1a7 7 0 0 0-1 3l-1 1a13 13 0 0 1-1 1l-5 4a8 8 0 0 0 0 3h1a6 6 0 0 0-3 5l-1 4c-2 4-2 6-1 9a7 7 0 0 1 0 3 5 5 0 0 0 1 4 6 6 0 0 0-1 5v2a16 16 0 0 1 0 1l-1 4-2 4a5 5 0 0 0 1 3 4 4 0 0 1 0 1 4 4 0 0 1-1 3 17 17 0 0 0-1 1 10 10 0 0 0-1 4 4 4 0 0 1 0 1 14 14 0 0 1-3 2 16 16 0 0 0-3 3 4 4 0 0 1-1 0 13 13 0 0 0-4 6h-1c-1 4-2 4-3 5a16 16 0 0 1-1 2l-5 5a25 25 0 0 0-2 6c0 1 0 3-3 5a35 35 0 0 0-7 9c0 2-1 3-3 4l-4 4a15 15 0 0 1-3 2 12 12 0 0 0-5 6l-7 7a26 26 0 0 0-4 3 34 34 0 0 0-2 4 34 34 0 0 1-2 3 15 15 0 0 0-2 4 5 5 0 0 1-3 3l-5 2-7 4-8 4a10 10 0 0 0-4 2h-1a5 5 0 0 0-5-4 10 10 0 0 0-3 1 9 9 0 0 1 0-1 7 7 0 0 0-1-3 3 3 0 0 0-1-2 3 3 0 0 0-2-1h-2a9 9 0 0 0-7 2 15 15 0 0 0-2 2 17 17 0 0 0 1-6v-4a35 35 0 0 0 0-5v-2a19 19 0 0 0-2-6v-2a16 16 0 0 0 3-1 8 8 0 0 0 3-3 2 2 0 0 1 1-1 14 14 0 0 0 1-1l1 1a22 22 0 0 0 4 1 40 40 0 0 0 5 1 22 22 0 0 0 3 1 14 14 0 0 0 2-1c1 0 5-1 5-6v-1a18 18 0 0 1 2-1 10 10 0 0 0 2-2 6 6 0 0 0 1-5 13 13 0 0 1 2-1 8 8 0 0 0 2-4 13 13 0 0 0 1-5 7 7 0 0 1 0-1h1a14 14 0 0 0 3-7 19 19 0 0 1 0-3l1-3a5 5 0 0 1 1-2l2-1 4-4a6 6 0 0 0-1-5 14 14 0 0 0-1-3c0-2 1-5-1-7a11 11 0 0 0-3-2 9 9 0 0 0-4-1 12 12 0 0 0-3 1 27 27 0 0 0-3 1l-3 1a24 24 0 0 1-6 2 21 21 0 0 0-6 1v1a12 12 0 0 0-4 2 7 7 0 0 0-2 3h-16a8 8 0 0 0-1-2 6 6 0 0 0-2-2 11 11 0 0 0 1-5 6 6 0 0 0-3-5 5 5 0 0 0 0-5c-2-2-4-2-5-2a4 4 0 0 1-2 0 25 25 0 0 1-3-3l-7-6a9 9 0 0 0-3 0 6 6 0 0 0-2 1 21 21 0 0 1-3-1v-1a20 20 0 0 0-3-1 13 13 0 0 0-4-1h-7a11 11 0 0 1-1-2 4 4 0 0 1-1-1 10 10 0 0 1 0-2 8 8 0 0 0 1-4l-4-7-1-2a20 20 0 0 0-2-3l-1-2c0-2 0-4-2-6a7 7 0 0 0-2-2l-1-1v-3a19 19 0 0 0-2-3 15 15 0 0 1-1-2 6 6 0 0 0 0-4 22 22 0 0 0-2-4l-1-1a12 12 0 0 0-2-3h-1a5 5 0 0 0-1-5 74 74 0 0 0-6-5 19 19 0 0 0-5-3 11 11 0 0 0-3-1h-3l-1 1h-3a10 10 0 0 0-2-1l-3-2-4-2a18 18 0 0 0-4-1 14 14 0 0 0-3-1h-2l-11 2a60 60 0 0 0-6 1l-11 2h-1a11 11 0 0 0-1 0 11 11 0 0 0-4 0 17 17 0 0 0-3 2 70 70 0 0 0-7 6l-4 5a6 6 0 0 0 1 5 7 7 0 0 0 2 2 7 7 0 0 0 3 1h2a10 10 0 0 0 0 2 9 9 0 0 0 0 1l-4 4v1l-3 3a39 39 0 0 0-3 5l-3 5-2 2a25 25 0 0 0-3 7 15 15 0 0 0 0 6v1a4 4 0 0 1-1 1 4 4 0 0 1-2 1 9 9 0 0 1-2 1h-1a9 9 0 0 0-3 0l-6 4-2 2-6-2-5-2a27 27 0 0 1-4-1l-7-2a8 8 0 0 0-2 0 35 35 0 0 0-5 1l-2 1-2-2c-2-2-5-4-8-4h-7a32 32 0 0 0-4 0 19 19 0 0 0-5 2 54 54 0 0 0-5 4 30 30 0 0 0-5 5 22 22 0 0 1-2 2l-6 1h-1l-6 1-6 1-9 3a31 31 0 0 1-3 0l-5-1-7-1-6-1a22 22 0 0 0-3-1h-2a19 19 0 0 1-4 0 6 6 0 0 1-2-1 16 16 0 0 0-2-2 4 4 0 0 1 0-2c0-1 0-5-5-6a20 20 0 0 0-3 0 8 8 0 0 1-3-1 19 19 0 0 0-4-3 17 17 0 0 0-5-1l-3-1a9 9 0 0 1-3 0 41 41 0 0 0-4-1 40 40 0 0 0-7-1h-2a25 25 0 0 0-5 0 24 24 0 0 0-6 2 29 29 0 0 1-5 2 14 14 0 0 1-3 1 26 26 0 0 1-5-1l-5-1a24 24 0 0 1-6-2 9 9 0 0 1-3-2l-1-6v-1c-1-5-2-7-5-8l-9-3-12-4a21 21 0 0 0-6-1 13 13 0 0 1-3 0l-6-3-8-3a5 5 0 0 0-1 0s-2 0-5 3a42 42 0 0 0-5 4 9 9 0 0 0-2 4v1a5 5 0 0 1-1 0 9 9 0 0 0-4 5 18 18 0 0 0 0 4 14 14 0 0 0 1 7 13 13 0 0 1 1 2 8 8 0 0 0 3 4 17 17 0 0 1-1 2 11 11 0 0 1-1 2 5 5 0 0 1-1 0 11 11 0 0 0-3 1 11 11 0 0 0-3 2 3 3 0 0 1-1 0 8 8 0 0 1-2 0 30 30 0 0 1-3-1h-2l-1-1a41 41 0 0 0-10-2h-2c-3 0-4 1-5 2a8 8 0 0 1-1 0 49 49 0 0 0-7-1 13 13 0 0 1-2-1 12 12 0 0 0-1-3l-1-2c-1-2-2-4-5-5a13 13 0 0 0-3 0h-5a8 8 0 0 1-5-2h-1v-1a15 15 0 0 0-5-2 14 14 0 0 0-3 0 9 9 0 0 0-1 0 8 8 0 0 0-5 3 6 6 0 0 1-2 1 4 4 0 0 1-2 1 9 9 0 0 1-1-1 13 13 0 0 0-1 0 7 7 0 0 0-3 1 60 60 0 0 0-6 3l-2 1-9 4-6 3h-1v1c-2 1-4 2-5 5h-1a17 17 0 0 1-6 3h-3c-5 0-8 0-9 2a7 7 0 0 0-1 2 6 6 0 0 1-1 2h-2a21 21 0 0 1-4 1 26 26 0 0 0-2-3 23 23 0 0 0-3-2h-1v-1h-3 3a8 8 0 0 0-2-5 4 4 0 0 0-3-2 5 5 0 0 0-3 1 14 14 0 0 0-1 2 11 11 0 0 1-2 1l-1 1a15 15 0 0 1-3 0h-1l-2-1h-3l-1-1-1-1a8 8 0 0 0-1-4 10 10 0 0 0-4-3l-2-1a20 20 0 0 0-4-2 14 14 0 0 0 0-1 36 36 0 0 0-3-5 12 12 0 0 0-4-4 20 20 0 0 0-4-2 31 31 0 0 0-5-1 21 21 0 0 0-2 0 10 10 0 0 0-5 1 8 8 0 0 0-4 2l2 3-2-3a7 7 0 0 1 0 1h-9a15 15 0 0 0-4 0l-1 1a9 9 0 0 1-1-1v-1a10 10 0 0 0-1-4 7 7 0 0 0-3-3 9 9 0 0 0-4-1h-1a8 8 0 0 0-3 1 9 9 0 0 0-3 2 8 8 0 0 0-2 4v1-1l-1-1-13-22a149 149 0 0 0-13-18l-17-14v-1a4 4 0 0 1 1-1c2-2 5-5 2-8a5 5 0 0 0-4-2 8 8 0 0 0-3 1h-1l-11 5v1l-4 2-3 1h-1l-11 5a7 7 0 0 0-3 4 7 7 0 0 0-2-1 7 7 0 0 0-2 0 8 8 0 0 0-1 0 8 8 0 0 0 2-3 5 5 0 0 0 0-4 4 4 0 0 0-3-3 4 4 0 0 0-1 0 26 26 0 0 0-3 1h-4a4 4 0 0 1-1 0 18 18 0 0 0-3-1 8 8 0 0 0-1 0 7 7 0 0 0-3 0 6 6 0 0 0-4-2 7 7 0 0 0-1 0 29 29 0 0 0-4 0 36 36 0 0 1-4 1 19 19 0 0 0-2 0 5 5 0 0 0 0-1v-4a6 6 0 0 0 0-4 15 15 0 0 0-1-4l-1-2a11 11 0 0 1-1-1 9 9 0 0 0-3-5 8 8 0 0 0-5-1 20 20 0 0 0-3 0 6 6 0 0 0-4 2 24 24 0 0 0-2-2l-9-1h-6a8 8 0 0 0-4 1 9 9 0 0 0-2 2 38 38 0 0 1-4 3v1a10 10 0 0 1-2 0 27 27 0 0 1-4 1 46 46 0 0 0-6 1 64 64 0 0 0-7 2l-5 1a25 25 0 0 1-3 1h-2a51 51 0 0 0-8 1 15 15 0 0 0-3 1 7 7 0 0 0-3 3 5 5 0 0 0-1 1h-8a15 15 0 0 0-1 0 59 59 0 0 0-9 2h-1l-5 1a62 62 0 0 0-8 2 5 5 0 0 0-2 2 9 9 0 0 0-3-1h-6a7 7 0 0 0-3-1 7 7 0 0 0-1 0 11 11 0 0 0-4 1 16 16 0 0 0-4 2 5 5 0 0 0-2 6 5 5 0 0 0 0 2 5 5 0 0 0 0 1 5 5 0 0 0 3 4 6 6 0 0 0-1 1 5 5 0 0 0 1 4 3 3 0 0 0 1 0 13 13 0 0 0-4 3 14 14 0 0 0-3 4 7 7 0 0 0-1 4 12 12 0 0 0 2 3v1a14 14 0 0 1-4 1h-1c-4 1-7 2-6 6 0 4 3 5 5 6a11 11 0 0 1 1 1l8 4a76 76 0 0 1 5 3h1v2a13 13 0 0 0-1 1 5 5 0 0 1-1 1 29 29 0 0 1-3 1 12 12 0 0 1-3 1l-3-1a23 23 0 0 0-6-2c-3 0-5 3-6 4v1a2 2 0 0 1-1 0 23 23 0 0 0-5-2h-2a5 5 0 0 1-2-1 1 1 0 0 1 0-1 8 8 0 0 0-3-4 13 13 0 0 0-5-2 16 16 0 0 0-3 0h-1a12 12 0 0 0-4 1 8 8 0 0 0-2 2 8 8 0 0 0-4-2 11 11 0 0 0-2-1 25 25 0 0 0-5 1h-2a7 7 0 0 0-6 4 2 2 0 0 1-1 0l-3 2-2 2-3-3h-1a25 25 0 0 0-3-3 17 17 0 0 0-5-1 8 8 0 0 0-1 0 5 5 0 0 0-4 2l-6-6-7-5a9 9 0 0 0-2-1 36 36 0 0 0-5 1h-3c-1-2-2-4-5-5a15 15 0 0 0-3 0 10 10 0 0 0-2 0 9 9 0 0 0-5 3l-1 1a7 7 0 0 0-1-1 11 11 0 0 0-2-1h-2a14 14 0 0 0-5-2 5 5 0 0 0-4 1 6 6 0 0 0-2 3 15 15 0 0 0-5 4 14 14 0 0 1-4 3 23 23 0 0 1-3 1c-2 1-5 1-6 4v2h-2c-3 1-6 1-7 4a7 7 0 0 0-1 4 13 13 0 0 0 1 4l1 1v2a7 7 0 0 1 0 1l-2-2c-4-5-7-7-9-7h-1a10 10 0 0 0-5 1 7 7 0 0 0-4 5v2a9 9 0 0 1-1 1 5 5 0 0 0-2 2l-2 4a29 29 0 0 0 0 7 11 11 0 0 0 0 4l-1 1v2c-2 1-4 4-4 8a8 8 0 0 0 3 5 14 14 0 0 0 4 2 3 3 0 0 1 1 1 2 2 0 0 1 0 1c0 3 1 7 6 8a11 11 0 0 0 3 1 30 30 0 0 0 3-1 25 25 0 0 1 3 0 4 4 0 0 1 1 0 23 23 0 0 1 2 4 40 40 0 0 0 3 5l2 2a5 5 0 0 0-2 4 7 7 0 0 0 2 4 11 11 0 0 0 2 2 4 4 0 0 0-2 3c-3 0-4 2-4 3a8 8 0 0 1-1 1 10 10 0 0 1-3 0h-1a7 7 0 0 0-3-2 4 4 0 0 0-3 1 5 5 0 0 0-2 3 4 4 0 0 0-1 1 7 7 0 0 0-1 4 7 7 0 0 1 0 2 4 4 0 0 1-1 3 11 11 0 0 0-2 2 6 6 0 0 1-1 2h-1c-3 3-5 5-5 7a5 5 0 0 0 5 5l2 1h1a5 5 0 0 1 1 2l1 2 1 1a6 6 0 0 1-1 1 6 6 0 0 0 0 3c0 4 2 5 3 5h1l-1 3v1a5 5 0 0 0 0 5 13 13 0 0 0 2 1 11 11 0 0 1 0 1 11 11 0 0 0 3 4l1 1 2 3 2 5h1l-3 3-3 4-1-1h-1a17 17 0 0 1-2-2 68 68 0 0 1-5-5 9 9 0 0 0-4-3 24 24 0 0 0-5-1 31 31 0 0 1-5-2h-2a6 6 0 0 0-2-6 14 14 0 0 0-5-3 18 18 0 0 0-6-1h-2a4 4 0 0 1-2-1 7 7 0 0 0-3 0 7 7 0 0 0-4 2 10 10 0 0 1-1 0 2 2 0 0 1-1 0 8 8 0 0 0-5-4 18 18 0 0 0-4-1 7 7 0 0 1-2-1 22 22 0 0 1-2-2l-6-2h-12c-3 0-5-1-7-3l-2-1a9 9 0 0 0-4-2 7 7 0 0 0-2 1 2 2 0 0 1-1 0h-1a18 18 0 0 0-3-1 8 8 0 0 0-4 1 7 7 0 0 0-1 1l-5-4-4-3-2-2-2-2h-1a8 8 0 0 0-6-3 14 14 0 0 1-3 0 18 18 0 0 1-2-3 6 6 0 0 0-5-3 17 17 0 0 0-2 0h-1a15 15 0 0 0-4-4 5 5 0 0 0-2-1 5 5 0 0 1 1 0 7 7 0 0 0 4 1 3 3 0 0 1 1 0 5 5 0 0 0 2 1 4 4 0 0 0 4-3 4 4 0 0 0 0-4 7 7 0 0 0-1-2 5 5 0 0 0 2-2 4 4 0 0 0 1 0 4 4 0 0 0 4-3h1a5 5 0 0 0 1 1 3 3 0 0 0 4-4c0-3-4-5-5-5a10 10 0 0 1-2-1l-1-1h2a4 4 0 0 0 3-1 3 3 0 0 0 2-2 55 55 0 0 0 5-3h1c2-1 5-2 4-6 0-3-2-4-5-4h-1a7 7 0 0 0-4 1h-1a7 7 0 0 0-2-1l1-2a5 5 0 0 1 2-1 20 20 0 0 1 4-1h7c4 0 5-2 6-4a13 13 0 0 0 3-7 8 8 0 0 0-1-4 7 7 0 0 0-1-2 5 5 0 0 0 2-2 5 5 0 0 0 0-4l-1-1a7 7 0 0 0 4-4 14 14 0 0 0 0-3 9 9 0 0 0-2-5 5 5 0 0 0-4-3 9 9 0 0 0-2 1h-1l-1-1a9 9 0 0 0-5-3 10 10 0 0 0-2-1h-1a5 5 0 0 1-2 0 7 7 0 0 1-1-1 10 10 0 0 0-5-2h-1a13 13 0 0 0-3 1 6 6 0 0 1-2 0l-1-1a13 13 0 0 0-2-2 14 14 0 0 1-1-1c-1-2-3-4-7-4a24 24 0 0 0-6 1 21 21 0 0 1-5 1 4 4 0 0 1-2 0 10 10 0 0 0-3-2 8 8 0 0 0-1 0 11 11 0 0 0-3 1 7 7 0 0 1-1 0 11 11 0 0 0-1-4 3 3 0 0 1 0-1 12 12 0 0 0-1-4 8 8 0 0 0-4-5 12 12 0 0 0-5-1h-2a23 23 0 0 1-3 0 10 10 0 0 0-1-3 10 10 0 0 0 1-1 5 5 0 0 0 1-3 5 5 0 0 0-2-4l-1-1-1-1v-1a8 8 0 0 0-2-3 11 11 0 0 0-3-2l-1-1a15 15 0 0 0-4-1 7 7 0 0 0-1-1 8 8 0 0 0-2 1h-1a16 16 0 0 1-5 1h-4a10 10 0 0 0-8 4l-1 1v-1a17 17 0 0 1-3-2 15 15 0 0 0 1-3 11 11 0 0 0-2-7h1a29 29 0 0 0 4 1 12 12 0 0 0 3-1 17 17 0 0 0 6-3l3-6a5 5 0 0 0-4-5 5 5 0 0 0-3-4 13 13 0 0 0-4-1h-1v-1c0-4-4-6-6-7a27 27 0 0 1-3-2 7 7 0 0 0 0-4 6 6 0 0 0-3-4 4 4 0 0 0 0-1c1-2 0-4-1-5l-1-1a7 7 0 0 0 2-4c0-3-3-6-7-8a12 12 0 0 0-6-2h-1a12 12 0 0 0-4 1 7 7 0 0 1-3 0 2 2 0 0 1-1 0 19 19 0 0 0-4-3 8 8 0 0 0-4-1h-2a12 12 0 0 1-4 0l-2-2v-1a12 12 0 0 1 0-2 22 22 0 0 0-1-3 10 10 0 0 1 0-1 9 9 0 0 0-2-4 11 11 0 0 0-3-3 10 10 0 0 0 0-1 1 1 0 0 1 0-1 6 6 0 0 0 1-1 6 6 0 0 0 0-4 6 6 0 0 0-2-3l-1-1a7 7 0 0 1-2-1v-1h1c1 0 4-2 4-5l-2-5-3-4 1-8a20 20 0 0 1 2-3c3-3 5-5 5-8a12 12 0 0 0 0-5 9 9 0 0 0-1-1 5 5 0 0 0 1 0 11 11 0 0 0 4-2 11 11 0 0 0 4 1 5 5 0 0 0 2 0 6 6 0 0 0 2-3h1a12 12 0 0 0 2-1 19 19 0 0 1 3 0 7 7 0 0 1 1 1 6 6 0 0 0 2 1 4 4 0 0 0 1 0 6 6 0 0 0 5-2c2-3-1-6-2-6a8 8 0 0 0-3-2 12 12 0 0 1-2 0 15 15 0 0 0-2-1 4 4 0 0 1-2-1 16 16 0 0 0-6-2 3 3 0 0 1-2-1 4 4 0 0 0 0-1v-1a5 5 0 0 0 0-4 4 4 0 0 0-1-1l9-7 5-5 2-1a4 4 0 0 1-1 2 4 4 0 0 0-2 2 4 4 0 0 0 0 5c1 2 4 3 6 4 1 0 2 0 3 3v1c1 3 2 5 5 7l1 4v1c1 2 1 6 5 6h2c4 0 6-3 6-5a7 7 0 0 1 0-3 7 7 0 0 1 4 1 9 9 0 0 0 5 2 5 5 0 0 0 5-4 7 7 0 0 0 0-3 5 5 0 0 0 3-2c1-3 2-5-1-9l-3-4c-1-3-4-5-6-6a34 34 0 0 1-3-1l-4-3-5-4a7 7 0 0 1-2 0 7 7 0 0 0-5-2 7 7 0 0 0-6 3 4 4 0 0 1 0 1h-2a6 6 0 0 0-1 0l3-3 14-15a34 34 0 0 0 2-4c2-3 2-6 1-8a17 17 0 0 0-3-4 24 24 0 0 0-5-4l-1-1-9-5 1-1v-1c3-2 5-5 5-8l-5-5a13 13 0 0 1-1-2 3 3 0 0 1 0-1 8 8 0 0 0 0-4 5 5 0 0 0-3-4 11 11 0 0 0-2-1h-1a5 5 0 0 0 1-5 6 6 0 0 0-2-2 5 5 0 0 0 1-3 15 15 0 0 1 0-2 5 5 0 0 0 5-2 6 6 0 0 0 0-6 30 30 0 0 0-2-4l-2-4c-1-4-3-8-6-11a47 47 0 0 1-2-4 6 6 0 0 1-1-2l1-2 1-2a38 38 0 0 1 3-4c4-4 6-7 6-10l-4-5-1-2a12 12 0 0 1-2-2 9 9 0 0 0-5-4 24 24 0 0 0-4-1 8 8 0 0 1-3-1v-2l-1-1 1-2a13 13 0 0 0 1-4 7 7 0 0 0-1-2h2a9 9 0 0 0 4-3 28 28 0 0 0 2-3l2-2a12 12 0 0 1 2 0l2-1a10 10 0 0 0 5-2 8 8 0 0 0 2-4l2 1a8 8 0 0 0 3 1h1a8 8 0 0 0 3-1 5 5 0 0 0 3-4 5 5 0 0 0 0-1v-1a7 7 0 0 0 3 1 6 6 0 0 0 3 0 4 4 0 0 1 1-1 5 5 0 0 0 1 0 5 5 0 0 0 0 4 5 5 0 0 0 4 3 3 3 0 0 1 1 1 5 5 0 0 0 4 2 6 6 0 0 0 1-1 4 4 0 0 1 1 0 5 5 0 0 0 3 2h1a5 5 0 0 0-2 4 4 4 0 0 0 1 3 4 4 0 0 0 2 1 4 4 0 0 0 4-2h1c2 0 4-1 5-3a14 14 0 0 0 0-2h1l2 1 1-2h3l3 1a124 124 0 0 0 10 0 20 20 0 0 1 9 3 61 61 0 0 0 8 4l8 4a33 33 0 0 0 7 2 9 9 0 0 1 3 1 9 9 0 0 1 2 2 12 12 0 0 0 5 5l1 1a31 31 0 0 0 11 4 16 16 0 0 1 5 1 9 9 0 0 0 3 1l2 1 1 1a11 11 0 0 0 6 5 14 14 0 0 0 5 1v1a9 9 0 0 0 1 4 5 5 0 0 0 2 2 5 5 0 0 0 3 5 1 1 0 0 1 0 1l-4 3v1a14 14 0 0 0-3 3 22 22 0 0 1-4 4 12 12 0 0 1-4 3l-4 1-1 1a28 28 0 0 1-7 2l-2 1a21 21 0 0 1-6 1 22 22 0 0 1-2 0 29 29 0 0 1-7-2 45 45 0 0 0-8-2 57 57 0 0 1-12-3h-2c-6-2-11-4-17-4h-5a4 4 0 0 0-1-2c-2-1-3-3-6-3a5 5 0 0 0-1 0 4 4 0 0 0-2 2 7 7 0 0 1-3 0 10 10 0 0 0-2-1l-2-1-2-1-3-2-1-1a3 3 0 0 0 0-2c-1-1-2-2-7-2a20 20 0 0 1-5-1 11 11 0 0 0-3 0 3 3 0 0 0-3 2 4 4 0 0 0 0 3 5 5 0 0 0 3 2l3 1h1a4 4 0 0 0 0 3l5 2 1 1a6 6 0 0 0 1 1 5 5 0 0 0 1 1 4 4 0 0 0 3 4 11 11 0 0 0 3 1 3 3 0 0 0-1 1c1 3 3 4 7 5a23 23 0 0 1 4 1 22 22 0 0 0 3 0 13 13 0 0 1 2 1 40 40 0 0 1 3 3 4 4 0 0 0-2 2 14 14 0 0 0 0 4v2a4 4 0 0 0-3 2 4 4 0 0 0 1 5h1a8 8 0 0 0 1 1v1a6 6 0 0 0 1 4 21 21 0 0 0 2 2 4 4 0 0 0 0 1 8 8 0 0 0-1 3 6 6 0 0 0 1 5 10 10 0 0 0 5 3 26 26 0 0 0 6 2 23 23 0 0 0 2 0 2 2 0 0 1 2 0l4 4a20 20 0 0 0 5 3v1a10 10 0 0 0 4 1l2 1h3a14 14 0 0 1 2 1 6 6 0 0 0 3 1 6 6 0 0 0 3-1 14 14 0 0 0 2-2 12 12 0 0 1 1-1h1a6 6 0 0 0 4-3 7 7 0 0 0 1-5 9 9 0 0 0-3-5 6 6 0 0 1-1-1 3 3 0 0 0 1 0 4 4 0 0 0 3-2h2a48 48 0 0 1 6 1 44 44 0 0 0 6 1h2a38 38 0 0 0 7 1l6 1a5 5 0 0 0 2-1 3 3 0 0 0 2-2c1-1 0-5-1-6v-1a19 19 0 0 0-3-5v-1l-6-6a9 9 0 0 1-1-2 3 3 0 0 1 2-1 35 35 0 0 0 3-2l2-2 2-1 5-3a37 37 0 0 1 5-2 42 42 0 0 0 4-2h1a10 10 0 0 0 4-3l1-1 1-1 2-2a4 4 0 0 1 1 0l7 1h4a4 4 0 0 1 2 1 5 5 0 0 0 0 1 4 4 0 0 0-2 3c0 2 1 5 4 6 3 0 4-3 4-3v-1a4 4 0 0 1 1 0 4 4 0 0 1 0 1 8 8 0 0 0 2 2 4 4 0 0 0 3 2 3 3 0 0 0 2-1 4 4 0 0 0 1-2 9 9 0 0 0 0-3l-1-1v-1a5 5 0 0 1 0-1 8 8 0 0 1 0-2 22 22 0 0 1 2-3 20 20 0 0 0 3-4l1-7a11 11 0 0 0-4-7 13 13 0 0 0-3-2 9 9 0 0 1-2 0 12 12 0 0 1-1-1 8 8 0 0 1 1-2v-2a21 21 0 0 0 2-4l1-2a14 14 0 0 1 0-2v-1l1-1a6 6 0 0 0 2-2c1-3-1-7-1-7a9 9 0 0 0-4-3l-1-1h1l4 1h2l9 1a14 14 0 0 1 2 0 42 42 0 0 0 5 1l4 5 2 1 2 1a8 8 0 0 1 1 2v1h-2a16 16 0 0 0-2 0h-3l-1 1h-2a10 10 0 0 0-4 0 6 6 0 0 0-3 4l-1 1a6 6 0 0 0-5 5 6 6 0 0 0 3 5l1 1a27 27 0 0 1 3 2 18 18 0 0 1 4 3v2a10 10 0 0 0 3 3l4 1h3a3 3 0 0 0 0 1 4 4 0 0 0 3 1 6 6 0 0 0 4-1 12 12 0 0 1 2-2 11 11 0 0 1 3 0h1a7 7 0 0 1 1 0 9 9 0 0 0 2 0 6 6 0 0 0 3 0c2-1 3-3 3-5h1a6 6 0 0 0 0-3l-1-1v-1l1-1a11 11 0 0 1 1-2 4 4 0 0 0 1-5 26 26 0 0 1 4 0h1a19 19 0 0 1 2 0 19 19 0 0 0 4 1c1 0 3 0 4-2a3 3 0 0 0-1-4 24 24 0 0 0 4-1h1a41 41 0 0 0 8-4l8-5a5 5 0 0 1 3-1l4-1h2a7 7 0 0 0 4-2 7 7 0 0 0 1-1 4 4 0 0 1 1 0 12 12 0 0 1 2-1 4 4 0 0 0 2 1 3 3 0 0 0 1 1 4 4 0 0 0 0 2 3 3 0 0 0 3 1l5-3c1 0 4-2 2-5a5 5 0 0 0-1-1l2-1h1l2-1a9 9 0 0 1 2-2h1a22 22 0 0 1 4-1c-2 2-2 4-1 6a10 10 0 0 0 0 1 5 5 0 0 0-3 2 3 3 0 0 0-1 3c0 2 3 4 6 5a11 11 0 0 0 2 0 8 8 0 0 0 3-1 5 5 0 0 0 1 1 7 7 0 0 0 3-1 5 5 0 0 1 1 0 4 4 0 0 0 4 2 6 6 0 0 0 2-1 5 5 0 0 0 3-2 7 7 0 0 1 0-1 6 6 0 0 1 3-2l1-1a51 51 0 0 0 6-3 4 4 0 0 1 2-1h2a68 68 0 0 1 8 1h1a16 16 0 0 0 5 1 10 10 0 0 0 2-1 9 9 0 0 0 5-2l1-1a10 10 0 0 1 3-3 5 5 0 0 0 1 0c1 1 2 3 5 3a4 4 0 0 0 2-2 6 6 0 0 0 2-2 1 1 0 0 1 0-1 4 4 0 0 1 2-1 5 5 0 0 0 2 2 4 4 0 0 0-2 4l-1 1 1 5a6 6 0 0 0 4 2h2a8 8 0 0 1 2 1 6 6 0 0 0 3 0 7 7 0 0 0 2-1c2 0 6-2 5-6a5 5 0 0 0-1-2l2-1a9 9 0 0 0 3-1 14 14 0 0 1 2-1 7 7 0 0 1 2 0 5 5 0 0 0 4-3c2-3 1-8-1-9a4 4 0 0 0-2-1 4 4 0 0 0-1 0 10 10 0 0 0 0-1 14 14 0 0 0-3-4l-1-2a9 9 0 0 0 4-1 11 11 0 0 1 1-1 12 12 0 0 0 2-1l1-1a12 12 0 0 0 2 0 27 27 0 0 1 3 1l12 1a88 88 0 0 1 10 1l3 1a41 41 0 0 1 5 1l10 4 3 1 3 2a17 17 0 0 0 5 2 14 14 0 0 1 3 1 8 8 0 0 0 3 1 9 9 0 0 1 1 1 22 22 0 0 0 8 4l8 2h1a6 6 0 0 1 3 2l1 1 6 5 3 3a12 12 0 0 1 2 2 7 7 0 0 0 3 2 4 4 0 0 0 1 0c3 0 5-1 6-3a5 5 0 0 0 1-2v-1l1-1a25 25 0 0 0 2-3 32 32 0 0 0 3-5c1-2 2-4 0-6a4 4 0 0 0-3-1 21 21 0 0 0-2 0h-3a16 16 0 0 1-2-1v-1l-2-2a7 7 0 0 1-1-2 5 5 0 0 1 0-2c0-1 0-5-2-6a3 3 0 0 0-2 0 4 4 0 0 0-1 0 20 20 0 0 1-4-1h-1l-6-3h-1v-2a4 4 0 0 0 1 0c2 0 5-2 5-4l-2-5v-1l1-1a10 10 0 0 0 1-4v-2a13 13 0 0 0 0-4 6 6 0 0 0-2-3v-1a5 5 0 0 0-4-1 5 5 0 0 0-1 0h-1a4 4 0 0 0 1-3 4 4 0 0 0-1-1 6 6 0 0 1 1-1 10 10 0 0 1 2-2h1a51 51 0 0 0 7-3l1-1c6-3 9-4 10-6a46 46 0 0 0 3-7 35 35 0 0 0 2-4l1-6a33 33 0 0 0 1-3 16 16 0 0 1 1-4 21 21 0 0 0 2-4 22 22 0 0 1 2-2 11 11 0 0 0 1-1 4 4 0 0 0 2 1 15 15 0 0 0 5 1h1l6-1h7a22 22 0 0 0 4 0 12 12 0 0 1 1 0 11 11 0 0 1 2 0 9 9 0 0 0 2 0 10 10 0 0 0 5 2h1a3 3 0 0 1 2 1 12 12 0 0 0 2 0 3 3 0 0 1 1 1h1l1 1a6 6 0 0 1 0 2 8 8 0 0 0 0 4 2 2 0 0 1 0 1 19 19 0 0 1-1 2l-1 1a42 42 0 0 0-3 4l-1 2a10 10 0 0 0-2 5 3 3 0 0 1-1 2 7 7 0 0 0-3 2c-2 2-2 4-1 6a18 18 0 0 0 2 3l1 1a11 11 0 0 0 4 3 20 20 0 0 0 2 1 11 11 0 0 1 1 0 5 5 0 0 1 1 1 7 7 0 0 0 1 3l1 1v1a10 10 0 0 0-1 4 17 17 0 0 0 0 5 7 7 0 0 0-1 0 3 3 0 0 1 0 1 4 4 0 0 0-2 3 8 8 0 0 0 0 3h1a11 11 0 0 1 0 2 4 4 0 0 0-1 2 7 7 0 0 0 2 4v1a13 13 0 0 0-1 2 12 12 0 0 0-1 6 30 30 0 0 1 1 3 14 14 0 0 1 0 3 3 3 0 0 1 0 1 17 17 0 0 0-1 1l1 6a3 3 0 0 1 0 1c1 1 2 3 5 4a12 12 0 0 1 3 1 23 23 0 0 0 3 2 13 13 0 0 1 2 2 8 8 0 0 1-1 2l-2 1c-2 1-4 3-4 5a7 7 0 0 0 1 3l1 1a4 4 0 0 1-1 1 5 5 0 0 0-1 3v2l-3 1a24 24 0 0 0-5 5 8 8 0 0 0-2 3 2 2 0 0 1 0 1 10 10 0 0 1-2 2l-2 1a17 17 0 0 0-2 2l-2 2-9 2h-1a15 15 0 0 0-3 2h-1a10 10 0 0 1-3-1v-1a9 9 0 0 0-4-2h-1a8 8 0 0 0-2 0 14 14 0 0 0-4 1 8 8 0 0 1-2 0h-2a6 6 0 0 0-3 0 4 4 0 0 0-2 3c-1 2 1 4 2 5 1 2 6 4 7 4l3 1a12 12 0 0 1 3 1 8 8 0 0 0 6 2h1l2 1a16 16 0 0 0 4-1 21 21 0 0 1 5 0 14 14 0 0 1 2 0h1a22 22 0 0 0 4 2 13 13 0 0 0 4 1 7 7 0 0 0 3-1 7 7 0 0 0 4-6 1 1 0 0 1 0-1 20 20 0 0 0 5-1l3-2 2-1 2-1 6-3a9 9 0 0 0 2-5l1-2a19 19 0 0 1 0-3l3-2a29 29 0 0 0 5-4 15 15 0 0 0 4-9v-1c0-2 1-4-1-6a21 21 0 0 0-4-4v-1a9 9 0 0 0 1-4 9 9 0 0 1 0-1 3 3 0 0 1 2-1h2l9-3a26 26 0 0 1 6-1h1a24 24 0 0 1 4-1 3 3 0 0 1 1 1v1a13 13 0 0 0 5 5 22 22 0 0 0 2 2h1-1a4 4 0 0 0 0 5 5 5 0 0 0 1 1 5 5 0 0 0-1 3v3a4 4 0 0 0-1 3c-1 3 2 5 4 6a5 5 0 0 1 1 1l1 1a8 8 0 0 0 5 2h16a3 3 0 0 0 3-3c0-3-2-4-5-5a6 6 0 0 0-1 0 4 4 0 0 0-3-2 4 4 0 0 0-1 0 7 7 0 0 0-2 1h-1a9 9 0 0 0-2-1 4 4 0 0 0-3-2 2 2 0 0 0-1 0 4 4 0 0 0-1 1 16 16 0 0 1 1-2v-2a9 9 0 0 1 1-1h1a7 7 0 0 0 4-1s3-2 1-5a11 11 0 0 0-3-4l-1-2a5 5 0 0 1-1-2 8 8 0 0 0-1-3v-1a5 5 0 0 0-3-4 6 6 0 0 0-3-1h-1l-1-1a17 17 0 0 1-2 0l-1-1a15 15 0 0 0-3-2 10 10 0 0 0-2-1h-2l-3-1a8 8 0 0 1-1-1 7 7 0 0 0-4 0l-2-1h-2a9 9 0 0 0-2 1c-2 0-4 1-5 3a1 1 0 0 1-2 0l-2 1h-1a3 3 0 0 1-1-1 8 8 0 0 0-3-1 9 9 0 0 0-1 0 8 8 0 0 0-3 1h-1a12 12 0 0 1-2 1v-1a16 16 0 0 1 1-1 5 5 0 0 1 0-1 5 5 0 0 0 1-3 6 6 0 0 0-3-6 2 2 0 0 1-1-3 11 11 0 0 0 2-5 16 16 0 0 0 0-2 2 2 0 0 1 0-1 13 13 0 0 0 2-3l1-1a10 10 0 0 1 1-1 8 8 0 0 0 3-4 8 8 0 0 0 0-7 8 8 0 0 0-2-1 15 15 0 0 1-2-2 4 4 0 0 1-1-1 10 10 0 0 0 0-2 15 15 0 0 0-4-5v-1a21 21 0 0 0-5-4l-1-1a4 4 0 0 1 1 0 7 7 0 0 0 4-4 8 8 0 0 0 0-3 2 2 0 0 1 1-1l3-1h1a34 34 0 0 0 8-3 20 20 0 0 1 2-1 9 9 0 0 0 5-3 9 9 0 0 0 2-6 9 9 0 0 0-1-2 4 4 0 0 1 0-2v-1l1 1a3 3 0 0 1 1 1 7 7 0 0 0 1 3v1a13 13 0 0 0-1 1 9 9 0 0 0-2 5 10 10 0 0 0-2 2c-1 2-2 5-1 7a7 7 0 0 0 2 1v1a5 5 0 0 0 0 1 11 11 0 0 0 1 2 5 5 0 0 0-2 2 4 4 0 0 0 0 4c1 0 2 2 8 3a5 5 0 0 1 1 0 8 8 0 0 0 3 1l3 1h6a4 4 0 0 0 3 3 4 4 0 0 0 4-2 5 5 0 0 1 2-1 5 5 0 0 1 1 0 22 22 0 0 0 2 1h1a1 1 0 0 1 1 0 6 6 0 0 0 1 3 12 12 0 0 0 3 1v1h1a8 8 0 0 0 4 1h1l1 1a8 8 0 0 0 2-1 8 8 0 0 1 1 0 7 7 0 0 0 3-1 4 4 0 0 0 3-3 3 3 0 0 0-1-3 4 4 0 0 0-3-1 11 11 0 0 0-2 0 4 4 0 0 0-3-1 5 5 0 0 0 0-2 5 5 0 0 0-4-3 4 4 0 0 0-4-2 4 4 0 0 0-2 1 14 14 0 0 1-5-1 18 18 0 0 1-1-1 12 12 0 0 0-6-3h-1l-2-1a11 11 0 0 1-2 0 11 11 0 0 1-2-3 12 12 0 0 0-1-2h1a8 8 0 0 0 3 0v-1a8 8 0 0 1 3 0h2a2 2 0 0 1 1 0 4 4 0 0 1 1 0 12 12 0 0 0 3 2 11 11 0 0 0 5 1 20 20 0 0 0 2 0h2c1 0 4 0 5-4 0-5-2-7-3-8a13 13 0 0 0 1 0 18 18 0 0 1 3-1 8 8 0 0 1 1 0 14 14 0 0 1 3 0l2 1 3 1h3l1 1a34 34 0 0 0 5 1h2l5 1 3 1a19 19 0 0 1 3 1l2 2 3 2 2 2a25 25 0 0 0 4 2l1 1a9 9 0 0 0 4 1 8 8 0 0 0 3 0l1-1a6 6 0 0 1 2 0h4c3 0 4-1 4-3 1-2 1-4-1-6l-1-1-4-3a7 7 0 0 0-1-5c-2-2-5-3-7-3a2 2 0 0 1-1 0 10 10 0 0 0-3-1h-3a4 4 0 0 1-2-1h-2l-1-1a5 5 0 0 0 0-2 5 5 0 0 0-1-2 8 8 0 0 0 1-1 2 2 0 0 1 0-1 5 5 0 0 0 1-4 8 8 0 0 0-5-6v-1h-1a3 3 0 0 0 1-2 3 3 0 0 0-1-1 5 5 0 0 0 2-2 4 4 0 0 0 0-2 46 46 0 0 1 5 0h1a47 47 0 0 0 6-1h4l4-1h2a237 237 0 0 0 29-2 164 164 0 0 0 15-1l8-1h7l7-1v-1a3 3 0 0 0 3-2 3 3 0 0 0-1-3 3 3 0 0 0 1-2c0-3-3-3-5-4a6 6 0 0 0 3-3v-1a4 4 0 0 0 0-4 4 4 0 0 0-2-1 3 3 0 0 0 1-2 4 4 0 0 0-1-2l1-1 1-1 4-4v-1a4 4 0 0 0 1-2h2a8 8 0 0 0 5-1l2-1 6-4 10-5a47 47 0 0 1 8-1l8-2a79 79 0 0 1 9-2 94 94 0 0 0 10-1 155 155 0 0 1 15-3l5-1a45 45 0 0 1 4-1c3 0 7 0 7-3v-1l1 1h7a48 48 0 0 1 6 0l2 1a4 4 0 0 0 4 4l6-3 1-1a4 4 0 0 0 3 3 4 4 0 0 0 3-1 16 16 0 0 0 1-1 19 19 0 0 1 2-1 5 5 0 0 1 2-1 4 4 0 0 0 2 2 4 4 0 0 0 1 0c2 0 4-1 5-3h1a15 15 0 0 1 6-3 38 38 0 0 0 6-2 15 15 0 0 1 2 0 7 7 0 0 1 2 0l1 1a16 16 0 0 1 4 2l6 3a4 4 0 0 0 4-2c1-2 0-5-2-7a16 16 0 0 0-3-3h2l8-1a11 11 0 0 1 1 0h5a10 10 0 0 0 3 1h6a6 6 0 0 1 2 0l2 1a17 17 0 0 0 5 1 4 4 0 0 0 4-2 3 3 0 0 0-1-3c0-2-2-2-3-2a15 15 0 0 1-3-1l-1-1a10 10 0 0 0-5-1h-2a5 5 0 0 0 1-4 4 4 0 0 0-3-3l-1-1a7 7 0 0 1 2-2 26 26 0 0 0 4-2l1-2a23 23 0 0 1 3-1 19 19 0 0 0 2-2 4 4 0 0 0 2-3l2-1 1-1 2-1 6-2a95 95 0 0 1 10-3h3a15 15 0 0 1 3-1M94 493c-2 2-1 4 0 6a6 6 0 0 0 1 2 4 4 0 0 0-1 3 5 5 0 0 0-3-1 3 3 0 0 0-3 1 4 4 0 0 0-1 2 5 5 0 0 0 2 4 8 8 0 0 0 2 5l1 1a3 3 0 0 0-1 3l2 3 7 5c2 3 2 3 7 5h1a5 5 0 0 0-2 4 4 4 0 0 0 1 2 5 5 0 0 0 4 2h5l5-2a6 6 0 0 0 3-3 7 7 0 0 0 0-5 7 7 0 0 0 1-4 5 5 0 0 0-3-5 9 9 0 0 1-2-1l-1-1-1-1a6 6 0 0 0-2-5h-1l2-7c0-3-1-4-3-5a3 3 0 0 1 0-1l-6-2-3-1-2-1-2-1a12 12 0 0 1-2-2 3 3 0 0 0-5 1m985 200-1 1a12 12 0 0 1-4 2l-2 1a8 8 0 0 0-4 4 14 14 0 0 1-2 2c-2 3-4 4-8 5l-5 1a46 46 0 0 0-8 1c-2 1-6 3-6 6 0 1 1 3 4 4a32 32 0 0 0 9 2 29 29 0 0 0 6-1l18-6 5-9a17 17 0 0 1 2 0 16 16 0 0 0 3-1 23 23 0 0 0 8-5l5-2h1c3-1 5-2 7-6l5-5c3-1 5-3 4-5a3 3 0 0 0 1 0 4 4 0 0 0 3-2 19 19 0 0 0 3-10 11 11 0 0 0 0-3v-4l1-1 3-6v-2l2-13c0-3-2-5-5-5a6 6 0 0 0-4 2 6 6 0 0 1-2 1c-2 1-3 2-5 8l-2 7a11 11 0 0 1-2 5l-1 2-13 17a50 50 0 0 1-10 7l-1 1h-1c-2 1-4 2-4 6v1M550 151a9 9 0 0 0 2 1 14 14 0 0 0 5 1h3a6 6 0 0 1 1 0c0 1 1 4 3 5l-2 2-2 3-5 3h-1l-10 4a56 56 0 0 0-9 2l-18 5-16 5-5 1a540 540 0 0 1-23 5 13 13 0 0 0-5 3 11 11 0 0 0-3 2v1a2 2 0 0 0 0-1 4 4 0 0 0-3-1 5 5 0 0 0-3 1h-1a10 10 0 0 0-2 2v1a11 11 0 0 0-2 3l-1 1a4 4 0 0 1-2 0 11 11 0 0 0-1 0 4 4 0 0 0-2 2 4 4 0 0 0-1 3 8 8 0 0 0-3 4h-1v-1a6 6 0 0 0-4-1 5 5 0 0 0-2 1 3 3 0 0 0-2 2l-1-1a5 5 0 0 0-2 0 3 3 0 0 0-2 1 4 4 0 0 0-1 3 3 3 0 0 1 0 1v1h-1l-2-1a6 6 0 0 1-2-1 5 5 0 0 0-3-1 5 5 0 0 0-4 2 3 3 0 0 0-1 3l5 4a3 3 0 0 1 0 1h1v1a11 11 0 0 0-2 0 4 4 0 0 0-3 1 4 4 0 0 0-1 3h-1a4 4 0 0 1-2-1 7 7 0 0 0-2-2 4 4 0 0 0-1-1c-3 0-5 3-5 6a4 4 0 0 0 0 3l-1-1a16 16 0 0 0-3 0h-1c-1 0 0 0 0 0h-1a4 4 0 0 0-4 1 4 4 0 0 0-1 4 4 4 0 0 0 3 3 4 4 0 0 0 0 4 4 4 0 0 0 1 2 4 4 0 0 0-1 2 10 10 0 0 1-3 0 2 2 0 0 1 0-1 6 6 0 0 0-5-3 5 5 0 0 0-1 0 4 4 0 0 0-3 2h-1a21 21 0 0 0-2 0 4 4 0 0 1-2-1h-1a9 9 0 0 0-2-1h1a10 10 0 0 0 1 0 6 6 0 0 0 4-3 3 3 0 0 0 1-3 3 3 0 0 0-4-2 12 12 0 0 0-3 1 11 11 0 0 1-2 0 24 24 0 0 0-3 0 9 9 0 0 1-2 0 5 5 0 0 1-1 0 3 3 0 0 1 1 0 6 6 0 0 0 1 0 5 5 0 0 0 4-2 4 4 0 0 0 0-2l1-1a15 15 0 0 0 2-1h1a13 13 0 0 0 2 1 8 8 0 0 1 1 0 11 11 0 0 0 3 1 9 9 0 0 0 1 0c1 0 3 0 5-2a3 3 0 0 0 0-3 3 3 0 0 0-2-2 3 3 0 0 0 1-3 11 11 0 0 1 1 0 17 17 0 0 0 2 0 4 4 0 0 0 4-3 4 4 0 0 0-1-3 19 19 0 0 0 2 0 18 18 0 0 0 3 1 5 5 0 0 0 4-2 3 3 0 0 0 0-3c0-2-3-3-4-3h-1a3 3 0 0 0 2-3 4 4 0 0 0-1-2 3 3 0 0 0 1-2l1-1a4 4 0 0 0 3-4 19 19 0 0 1 3 1 6 6 0 0 0 3 1 6 6 0 0 0 2 0v-1a4 4 0 0 0 3-2 4 4 0 0 0-1-3v-1h1l5-1a4 4 0 0 0 0-4h2l2-1a19 19 0 0 0 4-1 25 25 0 0 0 4-2l1-1a15 15 0 0 1 5-1h5a7 7 0 0 0 3 0 4 4 0 0 0 2-2 4 4 0 0 0 0-1 8 8 0 0 0 2 1 5 5 0 0 0 2 0 11 11 0 0 0 4-1 14 14 0 0 1 2-1 4 4 0 0 0 3-2 4 4 0 0 0 0-3l3-1 3 1a4 4 0 0 0 3 2 5 5 0 0 0 1-1 1 1 0 0 1 1 0 4 4 0 0 1 1 1 7 7 0 0 0 2 0 7 7 0 0 0 2 0h1a7 7 0 0 1 3-1 2 2 0 0 1 1 0 6 6 0 0 0 2 1 5 5 0 0 0 2 0 10 10 0 0 0 3-2 19 19 0 0 1 3-2 11 11 0 0 0 3 1 13 13 0 0 0 3 1l5-2a6 6 0 0 1 0-1 12 12 0 0 0 3-1 6 6 0 0 1 2 0 9 9 0 0 0 3-1 21 21 0 0 0 5-3 5 5 0 0 1 1 0 8 8 0 0 0 2 0 10 10 0 0 1 3 1 5 5 0 0 0 3 0 4 4 0 0 0 3-3l1-1-1-1a8 8 0 0 1-1-2 18 18 0 0 0 1-2 10 10 0 0 1 2 0l2-1h2a33 33 0 0 0 7-2 44 44 0 0 1 6-2 5 5 0 0 1 1 0m975 25 2 2a15 15 0 0 1 2 2 10 10 0 0 0 4 3l1 1a7 7 0 0 0 5 1 24 24 0 0 1 4 0 2 2 0 0 1 0 1 4 4 0 0 0 4 3 11 11 0 0 0 3 1h1a3 3 0 0 0 3-2 4 4 0 0 0 0-3 6 6 0 0 0-1-2 9 9 0 0 0-1-1 6 6 0 0 0 1-2 8 8 0 0 0 4 1 4 4 0 0 0 4-2 4 4 0 0 0 0-2 28 28 0 0 0 6 3 28 28 0 0 0 6 1 20 20 0 0 1 3 0 28 28 0 0 0 3 0 18 18 0 0 1 6 2 53 53 0 0 0 8 3l4 1a27 27 0 0 1 5 1v1a4 4 0 0 0-2 3 6 6 0 0 0 0 3 5 5 0 0 0-2 3v1a10 10 0 0 0-2 1h-1a6 6 0 0 1-3 0 8 8 0 0 1-3 0 31 31 0 0 0-6-2 16 16 0 0 1-3 0l-3-4-1-1h1c1 0 4 0 5-2a8 8 0 0 0-1-7 4 4 0 0 0-4-2h-6a5 5 0 0 0-3 2 7 7 0 0 1-1 0 7 7 0 0 0-3 3 6 6 0 0 0 1 7 5 5 0 0 1 1 2 10 10 0 0 0 1 3 8 8 0 0 0 4 3h1a26 26 0 0 0 2 2h1a6 6 0 0 0-2 2 2 2 0 0 1-1 0v1l-1-1a3 3 0 0 0 0-3 7 7 0 0 0-6-3 6 6 0 0 0-2 0l-2 1-2 1a5 5 0 0 1-2 0 12 12 0 0 0-4 1 8 8 0 0 1-3 0 10 10 0 0 0-4 2 11 11 0 0 1-4 0 13 13 0 0 0-2 1 5 5 0 0 1 0-1 5 5 0 0 0-5-3h-3c-3 0-4 2-4 3a5 5 0 0 0 0 3 7 7 0 0 1-1 1l-2 1a7 7 0 0 1-2 0l-3-1-3-1a51 51 0 0 0-5-2h-2a11 11 0 0 1-4-3l-1-1a21 21 0 0 0-4-3v-1a4 4 0 0 0 3-1 4 4 0 0 0 1-3 4 4 0 0 0-2-3 4 4 0 0 0 1-2 4 4 0 0 0-1-2l3-3a9 9 0 0 0 0-3v-1a11 11 0 0 0 6-1 12 12 0 0 0 2-2 3 3 0 0 0 3 2 5 5 0 0 0 3-1 8 8 0 0 0 2-1l1-1a14 14 0 0 0 2 0m-45 11 1 1a7 7 0 0 0 0 2h-2v-1a3 3 0 0 1 0-1 6 6 0 0 0 1-1m146 6c-1 3 2 4 3 4a14 14 0 0 1 2 1 7 7 0 0 0 3 0 5 5 0 0 0 3-1h1l1-1h1a12 12 0 0 0 1-1h1a5 5 0 0 1 1 1 12 12 0 0 0 4 0 24 24 0 0 0 2 0 5 5 0 0 0 1 2 5 5 0 0 0 3 3 8 8 0 0 0 4 1 8 8 0 0 0 3-1 16 16 0 0 0 2-1 3 3 0 0 1 1 0 12 12 0 0 1 4 0 15 15 0 0 0 4 1h1a6 6 0 0 0 1-1 4 4 0 0 0 4 3 17 17 0 0 0 4 1 6 6 0 0 0-1 1h-1a19 19 0 0 0-3 0 20 20 0 0 0-4 2 9 9 0 0 1-1 1 10 10 0 0 1-3 0 44 44 0 0 1-6-1 22 22 0 0 0-3 0 6 6 0 0 0-3 0l-1 1a16 16 0 0 1-2-1 27 27 0 0 1-5-1l-1-1-2-1a35 35 0 0 0-5-2l-3-1a14 14 0 0 1-4-1 23 23 0 0 0-6-2l-1-1a9 9 0 0 0-1 0v-2a4 4 0 0 1 1-2m-466 27a4 4 0 0 1 1 1l4 1h1a5 5 0 0 0-2 3 7 7 0 0 1 0 1h-1v-1a11 11 0 0 0-5-1 12 12 0 0 1-2 0 4 4 0 0 0 1-1 6 6 0 0 0 1-2 5 5 0 0 0 1-1 1 1 0 0 1 1 0m385 7a10 10 0 0 1 3 0l1 1a5 5 0 0 0-4 2h-1a7 7 0 0 0-1-1 3 3 0 0 1 0-2h1a4 4 0 0 1 1 0m16 10a49 49 0 0 1 7 0l3 2 1 2a29 29 0 0 0 4 2l2 2a11 11 0 0 1 3 2l1 1v1h-3a25 25 0 0 1-6-1 36 36 0 0 0-9-1 10 10 0 0 1-6-2 19 19 0 0 0-3-1 13 13 0 0 1-2-1 8 8 0 0 0-3 0 10 10 0 0 0 1-3l2-1 2-1a15 15 0 0 1 5-1h1m-968 9a6 6 0 0 0 2 5 12 12 0 0 0-3 1h-1a3 3 0 0 1-2 1h-1a11 11 0 0 0-3-1 7 7 0 0 0-1 0 8 8 0 0 1 0-2 11 11 0 0 0 2 0l5-2v-1h1a1 1 0 0 1 1-1m-216 7a13 13 0 0 1 4 0h1a35 35 0 0 1 4 2 3 3 0 0 0 0 1h-1a4 4 0 0 0-2 2 3 3 0 0 0 0 1 3 3 0 0 0-3 4 5 5 0 0 0 0 2l-4 3a3 3 0 0 0 1 2 3 3 0 0 0-1 2 4 4 0 0 0 2 4v1a5 5 0 0 0 2 3 9 9 0 0 0 0 1 1 1 0 0 1-1 0 4 4 0 0 0-3 4c0 3 2 5 4 5a6 6 0 0 1 3 1 7 7 0 0 0 1 3l2 5v1c1 2 1 3 4 5a20 20 0 0 0 3 3 11 11 0 0 1 2 1l2 2a12 12 0 0 0 3 2 21 21 0 0 0 2 1 14 14 0 0 1-3-1 9 9 0 0 0-5-2 4 4 0 0 0-3 2 5 5 0 0 0-1 1 5 5 0 0 0-1 0 5 5 0 0 0-2 0 5 5 0 0 0-4-2 9 9 0 0 0-6 2 4 4 0 0 0-3-3h-1a12 12 0 0 0-4-1 4 4 0 0 0-3 1 3 3 0 0 0 0 1 20 20 0 0 0-5-1 4 4 0 0 0 1-1 5 5 0 0 0 1-6 4 4 0 0 0-3-2h1a5 5 0 0 0 2-3 4 4 0 0 0 0-3 4 4 0 0 0-4-2 5 5 0 0 0-3 1 4 4 0 0 0 0-2 4 4 0 0 0-3-2h-2l-6 2c0-3-2-3-3-4a5 5 0 0 0-4 2h-8v-4a17 17 0 0 0 0-2 11 11 0 0 1 2-3 22 22 0 0 0 3 2 9 9 0 0 0 3 1c1 0 4-1 5-4a10 10 0 0 0 0-3 5 5 0 0 0 3-1 6 6 0 0 0 1-3 6 6 0 0 1 0-1 5 5 0 0 0 4-4 4 4 0 0 0 0-4 3 3 0 0 0-2-1h-1l-2-1a11 11 0 0 1 2 0 10 10 0 0 0 3 0 4 4 0 0 0 3-2v-6a45 45 0 0 1 6-1 32 32 0 0 0 6-1h1a47 47 0 0 1 6 0h4m1720 44a6 6 0 0 1 3 1 7 7 0 0 0 4 1h2l2-1v1c1 3 4 4 6 5a9 9 0 0 0-1 0c-1 1-3 2-8 2a12 12 0 0 0-4 1 9 9 0 0 1-3 0 17 17 0 0 1-2 1 17 17 0 0 1-2-1h-2a15 15 0 0 1-2 0 21 21 0 0 0-6-1h-1a11 11 0 0 0-5 2 11 11 0 0 1-3 1 17 17 0 0 1-3 0 8 8 0 0 1-2 0 4 4 0 0 1 0-1 5 5 0 0 0 2-3v-1h4c3 0 5-1 5-3v-1a3 3 0 0 1 1 0l3-1h5a14 14 0 0 0 6-1l1-1a2 2 0 0 1 1 0M432 325a8 8 0 0 0 6 5 14 14 0 0 0 1 0l2 1 1 1a9 9 0 0 0 3 2 9 9 0 0 0 1 1 14 14 0 0 0-2 1h-1a7 7 0 0 0-4-2 7 7 0 0 0-2 0 9 9 0 0 1-2-1 6 6 0 0 0-4-1 4 4 0 0 0-1 0 7 7 0 0 0-2-2 4 4 0 0 0 2-1 4 4 0 0 0 0-4 6 6 0 0 0 1 0h1m1497 11v1a10 10 0 0 0 7 2 5 5 0 0 0-1 2 4 4 0 0 1-2 0 5 5 0 0 1-1 0 4 4 0 0 1-2-1c-1-2-2-2-4-2l-2-1h1v-1a4 4 0 0 0 1 1 10 10 0 0 0 2-1 9 9 0 0 1 1 0M296 348a21 21 0 0 1 2 0l2 1 3 2a8 8 0 0 0 1 2l-3 4v1h-1a11 11 0 0 0-2 0 7 7 0 0 0-4 3 2 2 0 0 1-2-1 6 6 0 0 0-4-2 6 6 0 0 1-1 0 12 12 0 0 0 0-2 7 7 0 0 1 1-4 5 5 0 0 1 3-2v-1a10 10 0 0 0 4-1h1M131 448a8 8 0 0 1 1 1l3 1 2 1 4 2h1a5 5 0 0 0-1 4 4 4 0 0 0 1 2 4 4 0 0 0-1 0 5 5 0 0 0-4 2 3 3 0 0 1-1 0l-1-1a15 15 0 0 0-3-3 19 19 0 0 1-2-1 23 23 0 0 0-2-2v-1a5 5 0 0 0 2-2 11 11 0 0 0 1-3m2086 33a8 8 0 0 1 4 2c2 2 4 3 7 3h5-1a13 13 0 0 0-2 0 5 5 0 0 0-5 2 6 6 0 0 0 0 1 5 5 0 0 0-5-3c-1-2-2-3-5-3h-1l2-1a6 6 0 0 1 1-1m-17 1a4 4 0 0 0 1 0v1a4 4 0 0 1-1-1m-462 87 1 1a13 13 0 0 1-2-1 1 1 0 0 1 1 0m133 6a9 9 0 0 0 1 2 6 6 0 0 1-2 0 7 7 0 0 0-2 1 3 3 0 0 0 0-1 8 8 0 0 0 1-1h1a6 6 0 0 1 1-1m-17 55a7 7 0 0 1-1 0 6 6 0 0 0 1 0m-277 54 1 1a5 5 0 0 0-1 0 4 4 0 0 0-1 4l3 8a7 7 0 0 1 1 1v1l-1 3-1 1a7 7 0 0 0 0 7v1a5 5 0 0 1 0 3v2l1 5a4 4 0 0 0 2 1 6 6 0 0 0 2 4 4 4 0 0 1 2 3l1 3 1 4a45 45 0 0 0 2 6 28 28 0 0 1 1 5 40 40 0 0 0 3 7v1a9 9 0 0 0 1 2h-1a4 4 0 0 1-1 0 8 8 0 0 0-2-2 7 7 0 0 0-3-1 6 6 0 0 0-4 2 5 5 0 0 0-1 1 24 24 0 0 0-2 1c-2 1-4 3-5 8a8 8 0 0 1-1 3 12 12 0 0 0-1 3 32 32 0 0 1-2 6 10 10 0 0 0-1 2 5 5 0 0 1-1-2 11 11 0 0 0-2-7l-1-3a14 14 0 0 1 1-5l1-2a10 10 0 0 0 1-3 27 27 0 0 1 0-3v-2l1-1v-7a18 18 0 0 1 0-5v-2a12 12 0 0 0-1-5 13 13 0 0 1 0-1v-1a3 3 0 0 1 0-1 7 7 0 0 0 2-4 5 5 0 0 0-1-4 4 4 0 0 1 0-1 10 10 0 0 1-1-1 15 15 0 0 0-3-4 11 11 0 0 1-2-4v-4a13 13 0 0 0 1-6 4 4 0 0 1 0-3l1-1a12 12 0 0 0 1-6 8 8 0 0 0-2-5 6 6 0 0 0 1-1 5 5 0 0 0 2 2 5 5 0 0 0 2 0 5 5 0 0 0 3 0v-1a8 8 0 0 0 3-1v-1a4 4 0 0 0 1-1m-26 2a15 15 0 0 0 1 1h1a2 2 0 0 1-1 1v-1l-1-1m18 99v1a10 10 0 0 0 2 6l1 1a13 13 0 0 0 3 3l2 2a9 9 0 0 0 1 2 1 1 0 0 1 0 1 8 8 0 0 0 0 2 5 5 0 0 0 0 1h-1a4 4 0 0 0-2-3 4 4 0 0 0-1 0l-5 2a15 15 0 0 0-3 6l-1 1a5 5 0 0 1 0-2v-1a8 8 0 0 1 0-3l1-1a14 14 0 0 0 2-4v-4a25 25 0 0 0-1-7 5 5 0 0 0 0-1l1-1a13 13 0 0 0 1-1M432 0a27 27 0 0 0-4 0 16 16 0 0 1-3 1 20 20 0 0 1-2 0 6 6 0 0 0-2-1 8 8 0 0 0-4 1l-1 3 4 1h1a68 68 0 0 0 7-1 16 16 0 0 1 3-1h2c3 0 2-1 1-2l-2-1Zm61 5h-2l-3 1a18 18 0 0 1-3-1h-5l-2 1 4 1a21 21 0 0 0 6 1h6c2 0 1-2 0-2a1 1 0 0 0-1-1Zm-23 1-1 1 1 2a16 16 0 0 0 3 0l-1-1-2-2Zm-61 3a4 4 0 0 0-2 1h-4v2a7 7 0 0 0 3 1h3a5 5 0 0 1 2 0l4 1 3 1h2l2-1-3-1-4-2-1-1h-2a5 5 0 0 1-1 0 8 8 0 0 0-2-1Zm-13 6v2s2 0 1 1l-1 1a2 2 0 0 1-1-1h-1a7 7 0 0 0-1 0 22 22 0 0 1-3 0 3 3 0 0 1-1 0l-2-1a2 2 0 0 0-1 0c-1 1-2 1-1 2l1 1a6 6 0 0 0 1 0h3a11 11 0 0 1 2 0h1a2 2 0 0 1 1 0l2 2a5 5 0 0 0 1-1 5 5 0 0 0 2-1l4-1 3-1h7l-3-1-4-1a7 7 0 0 1-3-1 6 6 0 0 0-2 0h-4Zm531 3a5 5 0 0 0-3 1l-1 2c-1 2-2 1-3 2l-5 2a40 40 0 0 0-7 1 24 24 0 0 1-6 1l-4 1c-2 1-1 2-3 2a9 9 0 0 0-4 1c-2 1-2 2-2 3l3 4c1 2 1 3-1 5a3 3 0 0 1-2 1l-3-1-4 1c-1 0 1 2-1 2a9 9 0 0 0-4 1c-1 0-2 1-1 2a3 3 0 0 0 2 0h4l7-1a2 2 0 0 1 1 0 50 50 0 0 0 7 0c2 0 2 1 2 2 1 1 0 1-1 1h-4a3 3 0 0 1-2-1 3 3 0 0 0-1 0 6 6 0 0 0-3 0l3 2a11 11 0 0 0 4 3 29 29 0 0 1 5 2 7 7 0 0 0 3 1h3a42 42 0 0 0 5-1l9-2a47 47 0 0 0 7-2 15 15 0 0 1 5-1h3l5-2a7 7 0 0 1 2 0l8 1 2-3v-4a19 19 0 0 0-1-2v-3l3-1h4a7 7 0 0 0 4-1l-2-3-6-4-6-3a11 11 0 0 1-5-5l-4-1-6-3h-3a5 5 0 0 1-1 0 6 6 0 0 0-2-1Zm-59 2a7 7 0 0 0-2 0 25 25 0 0 1-6 1h-5s-2 1-1 2a6 6 0 0 0 4 1 13 13 0 0 0 3-1l6-1h2a12 12 0 0 1 3 1 14 14 0 0 0 2 0c0-1-1-2-3-2l-3-1Zm-361 0a4 4 0 0 0-1 1c-2 0-4 0-4 2l-1 4a3 3 0 0 1-3 0h-2l-6 1a5 5 0 0 1-1 0 6 6 0 0 0-2-1l-3 2-2 2-2 1 2 2 4 1 2 2 5-2 5-1 8-2 6-2c2-1 6 1 7-1s-1-1-2-3l-1-3-5-1-4-1Zm-40 3a2 2 0 0 0 0 1l-4 1a9 9 0 0 1-1 0l-4-1a11 11 0 0 0-4 1 7 7 0 0 1-3 1h-4c-1 1-1 3 1 3l3-1a4 4 0 0 1 1 1 5 5 0 0 0 3 1 6 6 0 0 0 1-1h4l3-2 3-2 1-2Zm-65 2v1s-1 1 1 1a9 9 0 0 1 4 1l4 2 1 1a3 3 0 0 0 1 0l4-1h1v-1l-3-1a8 8 0 0 0-2-1h-1a4 4 0 0 1-2 0 33 33 0 0 0-4-1 21 21 0 0 0-4-1Zm-17 0a12 12 0 0 0-2 0 11 11 0 0 1-1 1l-3-1a10 10 0 0 0-3 1h-2a1 1 0 0 0-1 0c0 1-1 2 1 2h6a2 2 0 0 1 2 0l3 2 4 1h2a4 4 0 0 1 2 1 6 6 0 0 0 3 0h1a4 4 0 0 1 1 0 10 10 0 0 1 3 2c1 1 0 2 2 2h1l5-2 2-1h-2a2 2 0 0 1-1 0l-3-2-4-1a33 33 0 0 1-5-2l-4-1-3-1-4-1Zm-67 5a1 1 0 0 0-1 0l-1 1-4-1a6 6 0 0 0-1 0h-5a2 2 0 0 0-1 0l-3 2-3 1-4 1 1 1a6 6 0 0 0 1 0l7 2c1 1-2 1-3 1l-2 3-3 1a9 9 0 0 1-4 1 8 8 0 0 1-5-1l-1-1a7 7 0 0 0-2 0l-4 1h-2l1 2a9 9 0 0 1 3 0 1 1 0 0 1 1 2h-1l-2-1c-1 0-2 1-1 2a9 9 0 0 0 2 1l1 1h-4a3 3 0 0 1-1 0 37 37 0 0 1-4 0 26 26 0 0 1-3-1 11 11 0 0 0-3-1h-1a2 2 0 0 0-1 1 7 7 0 0 1-2 1l-2 2h2a10 10 0 0 1 3 1l2 1h1a11 11 0 0 0 3-1l3-1h1a13 13 0 0 1 4 1 1 1 0 0 1 0 1l-3 1-1 1h1a6 6 0 0 0 1 0 20 20 0 0 1 4 0 6 6 0 0 1 1 0 6 6 0 0 0 1 0 12 12 0 0 0 4-1 10 10 0 0 1 3 0h3v-2l-2-3-1-2 3-1a12 12 0 0 0 4-1 17 17 0 0 1 5-1 13 13 0 0 0 5-1 23 23 0 0 1 7-3l6-2 7-1 4-1h-3c-2 0-2-2-3-2a4 4 0 0 0-2 1 1 1 0 0 1-1 0l-1-1-2-3a2 2 0 0 0-2-2Zm153 0a8 8 0 0 0-1 0l-4 2a17 17 0 0 1-3 0 22 22 0 0 0-3 0 10 10 0 0 0-3 1 8 8 0 0 1-3 0h-5a3 3 0 0 1-1 0 9 9 0 0 0-3-1 17 17 0 0 0-2 0 2 2 0 0 0-1 0 8 8 0 0 1-4 2l-3 3v3l2 3 2 2h1a4 4 0 0 0 3-1l3-1h1l6 1a9 9 0 0 0 4 1 6 6 0 0 0 5-1c1-1 0-3 3-4l6-1 3-2 1-2a4 4 0 0 0-2-3c0-1 0-2-2-2Zm-201 1a1 1 0 0 0-1 0l-6 2-8 2a45 45 0 0 1-8 2l-6 1c-1 0-3 0 0 2l4 2a2 2 0 0 0 1 0 11 11 0 0 0 3-1 16 16 0 0 1 4-1 2 2 0 0 1 1 0v3c-1 1 0 1 1 1h2a3 3 0 0 0 2 0l2-3a19 19 0 0 1 4 0 2 2 0 0 0 2-1l2-2a3 3 0 0 1 1 0l2 2a1 1 0 0 0 1 0l1-4 2-2a2 2 0 0 1 1 1l4 2 4 1h4v-3c-1-2 1-1-3-1a34 34 0 0 1-7-2 17 17 0 0 0-5-1h-4Zm94 1-1 1 5 2c1 0 2-1 1-2a6 6 0 0 0-1 0 2 2 0 0 1-1 0l-2-1a5 5 0 0 0-1 0Zm10 1a3 3 0 0 0-1 0v2l2 1a6 6 0 0 0 1 0l3-1 2-1h-4a6 6 0 0 1-2-1 2 2 0 0 0-1 0Zm11 3v2l3 1h8a5 5 0 0 1 1 0 9 9 0 0 0 2 0v-1c1-1 1-1-1-1l-4-1h-4a10 10 0 0 0-1 0h-1a17 17 0 0 1-3-1Zm21 7-2 1 2 4c1 2-1 2 2 4l4 2 5-1a7 7 0 0 1 2-1 4 4 0 0 1 1 0 7 7 0 0 0 2 0s1 0 0 0l-1-2a3 3 0 0 1 2-1 5 5 0 0 1 2 0 3 3 0 0 0 1 0l3-1h4l-4-2-4-2a11 11 0 0 0-1 0 34 34 0 0 1-5 1 11 11 0 0 1-3-1l-3-1a10 10 0 0 0-1 0 10 10 0 0 1-2 0h-4Zm-55 2-4 3-4 2-2 1c0 1 0 2 2 2h2a4 4 0 0 1 1 0 8 8 0 0 0 3 0 5 5 0 0 0 1 0l4-1a5 5 0 0 0 2-1h1a1 1 0 0 0 1 0c1-1 1-2-1-2s-3-2-4-3a4 4 0 0 0-2-1Zm46 2h-1c-3 0-5 1-5 3 0 1 0 2-2 3s-2 1-1 2l2 1h11l3-1a7 7 0 0 0 0-3c0-2 0-3-2-4l-5-1Zm558 7a31 31 0 0 0-5 1l-6 1h-4a17 17 0 0 1-3 1 10 10 0 0 1-2-1 15 15 0 0 0-3 0 13 13 0 0 0-2 0l-4 2a6 6 0 0 1-2-1 2 2 0 0 0-1 0l-2 1-2 1a3 3 0 0 1-2 1 16 16 0 0 1-2-1l-2 2 1 2 1 2a1 1 0 0 1-1 1h-2l-6 2a33 33 0 0 0-5 4 5 5 0 0 1-3 1h-1l-2-1-1 1 3 2a2 2 0 0 0 1 0 2 2 0 0 0 1 0l4-2a4 4 0 0 1 3-1 2 2 0 0 1 2 2l-1 1a5 5 0 0 0 3 1 11 11 0 0 0 1 0 4 4 0 0 1 1 0l2 1-1 4 2 1a9 9 0 0 1 3 3l2 2a9 9 0 0 0 4 1h1l5-1c2 0 2 1 3 2a5 5 0 0 0 2 1h1l6-1a27 27 0 0 1 3 1l5 1 4 3 6 1a18 18 0 0 0 4 1l3-1h11l5-1 5-2 1-3a6 6 0 0 0-2-3l-4-2c-2-1-4-3-3-4l4 1c1 0 3-1 3-4l1-5 1-4 2-4-3-1-5-4c-2-2-4-2-5-2a4 4 0 0 0-1 0 8 8 0 0 0-3 1 19 19 0 0 1-6 2 9 9 0 0 0-4 2c-3 2-2 4-3 4l-5 1-3 1 1-2a7 7 0 0 0 2-3l4-3a12 12 0 0 0 3-2c1-1 0-1-1-2l-2-1-4-1h-1Zm-519 2a9 9 0 0 0-3 0 25 25 0 0 1-4 2l1 2 4 1h2a2 2 0 0 0 1 0l2-2 3-1-3-1-2-1h-1Zm432 1-2 1 2 2a4 4 0 0 0 3 3l3 1a10 10 0 0 0 3 0 4 4 0 0 0 1 0 3 3 0 0 1 1 0l3 2 1 3a1 1 0 0 0 1 0 4 4 0 0 0 2-1 2 2 0 0 1 1 0h4a7 7 0 0 0 4-1l4-3c1-2 2 0 3-1l2-2-3-1a20 20 0 0 0-5-2 11 11 0 0 0-3 0h-9a22 22 0 0 1-6-1 8 8 0 0 0-2 0h-4a8 8 0 0 1-2 0 5 5 0 0 0-2 0Zm156 19-1 1-1 4a4 4 0 0 1-2 1 2 2 0 0 1-1 0l-2-2a2 2 0 0 0-2-2 5 5 0 0 0-1 0l-3 3-3 3v2l2 2 3 1-1 1a2 2 0 0 1-1 0 16 16 0 0 0-3-1h-3v3l-2 2 2 2 1 1-4-1a13 13 0 0 0-3-1 2 2 0 0 0-1 1 4 4 0 0 0-1 2l-2 3-3 4a10 10 0 0 1-2 5 22 22 0 0 1-4 4c-2 1-3 4-1 5l5 1a14 14 0 0 0 8-2 69 69 0 0 1 7-4l11-2h4a9 9 0 0 1 3 1 2 2 0 0 0 1 0h1a2 2 0 0 1 1 0 5 5 0 0 0 3 1 2 2 0 0 0 2-1c1-1 0-2 2-2l8-1 4 1a6 6 0 0 0 3-1 14 14 0 0 1 4-1h1l3 1a4 4 0 0 0 2-1 28 28 0 0 1 5-3 7 7 0 0 0 3-4l-1-3-1-3a3 3 0 0 0-3-2l-4 1-2-1a6 6 0 0 0-1 0 10 10 0 0 1-1 0h-1l1-2v-2a21 21 0 0 0-3 0h-2c-2 0-1-3-1-4l-3-2-2-1a2 2 0 0 0-1 1l-4 1-4 1a13 13 0 0 1-5 1h-1c-2 0 0-1 1-2a5 5 0 0 0 2-3l1-2 2-1-3-1a14 14 0 0 1-5-1l-1-1Zm23 52-7 1a96 96 0 0 0-10 2l-9 4-5 3v2l-4 3-5 4c-1 1-4 2-4 4l2 3 2 2-2 3c-1 1 0 2 1 3a4 4 0 0 0 3 0h2c3 0 3 1 5 2l5 2h-1a20 20 0 0 1-5-1l-4-1h-5l-4-1h-6a72 72 0 0 1-8 1h-1a34 34 0 0 1-7-1 12 12 0 0 0-3 0h-1c-1 1 1 2 3 4s3 1 4 1l4 4c1 2 2 2 1 4a1 1 0 0 1-1 0l-4-2a20 20 0 0 0-5-3 13 13 0 0 0-4-1 3 3 0 0 0-1 0l-8 2a18 18 0 0 0-7 4l-4 2v-3l-3 1a9 9 0 0 0-4 1l-3 3a1 1 0 0 1-1 0v-1l-1-3h-1l-4 3-4 2-1-2c0-2 2-1 1-2h-3l-9-1h-8a39 39 0 0 1-7-1 31 31 0 0 0-6-1 8 8 0 0 0-5 1 3 3 0 0 0-1 3h2a7 7 0 0 0 1 0h5a18 18 0 0 1 1 0h5l2 1-4 1-10 1-11 2-13 3-18 3a50 50 0 0 0-8 1l-11 6-7 5a6 6 0 0 1-4 1h-1a11 11 0 0 1-2-1 40 40 0 0 0-5 0l-2 1 3 1h2l-1 2v2l-3 2a12 12 0 0 0-3 2 2 2 0 0 0 0 2l1 2h-2l-1 1-1 1a3 3 0 0 0 0 2l2 1a2 2 0 0 0 1 0 4 4 0 0 0 1 0 2 2 0 0 1 2 0l-1 2a3 3 0 0 1-2 2l-2-1a2 2 0 0 0 0-2h-3a35 35 0 0 0-3 0h-1a10 10 0 0 0-2 0 2 2 0 0 0-2 1l1 2a2 2 0 0 0 2 1 7 7 0 0 1 1 0h6l2 1v2l3 1c2 0 2 1 2 2h-1l1 3c1 2 0 0-1 1l-11 1-11 1-14 1-17 2h-14l-6 1a66 66 0 0 1-8 1h-1a49 49 0 0 0-6 0l-2 2v2l-2 2-1 2 2 1-2 2 1 1h1l2 2a5 5 0 0 1 3 4l-1 3-1 2 1 3v3c0 2 3 1 5 2a7 7 0 0 0 3 1h2l5 1c2 0 3 0 5 2s0 4 0 5l6 4c2 1 1 2 0 3l-1 1h-4l-4 1a6 6 0 0 1-2 0 8 8 0 0 1-4-1 63 63 0 0 1-5-4l-5-4-7-3-7-1a51 51 0 0 1-6-2l-7-1a25 25 0 0 0-5-1 10 10 0 0 0-2 0l-4 2a14 14 0 0 0-6 1l-3 3c-1 1 1 1 3 1h4a4 4 0 0 1 2 0l1 5c0 2-2 1-4 1a17 17 0 0 1-2 0 8 8 0 0 1-4 0l-3-3a5 5 0 0 0-3 0h-2a11 11 0 0 0-4 1 5 5 0 0 1-2 0h-3c-2 0-2 1-2 2l2 4a15 15 0 0 0 3 4l5 2a23 23 0 0 1 4 1l4 3a16 16 0 0 0 6 1l2-1 1 1 2 1a2 2 0 0 1 2 1v3l3 1c2 1 0 0 0 1l1 1a10 10 0 0 0 2-1 12 12 0 0 1 2 0 1 1 0 0 1 1 0l-2 1-3 1a5 5 0 0 1-1 1l-2-1-3-1a14 14 0 0 1-3-1l-1-3a4 4 0 0 0-3-1 22 22 0 0 1-3-1 9 9 0 0 0-1 0 7 7 0 0 0-3 1l-3 2-1-3a6 6 0 0 0-2 0h-2l-7-1-4-1-5-2a2 2 0 0 1 0-2 2 2 0 0 0 2-2l-1-2v-2l-2-3a4 4 0 0 1 0-3l3-3a7 7 0 0 1 1-4l2-3-1-4c0-2-1-2-2-3l-3-3a46 46 0 0 0-3-5 2 2 0 0 0-2 0 6 6 0 0 0-2 1l1 3a7 7 0 0 0 3 2v4c-1 2 1 3 1 4a7 7 0 0 1-2 4l-5 4a34 34 0 0 1-8 2c-2 1-5 1-6 3l-1 4-4 4c-2 2-2 1-2 3s1 0 4 2a22 22 0 0 1 4 4 12 12 0 0 1 3 4l1 4 4 3a5 5 0 0 1 1 4l-5 5a36 36 0 0 1-2 3 5 5 0 0 0-1 2v3l-2 4a6 6 0 0 0-1 3 6 6 0 0 0 3 4 3 3 0 0 1 2 3l-1 3a11 11 0 0 0-1 3l2 2a2 2 0 0 0 1 1 10 10 0 0 0 2-1l4-1a5 5 0 0 1 1 0l4 2h4a4 4 0 0 0 3-3 7 7 0 0 1 5-2l4 1 4 1 4 1a19 19 0 0 1 3 1l3 3 5 1 3 1 1 2 1 3a9 9 0 0 0 1 4 8 8 0 0 0 2 3 9 9 0 0 1 2 2v2l-4 1a6 6 0 0 0-2 1l-1 2-1 5 2 2a2 2 0 0 0 1 0h2l1 1a2 2 0 0 0 2 0l3 1 2-1h1l1 1a1 1 0 0 0 1 1h1c2 0 3 1 3 2h-15a5 5 0 0 1-4-1 19 19 0 0 0-3-3l-2-2 1-2v-5l1-3-2-2 1-3a2 2 0 0 0 0-3l-4-2a10 10 0 0 1-3-5l-3-2a29 29 0 0 0-5 0 37 37 0 0 0-8 2l-11 2a5 5 0 0 0-4 3l-1 4a4 4 0 0 0 0 4l4 4 1 6a12 12 0 0 1-3 6 27 27 0 0 1-4 4l-4 4a48 48 0 0 0-2 6 7 7 0 0 1-2 3l-6 3-5 3a20 20 0 0 1-5 2c-2 0-2 1-2 3a4 4 0 0 1-3 3 4 4 0 0 1-1 1 11 11 0 0 1-3-1 29 29 0 0 1-5-2 13 13 0 0 0-3 0 24 24 0 0 0-6 0 13 13 0 0 1-3 1l-3-1-4-1-7-2c-3 0-5-3-6-4s-2-2 0-3a3 3 0 0 1 1 0h2a11 11 0 0 0 3 0 11 11 0 0 1 3-1 12 12 0 0 1 2 0 8 8 0 0 1 4 2 13 13 0 0 0 4 2l5-2 9-2c3 0 4-3 6-4l4-4 2-4 7-6 3-2a12 12 0 0 0-1-2l2-3c1-2-2-3-2-5s3-3 5-4 3-3 2-4 0-2-3-4l-7-4c-4-2-3-2-3-3l-1-4 1-3a16 16 0 0 0 0-4l-1-3a9 9 0 0 1 1-4l1-3a3 3 0 0 0-1-2 4 4 0 0 1-1-3l1-1a11 11 0 0 0-1-3 7 7 0 0 1 0-3l1-2 2-1v-5l1-4a4 4 0 0 0 0-2l-2-3a4 4 0 0 1 0-1 5 5 0 0 0-2-3l-3-2a8 8 0 0 1-3-2 23 23 0 0 1-3-3v-3l3-2a6 6 0 0 0 2-3c0-3 1-3 3-6a44 44 0 0 1 3-5l2-3a5 5 0 0 0 0-3 6 6 0 0 1 0-3 8 8 0 0 0-1-3c0-2-1-2-2-3l-4-1a6 6 0 0 0-3-1 8 8 0 0 1-4-1 5 5 0 0 0-3-1 14 14 0 0 0-3 0 16 16 0 0 0-2 0 19 19 0 0 1-3 0h-1l-6 1h-7a13 13 0 0 1-4-1l-1-1a3 3 0 0 0-2 0 2 2 0 0 0-1 0l-3 2-3 6-3 8-2 10a54 54 0 0 1-4 7l-9 6a59 59 0 0 1-8 2 10 10 0 0 0-3 3 10 10 0 0 0-3 3 1 1 0 0 0 1 2l1 1-2 2v2a2 2 0 0 0 2 1 2 2 0 0 0 1 0l3-1a2 2 0 0 1 2 1l1 2a18 18 0 0 1 0 4l-1 4-1 3v2a4 4 0 0 1 2 3l-2 1-2-1a2 2 0 0 0-2 2 38 38 0 0 1 0 4 22 22 0 0 0 0 4v1a1 1 0 0 0 1-1 3 3 0 0 1 3-1l6 3a23 23 0 0 0 5 1h2v3a8 8 0 0 0 0 4l4 4c2 3 2 3 4 3h5a1 1 0 0 1 1 0l-1 3a30 30 0 0 1-2 5l-3 4-1 3a5 5 0 0 1-3 2 1 1 0 0 1-1 0l-4-4-9-8c-3-2-3-3-5-3l-9-3a20 20 0 0 1-7-3l-4-2-9-3-5-4c-2-2-8-3-11-4l-9-2a87 87 0 0 0-9-1l-12-1a28 28 0 0 0-4-1h-2l-4 2-4 2-4 2c-1 1 1 1 2 3l3 5v3l2 1a2 2 0 0 0 1 0l1-1c1 1 2 4 1 5l-5 2-5 2a5 5 0 0 0-4 4c-1 2 1 1 1 3s0 2-3 3a4 4 0 0 1-1 0l-4-1-4-1v-4l3-2a2 2 0 0 0 1-2l-3-2-2-2 1-1a2 2 0 0 0-1 0 11 11 0 0 0-3 0 7 7 0 0 0-3 3l-2 2a1 1 0 0 1 0 1l-2-2-2-1a2 2 0 0 0-1-1l-1 2a13 13 0 0 0-5 3l-5 3a7 7 0 0 1-1 0l-6-1a73 73 0 0 0-8-1h-2a6 6 0 0 0-4 1 49 49 0 0 1-5 4l-5 3-2 3a3 3 0 0 1-1 0l-2-2a2 2 0 0 0-1 0 7 7 0 0 0-1 0l-3 1h-1l-1-1a1 1 0 0 0-1 0 4 4 0 0 1-2 1 8 8 0 0 1-1 0l-4-3 3-1a2 2 0 0 0 2-2l-1-3a3 3 0 0 1 0-3l2-2v-1l3-2v-1l-6 1a27 27 0 0 0-6 2c-3 0-3 1-5 2l-5 2-3 1 2 2 2 2v1a20 20 0 0 1-4 2v-1a4 4 0 0 0-1-2h-2l-2-2a11 11 0 0 0-4 1l-3 2-3 1-5 1-5 2-8 5a48 48 0 0 1-8 3 47 47 0 0 1-6 2 2 2 0 0 0-2 2l3 2s1 1-1 1l-6-1h-1a35 35 0 0 0-5 1l-2 2v3a14 14 0 0 0-2 3v4a5 5 0 0 1 0 3l-2 2a3 3 0 0 1-2 1l-3-1a13 13 0 0 0-5 1 15 15 0 0 0-3 2 3 3 0 0 1-2 0l-1-2a8 8 0 0 0-1 0h-6l-3-4a19 19 0 0 0-4-4 44 44 0 0 0-4-3 3 3 0 0 1-2-2 3 3 0 0 1 1-3l3-1a3 3 0 0 0 1-2l3-2a7 7 0 0 1 2 0h2l4-1a14 14 0 0 1 2 0h3a3 3 0 0 0 2 0v-5a10 10 0 0 0-2-3l-4-3-3-3v-2h-5l-5-1-8-1-7-1-7-1h-1l-2 1 2 2 7 4a6 6 0 0 1 3 3v4l-1 1-2 3-1 4a28 28 0 0 1-2 5 7 7 0 0 0-1 4l3 3 4 2a8 8 0 0 1 3 5v6a19 19 0 0 1-3 3 24 24 0 0 0-3 4 8 8 0 0 0 0 3 14 14 0 0 0 1 3 13 13 0 0 1 0 3s0 0-1 0l-1-3a7 7 0 0 0-2-2 1 1 0 0 0 0-1 4 4 0 0 0-2 1 7 7 0 0 0-2 2l-2 2-1-3 2-1 2-2-1-1-2-2a6 6 0 0 0-4-2h-9a6 6 0 0 0-3-1 1 1 0 0 0-1 0l-4 4-4 3-5 2a40 40 0 0 0-5 3l-7 4-6 3a7 7 0 0 0-3 4l2 4 6 7 3 5v5a4 4 0 0 1-1 0l-6-1a35 35 0 0 1-6 0l-8-2a49 49 0 0 0-7-1 6 6 0 0 0-3 0l-2 2v-1a2 2 0 0 1 0-2 19 19 0 0 1 3-1v-2l-5-1-4-2-5-3a8 8 0 0 0-4-1l-2 2a13 13 0 0 1-1 3 2 2 0 0 1-1 1h-2a2 2 0 0 0-1 0l1 3a7 7 0 0 0 3 2l4 4 4 4a4 4 0 0 0 1 0 4 4 0 0 0 3 0 3 3 0 0 1 2-2l2 2a6 6 0 0 1 2 4l-1 3c-1 2-2 1-3 2l-3 2a4 4 0 0 1-2 1 3 3 0 0 1-2-1 33 33 0 0 0-5-1c-3-1-3 0-5-2a21 21 0 0 1-5-3l-5-5h-5a24 24 0 0 1-5-2 8 8 0 0 1-4-2 3 3 0 0 1 0-2 7 7 0 0 1 1-3v-3l-3-3c-2-2 0-2-1-3l-1-3c-1-2-2-1-1-2l2-1a3 3 0 0 0 1-3 22 22 0 0 1 0-4h2a3 3 0 0 0 1-1v-2c0-2-4-4-5-5l-6-2a26 26 0 0 0-5-1l-4-2 3-1c1 0 1-2-1-3l-6-1-1-1c0-1 2-1 1-2l-3-1-2-2-4-2v-3l-2-1-4-1-1-1a12 12 0 0 1 3 0 23 23 0 0 0 5 1l4 1v1l2 2 5 4 4 1 5 1c3 0 2-2 3-2l3 2 1 3a3 3 0 0 0 2 0h6c6 0 10 2 16 4l15 3 15 4h2l9-2 9-3 8-4c4-3 5-7 7-8s5-4 5-6a3 3 0 0 0-2-3l-1-4c0-2-2-1-2-2l-1-6-2-1h-1a12 12 0 0 1-4-1c-3-1-3-2-5-5s-3-2-5-2l-8-2c-5 0-8-3-11-5l-6-6c-2-2-6-1-11-4l-15-7c-3-2-8-4-11-4H95l-8-1h-2l-2 1-1 4-3 1c-2 0-2 0-2 2a2 2 0 0 1-2 0v-1l1-2a17 17 0 0 0 4-2v-1l-1-2 2-1c0-1 1-2-1-2l-2 1-4 2c-2-1-1-2-4-2l-2 1a2 2 0 0 1-2-1l-4-3v-5l-2-2a1 1 0 0 0-1 0l-2 1-3 1a4 4 0 0 1-1 0c-3-2-2-2-5-2a24 24 0 0 1 0 4v1a2 2 0 0 1 0 1 2 2 0 0 1-2 2 5 5 0 0 1-2 0 6 6 0 0 1-2-1 17 17 0 0 0-3-1 2 2 0 0 0-1 1 4 4 0 0 0-1 1 5 5 0 0 1-2 3 8 8 0 0 1-3 1l-3 1-3 1-2 3a26 26 0 0 1-2 2 6 6 0 0 1-3 2h-2a10 10 0 0 0-2 1v1a7 7 0 0 1 1 3 13 13 0 0 1-1 3 13 13 0 0 0-1 4 8 8 0 0 1 1 1c0 1 0 3 2 4a11 11 0 0 0 3 1 21 21 0 0 1 4 1 7 7 0 0 1 4 3 14 14 0 0 0 1 2l2 2 3 4c1 2-3 4-5 7a39 39 0 0 0-3 4l-2 2-1 4a9 9 0 0 0 1 3 50 50 0 0 0 3 5l6 10 1 4a27 27 0 0 1 2 4 3 3 0 0 1 0 3l-2 1a3 3 0 0 0-2 0 4 4 0 0 0-1 2 20 20 0 0 0 0 3 3 3 0 0 1-1 2v1a4 4 0 0 0 1 1 4 4 0 0 1 1 2c1 1 0 2-1 3l-1 1a2 2 0 0 0 1 1 5 5 0 0 0 1 1 8 8 0 0 0 2 1 8 8 0 0 1 2 1 2 2 0 0 1 1 1 5 5 0 0 1 0 3 5 5 0 0 0 0 2 4 4 0 0 0 1 2 14 14 0 0 0 2 2c1 1 3 2 3 4l-4 5a14 14 0 0 0-1 2 6 6 0 0 1-1 1c0 1-1 1 1 2l10 7 1 1a21 21 0 0 1 4 3 14 14 0 0 1 2 4v5a32 32 0 0 1-2 4l-14 14-4 3-5 5-5 6c-1 2-5 3-8 5a82 82 0 0 0-8 6H8a30 30 0 0 0-3 3l7-2 4-2v2a3 3 0 0 0 0 3v2l4 2a13 13 0 0 1 5 2l5 1 4 2 2 2a3 3 0 0 1-3 1l-3-2a28 28 0 0 0-4 0 4 4 0 0 0-2 0l-3 2-1 2a2 2 0 0 1-1 0 8 8 0 0 1-3 0l-1-1a2 2 0 0 0-1 1 9 9 0 0 1-4 1H9a1 1 0 0 0-1 1 5 5 0 0 0-1 2v1a7 7 0 0 1 1 1 9 9 0 0 1 0 4c0 2-2 4-4 6-1 2-3 3-3 5l-1 8 3 6a8 8 0 0 1 2 3l-3 3a5 5 0 0 0-1 1 5 5 0 0 0-1 2 3 3 0 0 0 0 1 8 8 0 0 0 3 3h1a3 3 0 0 1 1 2 3 3 0 0 1 0 2 4 4 0 0 0-1 3 8 8 0 0 1 0 1v2h1a8 8 0 0 1 2 2 7 7 0 0 1 2 3v2a20 20 0 0 1 1 3 12 12 0 0 0 0 3h1l3 4a15 15 0 0 0 5 0h2a5 5 0 0 1 3 1 16 16 0 0 1 3 2 5 5 0 0 0 3 1 10 10 0 0 0 4-1 9 9 0 0 1 3 0h1a9 9 0 0 1 4 1l1 1c2 1 5 3 5 5a4 4 0 0 1-1 2l-1 2 1 2 1 3-1 2v1a6 6 0 0 0 2 2 3 3 0 0 1 2 2 4 4 0 0 1 0 3l1 1a28 28 0 0 0 3 3h1c1 1 4 3 4 5a4 4 0 0 1 0 3 10 10 0 0 0 4 1 10 10 0 0 1 3 1l1 2a1 1 0 0 0 0 1 4 4 0 0 0 2 1l2 2a5 5 0 0 1-2 4 14 14 0 0 1-5 2 9 9 0 0 1-3 0 27 27 0 0 1-3 0h-2a11 11 0 0 0-3 0 3 3 0 0 0-1 1 5 5 0 0 0 1 1l1 1v1l2 6a13 13 0 0 1-1 2 3 3 0 0 0 1 3 18 18 0 0 0 3 3 4 4 0 0 0 2 0l3-1a9 9 0 0 1 2-2 9 9 0 0 1 4-1h4a19 19 0 0 0 5-1h1a5 5 0 0 1 2-1 4 4 0 0 1 1 0 13 13 0 0 1 3 2 9 9 0 0 1 3 2 6 6 0 0 1 1 2 5 5 0 0 0 2 4h1v3a9 9 0 0 1-1 1 9 9 0 0 0 0 1v2a7 7 0 0 1 1 3c0 1 0 2 2 2h1a26 26 0 0 0 3 0h2a9 9 0 0 1 4 1 5 5 0 0 1 2 3 9 9 0 0 1 1 3 5 5 0 0 0 0 3 8 8 0 0 1 1 2l1 3a5 5 0 0 0 2 0 8 8 0 0 0 2 0 9 9 0 0 1 2-1 7 7 0 0 1 3 1 7 7 0 0 0 3 1 22 22 0 0 0 6-1 22 22 0 0 1 5-1c3 0 4 1 5 2a17 17 0 0 0 1 2 11 11 0 0 1 2 2 4 4 0 0 0 2 2 5 5 0 0 0 1 0 8 8 0 0 0 2 0 10 10 0 0 1 3-1 7 7 0 0 1 4 2 10 10 0 0 0 3 1 8 8 0 0 0 2 0h1a7 7 0 0 1 2 0 7 7 0 0 1 3 3l2 2h1a7 7 0 0 0 1 0 6 6 0 0 1 2-1 2 2 0 0 1 2 2 6 6 0 0 1 1 3 11 11 0 0 1 0 3l-3 2-2 2 1 1a7 7 0 0 1 1 1c1 2 0 3-1 3l-1 1a4 4 0 0 0-2 0l1 2h1a6 6 0 0 1 1 3 5 5 0 0 1 1 2 10 10 0 0 1-2 5v1c-1 2-2 2-4 2h-7a22 22 0 0 0-6 2 6 6 0 0 0-2 2 64 64 0 0 0-3 7 11 11 0 0 0 3 0 5 5 0 0 1 1-1 9 9 0 0 1 2 1 11 11 0 0 0 2 0 1 1 0 0 0 1 0l2-1h1c2 0 2 0 3 2s-1 1-4 3a52 52 0 0 1-5 2h-3v3h-6a20 20 0 0 0-3 0v2l4 3a35 35 0 0 0 4 3c2 0 3 1 3 2l-1 1-1-1a20 20 0 0 0-2 0h-1l-1 2-1 1-2-1v1l-2 2a3 3 0 0 0-2 3l2 3c1 1 0 1-1 2l-1 1-3-1-2-1a4 4 0 0 0-2 0 8 8 0 0 0-2 0l-3 2c-2 1-2 0-1 1l3 2 3 2a13 13 0 0 1 3 3l2 1h3a3 3 0 0 1 3 2 22 22 0 0 0 2 3l5 1 5 2 4 4 9 8 2 1a4 4 0 0 1 3-2 6 6 0 0 1 2-1 15 15 0 0 1 3 1h1a5 5 0 0 0 1 0 3 3 0 0 0 1 0 4 4 0 0 1 1 0 6 6 0 0 1 3 1l1 1a19 19 0 0 0 12 3 130 130 0 0 0 9 0l4 2a24 24 0 0 0 3 2 9 9 0 0 0 3 1 15 15 0 0 1 3 1 5 5 0 0 1 3 3 2 2 0 0 0 1 1 5 5 0 0 0 2 1h1a5 5 0 0 0 2-1 14 14 0 0 0 1-1 4 4 0 0 1 3-1 5 5 0 0 1 1 0 7 7 0 0 0 3 1h2a16 16 0 0 1 5 1 12 12 0 0 1 4 2c2 2 1 3 1 4a2 2 0 0 0 0 1l3 2a34 34 0 0 0 7 2 22 22 0 0 1 4 1 6 6 0 0 1 2 2 73 73 0 0 0 6 6 16 16 0 0 0 3 2h1a6 6 0 0 0 2 1 2 2 0 0 0 1 0 40 40 0 0 0 4-4l5-5-1-1-4-6-3-5a8 8 0 0 1-2-3l-3-3c-1-1 0-1 1-3l1-8v-4l-2 2-2 3-1-2 2-4-2-4a8 8 0 0 0-3-3l-4-1c-2 0-2-2-2-3l4-5 4-4 2-4v-5h2l1-3 4 1h1a13 13 0 0 0 4 0l3-4a1 1 0 0 1 1 0 7 7 0 0 0 2 1v-3a1 1 0 0 1 1-1l3 1c2 0 3-1 3-3l-5-2a10 10 0 0 1-2-2 4 4 0 0 1-1-3l2-2 1-1-2-3-2-2a38 38 0 0 1-2-4c-2-3-3-5-5-5a5 5 0 0 0-1-1 27 27 0 0 0-3 1 28 28 0 0 1-4 0 8 8 0 0 1-2 0c-2-1-3-4-3-6a11 11 0 0 0 0-1 4 4 0 0 0-1-2 6 6 0 0 0-2-1 11 11 0 0 1-3-2 6 6 0 0 1-2-3c-1-2 1-5 3-6v-1l1-1c0-1 2-3 1-4a7 7 0 0 1-1-3 26 26 0 0 1 1-6 9 9 0 0 1 1-4 2 2 0 0 1 1-1h1c2-1 2-2 2-3v-2a4 4 0 0 1 2-3 7 7 0 0 1 4 0c2 0 5 4 8 7l3 3a5 5 0 0 0 2-1 9 9 0 0 0 2-3l-1-4v-1a11 11 0 0 1-1-3 4 4 0 0 1 0-3l5-2a16 16 0 0 0 3-1 2 2 0 0 0 1-1l1-2 4-2a24 24 0 0 0 4-1 17 17 0 0 0 4-4l4-3a2 2 0 0 0 2-1 3 3 0 0 1 1-2 3 3 0 0 1 2-1 12 12 0 0 1 4 1l2 1a10 10 0 0 1 1 1 5 5 0 0 1 1 1 4 4 0 0 0 2 1l2-2 1-1a6 6 0 0 1 3-2 8 8 0 0 1 2 0 12 12 0 0 1 2 0c2 0 3 2 3 3l2 2a4 4 0 0 0 1 0 35 35 0 0 0 4 0 36 36 0 0 1 3-1 7 7 0 0 1 2 1c2 0 4 2 6 4a74 74 0 0 1 7 8 7 7 0 0 0 2 2 1 1 0 0 0 1 0 12 12 0 0 0 0-2 6 6 0 0 1 0-2 2 2 0 0 1 2-1 5 5 0 0 1 1 0 15 15 0 0 1 3 1 26 26 0 0 1 4 3l5 3a16 16 0 0 0 4-2l3-2a5 5 0 0 0 1-2 4 4 0 0 1 4-2h3a24 24 0 0 1 4-1 7 7 0 0 1 1 1 6 6 0 0 1 4 2l1 1h1v-1a4 4 0 0 1 1-1 6 6 0 0 1 1-1 9 9 0 0 1 3-1h1a14 14 0 0 1 3 0 10 10 0 0 1 3 2 5 5 0 0 1 2 2 3 3 0 0 0 2 2 8 8 0 0 0 2 1 26 26 0 0 0 3 1 21 21 0 0 1 4 2 4 4 0 0 0 2 0 3 3 0 0 0 2-1 13 13 0 0 0 1-1l3-3a25 25 0 0 1 5 2 27 27 0 0 0 4 1 14 14 0 0 0 3-1 34 34 0 0 0 5-1l2-2a8 8 0 0 1 0-1 19 19 0 0 0 2-4 2 2 0 0 0 0-1 17 17 0 0 0-3-2l-3-1-3-1-7-4a12 12 0 0 0-2-1c-2-1-3-2-3-4-1-2 0-2 4-3h1a16 16 0 0 0 4-2h1a2 2 0 0 0 1-2 3 3 0 0 0 0-2 11 11 0 0 1-2-3 4 4 0 0 1 1-2 10 10 0 0 1 2-3 9 9 0 0 1 3-2 6 6 0 0 1 1 0h11l-2-1h-1a39 39 0 0 0-4-2 19 19 0 0 1-4-2 1 1 0 0 1-1-1 3 3 0 0 1 1-1 9 9 0 0 1 2-2 1 1 0 0 0 0-1h-1a8 8 0 0 1-3 0 2 2 0 0 1-1-2 3 3 0 0 1 1-2v-1c-1-1-2-2 0-3a13 13 0 0 1 3-2 8 8 0 0 1 3-1 5 5 0 0 1 2 1 2 2 0 0 0 1 0h7a4 4 0 0 1 3 1 4 4 0 0 1 1 1 4 4 0 0 0 1-1l2-2a92 92 0 0 1 12-3h1a58 58 0 0 1 8-2 12 12 0 0 1 1 0h9l2-1a3 3 0 0 1 0-2 4 4 0 0 1 2-1 14 14 0 0 1 3-1 53 53 0 0 1 7-1h3a25 25 0 0 0 3-1l5-1 6-2a43 43 0 0 1 6-1 28 28 0 0 0 4-1 10 10 0 0 0 3-1h1a30 30 0 0 0 4-4 6 6 0 0 1 2-1 5 5 0 0 1 2-1h6l7 1a24 24 0 0 1 2 2 5 5 0 0 0 3 1 4 4 0 0 0 1-1l2-2h1a18 18 0 0 1 2 0 6 6 0 0 1 3 1 6 6 0 0 1 2 3 13 13 0 0 0 1 2l1 2a13 13 0 0 1 2 3 3 3 0 0 1-1 2 3 3 0 0 0 0 1 10 10 0 0 0 0 2v1a3 3 0 0 1-1 2v1a10 10 0 0 0 2 2 8 8 0 0 0 1 0 19 19 0 0 1 3 0 38 38 0 0 0 4-1 28 28 0 0 1 4 0 5 5 0 0 1 1 0l2 2 1 1a3 3 0 0 0 1 0 6 6 0 0 1 3-1 5 5 0 0 1 1 0 16 16 0 0 1 2 1 6 6 0 0 0 2 0h5a28 28 0 0 1 2-1 1 1 0 0 1 2 1 2 2 0 0 1 0 2 11 11 0 0 1-3 3l-3 3a4 4 0 0 0 1 2 2 2 0 0 0 1 1 1 1 0 0 0 1 0 2 2 0 0 0 1 0 5 5 0 0 1 2-2 6 6 0 0 1 1 0 3 3 0 0 1 1 0 8 8 0 0 1 3 1 4 4 0 0 0 1 1 1 1 0 0 0 1-1 5 5 0 0 0 0-1 4 4 0 0 1 3-3l11-5 3-2 4-2 11-5 1-1a6 6 0 0 1 2 0l2 1c1 1 0 2-2 4a6 6 0 0 0-1 1 3 3 0 0 1-1 2 3 3 0 0 0 0 2l2 1c4 4 14 11 15 14l8 10 5 7v1a1075 1075 0 0 1 17 25 3 3 0 0 0 1-1 7 7 0 0 0 2-1 6 6 0 0 0 0-1 5 5 0 0 1 1-3 5 5 0 0 1 2-2 5 5 0 0 1 2 0h1a7 7 0 0 1 2 0 4 4 0 0 1 2 2 8 8 0 0 1 1 3 7 7 0 0 0 0 2 5 5 0 0 0 1 1 9 9 0 0 0 3 2 7 7 0 0 0 2-1 12 12 0 0 1 3 0h9a5 5 0 0 0 2-1 6 6 0 0 1 2-2h1a7 7 0 0 1 3-1 19 19 0 0 1 3 0 28 28 0 0 1 4 1 17 17 0 0 1 4 1 10 10 0 0 1 3 4 34 34 0 0 1 2 4 11 11 0 0 1 0 1l2 2a18 18 0 0 1 4 2l1 1a7 7 0 0 1 3 2 5 5 0 0 1 1 3l2 2v1l3 1h2l3 1a17 17 0 0 0 3 0h1a3 3 0 0 0 2-1l1-1a14 14 0 0 0 2-1 11 11 0 0 1 1-1 2 2 0 0 1 1-1 2 2 0 0 1 1 1 5 5 0 0 1 1 3 9 9 0 0 0 0 2l2 2a20 20 0 0 1 3 1 17 17 0 0 1 3 4h1a25 25 0 0 0 5-1h1l2-1a10 10 0 0 0 1-3 5 5 0 0 1 1-1l7-1h4a19 19 0 0 0 6-3l2-1 1-1c0-2 1-3 3-4h1l7-3 8-4 2-1a62 62 0 0 1 6-3 4 4 0 0 1 2-1 11 11 0 0 1 1 0 10 10 0 0 0 1 1 7 7 0 0 0 3-1 9 9 0 0 0 3-2 5 5 0 0 1 3-2 7 7 0 0 1 1 0 11 11 0 0 1 3 0 13 13 0 0 1 3 2h1a11 11 0 0 0 7 3h5a10 10 0 0 1 3 0l2 3 1 2a9 9 0 0 1 1 3c0 1 0 2 5 3a45 45 0 0 1 6 1 8 8 0 0 0 2 0 4 4 0 0 0 1 0 2 2 0 0 0 1-1l4-1h1a38 38 0 0 1 9 2l3 1a34 34 0 0 0 4 1 11 11 0 0 0 2 0 6 6 0 0 0 1 0 5 5 0 0 0 2-1 9 9 0 0 1 2-1 8 8 0 0 1 3-1 4 4 0 0 0 2 0 9 9 0 0 0 2-4 14 14 0 0 0 1-4l-1-1a5 5 0 0 1-3-3 16 16 0 0 0 0-2 11 11 0 0 1-2-5 14 14 0 0 1 1-4 7 7 0 0 1 1-2 7 7 0 0 1 2-2 3 3 0 0 0 1-2 6 6 0 0 1 2-3 39 39 0 0 1 5-4 13 13 0 0 1 4-2l6 2 7 4a15 15 0 0 0 4 0 18 18 0 0 1 5 1 327 327 0 0 1 21 6v1c2 0 2 1 2 5v1c1 4 1 5 3 7a12 12 0 0 0 4 3 27 27 0 0 0 7 3l4 1a27 27 0 0 0 6 1 17 17 0 0 0 4-1 33 33 0 0 0 5-2 22 22 0 0 1 6-2 22 22 0 0 1 4 0h2a37 37 0 0 1 6 1 40 40 0 0 1 4 1 12 12 0 0 0 3 0h3a14 14 0 0 1 4 2 16 16 0 0 1 4 3l5 1a18 18 0 0 1 3 0c2 1 2 2 2 4a6 6 0 0 0 1 3 14 14 0 0 1 1 1c1 2 1 2 5 3a22 22 0 0 0 4 0h2a19 19 0 0 1 3 1l5 1 7 1 5 1a29 29 0 0 0 4 0 2 2 0 0 0 1 0l9-3a59 59 0 0 1 12-2 49 49 0 0 0 7-1 12 12 0 0 0 3-3 28 28 0 0 1 4-5 51 51 0 0 1 5-3 20 20 0 0 1 5-2h10c2 0 4 2 6 4l3 2a19 19 0 0 0 4-1 32 32 0 0 1 5-1 7 7 0 0 1 1 0l6 2a28 28 0 0 0 4 1l4 2 8 2 4-3 5-3a7 7 0 0 1 2 0h1a12 12 0 0 0 3-1 7 7 0 0 0 3-2 7 7 0 0 0 2-2 7 7 0 0 0 0-3 12 12 0 0 1 0-4 22 22 0 0 1 3-6l1-2 3-6a36 36 0 0 1 3-4l3-3a49 49 0 0 0 5-6 1 1 0 0 0 0-1 5 5 0 0 1 0-1 9 9 0 0 1 0-3 5 5 0 0 0 0-1v-1a1 1 0 0 0-1 0 2 2 0 0 0-1 0 16 16 0 0 1-3 0 4 4 0 0 1-2 0 5 5 0 0 1-1-2 3 3 0 0 1-1-2l4-4a65 65 0 0 1 6-5 14 14 0 0 1 3-2 9 9 0 0 1 3 0 9 9 0 0 1 1 0 5 5 0 0 0 1 0l11-2a61 61 0 0 1 7-1l11-2h1a12 12 0 0 1 2 1 15 15 0 0 1 4 1l4 2 3 1a8 8 0 0 1 1 1l2 1h2l2-1h3a8 8 0 0 1 2 1 18 18 0 0 1 4 2l6 5a2 2 0 0 1 0 2 2 2 0 0 0 0 2l2 2a10 10 0 0 1 2 2 20 20 0 0 1 2 4 3 3 0 0 1 0 2 6 6 0 0 0 0 2 9 9 0 0 0 2 3 16 16 0 0 1 1 3l1 2a14 14 0 0 0 1 3 4 4 0 0 1 2 1l1 5a8 8 0 0 0 2 3 19 19 0 0 1 1 2l2 2 3 7a5 5 0 0 1-1 2 3 3 0 0 0 0 2 13 13 0 0 0 1 2 7 7 0 0 0 0 2 15 15 0 0 0 2 2 6 6 0 0 0 1 1h8a10 10 0 0 1 3 1 18 18 0 0 1 3 1l4 2a3 3 0 0 0 1-1 3 3 0 0 1 2 0 7 7 0 0 1 1 0l6 5a21 21 0 0 0 3 4 7 7 0 0 0 4 1h3v2a2 2 0 0 0-1 2 3 3 0 0 0 2 1 3 3 0 0 1 2 3 8 8 0 0 1-1 4 5 5 0 0 0-1 2l1 1a4 4 0 0 1 2 1 6 6 0 0 1 1 2 8 8 0 0 1 0 2h19a1 1 0 0 0 1 0 8 8 0 0 0 1-2 4 4 0 0 1 1-2 9 9 0 0 1 3-1l1-1a19 19 0 0 1 5-1 26 26 0 0 0 6-2l3-1a25 25 0 0 1 3-1 10 10 0 0 1 2-1 6 6 0 0 1 3 1 8 8 0 0 1 2 1v7a12 12 0 0 1 2 2 3 3 0 0 1 0 3l-3 3-2 1a7 7 0 0 0-3 4v3a22 22 0 0 0-1 3 11 11 0 0 1-2 5 4 4 0 0 0-1 2 10 10 0 0 0 0 2 10 10 0 0 1-1 3 5 5 0 0 1-1 2 13 13 0 0 0-2 2 3 3 0 0 0-1 1 7 7 0 0 0 0 2 4 4 0 0 1 0 2 9 9 0 0 1-2 2 14 14 0 0 0-3 2 2 2 0 0 0-1 2c1 2 1 4-2 4a10 10 0 0 1-1 0 18 18 0 0 1-3 0 36 36 0 0 1-5-1 19 19 0 0 1-3-2 8 8 0 0 0-3-1 1 1 0 0 0-1 1 10 10 0 0 1-1 1 4 4 0 0 0-2 1 5 5 0 0 1-2 2 17 17 0 0 1-3 1 6 6 0 0 0-2 1v2l1 1v2a16 16 0 0 1 2 5v2a32 32 0 0 1 0 5v4a14 14 0 0 1-1 5 18 18 0 0 0 0 3l-2 3a11 11 0 0 1-5 2 9 9 0 0 0-2 1 18 18 0 0 0-2 1 10 10 0 0 1 1 2l1 1a8 8 0 0 0 2 2 2 2 0 0 0 1-1c0-2 1-3 3-4a5 5 0 0 1 1 0l2 2a1 1 0 0 0 1 0l2-4a15 15 0 0 1 4-6c2-2 3-2 5-2h2v1l1 5a2 2 0 0 0 2 1l4-1c3 0 2 3 4 4a2 2 0 0 0 1 0l5-2 10-5 11-6 6-7 4-7c2-3 8-6 11-11s4-3 8-7l8-8a31 31 0 0 1 6-9c3-2 4-4 4-6a22 22 0 0 1 2-6l6-6 3-6c2-4 3-4 5-5l6-5c2-2 0-3 1-5l2-6v-4l3-7-1-5 2-4-1-2v-13l2-5 2-3v-4l5-4 2-2v-4l1-2-3-2v-7l-1-3-4-2c-2-1-2-2-1-3v-1l2 2a4 4 0 0 0 3 1 5 5 0 0 0 2-1c2-1 2-2 1-4s-3-2-5-3l-5-3a23 23 0 0 1-4-3 16 16 0 0 1-3-5c-1-3-2-3-3-3a2 2 0 0 0-1-1l-3 1h-1a28 28 0 0 1-4 0 27 27 0 0 0-5 0c-2 1-1 1-1 3a5 5 0 0 1 0 3c0 2-1 1-2 3l-2 4-1 1h-1a3 3 0 0 1-1 0l-1-1 2-2a13 13 0 0 0 2-3v-2l-2 1a18 18 0 0 0-3 3l-3 2a2 2 0 0 1-2 1 16 16 0 0 1-1 0 4 4 0 0 0-1-1l-3 1a6 6 0 0 1-1 0v-3c0-2 3-1 4-2l1-3-2-1a2 2 0 0 0-2 0 6 6 0 0 0-1 0l-4 2-3 2a5 5 0 0 1-1 0v-2a5 5 0 0 1 0-3 6 6 0 0 0 1-3 20 20 0 0 1-1-3l1-3c0-2-1-1-3-3a4 4 0 0 0-2 0h-12a6 6 0 0 1-4-2c-1-1 0-2 2-4l6-5c2-2 4-1 8-3l11-8c4-2 6-5 8-7a24 24 0 0 0 6-4l1-7c0-3 6-4 8-8s7-4 10-7 6-3 9-4 3-2 4-5a19 19 0 0 1 7-10l12-9 10-5 12-4a19 19 0 0 1 4 0h24a8 8 0 0 1 3 0c2 1-1 2 0 3l1 1h1a4 4 0 0 1 1 0c2 0 3-1 3-2 1-2 2-3 4-3a5 5 0 0 1 1 0l5 2 5 2a5 5 0 0 0 2 0l3-1 7-1h1c3 0 3 1 5 2a3 3 0 0 0 1 1l1-1c1-1 0-2-1-3s0-1 1-1a2 2 0 0 1 1 0h2a1 1 0 0 0 1-1v-5l2-1h7l8 4a7 7 0 0 0 4 1h2l3-1a3 3 0 0 1 3 1c1 2 4 1 5 3s2 2 4 2 4 1 3 2l-2 1h-8l-4 1 1 4a2 2 0 0 0 2 1l4-1a17 17 0 0 0 5-2 18 18 0 0 1 6-1h1c2 0 2 2 4 3a2 2 0 0 0 1 0v-3a1 1 0 0 1 2-1h3c3 0 1-1 1-3a1 1 0 0 1 1 0l4 2 4 2a2 2 0 0 0 1 1l3-4a2 2 0 0 1 2-1l3 1a29 29 0 0 0 4 1 4 4 0 0 0 3-1c1-1 0-3-1-4a21 21 0 0 0-4-2 5 5 0 0 0-2 0 6 6 0 0 0-3 1 2 2 0 0 1-1 0 2 2 0 0 1-2-1l1-3c0-2-1-4 1-5s3-2 4-5 2-2 7-5l8-6a12 12 0 0 0 4-6l4-3 5-3 1-4 3-4c2-2 5-3 11-4a38 38 0 0 1 4 0h5l9-2a17 17 0 0 1 2 0c2 0 0 1 1 3a4 4 0 0 0 3 2 12 12 0 0 0 3-1c4-1 4-3 7-4a5 5 0 0 1 1 0c2 0 0 2 0 3 0 2-1 2-3 4s-1 1-2 4l-1 2h-1a2 2 0 0 0-1 0c-2 2 0 2 2 4s-1 1-1 3l2 2 2-1a4 4 0 0 1 1 1c2 0-1 2-1 5l1 1 4-2c3-1 4-3 6-6s4-2 7-6 8-4 11-7l3-2h2a5 5 0 0 0 1 0 4 4 0 0 1 1 0c2 0 2 2 3 2a2 2 0 0 0 1 0c2-1 2-1 2-3s-3-2-3-3l2-7 2-8 1-1h3l9-2a7 7 0 0 1 3-1l3 3c3 3 3 2 7 2a15 15 0 0 0 2 0h3l2 1-1 1h-3a7 7 0 0 0-1 0c-3 0 0 1-2 2a2 2 0 0 1-1 0l-6-2c-4 0-3 1-5 2s-3 2-3 5 0 6-2 9-1 2 0 4 1 3 0 5l-4 4c-1 2 1 3-1 5s-5 2-9 3l-9 3-4 2-2 4-6 6-9 6-10 9c-3 2-3 5-6 8l-5 7a12 12 0 0 1-5 4 10 10 0 0 0-5 3l-2 3a1 1 0 0 1-1 1l-2-2a3 3 0 0 0-2 0 27 27 0 0 0-3 0c-3 1-2 1-3 3s-2 1-4 1h-1l-5 2c-1 2 2 3 3 5s-1 2-2 4l-3 3a13 13 0 0 0-4 3l-6 6a64 64 0 0 1-2 8l-2 19a40 40 0 0 0 2 16l3 17 2 13c0 2 2 4 4 5s0 2 0 5a20 20 0 0 0 1 7v8c0 3 1 3 2 4v4l-1 2h1l4-4c1-2 3-2 6-4l6-7 5-5c2-2 4-4 4-6v-5l2-4c2-2 3-4 6-5l6-3a5 5 0 0 1 1 0 9 9 0 0 1 4 1 3 3 0 0 0 1 0l1-1-2-4c-1-2 0-1 1-3s-1-2-1-3l1-5 4-6c2-2 4-1 5-3s4-2 6-2l6 1 7-2c2-1 2-3 2-5s-1-2-3-3-1-2-1-4l-1-6c0-3 1-2 2-5l4-5 3-3c1-1 0-1-1-2s2-2 4-2a15 15 0 0 1 4-1h1v2l-3 2c-2 1-1 1-1 2l1 3a1 1 0 0 0 1 1l4-2c2 0 3-1 3-2a6 6 0 0 0-1-4l-1-4c0-2-1-2-2-3l-3-1-1-5v-5l2-3 3-4c1-1 2-2 0-3h-3c-2 0-1-1-2-2a3 3 0 0 0-2 0 7 7 0 0 0-1 0l-1 3-1 2h-1v-3c0-2-1 0-3-1a11 11 0 0 1-2-3v-4c0-2 1-2 3-4a14 14 0 0 0 2-3l3-4a21 21 0 0 1 4-2l2-2a7 7 0 0 1-1-2v-1h3l-1-1a2 2 0 0 1 1-2l2-1a3 3 0 0 0 0-2 15 15 0 0 1-1-3l1-3 1-2 3-1 1-2 2-2a4 4 0 0 1 1 0 4 4 0 0 1 2 1v1a2 2 0 0 0 1 2l1-1 3-2a3 3 0 0 1 2-1l2 3a9 9 0 0 0 2 3 1 1 0 0 0 1 0l1-2 2-1 2-3 3-2 3-2 6-3a5 5 0 0 1 3-1v1a5 5 0 0 0-1 2v2l-1 2-1 2a6 6 0 0 0 1 4h1l1-2 5-4 4-4 5-2 6-3a6 6 0 0 1 3-1l5 1 7-1h3a2 2 0 0 1 1 0 11 11 0 0 1 4 3c1 2 2 1 3 1v3l3 1v3l3 3a2 2 0 0 0 1 0l2-2a8 8 0 0 0 1-3 3 3 0 0 1 2-2l1-3 4-2 8-4 5-3 3-2 2-2 1-2 1-2 3-1 3-1v-2l5-2 4-1v-3a1 1 0 0 1 1 0h2l5-2a3 3 0 0 1 1-1l3 1a5 5 0 0 0 1 0l2-2 3-2c2-1 4 0 5-2l2-1 5-3 10-4a32 32 0 0 1 7-2v-4l1-2 3 1h2l-1 2-2 3h4l8 1 5 1 8 4a2 2 0 0 0 1 0l1-1 2-4 3-2v-4c0-2-1-1-3-2s0-1 0-3v-2l-2-2a12 12 0 0 1-3-2l-3-1c-2 0 0-1-1-3l-1-1h-2c-2 0-1-1-1-1l1-1h2l2-1a7 7 0 0 0-1-5 16 16 0 0 1-2-5l-3-3-4 2-3-2a8 8 0 0 1-3-2 8 8 0 0 1-2-2l-1-4-2-2a6 6 0 0 0-3 1 3 3 0 0 1-1 1h-5l-3 1-2 1h-1v-1l1-2v-2l-2-1a1 1 0 0 1 0-2h1a22 22 0 0 1 2 0c2 0 1 1 2 2a2 2 0 0 0 1 0 2 2 0 0 0 1-1 3 3 0 0 1 2 0 5 5 0 0 1 1 0 23 23 0 0 1 3 1 1 1 0 0 0 1 0v-1a2 2 0 0 0-1-2 2 2 0 0 0-1-1h-1a18 18 0 0 1-4 0l-1-1v-1h6l2 1a10 10 0 0 0 3 1l2 2 1 4c0 2 4 1 7 2a6 6 0 0 0 1 0l4-2a34 34 0 0 0 8-2l9-2c2 0 3-1 5-3l5-2c2-1 2-2 2-3l-4-2-2 1h-1v-2l6-2 4-2c1-1 0-1-1-2l-2-1a5 5 0 0 1-3-3v-6l1-1 2 1 1-1 2-1v-3l2-1 1 3 1 1a10 10 0 0 0 3-2l3-2h1l-1 4c-1 3 0 2-2 3s-3 1-3 3 2 2 4 3 1 2 2 4c0 1 0 2 2 2l5-1h4l13 1 8 2c3 1 3 2 4 6l4 6c1 2 2 2 3 2a13 13 0 0 0 2 0h1l6 2 6 2a29 29 0 0 0 5 5 6 6 0 0 0 3 1 4 4 0 0 0 2-1c2-1 1-2 1-4h1l1 3v4a1 1 0 0 0 1 1 3 3 0 0 0 3-2v-3a1 1 0 0 1 1 0l5 2a12 12 0 0 0 2 0l2-1c0-2-1-1-4-3a4 4 0 0 0-2 0h-1a5 5 0 0 1-1-1c-2 0-2-1-1-2l2-2h-1a10 10 0 0 0-3 1 4 4 0 0 1-1 0l-1-1 3-2 7-1a10 10 0 0 0 3-2c1-1 1-2-1-3a4 4 0 0 0-2-1h-1l-1-2h1a24 24 0 0 1 2 0l2-1v-2l-2-2-1-2a2 2 0 0 0-2-1h-1a2 2 0 0 1-1 0l1-2a3 3 0 0 1 1 0 20 20 0 0 1 3 1c2 0 2 1 3 2l6 1 8 1 2-1-3-2-3-3v-2h1l3 3 4 1a5 5 0 0 1 3 2 1 1 0 0 0 1 0l1-2c0-2 2-3 5-5l5-3c0-1 1-2-2-2l-4-1c-1-1 0-2-3-3a38 38 0 0 0-7-4l-7-6-6-5a4 4 0 0 0-2-1l-3 1-2 1a1 1 0 0 1-1 1l-4-2a5 5 0 0 0-2 0 5 5 0 0 0-3 1c-1 0-1 2-3 2v-2c0-2 2-2 2-3l-2-1h-3a63 63 0 0 1-6-1 10 10 0 0 0-1 0 6 6 0 0 0-3 1c-1 1-1 1 1 3l4 2v4l-2 2v1a31 31 0 0 1 3 2l2 2-3 3-1 1-1-1v-4l-1-1-2 2-2 2a1 1 0 0 1 0-1c-2 0 0-2-1-3l-4-3-2-2c0-1 2-1 2-3v-4l-2-5 1-3-1-3a1 1 0 0 0-1 0l-2 2-1 1a5 5 0 0 1-1 0l1-3c1-1 0-2-1-3l-3-4c-2-2-3-1-7-2l-8-5a40 40 0 0 0-8-3c-2-1-6-1-7-3s-2-2-4-3l-6-1c-2 0-3 0-5-2l-4-5c-1-2-5-4-7-4l-6-1-9-4c-4-1-8-5-12-7s-5-2-13-2-8-3-13-5l-7-3a6 6 0 0 0-1 0 35 35 0 0 1-9 1l-10-2-12-1a12 12 0 0 0-2 0l-2 1-1 3a1 1 0 0 1 0 1l-6-4a9 9 0 0 0-6-2l-12-1c-6 0-4-1-5-1l-6-1a4 4 0 0 0-1 0h-2l1 1a11 11 0 0 0 0 4c1 2 0 2-2 4a12 12 0 0 0-3 2c-1 2-1 2 1 2a6 6 0 0 0 1 0h3a3 3 0 0 1 1 0l2 5c1 3 3 3 3 5s0 3-2 4-1 1-1 3l-2 3-4-2a5 5 0 0 0-1 0l-6 1c-3 0-3-1-4-2l-3-5-8-2c-6-1-4-1-6-3s0-3-1-5l-2-3a8 8 0 0 0-4-2 2 2 0 0 0-1 0 19 19 0 0 0-5 2 5 5 0 0 1-3 1h-2a19 19 0 0 0-2 0 37 37 0 0 1-3 0 48 48 0 0 1-7 0 21 21 0 0 0-2 0h-4l-9-1-12-3a12 12 0 0 0-2 0h-7a31 31 0 0 0-8 1l-10 2a19 19 0 0 1-2 0 24 24 0 0 0-3-1l-4 1a46 46 0 0 1-6 1 20 20 0 0 1-7-2l-6-1-5-2a3 3 0 0 1 1-3 3 3 0 0 0 0-3c0-1 0-2 2-2s2-1 2-2l-2-6a22 22 0 0 0-3-5c-1-2-4-3-8-5a80 80 0 0 0-14-4 24 24 0 0 0-5-1h-18l-3-1-12 1-10 2c-4 0-10 1-13 3s-5 1-9 1a14 14 0 0 1-4 1 8 8 0 0 1-5-2l-6-2-1-1 1-1a15 15 0 0 0-2-3 6 6 0 0 1-2-3c-1-2-2-1-4-2a4 4 0 0 0-2-1h-1a5 5 0 0 0-2 1 4 4 0 0 1-3 1v-2l-1-1-1 1-3 3-3 1-1-1 3-2 3-2 1-2a6 6 0 0 0-1 0 10 10 0 0 0-4 0 2 2 0 0 1-1 0 5 5 0 0 1-2-1v-1s0-2-2-2a5 5 0 0 0-1 0h-2l-4-1a13 13 0 0 0-3 1 5 5 0 0 1-1 0 2 2 0 0 1-2-1 3 3 0 0 1 0-3 1 1 0 0 1 1 0l2 1 2-2a7 7 0 0 1 2-1l2 2 2 1a1 1 0 0 0 1 0l2-2 1-2-2-2a18 18 0 0 0-4-3l-6-3c-2-2-4-1-8-1l-7-1-9-1c-4 0-4 1-5 3l-3 4-4 3-4 4-5 1-3 1h-1a9 9 0 0 0-4 1l-3 1-1-2 2-1v-2l-1-2h1a18 18 0 0 1 4 1 2 2 0 0 0 1 1l2-1a6 6 0 0 0 2-1l-1-2a5 5 0 0 1-1-3l2-2s-1-2-3-2a36 36 0 0 0-5 1l-9 1v-2l3-2a14 14 0 0 1 4-2 3 3 0 0 1 2 1 12 12 0 0 0 3 1 7 7 0 0 0 2 0 12 12 0 0 0 2 0h6a10 10 0 0 1 3 0 6 6 0 0 0 1 0c2 0 4 0 3-1l-6-1-6-2-8-2a10 10 0 0 0-3 0h-2a31 31 0 0 1-8-1 33 33 0 0 0-6-1 21 21 0 0 0-3 0 18 18 0 0 1-2 0 37 37 0 0 1-5 0 31 31 0 0 0-4 0h-2a28 28 0 0 1-6-1 38 38 0 0 1-6-2 28 28 0 0 0-5-2h-8c-1 0-2 0-1 1l1 2 3 3 1 2h-2a3 3 0 0 0-1 0l-2 2a10 10 0 0 1-3 0 11 11 0 0 1-1 0l-4-1a5 5 0 0 0-3 1l-3 2a20 20 0 0 1-3 2 31 31 0 0 0-3 2 1 1 0 0 0-1 2 1 1 0 0 0 1 0 6 6 0 0 0 2 0 9 9 0 0 0 3-2 2 2 0 0 1 1 0 14 14 0 0 1 1 0 15 15 0 0 0 2 0h2a1 1 0 0 1 1 2v1l-1-1a5 5 0 0 0-2 2 15 15 0 0 0-2 2 3 3 0 0 1-2 1h-3l2 1a2 2 0 0 1 2 2 40 40 0 0 0 1 4l3 4c1 1 0 2-1 2l-4-1a8 8 0 0 0-1 0 2 2 0 0 0-2 1 2 2 0 0 1-2 1 2 2 0 0 1-1 0v-3a3 3 0 0 0-3-2 6 6 0 0 0-4 1 3 3 0 0 1-1 1 1 1 0 0 1-1-1 2 2 0 0 0-2-1 4 4 0 0 0-1 1 9 9 0 0 0-3 2 3 3 0 0 0 0 3l2 2-2 1-2 2-1 1a4 4 0 0 1-1 0c-2 0-2-2-3-3l-4-4-5-1a7 7 0 0 1-4-1l-3-2a14 14 0 0 0-5-1 6 6 0 0 0-1 0 6 6 0 0 1-1 0 7 7 0 0 0-4 1l-5 1c-3 0-4 1-5 2a3 3 0 0 0-1 2l-1 2-1-2a2 2 0 0 0-1 0h-4a33 33 0 0 1-7-1 51 51 0 0 1-10-5c-2-2-3-3-3-5l-2-2a2 2 0 0 0-1 0c-2 1-3 2-4 5l-4 8-2 6-4 4-5 5a2 2 0 0 1-2 1 3 3 0 0 1-1 0l-2-3a2 2 0 0 0-1-1h-3a17 17 0 0 1-5-1l-6-3v-3c-1-1 0-2-3-4l-4-3-5-4c-1-1 1-1 3-2l2-1h1l3 1a1 1 0 0 0 0-1c1-1 0-1-1-2l-3-3a2 2 0 0 0-1-1 1 1 0 0 0-1 1 13 13 0 0 1 1 3l-1 1h-3c-1 0-2 0-3-2a36 36 0 0 1-4-5c-1-2-2-4-1-5a1 1 0 0 1 1 0l4 2 5 2a12 12 0 0 0 2 0 11 11 0 0 0 3 0 4 4 0 0 0 2-3 6 6 0 0 0 0-3 5 5 0 0 0-2-2 5 5 0 0 0-3-2h-8l-1-2a1 1 0 0 1 1 0h2l2-1 3-2 2-1-2-1-3-2a8 8 0 0 0-3 0 2 2 0 0 1-2-2l1-1a20 20 0 0 1 4-1 25 25 0 0 0 2-1 2 2 0 0 0 1-3l-3-2a38 38 0 0 0-6-3 32 32 0 0 1-5-2 21 21 0 0 0-4-3h-5a29 29 0 0 0-3 0 9 9 0 0 0-2 0l-3 3-1 1h-2a4 4 0 0 1-1 0 8 8 0 0 1-2 0l-1-2 1-1-1-2a7 7 0 0 0-2 0h-5a15 15 0 0 0-1 0 21 21 0 0 1-3 0h-1a2 2 0 0 1-3-1 16 16 0 0 0-2-2 13 13 0 0 0-3-2l-3-1a1 1 0 0 1-1-1l1-2c1-1 0-1-1-1a3 3 0 0 0-2 1v3l-2 1-3 1-1 1-2 1a12 12 0 0 1-1 0c-2 0-1-1-1-2a1 1 0 0 0-1 0 3 3 0 0 0-2 1c-1 1-2 2-1 3s0 1-1 3 1 2 2 3l2 3-2 2-2 3c-1 2-1 2-3 2h-1a16 16 0 0 1-7-1 7 7 0 0 0-2-1 61 61 0 0 0-8 1 24 24 0 0 1-3 0h-20l-5-1-9-3-7-2c-2-1-2-3-2-4l3-3 4-1c0-1-2-2-6-2h-11a77 77 0 0 1-12-1 103 103 0 0 0-12-1l-7-1a6 6 0 0 0-1 1 57 57 0 0 0-7 2l-10 1-6 2 1 3-2 2a1 1 0 0 1-1 0l-2-3-2-3 3-4c1-1-1-2-3-4l-3-3-1 3-3 3a5 5 0 0 1-2 0 14 14 0 0 1-5-1l-7-2c-4-1-3-2-4-3s1-3 0-3a1 1 0 0 0-1 0l-5 1a11 11 0 0 1-2 1l-5-1h-3a17 17 0 0 0-3 0l-3 2-3 4 2 3a1 1 0 0 0 1 0l5-1a24 24 0 0 0 6-1 11 11 0 0 1 3 0 3 3 0 0 1 1 0l-4 3a17 17 0 0 1-8 3h-8c-1 0-3 0-2 2s-2 2-3 2a38 38 0 0 1-9 1l-8 4a21 21 0 0 1-3 0h-4l-11 2a8 8 0 0 0-4 1c-2 1 0 2-1 3l-1 1h-1a6 6 0 0 0-1 0l-4 1a10 10 0 0 0-5 2 3 3 0 0 1-2 1 2 2 0 0 1-1 0l1-2 7-3c2-1 3-2 3-4a16 16 0 0 1 3-5 3 3 0 0 1 3-1h3l5-1c2 0 1-4 2-4l3-3a2 2 0 0 1 1 0h4l6-2a52 52 0 0 0 6-4c2-2 6-2 8-3a25 25 0 0 1 6-3l6-3c1-1 0-2-1-3l-2-1 2-1a21 21 0 0 1 7-3 6 6 0 0 1 1 0l3 1a2 2 0 0 0 0-1l8-5 11-5 7-4c2-1 8-3 9-5s5-2 6-4l1-3a3 3 0 0 0-2-2h-2l-1-1a1 1 0 0 0-2-1l-2 1a2 2 0 0 1-1 1 3 3 0 0 1-1-1l-1-3-1-2-4-1c-2-1-2-2-1-3a1 1 0 0 1 1 0l4 2 4 2 3 2a2 2 0 0 0 1 0h1a7 7 0 0 1 1 0c3 0 1 1 2 2a1 1 0 0 0 1 0l1-1v-3l2-3a2 2 0 0 0-2-2l-2 1-1-2v-1l-1-3-2-2-2-3c-1 0-2 1-1 2s0 1-1 2l-2 2-1-3-1-3-1-2-5-3a33 33 0 0 0-5-2 42 42 0 0 1-4-2l-3-3a2 2 0 0 0-1 0h-1a3 3 0 0 1-1 0 5 5 0 0 1-2-1l-4-1h-1a10 10 0 0 0-4 1 17 17 0 0 1-6 1 10 10 0 0 1-4-1 5 5 0 0 0-2 0h-4l-5-1a11 11 0 0 0-2 1 18 18 0 0 1-4 0h-3a7 7 0 0 0-4 1v3c0 1-1 2-4 2a7 7 0 0 1-2 1l-2-1a9 9 0 0 0-4 1 12 12 0 0 1-3 1h-1l-2-1a11 11 0 0 1-2-1v-2l4-2 3-3 3-2 3-3-2-1a12 12 0 0 0-5-2h-1l-3 2-5-2a4 4 0 0 0-1 0l-2 1a4 4 0 0 1-3 1h-1c-2 0-2 0-1-1l2-2-2-1-4 1a9 9 0 0 1-2 0h-3l-7 1h-1c-2 0-3-1-3-2l4-1a43 43 0 0 0 7-1l6-2 4-3a3 3 0 0 1 2 0h2l2-1-3-3-4-2-8-2a53 53 0 0 1-6-1 23 23 0 0 0-6-1ZM103 505a1 1 0 0 1-1 0l-2-3-4-4v-3a12 12 0 0 0 3 2l5 3 8 2c2 1 2 1 2 4l-2 5c-1 1-2 1 0 3s4 2 3 4c1 3 0 2 3 5s4 1 4 3-1 3 0 4 0 4-2 5-1 2-5 2h-4l-2-1c0-2 2-1 2-3s1-3-3-4-4-1-6-4-5-4-7-6 1-1 1-2l-2-4-2-4c0-2-2-2-2-3h1a3 3 0 0 1 1 1c1 1 2 1 2 3s1 2 3 3c1 0 2-1 1-3s-2-2-1-3v-4l1 2 3 4 2 4a1 1 0 0 0 0-1l1-1h2a1 1 0 0 0 1 0l1-3-1-4a1 1 0 0 0-1 0 6 6 0 0 1-3 1Zm-63 20c2 0 3 0 4-3a4 4 0 0 1 3-1 4 4 0 0 1 3 1c2 2 5 1 7 4s4 3 6 4 6 2 7 5l3 5c2 2 1 3 0 5l-1 1h-1a1 1 0 0 0-1 0v5a2 2 0 0 1-2 2 6 6 0 0 1-3-1 9 9 0 0 0-5-2 4 4 0 0 0-2 0c-2 1-2 4-2 6s-1 2-3 2h-1c-2 0-2-2-3-4s0-4-2-6l-4-7c-1-4-3-4-5-5l-4-3a1 1 0 0 1 1-2l2-4c0-2 1-2 2-2h1Zm1012 195a30 30 0 0 1-9-2c-3-1 0-3 3-4l13-3c5-1 7-2 10-5s1-4 4-6l7-3c2-2 2-1 2-4s1-2 3-4l12-8 15-19c3-4 2-5 4-13s4-6 6-8a4 4 0 0 1 2-1c1 0 2 0 2 2 0 3 0 7-2 13l-3 7c-2 3-1 7-1 9a16 16 0 0 1-2 8 1 1 0 0 1-1 1l-5-3c-2 0-2 2-3 4l1 2h2c2 0 1 2-2 3s-4 3-5 6-4 3-7 4l-6 3a20 20 0 0 1-7 4c-3 1-6 1-7 3l-5 8c-2 2-10 4-16 5a26 26 0 0 1-5 1ZM550 148a6 6 0 0 0-2 0 48 48 0 0 0-7 2l-7 2c-3 0-6 1-7 3l-1 4a11 11 0 0 0 1 3 3 3 0 0 1-1 0 12 12 0 0 0-5-1h-2a4 4 0 0 0-2 1 18 18 0 0 1-5 3l-5 1-4 1-3 2a18 18 0 0 1-3-1l-3-1a4 4 0 0 0-2 1c-3 1-3 3-5 3a2 2 0 0 1-1 0l-3-1a11 11 0 0 0-5 1 4 4 0 0 1-1 0l-3-1a8 8 0 0 0-2 1l-1-1c-1-1-2-2-5-2l-5 1c-2 0-2 1-2 3s2 2 0 3l-5 1a2 2 0 0 1-1 0l-2-2-2-1-3 2c0 1 2 2 1 3a5 5 0 0 1-2 0h-5a18 18 0 0 0-7 1 34 34 0 0 1-4 3l-6 2-4 1a10 10 0 0 0 0 3c1 1 0 1-2 1l-5 2 1 3v2a5 5 0 0 1-1 0 4 4 0 0 1-2 0 25 25 0 0 0-5-2 17 17 0 0 0-3 1s-1 1 0 1 1 2 0 2l-3 3-2 1-2-1-1-1a3 3 0 0 0-1 0 11 11 0 0 1-2 1l-1-1a2 2 0 0 0-1-1h-1v2h1v1c1 1-1 2 1 2h3l2-1v1l2 1c1 0 2 1 1 2a13 13 0 0 1-3 0l-5 1s0 2 2 2l2-1a8 8 0 0 1 1 1l3 1 5 2-2 1a15 15 0 0 1-3-1l-4-1a14 14 0 0 0-5 1c-2 0-4 0-3 1a3 3 0 0 0 2 2l4 1c4 1 3 2 1 2a36 36 0 0 0-4 0h-3a4 4 0 0 0-3 0v2h2a1 1 0 0 1 1 1v1h-6c0 1-1 2 1 2a24 24 0 0 1 5 2l2 1-2 1h-1l-4-1a37 37 0 0 0-4-1 1 1 0 0 0-1 0 11 11 0 0 1-2 2l-2 2-2 2a7 7 0 0 0-3 1 11 11 0 0 0-3 2 3 3 0 0 1-2 1h-2l2 1 4 1h7a33 33 0 0 0 5 0 12 12 0 0 1 2-1h1l-2 2-4 1-3 1-4 1c-2 1-4 1-4 3-1 1 0 1 1 1l3-1a14 14 0 0 1 4 0 11 11 0 0 1 2 0l3 1 4 1h4a2 2 0 0 0 1 0c2 0 1-1 2-2h1a3 3 0 0 1 2 2l3 2a12 12 0 0 0 3 0l2-1 2-2 3-2-1-1c-1 0-4-2-3-3a1 1 0 0 1 1 0 10 10 0 0 1 2 1 11 11 0 0 0 4 0 5 5 0 0 0 2-2 2 2 0 0 0-2-2 15 15 0 0 0-5-1h-2l-3-1c0-1 0-2 2-2h2a14 14 0 0 1 2 1l7 1 2 2a2 2 0 0 0 1 0 3 3 0 0 0 2-3l-1-2c-1-1-1-3-3-3s-4 1-3-1l2-2 3 3 4 1a1 1 0 0 0 1 0l1-3 1-2h3a1 1 0 0 0 1 0 3 3 0 0 0 1-3l-1-3a13 13 0 0 0-2-2c-2 0-3-1-3-2l2-1a2 2 0 0 1 1 1l5 2a15 15 0 0 0 4 1 2 2 0 0 0 1-3v-4a2 2 0 0 1 1 0 6 6 0 0 1 3 2 5 5 0 0 0 3 2 2 2 0 0 0 2-2l-1-2c-1-1-3-1-2-2a2 2 0 0 1 1 0 3 3 0 0 1 2 1l2 1h2l2-1 1-2 2-3v-1l1-2a10 10 0 0 0 3 0l2-2a12 12 0 0 1 2-3 15 15 0 0 1 2-2l2-1 2 2a3 3 0 0 0 3-1 12 12 0 0 1 2-3 11 11 0 0 1 4-1l7-2 17-4 21-6 17-5a53 53 0 0 1 10-2c3 0 8-3 11-4l6-4 5-7a2 2 0 0 0-2-3l-1-3-4-2h-3a11 11 0 0 1-4-1l-3-1Zm1109 7h-2l-1 3c-1 1-3 1-1 1a5 5 0 0 0 3-1l3-1a9 9 0 0 0 4-1l-1-1h-5Zm-134 17-3 1-4 3a2 2 0 0 1-1 0l-1-2-1-1a3 3 0 0 0-1 1l-3 2a8 8 0 0 1-5 2c-2 0-2 1-3 2v4l-2-1-3 2-1 2 3 1v5l2 2-3 1a5 5 0 0 1-3-1 1 1 0 0 0-1 0v2l5 4 4 5a14 14 0 0 0 6 3l6 2 6 2a3 3 0 0 0 1 0l5-1 4-2c1 0-2-3-1-4l1-1h3c2 0 2 2 3 3a3 3 0 0 0 2 1 3 3 0 0 0 1 0c1-1 4 0 6-2s4 0 7-1l6-1 4-2a3 3 0 0 1 1 0 4 4 0 0 1 3 2c1 1-1 0-1 2s3 2 4 3a2 2 0 0 0 1 0l2-1 2-2a3 3 0 0 1 2-1l5 1h1l3-1-4-1a18 18 0 0 1-5-3l-5-2c-2-1-3-1-3-3l-3-4a3 3 0 0 1 0-5l3-2a2 2 0 0 1 1-1h7l1 5-4 1-2 1 1 4 4 4 5 2a27 27 0 0 1 5 1 11 11 0 0 0 5 0 8 8 0 0 0 4 0l3-1 1-3 2-1a2 2 0 0 0 1-3c-1-1-2-1-1-3s2 0 3 0c2 0 4-1 4-3s-5-2-7-3l-9-3a48 48 0 0 1-8-3l-9-2-9-1a24 24 0 0 1-7-3 11 11 0 0 0-3-1h-1c0 2 2 3 1 4a1 1 0 0 1-1 1 5 5 0 0 1-2-1 4 4 0 0 0-2 0 3 3 0 0 0-3 1v6c0 2 1 1 2 2l-1 1h-1a8 8 0 0 1-3 0l-1-3a4 4 0 0 0-3-1 26 26 0 0 0-4-1l-5-1c-3-1-2-3-5-5a30 30 0 0 0-3-3 1 1 0 0 0-1 0Zm-46 7c-1 0-1 6-3 8a5 5 0 0 0 0 3l-1 4h1a25 25 0 0 0 6-1 3 3 0 0 0 2-3v-3l-3-4-2-4Zm147 10a3 3 0 0 0-1 0l-2 3a6 6 0 0 0-1 3l-1 4 4 1a22 22 0 0 1 6 3l8 2a69 69 0 0 1 7 3 33 33 0 0 0 7 2 17 17 0 0 0 2 1 4 4 0 0 0 2-1 3 3 0 0 1 2 0l5 1a46 46 0 0 0 4 0 13 13 0 0 0 4-1l5-2c3-1 5 0 6-2l2-3c1-1 1-3-1-3h-1l-2 1a15 15 0 0 1-4-1l-2-2a3 3 0 0 0-1-1l-2 1a12 12 0 0 1-4-1 15 15 0 0 0-5 0l-4 1a5 5 0 0 1-2 1 7 7 0 0 1-3-1c-2-1-2-2-1-3s0-2-2-2h-4a9 9 0 0 1-3 0 8 8 0 0 0-2-1l-2 1-4 1-2 1-4-1c-3-1-1-1-1-1s0-2-1-3l-2-1Zm-825 21a1 1 0 0 0-1 0l-1 2-2 2a1 1 0 0 0 1 0 18 18 0 0 1 2 0 34 34 0 0 1 3 1 11 11 0 0 0 2 0 3 3 0 0 0 1-1l1-1-3-1c-1 0-2 0-3-2Zm-9 0a2 2 0 0 0-1 0h-1a2 2 0 0 1 0 1h-1l1 1a28 28 0 0 1 3 0h1l1-1-1-1a3 3 0 0 0-2 0Zm368 7-2 1a4 4 0 0 0-3 1v2a2 2 0 0 1-2 1 3 3 0 0 1-1 0l-2 2a29 29 0 0 0 4 2 13 13 0 0 0 4 1l4 2a3 3 0 0 0 2 0l2-1a14 14 0 0 0 1-3l6-2c3 0 2-2 2-3l-5-1h-5l-3-1a7 7 0 0 0-2-1Zm385 7a6 6 0 0 0-2 0c-3 1-3 2-3 3a6 6 0 0 0 1 4l2 2h2a4 4 0 0 0 1 0l4-2 2-1v-3l-2-2a12 12 0 0 0-5-1Zm-68 1 1 3c1 0 2 0 3 2a5 5 0 0 0 4 3c1 0 2-1 1-2a12 12 0 0 0-4-3l-4-2a4 4 0 0 0-1-1Zm84 9h-1a18 18 0 0 0-7 1c-2 1-4 1-5 4s-2 3-3 4l-7 2-5 1 4 2h1l6-1 5-1a5 5 0 0 1 2 0l6 2a14 14 0 0 0 7 2l8 1a28 28 0 0 0 7 1 25 25 0 0 0 3 0 2 2 0 0 0 2-1c1-2 2-3 0-4l-4-5-6-4-5-4a52 52 0 0 0-8 0Zm-968 9a4 4 0 0 0-4 2l-4 2a8 8 0 0 1-1 0h-1l-2 1a14 14 0 0 0 0 4l-1 3v2a4 4 0 0 0 1 0l4-2a15 15 0 0 1 4 1l4-2a9 9 0 0 1 4 0 10 10 0 0 1 2 0 7 7 0 0 0 2 0c2 0 3-1 3-2-1-2 0-3-2-3l-3 1a2 2 0 0 1-1 0c-1-2-2-3-1-4s2-1 0-2l-3-1a4 4 0 0 0-1 0Zm-216 7h-4a49 49 0 0 0-6 0 52 52 0 0 1-7 1 46 46 0 0 0-7 1c-2 1-2 2-2 3v5a1 1 0 0 1-1 0h-4c-2 0-1 1-3 2a9 9 0 0 0-3 2s2 2 4 2l4 1v1a2 2 0 0 1-2 2l-2 2-1 3-3 1v4l-2 2a7 7 0 0 1-2-1l-5-2-4 5v8c0 2 1 2 2 2h10a1 1 0 0 0 1 0 3 3 0 0 1 2-1v3c0 2 2 1 3 1a3 3 0 0 0 1 0l2-2c1-2 2-1 3-1a9 9 0 0 1 1 0c2 0 1 2 0 3s0 2 1 3a1 1 0 0 0 1 1l3-3 2-1a1 1 0 0 1 1 1c1 1-1 1-2 2a4 4 0 0 0-2 2l3 3c1 0 2 0 1 2a1 1 0 0 1-1 1l-2-1 1 3c1 1-1 1-3 1a5 5 0 0 1-1 0c-2 0-2 1-2 2h5l3 1a19 19 0 0 1 6 2c3 0 1 0 2 2l1 1 1-2c0-2-1-2-2-3l1-1 4 1 2 3 2 2a2 2 0 0 0 1 0l1-2 3-2h1l2 2a2 2 0 0 0 1 1 4 4 0 0 0 2-1 2 2 0 0 1 1 0h3l3 1-1-2-1-1a1 1 0 0 1 1 0 6 6 0 0 1 3 1l4 1 4 1a2 2 0 0 0 1-1 23 23 0 0 1 4-2c2 0-1-2-3-3l-5-1-5-4-5-4c-2-2-3-2-3-4l-3-7-1-2a8 8 0 0 0-4-2c-2-1-2-2-2-3l3-1c2-1 0-1 1-3s0-2 0-3l-2-2v-2a3 3 0 0 1-1 0l-1-2a1 1 0 0 1 1 0l1-1-2-2c-2-1 1-1 1-1l2 1h1l2-1 1-2-2-1-1-2v-1l2 1a5 5 0 0 1 3 1 1 1 0 0 0 1 0h1l1-1a10 10 0 0 0 1-2l-1-1a8 8 0 0 0-2 1 4 4 0 0 1-2 0l-1-1c-1-1 0-1 1-1l3-1c1-1 0 0-1-1s1-1 1-2a2 2 0 0 1 1 0h3a3 3 0 0 0 1 0c2 0 1-1-3-2l-5-1a50 50 0 0 0-5-2 16 16 0 0 0-5 0Zm1243 26a1 1 0 0 0-1 0v2l1 1a3 3 0 0 0 1 1 1 1 0 0 0 1 0l1-1a1 1 0 0 1 1 0v1a7 7 0 0 1-2 2l-2 1v2a4 4 0 0 0 1 1 1 1 0 0 0 1-1l1-2a10 10 0 0 1 2-2 4 4 0 0 0 2-1c1-2 0-2 2-2l2-1-2-1h-3a4 4 0 0 0-1 0h-3l-2-1Zm477 18a4 4 0 0 0-2 1 11 11 0 0 1-5 1h-5c-2 0-3 0-5 2-3 2 0 2-5 3s-6 0-6 3-3 1-3 4 1 4 3 4a13 13 0 0 0 2 0 19 19 0 0 0 5-1c4-1 3-2 7-2h1l7 1 5 1a20 20 0 0 0 2-1l7-1c4 0 9-1 10-3l3-4-3-1c-2-1-4-1-4-3-1-2-1-3-3-3h-1l-4 1a4 4 0 0 1-2-1 9 9 0 0 0-4-1Zm-590 2h-2a4 4 0 0 1-1 0h-2a5 5 0 0 0-1 0v1l3 1 1 1a1 1 0 0 0 1-1v-1l1-1Zm-1166 4c-1 0-3 0-2 1l2 2a15 15 0 0 1 4 4l2 2a4 4 0 0 0 2 1l1-1v-3c1-1 2-2 1-3l-3-1-3-2a2 2 0 0 0-1 0h-1a6 6 0 0 1-1 0 4 4 0 0 0-1 0Zm1477 11-1 1 1 1a2 2 0 0 0 1 0h2l-2-1a3 3 0 0 0-1-1Zm14 3v1h2a1 1 0 0 0 0 1l1-1-2-1a1 1 0 0 0-1 0Zm11 3a2 2 0 0 0-1 0s-1 0 0 0h1a1 1 0 0 1 0 1 3 3 0 0 0 2 0l-2-1Zm-1412 5-3 1-3 1 2 2c1 1 0 2-1 2s-4 0-4 2 3 2 5 3l3 3 1-2 4 3a5 5 0 0 0 2 0h2l5 2a3 3 0 0 0 1 0l3-2 1-4-3-1-3-3-5-2c-2 0-2-1-3-3l-4-2Zm1498 11-3 1a3 3 0 0 0-1 0 6 6 0 0 0-2 0l-2 1-2 2c0 1 0 2 2 3l4 1 3 1a7 7 0 0 0 4 2 10 10 0 0 0 1 0 7 7 0 0 0 4-1l1-3c1-2 3-4 0-4s-4 0-7-2a3 3 0 0 0-2-1ZM63 334h-1l1 3a5 5 0 0 1 2 2l2 2a14 14 0 0 0 4 2 2 2 0 0 0 1-1l4-2c1-1 1-1-2-1h-3a4 4 0 0 1-3-1l-3-3-2-1Zm233 11a2 2 0 0 0-2 1l-5 1a8 8 0 0 0-4 4 10 10 0 0 0-1 5c0 3-1 4 1 5s3 0 5 1a5 5 0 0 0 4 2 3 3 0 0 0 1 0l3-3c2-1 4 1 5-2l3-4 3-1v3l1 1 1-1c1-2 2-3 1-4s0-2-2-2h-2a3 3 0 0 1-3-2c-1-1-2-3-5-3l-5-1Zm1902 131c-2 0-1 2-1 4v3c0 2 2 2 3 2a2 2 0 0 0 1 1 5 5 0 0 0 2-1 11 11 0 0 1 5-2 4 4 0 0 1 3 2 5 5 0 0 0 4 1l3 1c1 0 0 2 2 2s2 1 3 2 1 2 2 2h1c2 0 1-1 2-3a2 2 0 0 1 2-1 20 20 0 0 1 3 0 10 10 0 0 0 2 1 11 11 0 0 0 3-1l-1-3a21 21 0 0 1-3-2l-5-1-6-2a11 11 0 0 0-5-2 6 6 0 0 0-1-1l-5 2a4 4 0 0 1-1 0h-2a29 29 0 0 1-5 0c-2-1-2 0-3-2a3 3 0 0 0-3-2Zm-326 96a8 8 0 0 0-4 1c-1 2-1 2-3 2l-3 1 2 1c1 1 2 1 0 1s-2 1-2 2l-1 3-2 1c-1 0-2 2-1 3a5 5 0 0 0 1 0 3 3 0 0 0 3-1c1-2 0-3 3-4h4l2-2 4-2-1-3v-2a3 3 0 0 0-2-1Zm-297 95-1 2a5 5 0 0 1-1 0 21 21 0 0 0-3 0c-1 0-2 0-1 1l2 2 3 1a3 3 0 0 1 0 3l-1 2 2 1v1h-1l-1 2 1 1a5 5 0 0 1-2 2l-2 1a2 2 0 0 1-1-1l-1-2-2-1-1 1-1 2a2 2 0 0 1-1 0h-1v4a5 5 0 0 1 2 3 10 10 0 0 1-1 5l-1 5v6l-1 5a14 14 0 0 0 3 5l3 5 1 3-2 4v4l1 6a22 22 0 0 0 1 6l-1 7-1 4-1 5a17 17 0 0 0-2 5c0 3 0 4 2 6a8 8 0 0 1 2 5 8 8 0 0 0 0 4c1 1-1 3-2 4s-2 1-1 3a22 22 0 0 1 2 7l-1 2a12 12 0 0 1-2 4l-1 6a8 8 0 0 0 1 3l2 6a2 2 0 0 0 2 1l1-2a15 15 0 0 1 1-6 12 12 0 0 1 3-5l2-1 1 2 1 1h2l3-1a2 2 0 0 1 1 1c1 0 2 0 2 2s-1 4 0 5a1 1 0 0 0 1 0l1-3v-8l-3 1a4 4 0 0 1-1 0l-1-1v-4l-2-3-4-4-3-6c-1-3 0-4 2-6a35 35 0 0 0 2-8l2-6c0-3 2-5 3-6a23 23 0 0 1 3-1l1-1a3 3 0 0 1 2-1 4 4 0 0 1 2 1c1 1 1 2 3 2h3l1 1 2 3 4 7v-1c1-1 1-2-1-4a26 26 0 0 1-1-4l-2-4-2-4a39 39 0 0 1-3-8l-3-10-2-8a7 7 0 0 0-3-4l-1-7-1 2a5 5 0 0 1-1 0l-1-3v-6c0-2-2-3 0-6l2-5-2-4c-2-2-1-6-2-7s1-2 1-2v1a3 3 0 0 1 1 2l1 3 1-2-1-2a17 17 0 0 1 0-3l-1-1-2-4-2-3v-3l2-2a5 5 0 0 0-2-3l-2-2Zm183 66a4 4 0 0 0-1 0c-2 0-5 3-5 5-1 2 0 2-3 2a12 12 0 0 1-2 0h-1a2 2 0 0 0-1 1v5l5-2 3-3 3-2c2-1 2-1 2-3v-3Zm-18 21-3 3c-1 0-1 2 1 2s2 0 3-2l-1-3Zm-9 12-1 2-1 1 1-1 2-1-1-1Zm-12 14a1 1 0 0 0-1 0 1 1 0 0 0 0 1 3 3 0 0 0 1 1 1 1 0 0 0 1 0v-2a2 2 0 0 0-1 0Zm-3 5-1 1v1a1 1 0 0 0 1 0l1-1-1-1Zm-7 8a3 3 0 0 0-1 0v1l1-1c1 0 0 0 0 0Zm-4 4-3 2-1 1a9 9 0 0 0-3 1v1a1 1 0 0 0 2 0l1-1a6 6 0 0 0 2-1l1-2 1-1Zm-23 15-4 2a5 5 0 0 0-4 2l-2 3a12 12 0 0 0-3 3l-1 1 3-2a24 24 0 0 1 4-2l4-3c3-1 3-1 3-3v-1Zm-25 13a2 2 0 0 0-1 0 15 15 0 0 1-2 2l-1 1a3 3 0 0 0 1 1 4 4 0 0 0 1-1 18 18 0 0 1 3-1l1-1a2 2 0 0 0-2-1Zm-11 2a1 1 0 0 0-1 1l-3 3-1 1 1 2h1l3-2 3-1v-2l-2-1-1-1Zm-6 7a2 2 0 0 0-1 0 12 12 0 0 1-2 2 6 6 0 0 0-3 1l-1 2-1 3v1l1-1 4-3a5 5 0 0 0 2-2l1-2v-1Zm-19 8a1 1 0 0 0-1 0c-1 1 0 2-2 3l-3 3a8 8 0 0 0-2 4v1l2-2a35 35 0 0 1 3-2 15 15 0 0 0 3-3l3-2 3-1h-3a3 3 0 0 1-2-1 2 2 0 0 0-1 0Z" style="fill:#999"/></g></svg>