<svg width="47" height="46" viewBox="0 0 47 46" fill="none" xmlns="http://www.w3.org/2000/svg">
<path fill-rule="evenodd" clip-rule="evenodd" d="M23.2856 46C35.9882 46 46.2856 35.7025 46.2856 23C46.2856 10.2975 35.9882 0 23.2856 0C10.5831 0 0.285645 10.2975 0.285645 23C0.285645 35.7025 10.5831 46 23.2856 46ZM27.1005 7C31.195 7 35.0458 8.59406 37.9463 11.4884C40.8407 14.3889 42.4285 18.2397 42.4285 22.3342C42.4285 26.4288 40.8344 30.2795 37.9401 33.1739C35.0458 36.0682 31.195 37.6622 27.1005 37.6622C24.5062 37.6622 21.9557 37.0059 19.699 35.7619L10.4285 39.0063L13.6729 29.7357C12.4289 27.479 11.7725 24.9285 11.7725 22.3342C11.7725 18.2397 13.3665 14.3827 16.2609 11.4884C19.1552 8.59406 23.0059 7 27.1005 7Z" fill="#FFF000"/>
<path d="M33.1332 23.8221C32.4018 23.0907 31.2078 23.0907 30.4764 23.8221L29.6325 24.666C27.5758 23.5533 25.8818 21.8529 24.7628 19.7963L25.6067 18.9524C25.963 18.5961 26.1568 18.1272 26.1568 17.6271C26.1568 17.127 25.963 16.6519 25.6067 16.3019L23.3938 14.0889C23.0375 13.7326 22.5686 13.5388 22.0685 13.5388C21.5684 13.5388 21.0933 13.7326 20.7433 14.0889L18.9742 15.858C17.974 16.8582 17.9302 18.5836 18.8429 20.7152C19.643 22.5781 21.0996 24.6222 22.9562 26.4788C24.8128 28.3355 26.857 29.7982 28.7198 30.5921C29.7388 31.0297 30.6577 31.2423 31.4579 31.2423C32.333 31.2423 33.0519 30.9797 33.577 30.4546L35.3461 28.6855C35.7024 28.3292 35.8962 27.8604 35.8962 27.3603C35.8962 26.8602 35.7024 26.3851 35.3461 26.035L33.1332 23.8221ZM32.2518 29.1356C31.8579 29.5294 30.764 29.4294 29.4637 28.8668C27.8134 28.1604 25.9755 26.8414 24.2877 25.1473C22.5999 23.4533 21.2746 21.6154 20.5682 19.9713C20.0119 18.6711 19.9056 17.5771 20.2994 17.1833L22.0685 15.4142L24.2815 17.6271L22.4873 19.4212L22.7687 20.0213C24.1439 22.9282 26.5069 25.2849 29.4075 26.6601L30.0076 26.9414L31.8017 25.1473L34.0146 27.3603L32.2518 29.1356Z" fill="#FFF000"/>
</svg>
