<svg xmlns="http://www.w3.org/2000/svg" viewBox="0 0 46 46">
  <path fill="#fff000" fill-rule="evenodd" d="M42.77 3.23C39.53 0 34.33 0 23.92 0h-1.84C11.68 0 6.47 0 3.23 3.23S0 11.67 0 22.08v1.84c0 10.4 0 15.61 3.23 18.85S11.67 46 22.08 46h1.84c10.4 0 15.61 0 18.85-3.23S46 34.33 46 23.92v-1.84c0-10.4 0-15.61-3.23-18.85ZM33 33.13a9.46 9.46 0 0 0-7.93-6.83v6.84h-.6c-10.48 0-16.46-7.19-16.7-19.15H13c.18 8.78 4.05 12.5 7.11 13.26V14h4.95v7.57c3.03-.32 6.2-3.77 7.28-7.57h4.95a14.6 14.6 0 0 1-6.73 9.55 15.13 15.13 0 0 1 7.88 9.6Z"/>
</svg>
