<svg width="46" height="46" viewBox="0 0 46 46" fill="none" xmlns="http://www.w3.org/2000/svg">
<path fill-rule="evenodd" clip-rule="evenodd" d="M23 46C35.7025 46 46 35.7025 46 23C46 10.2975 35.7025 0 23 0C10.2975 0 0 10.2975 0 23C0 35.7025 10.2975 46 23 46ZM23.588 9C27.1707 9 30.5401 10.3948 33.0781 12.9273C35.6107 15.4653 37 18.8347 37 22.4175C37 26.0002 35.6052 29.3696 33.0727 31.9021C30.5401 34.4347 27.1707 35.8295 23.588 35.8295C21.318 35.8295 19.0863 35.2551 17.1117 34.1666L9 37.0055L11.8388 28.8937C10.7503 26.9191 10.176 24.6874 10.176 22.4175C10.176 18.8347 11.5708 15.4599 14.1033 12.9273C16.6359 10.3948 20.0053 9 23.588 9Z" fill="white"/>
<path d="M28.8664 23.7193C28.2264 23.0793 27.1817 23.0793 26.5417 23.7193L25.8033 24.4577C24.0037 23.4841 22.5214 21.9963 21.5423 20.1967L22.2807 19.4583C22.5925 19.1465 22.7621 18.7363 22.7621 18.2987C22.7621 17.8611 22.5925 17.4454 22.2807 17.1391L20.3444 15.2028C20.0326 14.891 19.6224 14.7214 19.1848 14.7214C18.7472 14.7214 18.3315 14.891 18.0252 15.2028L16.4772 16.7507C15.6021 17.6259 15.5638 19.1356 16.3624 21.0008C17.0625 22.6308 18.337 24.4194 19.9615 26.044C21.5861 27.6685 23.3747 28.9484 25.0047 29.6431C25.8963 30.026 26.7003 30.212 27.4005 30.212C28.1662 30.212 28.7953 29.9822 29.2547 29.5228L30.8027 27.9748C31.1145 27.663 31.284 27.2528 31.284 26.8152C31.284 26.3776 31.1145 25.9619 30.8027 25.6556L28.8664 23.7193ZM28.0951 28.3686C27.7505 28.7132 26.7933 28.6257 25.6556 28.1334C24.2116 27.5153 22.6034 26.3612 21.1266 24.8789C19.6497 23.3966 18.4901 21.7884 17.872 20.3499C17.3852 19.2122 17.2922 18.2549 17.6368 17.9103L19.1848 16.3624L21.1211 18.2987L19.5513 19.8685L19.7974 20.3936C21.0008 22.9371 23.0684 24.9992 25.6064 26.2026L26.1315 26.4487L27.7013 24.8789L29.6376 26.8152L28.0951 28.3686Z" fill="white"/>
</svg>
