<svg width="167" height="81" fill="none" xmlns="http://www.w3.org/2000/svg"><path d="M167 0H86v81h81V0Z" fill="#B41544"/><path d="M157.34 24.03c-.34-3.04-1.88-4.73-5.28-4.73h-4.42l-.68 17.43h3.23s.34-8.13.34-8.46h4.09c0 .33.67 8.46.67 8.46h3.24c0 .17-1.2-11.85-1.2-12.7Zm-6.64 1.53v-3.22h.68c2.38 0 2.72.34 2.9 3.22h-3.58ZM118.56 48.07c-.34-3.05-1.88-4.74-5.28-4.74h-4.42l-.68 17.43h3.23s.34-8.12.34-8.46h4.08c0 .34.68 8.46.68 8.46h3.24c0 .17-1.2-11.84-1.2-12.69Zm-6.8 1.52v-3.21h.5c2.38 0 2.72.5 3.06 3.21h-3.57ZM94.57 19.46V36.9h3.23V22.34h3.92V36.9h3.23V19.46H94.57ZM128.76 25.56h-1.7c-.68 0-1.2-.17-1.53-.51-.17-.17-.34-.5-.34-1.02V19.3h-3.23v5.07c0 1.19.5 2.2 1.36 2.88a4.5 4.5 0 0 0 3.23 1.19h2.38v8.46h3.23V19.46h-3.23v6.1h-.17ZM135.56 19.46v2.88h2.73V36.9h3.23V22.34h2.72v-2.88h-8.68ZM130.8 43.5v5.59h-4.42V43.5h-3.23v17.43h3.23v-8.97h4.42v8.97h3.23V43.5h-3.23ZM99.33 49.09H97.8V46.2h5.79V43.5h-9.02v17.43h4.93c4.94 0 5.62-4.4 5.62-5.92 0-1.86-.85-5.92-5.79-5.92Zm-.5 9.14H97.8v-6.27h.51c1.7 0 3.58-.17 3.58 3.22 0 2.88-2.22 3.05-3.07 3.05ZM119.4 27.59c0-2.54-.5-4.23-1.19-5.59-1.02-2.2-2.72-3.04-4.42-3.04-1.7 0-3.4.84-4.42 3.04-.68 1.36-1.02 3.05-1.2 5.59v.5c0 1.53.18 3.05.52 4.24.85 3.55 2.9 4.9 5.1 4.9 2.21 0 4.25-1.35 5.1-4.9.34-1.19.52-2.7.52-4.23v-.51Zm-8.16.5c0-4.73 1.2-6.26 2.38-6.26 1.2 0 2.38 1.53 2.38 6.27 0 4.57-1.19 6.26-2.38 6.26s-2.38-1.52-2.38-6.26ZM146.28 50.6a5.46 5.46 0 0 0 1.7-2.87c.34-1.18.68-4.4.68-4.4h-3.23c0 .34-.17 1.52-.17 2.54-.17 1.7-.68 3.22-2.38 3.22h-1.36v-5.76h-3.23v17.43h3.23v-8.8h1.87l3.23 8.8h3.5l-3.84-10.15Z" fill="#fff"/><path d="M81 0H0v81h81V0Z" fill="#2D2F78"/><path d="M24.5 25.9c.5 1.35 1.52 2.7 4.25 4.4.5.34 1.19 1.18.68 2.37-.51 1.18-1.36 2.87-.85 3.55.5.68 2.55 1.02 4.25.34 0 0 .34 1.02 1.02 1.7 0 0-.34.5-1.2.33 0 0 .35.85-.16 1.7 0 0-1.02-.18-1.53-1.2 0 0-.51.86-1.36 1.02 0 0-.68-.33-.51-1.86 0 0-.51 1.36-2.22 1.53 0 0-1.02-1.19.34-2.71 0 0-.85.84-2.55.34 0 0-.17-.85 1.2-1.87 0 0-1.7 0-2.22-1.35 0 0 .68-.85 2.38-.68 0 0-1.53-.34-1.87-2.2 0 0 1.2-.67 2.9.51 0 0-.35-.5-1.03-1.18-.85-.51-1.87-2.2-1.53-4.74ZM31.13 44.85c-.17-.33-.34-.67-.51-.84.34 2.2.34 3.72 1.53 5.24 0 0 .68-1.01.34-3.38a1.3 1.3 0 0 1-.68-.34s.34 1.02.17 1.86c-.17 0-.51-.34-.85-2.54ZM28.92 44.52c-.17-.17-.51-.51-.51-.85-.17 1.35-.51 4.74.68 5.92 0 0 .85-.5 1.02-5.58-.17.34-.51.5-.68.67 0 0 .17 1.53-.34 2.71 0 0-.51-.5-.17-2.87ZM26.2 47.22c1.01-1.18 1.18-4.74 1.18-4.74.17-.17.35-.17.35-.33l.17-.17v.33c-.17 2.04-.35 4.24-1.03 5.42-.68 1.02-1.87 1.7-1.87 1.7-1.19-2.04.17-4.58 1.36-6.44.17 0 .34-.17.34-.17-.17 1.36-.85 3.05-.5 4.4ZM23.47 41.13V41.81c-.85.84-1.7 1.86-3.06 3.72s-3.57 2.03-3.57 2.03c.17-1.52.68-2.7 1.87-4.06 1.2-1.35 2.72-2.54 3.74-3.39.34.17.68.17 1.2.17h.16c-.17.17-.17.34-.34.51-.85.51-3.23 1.7-4.25 3.73 0-.17 1.53-.68 4.25-3.39ZM21.6 39.1c.17-.17.17-.34.17-.34-.85.34-4.08 1.52-5.1 2.03a6.99 6.99 0 0 0-3.4 4.23s2.2.17 3.9-1.35c1.88-1.52 3.92-3.56 4.77-4.23-.17 0-.17-.17-.17-.17s-2.38 2.2-4.93 3.04c0 0 .5-1.01 1.53-1.69 1.36-.67 2.21-1.01 3.23-1.52Z" fill="#fff"/><path d="M19.73 37.74c0-.16 0-.16.17-.16-1.02.16-3.74.5-4.93.84a6.95 6.95 0 0 0-4.6 3.73s1.88.5 5.45-1.02c3.57-1.7 4.6-2.03 5.27-2.2-.5 0-.85-.17-1.19-.34a11.95 11.95 0 0 1-5.1 1.36s.85-.68 1.87-1.02c1.19-.68 2.21-1.02 3.06-1.19ZM19.9 36.05c.34.17.68.17 1.02.34-.17.17-.5.34-.68.68-1.19.34-3.4.68-6.8 1.01-3.57.17-5.28-.33-5.28-.33 1.2-.68 3.24-1.53 4.43-1.7 1.36-.17 4.76-.17 6.29-.5 0 0 .17.16.51.33-1.19.17-3.91.17-5.44 1.02 0-.34 2.55 0 5.95-.85ZM19.56 34.02c.17-.17.34-.17.68-.34-1.7-.5-4.25-1.35-7.82-1.69-2.72-.17-4.6 0-5.62.17 0 0 2.39 1.7 5.28 2.37 2.72.68 5.1.17 6.63.17.17-.17.17-.34.51-.51-1.87 0-5.1-.5-6.3-.85 0 .17 2.73-.5 6.64.68ZM19.56 31.82s.17 1.02 1.36 1.52c-2.55-1.01-7.31-1.69-10.03-2.7-3.58-1.53-4.26-3.39-4.26-3.39 3.07 0 5.62.68 7.49 1.19 2.2.67 5.61 2.03 6.8 2.53-.5 0-1.02.17-1.36.34-1.7-.67-2.38-.84-3.91-1.35-1.2-.34-2.04-.34-2.9-.5 0 0 1.03.67 2.73 1.18 2.04.84 2.72 1.01 4.08 1.18ZM19.4 29.28c.16.17.33.68.5.68-3.91-.68-8.16-3.56-9.52-5.42-1.37-1.86-1.02-4.57-1.02-4.57 1.36.34 4.08 2.71 4.76 3.39.68.67 2.89 2.88 4.42 4.06l.51 1.35c-1.36-1.01-2.9-2.2-3.74-2.87a11.8 11.8 0 0 0-2.9-1.7s1.03 1.36 1.88 2.04c1.02.67 1.87 1.35 2.72 1.86.68.17 1.02.34 2.38 1.18ZM30.45 40.11l.34-.33c.17.17.85 1.01 1.02 1.69.17.68.5 1.52.5 2.03.18.5.52 1.52.69 1.86 0 0-1.02.17-1.7-.68-.68-.84-.85-1.69-1.02-2.37.17-.67.17-1.52.17-2.2Z" fill="#fff"/><path d="m29.09 40.28.34.34h.34c.17 0 .17 0 .34-.17.17.34.17.51.17.85 0 .5.17 1.18 0 1.7-.17.67-.68 1-.85 1.35 0 0-.68-.68-.85-1.19a4.1 4.1 0 0 1 0-2.03c0-.34.17-.68.5-.85ZM26.87 40.28c.68 0 1.2-.33 1.54-.5 0 .17.17.5.17 1.01-.17.51-.34.85-.85 1.19-.69.5-1.54 1.01-2.39.84-.17 0-.34-.67 1.53-2.54ZM26.2 39.1c0 .68.33 1.01.33 1.01-.17.34-1.02 1.7-2.72 1.36 0 0-.5-1.02.68-1.7.68-.33 1.2-.5 1.7-.67Z" fill="#fff"/><path d="M26.2 37.91a2.9 2.9 0 0 1-1.7 0h-.18v-.17c-.85.68-1.87.85-2.2 1.53 0 0 .5.84 1.52.68a4.16 4.16 0 0 0 2.55-1.36v-.68ZM24.32 37.07c.17-.17.34-.68.68-1.02a4.86 4.86 0 0 0-2.2 0c-1.03.17-2.05.51-2.56 2.03 0 0 .68.51 1.87.34.85-.34 1.7-.68 2.21-1.35ZM23.98 35.2c-.34-.16-.5-.5-.68-.84v-.17a3.8 3.8 0 0 0-2.72-.17c-.85.34-1.19.68-1.36 1.02 0 0 1.02.84 2.21.84.85.17 2.04-.17 2.55-.67ZM24.15 33.51c.17 0 .34-.17.51-.17a3.22 3.22 0 0 1-1.02-1.69 3.5 3.5 0 0 1-1.87 0 2 2 0 0 0-1.87.34s.17 1.18 1.7 1.52c1.53.17 2.04.17 2.55 0ZM23.64 31.14l.17-.17s.34-.16.85-.33c-.5-.34-1.7-1.36-2.38-1.7-.85-.5-2.38-1.18-3.06-1.18 0 0 .68 1.86 1.53 2.54.85.84 1.36 1.18 2.9.84ZM25.17 30.3a4.75 4.75 0 0 1-.85-1.86c-.17-.68-.5-2.2-.85-2.54a4.72 4.72 0 0 0-2.72-2.2s-.5 1.86.34 3.21a9.15 9.15 0 0 0 4.08 3.39ZM34.02 38.76c.17.17.34.34.68.5 0 0 .5 1.02-.17 2.2a14.06 14.06 0 0 0-1.36 3.06s-.34 0-.68-1.87c-.17-1.18-.51-1.52-.85-2.03.34.17.68.17.68.17h.17l.17-.17c.17-.34.34-.84.34-1.18v-.34c.5 0 .85-.34 1.02-.34 0-.17 0-.17 0 0Z" fill="#fff"/><path d="M20.41 24.54v1.01c-1.02-1.18-2.04-2.7-3.23-4.05a6.8 6.8 0 0 0-2.04-1.87 9.4 9.4 0 0 0 2.38 3.73c.68.67 1.87 1.86 2.9 2.54l.16.34c0 .33.17.67.34 1.01.17.5.51.85 1.02 1.19l-1.02-.51-.34-.17a19.47 19.47 0 0 1-6.97-6.94c-1.2-2.2-.68-4.74-.34-6.1a25.45 25.45 0 0 1 4.08 4.58 53.04 53.04 0 0 1 3.06 5.24ZM61.06 34.02c-.17-.17-.34-.17-.68-.34 1.7-.5 4.26-1.35 7.83-1.69 2.72-.17 4.59 0 5.61.17 0 0-2.38 1.7-5.27 2.37-2.72.68-5.1.17-6.64.17-.17-.17-.17-.34-.5-.51 1.86 0 5.1-.5 6.29-.85.17.17-2.72-.5-6.64.68ZM61.06 31.82s-.17 1.02-1.36 1.52c2.55-1.01 7.32-1.69 10.04-2.7 3.57-1.53 4.25-3.39 4.25-3.39-3.06 0-5.61.68-7.48 1.19a87.73 87.73 0 0 0-6.8 2.53c.5 0 1.01.17 1.35.34 1.7-.67 2.38-.84 3.92-1.35 1.19-.34 2.04-.34 2.89-.5 0 0-1.02.67-2.72 1.18a11.79 11.79 0 0 1-4.09 1.18ZM61.23 29.28c-.17.17-.34.68-.5.68 3.9-.68 8.16-3.56 9.52-5.42 1.36-1.86 1.02-4.57 1.02-4.57-1.36.34-4.08 2.71-4.76 3.39-.68.67-2.9 2.88-4.43 4.06l-.5 1.35c1.35-1.01 2.89-2.2 3.74-2.87a11.8 11.8 0 0 1 2.89-1.7s-1.02 1.36-1.87 2.04c-1.02.67-1.87 1.35-2.73 1.86-.5.17-.85.34-2.38 1.18ZM60.38 24.54v1.01c1.02-1.18 2.04-2.7 3.23-4.05a6.8 6.8 0 0 1 2.05-1.87 9.4 9.4 0 0 1-2.39 3.73c-.68.67-1.87 1.86-2.89 2.54l-.17.34c0 .33-.17.67-.34 1.01-.17.5-.5.85-1.02 1.19l1.02-.51.34-.17a19.47 19.47 0 0 0 6.98-6.94c1.19-2.2.68-4.74.34-6.1a25.44 25.44 0 0 0-4.09 4.58 32.52 32.52 0 0 0-3.06 5.24ZM24.15 41.98c-1.19 1.18-3.74 3.89-3.4 6.77 0 0 2.38-.68 3.23-2.37 1.02-1.7 1.53-2.71 2.04-3.22H25c-.5 1.02-1.7 2.88-2.89 3.39 0 0-.34-1.36 2.9-4.4 0-.17.16-.17.16-.34-.34.17-.68.17-1.02.17ZM56.13 25.9c-.51 1.35-1.53 2.7-4.25 4.4-.68.34-1.2 1.18-.68 2.37.5 1.18 1.36 2.87.85 3.55-.51.68-2.55 1.02-4.25.34 0 0-.34 1.02-1.02 1.7 0 0 .34.5 1.19.33 0 0-.34.85.17 1.7 0 0 1.02-.18 1.53-1.2 0 0 .5.86 1.36 1.02 0 0 .68-.33.5-1.86 0 0 .52 1.36 2.22 1.53 0 0 1.02-1.19-.34-2.71 0 0 .85.84 2.55.34 0 0 .17-.85-1.19-1.87 0 0 1.7 0 2.21-1.35 0 0-.68-.85-2.38-.68 0 0 1.53-.34 1.87-2.2 0 0-1.19-.67-2.9.51 0 0 .35-.5 1.03-1.18 1.02-.51 1.87-2.2 1.53-4.74ZM49.67 44.85c.17-.33.34-.67.5-.84-.33 2.2-.33 3.72-1.7 5.24 0 0-.67-1.01-.33-3.38.17 0 .5-.17.68-.34 0 0-.34 1.02-.17 1.86.17 0 .68-.34 1.02-2.54ZM51.7 44.52c.18-.17.52-.51.52-.85.17 1.35.5 4.74-.68 5.92 0 0-.85-.5-1.02-5.58.17.34.5.5.68.67 0 0-.17 1.53.34 2.71 0 0 .5-.5.17-2.87ZM54.6 47.22c-1.02-1.18-1.36-4.74-1.36-4.74-.17-.17-.34-.17-.34-.33l-.17-.17v.33c.17 2.04.34 4.24 1.02 5.42a6.33 6.33 0 0 0 1.87 1.7c1.2-2.04-.17-4.58-1.36-6.44-.17 0-.34-.17-.34-.17.17 1.36.85 3.05.68 4.4ZM57.32 41.13V41.81a30 30 0 0 1 3.06 3.72 5.31 5.31 0 0 0 3.58 2.03 6.86 6.86 0 0 0-1.88-4.06c-1.19-1.35-2.72-2.54-3.74-3.39-.34.17-.68.17-1.19.17h-.17c.17.17.17.34.34.51.85.51 3.23 1.7 4.25 3.73 0-.17-1.53-.68-4.25-3.39ZM59.02 39.1c-.17-.17-.17-.34-.17-.34.85.34 4.08 1.52 5.1 2.03 1.03.5 2.56 1.7 3.4 4.23 0 0-2.2.17-3.9-1.35-1.88-1.52-3.92-3.56-4.77-4.23.17 0 .17-.17.17-.17s2.38 2.2 4.93 3.04c0 0-.5-1.01-1.53-1.69-1.19-.67-2.04-1.01-3.23-1.52Z" fill="#fff"/><path d="M60.9 37.74c0-.16 0-.16-.18-.16 1.02.16 3.75.5 4.94.84 1.19.34 3.4 1.19 4.59 3.73 0 0-1.87.5-5.44-1.02-3.58-1.52-4.6-2.03-5.28-2.2.51 0 .85-.17 1.2-.34 1.35.68 3.23 1.36 5.1 1.36 0 0-.85-.68-1.87-1.02a8.74 8.74 0 0 0-3.07-1.19ZM60.72 36.05c-.34.17-.68.17-1.02.34.17.17.51.34.68.68 1.2.34 3.4.68 6.8 1.01 3.58.17 5.28-.33 5.28-.33a15.83 15.83 0 0 0-4.42-1.7c-1.36-.17-4.77-.17-6.3-.5 0 0-.17.16-.5.33 1.18.17 3.9.17 5.44 1.02.17-.34-2.55 0-5.96-.85ZM50.18 40.11l-.34-.33a4.88 4.88 0 0 0-1.02 1.69c-.17.68-.51 1.52-.51 2.03-.17.5-.51 1.52-.68 1.86 0 0 1.02.17 1.7-.68.68-.84.85-1.69 1.02-2.37 0-.67 0-1.52-.17-2.2ZM51.7 40.28l-.33.34h-.34c-.17 0-.17 0-.34-.17-.17.34-.17.51-.17.85 0 .5-.17 1.18 0 1.7.17.67.68 1 .85 1.35 0 0 .68-.68.85-1.19a4.1 4.1 0 0 0 0-2.03c-.17-.34-.34-.68-.51-.85ZM53.92 40.28c-.68 0-1.2-.33-1.53-.5 0 .17-.17.5-.17 1.01.17.51.34.85.85 1.19.68.5 1.53 1.01 2.38.84 0 0 .34-.67-1.53-2.54ZM54.6 39.1c0 .68-.34 1.01-.34 1.01.17.34 1.02 1.7 2.72 1.36 0 0 .51-1.02-.68-1.7-.85-.33-1.19-.5-1.7-.67Z" fill="#fff"/><path d="M54.43 37.91a2.9 2.9 0 0 0 1.7 0h.17v-.17c.85.68 1.87.85 2.21 1.53 0 0-.5.84-1.53.68a3.74 3.74 0 0 1-2.55-1.36c.17-.34 0-.5 0-.68ZM56.3 37.07c-.17-.17-.34-.68-.68-1.02a4.86 4.86 0 0 1 2.21 0c1.02.17 2.04.51 2.55 2.03 0 0-.68.51-1.87.34-.68-.34-1.7-.68-2.2-1.35ZM56.81 35.2c.34-.16.51-.5.68-.84v-.17a3.8 3.8 0 0 1 2.72-.17c.85.34 1.2.68 1.36 1.02 0 0-1.02.84-2.2.84a3.08 3.08 0 0 1-2.56-.67ZM56.47 33.51c-.17-.17-.34-.17-.51-.17.34-.33.85-.84 1.02-1.69a3.5 3.5 0 0 0 1.87 0 2 2 0 0 1 1.87.34s-.17 1.18-1.7 1.52a6.22 6.22 0 0 1-2.55 0ZM56.98 31.14l-.17-.17s-.34-.16-.85-.33c.51-.34 1.7-1.36 2.38-1.7.85-.5 2.38-1.18 3.06-1.18 0 0-.68 1.86-1.53 2.54-.68.84-1.36 1.18-2.89.84ZM55.62 30.3c.34-.51.68-1.02.85-1.86.17-.68.51-2.2.85-2.54a4.72 4.72 0 0 1 2.72-2.2s.51 1.86-.34 3.21a10.2 10.2 0 0 1-4.08 3.39ZM46.6 38.76c-.16.17-.33.34-.68.5 0 0-.5 1.02.17 2.2.69 1.2 1.2 2.38 1.37 3.06 0 0 .34 0 .68-1.87.17-1.18.5-1.52.85-2.03a1.7 1.7 0 0 1-.68.17h-.17l-.17-.17a3.13 3.13 0 0 1-.34-1.18v-.34c-.51 0-.85-.34-1.02-.34.17-.17 0-.17 0 0ZM56.64 41.98c1.2 1.18 3.74 3.89 3.4 6.77 0 0-2.38-.68-3.23-2.37-1.02-1.7-1.53-2.71-2.04-3.22h1.02c.51 1.02 1.7 2.88 2.9 3.39 0 0 .33-1.36-2.9-4.4 0-.17-.17-.17-.17-.34.17.17.51.17 1.02.17ZM38.44 18.96c0-.17.85-.34 1.87-.34s1.87.17 1.87.34-.85.34-1.87.34-1.87-.17-1.87-.34ZM32.32 20.99c0-.17.5-.17 1.19-.17.68 0 1.19.17 1.19.17 0 .17-.51.17-1.2.17-.67 0-1.18 0-1.18-.17ZM40.65 19.8c0 .17-.17.34-.34.34s-.34-.17-.34-.34.17-.34.34-.34.34.17.34.34ZM38.44 18.45a11.35 11.35 0 0 1-1.02-2.88c0-.17.34-.34.51-.5.17 0 .51-.18.68 0 .34.16.68 2.2.68 3.04-.34.17-.5.17-.85.34Z" fill="#fff"/><path d="M39.46 18.28h.51c-.17-.85-.34-2.03-.5-2.54-.18-.5-.35-.85-.69-1.01 0 0 .34.67.34 1.52.17.5.34 1.18.34 2.03ZM38.61 20.65c-.85.5-2.04.5-2.04.5.17-.33.34-.67 1.02-1.18.51-.34 1.53-.5 1.87-.5 0 .33-.5 1.01-.85 1.18Zm-1.02.17c.68-.17 1.36-.85 1.36-.85-1.02.17-1.36.85-1.36.85ZM31.98 21.33s1.19.5 2.38.34c1.19 0 3.23 0 3.91-.34 0 0-.17.5-.68.67 0 0 .34 0 .51.17 0 0-.17.34-.68.51 0 0 .85.85 1.87.85 0 0-.5.5-1.36.34-1.02-.17-1.36-.68-1.53-1.02 0 0 .17.5 0 .68 0 0-.51 0-.68-.51 0 0 .17.34.34.85 0 0-.34 0-.68-.17 0 0 .17.33.17.5 0 0-1.2-.33-1.7-.84v.5c0 .17-1.7 0-1.87-2.53Zm3.06.84H33c0 .34.17.68.5.68 0-.5 1.54-.68 1.54-.68ZM31.8 21.5c0 .5.18 1.01.35 1.52 0 0-.68-.5-.85-1.02-.17-.5-.17-.84.5-.5Z" fill="#fff"/><path d="M32.15 23.19c.5.17.85.68.85.68a5.5 5.5 0 0 0-1.02.33c-1.36-1.01-2.38 0-2.38 0-.68-.33-.85-1.35-.51-1.86.34-.5 1.19-.5 1.53-.34.17.85 1.02 1.02 1.53 1.19Zm-1.7.34c.17 0 .34-.17.34-.34s-.17-.34-.34-.34-.34.17-.34.34.17.34.34.34ZM33.17 24.03s.5.68.85.85c0 0-1.87 0-2.21 1.52 0 0-.68-1.01-.17-1.52.34-.5.85-.68 1.53-.85ZM35.04 24.37s.5.17.85.17v-.5c.17 0 .34.16.51.16a7 7 0 0 0 1.02 1.87s0 .33-.17.67c0 0-.34-.67-.85-1.35-.51-.34-.68-.5-1.36-1.02ZM33.5 24.2c.18 0 1.2.34 1.54.68.5.34 1.02.85.85 1.7 0 0-.51-.68-1.02-.85-.17-.34-1.02-1.02-1.36-1.53ZM33.5 18.45c.18 0 .52 0 .52.34s-.34 1.01-.51 1.18c-.17-.34-.51-1.01-.51-1.18 0-.34.34-.34.5-.34ZM33.17 20.48c0-.34-.17-1.35-.51-1.52-.17-.17-.51-.17-.68-.17-.17 0-.34.17-.34.34s.85 1.35.85 1.52c.34-.17.34-.17.68-.17ZM33.85 20.48c0-.34.17-1.35.5-1.52.18-.17.52-.17.69-.17.17 0 .34.17.34.34s-.85 1.35-.85 1.52c-.34-.17-.34-.17-.68-.17ZM34.36 17.1h-.68v-.68h-.34v.68h-.68v.33h.68v.68h.34v-.68h.68v-.33ZM27.38 21.16v-1.19c-.34.17-.68.34-1.19 1.19-.17 0 .85-.51 1.2 0Z" fill="#fff"/><path d="M28.07 22.68c0-.17.17-1.02.34-1.52.17-.68.17-1.53-.17-2.03-.34-.51-.34-1.02-.34-1.53 0 0-.51.17-.86.34a4 4 0 0 0 .52 1.7c.17.5.17 1 .17 1.35-.17.34 0 1.01.34 1.7ZM28.24 17.77v-.34s.85-.84 1.53-1.01c.5-.17.68.17.85.17 0 0-.17 0-.68.34-.34.33-.85.67-1.2.84h-.5ZM30.62 16.76c.34.33.5.67.5 1.01 0 .34-.33 1.02-.5 1.36-.17.33-.51.67-.51 1.18 0 .17.17.5.34.68 0 0-1.02-.17-1.2-.85-.16-.5.18-1.01.35-1.35.17-.34.68-1.02.68-1.36.34-.34.5-.67.34-.67ZM36.74 23.87c.17.67.51 1.35.85 2.03.34.5.51 1.35.51 1.52 0 0 .51-1.02.17-1.7 0-.67-.5-1.52-1.53-1.85ZM37.93 24.2s.68 0 1.02.17c.51.34.85.85 1.02 1.7 0 0-.68-.17-1.02-.51a4.07 4.07 0 0 1-1.02-1.36ZM34.19 25.39c-.17 0-.51.17-.68.17 0 0 .68.17.85.5.34.18.5.51.5 1.02.18.85.69 1.7.69 1.86 0-.5.17-1.69.34-1.86 0 0-.51-.34-.68-.68.17-.16-.17-.5-1.02-1.01ZM37.42 27.08c.17.34.68 1.19.51 1.86-.17.68-.68 1.02-1.02 1.7 0 0-.17-1.19-.17-2.04 0-.84.34-1.18.68-1.52ZM38.78 27.08s.68 1.36.85 1.86c.17.51 0 .85-.17 1.19-.17.34-.68.68-1.02 1.35 0 0-.5-.5-.5-.84 0-.34 0-1.02.16-1.36 0-.17.34-1.18.68-2.2ZM39.12 31.48c-.17.17-1.02 1.19-1.02 1.53-.17.33-.34.84 0 1.18.34.34.85 1.02 1.36 1.19 0 0-.5-.85-.5-1.53 0-.5.33-.84.5-1.18.17-.34-.17-.68-.34-1.19ZM37.59 30.97c.17.17.34.68.34 1.02 0 .34 0 .68-.34 1.35-.34.68-.68 1.53-.85 2.04l-.68-1.02s.68-.85.85-1.35c.34-.85.51-1.53.68-2.04ZM37.25 30.64s-.34 2.03-1.36 3.38c-.85 1.02-1.36 1.36-1.87 1.36-.68 0-1.2-.51-1.53-1.19-.17-.68-.17-1.52.34-1.86 0 0 .34 1.18 1.19 1.18.85.17 2.04-.84 3.23-2.87Z" fill="#fff"/><path d="M36.23 29.79c.17.34.17.85 0 1.35-.17.34-.34.85-.85 1.19-.34.17-1.36.34-1.7-.5.17 0 1.87.16 2.55-2.04ZM39.12 37.74c.17.51 1.02 1.36 1.02 1.87 0 1.18-.5 2.03-.68 2.37 0 0-1.02-.85-1.19-1.7-.17-.5 0-1.86.85-2.54ZM37.93 38.6c.17-.35.51-1.2.85-1.53 0 0 .51-1.53-1.19-2.54 0 0-.68.85-.85 1.86-.17.85.85 1.35 1.2 2.2ZM35.89 34.7c-.34.34-.68.84-1.02 1.01 0 0-.17.68 0 1.19.17.68.5 1.35.68 1.86 0 0 .68-1.02.85-1.52.17-.51 0-1.02.17-1.36a7.35 7.35 0 0 1-.68-1.18ZM33.85 37.91c-.17-.33-.85-1.52-.85-2.37 0 0 .85.51 1.53.17 0 0 .17 1.19 0 1.53-.17.34-.34.5-.68.67ZM34.02 38.25c.17-.17.5-.5.68-.5l.68 1.35s-.34 0-.51-.17c-.51-.34-.51-.5-.85-.68ZM36.57 37.58c0 .33-1.02 1.52-1.2 1.69 0 0 0 .5.35 1.18.34.68.85 1.19 1.02 1.36l.68-1.36c.17-.5.17-1.01.17-1.18 0-.51-.68-1.19-1.02-1.7ZM37.93 40.8c.17.33.85 1 .85 1.52 0 .33 0 .67-.17 1.01-.17.34-.5.85-.68 1.19 0 0-.85-.85-1.02-1.36-.17-.34-.17-1.01.17-1.35.34-.17.68-.51.85-1.02ZM35.72 40.8c.17.5.68 1 .85 1.35.17.5.17.84 0 1.35-.17.5-.51.85-.51 1.02 0 0-.68-.85-.85-1.19a1.86 1.86 0 0 1 0-1.35c0-.34.34-.85.5-1.19ZM38.95 44s-1.19 1.36-1.19 2.2c0 .85.68 1.53.68 2.04 0 0 .68-.68.85-1.19.34-.5.51-1.01.34-1.52 0-.5 0-.85-.68-1.52ZM36.91 43.84c.17.34.68 1.18.51 1.7-.17.5-.68 1.34-.85 1.68 0 0-.51-.84-.51-1.35-.17-.34-.17-1.02.85-2.03ZM48.3 20.99c0-.17-.5-.17-1.18-.17-.68 0-1.2.17-1.2.17 0 .17.52.17 1.2.17.68 0 1.19 0 1.19-.17ZM40.31 17.43c0-.5.68-1.69.68-2.2 0-.34-.34-.67-.68-.67s-.68.33-.68.67c0 .51.68 1.7.68 2.2ZM42.35 18.45a11.35 11.35 0 0 0 1.02-2.88c0-.17-.34-.34-.5-.5-.18 0-.52-.18-.69 0-.34.16-.68 2.2-.68 3.04.34.17.51.17.85.34ZM41.16 18.28h-.5c.16-.85.33-2.03.5-2.54.17-.5.34-.85.68-1.01 0 0-.34.67-.34 1.52-.17.5-.17 1.18-.34 2.03ZM41.16 19.63c.34 0 1.36 0 1.87.51.51.34.85.68 1.02 1.19 0 0-1.02 0-2.04-.51-.34-.34-.68-1.02-.85-1.19Zm.68.34s.68.68 1.36.85c0 0-.34-.68-1.36-.85ZM46.78 24.03v-.5c-.51.5-1.7.84-1.7.84 0-.34.16-.5.16-.5-.5.33-.68.16-.68.16 0-.33.34-.84.34-.84-.34.34-.68.5-.68.5v-.67c-.17.17-.5.68-1.53 1.01-1.02.17-1.36-.33-1.36-.33 1.02 0 1.87-.85 1.87-.85-.5-.17-.68-.5-.68-.5.34-.18.51-.18.51-.18a1.16 1.16 0 0 1-.68-.67c.68.33 2.9.33 4.09.33s2.38-.33 2.38-.33c-.34 2.37-2.04 2.53-2.04 2.53Zm.34-1.01c.17-.17.34-.34.5-.68h-2.04c0-.17 1.54 0 1.54.68ZM48.99 21.5c0 .5-.17 1.01-.34 1.52 0 0 .68-.5.85-1.02 0-.5.17-.84-.51-.5ZM50.18 22c.34-.17 1.19-.17 1.53.34.34.51.17 1.53-.51 1.86 0 0-1.02-1.01-2.38 0 0 0-.34-.16-1.02-.33 0 0 .34-.51.85-.68.34-.17 1.19-.34 1.53-1.19Zm.34 1.19c0-.17-.17-.34-.34-.34s-.34.17-.34.34.17.34.34.34c.34 0 .34-.17.34-.34ZM47.63 24.03s-.51.68-.85.85c0 0 1.87 0 2.2 1.52 0 0 .69-1.01.18-1.52-.51-.5-.85-.68-1.53-.85Z" fill="#fff"/><path d="M45.58 24.37s-.5.17-.85.17v-.5c-.17 0-.34.16-.5.16 0 0-.52 1.36-1.03 1.87 0 0 0 .33.17.67 0 0 .34-.67.85-1.35.51-.34.68-.5 1.36-1.02ZM47.12 24.2c-.17 0-1.2.34-1.53.68-.52.34-1.03.85-.86 1.7 0 0 .51-.68 1.03-.85.34-.34 1.02-1.02 1.36-1.53ZM47.12 18.45c-.17 0-.51 0-.51.34s.5 1.01.5 1.18c.18-.34.52-1.01.52-1.18.17-.34-.17-.34-.51-.34ZM47.46 20.48c0-.34.17-1.35.5-1.52.18-.17.52-.17.69-.17.17 0 .34.17.34.34s-.85 1.35-.85 1.52c-.17-.17-.17-.17-.68-.17ZM46.95 20.48c0-.34-.17-1.35-.51-1.52-.17-.17-.51-.17-.68-.17-.17 0-.34.17-.34.34s.85 1.35.85 1.52c.17-.17.17-.17.68-.17ZM46.44 17.1h.5v-.68h.52v.68h.5v.33h-.5v.68h-.51v-.68h-.51v-.33ZM39.46 13.2h.68v-.5h.51v.5h.51v.51h-.5v.68h-.52v-.68h-.68v-.5ZM53.4 21.16v-1.19c.35.17.69.34 1.2 1.19 0 0-.85-.51-1.2 0ZM52.56 22.68c0-.17-.17-1.02-.34-1.52-.17-.68-.17-1.53.17-2.03.34-.51.34-1.02.34-1.53 0 0 .5.17.85.34a4 4 0 0 1-.51 1.7c-.17.5-.17 1-.17 1.35.17.34.17 1.01-.34 1.7ZM52.56 17.77v-.34s-.85-.84-1.53-1.01c-.51-.17-.68.17-.85.17 0 0 .17 0 .68.34.34.33.85.67 1.19.84h.5ZM50 16.76c-.33.33-.5.67-.5 1.01 0 .34.34 1.02.5 1.36.18.33.52.67.35 1.18 0 .17-.17.5-.34.68 0 0 1.02-.17 1.19-.85.17-.5-.17-1.01-.34-1.35-.17-.34-.68-1.02-.68-1.36-.17-.34-.17-.67-.17-.67ZM43.88 23.87c-.17.67-.5 1.35-.85 2.03-.34.5-.5 1.35-.5 1.52 0 0-.52-1.02-.18-1.7.17-.67.68-1.52 1.53-1.85ZM42.7 24.2s-.69 0-1.03.17c-.5.34-.85.85-1.02 1.7 0 0 .68-.17 1.02-.51.51-.34.85-.85 1.02-1.36ZM46.44 25.39c.17 0 .5.17.68.17 0 0-.68.17-.85.5-.35.18-.52.51-.52 1.02-.17.85-.68 1.7-.68 1.86 0-.5-.17-1.69-.34-1.86 0 0 .51-.34.68-.68 0-.16.17-.5 1.03-1.01ZM43.2 27.08c-.17.34-.68 1.19-.5 1.86.16.68.67 1.02 1.01 1.7 0 0 .17-1.19.17-2.04.17-.84-.17-1.18-.68-1.52ZM40.31 29.28c0-.5 1.02-1.52 1.02-2.03 0-.5-.85-1.01-1.02-1.01-.17 0-1.02.5-1.02 1.01 0 .5 1.02 1.52 1.02 2.03ZM41.84 27.08s-.68 1.36-.85 1.86c-.17.51 0 .85.17 1.19.17.34.68.68 1.02 1.35 0 0 .51-.5.51-.84 0-.34 0-1.02-.17-1.36 0-.17-.34-1.18-.68-2.2ZM40.31 32.5c.34-.34.68-.68.68-1.02.17-.17.17-.67-.17-.84-.34-.34-.5-.68-.68-1.02 0 .34-.34.68-.68 1.02-.17.33-.17.67-.17.84.51.34.68.68 1.02 1.02ZM41.5 31.48c.17.17 1.02 1.19 1.02 1.53.17.33.34.84 0 1.18-.34.34-.85 1.02-1.36 1.19 0 0 .51-.85.51-1.53 0-.5-.34-.84-.5-1.18-.18-.34.16-.68.33-1.19ZM43.2 30.97a1.8 1.8 0 0 0-.34 1.02c0 .34 0 .68.34 1.35.34.68.68 1.53.85 2.04l.68-1.02s-.68-.85-.85-1.35c-.5-.85-.5-1.53-.68-2.04Z" fill="#fff"/><path d="M43.37 30.64a9 9 0 0 0 1.36 3.38c.86 1.02 1.37 1.36 1.88 1.36.68 0 1.19-.51 1.53-1.19.17-.68.17-1.52-.34-1.86 0 0-.34 1.18-1.2 1.18-.84.17-2.04-.84-3.23-2.87Z" fill="#fff"/><path d="M44.4 29.79c-.18.34-.18.85 0 1.35.16.34.33.85.84 1.19.34.17 1.37.34 1.7-.5-.16 0-1.7.16-2.55-2.04ZM40.31 35.54c.17-.16.51-.16.68-.67.17-.34.34-.85.34-1.36-.17-.5-.5-.67-.68-1.01l-.34.34c-.17-.17-.34-.17-.34-.34-.17.34-.5.5-.68 1.01-.17.51.17 1.02.34 1.36.34.5.51.67.68.67ZM40.31 38.93c.17-.5 1.2-1.52 1.02-2.03-.17-.85-.68-.68-1.02-1.02-.34.34-1.02.17-1.19 1.02 0 .5 1.2 1.52 1.2 2.03ZM41.67 37.74c-.17.51-1.02 1.36-1.02 1.87 0 1.18.51 2.03.68 2.37 0 0 1.02-.85 1.2-1.7 0-.5-.18-1.86-.86-2.54ZM42.7 38.6c-.18-.35-.52-1.2-.86-1.53 0 0-.5-1.53 1.2-2.54 0 0 .67.85.84 1.86.17.85-.68 1.35-1.19 2.2ZM44.9 34.7c.34.34.68.84 1.03 1.01 0 0 .17.68 0 1.19-.17.68-.52 1.35-.69 1.86 0 0-.68-1.02-.85-1.52-.17-.51 0-1.02-.17-1.36 0-.17.51-.84.68-1.18Z" fill="#fff"/><path d="M46.78 37.91c.17-.33.85-1.52.85-2.37 0 0-.85.51-1.53.17 0 0-.18 1.19 0 1.53.34.34.34.5.68.67ZM46.6 38.25c-.16-.17-.5-.5-.68-.5l-.68 1.35s.34 0 .51-.17c.52-.34.69-.5.86-.68ZM44.05 37.58c0 .33 1.02 1.52 1.2 1.69 0 0 0 .5-.35 1.18-.34.68-.85 1.19-1.02 1.36l-.68-1.36c-.17-.5-.17-1.01 0-1.18 0-.51.51-1.19.85-1.7ZM40.31 45.02c0-.34.68-.67.85-1.35.17-.34.17-.85 0-1.02a9.44 9.44 0 0 0-.85-1.35c0 .17-.68 1.01-.85 1.35-.17.34-.17.68 0 1.02.34.5.85 1.01.85 1.35ZM42.7 40.8c-.18.33-.86 1-.86 1.52 0 .33 0 .67.17 1.01.17.34.51.85.68 1.19 0 0 .85-.85 1.02-1.36.17-.34.17-1.01-.17-1.35-.17-.17-.68-.51-.85-1.02ZM45.07 40.8c-.17.5-.68 1-.85 1.35-.17.5-.17.84 0 1.35.17.5.51.85.51 1.02 0 0 .68-.85.86-1.19.17-.34.17-1.01 0-1.35-.18-.34-.35-.85-.52-1.19ZM40.31 51.62c0-.33.85-1.69 1.02-3.04 0-.68-.68-1.86-1.02-2.2a4.42 4.42 0 0 0-1.02 2.2c.17 1.35 1.02 2.7 1.02 3.04ZM41.67 44s1.2 1.36 1.2 2.2c0 .85-.69 1.53-.69 2.04 0 0-.68-.68-.85-1.19-.34-.5-.5-1.01-.34-1.52 0-.5.17-.85.68-1.52ZM43.88 43.84c-.17.34-.68 1.18-.5 1.7.16.5.67 1.34.84 1.68 0 0 .51-.84.51-1.35.17-.34 0-1.02-.85-2.03Z" fill="#fff"/><path d="M41.16 53.82c0-1.01.68-1.69.85-2.2.17-.67 0-1.18-.34-1.86a14.22 14.22 0 0 1-1.19 3.05c-.34-.68-.68-1.7-1.19-3.05a1.97 1.97 0 0 0-.34 1.86c.17.51.68 1.19.85 2.2 0 1.02-1.19 1.53-1.19 1.53.34.17.85.17 1.7-.51.17-.17.17-.34.34-.34 0 .17.17.34.34.34.68.68 1.2.68 1.7.5-.34 0-1.7-.33-1.53-1.52ZM37.25 46.72c.17.33.51 1.18.51 1.35.17.5 0 1.02-.85 1.52 0 0-.51-.34-.68-.84-.17-.51 0-.68.17-1.02.17-.17.68-.68.85-1.01ZM38.95 48.24c0 .17-.17 1.52-.5 2.03-.52.85-1.2 1.52-1.88 1.52-.51 0-.68-.33-1.02-.5 0 0 .17-.68.85-1.02a4.2 4.2 0 0 0 2.55-2.03ZM36.91 49.76l-.34-.34s-.68.17-1.2.51a9.7 9.7 0 0 0-1.35 1.19s.85.17 1.19 0c0 0 .17-.68.68-1.02.17 0 .51 0 1.02-.34ZM36.23 49.25c-.17-.16-.34-.5-.34-1.01 0 0-1.02.68-1.36 1.01l-1.2 1.19s.86-.17 1.54-.34c.68-.5 1.02-.68 1.36-.85ZM34.36 50.44c-.51.17-1.87.34-2.38.5-.51.18-1.02.52-1.53 1.02 0 0 .85.17 1.19.34 0 0 .68-.5 1.36-.68.68-.16.85-.67 1.36-1.18ZM33.17 54.16c.17-.17.34-.34.17-.67 0-.17-.51-.51-.85-.68-.51-.17-1.7-.5-2.21-.68 0 0-.17.17-.34.51 0 .17 0 .17.17.17.34 0 1.19-.17 1.53 0 .17.17.17.34.17.5 0 0 .34-.16.68-.16.34.34.5.5.68 1.01Z" fill="#fff"/><path d="M31.98 52.47c.17 0 .68.17 1.02.5 0 0 .17 0 .34-.33.17-.17.5-.85 1.02-1.02 0 0-.34 0-.51-.17 0 0-.34.17-.68.17s-.68.51-1.2.85ZM35.38 51.62s-.17.17-.51.17c0 0-1.2.85-1.36 1.53-.17.67.17 1.01.34 1.01.17.17 1.02.34 1.53-.67 0 0-.85.33-1.2-.17-.16-.51.18-1.02.35-1.19.34-.17.85-.34 1.19-.34.17 0 0-.17-.34-.34ZM27.9 60.6c.17-.51.34-1.19.5-1.7.52-1.01 1.7-4.06 4.43-4.57.17 0-.34-.67-.51-.67-.17 0-.68.33-.85.5v-.67c0-.17-.17-.17-.17-.17-.17 0-.68 0-1.02.17-.68.67-1.7 2.54-2.21 3.89-.52 1.35-1.03 1.86-1.54 1.52-.68-.17-1.02-.84-2.04-.67-.34 0-.85.33-1.02.67.17.17.17.34.68.34s1.36.17 2.04.5c.34.69.85.86 1.7.86ZM38.44 51.62c0 .51.34.85.51 1.36 0 0-.85 3.72-3.74 4.06 0 0 0-.85.85-1.35.85-.51 2.21-1.53 2.04-2.88 0 0-.17 0-.68.5-.34.51-1.36 2.04-2.72 2.04 0 0 .17-.68.85-1.02a3.72 3.72 0 0 0 1.7-1.52c.51-.85.85-1.02 1.2-1.19ZM37.08 65.17l1.7 2.53 1.36-2.37-.5-.84c-.35.68-.69 1.35-1.03 1.7a11.9 11.9 0 0 1-1.19-1.7l-.34.68Z" fill="#fff"/><path d="M36.57 62.96c-1.7-2.36-3.91-5.41-4.08-5.75l.68-.5-2.04-.85v2.37l.68-.51 4.25 5.92.51-.68ZM22.11 49.42c.51-.5 1.36 0 2.21.68.85.85 1.53 1.7 1.02 2.2-.5.5-1.36 0-2.38-.68-.85-.67-1.53-1.52-.85-2.2Z" fill="#fff"/><path d="M23.47 59.58a2.71 2.71 0 0 1-.85-1.86A2.32 2.32 0 0 1 25 55.35a2.32 2.32 0 0 1 2.39 2.37v.5c.17-.16.5-1.18.5-1.35-.33-1.35-1.53-2.2-3.06-2.2-1.19 0-2.2.68-2.72 1.7a5.79 5.79 0 0 1 1.2-2.71c.5-.51 1.35-.68 1.35-.68-.5.17-1.36-.34-2.2-1.02-.86-.67-1.2-1.35-1.2-1.86 0 .68 0 1.19-.17 1.86-.34.85-1.02 2.37-.85 4.23a7.05 7.05 0 0 0 2.04 3.56c.17.34.34.68.34.85h2.21s.34 0 .34-.34c0-.17-.17-.34-.5-.34.16 0-.69 0-1.2-.34ZM33 60.09c-1.2.34-2.21.67-3.23.84-.68.17-1.36.17-2.04.17v.34s.17.17.17.34c.68 0 1.36 0 2.04-.17 1.19-.17 2.38-.34 3.57-.85L33 60.1ZM34.87 60.09c1.53-.85 2.9-2.03 4.25-4.07l.17-.33c-.34.17-.85 0-.85 0s0 .17-.17.17a11.49 11.49 0 0 1-3.91 3.72l.5.5ZM25.17 60.6h-1.19c-.5 0-.85.16-1.02.33 0 .17.17.51.34.85.17.17.51.17.68 0 .17 0 1.2-.68 1.36-.85 0 0 .17-.17-.17-.33ZM26.2 61.27c-.18 0-.35-.17-.69 0-.34.17-1.19.68-1.36 1.02 0 .34 0 .34.17.5.17 0 .34.17.51.17.17 0 .51-.16.68-.33.17-.17.51-.68.68-.85v-.5ZM26.2 61.95c-.18.17-.52.68-.52.68s0 .17.17.17.85 0 1.2-.34c.34-.34.68-.85.34-1.02-.18-.17-.69 0-1.2.5Z" fill="#fff"/><path d="M26.53 60.43c-.17 0-.68-.17-.68 0-.17.17 0 .5.34.67.34.17 1.2.34 1.37.17 0-.17-.17-.5-1.03-.84ZM43.37 46.72a6.94 6.94 0 0 0-.5 1.35c-.18.5 0 1.02.84 1.52 0 0 .51-.34.68-.84.17-.51 0-.68-.17-1.02-.17-.17-.68-.68-.85-1.01ZM41.67 48.24c0 .17.17 1.52.51 2.03.51.85 1.2 1.52 1.87 1.52.51 0 .68-.33 1.02-.5 0 0-.17-.68-.85-1.02a4.72 4.72 0 0 1-2.55-2.03ZM43.88 49.76l.34-.34s.68.17 1.2.51a9.7 9.7 0 0 1 1.36 1.19s-.85.17-1.2 0c0 0-.16-.68-.68-1.02-.34 0-.68 0-1.02-.34ZM44.56 49.25c.17-.16.34-.5.34-1.01 0 0 1.03.68 1.37 1.01l1.19 1.19s-.85-.17-1.53-.34c-.69-.5-1.2-.68-1.37-.85ZM46.27 50.44c.5.17 1.87.34 2.38.5.5.18 1.02.52 1.53 1.02 0 0-.85.17-1.2.34 0 0-.67-.5-1.35-.68-.51-.16-.85-.67-1.36-1.18ZM47.63 54.16c-.17-.17-.34-.17-.17-.5.17-.17.5-.51.85-.68.5-.17 1.7-.5 2.2-.68 0 0 .18.17.35.5 0 .18 0 .18-.17.18-.34 0-1.2-.17-1.53 0-.17.17-.17.34-.17.5 0 0-.34-.16-.68-.16-.34.17-.51.34-.68.84ZM48.65 52.47c-.17 0-.68.17-1.02.5 0 0-.17 0-.34-.33-.17-.17-.51-.85-1.02-1.02 0 0 .34 0 .5-.17 0 0 .35.17.69.17.5.34.85.51 1.19.85ZM45.41 51.62s.17.17.52.17c0 0 1.19.85 1.36 1.53.17.67-.17 1.01-.34 1.01-.17.17-1.03.34-1.54-.67 0 0 .86.33 1.2-.17.17-.51-.17-1.02-.34-1.19a3.17 3.17 0 0 0-1.2-.34c-.34 0 0-.17.34-.34Z" fill="#fff"/><path d="M52.9 60.6c-.17-.51-.34-1.19-.51-1.7-.51-1.01-1.7-4.06-4.42-4.57-.17 0 .34-.67.5-.67.18 0 .69.33.86.5v-.67c0-.17.17-.17.17-.17.17 0 .68 0 1.02.17.68.67 1.7 2.54 2.2 3.89.52 1.35 1.03 1.86 1.54 1.52.68-.17 1.02-.84 2.04-.67.34 0 .85.33 1.02.67-.17.17-.17.34-.68.34-.5 0-1.36.17-2.04.5-.51.69-1.02.86-1.7.86ZM42.35 51.62c0 .51-.34.85-.5 1.36 0 0 .84 3.72 3.73 4.06 0 0 0-.85-.85-1.35-.85-.51-2.2-1.53-2.04-2.88 0 0 .17 0 .68.5.34.51 1.36 2.04 2.73 2.04 0 0-.18-.68-.86-1.02a3.72 3.72 0 0 1-1.7-1.52c-.68-.85-1.02-1.02-1.19-1.19ZM40.31 55.18c.17.5 1.2 2.03 1.7 2.54l2.21 2.2s-1.7-.51-2.72-1.36c0 0-.68.34-1.19.34-.5 0-1.19-.34-1.19-.34-1.02.85-2.72 1.36-2.72 1.36.68-.51 1.87-1.7 2.21-2.2.51-.51 1.53-2.03 1.7-2.54Z" fill="#fff"/><path d="M40.31 59.24c.34 0 .85-.17 1.02-.17-.17.51-.68 1.19-1.02 1.36a7.07 7.07 0 0 1-1.02-1.36c.34.17.68.17 1.02.17Z" fill="#fff"/><path d="m41.84 67.53 6.98-9.81.68.5v-2.36l-2.04 1.01.68.5c-.34.52-5.62 7.8-6.3 8.64l-3.23-5.75-.34.67-2.72 4.24-.68-.51v2.2l2.21-.85-.85-.5c.34-.51 1.87-2.88 2.38-3.73l3.23 5.75Z" fill="#fff"/><path d="M43.2 63.64c-.5-.68-1.02-1.35-1.19-1.86l-.85 1.7-.5-.85L42 60.26l.34.67 1.36 2.03-.5.68ZM44.56 64.32l.51.85.69-.51v2.2L43.54 66l.68-.5c0-.18-.17-.34-.34-.51l.68-.68ZM58.68 49.42c-.5-.5-1.36 0-2.38.68-.85.85-1.53 1.7-.85 2.2.51.5 1.36 0 2.38-.68.85-.67 1.36-1.52.85-2.2Z" fill="#fff"/><path d="M57.15 59.58c.17 0 .17-.17 0 0 .51-.5.85-1.19.85-1.86a2.32 2.32 0 0 0-2.38-2.37 2.32 2.32 0 0 0-2.38 2.37v.5a4.41 4.41 0 0 1-.51-1.35c.34-1.35 1.53-2.2 3.06-2.2 1.2 0 2.21.68 2.72 1.7a5.79 5.79 0 0 0-1.19-2.71c-.5-.51-1.36-.68-1.36-.68.51.17 1.36-.34 2.21-1.02.85-.67 1.2-1.35 1.2-1.86 0 .68 0 1.19.16 1.86.34.85 1.02 2.37.85 4.23a7.05 7.05 0 0 1-2.04 3.56c-.17.34-.34.68-.34.85h-2.2s-.35 0-.35-.34c0-.17.17-.34.51-.34 0 0 .85 0 1.2-.34ZM45.75 60.09a11.93 11.93 0 0 1-4.25-4.07l-.17-.33c.34.17.85 0 .85 0s0 .17.17.17a11.49 11.49 0 0 0 3.92 3.72l-.52.5ZM47.63 60.09c1.19.34 2.2.67 3.23.84.68.17 1.36.17 2.04.17v.34s-.17.17-.17.34c-.68 0-1.36 0-2.04-.17-1.2-.17-2.38-.34-3.57-.85l.5-.67ZM55.62 60.6h1.2c.5 0 .84.16 1.01.33 0 .17-.17.51-.34.85a.52.52 0 0 1-.68 0c-.17 0-1.19-.68-1.36-.85-.17 0-.17-.17.17-.33ZM54.6 61.27c.17 0 .34-.17.68 0s1.2.68 1.36 1.02c0 .34 0 .34-.17.5-.17 0-.34.17-.5.17a1.3 1.3 0 0 1-.69-.33c-.17-.17-.51-.68-.68-.85-.17-.17-.17-.34 0-.5ZM54.43 61.95c.17.17.51.68.51.68s0 .17-.17.17-.85 0-1.2-.34c-.33-.34-.67-.85-.33-1.02.34-.17.68 0 1.19.5Z" fill="#fff"/><path d="M54.26 60.43c.17 0 .68-.17.68 0 .17.17 0 .5-.34.67-.34.17-1.2.34-1.36.17 0-.17.17-.5 1.02-.84Z" fill="#fff"/></svg>