<svg xmlns="http://www.w3.org/2000/svg" fill="none" viewBox="0 0 24 24"><path fill="#fff" d="M8.91 23.87c-.19 0-.37-.03-.56-.09a1.94 1.94 0 0 1-1.28-1.44l-.1-.45-.14-.62A1.68 1.68 0 0 0 5.1 20l-.33.03c-.35.03-.72.06-1.1.03a1.77 1.77 0 0 1-1.29-.8 2 2 0 0 1-.25-1.68c.09-.26.2-.52.3-.77l.13-.32c.36-.91.09-1.8-.71-2.3l-.79-.5a2 2 0 0 1 0-3.36l.81-.5c.77-.5 1.04-1.38.7-2.26a35.8 35.8 0 0 0-.35-.86 2 2 0 0 1 .24-2.03 1.88 1.88 0 0 1 1.76-.73c.43.06.93.11 1.36.03.68-.13 1.12-.6 1.3-1.39l.1-.45.1-.47A1.86 1.86 0 0 1 10.12.58l.5.46.23.21c.7.63 1.57.63 2.28 0l.25-.23.46-.41a1.85 1.85 0 0 1 1.8-.4c.64.22 1.11.77 1.28 1.48l.1.45.13.59c.22.81.94 1.35 1.73 1.28L19.2 4c.37-.04.74-.07 1.13-.04.9.08 1.64.93 1.66 1.96.01.3-.1.54-.19.74l-.1.23-.14.42c-.1.3-.2.58-.24.85a1.6 1.6 0 0 0 .73 1.58c.16.12.33.22.5.33.14.08.28.17.4.26a2 2 0 0 1 .92 1.66 2 2 0 0 1-.88 1.67l-.53.33-.3.2c-.8.5-1.07 1.37-.72 2.28l.1.27c.17.39.33.79.4 1.22.07.56-.11 1.12-.52 1.54-.4.42-.98.64-1.53.58l-.11-.02c-.38-.04-.74-.09-1.08-.07-.79.03-1.4.58-1.57 1.43l-.2.9a1.96 1.96 0 0 1-1.28 1.46c-.62.2-1.3.06-1.81-.4l-.67-.6c-.73-.66-1.62-.66-2.34 0l-.12.12-.57.51c-.36.3-.79.47-1.23.47zm-3.69-4.63c1.1 0 2.05.74 2.33 1.85.06.21.1.43.15.65l.1.43c.1.44.4.78.78.9.37.12.76.04 1.07-.23.2-.16.37-.33.55-.5l.13-.11a2.34 2.34 0 0 1 3.33-.01l.67.6c.32.28.72.37 1.09.25.4-.13.69-.47.79-.92l.19-.9a2.43 2.43 0 0 1 2.27-2c.41-.02.8.02 1.19.07l.11.01a1.13 1.13 0 0 0 1.22-1.27 4.73 4.73 0 0 0-.33-1.05l-.11-.28a2.54 2.54 0 0 1 1-3.18l.32-.2.5-.31a1.25 1.25 0 0 0-.02-2.1l-.4-.25-.53-.35a2.34 2.34 0 0 1-1.04-2.28c.05-.36.17-.69.28-1.01l.14-.39.12-.31c.07-.16.14-.3.13-.42-.02-.64-.46-1.2-.99-1.24a4.9 4.9 0 0 0-1 .04l-.33.02a2.4 2.4 0 0 1-2.5-1.84l-.14-.62-.1-.43c-.1-.47-.39-.8-.78-.94a1.12 1.12 0 0 0-1.1.25l-.43.4-.26.24c-1 .89-2.28.89-3.27 0l-.24-.23c-.15-.15-.3-.29-.47-.43A1.1 1.1 0 0 0 8.56.93a1.2 1.2 0 0 0-.77.9l-.1.45-.1.47c-.25 1.08-.92 1.77-1.88 1.95-.54.1-1.11.04-1.6-.03-.41-.06-.81.11-1.07.45-.28.37-.34.84-.15 1.3.13.28.25.58.37.87.46 1.2.06 2.47-1 3.15l-.8.5a1.24 1.24 0 0 0 0 2.12l.77.48c1.11.7 1.5 1.96 1.01 3.21l-.13.33c-.1.24-.2.47-.28.71-.1.35-.04.74.16 1.05.18.27.45.44.75.47.3.03.62 0 .96-.03l.33-.03h.2z"/><path fill="#fff" d="M17.6 11c-.1-.43-.51-.87-1.2-.84-.6.03-1.2 0-1.85 0 .36-.55.55-1.12.5-1.75a1.92 1.92 0 0 0-.75-1.46.83.83 0 0 0-.87-.13.76.76 0 0 0-.46.69 2.14 2.14 0 0 1-.9 1.6 5.5 5.5 0 0 1-2.28.96c-.22-.55-.38-.65-.98-.65H7.2c-.54 0-.83.29-.83.82v5.31c0 .53.3.81.82.81.53.01 1.05.02 1.58 0 .25 0 .5-.08.77-.1.03-.05.06-.03.1 0 .65.52 1.4.9 2.23.94.92.06 1.83.06 2.75.03.47-.01.88-.45.9-.91.02-.23-.03-.47-.06-.73.32-.08.6-.28.76-.62.16-.35.1-.7-.06-1.03.35-.13.59-.34.73-.67.14-.34.05-.66-.07-.97.62-.3.9-.75.76-1.3zm-8.35 4.45c0 .32-.06.39-.37.39h-1.6c-.3 0-.37-.07-.37-.37v-5.16c0-.32.05-.37.37-.37h1.6c.33 0 .37.04.37.37v5.14zm7.02-3.65h-2.63c-.2 0-.37.03-.37.26s.18.27.37.27h2.02c.11 0 .22 0 .33.02.26.04.44.25.46.5a.54.54 0 0 1-.4.56c-.1.03-.22.04-.34.04h-2.44c-.2-.01-.34.05-.34.26 0 .2.15.26.33.26h1.75l.25.01c.32.03.54.25.54.54 0 .3-.23.54-.56.55-.5.02-1 .01-1.5.01-.07 0-.17-.03-.22.01-.1.07-.23.16-.25.26-.02.15.1.26.26.26h.9c.45.02.73.4.55.76-.07.14-.26.32-.39.32-1.03.01-2.06.13-3.09-.08-.58-.13-1.1-.4-1.55-.8a.49.49 0 0 1-.16-.34v-3.44l-.01-1.12c0-.22.05-.3.28-.36a5.3 5.3 0 0 0 2.63-1.29 2.7 2.7 0 0 0 .81-1.67c.01-.1.07-.25.15-.27a.4.4 0 0 1 .33.07c.31.24.47.58.52.96.08.7-.17 1.27-.61 1.78-.1.12-.27.25-.14.4.09.1.27.16.4.16.7.02 1.4.01 2.1.01.57 0 .84.18.82.56.01.37-.26.54-.8.54z"/></svg>