<svg xmlns="http://www.w3.org/2000/svg" fill="#fff" viewBox="0 0 37 37"><path fill="#fff" d="M36.95 21.72a2.58 2.58 0 0 0-3.1-1.83c-.2.05-.39.13-.6.2l.06-.57a3.44 3.44 0 0 0-3.44-3.87 788.6 788.6 0 0 0-8.29 0 3.4 3.4 0 0 0-2.9 1.55c-.05.08-.07.19-.18.22-1.03-1.4-1.77-1.77-3.52-1.77l-7.38.01-.68.02c-.2.02-.31 0-.6.07-.09.02-.9.19-1.53.85a3.8 3.8 0 0 0-.97 1.7 5.2 5.2 0 0 0-.03 1.8c-.09-.02-.12-.04-.17-.06a2.6 2.6 0 0 0-3.54 1.68c-.02.06-.01.14-.08.19v.87c.16.62.2 1.27.28 1.92l.88 6.86a2.31 2.31 0 0 0 2.2 1.98c.37.02.74.02 1.12 0 .28 0 .33.06.19.32-.45.77-.86 1.55-1.3 2.33-.31.59-.18.81.49.81h2.06c.25 0 .4-.09.52-.3.2-.4.43-.76.63-1.15.09-.17.2-.24.4-.23h21.97c.29 0 .45.08.58.34.17.36.38.7.57 1.04.1.2.26.29.49.29.74-.01 1.5 0 2.24 0 .44 0 .6-.28.4-.67-.45-.82-.9-1.63-1.38-2.45-.13-.25-.16-.36.19-.34.37.02.74 0 1.12-.01a2.31 2.31 0 0 0 2.2-1.99c.35-2.65.68-5.31 1.02-7.97.04-.27.02-.55.13-.81v-.8c-.04-.04-.03-.15-.05-.23zm-18-2.76a2.54 2.54 0 0 1 2.6-2.5c2.8-.04 5.6-.04 8.4 0 1.6.01 2.71 1.36 2.55 2.97-.08.83-.31 1.61-.5 2.41-.34 1.4-.4 2.86-.6 4.28-.01.07 0 .15-.09.22-.91-.74-2.02-.66-3.11-.66-2.03 0-4.05.06-6.08-.02a9.98 9.98 0 0 0-1.08.02c-.75.05-1.47.25-2.13.8v-2.66c.01-1.61-.03-3.24.04-4.86zM31.2 27.8c-.08.38.03.88-.22 1.1-.23.22-.71.06-1.08.06H19.3c-.28 0-.37-.07-.37-.36 0-1.3.8-2.12 2.1-2.12h8.38a2 2 0 0 1 1.6.7c.17.19.25.37.2.62zm-12.65 1.97 12-.01c.3 0 .4.04.36.36-.13.79-.22 1.58-.3 2.37-.02.19-.09.29-.3.27H6.97c-.35 0-.5-.06-.53-.45-.04-.71-.16-1.43-.27-2.15-.04-.31.03-.4.36-.4h12.03zm-.43-1.04c-.02.3-.2.24-.38.24H6.36c-.27 0-.4-.06-.4-.33-.01-.2-.03-.41-.08-.6-.15-.59.14-.94.59-1.22.43-.27.93-.33 1.43-.33h8.16c1.3 0 2.15.93 2.06 2.24zM4.56 18.8a2.53 2.53 0 0 1 2.57-2.35c2.8-.02 5.59-.02 8.38 0a2.56 2.56 0 0 1 2.6 2.53c.04 2.43 0 4.86 0 7.29l-.03.17c-.85-.74-1.85-.78-2.87-.77l-7.12.02c-.84 0-1.67.08-2.4.7-.17-1.44-.36-2.81-.53-4.18-.04-.3-.1-.59-.22-.87a5.15 5.15 0 0 1-.38-2.54zm-.18 13.96c0-.01 0-.01 0 0l-.94-.01a1.52 1.52 0 0 1-1.47-1.33c-.35-2.65-.68-5.3-1.01-7.94l-.11-.82a1.73 1.73 0 0 1 1.54-2.02c.97-.14 1.82.52 1.96 1.54l.8 6.18c.15 1.3.32 2.6.5 3.9.06.49.06.49-.43.49h-.84zm28.37 3.44H31.3c-.12 0-.14-.12-.2-.2-.2-.35-.4-.7-.58-1.06-.15-.3-.36-.4-.69-.4H7.24c-.36 0-.59.09-.74.43-.17.34-.38.67-.55 1-.09.18-.2.25-.4.25-.4-.02-.79 0-1.26 0l1.4-2.52c.06-.1.14-.14.27-.14h.25l24.63-.01c.35 0 .53.11.7.41.36.73.77 1.45 1.2 2.24zm3.34-12.65c-.32 2.6-.65 5.2-1 7.79-.12.87-.72 1.39-1.6 1.4h-.87c-.3 0-.6-.02-.9 0-.3.03-.38-.06-.33-.35l.3-2.4 1-7.74c.12-.93.82-1.61 1.68-1.63.89-.02 1.7.61 1.84 1.47.1.5-.05.98-.12 1.46zM18.55 0h7.67c.7 0 .78.09.78.78v1.78c0 .58-.1.67-.7.67-.4 0-.8.04-1.2 0-.46-.05-.55.14-.53.55.03.64.03 1.28 0 1.92-.01.35.08.54.42.7.7.35 1.01.96.97 1.73-.03.75-.43 1.3-1.11 1.59-.7.3-1.35.2-1.92-.3a1.83 1.83 0 0 1 .36-3.04c.28-.15.38-.3.37-.6-.02-.71-.02-1.43 0-2.15 0-.29-.07-.4-.38-.4h-3.9c-.27 0-.37.07-.37.37.02.7.02 1.43 0 2.14-.01.32.07.5.38.65.72.34 1.07 1.04.99 1.86a1.82 1.82 0 0 1-1.3 1.55 1.83 1.83 0 0 1-1.97-.62 1.83 1.83 0 0 1 .62-2.81c.3-.15.36-.31.36-.6-.02-.72 0-1.44 0-2.15 0-.27-.05-.4-.36-.4-1.33.02-2.65.01-3.98 0-.24 0-.32.08-.32.33.01.79.02 1.59 0 2.38 0 .3.2.34.38.44a1.86 1.86 0 0 1-.51 3.48 1.89 1.89 0 0 1-1.95-.93c-.53-.94-.16-2.1.83-2.57.26-.12.33-.25.33-.52-.02-.71-.02-1.43 0-2.15.02-.39-.12-.47-.47-.44-.42.02-.84 0-1.26 0-.58 0-.7-.11-.7-.67V.7c0-.57.1-.69.69-.69h7.4l.38-.01zm-.03 2.3h6.74c.81 0 .78 0 .82-.8.02-.44-.1-.57-.55-.57-4.54.02-9.08 0-13.61 0-.94 0-.92 0-.94.94-.01.34.08.45.44.44h7.1zm5.59 4.84c-.54 0-.93.38-.92.9a.91.91 0 0 0 1.83 0c.02-.52-.37-.9-.91-.9zm-11.2 0a.89.89 0 0 0-.9.88c0 .5.42.92.92.92.51 0 .93-.42.92-.92 0-.52-.4-.89-.94-.88zm4.7.9c.01.52.41.9.93.9a.9.9 0 0 0 .89-.94c-.01-.5-.38-.86-.9-.86-.54 0-.92.37-.92.9z" class="st0"/></svg>