<svg xmlns="http://www.w3.org/2000/svg" fill="none" viewBox="0 0 24 24"><path fill="#fff" d="m23.688 13.995-4.768 1.278-2.868-1.652c.218-.499.312-1.06.312-1.652 0-.561-.125-1.091-.312-1.59l2.836-1.652 4.8 1.278L24 8.79l-4.426-1.185 1.184-4.426-1.215-.311-1.278 4.768-2.836 1.652a4.5 4.5 0 0 0-2.806-1.652V4.364L16.114.873 15.242 0 12 3.242 8.758 0l-.872.873 3.49 3.49v3.273a4.22 4.22 0 0 0-2.805 1.652L5.735 7.636 4.457 2.867l-1.215.312 1.184 4.426L0 8.79l.312 1.215 4.8-1.278 2.836 1.652a4.51 4.51 0 0 0-.312 1.59c0 .592.125 1.153.312 1.652l-2.836 1.652-4.8-1.278L0 15.21l4.426 1.185-1.184 4.426 1.215.311 1.278-4.768 2.868-1.652c.685.841 1.652 1.433 2.774 1.59v3.334l-3.491 3.46.872.873L12 20.727 15.242 24l.872-.873-3.49-3.522V16.27a4.272 4.272 0 0 0 2.773-1.59l2.868 1.652 1.278 4.77 1.215-.312-1.184-4.426L24 15.179l-.312-1.184ZM12 15.085a3.126 3.126 0 0 1-3.117-3.116A3.126 3.126 0 0 1 12 8.852c1.714 0 3.117 1.403 3.117 3.117S13.714 15.086 12 15.086Z"/></svg>