<svg xmlns="http://www.w3.org/2000/svg" fill="none" viewBox="0 0 24 24"><path fill="#fff" d="M22.7 10.1 19 6.4A7.4 7.4 0 0 0 11.8 0a7.3 7.3 0 0 0-7.2 6A5 5 0 0 0 0 11a5 5 0 0 0 2.5 4.3v1.6l.2.4.9.9-.9.9c-.2.2-.2.5 0 .7l.9.9-.9.9c-.2.2-.2.5 0 .7L4 23.6c.3.3.6.4 1 .4s.7-.1 1-.4l.8-.8c.5-.5.7-1.1.7-1.8v-5.7A5 5 0 0 0 10 11c0-1.7-.8-3.2-2.2-4.1-.3-.2-.6-.1-.7.1-.2.2-.1.5.1.7A4 4 0 0 1 9 11c0 1.5-.9 2.9-2.2 3.6-.2.1-.3.3-.3.4v6c0 .4-.2.8-.4 1.1l-.8.8c-.2.2-.4.2-.6 0l-1-1 .9-.9c.2-.2.2-.5 0-.7l-.9-.9.9-.9.1-.4-.2-.4-1.1-1.1V15c0-.2-.1-.4-.3-.4A4.3 4.3 0 0 1 1 11a4 4 0 0 1 3.5-4v1.1A1 1 0 0 0 4 9c0 .6.4 1 1 1s1-.4 1-1a1 1 0 0 0-.5-.9v-.8C5.5 3.8 8.3 1 11.7 1c3.2 0 5.8 2.4 6.2 5.5l-3.6 3.6c-.8.8-1.3 2-1.3 3.2V20a4 4 0 0 0 4 4h3a4 4 0 0 0 4-4v-6.7c0-1.2-.5-2.3-1.3-3.2zM23 20a3 3 0 0 1-3 3h-3a3 3 0 0 1-3-3v-6.7a4 4 0 0 1 1-2.5l3.5-3.5 3.5 3.5c.7.7 1 1.6 1 2.5V20z"/></svg>