<svg xmlns="http://www.w3.org/2000/svg" fill="none" viewBox="0 0 37 37"><path fill="#fff" d="M32.1 19.56a2.93 2.93 0 0 0-2.27-1.07H5.26V8.54c0-1.05.36-2.1 1.1-2.82a3.28 3.28 0 0 1 4.5-.15l-.75 4.49c-.1.55.01 1.11.3 1.58a2.16 2.16 0 0 0 1.81 1.03c.47 0 .92-.15 1.3-.45l4.12-3.2a2.3 2.3 0 0 0 .5-3.02c-.36-.6-1-.99-1.7-1.02l-4.65-.22a4.43 4.43 0 0 0-6.43.25 5.3 5.3 0 0 0-1.3 3.58v10.13c0 .26.01.53.04.8L4.5 23a10.76 10.76 0 0 0 3.8 7.15l-.61 2.58c-.08.33.11.67.43.75l.15.02a.6.6 0 0 0 .58-.47l.5-2.13c1.4.86 3 1.32 4.65 1.32h9.34a8.8 8.8 0 0 0 4.35-1.15l.46 1.93c.06.27.3.47.58.47.05 0 .1 0 .15-.02a.62.62 0 0 0 .44-.75l-.56-2.33A10.7 10.7 0 0 0 32.84 23l.08-.7c.11-1-.18-2-.82-2.74zM17.16 6.7c.26.43.16 1-.23 1.31l-4.14 3.21a.94.94 0 0 1-.73.19 1 1 0 0 1-.77-1.14l.72-4.25 4.37.2c.32.03.6.2.77.48h.01zm14.58 15.46-.08.7c-.52 4.63-4.1 8.12-8.31 8.12H14c-4.21 0-7.79-3.5-8.31-8.13l-.36-3.11h24.5c.53 0 1.01.23 1.38.66.4.47.6 1.11.52 1.76h.01z"/></svg>