<svg width="291" height="365" fill="none" xmlns="http://www.w3.org/2000/svg"><path d="M208.6 112c0-11.6-6.2-20.3-18.5-26.1a85.2 85.2 0 0 0-37.6-8.8c-39.9 0-66.5 16-79.9 47.8L0 99.7C10.3 68 30 43.4 59.2 26.2A184 184 0 0 1 155.5 0c16.2 0 32 1.9 47.4 5.7 15.5 3.7 29.9 9.4 43.3 17A88.8 88.8 0 0 1 278.6 54 82.8 82.8 0 0 1 291 99.2c0 16.5-2 30.5-6.2 42.2a68.4 68.4 0 0 1-20 30.3 154 154 0 0 1-27.4 20.6c-8.5 4.8-21 10.8-37 18-21 9.6-31.5 21-31.5 34.4 0 2 .4 5.5 1 10.3v3.6c.4 1 .6 1.9.6 2.6l.5 1.5-72.6 1c-3.1-10-4.7-18.8-4.7-26.7 0-19.2 5.2-34.1 15.5-44.7 10.3-11 25.6-21.5 45.8-31.4 16.5-7.9 28.2-14 35-18.5 12.4-7.9 18.6-18 18.6-30.3Zm-120 213.4c0-11 4.6-20 13.9-27.2a47.1 47.1 0 0 1 30.4-11.3c10.6 0 20.4 3.7 29.3 11.3 9 7.5 13.4 16.6 13.4 27.2 0 11-4.4 20.4-13.4 28.3A43.2 43.2 0 0 1 133 365c-11.7 0-22-3.8-31-11.3-8.8-7.6-13.3-17-13.3-28.3Z" fill="#E7E4DF"/></svg>