<svg width="145" height="181" fill="none" xmlns="http://www.w3.org/2000/svg"><path d="M104 55.6c0-5.8-3.1-10.1-9.3-13-6-3-12.2-4.4-18.7-4.4-19.9 0-33.1 8-39.8 23.7L0 49.5c5.1-15.8 15-28 29.5-36.5a92 92 0 0 1 48-13c8 0 16 1 23.6 2.8a84.8 84.8 0 0 1 21.6 8.4c6.6 3.8 12 9 16.1 15.6a41 41 0 0 1 6.2 22.4c0 8.2-1 15.1-3 21a33.9 33.9 0 0 1-10 15 76.7 76.7 0 0 1-13.7 10.1c-4.3 2.4-10.4 5.4-18.5 9-10.4 4.7-15.6 10.4-15.6 17 0 1 .1 2.8.5 5.1v1.8c.2.5.2 1 .2 1.3l.3.8-36.2.5a45 45 0 0 1-2.3-13.3c0-9.5 2.6-16.9 7.7-22.2a79 79 0 0 1 22.8-15.5c8.3-4 14-7 17.5-9.2 6.2-3.9 9.2-9 9.2-15ZM44 161.4c0-5.5 2.4-10 7-13.5 4.6-3.8 9.6-5.6 15.1-5.6 5.3 0 10.2 1.8 14.6 5.6a17 17 0 0 1 6.7 13.5 18 18 0 0 1-6.7 14 21.6 21.6 0 0 1-14.6 5.6c-5.8 0-11-1.9-15.4-5.6a17.6 17.6 0 0 1-6.7-14Z" fill="#FFF000"/></svg>