<svg width="47" height="39" fill="none" xmlns="http://www.w3.org/2000/svg"><path d="M45.3.7a3 3 0 0 0-3-.5L1.7 15.5A2.7 2.7 0 0 0 0 18.1c0 1.2.8 2.2 2 2.5l9.9 3L15.2 35a36 36 0 0 0 2 2h.5c.4 0 .7 0 1-.3l6-5.3 9.1 6.8a3.3 3.3 0 0 0 3.1.5c1.1-.4 1.9-1.3 2.1-2.4l7.3-32.6a3 3 0 0 0-1-2.9Zm-27.7 24a1 1 0 0 0-.3.6l-.7 7.6-2.8-9.6 18.5-10.9-14.7 12.2Zm.9 9.4.6-6.9 4 3-4.6 4ZM44.4 3.2 37 35.8c0 .4-.4.8-.8 1-.5 0-1 0-1.3-.2L19.8 25.3l18-15h.1c.6-.5.7-1.4.2-2-.5-.6-1.3-.7-2-.3L12.4 21.8l-10-3A.7.7 0 0 1 2 18s0-.5.4-.7L43 2c.5-.2.9 0 1 .2.2.1.5.5.4 1Z" fill="#000"/></svg>