<svg width="39" height="39" fill="none" xmlns="http://www.w3.org/2000/svg"><path d="M32.99 5.38a18.29 18.29 0 0 0-13-5.38c-4.91 0-9.53 1.91-13 5.38a18.4 18.4 0 0 0-3.1 21.87L0 38.37l11.11-3.9A18.4 18.4 0 0 0 33 5.39Zm-13 29.13a16.1 16.1 0 0 1-8.2-2.24l-.45-.26-7.67 2.68 2.7-7.68-.27-.45A16.14 16.14 0 0 1 19.99 2.24c8.88 0 16.13 7.25 16.13 16.14s-7.24 16.13-16.14 16.13Z" fill="#000"/><path d="M27.22 20.16a2.26 2.26 0 0 0-3.19 0l-1.01 1.02a14.54 14.54 0 0 1-5.84-5.84l1.01-1.01a2.23 2.23 0 0 0 0-3.18L15.54 8.5a2.23 2.23 0 0 0-3.18 0l-2.12 2.12c-1.2 1.2-1.25 3.27-.15 5.82a23.3 23.3 0 0 0 4.93 6.9 23.16 23.16 0 0 0 6.9 4.94c1.23.52 2.33.78 3.29.78 1.05 0 1.9-.32 2.54-.95L29.87 26a2.23 2.23 0 0 0 0-3.17l-2.65-2.66Zm-1.06 6.37c-.47.48-1.78.36-3.34-.32a20.88 20.88 0 0 1-6.2-4.46 21.2 21.2 0 0 1-4.47-6.2c-.66-1.56-.79-2.87-.32-3.34l2.12-2.12 2.66 2.65-2.16 2.15.34.72a16.78 16.78 0 0 0 7.96 7.96l.72.33 2.15-2.15 2.65 2.66-2.11 2.12Z" fill="#000"/></svg>