<svg width="47" height="15" fill="none" xmlns="http://www.w3.org/2000/svg"><path fill-rule="evenodd" clip-rule="evenodd" d="M6.1 14.92c-.73 0-1.14-.45-1.37-.96-.57-1.2-.84-2.24-1.3-3.26-.2-.5-.44-.97-.66-1.56C1.95 7 1 4.8.16 2.7-.37 1.35.46.08 1.89.22c.7.06.98.5 1.25 1.07.24.47.41 1.06.6 1.62l1.84 4.92.3.82c.23.59.11.65.4.75l1.24-3.34c.39-1.16 1.33-3.8 1.8-4.9.76-1.82 3.94-.98 2.83 1.66-.22.5-.45 1.1-.67 1.64-.2.5-.45 1.03-.62 1.6-.08.27-.22.52-.34.78l-2.2 5.62c-.57 1.58-.84 2.46-2.23 2.46ZM14.3.26c.72-.33 1.89.29 2.06 1.13.53 2.5-2.77 2.89-3.26.92-.11-.5-.02-.98.24-1.35.29-.43.45-.49.95-.7ZM40.09 6.62c0-1.11-.02-2.16.8-2.61.96-.51 1.87.13 2.26.78.34-.14.6-.55 1.14-.74.91-.34 2-.41 2.52.64.83 1.8-1.6 2.23-2.5 2.68-1.35.68-1.06 1.36-1.06 3.31 0 1.7.31 4.24-1.54 4.24-1.33 0-1.64-.88-1.64-2.2l.02-6.1ZM13.18 6.88c0-1.23.18-2.29 1.39-2.33 1.29-.06 1.64.82 1.64 2.01v6.3c0 1.22-.34 2.1-1.64 2.06-1.2-.04-1.39-1.13-1.39-2.32V6.88ZM17.55 3.34v9.53c0 .9.2 1.76.98 2.01 1.3.41 1.88-.66 2.13-.82.58.22.53.92 2.75.92 1.86 0 3-1.11 3.81-2.26a6.4 6.4 0 0 0 .76-4.89c-.25-.9-.39-1.4-.92-2.09-1.4-1.89-3.69-2.69-5.74-1.54-.49.27-.21.24-.54.27-.02-2.06.29-4.23-1.76-4.23-1.58-.02-1.47 1.7-1.47 3.1Zm2.95 6.23c.22 1.54.69 2.73 2.54 2.64 1.4-.08 2.15-1.7 2.01-3.19-.13-1.52-1.19-2.83-2.52-2.6-1.62.3-2.18 2.1-2.03 3.15ZM33.8 14.98c1.7 0 2.93-.1 4.24-1.11.37-.28.86-.74.93-1.37.08-.66-.35-1.29-.93-1.39-.6-.11-1.35.28-1.74.5-2.7 1.4-4.59-.38-4.53-1.4h5.9c1.5 0 1.52-.46 1.52-1.63a5.1 5.1 0 0 0-3.38-4.6 5.39 5.39 0 0 0-5.88 1.53 6.32 6.32 0 0 0-.9 6.2c.38.9 1.1 1.73 1.76 2.24.78.6 1.74 1.03 3.01 1.03Zm1.97-6.6c.63 0 .57-.04.41-.62A2.33 2.33 0 0 0 34.2 6.2c-1.68-.1-2.6 1.35-2.54 2.15l4.12.02Z" fill="#000"/></svg>