<svg width="273" height="46" fill="none" xmlns="http://www.w3.org/2000/svg"><g clip-path="url(#a)"><path d="m123.85 14.95 5.66-4.1h-18.98v24.8h18.98v-4.1h-13.48v-6.41h11.48v-4.11h-11.48v-6.08h7.82ZM96.38 20.54H89.9v-5.59h10.49l5.66-4.1H84.4v24.8h11.32c6.32 0 9.98-2.8 9.98-7.72-.16-4.77-3.33-7.4-9.32-7.4Zm-1 11h-5.66v-6.9h5.66c3.5 0 5 1.15 5 3.45 0 2.3-1.67 3.45-5 3.45ZM144.82 10.84H134.5v24.81h5.33v-7.06h5c6.65 0 10.65-3.45 10.65-8.88 0-5.42-4-8.87-10.66-8.87Zm0 13.64H140v-9.53h4.82c3.5 0 5.33 1.64 5.33 4.76 0 3.13-2 4.77-5.33 4.77ZM75.08 30.23c-1.5.82-3 1.15-4.67 1.15-4.82 0-8.32-3.45-8.32-8.22 0-4.76 3.5-8.21 8.32-8.21 1.84 0 3.5.5 5 1.48l3.83-2.8-.34-.16a13.15 13.15 0 0 0-8.65-2.96c-3.83 0-7.16 1.32-9.66 3.45A12.43 12.43 0 0 0 56.76 23c0 1.64.34 3.45 1 4.93a14.75 14.75 0 0 0 2.83 4.27c2.5 2.3 5.83 3.61 9.5 3.61 3.82 0 7.32-1.31 9.65-3.77l-3.5-2.47-1.16.66ZM178.78 20.54h-6.49v-5.59h14.15v-4.1h-19.48v24.8h11.32c6.33 0 9.99-2.8 9.99-7.72-.17-4.77-3.5-7.4-9.49-7.4Zm-.83 11h-5.66v-6.9h5.66c3.5 0 5 1.15 5 3.45 0 2.3-1.67 3.45-5 3.45ZM254.36 35.65h-5.5v-24.8h5.5v10.34h3l7.98-10.35h6.16l-9.49 11.83 11.16 12.98h-7.33l-8.15-9.7h-3.33v9.7ZM209.24 30.72h-11.48l-2 4.77h-5.82l10.81-24.65h5.83l10.66 24.65h-6l-2-4.77Zm-1.83-4.43-3.82-9.53-4 9.53h7.82ZM226.39 10.84v10.19h11.32V10.84h5.66V35.5h-5.66v-9.7h-11.32v9.7h-5.66V10.84h5.66Z" fill="#21A038"/><path d="M23.3 40.74h-.83L22.14 46h1.16c6.5 0 12.32-2.63 16.48-6.74l-3.82-3.77a17.43 17.43 0 0 1-12.66 5.25Z" fill="url(#b)"/><path d="M5.33 23v-.82L0 21.85V23c0 6.4 2.66 12.16 6.83 16.26l3.82-3.77A16.99 16.99 0 0 1 5.33 23Z" fill="url(#c)"/><path d="M23.3 40.74c-5.32 0-9.98-2.3-13.31-5.91l-4 3.61A23.17 23.17 0 0 0 23.3 46v-5.26Z" fill="url(#d)"/><path d="M46.61 23c0-1.48-.17-2.8-.33-4.1l-5 3.6v.5c0 5.26-2.33 9.86-5.82 13.14l3.66 3.95A23.67 23.67 0 0 0 46.6 23Z" fill="#21A038"/><path d="M23.3 5.26h.84L24.47 0H23.3C16.81 0 11 2.63 6.82 6.74l3.83 3.77A17.43 17.43 0 0 1 23.3 5.26Z" fill="url(#e)"/><path d="M41.78 8.87c1.17 1.48 2 2.96 2.83 4.6l-21.3 15.44-8.83-5.42v-6.57l8.82 5.42L41.78 8.87Z" fill="#21A038"/><path d="M11.32 9.86 7.66 5.9A23.2 23.2 0 0 0 0 23h5.33c0-5.1 2.33-9.86 5.99-13.14Z" fill="url(#f)"/><path d="m33.46 8.38 4.5-3.29C33.95 1.97 28.8 0 23.3 0v5.26c3.83 0 7.33 1.15 10.16 3.12Z" fill="url(#g)"/></g><defs><linearGradient id="b" x1="21.8" y1="42.85" x2="38.93" y2="38.93" gradientUnits="userSpaceOnUse"><stop offset=".12" stop-color="#A3CD39"/><stop offset=".28" stop-color="#86C339"/><stop offset=".87" stop-color="#21A038"/></linearGradient><linearGradient id="c" x1="7.92" y1="38.65" x2="2.17" y2="21.8" gradientUnits="userSpaceOnUse"><stop offset=".14" stop-color="#F2E913"/><stop offset=".3" stop-color="#E7E518"/><stop offset=".58" stop-color="#CADB26"/><stop offset=".89" stop-color="#A3CD39"/></linearGradient><linearGradient id="d" x1="7.38" y1="37.84" x2="23.28" y2="43.85" gradientUnits="userSpaceOnUse"><stop offset=".13" stop-color="#F2E913"/><stop offset=".3" stop-color="#EBE716"/><stop offset=".53" stop-color="#D9E01F"/><stop offset=".8" stop-color="#BBD62D"/><stop offset=".98" stop-color="#A3CD39"/></linearGradient><linearGradient id="e" x1="8.37" y1="7.68" x2="23.48" y2="1.85" gradientUnits="userSpaceOnUse"><stop offset=".06" stop-color="#0FA8E0"/><stop offset=".54" stop-color="#0099F9"/><stop offset=".92" stop-color="#0291EB"/></linearGradient><linearGradient id="f" x1="2" y1="23.67" x2="8.27" y2="7.17" gradientUnits="userSpaceOnUse"><stop offset=".07" stop-color="#A3CD39"/><stop offset=".26" stop-color="#81C55F"/><stop offset=".92" stop-color="#0FA8E0"/></linearGradient><linearGradient id="g" x1="22.19" y1="1.79" x2="36.82" y2="6.36" gradientUnits="userSpaceOnUse"><stop offset=".06" stop-color="#0291EB"/><stop offset=".79" stop-color="#0C8ACB"/></linearGradient><clipPath id="a"><path fill="#fff" d="M0 0h273v46H0z"/></clipPath></defs></svg>