<svg xmlns="http://www.w3.org/2000/svg" viewBox="0 0 141 141"><defs><style>.b{fill:#fff000}</style></defs><path class="b" d="M88.86 53.15a24.44 24.44 0 0 0-38.69 29.08L45 97l14.78-5.17a24.45 24.45 0 0 0 29.08-38.68ZM71.57 91.88a21.47 21.47 0 0 1-10.89-3l-.6-.35-10.2 3.57 3.58-10.21-.35-.6a21.44 21.44 0 1 1 18.46 10.59Z"/><path class="b" d="M81.19 72.81a3 3 0 0 0-4.24 0l-1.34 1.35a19.35 19.35 0 0 1-7.76-7.77l1.34-1.34a3 3 0 0 0 0-4.23l-3.53-3.52a3 3 0 0 0-4.22 0l-2.82 2.82c-1.62 1.59-1.62 4.34-.21 7.74A30.92 30.92 0 0 0 65 77a30.74 30.74 0 0 0 9.18 6.56 11.25 11.25 0 0 0 4.37 1 4.56 4.56 0 0 0 3.37-1.26l2.82-2.82a3 3 0 0 0 .88-2.11 2.92 2.92 0 0 0-.88-2.11Zm-1.41 8.47c-.63.63-2.37.47-4.44-.43a27.85 27.85 0 0 1-8.25-5.93 28.29 28.29 0 0 1-5.93-8.25c-.89-2.07-1.06-3.81-.43-4.44l2.82-2.82 3.53 3.53-2.86 2.86.45 1a22.23 22.23 0 0 0 10.58 10.53l1 .45 2.86-2.86 3.53 3.53Z"/></svg>
