<svg xmlns="http://www.w3.org/2000/svg" viewBox="0 0 141 141"><defs><style>.t{transform-origin:center;fill:#fff;animation:r 14200ms linear infinite}@keyframes r{from{transform:rotate(200deg)}to{transform:rotate(-160deg)}}</style></defs><path class="t" d="M9 83.4c1.2-.3 2.5.4 3 2.3a3.17 3.17 0 0 1-1.1 3.5l-.6-.6a2.31 2.31 0 0 0 .9-2.7c-.3-1.3-1.2-1.9-2.1-1.7a1.55 1.55 0 0 0-1 2.1l.3 1.1-.8.2-.2-.8a1.48 1.48 0 0 0-1.8-1.3 1.66 1.66 0 0 0-1 2.2 2.23 2.23 0 0 0 1.8 1.8l-.2.7a2.75 2.75 0 0 1-2.3-2.3c-.4-1.6.4-2.9 1.5-3.1a1.76 1.76 0 0 1 2 .7A2.09 2.09 0 0 1 9 83.4Zm-7-8.9 8-.8.1.8-1.8.2a3.61 3.61 0 0 1 2.3 3.2 4.23 4.23 0 0 1-3.7 4.6 4.1 4.1 0 0 1-4.6-3.7 3.79 3.79 0 0 1 1.6-3.6l-1.8.2Zm4 .4a3.31 3.31 0 0 0-3 3.7 3.36 3.36 0 0 0 3.7 3 3.31 3.31 0 0 0 3-3.7 3.25 3.25 0 0 0-3.7-3Zm4.2-9.9v.8L3 65.5l-.2 5 7.2.3v.8l-8-.4.3-6.6ZM3.8 55l7.9 1.5-.2.8L5 56.1l5.5 6.2-.1.7-7.9-1.5.1-.8 6.5 1.2-5.4-6.2Zm4.5-13.3 7.5 2.8-3.7 9.9-7.5-2.8.3-.7 6.8 2.5 1.4-3.8-6.8-2.5.3-.8 6.8 2.5 1.4-3.8L8 42.5Zm5-8.6 6.9 4.1-.4.7-5.7-3.4 3.1 7.7-.4.6-6.9-4.1.4-.7 5.7 3.4-3.1-7.8Zm5.9-6.5-1.8 2.3 5.7 4.4-.5.6-5.7-4.4-1.8 2.3-.6-.5 4.1-5.2Zm8.7-4.3.3.3-5.1 5.1a3.27 3.27 0 0 0 4.5-.3 3 3 0 0 0 .9-3l.8-.2a3.94 3.94 0 0 1-1.2 3.7 4.05 4.05 0 0 1-5.9 0 4 4 0 1 1 5.7-5.6Zm-5.4 4.8 4.5-4.6a3.13 3.13 0 0 0-4.4.1 3.26 3.26 0 0 0-.1 4.5Zm6.5-5.8a4.11 4.11 0 0 1 .9-5.9 3.94 3.94 0 0 1 4-.5l-.3.7a3.11 3.11 0 0 0-3.3.4 3.47 3.47 0 0 0-.7 4.8 3.37 3.37 0 0 0 4.8.7 3.22 3.22 0 0 0 1.3-3.1l.8-.1a4.19 4.19 0 0 1-1.6 3.8 4.08 4.08 0 0 1-5.9-.8Zm13.7-7.2a2.51 2.51 0 0 1-1.1 3.4l-2.8 1.6-3.9-7 .7-.4 1.5 2.7 2.1-1.2a2.65 2.65 0 0 1 3.5.9Zm-.7.5a1.76 1.76 0 0 0-2.4-.6l-2.1 1.2 1.6 2.9 2.1-1.2a1.65 1.65 0 0 0 .8-2.3ZM57.2 3.3l2 7.8-.8.2-.9-3.5L52.7 9l.9 3.5-.8.2-2-7.8.8-.2.9 3.5L57.3 7l-.9-3.5ZM68.3 2l.8 8-.8.1-.2-1.8a3.73 3.73 0 0 1-3.2 2.3 4.09 4.09 0 0 1-4.5-3.8 4.24 4.24 0 0 1 3.7-4.6 4 4 0 0 1 3.6 1.6L67.5 2Zm-.5 4a3.38 3.38 0 0 0-3.7-3.1 3.31 3.31 0 0 0-3 3.7 3.45 3.45 0 0 0 3.7 3.1 3.25 3.25 0 0 0 3-3.7Zm18.9 1.8a4 4 0 0 1-4.8 3.4 3.79 3.79 0 0 1-3.2-2.7l.8-.3a2.91 2.91 0 0 0 2.6 2.2A3.11 3.11 0 0 0 85.8 8l-4.1-.8.1-.8 4.1.8a3.2 3.2 0 0 0-2.6-3.6 3.07 3.07 0 0 0-3.1 1.1l-.6-.5a3.89 3.89 0 0 1 3.9-1.4 4.13 4.13 0 0 1 3.2 5Zm5.6 6-2.8-5.1-1.2 3.7-.8-.2L90 4.6l.8.2-1.1 3.5 5-2.2 1.1.3-5.3 2.3 3 5.3Zm2.7-3.4a4.17 4.17 0 0 1 5.6-2 3.89 3.89 0 0 1 2.3 3.3l-.8.1a3 3 0 0 0-1.9-2.7 3.29 3.29 0 0 0-4.5 1.7 3.36 3.36 0 0 0 1.6 4.5 3.22 3.22 0 0 0 3.3-.3l.4.6a4.11 4.11 0 0 1-6-5.2Zm10.8 10.4-1.5-5.6-2.1 3.3-.7-.4 4.3-6.8.7.4-1.9 3.1 5.4-.9.9.6-5.7.9 1.5 5.9Zm11.9-.8-8.2 4.6c-1.4.8-3 .9-4-.1l.5-.6c.8.8 1.9.6 3 .1l.4-.2 2.3-8.6.7.5-2 7.6 6.7-3.8Zm4.3 10.4a4.14 4.14 0 0 1-5.9-.2 3.78 3.78 0 0 1-.8-3.9l-3.7 3.4-.5-.6 8.2-7.6.5.6-1.4 1.3a3.52 3.52 0 0 1 3.8 1.2 3.94 3.94 0 0 1-.2 5.8Zm-.5-.6a3.4 3.4 0 1 0-4.8-.2 3.35 3.35 0 0 0 4.8.2Zm1.5 1.8a4.1 4.1 0 0 1 5.8 1.2 3.48 3.48 0 0 1 .2 4l-.7-.3a3.07 3.07 0 0 0-.2-3.3 3.38 3.38 0 0 0-5.6 3.8 3.23 3.23 0 0 0 3 1.5v.8a3.89 3.89 0 0 1-3.7-1.8 4.23 4.23 0 0 1 1.2-5.9ZM134.7 44l-7.2 3.5-.4-.7 5.9-2.9-8.2-1.7-.3-.6 7.2-3.5.3.7-5.9 2.9 8.2 1.7Zm.5 14.7a4.19 4.19 0 0 1-5.2-2.9 4.13 4.13 0 0 1 2.5-5l-.5-1.7-3.5 1-.2-.8 7.7-2.2.2.8-3.5 1 .5 1.7a4.14 4.14 0 0 1 4.8 2.9 4.1 4.1 0 0 1-2.8 5.2Zm-.2-.8a3.31 3.31 0 0 0 2.3-4.2 3.39 3.39 0 0 0-4.2-2.3 3.31 3.31 0 0 0-2.3 4.2 3.39 3.39 0 0 0 4.2 2.3Zm-7.9 37.8.3-.8 6.8 2.5 1.8-4.7-6.8-2.5.3-.8 7.5 2.8-2.3 6.2Zm2.9 3.4a4.16 4.16 0 0 1 1.6 5.7 4.11 4.11 0 0 1-5.7 1.6 4.16 4.16 0 0 1-1.6-5.7 4.11 4.11 0 0 1 5.7-1.6Zm-3.7 6.6a3.31 3.31 0 0 0 4.6-1.3 3.39 3.39 0 0 0-1.3-4.6 3.31 3.31 0 0 0-4.6 1.3 3.23 3.23 0 0 0 1.3 4.6Zm-14.6 11.1.6-.6 5.1 5.1 3.5-3.5-5.1-5.1.6-.6 5.6 5.7-4.7 4.7Zm-5.9 9.5a4.05 4.05 0 0 1 .9-5.8 3.89 3.89 0 0 1 4-.4l-3-4.1.6-.5 6.6 9-.6.5-1.1-1.5a3.73 3.73 0 0 1-1.6 3.7 4.07 4.07 0 0 1-5.8-.9Zm.6-.5a3.36 3.36 0 1 0 .7-4.8 3.49 3.49 0 0 0-.7 4.8Zm-2 1.3a4.12 4.12 0 0 1-1.8 5.6 4 4 0 0 1-5.6-1.8 4.16 4.16 0 1 1 7.4-3.8Zm-6.8 3.5a3.38 3.38 0 0 0 4.6 1.5 3.47 3.47 0 0 0 1.5-4.6 3.38 3.38 0 0 0-4.6-1.5 3.47 3.47 0 0 0-1.5 4.6Zm-7.6 7-2.5-7.6.8-.3 2.1 6.3 2.7-7.9.7-.2 2.5 7.6-.8.3-2.1-6.3-2.7 7.9Zm-9.5-3.9c-.2-1.2.5-2.5 2.4-2.8a3.06 3.06 0 0 1 3.4 1.2l-.6.5a2.28 2.28 0 0 0-2.7-1c-1.3.3-2 1.1-1.8 2a1.56 1.56 0 0 0 2 1.1l1.1-.2.2.8-.8.2a1.58 1.58 0 0 0-1.4 1.8 1.67 1.67 0 0 0 2.1 1.1 2.25 2.25 0 0 0 1.9-1.7l.7.2a2.89 2.89 0 0 1-2.4 2.2 2.45 2.45 0 0 1-3.1-1.7 1.91 1.91 0 0 1 .7-2 2.27 2.27 0 0 1-1.7-1.7Zm-8 .7a2.16 2.16 0 0 1 2.3-2.4l3.9-.3.6 8-3.6.3c-1.6.1-2.4-.7-2.5-1.9a1.61 1.61 0 0 1 .9-1.8 2.13 2.13 0 0 1-1.6-1.9Zm.8 0c.1.9.7 1.4 1.8 1.3l3.1-.2-.2-2.9-3.1.2c-1.1.1-1.6.7-1.6 1.6Zm5.2 4.6-.2-2.8-2.8.2q-1.5.15-1.5 1.5a1.38 1.38 0 0 0 1.7 1.2Zm-7.2-2.7a4.21 4.21 0 1 1-4-4.4 4.11 4.11 0 0 1 4 4.4Zm-7.6-.5a3.41 3.41 0 1 0 3.6-3.2 3.38 3.38 0 0 0-3.6 3.2Zm-9.4-5 .6-2.9.8.2-.4 2.1 6.8 1.4.4-2.1.8.2-.6 2.9-.9-.2a4.7 4.7 0 0 0-1.5 3l-.8 3.9-5.5-1.1 1.5-7.1Zm1.9.4-1.3 6.3 3.9.8.7-3.1a6.45 6.45 0 0 1 1.3-3Zm-3.6 2.4a4.15 4.15 0 0 1-5.4 2.5 3.61 3.61 0 0 1-2.6-3.1l.7-.1a3 3 0 0 0 2.1 2.5 3.27 3.27 0 0 0 4.3-2.1 3.44 3.44 0 0 0-2-4.4 3.27 3.27 0 0 0-3.3.6l-.5-.6a4.06 4.06 0 0 1 4-.7 4.17 4.17 0 0 1 2.7 5.4Zm-15.3-3.1 2.6 1.3 3.3-6.4.7.4-3.3 6.4 2.6 1.3-.4.7-5.9-3Zm-4.2-8.7a2.23 2.23 0 0 1 3.3-.5l3.2 2.1-4.4 6.7-3-2c-1.3-.9-1.5-2.1-.8-3.1a1.75 1.75 0 0 1 1.8-.9 1.81 1.81 0 0 1-.1-2.3Zm1.8 7.3 1.5-2.3-2.3-1.5a1.36 1.36 0 0 0-2.1.3c-.5.7-.3 1.4.5 2Zm-1.2-6.8c-.5.7-.3 1.5.6 2.1l2.6 1.7 1.6-2.4-2.6-1.7a1.42 1.42 0 0 0-2.2.3ZM23.1 121l8.3-4.4c1.5-.8 3-.8 4 .2l-.5.6c-.8-.8-1.9-.7-3-.1l-.4.2-2.5 8.6-.7-.6 2.2-7.5-6.8 3.6Z"/></svg>
