<svg width="49" height="50" fill="none" xmlns="http://www.w3.org/2000/svg"><path d="M42.14 6.87A23.36 23.36 0 0 0 25.53 0a23.32 23.32 0 0 0-16.6 6.87 23.5 23.5 0 0 0-3.96 27.94L0 49.01l14.2-4.97A23.5 23.5 0 0 0 42.14 6.87ZM25.53 44.08c-3.69 0-7.3-.99-10.46-2.85l-.58-.34-9.8 3.43 3.44-9.81-.34-.58A20.62 20.62 0 0 1 25.53 2.87c11.35 0 20.6 9.25 20.6 20.61 0 11.35-9.24 20.6-20.6 20.6Z" fill="#FFF000"/><path d="M34.77 25.76a2.88 2.88 0 0 0-4.07 0l-1.3 1.3a18.58 18.58 0 0 1-7.45-7.47l1.3-1.29a2.85 2.85 0 0 0 0-4.06l-3.4-3.39a2.85 2.85 0 0 0-4.06 0l-2.7 2.71c-1.54 1.54-1.6 4.18-.2 7.44 1.22 2.85 3.45 5.98 6.3 8.83 2.84 2.84 5.97 5.08 8.82 6.3 1.56.67 2.97 1 4.2 1 1.33 0 2.43-.41 3.24-1.21l2.7-2.71a2.85 2.85 0 0 0 0-4.06l-3.38-3.4Zm-1.35 8.14c-.6.6-2.28.45-4.27-.42-2.53-1.08-5.34-3.1-7.93-5.7-2.58-2.59-4.61-5.4-5.7-7.92-.85-1.99-1-3.66-.4-4.27l2.7-2.7 3.4 3.38-2.76 2.75.44.92A21.44 21.44 0 0 0 29.06 30.1l.92.44 2.75-2.75 3.39 3.39-2.7 2.72Z" fill="#FFF000"/></svg>