<svg xmlns="http://www.w3.org/2000/svg" fill="none" viewBox="0 0 64 64"><style>.w{transform-origin:center;fill:#fff;animation:950ms linear infinite alternate r}@keyframes r{from{transform:rotate(-5deg)}to{transform:rotate(15deg)}}</style><circle cx="32" cy="32" r="32" fill="#25D366"/><g class="w"><path d="M52.621 30.577A20.319 20.319 0 0 0 32.438 11h-.1A20.323 20.323 0 0 0 14.49 41.07l-1.797 10.753a.154.154 0 0 0 .037.123.156.156 0 0 0 .118.054h.03l10.636-2.366a20.333 20.333 0 0 0 8.805 2.003h.581a20.313 20.313 0 0 0 19.721-21.06ZM32.8 48.103h-.48a16.802 16.802 0 0 1-7.742-1.88l-.544-.284-7.212 1.705 1.33-7.297-.308-.524a16.799 16.799 0 0 1 14.013-25.29h.488a16.792 16.792 0 0 1 .474 33.576l-.019-.006Z"/><path d="M25.255 21.51a1.878 1.878 0 0 0-1.336.595c-.484.497-1.838 1.692-1.916 4.202-.078 2.51 1.675 4.993 1.92 5.341.246.349 3.353 5.77 8.472 7.97 3.009 1.295 4.328 1.518 5.183 1.518.352 0 .618-.037.896-.054.938-.057 3.054-1.141 3.516-2.32.462-1.179.492-2.209.37-2.415-.12-.206-.455-.355-.957-.618-.503-.264-2.97-1.583-3.434-1.768a1.566 1.566 0 0 0-.546-.143.757.757 0 0 0-.608.363c-.412.513-1.358 1.628-1.675 1.95a.757.757 0 0 1-.556.26 1.332 1.332 0 0 1-.559-.151 13.012 13.012 0 0 1-4.016-2.68 15.397 15.397 0 0 1-2.729-3.628c-.28-.52 0-.787.256-1.03.255-.244.53-.58.793-.87a3.5 3.5 0 0 0 .536-.824.94.94 0 0 0-.014-.895c-.122-.26-1.03-2.813-1.457-3.837-.346-.876-.758-.904-1.12-.931-.296-.02-.636-.031-.976-.041h-.043"/></g></svg>